<svg viewBox="0 0 539 400" xmlns="http://www.w3.org/2000/svg"><g><g><g><g><g><line x1="50" y1="365.171175525507" x2="45" y2="365.171175525507" style="visibility: inherit;" fill="rgb(0, 0, 0)" stroke="rgb(204, 204, 204)" stroke-width="1px"></line><line x1="50" y1="337.8560087497791" x2="45" y2="337.8560087497791" style="visibility: inherit;" fill="rgb(0, 0, 0)" stroke="rgb(204, 204, 204)" stroke-width="1px"></line><line x1="50" y1="310.54084197405126" x2="45" y2="310.54084197405126" style="visibility: inherit;" fill="rgb(0, 0, 0)" stroke="rgb(204, 204, 204)" stroke-width="1px"></line><line x1="50" y1="283.22567519832336" x2="45" y2="283.22567519832336" style="visibility: inherit;" fill="rgb(0, 0, 0)" stroke="rgb(204, 204, 204)" stroke-width="1px"></line><line x1="50" y1="255.91050842259548" x2="45" y2="255.91050842259548" style="visibility: inherit;" fill="rgb(0, 0, 0)" stroke="rgb(204, 204, 204)" stroke-width="1px"></line><line x1="50" y1="228.59534164686764" x2="45" y2="228.59534164686764" style="visibility: inherit;" fill="rgb(0, 0, 0)" stroke="rgb(204, 204, 204)" stroke-width="1px"></line><line x1="50" y1="201.28017487113974" x2="45" y2="201.28017487113974" style="visibility: inherit;" fill="rgb(0, 0, 0)" stroke="rgb(204, 204, 204)" stroke-width="1px"></line><line x1="50" y1="173.96500809541186" x2="45" y2="173.96500809541186" style="visibility: inherit;" fill="rgb(0, 0, 0)" stroke="rgb(204, 204, 204)" stroke-width="1px"></line><line x1="50" y1="146.64984131968401" x2="45" y2="146.64984131968401" style="visibility: inherit;" fill="rgb(0, 0, 0)" stroke="rgb(204, 204, 204)" stroke-width="1px"></line><line x1="50" y1="119.33467454395611" x2="45" y2="119.33467454395611" style="visibility: inherit;" fill="rgb(0, 0, 0)" stroke="rgb(204, 204, 204)" stroke-width="1px"></line><line x1="50" y1="92.01950776822825" x2="45" y2="92.01950776822825" style="visibility: inherit;" fill="rgb(0, 0, 0)" stroke="rgb(204, 204, 204)" stroke-width="1px"></line><line x1="50" y1="64.70434099250036" x2="45" y2="64.70434099250036" style="visibility: inherit;" fill="rgb(0, 0, 0)" stroke="rgb(204, 204, 204)" stroke-width="1px"></line><line x1="50" y1="37.38917421677247" x2="45" y2="37.38917421677247" style="visibility: inherit;" fill="rgb(0, 0, 0)" stroke="rgb(204, 204, 204)" stroke-width="1px"></line><line x1="50" y1="10.074007441044907" x2="45" y2="10.074007441044907" style="visibility: inherit;" fill="rgb(0, 0, 0)" stroke="rgb(204, 204, 204)" stroke-width="1px"></line></g><g transform="translate(40, 0)"><text x="0" y="365.171175525507" dx="0em" dy="0.3em" style="text-anchor: end; visibility: inherit; font-family: Roboto, sans-serif; font-size: 12px; font-weight: 200;" fill="rgb(33, 33, 33)" stroke="none" stroke-width="1px">0.69</text><text x="0" y="337.8560087497791" dx="0em" dy="0.3em" style="text-anchor: end; visibility: inherit; font-family: Roboto, sans-serif; font-size: 12px; font-weight: 200;" fill="rgb(33, 33, 33)" stroke="none" stroke-width="1px">0.7</text><text x="0" y="310.54084197405126" dx="0em" dy="0.3em" style="text-anchor: end; visibility: inherit; font-family: Roboto, sans-serif; font-size: 12px; font-weight: 200;" fill="rgb(33, 33, 33)" stroke="none" stroke-width="1px">0.71</text><text x="0" y="283.22567519832336" dx="0em" dy="0.3em" style="text-anchor: end; visibility: inherit; font-family: Roboto, sans-serif; font-size: 12px; font-weight: 200;" fill="rgb(33, 33, 33)" stroke="none" stroke-width="1px">0.72</text><text x="0" y="255.91050842259548" dx="0em" dy="0.3em" style="text-anchor: end; visibility: inherit; font-family: Roboto, sans-serif; font-size: 12px; font-weight: 200;" fill="rgb(33, 33, 33)" stroke="none" stroke-width="1px">0.73</text><text x="0" y="228.59534164686764" dx="0em" dy="0.3em" style="text-anchor: end; visibility: inherit; font-family: Roboto, sans-serif; font-size: 12px; font-weight: 200;" fill="rgb(33, 33, 33)" stroke="none" stroke-width="1px">0.74</text><text x="0" y="201.28017487113974" dx="0em" dy="0.3em" style="text-anchor: end; visibility: inherit; font-family: Roboto, sans-serif; font-size: 12px; font-weight: 200;" fill="rgb(33, 33, 33)" stroke="none" stroke-width="1px">0.75</text><text x="0" y="173.96500809541186" dx="0em" dy="0.3em" style="text-anchor: end; visibility: inherit; font-family: Roboto, sans-serif; font-size: 12px; font-weight: 200;" fill="rgb(33, 33, 33)" stroke="none" stroke-width="1px">0.76</text><text x="0" y="146.64984131968401" dx="0em" dy="0.3em" style="text-anchor: end; visibility: inherit; font-family: Roboto, sans-serif; font-size: 12px; font-weight: 200;" fill="rgb(33, 33, 33)" stroke="none" stroke-width="1px">0.77</text><text x="0" y="119.33467454395611" dx="0em" dy="0.3em" style="text-anchor: end; visibility: inherit; font-family: Roboto, sans-serif; font-size: 12px; font-weight: 200;" fill="rgb(33, 33, 33)" stroke="none" stroke-width="1px">0.78</text><text x="0" y="92.01950776822825" dx="0em" dy="0.3em" style="text-anchor: end; visibility: inherit; font-family: Roboto, sans-serif; font-size: 12px; font-weight: 200;" fill="rgb(33, 33, 33)" stroke="none" stroke-width="1px">0.79</text><text x="0" y="64.70434099250036" dx="0em" dy="0.3em" style="text-anchor: end; visibility: inherit; font-family: Roboto, sans-serif; font-size: 12px; font-weight: 200;" fill="rgb(33, 33, 33)" stroke="none" stroke-width="1px">0.8</text><text x="0" y="37.38917421677247" dx="0em" dy="0.3em" style="text-anchor: end; visibility: inherit; font-family: Roboto, sans-serif; font-size: 12px; font-weight: 200;" fill="rgb(33, 33, 33)" stroke="none" stroke-width="1px">0.81</text><text x="0" y="10.074007441044907" dx="0em" dy="0.3em" style="text-anchor: end; visibility: inherit; font-family: Roboto, sans-serif; font-size: 12px; font-weight: 200;" fill="rgb(33, 33, 33)" stroke="none" stroke-width="1px">0.82</text></g><line x1="50" y1="0" x2="50" y2="377" fill="rgb(0, 0, 0)" stroke="rgb(204, 204, 204)" stroke-width="1px"></line></g></g><g transform="translate(50, 0)" clip-path="url(#clip_0)"><clipPath id="clip_0"><rect width="489" height="377"></rect></clipPath><g><g><g><line x1="2.420094611462718" y1="0" x2="2.420094611462718" y2="377" fill="rgb(0, 0, 0)" stroke="rgb(66, 66, 66)" stroke-width="1px" opacity="0.25"></line><line x1="34.292852621967384" y1="0" x2="34.292852621967384" y2="377" fill="rgb(0, 0, 0)" stroke="rgb(66, 66, 66)" stroke-width="1px" opacity="0.25"></line><line x1="66.16561063247207" y1="0" x2="66.16561063247207" y2="377" fill="rgb(0, 0, 0)" stroke="rgb(66, 66, 66)" stroke-width="1px" opacity="0.25"></line><line x1="98.03836864297674" y1="0" x2="98.03836864297674" y2="377" fill="rgb(0, 0, 0)" stroke="rgb(66, 66, 66)" stroke-width="1px" opacity="0.25"></line><line x1="129.9111266534814" y1="0" x2="129.9111266534814" y2="377" fill="rgb(0, 0, 0)" stroke="rgb(66, 66, 66)" stroke-width="1px" opacity="0.25"></line><line x1="161.78388466398607" y1="0" x2="161.78388466398607" y2="377" fill="rgb(0, 0, 0)" stroke="rgb(66, 66, 66)" stroke-width="1px" opacity="0.25"></line><line x1="193.65664267449074" y1="0" x2="193.65664267449074" y2="377" fill="rgb(0, 0, 0)" stroke="rgb(66, 66, 66)" stroke-width="1px" opacity="0.25"></line><line x1="225.5294006849954" y1="0" x2="225.5294006849954" y2="377" fill="rgb(0, 0, 0)" stroke="rgb(66, 66, 66)" stroke-width="1px" opacity="0.25"></line><line x1="257.40215869550013" y1="0" x2="257.40215869550013" y2="377" fill="rgb(0, 0, 0)" stroke="rgb(66, 66, 66)" stroke-width="1px" opacity="0.25"></line><line x1="289.2749167060048" y1="0" x2="289.2749167060048" y2="377" fill="rgb(0, 0, 0)" stroke="rgb(66, 66, 66)" stroke-width="1px" opacity="0.25"></line><line x1="321.14767471650947" y1="0" x2="321.14767471650947" y2="377" fill="rgb(0, 0, 0)" stroke="rgb(66, 66, 66)" stroke-width="1px" opacity="0.25"></line><line x1="353.0204327270141" y1="0" x2="353.0204327270141" y2="377" fill="rgb(0, 0, 0)" stroke="rgb(66, 66, 66)" stroke-width="1px" opacity="0.25"></line><line x1="384.8931907375188" y1="0" x2="384.8931907375188" y2="377" fill="rgb(0, 0, 0)" stroke="rgb(66, 66, 66)" stroke-width="1px" opacity="0.25"></line><line x1="416.7659487480235" y1="0" x2="416.7659487480235" y2="377" fill="rgb(0, 0, 0)" stroke="rgb(66, 66, 66)" stroke-width="1px" opacity="0.25"></line><line x1="448.63870675852814" y1="0" x2="448.63870675852814" y2="377" fill="rgb(0, 0, 0)" stroke="rgb(66, 66, 66)" stroke-width="1px" opacity="0.25"></line><line x1="480.51146476903284" y1="0" x2="480.51146476903284" y2="377" fill="rgb(0, 0, 0)" stroke="rgb(66, 66, 66)" stroke-width="1px" opacity="0.25"></line></g><g><line x1="0" y1="365.171175525507" x2="489" y2="365.171175525507" fill="rgb(0, 0, 0)" stroke="rgb(66, 66, 66)" stroke-width="1px" opacity="0.25"></line><line x1="0" y1="337.8560087497791" x2="489" y2="337.8560087497791" fill="rgb(0, 0, 0)" stroke="rgb(66, 66, 66)" stroke-width="1px" opacity="0.25"></line><line x1="0" y1="310.54084197405126" x2="489" y2="310.54084197405126" fill="rgb(0, 0, 0)" stroke="rgb(66, 66, 66)" stroke-width="1px" opacity="0.25"></line><line x1="0" y1="283.22567519832336" x2="489" y2="283.22567519832336" fill="rgb(0, 0, 0)" stroke="rgb(66, 66, 66)" stroke-width="1px" opacity="0.25"></line><line x1="0" y1="255.91050842259548" x2="489" y2="255.91050842259548" fill="rgb(0, 0, 0)" stroke="rgb(66, 66, 66)" stroke-width="1px" opacity="0.25"></line><line x1="0" y1="228.59534164686764" x2="489" y2="228.59534164686764" fill="rgb(0, 0, 0)" stroke="rgb(66, 66, 66)" stroke-width="1px" opacity="0.25"></line><line x1="0" y1="201.28017487113974" x2="489" y2="201.28017487113974" fill="rgb(0, 0, 0)" stroke="rgb(66, 66, 66)" stroke-width="1px" opacity="0.25"></line><line x1="0" y1="173.96500809541186" x2="489" y2="173.96500809541186" fill="rgb(0, 0, 0)" stroke="rgb(66, 66, 66)" stroke-width="1px" opacity="0.25"></line><line x1="0" y1="146.64984131968401" x2="489" y2="146.64984131968401" fill="rgb(0, 0, 0)" stroke="rgb(66, 66, 66)" stroke-width="1px" opacity="0.25"></line><line x1="0" y1="119.33467454395611" x2="489" y2="119.33467454395611" fill="rgb(0, 0, 0)" stroke="rgb(66, 66, 66)" stroke-width="1px" opacity="0.25"></line><line x1="0" y1="92.01950776822825" x2="489" y2="92.01950776822825" fill="rgb(0, 0, 0)" stroke="rgb(66, 66, 66)" stroke-width="1px" opacity="0.25"></line><line x1="0" y1="64.70434099250036" x2="489" y2="64.70434099250036" fill="rgb(0, 0, 0)" stroke="rgb(66, 66, 66)" stroke-width="1px" opacity="0.25"></line><line x1="0" y1="37.38917421677247" x2="489" y2="37.38917421677247" fill="rgb(0, 0, 0)" stroke="rgb(66, 66, 66)" stroke-width="1px" opacity="0.25"></line><line x1="0" y1="10.074007441044907" x2="489" y2="10.074007441044907" fill="rgb(0, 0, 0)" stroke="rgb(66, 66, 66)" stroke-width="1px" opacity="0.25"></line></g></g></g><g><g><line x1="0" y1="2249.9176830507286" x2="489" y2="2249.9176830507286" fill="rgb(0, 0, 0)" stroke="rgb(153, 153, 153)" stroke-width="1.5px"></line></g></g><g><g><line x1="2.420094611462718" y1="0" x2="2.420094611462718" y2="377" fill="rgb(0, 0, 0)" stroke="rgb(153, 153, 153)" stroke-width="1.5px"></line></g></g><g><g><g><g><g><path stroke="rgb(0, 119, 187)" stroke-width="2px" d="M2.420094611462718,361.53414529357616L18.356473616715054,361.03415246301205L34.292852621967384,360.32755237032285L50.22923162721972,359.8116040537948L66.16561063247207,359.9296420877117L82.1019896377244,360.03953956756544L98.03836864297674,356.0661351292985L113.97474764822907,355.64070977395363L129.9111266534814,355.44533647643584L145.84750565873372,348.7638953234918L161.78388466398607,342.3014350748488L177.7202636692384,340.97940909497885L193.65664267449074,310.8544747285564L209.59302167974306,314.39756947904056L225.5294006849954,288.3583791969578L241.46577969024773,261.6664792900845L257.40215869550013,234.31079860489473L273.33853770075245,228.83155447600979L289.2749167060048,192.70279867686727L305.2112957112571,147.00775217585004L321.14767471650947,137.05331985624002L337.0840537217618,142.0952534208478L353.0204327270141,159.00904540912086L368.95681173226643,47.93183646054901" style="fill: none;" fill="none"></path></g><g><path stroke="rgb(51, 187, 238)" stroke-width="2px" d="M2.420094611462718,357.75757945255833L18.356473616715054,357.41909521460883L34.292852621967384,356.7470110711478L50.22923162721972,356.78559729740755L66.16561063247207,355.85106169094774L82.1019896377244,358.12309032999775L98.03836864297674,359.47653884855185L113.97474764822907,356.77957328740075L129.9111266534814,359.0678830345773L145.84750565873372,355.2747104632704L161.78388466398607,354.87712580282175L177.7202636692384,353.0819708207963L193.65664267449074,358.200099971436" style="fill: none;" fill="none"></path></g><g><path stroke="rgb(0, 153, 136)" stroke-width="2px" d="M2.420094611462718,354.82795685627985L18.356473616715054,356.3434024006924L34.292852621967384,353.52090949588614L50.22923162721972,355.56891008711585L66.16561063247207,352.5266222226021L82.1019896377244,348.7568944469974L98.03836864297674,349.11393914821105L113.97474764822907,346.4316265843738L129.9111266534814,345.01793796575174L145.84750565873372,331.3375740513972L161.78388466398607,319.4103598601019L177.7202636692384,315.45046874157987L193.65664267449074,320.4515367247902L209.59302167974306,310.7409954049148L225.5294006849954,282.12092386262276L241.46577969024773,262.30144250701716L257.40215869550013,268.4088117874216L273.33853770075245,227.08198659673846L289.2749167060048,155.62371459638223L305.2112957112571,223.44755482966474L321.14767471650947,267.8412523581326L337.0840537217618,179.19094423162184L353.0204327270141,242.06321105039854L368.95681173226643,218.5239849211365L384.8931907375188,163.83574272429652L400.8295697427711,110.39479622102608L416.7659487480235,161.5077070732914L432.70232775327577,47.337250391770056L448.63870675852814,4.227318239074979L464.57508576378046,50.50620527750771" style="fill: none;" fill="none"></path></g><g><path stroke="rgb(255, 112, 67)" stroke-width="2px" d="M2.420094611462718,356.00996530626213L18.356473616715054,355.86945934313064L34.292852621967384,355.07266191142077L50.22923162721972,358.81047871509764L66.16561063247207,355.1669295274731L82.1019896377244,350.7671228673737L98.03836864297674,346.400366856771L113.97474764822907,343.9074035804447L129.9111266534814,343.7147980713084L145.84750565873372,339.7169719708517L161.78388466398607,338.49426075055317L177.7202636692384,334.74765214848804L193.65664267449074,319.4697859047635L209.59302167974306,312.15305591272426" style="fill: none;" fill="none"></path></g><g><path stroke="rgb(204, 51, 17)" stroke-width="2px" d="M2.420094611462718,355.39730720746275L18.356473616715054,357.3375268628952L34.292852621967384,355.6695273353375L50.22923162721972,346.77255298854226L66.16561063247207,344.6127011844837L82.1019896377244,335.8254615064609L98.03836864297674,341.3584332921632L113.97474764822907,333.49498368923685L129.9111266534814,326.2943379981394L145.84750565873372,327.4356436778055L161.78388466398607,316.5128110468326L177.7202636692384,317.450765685999L193.65664267449074,306.5787301123807L209.59302167974306,292.8846900672L225.5294006849954,298.8562749058296L241.46577969024773,274.9793785940244L257.40215869550013,268.16280424363055L273.33853770075245,279.5678832973097L289.2749167060048,254.67162680570573" style="fill: none;" fill="none"></path></g><g><path stroke="rgb(238, 51, 119)" stroke-width="2px" d="M2.420094611462718,363.4476639316811L18.356473616715054,365.0417472283446L34.292852621967384,360.52048350162164L50.22923162721972,370.28491528939566L66.16561063247207,365.723925658844L82.1019896377244,361.8094588319949L98.03836864297674,364.9855774053082L113.97474764822907,361.31549001143753L129.9111266534814,358.5320717661349L145.84750565873372,357.68854755410206L161.78388466398607,363.89181256137147L177.7202636692384,354.2345104650697L193.65664267449074,345.7925930904095L209.59302167974306,348.88958547822824L225.5294006849954,356.6949115251431L241.46577969024773,356.29244253225653L257.40215869550013,349.4532374415669" style="fill: none;" fill="none"></path></g><g><path stroke="rgb(187, 187, 187)" stroke-width="2px" d="M2.420094611462718,352.3201777715584L18.356473616715054,355.02235328730995L34.292852621967384,355.9910792208354L50.22923162721972,355.7641205735523L66.16561063247207,356.6913296813553L82.1019896377244,357.1257096461697L98.03836864297674,358.03517234611473L113.97474764822907,359.34808090543396L129.9111266534814,361.9481738732325L145.84750565873372,362.4211400643067L161.78388466398607,358.64717920058905L177.7202636692384,357.46972946088215L193.65664267449074,349.39609075204294L209.59302167974306,346.1050275553566L225.5294006849954,336.02018355965356L241.46577969024773,335.72793766878334L257.40215869550013,334.17667368649245L273.33853770075245,339.6463119615828L289.2749167060048,331.4508905639575L305.2112957112571,321.1024554276868L321.14767471650947,314.50828101430056L337.0840537217618,301.6128293227236L353.0204327270141,294.0772812374645L368.95681173226643,294.49505447198993L384.8931907375188,293.3307924298654L400.8295697427711,273.6243019646576L416.7659487480235,255.6646115903396L432.70232775327577,247.14780111829765L448.63870675852814,266.41991161869106L464.57508576378046,231.80643855287985" style="fill: none;" fill="none"></path></g><g><path stroke="rgb(0, 119, 187)" stroke-width="2px" d="M2.420094611462718,357.3779040110488L18.356473616715054,357.3105002234052L34.292852621967384,356.655511243477L50.22923162721972,356.5701982368942L66.16561063247207,356.0638557741608L82.1019896377244,356.3220741490467L98.03836864297674,357.384742076462L113.97474764822907,358.3552589318813L129.9111266534814,357.26328500983846L145.84750565873372,355.28594442787767L161.78388466398607,355.0498683600437L177.7202636692384,355.64950157234193L193.65664267449074,355.47382841565724L209.59302167974306,353.55607668943935" style="fill: none;" fill="none"></path></g><g><path stroke="rgb(51, 187, 238)" stroke-width="2px" d="M2.420094611462718,354.48703045211136L18.356473616715054,354.7924640405641L34.292852621967384,354.7667398897243L50.22923162721972,353.26106301018757L66.16561063247207,355.53846441491936L82.1019896377244,355.19249086723164L98.03836864297674,354.87566050309044L113.97474764822907,353.2042419428262L129.9111266534814,348.1009286005816L145.84750565873372,345.82027097422457L161.78388466398607,345.72339838087197L177.7202636692384,338.00257128513357L193.65664267449074,338.5128212138174L209.59302167974306,326.13217816119965L225.5294006849954,324.3619332746077L241.46577969024773,322.65030037727104L257.40215869550013,313.2640787312751L273.33853770075245,310.1363150490974L289.2749167060048,308.8401760311485L305.2112957112571,300.90118208651523L321.14767471650947,287.12052654610164L337.0840537217618,284.222163677426L353.0204327270141,277.86846123106795L368.95681173226643,274.95691066480987" style="fill: none;" fill="none"></path></g><g><path stroke="rgb(0, 153, 136)" stroke-width="2px" d="M2.420094611462718,356.40803839995453L18.356473616715054,358.3577010981003L34.292852621967384,359.11314451516887L50.22923162721972,358.3510258437684L66.16561063247207,363.9230722889743L82.1019896377244,365.50022323318626L98.03836864297674,368.1761861648542L113.97474764822907,366.29229914353937L129.9111266534814,366.9409384912983L145.84750565873372,370.1590623235779L161.78388466398607,369.3756154005318L177.7202636692384,368.3153896393356L193.65664267449074,369.68918954304775L209.59302167974306,365.9469768401768L225.5294006849954,356.8463258307193L241.46577969024773,358.75414608098004L257.40215869550013,353.63959877412816L273.33853770075245,347.87934271898024L289.2749167060048,343.9259640437088L305.2112957112571,342.4194731087658L321.14767471650947,334.46777989979387L337.0840537217618,333.1854798237525L353.0204327270141,327.38435818720706L368.95681173226643,324.24991925069753L384.8931907375188,317.0850919974783" style="fill: none;" fill="none"></path></g><g><path style="fill: none;" stroke="rgb(255, 112, 67)" stroke-width="2px" d="M2.420094611462718,332.12460281823115L18.356473616715054,334.14573958105217L34.292852621967384,331.6890831758479L50.22923162721972,331.40204723957805L66.16561063247207,332.5265833778739L82.1019896377244,335.328073653197L98.03836864297674,335.11886141377175L113.97474764822907,334.95930655413224L129.9111266534814,337.8822538960789L145.84750565873372,339.112128803953L161.78388466398607,336.29012433239063L177.7202636692384,340.95352213305773L193.65664267449074,336.9613944204453L209.59302167974306,338.91463896237883L225.5294006849954,343.3921065082416L241.46577969024773,347.5263682947982L257.40215869550013,339.96818946924327L273.33853770075245,336.305754196192L289.2749167060048,330.4816761971882L305.2112957112571,336.5958835430058L321.14767471650947,334.79014584069813L337.0840537217618,330.56503547079586L353.0204327270141,324.7420971493609L368.95681173226643,328.38157605995383L384.8931907375188,318.30340731858263L400.8295697427711,324.6592263089971L416.7659487480235,307.5536428669942L432.70232775327577,307.4759819812309L448.63870675852814,302.3353849013767L464.57508576378046,307.0595112353556" fill="none"></path></g><g><path stroke="rgb(204, 51, 17)" stroke-width="2px" d="M2.420094611462718,350.7109530443373L18.356473616715054,350.96965985246703L34.292852621967384,350.3395809679723L50.22923162721972,350.3488611996044L66.16561063247207,349.08674969763985L82.1019896377244,346.2753279463596L98.03836864297674,343.0988837508837L113.97474764822907,342.198212849327L129.9111266534814,335.78199094776323L145.84750565873372,327.2995336138681L161.78388466398607,326.79840110573514L177.7202636692384,326.81891530197447L193.65664267449074,320.6296520476938L209.59302167974306,320.7566446910804L225.5294006849954,316.95809935409176L241.46577969024773,319.10313534975523L257.40215869550013,320.5402687640795L273.33853770075245,315.14129049825806L289.2749167060048,313.57146605270304" style="fill: none;" fill="none"></path></g><g><path style="fill: none;" stroke="rgb(238, 51, 119)" stroke-width="2px" d="M2.420094611462718,347.8088455207926L18.356473616715054,345.3411179620623L34.292852621967384,347.08840648619594L50.22923162721972,344.6939439140348L66.16561063247207,341.01245974447556L82.1019896377244,340.5381910647513L98.03836864297674,341.26074664340433L113.97474764822907,334.83312796615206L129.9111266534814,326.2580311270173L145.84750565873372,319.7162818817984L161.78388466398607,318.4694746214727L177.7202636692384,319.76968391645323" fill="none"></path></g><g><path stroke="rgb(187, 187, 187)" stroke-width="2px" d="M2.420094611462718,347.2702664639687L18.356473616715054,351.6217182329325L34.292852621967384,351.0841160425962L50.22923162721972,354.06437288514803L66.16561063247207,355.74751384326333L82.1019896377244,356.8241835236673L98.03836864297674,354.39422813579046L113.97474764822907,350.6671568634771L129.9111266534814,347.55811645564484L145.84750565873372,350.170257443457L161.78388466398607,349.493288967558L177.7202636692384,351.3211689769177L193.65664267449074,348.25983221589604L209.59302167974306,346.51352055825L225.5294006849954,349.16115436177785L241.46577969024773,344.8564293731371L257.40215869550013,346.2859106666418L273.33853770075245,347.4853399023195L289.2749167060048,349.6258171877075L305.2112957112571,338.70021676835313L321.14767471650947,341.3649457354138L337.0840537217618,337.89853500420537L353.0204327270141,335.64848586112606L368.95681173226643,331.78807231325686L384.8931907375188,325.21652864016653L400.8295697427711,327.97601365652326L416.7659487480235,319.18340121281875L432.70232775327577,320.17280415366486L448.63870675852814,312.5682241699495L464.57508576378046,312.56594481481176" style="fill: none;" fill="none"></path></g><g><path stroke="rgb(0, 119, 187)" stroke-width="2px" d="M2.420094611462718,356.1214908969285L18.356473616715054,358.8656716716464L34.292852621967384,357.66282340326217L50.22923162721972,360.3514855992688L66.16561063247207,357.33264253045724L82.1019896377244,352.6197501610856L98.03836864297674,354.47742459831676L113.97474764822907,354.53147787729665L129.9111266534814,352.4245396746491L145.84750565873372,352.6059112191781L161.78388466398607,349.78993075762247L177.7202636692384,355.418961081271L193.65664267449074,349.5751829414342L209.59302167974306,342.89569552146526L225.5294006849954,346.08923488047395L241.46577969024773,338.8154870138886L257.40215869550013,337.03970655053365L273.33853770075245,336.8742904919686L289.2749167060048,325.16996467092474L305.2112957112571,338.4421612045484L321.14767471650947,322.78103767552665L337.0840537217618,312.28916597666165L353.0204327270141,310.61937552721L368.95681173226643,310.0102992721985" style="fill: none;" fill="none"></path></g><g><path stroke="rgb(51, 187, 238)" stroke-width="2px" d="M2.420094611462718,350.83843412096763L18.356473616715054,355.6898787204956L34.292852621967384,359.94624881800075L50.22923162721972,364.97629717367613L66.16561063247207,366.1350236390376L82.1019896377244,364.2630218266552L98.03836864297674,366.05719994219305L113.97474764822907,365.7703268170045L129.9111266534814,365.35271639356034L145.84750565873372,363.1681173051495L161.78388466398607,363.13425260024644L177.7202636692384,361.69028112050904L193.65664267449074,364.963272287175L209.59302167974306,359.72352325883054L225.5294006849954,359.0439498056313L241.46577969024773,356.0905567914882L257.40215869550013,355.8276168952456" style="fill: none;" fill="none"></path></g><g><path stroke="rgb(0, 153, 136)" stroke-width="2px" d="M2.420094611462718,356.39517632453465L18.356473616715054,351.99374155362256L34.292852621967384,349.57648543008435L50.22923162721972,352.05723787531576L66.16561063247207,350.594543121233L82.1019896377244,348.0615283189155L98.03836864297674,350.7708675222428L113.97474764822907,346.6877284152033L129.9111266534814,341.64221300680776L145.84750565873372,339.07451944418085L161.78388466398607,340.07955224882835L177.7202636692384,335.3852203427209L193.65664267449074,328.1020294334222L209.59302167974306,327.14388622017896L225.5294006849954,324.55095693995605L241.46577969024773,319.1181139692316L257.40215869550013,317.7137055822416L273.33853770075245,315.44525878697937L289.2749167060048,312.31505293858277L305.2112957112571,303.6259883425626L321.14767471650947,306.91900527222407L337.0840537217618,298.77128752140936L353.0204327270141,303.77023896056323" style="fill: none;" fill="none"></path></g><g><path stroke="rgb(255, 112, 67)" stroke-width="2px" d="M2.420094611462718,354.57315751410044L18.356473616715054,347.88536672898704L34.292852621967384,348.91986833934345L50.22923162721972,347.87657493059874L66.16561063247207,348.5344945099897L82.1019896377244,344.36180930825464L98.03836864297674,348.0799259710985L113.97474764822907,344.3647399077174L129.9111266534814,349.8215161073878L145.84750565873372,352.3656020632313L161.78388466398607,349.65528599341644L177.7202636692384,348.4716494326215L193.65664267449074,346.09167704669295L209.59302167974306,345.4746230486994L225.5294006849954,344.0749361830661L241.46577969024773,348.6806988609655L257.40215869550013,344.28382280032884" style="fill: none;" fill="none"></path></g><g><path stroke="rgb(204, 51, 17)" stroke-width="2px" d="M2.420094611462718,355.7346517678434L18.356473616715054,356.31914354958394L34.292852621967384,353.39798712953126L50.22923162721972,354.56583101544356L66.16561063247207,355.32941498657533L82.1019896377244,355.876460219625L98.03836864297674,356.4034796896791L113.97474764822907,355.52478828409306L129.9111266534814,357.6340058418783L145.84750565873372,358.1304168286547L161.78388466398607,357.1991374438201L177.7202636692384,356.85332670721374L193.65664267449074,350.9587515100223L209.59302167974306,348.505188515362L225.5294006849954,347.1022454281034L241.46577969024773,341.32977854186066L257.40215869550013,330.01701337125854L273.33853770075245,333.9632283589543L289.2749167060048,329.22265810576766L305.2112957112571,333.58127356230716L321.14767471650947,319.9852457880478L337.0840537217618,316.17546648645197L353.0204327270141,313.0483540485993L368.95681173226643,304.07241632739067L384.8931907375188,307.9443894620297L400.8295697427711,292.2811493889514L416.7659487480235,274.23549476372557L432.70232775327577,293.94605550596503L448.63870675852814,282.6533160983586L464.57508576378046,256.3588380408526" style="fill: none;" fill="none"></path></g><g><path stroke="rgb(238, 51, 119)" stroke-width="2px" d="M2.420094611462718,351.3503121604641L18.356473616715054,354.53098944405286L34.292852621967384,356.52086647927104L50.22923162721972,359.20578402040854L66.16561063247207,360.75265210350517L82.1019896377244,359.92426932203L98.03836864297674,359.4283467684975L113.97474764822907,360.8451287976636L129.9111266534814,359.7860427140362L145.84750565873372,361.70753909512314L161.78388466398607,363.12562361293936L177.7202636692384,363.66387704760075L193.65664267449074,366.1838669634171L209.59302167974306,365.52041180726303L225.5294006849954,365.9941920537436L241.46577969024773,366.83787907685763L257.40215869550013,368.91876750650283L273.33853770075245,367.70468527351136L289.2749167060048,365.70552800666115L305.2112957112571,365.1223387135707L321.14767471650947,364.4562785801165L337.0840537217618,364.531008866417L353.0204327270141,359.5932743938187L368.95681173226643,363.6448281510928L384.8931907375188,357.9050862921842L400.8295697427711,362.3055441966087L416.7659487480235,360.9454204237227L432.70232775327577,366.9140746628896L448.63870675852814,363.55984076667255L464.57508576378046,357.0693770120521" style="fill: none;" fill="none"></path></g><g><path stroke="rgb(187, 187, 187)" stroke-width="2px" d="M2.420094611462718,357.07328447800245L18.356473616715054,358.1777948533027L34.292852621967384,355.12932016770094L50.22923162721972,358.06936267318036L66.16561063247207,358.0890628140134L82.1019896377244,356.8523498407261L98.03836864297674,355.44777864265484L113.97474764822907,354.35401379871803L129.9111266534814,357.2513998009061L145.84750565873372,356.0679260511924L161.78388466398607,358.08841156968833L177.7202636692384,355.35758130363416L193.65664267449074,356.2501116511277L209.59302167974306,354.1975523496226L225.5294006849954,354.8580769063138L241.46577969024773,350.1079007993326L257.40215869550013,346.3256365704704L273.33853770075245,349.59813930389254L289.2749167060048,346.32417127073904L305.2112957112571,348.8682572265825L321.14767471650947,343.11451361468517L337.0840537217618,342.2711522137336L353.0204327270141,332.6519479104478L368.95681173226643,335.0516204372094L384.8931907375188,332.9640567532324" style="fill: none;" fill="none"></path></g><g><path stroke="rgb(0, 119, 187)" stroke-width="2px" d="M2.420094611462718,344.28707902195407L18.356473616715054,350.0453813441269L34.292852621967384,350.6818098607909L50.22923162721972,352.90206457599874L66.16561063247207,349.8672660212232L82.1019896377244,352.42991244033084L98.03836864297674,354.1231476854846L113.97474764822907,353.81169008702506L129.9111266534814,354.7789507208191L145.84750565873372,355.6786447558883L161.78388466398607,355.2948990373472L177.7202636692384,359.41190284928973L193.65664267449074,359.8132321646074L209.59302167974306,359.5359648932135L225.5294006849954,358.36730695189493L241.46577969024773,360.23475005400195L257.40215869550013,360.13722621632434L273.33853770075245,357.2523766673937L289.2749167060048,359.34531311705246L305.2112957112571,357.1384089105083L321.14767471650947,359.09621216271734L337.0840537217618,357.2831479617527L353.0204327270141,354.557527650299L368.95681173226643,356.77094430009373L384.8931907375188,362.81416601447984L400.8295697427711,361.73570541218197L416.7659487480235,355.6218236885269L432.70232775327577,353.8699764541179L448.63870675852814,351.43188051217777L464.57508576378046,346.2145994130479" style="fill: none;" fill="none"></path></g><g><path stroke="rgb(51, 187, 238)" stroke-width="2px" d="M2.420094611462718,331.65489284878225L18.356473616715054,342.56160718270996L34.292852621967384,348.34840144410407L50.22923162721972,353.2862987277836L66.16561063247207,353.7885709134855L82.1019896377244,355.2279836829474L98.03836864297674,354.8868944676977L113.97474764822907,354.9906051264633L129.9111266534814,355.8251747290266L145.84750565873372,353.7066769396093L161.78388466398607,351.37603631130395L177.7202636692384,351.1764299256733L193.65664267449074,349.60400050281805" style="fill: none;" fill="none"></path></g><g><path style="fill: none;" stroke="rgb(0, 153, 136)" stroke-width="2px" d="M2.420094611462718,295.0593576796536L18.356473616715054,323.54217948043953L34.292852621967384,330.24152985232274L50.22923162721972,330.68763221498824L66.16561063247207,336.3594818530094L82.1019896377244,337.1992614101731L98.03836864297674,335.35884494755607L113.97474764822907,335.5013046436627L129.9111266534814,334.8922283886512L145.84750565873372,336.8827566681944L161.78388466398607,336.13040666166984L177.7202636692384,336.4535866579804L193.65664267449074,337.8268981284489L209.59302167974306,336.2453512850428L225.5294006849954,334.5166232241733L241.46577969024773,331.14594540874856L257.40215869550013,331.4858949464294L273.33853770075245,329.48396989119766L289.2749167060048,325.8259305173406L305.2112957112571,330.62608962627013L321.14767471650947,331.189253156365L337.0840537217618,325.21359804070374L353.0204327270141,323.00653102307837" fill="none"></path></g><g><path stroke="rgb(255, 112, 67)" stroke-width="2px" d="M2.420094611462718,346.9908826485183L18.356473616715054,351.6516754718852L34.292852621967384,348.865489438201L50.22923162721972,352.6767340395283L66.16561063247207,351.58964444992336L82.1019896377244,346.51498585798134L98.03836864297674,347.12113151353014L113.97474764822907,348.65969623148237L129.9111266534814,348.99443581456273L145.84750565873372,350.32883543660887L161.78388466398607,349.94329879617385L177.7202636692384,346.47509714307154L193.65664267449074,347.849059857865L209.59302167974306,353.0691087453764L225.5294006849954,346.73136178498225L241.46577969024773,349.80653748791144L257.40215869550013,343.4937006229508L273.33853770075245,344.84307886447334L289.2749167060048,340.7954325731496L305.2112957112571,346.30056366395564L321.14767471650947,341.6031383473042L337.0840537217618,343.77650347110773L353.0204327270141,336.9996550245425L368.95681173226643,327.20640567538464L384.8931907375188,329.6645273803203L400.8295697427711,324.6284550146381L416.7659487480235,321.2038867313147L432.70232775327577,316.737490338978L448.63870675852814,298.02838055759815L464.57508576378046,302.06316477350197" style="fill: none;" fill="none"></path></g><g><path stroke="rgb(204, 51, 17)" stroke-width="2px" d="M2.420094611462718,338.4747234208014L18.356473616715054,337.03091475214535L34.292852621967384,340.53802825367L50.22923162721972,342.31445996135L66.16561063247207,347.30006089184013L82.1019896377244,352.17364779842006L98.03836864297674,352.0588659861284L113.97474764822907,350.62857063721736L129.9111266534814,349.903410081264L145.84750565873372,350.42180056401105L161.78388466398607,352.3172471720957L177.7202636692384,353.064550035101L193.65664267449074,352.6974110468489L209.59302167974306,354.069908461911L225.5294006849954,353.67460315660014L241.46577969024773,353.8924443833324L257.40215869550013,354.4683071777659L273.33853770075245,352.4448910598072L289.2749167060048,353.7810816037473L305.2112957112571,356.3411230455547L321.14767471650947,357.1849728797501L337.0840537217618,355.3196463216995L353.0204327270141,351.91770877867185L368.95681173226643,352.33434233562843L384.8931907375188,345.9008624594506L400.8295697427711,340.4247117411097L416.7659487480235,341.39050707517237L432.70232775327577,333.0622318352351L448.63870675852814,328.08053837069525L464.57508576378046,330.18633689577393" style="fill: none;" fill="none"></path></g><g><path stroke="rgb(238, 51, 119)" stroke-width="2px" d="M2.420094611462718,346.82660626752215L18.356473616715054,348.25657599427075L34.292852621967384,351.02322469820314L50.22923162721972,354.7791135319004L66.16561063247207,352.8795966467842L82.1019896377244,352.58393172320734L98.03836864297674,352.94960541172804L113.97474764822907,357.02313866497286L129.9111266534814,358.2727137136801L145.84750565873372,356.00035945246753L161.78388466398607,352.3563218315992L177.7202636692384,355.1920024339879L193.65664267449074,350.0458697773707L209.59302167974306,349.74352959946197L225.5294006849954,351.9370832973424L241.46577969024773,349.78520923626576L257.40215869550013,349.97309322404533L273.33853770075245,348.8410677760113L289.2749167060048,349.3817633768916L305.2112957112571,348.27969516781036L321.14767471650947,341.20034373225513L337.0840537217618,342.97938041723535L353.0204327270141,340.9693148079404L368.95681173226643,345.79796585609125L384.8931907375188,349.2305118823966L400.8295697427711,345.95296200545533L416.7659487480235,345.4049399059181L432.70232775327577,341.1630599946455L448.63870675852814,344.3040113744056L464.57508576378046,338.3980394015257" style="fill: none;" fill="none"></path></g><g><path stroke="rgb(187, 187, 187)" stroke-width="2px" d="M2.420094611462718,355.75939905219565L18.356473616715054,364.6303236259885L34.292852621967384,366.17637765367886L50.22923162721972,365.94713965125806L66.16561063247207,367.2991228700808L82.1019896377244,368.8564108623784L98.03836864297674,370.3736473286849L113.97474764822907,371.64796966174436L129.9111266534814,371.2298708050564L145.84750565873372,371.6995807745053L161.78388466398607,372.69517053643943L177.7202636692384,372.2038066931823L193.65664267449074,370.86338306112935L209.59302167974306,371.35963123682444L225.5294006849954,369.94366326306465L241.46577969024773,368.1450892483326L257.40215869550013,369.6299263094674L273.33853770075245,368.4182862426949" style="fill: none;" fill="none"></path></g><g><path style="fill: none;" stroke="rgb(0, 119, 187)" stroke-width="2px" d="M2.420094611462718,189.90098277938168L18.356473616715054,237.89720110299533L34.292852621967384,264.6107548836768L50.22923162721972,277.91665331112233L66.16561063247207,287.46129013918886L82.1019896377244,291.49167845589847L98.03836864297674,291.3881306082141L113.97474764822907,292.4507985356293L129.9111266534814,299.1029336939457L145.84750565873372,302.4426774039302L161.78388466398607,308.622171993335L177.7202636692384,308.40905228795935L193.65664267449074,312.8647031489326L209.59302167974306,315.5188493957111" fill="none"></path></g><g><path stroke="rgb(51, 187, 238)" stroke-width="2px" d="M2.420094611462718,346.7857406861247L18.356473616715054,355.9606335486389L34.292852621967384,359.63983836306045L50.22923162721972,363.2993430366489L66.16561063247207,357.3966272853943L82.1019896377244,359.582366051374L98.03836864297674,354.61109249603516L113.97474764822907,356.0203852154631L129.9111266534814,357.09070526369777L145.84750565873372,352.5819779902322L161.78388466398607,348.061202696753L177.7202636692384,348.51837621294453L193.65664267449074,353.43657335579104L209.59302167974306,351.7229867254792L225.5294006849954,350.35553645393634L241.46577969024773,347.99819480830354L257.40215869550013,346.7585512355535L273.33853770075245,346.2307177100931L289.2749167060048,343.79864577815977L305.2112957112571,341.0404632504531L321.14767471650947,342.4440575820368L337.0840537217618,345.1783068807975" style="fill: none;" fill="none"></path></g><g><path stroke="rgb(0, 153, 136)" stroke-width="2px" d="M2.420094611462718,364.448626459297L18.356473616715054,361.54668174683354L34.292852621967384,352.81154161481555L50.22923162721972,354.01780891590624L66.16561063247207,355.19428178912557L82.1019896377244,355.912115846422L98.03836864297674,352.4064676446287L113.97474764822907,351.46655927248713L129.9111266534814,351.778830926353L145.84750565873372,352.47403424335363L161.78388466398607,352.57106964778745L177.7202636692384,351.8820531518749L193.65664267449074,346.90052249841636" style="fill: none;" fill="none"></path></g><g><path stroke="rgb(255, 112, 67)" stroke-width="2px" d="M2.420094611462718,355.10994564903046L18.356473616715054,357.24097989170514L34.292852621967384,357.7331577903686L50.22923162721972,356.82304384609847L66.16561063247207,356.154378735344L82.1019896377244,355.6602471037054L98.03836864297674,355.3333224525257L113.97474764822907,357.6354711416097L129.9111266534814,358.41745276492446L145.84750565873372,357.78134987042296L161.78388466398607,358.4109403216739L177.7202636692384,357.7890019912424L193.65664267449074,357.93960224141233L209.59302167974306,357.41876959244627L225.5294006849954,357.325153220719L241.46577969024773,357.5343654601443L257.40215869550013,357.23739804791734L273.33853770075245,358.17128241005213L289.2749167060048,356.5561964839055L305.2112957112571,357.84582305860386L321.14767471650947,358.1380689494741L337.0840537217618,357.4202348921777L353.0204327270141,356.8357431104371L368.95681173226643,358.37902934974596" style="fill: none;" fill="none"></path></g><g><path stroke="rgb(204, 51, 17)" stroke-width="2px" d="M2.420094611462718,347.82366132918764L18.356473616715054,350.9675433084106L34.292852621967384,352.174787475989L50.22923162721972,351.29186298229L66.16561063247207,348.7805020537808L82.1019896377244,350.89346426643516L98.03836864297674,348.45634519098263L113.97474764822907,350.80456941606457L129.9111266534814,351.6305100313208L145.84750565873372,350.59405468798917L161.78388466398607,348.66474337500154L177.7202636692384,349.4288157793772L193.65664267449074,348.48565118561027L209.59302167974306,350.50483421545607L225.5294006849954,347.5113896753218L241.46577969024773,347.5446031358998L257.40215869550013,349.195670311006L273.33853770075245,349.8798024744806L289.2749167060048,347.81698607485583L305.2112957112571,347.1896749787426L321.14767471650947,347.9910311207279L337.0840537217618,346.6787738057337L353.0204327270141,344.8111678925454L368.95681173226643,346.2831428782603" style="fill: none;" fill="none"></path></g><g><path stroke="rgb(238, 51, 119)" stroke-width="2px" d="M2.420094611462718,336.76292771238354L18.356473616715054,347.9039271922512L34.292852621967384,350.70802244487453L50.22923162721972,351.2324369376284L66.16561063247207,348.0343388683443L82.1019896377244,349.1896463009992L98.03836864297674,349.4118834269256L113.97474764822907,350.6816470497097L129.9111266534814,350.6495732667005L145.84750565873372,352.811215992653L161.78388466398607,350.7285366411139L177.7202636692384,349.05467591463065L193.65664267449074,349.27349400785056" style="fill: none;" fill="none"></path></g><g><path stroke="rgb(187, 187, 187)" stroke-width="2px" d="M2.420094611462718,294.1573842894467L18.356473616715054,314.7801755200128L34.292852621967384,328.7864872190594L50.22923162721972,333.49514650031807L66.16561063247207,335.9378011525336L82.1019896377244,343.38136097687817L98.03836864297674,343.43655393342686L113.97474764822907,348.201383037722L129.9111266534814,347.69210997552574L145.84750565873372,347.60582010245537L161.78388466398607,347.8231728959439L177.7202636692384,346.904592775448L193.65664267449074,350.9574490213722L209.59302167974306,350.43954697186894L225.5294006849954,349.18541321288626L241.46577969024773,350.4444313043068L257.40215869550013,353.34523633920145L273.33853770075245,355.50639063191016L289.2749167060048,354.39667030200945L305.2112957112571,352.230794487944L321.14767471650947,355.50036662190337L337.0840537217618,353.60654812463144L353.0204327270141,351.6845633103007L368.95681173226643,351.50709923172207L384.8931907375188,351.7791565485155" style="fill: none;" fill="none"></path></g><g><path style="fill: none;" stroke="rgb(0, 119, 187)" stroke-width="2px" d="M2.420094611462718,256.230542908816L18.356473616715054,300.84631475212905L34.292852621967384,321.9267679321303L50.22923162721972,330.66109400874205L66.16561063247207,336.9617200426078L82.1019896377244,339.9662357362681L98.03836864297674,340.58459222291174L113.97474764822907,342.8965095768716L129.9111266534814,341.02646149746437L145.84750565873372,341.30047254723297L161.78388466398607,340.10006644506774L177.7202636692384,342.4653858336825L193.65664267449074,341.1448251535438" fill="none"></path></g></g></g></g></g></g><g transform="translate(50, 377)" clip-path="url(#clip_1)"><clipPath id="clip_1"><rect width="489" height="23"></rect></clipPath><g><g><line x1="2.420094611462718" y1="0" x2="2.420094611462718" y2="5" style="visibility: inherit;" fill="rgb(0, 0, 0)" stroke="rgb(204, 204, 204)" stroke-width="1px"></line><line x1="34.292852621967384" y1="0" x2="34.292852621967384" y2="5" style="visibility: inherit;" fill="rgb(0, 0, 0)" stroke="rgb(204, 204, 204)" stroke-width="1px"></line><line x1="66.16561063247207" y1="0" x2="66.16561063247207" y2="5" style="visibility: inherit;" fill="rgb(0, 0, 0)" stroke="rgb(204, 204, 204)" stroke-width="1px"></line><line x1="98.03836864297674" y1="0" x2="98.03836864297674" y2="5" style="visibility: inherit;" fill="rgb(0, 0, 0)" stroke="rgb(204, 204, 204)" stroke-width="1px"></line><line x1="129.9111266534814" y1="0" x2="129.9111266534814" y2="5" style="visibility: inherit;" fill="rgb(0, 0, 0)" stroke="rgb(204, 204, 204)" stroke-width="1px"></line><line x1="161.78388466398607" y1="0" x2="161.78388466398607" y2="5" style="visibility: inherit;" fill="rgb(0, 0, 0)" stroke="rgb(204, 204, 204)" stroke-width="1px"></line><line x1="193.65664267449074" y1="0" x2="193.65664267449074" y2="5" style="visibility: inherit;" fill="rgb(0, 0, 0)" stroke="rgb(204, 204, 204)" stroke-width="1px"></line><line x1="225.5294006849954" y1="0" x2="225.5294006849954" y2="5" style="visibility: inherit;" fill="rgb(0, 0, 0)" stroke="rgb(204, 204, 204)" stroke-width="1px"></line><line x1="257.40215869550013" y1="0" x2="257.40215869550013" y2="5" style="visibility: inherit;" fill="rgb(0, 0, 0)" stroke="rgb(204, 204, 204)" stroke-width="1px"></line><line x1="289.2749167060048" y1="0" x2="289.2749167060048" y2="5" style="visibility: inherit;" fill="rgb(0, 0, 0)" stroke="rgb(204, 204, 204)" stroke-width="1px"></line><line x1="321.14767471650947" y1="0" x2="321.14767471650947" y2="5" style="visibility: inherit;" fill="rgb(0, 0, 0)" stroke="rgb(204, 204, 204)" stroke-width="1px"></line><line x1="353.0204327270141" y1="0" x2="353.0204327270141" y2="5" style="visibility: inherit;" fill="rgb(0, 0, 0)" stroke="rgb(204, 204, 204)" stroke-width="1px"></line><line x1="384.8931907375188" y1="0" x2="384.8931907375188" y2="5" style="visibility: inherit;" fill="rgb(0, 0, 0)" stroke="rgb(204, 204, 204)" stroke-width="1px"></line><line x1="416.7659487480235" y1="0" x2="416.7659487480235" y2="5" style="visibility: inherit;" fill="rgb(0, 0, 0)" stroke="rgb(204, 204, 204)" stroke-width="1px"></line><line x1="448.63870675852814" y1="0" x2="448.63870675852814" y2="5" style="visibility: inherit;" fill="rgb(0, 0, 0)" stroke="rgb(204, 204, 204)" stroke-width="1px"></line><line x1="480.51146476903284" y1="0" x2="480.51146476903284" y2="5" style="visibility: inherit;" fill="rgb(0, 0, 0)" stroke="rgb(204, 204, 204)" stroke-width="1px"></line></g><g transform="translate(0, 8)"><text x="2.420094611462718" y="0" dx="0em" dy="0.95em" style="text-anchor: middle; visibility: inherit; font-family: Roboto, sans-serif; font-size: 12px; font-weight: 200;" fill="rgb(33, 33, 33)" stroke="none" stroke-width="1px">0</text><text x="34.292852621967384" y="0" dx="0em" dy="0.95em" style="text-anchor: middle; visibility: inherit; font-family: Roboto, sans-serif; font-size: 12px; font-weight: 200;" fill="rgb(33, 33, 33)" stroke="none" stroke-width="1px">2</text><text x="66.16561063247207" y="0" dx="0em" dy="0.95em" style="text-anchor: middle; visibility: inherit; font-family: Roboto, sans-serif; font-size: 12px; font-weight: 200;" fill="rgb(33, 33, 33)" stroke="none" stroke-width="1px">4</text><text x="98.03836864297674" y="0" dx="0em" dy="0.95em" style="text-anchor: middle; visibility: inherit; font-family: Roboto, sans-serif; font-size: 12px; font-weight: 200;" fill="rgb(33, 33, 33)" stroke="none" stroke-width="1px">6</text><text x="129.9111266534814" y="0" dx="0em" dy="0.95em" style="text-anchor: middle; visibility: inherit; font-family: Roboto, sans-serif; font-size: 12px; font-weight: 200;" fill="rgb(33, 33, 33)" stroke="none" stroke-width="1px">8</text><text x="161.78388466398607" y="0" dx="0em" dy="0.95em" style="text-anchor: middle; visibility: inherit; font-family: Roboto, sans-serif; font-size: 12px; font-weight: 200;" fill="rgb(33, 33, 33)" stroke="none" stroke-width="1px">10</text><text x="193.65664267449074" y="0" dx="0em" dy="0.95em" style="text-anchor: middle; visibility: inherit; font-family: Roboto, sans-serif; font-size: 12px; font-weight: 200;" fill="rgb(33, 33, 33)" stroke="none" stroke-width="1px">12</text><text x="225.5294006849954" y="0" dx="0em" dy="0.95em" style="text-anchor: middle; visibility: inherit; font-family: Roboto, sans-serif; font-size: 12px; font-weight: 200;" fill="rgb(33, 33, 33)" stroke="none" stroke-width="1px">14</text><text x="257.40215869550013" y="0" dx="0em" dy="0.95em" style="text-anchor: middle; visibility: inherit; font-family: Roboto, sans-serif; font-size: 12px; font-weight: 200;" fill="rgb(33, 33, 33)" stroke="none" stroke-width="1px">16</text><text x="289.2749167060048" y="0" dx="0em" dy="0.95em" style="text-anchor: middle; visibility: inherit; font-family: Roboto, sans-serif; font-size: 12px; font-weight: 200;" fill="rgb(33, 33, 33)" stroke="none" stroke-width="1px">18</text><text x="321.14767471650947" y="0" dx="0em" dy="0.95em" style="text-anchor: middle; visibility: inherit; font-family: Roboto, sans-serif; font-size: 12px; font-weight: 200;" fill="rgb(33, 33, 33)" stroke="none" stroke-width="1px">20</text><text x="353.0204327270141" y="0" dx="0em" dy="0.95em" style="text-anchor: middle; visibility: inherit; font-family: Roboto, sans-serif; font-size: 12px; font-weight: 200;" fill="rgb(33, 33, 33)" stroke="none" stroke-width="1px">22</text><text x="384.8931907375188" y="0" dx="0em" dy="0.95em" style="text-anchor: middle; visibility: inherit; font-family: Roboto, sans-serif; font-size: 12px; font-weight: 200;" fill="rgb(33, 33, 33)" stroke="none" stroke-width="1px">24</text><text x="416.7659487480235" y="0" dx="0em" dy="0.95em" style="text-anchor: middle; visibility: inherit; font-family: Roboto, sans-serif; font-size: 12px; font-weight: 200;" fill="rgb(33, 33, 33)" stroke="none" stroke-width="1px">26</text><text x="448.63870675852814" y="0" dx="0em" dy="0.95em" style="text-anchor: middle; visibility: inherit; font-family: Roboto, sans-serif; font-size: 12px; font-weight: 200;" fill="rgb(33, 33, 33)" stroke="none" stroke-width="1px">28</text><text x="480.51146476903284" y="0" dx="0em" dy="0.95em" style="text-anchor: middle; visibility: inherit; font-family: Roboto, sans-serif; font-size: 12px; font-weight: 200;" fill="rgb(33, 33, 33)" stroke="none" stroke-width="1px">30</text></g><line x1="0" y1="0" x2="489" y2="0" fill="rgb(0, 0, 0)" stroke="rgb(204, 204, 204)" stroke-width="1px"></line></g></g></g></g></svg>