<svg viewBox="0 0 539 400" xmlns="http://www.w3.org/2000/svg"><g><g><g><g><g><line x1="50" y1="371.5608470158914" x2="45" y2="371.5608470158914" style="visibility: inherit;" fill="rgb(0, 0, 0)" stroke="rgb(204, 204, 204)" stroke-width="1px"></line><line x1="50" y1="335.5974264354888" x2="45" y2="335.5974264354888" style="visibility: inherit;" fill="rgb(0, 0, 0)" stroke="rgb(204, 204, 204)" stroke-width="1px"></line><line x1="50" y1="299.63400585508606" x2="45" y2="299.63400585508606" style="visibility: inherit;" fill="rgb(0, 0, 0)" stroke="rgb(204, 204, 204)" stroke-width="1px"></line><line x1="50" y1="263.6705852746833" x2="45" y2="263.6705852746833" style="visibility: inherit;" fill="rgb(0, 0, 0)" stroke="rgb(204, 204, 204)" stroke-width="1px"></line><line x1="50" y1="227.7071646942805" x2="45" y2="227.7071646942805" style="visibility: inherit;" fill="rgb(0, 0, 0)" stroke="rgb(204, 204, 204)" stroke-width="1px"></line><line x1="50" y1="191.7437441138777" x2="45" y2="191.7437441138777" style="visibility: inherit;" fill="rgb(0, 0, 0)" stroke="rgb(204, 204, 204)" stroke-width="1px"></line><line x1="50" y1="155.78032353347493" x2="45" y2="155.78032353347493" style="visibility: inherit;" fill="rgb(0, 0, 0)" stroke="rgb(204, 204, 204)" stroke-width="1px"></line><line x1="50" y1="119.8169029530722" x2="45" y2="119.8169029530722" style="visibility: inherit;" fill="rgb(0, 0, 0)" stroke="rgb(204, 204, 204)" stroke-width="1px"></line><line x1="50" y1="83.85348237266942" x2="45" y2="83.85348237266942" style="visibility: inherit;" fill="rgb(0, 0, 0)" stroke="rgb(204, 204, 204)" stroke-width="1px"></line><line x1="50" y1="47.89006179226664" x2="45" y2="47.89006179226664" style="visibility: inherit;" fill="rgb(0, 0, 0)" stroke="rgb(204, 204, 204)" stroke-width="1px"></line><line x1="50" y1="11.926641211863858" x2="45" y2="11.926641211863858" style="visibility: inherit;" fill="rgb(0, 0, 0)" stroke="rgb(204, 204, 204)" stroke-width="1px"></line></g><g transform="translate(40, 0)"><text x="0" y="371.5608470158914" dx="0em" dy="0.3em" style="text-anchor: end; visibility: hidden; font-family: Roboto, sans-serif; font-size: 12px; font-weight: 200;" fill="rgb(33, 33, 33)" stroke="none" stroke-width="1px">0.46</text><text x="0" y="335.5974264354888" dx="0em" dy="0.3em" style="text-anchor: end; visibility: inherit; font-family: Roboto, sans-serif; font-size: 12px; font-weight: 200;" fill="rgb(33, 33, 33)" stroke="none" stroke-width="1px">0.47</text><text x="0" y="299.63400585508606" dx="0em" dy="0.3em" style="text-anchor: end; visibility: inherit; font-family: Roboto, sans-serif; font-size: 12px; font-weight: 200;" fill="rgb(33, 33, 33)" stroke="none" stroke-width="1px">0.48</text><text x="0" y="263.6705852746833" dx="0em" dy="0.3em" style="text-anchor: end; visibility: inherit; font-family: Roboto, sans-serif; font-size: 12px; font-weight: 200;" fill="rgb(33, 33, 33)" stroke="none" stroke-width="1px">0.49</text><text x="0" y="227.7071646942805" dx="0em" dy="0.3em" style="text-anchor: end; visibility: inherit; font-family: Roboto, sans-serif; font-size: 12px; font-weight: 200;" fill="rgb(33, 33, 33)" stroke="none" stroke-width="1px">0.5</text><text x="0" y="191.7437441138777" dx="0em" dy="0.3em" style="text-anchor: end; visibility: inherit; font-family: Roboto, sans-serif; font-size: 12px; font-weight: 200;" fill="rgb(33, 33, 33)" stroke="none" stroke-width="1px">0.51</text><text x="0" y="155.78032353347493" dx="0em" dy="0.3em" style="text-anchor: end; visibility: inherit; font-family: Roboto, sans-serif; font-size: 12px; font-weight: 200;" fill="rgb(33, 33, 33)" stroke="none" stroke-width="1px">0.52</text><text x="0" y="119.8169029530722" dx="0em" dy="0.3em" style="text-anchor: end; visibility: inherit; font-family: Roboto, sans-serif; font-size: 12px; font-weight: 200;" fill="rgb(33, 33, 33)" stroke="none" stroke-width="1px">0.53</text><text x="0" y="83.85348237266942" dx="0em" dy="0.3em" style="text-anchor: end; visibility: inherit; font-family: Roboto, sans-serif; font-size: 12px; font-weight: 200;" fill="rgb(33, 33, 33)" stroke="none" stroke-width="1px">0.54</text><text x="0" y="47.89006179226664" dx="0em" dy="0.3em" style="text-anchor: end; visibility: inherit; font-family: Roboto, sans-serif; font-size: 12px; font-weight: 200;" fill="rgb(33, 33, 33)" stroke="none" stroke-width="1px">0.55</text><text x="0" y="11.926641211863858" dx="0em" dy="0.3em" style="text-anchor: end; visibility: inherit; font-family: Roboto, sans-serif; font-size: 12px; font-weight: 200;" fill="rgb(33, 33, 33)" stroke="none" stroke-width="1px">0.56</text></g><line x1="50" y1="0" x2="50" y2="377" fill="rgb(0, 0, 0)" stroke="rgb(204, 204, 204)" stroke-width="1px"></line></g></g><g transform="translate(50, 0)" clip-path="url(#clip_0)"><clipPath id="clip_0"><rect width="506" height="377"></rect></clipPath><g><g><g><line x1="4.545000466024903" y1="0" x2="4.545000466024903" y2="377" fill="rgb(0, 0, 0)" stroke="rgb(66, 66, 66)" stroke-width="1px" opacity="0.25"></line><line x1="84.52420220539604" y1="0" x2="84.52420220539604" y2="377" fill="rgb(0, 0, 0)" stroke="rgb(66, 66, 66)" stroke-width="1px" opacity="0.25"></line><line x1="164.50340394476717" y1="0" x2="164.50340394476717" y2="377" fill="rgb(0, 0, 0)" stroke="rgb(66, 66, 66)" stroke-width="1px" opacity="0.25"></line><line x1="244.4826056841383" y1="0" x2="244.4826056841383" y2="377" fill="rgb(0, 0, 0)" stroke="rgb(66, 66, 66)" stroke-width="1px" opacity="0.25"></line><line x1="324.4618074235094" y1="0" x2="324.4618074235094" y2="377" fill="rgb(0, 0, 0)" stroke="rgb(66, 66, 66)" stroke-width="1px" opacity="0.25"></line><line x1="404.44100916288056" y1="0" x2="404.44100916288056" y2="377" fill="rgb(0, 0, 0)" stroke="rgb(66, 66, 66)" stroke-width="1px" opacity="0.25"></line><line x1="484.42021090225165" y1="0" x2="484.42021090225165" y2="377" fill="rgb(0, 0, 0)" stroke="rgb(66, 66, 66)" stroke-width="1px" opacity="0.25"></line></g><g><line x1="0" y1="371.5608470158914" x2="506" y2="371.5608470158914" fill="rgb(0, 0, 0)" stroke="rgb(66, 66, 66)" stroke-width="1px" opacity="0.25"></line><line x1="0" y1="335.5974264354888" x2="506" y2="335.5974264354888" fill="rgb(0, 0, 0)" stroke="rgb(66, 66, 66)" stroke-width="1px" opacity="0.25"></line><line x1="0" y1="299.63400585508606" x2="506" y2="299.63400585508606" fill="rgb(0, 0, 0)" stroke="rgb(66, 66, 66)" stroke-width="1px" opacity="0.25"></line><line x1="0" y1="263.6705852746833" x2="506" y2="263.6705852746833" fill="rgb(0, 0, 0)" stroke="rgb(66, 66, 66)" stroke-width="1px" opacity="0.25"></line><line x1="0" y1="227.7071646942805" x2="506" y2="227.7071646942805" fill="rgb(0, 0, 0)" stroke="rgb(66, 66, 66)" stroke-width="1px" opacity="0.25"></line><line x1="0" y1="191.7437441138777" x2="506" y2="191.7437441138777" fill="rgb(0, 0, 0)" stroke="rgb(66, 66, 66)" stroke-width="1px" opacity="0.25"></line><line x1="0" y1="155.78032353347493" x2="506" y2="155.78032353347493" fill="rgb(0, 0, 0)" stroke="rgb(66, 66, 66)" stroke-width="1px" opacity="0.25"></line><line x1="0" y1="119.8169029530722" x2="506" y2="119.8169029530722" fill="rgb(0, 0, 0)" stroke="rgb(66, 66, 66)" stroke-width="1px" opacity="0.25"></line><line x1="0" y1="83.85348237266942" x2="506" y2="83.85348237266942" fill="rgb(0, 0, 0)" stroke="rgb(66, 66, 66)" stroke-width="1px" opacity="0.25"></line><line x1="0" y1="47.89006179226664" x2="506" y2="47.89006179226664" fill="rgb(0, 0, 0)" stroke="rgb(66, 66, 66)" stroke-width="1px" opacity="0.25"></line><line x1="0" y1="11.926641211863858" x2="506" y2="11.926641211863858" fill="rgb(0, 0, 0)" stroke="rgb(66, 66, 66)" stroke-width="1px" opacity="0.25"></line></g></g></g><g><g><line x1="0" y1="2025.8781937144174" x2="506" y2="2025.8781937144174" fill="rgb(0, 0, 0)" stroke="rgb(153, 153, 153)" stroke-width="1.5px"></line></g></g><g><g><line x1="4.545000466024903" y1="0" x2="4.545000466024903" y2="377" fill="rgb(0, 0, 0)" stroke="rgb(153, 153, 153)" stroke-width="1.5px"></line></g></g><g><g><g><g><g><path stroke="rgb(0, 119, 187)" stroke-width="2px" d="M4.545000466024903,173.58159525205784L20.54084081389913,161.55371474919625L36.53668116177336,203.6514036885573L52.53252150964759,101.41431223488819L68.52836185752182,137.497953743473L84.52420220539604,101.41431223488819L100.52004255327027,191.6235231856957L116.5158829011445,137.497953743473L132.51172324901873,143.5117868155584L148.50756359689294,191.6235231856957L164.50340394476717,173.58159525205784L180.4992442926414,47.28874279266551L196.4950846405156,107.42814530697356L212.49092498838985,173.58159525205784L228.48676533626409,233.7211049457113L244.4826056841383,263.79091338221076L260.4784460320125,179.5956426828341L276.47428637988673,305.88849514222636L292.47012672776094,239.73504519714209L308.4659670756352,197.63735625778105L324.4618074235094,209.66523676064264L340.4576477713837,251.76292570000368L356.4534881192579,233.7211049457113L372.4493284671321,221.6931172635043" style="fill: none;" fill="none"></path></g><g><path style="fill: none;" stroke="rgb(51, 187, 238)" stroke-width="2px" d="M4.545000466024903,107.42814530697356L20.54084081389913,155.53966731842L36.53668116177336,113.44219273774978L52.53252150964759,167.56776217997245L68.52836185752182,167.56776217997245L84.52420220539604,137.497953743473L100.52004255327027,215.6792841914189L116.5158829011445,185.60947575491943L132.51172324901873,161.55371474919625L148.50756359689294,173.58159525205784L164.50340394476717,191.6235231856957L180.4992442926414,209.66523676064264L196.4950846405156,173.58159525205784" fill="none"></path></g><g><path stroke="rgb(0, 153, 136)" stroke-width="2px" d="M4.545000466024903,203.6514036885573L20.54084081389913,245.74898544857288L36.53668116177336,257.7768659514345L52.53252150964759,173.58159525205784L68.52836185752182,233.7211049457113L84.52420220539604,197.63735625778105L100.52004255327027,203.6514036885573L116.5158829011445,113.44219273774978L132.51172324901873,107.42814530697356L148.50756359689294,131.4839063126968L164.50340394476717,101.41431223488819L180.4992442926414,125.47007324061141L196.4950846405156,89.38621737333571L212.49092498838985,119.45602580983515L228.48676533626409,131.4839063126968L244.4826056841383,107.42814530697356L260.4784460320125,83.37238430125034L276.47428637988673,95.40026480411197L292.47012672776094,161.55371474919625L308.4659670756352,53.30257586475089L324.4618074235094,53.30257586475089L340.4576477713837,83.37238430125034L356.4534881192579,77.35833687047412L372.4493284671321,71.34450379838874L388.4451688150063,143.5117868155584L404.44100916288056,125.47007324061141L420.43684951075477,101.41431223488819L436.43268985862903,173.58159525205784L452.42853020650324,161.55371474919625L468.4243705543775,137.497953743473" style="fill: none;" fill="none"></path></g><g><path stroke="rgb(255, 112, 67)" stroke-width="2px" d="M4.545000466024903,173.58159525205784L20.54084081389913,83.37238430125034L36.53668116177336,137.497953743473L52.53252150964759,83.37238430125034L68.52836185752182,155.53966731842L84.52420220539604,185.60947575491943L100.52004255327027,185.60947575491943L116.5158829011445,179.5956426828341L132.51172324901873,167.56776217997245L148.50756359689294,191.6235231856957L164.50340394476717,221.6931172635043L180.4992442926414,203.6514036885573L196.4950846405156,233.7211049457113L212.49092498838985,191.6235231856957" style="fill: none;" fill="none"></path></g><g><path style="fill: none;" stroke="rgb(204, 51, 17)" stroke-width="2px" d="M4.545000466024903,143.5117868155584L20.54084081389913,143.5117868155584L36.53668116177336,119.45602580983515L52.53252150964759,113.44219273774978L68.52836185752182,155.53966731842L84.52420220539604,161.55371474919625L100.52004255327027,101.41431223488819L116.5158829011445,101.41431223488819L132.51172324901873,185.60947575491943L148.50756359689294,185.60947575491943L164.50340394476717,185.60947575491943L180.4992442926414,191.6235231856957L196.4950846405156,179.5956426828341L212.49092498838985,161.55371474919625L228.48676533626409,185.60947575491943L244.4826056841383,143.5117868155584L260.4784460320125,155.53966731842L276.47428637988673,125.47007324061141L292.47012672776094,119.45602580983515" fill="none"></path></g><g><path stroke="rgb(238, 51, 119)" stroke-width="2px" d="M4.545000466024903,143.5117868155584L20.54084081389913,95.40026480411197L36.53668116177336,77.35833687047412L52.53252150964759,71.34450379838874L68.52836185752182,65.33045636761248L84.52420220539604,95.40026480411197L100.52004255327027,101.41431223488819L116.5158829011445,107.42814530697356L132.51172324901873,143.5117868155584L148.50756359689294,125.47007324061141L164.50340394476717,107.42814530697356L180.4992442926414,125.47007324061141L196.4950846405156,155.53966731842L212.49092498838985,161.55371474919625L228.48676533626409,143.5117868155584L244.4826056841383,149.5258342463346L260.4784460320125,167.56776217997245" style="fill: none;" fill="none"></path></g><g><path stroke="rgb(187, 187, 187)" stroke-width="2px" d="M4.545000466024903,227.7071646942805L20.54084081389913,203.6514036885573L36.53668116177336,293.86061463936477L52.53252150964759,221.6931172635043L68.52836185752182,257.7768659514345L84.52420220539604,221.6931172635043L100.52004255327027,203.6514036885573L116.5158829011445,221.6931172635043L132.51172324901873,221.6931172635043L148.50756359689294,167.56776217997245L164.50340394476717,251.76292570000368L180.4992442926414,209.66523676064264L196.4950846405156,257.7768659514345L212.49092498838985,245.74898544857288L228.48676533626409,203.6514036885573L244.4826056841383,233.7211049457113L260.4784460320125,281.8327341365032L276.47428637988673,137.497953743473L292.47012672776094,167.56776217997245L308.4659670756352,95.40026480411197L324.4618074235094,167.56776217997245L340.4576477713837,257.7768659514345L356.4534881192579,221.6931172635043L372.4493284671321,281.8327341365032L388.4451688150063,191.6235231856957L404.44100916288056,275.81879388507235L420.43684951075477,197.63735625778105L436.43268985862903,215.6792841914189L452.42853020650324,215.6792841914189L468.4243705543775,221.6931172635043" style="fill: none;" fill="none"></path></g><g><path style="fill: none;" stroke="rgb(0, 119, 187)" stroke-width="2px" d="M4.545000466024903,233.7211049457113L20.54084081389913,125.47007324061141L36.53668116177336,221.6931172635043L52.53252150964759,209.66523676064264L68.52836185752182,167.56776217997245L84.52420220539604,245.74898544857288L100.52004255327027,149.5258342463346L116.5158829011445,155.53966731842L132.51172324901873,161.55371474919625L148.50756359689294,137.497953743473L164.50340394476717,197.63735625778105L180.4992442926414,203.6514036885573L196.4950846405156,215.6792841914189L212.49092498838985,251.76292570000368" fill="none"></path></g><g><path style="fill: none;" stroke="rgb(51, 187, 238)" stroke-width="2px" d="M4.545000466024903,239.73504519714209L20.54084081389913,245.74898544857288L36.53668116177336,143.5117868155584L52.53252150964759,191.6235231856957L68.52836185752182,197.63735625778105L84.52420220539604,185.60947575491943L100.52004255327027,179.5956426828341L116.5158829011445,149.5258342463346L132.51172324901873,119.45602580983515L148.50756359689294,137.497953743473L164.50340394476717,173.58159525205784L180.4992442926414,101.41431223488819L196.4950846405156,197.63735625778105L212.49092498838985,155.53966731842L228.48676533626409,197.63735625778105L244.4826056841383,209.66523676064264L260.4784460320125,179.5956426828341L276.47428637988673,191.6235231856957L292.47012672776094,221.6931172635043L308.4659670756352,209.66523676064264L324.4618074235094,185.60947575491943L340.4576477713837,173.58159525205784L356.4534881192579,221.6931172635043L372.4493284671321,179.5956426828341" fill="none"></path></g><g><path style="fill: none;" stroke="rgb(0, 153, 136)" stroke-width="2px" d="M4.545000466024903,185.60947575491943L20.54084081389913,143.5117868155584L36.53668116177336,167.56776217997245L52.53252150964759,149.5258342463346L68.52836185752182,149.5258342463346L84.52420220539604,137.497953743473L100.52004255327027,107.42814530697356L116.5158829011445,119.45602580983515L132.51172324901873,125.47007324061141L148.50756359689294,113.44219273774978L164.50340394476717,119.45602580983515L180.4992442926414,107.42814530697356L196.4950846405156,101.41431223488819L212.49092498838985,155.53966731842L228.48676533626409,143.5117868155584L244.4826056841383,245.74898544857288L260.4784460320125,131.4839063126968L276.47428637988673,173.58159525205784L292.47012672776094,215.6792841914189L308.4659670756352,173.58159525205784L324.4618074235094,161.55371474919625L340.4576477713837,185.60947575491943L356.4534881192579,167.56776217997245L372.4493284671321,167.56776217997245L388.4451688150063,179.5956426828341" fill="none"></path></g><g><path stroke="rgb(255, 112, 67)" stroke-width="2px" d="M4.545000466024903,347.98618408158745L20.54084081389913,323.9303158965188L36.53668116177336,329.944363327295L52.53252150964759,329.944363327295L68.52836185752182,299.87455489079554L84.52420220539604,360.01406458444905L100.52004255327027,287.84667438793394L116.5158829011445,281.8327341365032L132.51172324901873,257.7768659514345L148.50756359689294,209.66523676064264L164.50340394476717,203.6514036885573L180.4992442926414,179.5956426828341L196.4950846405156,209.66523676064264L212.49092498838985,149.5258342463346L228.48676533626409,137.497953743473L244.4826056841383,179.5956426828341L260.4784460320125,107.42814530697356L276.47428637988673,131.4839063126968L292.47012672776094,125.47007324061141L308.4659670756352,155.53966731842L324.4618074235094,131.4839063126968L340.4576477713837,95.40026480411197L356.4534881192579,83.37238430125034L372.4493284671321,95.40026480411197L388.4451688150063,107.42814530697356L404.44100916288056,107.42814530697356L420.43684951075477,95.40026480411197L436.43268985862903,83.37238430125034L452.42853020650324,101.41431223488819L468.4243705543775,101.41431223488819" style="fill: none;" fill="none"></path></g><g><path style="fill: none;" stroke="rgb(204, 51, 17)" stroke-width="2px" d="M4.545000466024903,269.8048536336416L20.54084081389913,275.81879388507235L36.53668116177336,329.944363327295L52.53252150964759,299.87455489079554L68.52836185752182,209.66523676064264L84.52420220539604,209.66523676064264L100.52004255327027,179.5956426828341L116.5158829011445,185.60947575491943L132.51172324901873,215.6792841914189L148.50756359689294,263.79091338221076L164.50340394476717,203.6514036885573L180.4992442926414,209.66523676064264L196.4950846405156,191.6235231856957L212.49092498838985,209.66523676064264L228.48676533626409,233.7211049457113L244.4826056841383,185.60947575491943L260.4784460320125,185.60947575491943L276.47428637988673,215.6792841914189L292.47012672776094,233.7211049457113" fill="none"></path></g><g><path style="fill: none;" stroke="rgb(238, 51, 119)" stroke-width="2px" d="M4.545000466024903,269.8048536336416L20.54084081389913,257.7768659514345L36.53668116177336,227.7071646942805L52.53252150964759,251.76292570000368L68.52836185752182,341.97224383015663L84.52420220539604,366.0280048358798L100.52004255327027,329.944363327295L116.5158829011445,287.84667438793394L132.51172324901873,335.95830357872586L148.50756359689294,335.95830357872586L164.50340394476717,299.87455489079554L180.4992442926414,329.944363327295" fill="none"></path></g><g><path style="fill: none;" stroke="rgb(187, 187, 187)" stroke-width="2px" d="M4.545000466024903,275.81879388507235L20.54084081389913,293.86061463936477L36.53668116177336,215.6792841914189L52.53252150964759,233.7211049457113L68.52836185752182,251.76292570000368L84.52420220539604,203.6514036885573L100.52004255327027,221.6931172635043L116.5158829011445,215.6792841914189L132.51172324901873,227.7071646942805L148.50756359689294,233.7211049457113L164.50340394476717,233.7211049457113L180.4992442926414,191.6235231856957L196.4950846405156,227.7071646942805L212.49092498838985,197.63735625778105L228.48676533626409,245.74898544857288L244.4826056841383,215.6792841914189L260.4784460320125,185.60947575491943L276.47428637988673,215.6792841914189L292.47012672776094,137.497953743473L308.4659670756352,143.5117868155584L324.4618074235094,167.56776217997245L340.4576477713837,167.56776217997245L356.4534881192579,191.6235231856957L372.4493284671321,149.5258342463346L388.4451688150063,167.56776217997245L404.44100916288056,173.58159525205784L420.43684951075477,209.66523676064264L436.43268985862903,137.497953743473L452.42853020650324,167.56776217997245L468.4243705543775,131.4839063126968" fill="none"></path></g><g><path stroke="rgb(0, 119, 187)" stroke-width="2px" d="M4.545000466024903,173.58159525205784L20.54084081389913,209.66523676064264L36.53668116177336,125.47007324061141L52.53252150964759,161.55371474919625L68.52836185752182,215.6792841914189L84.52420220539604,215.6792841914189L100.52004255327027,221.6931172635043L116.5158829011445,179.5956426828341L132.51172324901873,185.60947575491943L148.50756359689294,245.74898544857288L164.50340394476717,221.6931172635043L180.4992442926414,77.35833687047412L196.4950846405156,179.5956426828341L212.49092498838985,209.66523676064264L228.48676533626409,155.53966731842L244.4826056841383,155.53966731842L260.4784460320125,137.497953743473L276.47428637988673,113.44219273774978L292.47012672776094,197.63735625778105L308.4659670756352,149.5258342463346L324.4618074235094,107.42814530697356L340.4576477713837,167.56776217997245L356.4534881192579,215.6792841914189L372.4493284671321,161.55371474919625" style="fill: none;" fill="none"></path></g><g><path stroke="rgb(51, 187, 238)" stroke-width="2px" d="M4.545000466024903,215.6792841914189L20.54084081389913,167.56776217997245L36.53668116177336,161.55371474919625L52.53252150964759,77.35833687047412L68.52836185752182,59.316623295527144L84.52420220539604,95.40026480411197L100.52004255327027,95.40026480411197L116.5158829011445,155.53966731842L132.51172324901873,179.5956426828341L148.50756359689294,95.40026480411197L164.50340394476717,101.41431223488819L180.4992442926414,113.44219273774978L196.4950846405156,167.56776217997245L212.49092498838985,137.497953743473L228.48676533626409,161.55371474919625L244.4826056841383,125.47007324061141L260.4784460320125,89.38621737333571" style="fill: none;" fill="none"></path></g><g><path style="fill: none;" stroke="rgb(0, 153, 136)" stroke-width="2px" d="M4.545000466024903,179.5956426828341L20.54084081389913,197.63735625778105L36.53668116177336,215.6792841914189L52.53252150964759,197.63735625778105L68.52836185752182,209.66523676064264L84.52420220539604,173.58159525205784L100.52004255327027,155.53966731842L116.5158829011445,203.6514036885573L132.51172324901873,179.5956426828341L148.50756359689294,155.53966731842L164.50340394476717,131.4839063126968L180.4992442926414,221.6931172635043L196.4950846405156,185.60947575491943L212.49092498838985,221.6931172635043L228.48676533626409,197.63735625778105L244.4826056841383,239.73504519714209L260.4784460320125,185.60947575491943L276.47428637988673,161.55371474919625L292.47012672776094,215.6792841914189L308.4659670756352,209.66523676064264L324.4618074235094,209.66523676064264L340.4576477713837,215.6792841914189L356.4534881192579,203.6514036885573" fill="none"></path></g><g><path stroke="rgb(255, 112, 67)" stroke-width="2px" d="M4.545000466024903,131.4839063126968L20.54084081389913,161.55371474919625L36.53668116177336,59.316623295527144L52.53252150964759,23.23276742825145L68.52836185752182,17.218934356166066L84.52420220539604,89.38621737333571L100.52004255327027,47.28874279266551L116.5158829011445,35.26086228980392L132.51172324901873,53.30257586475089L148.50756359689294,35.26086228980392L164.50340394476717,107.42814530697356L180.4992442926414,137.497953743473L196.4950846405156,131.4839063126968L212.49092498838985,113.44219273774978L228.48676533626409,155.53966731842L244.4826056841383,125.47007324061141L260.4784460320125,125.47007324061141" style="fill: none;" fill="none"></path></g><g><path style="fill: none;" stroke="rgb(204, 51, 17)" stroke-width="2px" d="M4.545000466024903,233.7211049457113L20.54084081389913,239.73504519714209L36.53668116177336,299.87455489079554L52.53252150964759,378.0558853387414L68.52836185752182,299.87455489079554L84.52420220539604,257.7768659514345L100.52004255327027,209.66523676064264L116.5158829011445,257.7768659514345L132.51172324901873,221.6931172635043L148.50756359689294,197.63735625778105L164.50340394476717,209.66523676064264L180.4992442926414,233.7211049457113L196.4950846405156,263.79091338221076L212.49092498838985,233.7211049457113L228.48676533626409,233.7211049457113L244.4826056841383,227.7071646942805L260.4784460320125,263.79091338221076L276.47428637988673,263.79091338221076L292.47012672776094,173.58159525205784L308.4659670756352,197.63735625778105L324.4618074235094,263.79091338221076L340.4576477713837,221.6931172635043L356.4534881192579,245.74898544857288L372.4493284671321,245.74898544857288L388.4451688150063,221.6931172635043L404.44100916288056,245.74898544857288L420.43684951075477,269.8048536336416L436.43268985862903,209.66523676064264L452.42853020650324,305.88849514222636L468.4243705543775,299.87455489079554" fill="none"></path></g><g><path stroke="rgb(238, 51, 119)" stroke-width="2px" d="M4.545000466024903,227.7071646942805L20.54084081389913,227.7071646942805L36.53668116177336,239.73504519714209L52.53252150964759,191.6235231856957L68.52836185752182,131.4839063126968L84.52420220539604,119.45602580983515L100.52004255327027,161.55371474919625L116.5158829011445,155.53966731842L132.51172324901873,125.47007324061141L148.50756359689294,131.4839063126968L164.50340394476717,131.4839063126968L180.4992442926414,143.5117868155584L196.4950846405156,137.497953743473L212.49092498838985,167.56776217997245L228.48676533626409,113.44219273774978L244.4826056841383,137.497953743473L260.4784460320125,101.41431223488819L276.47428637988673,101.41431223488819L292.47012672776094,149.5258342463346L308.4659670756352,155.53966731842L324.4618074235094,143.5117868155584L340.4576477713837,89.38621737333571L356.4534881192579,161.55371474919625L372.4493284671321,125.47007324061141L388.4451688150063,119.45602580983515L404.44100916288056,101.41431223488819L420.43684951075477,107.42814530697356L436.43268985862903,47.28874279266551L452.42853020650324,47.28874279266551L468.4243705543775,89.38621737333571" style="fill: none;" fill="none"></path></g><g><path stroke="rgb(187, 187, 187)" stroke-width="2px" d="M4.545000466024903,167.56776217997245L20.54084081389913,113.44219273774978L36.53668116177336,251.76292570000368L52.53252150964759,257.7768659514345L68.52836185752182,191.6235231856957L84.52420220539604,161.55371474919625L100.52004255327027,191.6235231856957L116.5158829011445,173.58159525205784L132.51172324901873,167.56776217997245L148.50756359689294,155.53966731842L164.50340394476717,143.5117868155584L180.4992442926414,173.58159525205784L196.4950846405156,29.246814859027662L212.49092498838985,185.60947575491943L228.48676533626409,149.5258342463346L244.4826056841383,143.5117868155584L260.4784460320125,185.60947575491943L276.47428637988673,203.6514036885573L292.47012672776094,143.5117868155584L308.4659670756352,155.53966731842L324.4618074235094,197.63735625778105L340.4576477713837,143.5117868155584L356.4534881192579,149.5258342463346L372.4493284671321,209.66523676064264L388.4451688150063,155.53966731842" style="fill: none;" fill="none"></path></g><g><path style="fill: none;" stroke="rgb(0, 119, 187)" stroke-width="2px" d="M4.545000466024903,269.8048536336416L20.54084081389913,227.7071646942805L36.53668116177336,251.76292570000368L52.53252150964759,215.6792841914189L68.52836185752182,233.7211049457113L84.52420220539604,221.6931172635043L100.52004255327027,209.66523676064264L116.5158829011445,227.7071646942805L132.51172324901873,269.8048536336416L148.50756359689294,215.6792841914189L164.50340394476717,191.6235231856957L180.4992442926414,233.7211049457113L196.4950846405156,203.6514036885573L212.49092498838985,173.58159525205784L228.48676533626409,167.56776217997245L244.4826056841383,161.55371474919625L260.4784460320125,173.58159525205784L276.47428637988673,149.5258342463346L292.47012672776094,137.497953743473L308.4659670756352,215.6792841914189L324.4618074235094,245.74898544857288L340.4576477713837,179.5956426828341L356.4534881192579,143.5117868155584L372.4493284671321,143.5117868155584L388.4451688150063,161.55371474919625L404.44100916288056,155.53966731842L420.43684951075477,173.58159525205784L436.43268985862903,233.7211049457113L452.42853020650324,125.47007324061141L468.4243705543775,179.5956426828341" fill="none"></path></g><g><path style="fill: none;" stroke="rgb(51, 187, 238)" stroke-width="2px" d="M4.545000466024903,191.6235231856957L20.54084081389913,275.81879388507235L36.53668116177336,245.74898544857288L52.53252150964759,257.7768659514345L68.52836185752182,293.86061463936477L84.52420220539604,203.6514036885573L100.52004255327027,299.87455489079554L116.5158829011445,257.7768659514345L132.51172324901873,251.76292570000368L148.50756359689294,245.74898544857288L164.50340394476717,269.8048536336416L180.4992442926414,233.7211049457113L196.4950846405156,227.7071646942805" fill="none"></path></g><g><path style="fill: none;" stroke="rgb(0, 153, 136)" stroke-width="2px" d="M4.545000466024903,293.86061463936477L20.54084081389913,263.79091338221076L36.53668116177336,233.7211049457113L52.53252150964759,227.7071646942805L68.52836185752182,251.76292570000368L84.52420220539604,233.7211049457113L100.52004255327027,203.6514036885573L116.5158829011445,167.56776217997245L132.51172324901873,185.60947575491943L148.50756359689294,173.58159525205784L164.50340394476717,149.5258342463346L180.4992442926414,167.56776217997245L196.4950846405156,149.5258342463346L212.49092498838985,149.5258342463346L228.48676533626409,167.56776217997245L244.4826056841383,173.58159525205784L260.4784460320125,191.6235231856957L276.47428637988673,185.60947575491943L292.47012672776094,227.7071646942805L308.4659670756352,191.6235231856957L324.4618074235094,227.7071646942805L340.4576477713837,227.7071646942805L356.4534881192579,239.73504519714209" fill="none"></path></g><g><path stroke="rgb(255, 112, 67)" stroke-width="2px" d="M4.545000466024903,281.8327341365032L20.54084081389913,257.7768659514345L36.53668116177336,251.76292570000368L52.53252150964759,215.6792841914189L68.52836185752182,191.6235231856957L84.52420220539604,215.6792841914189L100.52004255327027,221.6931172635043L116.5158829011445,227.7071646942805L132.51172324901873,203.6514036885573L148.50756359689294,185.60947575491943L164.50340394476717,161.55371474919625L180.4992442926414,197.63735625778105L196.4950846405156,155.53966731842L212.49092498838985,167.56776217997245L228.48676533626409,107.42814530697356L244.4826056841383,143.5117868155584L260.4784460320125,113.44219273774978L276.47428637988673,107.42814530697356L292.47012672776094,161.55371474919625L308.4659670756352,167.56776217997245L324.4618074235094,59.316623295527144L340.4576477713837,161.55371474919625L356.4534881192579,131.4839063126968L372.4493284671321,161.55371474919625L388.4451688150063,155.53966731842L404.44100916288056,155.53966731842L420.43684951075477,173.58159525205784L436.43268985862903,185.60947575491943L452.42853020650324,215.6792841914189L468.4243705543775,149.5258342463346" style="fill: none;" fill="none"></path></g><g><path stroke="rgb(204, 51, 17)" stroke-width="2px" d="M4.545000466024903,233.7211049457113L20.54084081389913,323.9303158965188L36.53668116177336,317.916375645088L52.53252150964759,311.9024353936572L68.52836185752182,287.84667438793394L84.52420220539604,257.7768659514345L100.52004255327027,215.6792841914189L116.5158829011445,179.5956426828341L132.51172324901873,155.53966731842L148.50756359689294,173.58159525205784L164.50340394476717,191.6235231856957L180.4992442926414,161.55371474919625L196.4950846405156,173.58159525205784L212.49092498838985,155.53966731842L228.48676533626409,155.53966731842L244.4826056841383,131.4839063126968L260.4784460320125,95.40026480411197L276.47428637988673,107.42814530697356L292.47012672776094,35.26086228980392L308.4659670756352,65.33045636761248L324.4618074235094,149.5258342463346L340.4576477713837,173.58159525205784L356.4534881192579,125.47007324061141L372.4493284671321,89.38621737333571L388.4451688150063,95.40026480411197L404.44100916288056,101.41431223488819L420.43684951075477,101.41431223488819L436.43268985862903,155.53966731842L452.42853020650324,131.4839063126968L468.4243705543775,161.55371474919625" style="fill: none;" fill="none"></path></g><g><path stroke="rgb(238, 51, 119)" stroke-width="2px" d="M4.545000466024903,263.79091338221076L20.54084081389913,233.7211049457113L36.53668116177336,263.79091338221076L52.53252150964759,269.8048536336416L68.52836185752182,191.6235231856957L84.52420220539604,227.7071646942805L100.52004255327027,209.66523676064264L116.5158829011445,209.66523676064264L132.51172324901873,143.5117868155584L148.50756359689294,119.45602580983515L164.50340394476717,149.5258342463346L180.4992442926414,149.5258342463346L196.4950846405156,149.5258342463346L212.49092498838985,155.53966731842L228.48676533626409,119.45602580983515L244.4826056841383,149.5258342463346L260.4784460320125,107.42814530697356L276.47428637988673,137.497953743473L292.47012672776094,113.44219273774978L308.4659670756352,149.5258342463346L324.4618074235094,107.42814530697356L340.4576477713837,155.53966731842L356.4534881192579,137.497953743473L372.4493284671321,83.37238430125034L388.4451688150063,143.5117868155584L404.44100916288056,107.42814530697356L420.43684951075477,131.4839063126968L436.43268985862903,149.5258342463346L452.42853020650324,173.58159525205784L468.4243705543775,125.47007324061141" style="fill: none;" fill="none"></path></g><g><path stroke="rgb(187, 187, 187)" stroke-width="2px" d="M4.545000466024903,173.58159525205784L20.54084081389913,221.6931172635043L36.53668116177336,173.58159525205784L52.53252150964759,113.44219273774978L68.52836185752182,125.47007324061141L84.52420220539604,71.34450379838874L100.52004255327027,131.4839063126968L116.5158829011445,155.53966731842L132.51172324901873,119.45602580983515L148.50756359689294,185.60947575491943L164.50340394476717,101.41431223488819L180.4992442926414,125.47007324061141L196.4950846405156,179.5956426828341L212.49092498838985,155.53966731842L228.48676533626409,185.60947575491943L244.4826056841383,125.47007324061141L260.4784460320125,143.5117868155584L276.47428637988673,203.6514036885573" style="fill: none;" fill="none"></path></g><g><path style="fill: none;" stroke="rgb(0, 119, 187)" stroke-width="2px" d="M4.545000466024903,203.6514036885573L20.54084081389913,161.55371474919625L36.53668116177336,203.6514036885573L52.53252150964759,191.6235231856957L68.52836185752182,185.60947575491943L84.52420220539604,203.6514036885573L100.52004255327027,197.63735625778105L116.5158829011445,185.60947575491943L132.51172324901873,227.7071646942805L148.50756359689294,161.55371474919625L164.50340394476717,173.58159525205784L180.4992442926414,185.60947575491943L196.4950846405156,215.6792841914189L212.49092498838985,179.5956426828341" fill="none"></path></g><g><path stroke="rgb(51, 187, 238)" stroke-width="2px" d="M4.545000466024903,77.35833687047412L20.54084081389913,113.44219273774978L36.53668116177336,53.30257586475089L52.53252150964759,65.33045636761248L68.52836185752182,41.2746953618893L84.52420220539604,65.33045636761248L100.52004255327027,53.30257586475089L116.5158829011445,47.28874279266551L132.51172324901873,17.218934356166066L148.50756359689294,11.204886925389854L164.50340394476717,17.218934356166066L180.4992442926414,65.33045636761248L196.4950846405156,11.204886925389854L212.49092498838985,53.30257586475089L228.48676533626409,59.316623295527144L244.4826056841383,107.42814530697356L260.4784460320125,89.38621737333571L276.47428637988673,71.34450379838874L292.47012672776094,95.40026480411197L308.4659670756352,101.41431223488819L324.4618074235094,95.40026480411197L340.4576477713837,101.41431223488819" style="fill: none;" fill="none"></path></g><g><path style="fill: none;" stroke="rgb(0, 153, 136)" stroke-width="2px" d="M4.545000466024903,161.55371474919625L20.54084081389913,173.58159525205784L36.53668116177336,239.73504519714209L52.53252150964759,281.8327341365032L68.52836185752182,287.84667438793394L84.52420220539604,293.86061463936477L100.52004255327027,239.73504519714209L116.5158829011445,251.76292570000368L132.51172324901873,209.66523676064264L148.50756359689294,203.6514036885573L164.50340394476717,251.76292570000368L180.4992442926414,263.79091338221076L196.4950846405156,245.74898544857288" fill="none"></path></g><g><path style="fill: none;" stroke="rgb(255, 112, 67)" stroke-width="2px" d="M4.545000466024903,191.6235231856957L20.54084081389913,149.5258342463346L36.53668116177336,191.6235231856957L52.53252150964759,185.60947575491943L68.52836185752182,209.66523676064264L84.52420220539604,203.6514036885573L100.52004255327027,257.7768659514345L116.5158829011445,215.6792841914189L132.51172324901873,161.55371474919625L148.50756359689294,167.56776217997245L164.50340394476717,155.53966731842L180.4992442926414,113.44219273774978L196.4950846405156,179.5956426828341L212.49092498838985,173.58159525205784L228.48676533626409,209.66523676064264L244.4826056841383,203.6514036885573L260.4784460320125,233.7211049457113L276.47428637988673,227.7071646942805L292.47012672776094,197.63735625778105L308.4659670756352,209.66523676064264L324.4618074235094,179.5956426828341L340.4576477713837,209.66523676064264L356.4534881192579,185.60947575491943L372.4493284671321,203.6514036885573" fill="none"></path></g><g><path stroke="rgb(204, 51, 17)" stroke-width="2px" d="M4.545000466024903,257.7768659514345L20.54084081389913,191.6235231856957L36.53668116177336,131.4839063126968L52.53252150964759,179.5956426828341L68.52836185752182,167.56776217997245L84.52420220539604,209.66523676064264L100.52004255327027,179.5956426828341L116.5158829011445,191.6235231856957L132.51172324901873,179.5956426828341L148.50756359689294,155.53966731842L164.50340394476717,149.5258342463346L180.4992442926414,71.34450379838874L196.4950846405156,149.5258342463346L212.49092498838985,119.45602580983515L228.48676533626409,125.47007324061141L244.4826056841383,131.4839063126968L260.4784460320125,101.41431223488819L276.47428637988673,95.40026480411197L292.47012672776094,89.38621737333571L308.4659670756352,95.40026480411197L324.4618074235094,107.42814530697356L340.4576477713837,137.497953743473L356.4534881192579,119.45602580983515L372.4493284671321,137.497953743473" style="fill: none;" fill="none"></path></g><g><path style="fill: none;" stroke="rgb(238, 51, 119)" stroke-width="2px" d="M4.545000466024903,203.6514036885573L20.54084081389913,233.7211049457113L36.53668116177336,221.6931172635043L52.53252150964759,221.6931172635043L68.52836185752182,269.8048536336416L84.52420220539604,257.7768659514345L100.52004255327027,305.88849514222636L116.5158829011445,221.6931172635043L132.51172324901873,221.6931172635043L148.50756359689294,221.6931172635043L164.50340394476717,281.8327341365032L180.4992442926414,275.81879388507235L196.4950846405156,275.81879388507235" fill="none"></path></g><g><path stroke="rgb(187, 187, 187)" stroke-width="2px" d="M4.545000466024903,131.4839063126968L20.54084081389913,155.53966731842L36.53668116177336,173.58159525205784L52.53252150964759,179.5956426828341L68.52836185752182,173.58159525205784L84.52420220539604,131.4839063126968L100.52004255327027,83.37238430125034L116.5158829011445,89.38621737333571L132.51172324901873,107.42814530697356L148.50756359689294,113.44219273774978L164.50340394476717,89.38621737333571L180.4992442926414,131.4839063126968L196.4950846405156,47.28874279266551L212.49092498838985,77.35833687047412L228.48676533626409,95.40026480411197L244.4826056841383,107.42814530697356L260.4784460320125,83.37238430125034L276.47428637988673,53.30257586475089L292.47012672776094,101.41431223488819L308.4659670756352,83.37238430125034L324.4618074235094,125.47007324061141L340.4576477713837,131.4839063126968L356.4534881192579,173.58159525205784L372.4493284671321,125.47007324061141L388.4451688150063,113.44219273774978" style="fill: none;" fill="none"></path></g><g><path style="fill: none;" stroke="rgb(0, 119, 187)" stroke-width="2px" d="M4.545000466024903,179.5956426828341L20.54084081389913,191.6235231856957L36.53668116177336,221.6931172635043L52.53252150964759,257.7768659514345L68.52836185752182,239.73504519714209L84.52420220539604,233.7211049457113L100.52004255327027,227.7071646942805L116.5158829011445,233.7211049457113L132.51172324901873,179.5956426828341L148.50756359689294,221.6931172635043L164.50340394476717,179.5956426828341L180.4992442926414,191.6235231856957L196.4950846405156,185.60947575491943" fill="none"></path></g></g></g></g></g></g><g transform="translate(50, 377)" clip-path="url(#clip_1)"><clipPath id="clip_1"><rect width="506" height="23"></rect></clipPath><g><g><line x1="4.545000466024903" y1="0" x2="4.545000466024903" y2="5" style="visibility: inherit;" fill="rgb(0, 0, 0)" stroke="rgb(204, 204, 204)" stroke-width="1px"></line><line x1="84.52420220539604" y1="0" x2="84.52420220539604" y2="5" style="visibility: inherit;" fill="rgb(0, 0, 0)" stroke="rgb(204, 204, 204)" stroke-width="1px"></line><line x1="164.50340394476717" y1="0" x2="164.50340394476717" y2="5" style="visibility: inherit;" fill="rgb(0, 0, 0)" stroke="rgb(204, 204, 204)" stroke-width="1px"></line><line x1="244.4826056841383" y1="0" x2="244.4826056841383" y2="5" style="visibility: inherit;" fill="rgb(0, 0, 0)" stroke="rgb(204, 204, 204)" stroke-width="1px"></line><line x1="324.4618074235094" y1="0" x2="324.4618074235094" y2="5" style="visibility: inherit;" fill="rgb(0, 0, 0)" stroke="rgb(204, 204, 204)" stroke-width="1px"></line><line x1="404.44100916288056" y1="0" x2="404.44100916288056" y2="5" style="visibility: inherit;" fill="rgb(0, 0, 0)" stroke="rgb(204, 204, 204)" stroke-width="1px"></line><line x1="484.42021090225165" y1="0" x2="484.42021090225165" y2="5" style="visibility: inherit;" fill="rgb(0, 0, 0)" stroke="rgb(204, 204, 204)" stroke-width="1px"></line></g><g transform="translate(0, 8)"><text x="4.545000466024903" y="0" dx="0em" dy="0.95em" style="text-anchor: middle; visibility: inherit; font-family: Roboto, sans-serif; font-size: 12px; font-weight: 200;" fill="rgb(33, 33, 33)" stroke="none" stroke-width="1px">0</text><text x="84.52420220539604" y="0" dx="0em" dy="0.95em" style="text-anchor: middle; visibility: inherit; font-family: Roboto, sans-serif; font-size: 12px; font-weight: 200;" fill="rgb(33, 33, 33)" stroke="none" stroke-width="1px">5</text><text x="164.50340394476717" y="0" dx="0em" dy="0.95em" style="text-anchor: middle; visibility: inherit; font-family: Roboto, sans-serif; font-size: 12px; font-weight: 200;" fill="rgb(33, 33, 33)" stroke="none" stroke-width="1px">10</text><text x="244.4826056841383" y="0" dx="0em" dy="0.95em" style="text-anchor: middle; visibility: inherit; font-family: Roboto, sans-serif; font-size: 12px; font-weight: 200;" fill="rgb(33, 33, 33)" stroke="none" stroke-width="1px">15</text><text x="324.4618074235094" y="0" dx="0em" dy="0.95em" style="text-anchor: middle; visibility: inherit; font-family: Roboto, sans-serif; font-size: 12px; font-weight: 200;" fill="rgb(33, 33, 33)" stroke="none" stroke-width="1px">20</text><text x="404.44100916288056" y="0" dx="0em" dy="0.95em" style="text-anchor: middle; visibility: inherit; font-family: Roboto, sans-serif; font-size: 12px; font-weight: 200;" fill="rgb(33, 33, 33)" stroke="none" stroke-width="1px">25</text><text x="484.42021090225165" y="0" dx="0em" dy="0.95em" style="text-anchor: middle; visibility: inherit; font-family: Roboto, sans-serif; font-size: 12px; font-weight: 200;" fill="rgb(33, 33, 33)" stroke="none" stroke-width="1px">30</text></g><line x1="0" y1="0" x2="506" y2="0" fill="rgb(0, 0, 0)" stroke="rgb(204, 204, 204)" stroke-width="1px"></line></g></g></g></g></svg>