<svg viewBox="0 0 539 400" xmlns="http://www.w3.org/2000/svg"><g><g><g><g><g><line x1="50" y1="353.23801829136767" x2="45" y2="353.23801829136767" style="visibility: inherit;" fill="rgb(0, 0, 0)" stroke="rgb(204, 204, 204)" stroke-width="1px"></line><line x1="50" y1="321.7143394654088" x2="45" y2="321.7143394654088" style="visibility: inherit;" fill="rgb(0, 0, 0)" stroke="rgb(204, 204, 204)" stroke-width="1px"></line><line x1="50" y1="290.1906606394498" x2="45" y2="290.1906606394498" style="visibility: inherit;" fill="rgb(0, 0, 0)" stroke="rgb(204, 204, 204)" stroke-width="1px"></line><line x1="50" y1="258.66698181349074" x2="45" y2="258.66698181349074" style="visibility: inherit;" fill="rgb(0, 0, 0)" stroke="rgb(204, 204, 204)" stroke-width="1px"></line><line x1="50" y1="227.14330298753168" x2="45" y2="227.14330298753168" style="visibility: inherit;" fill="rgb(0, 0, 0)" stroke="rgb(204, 204, 204)" stroke-width="1px"></line><line x1="50" y1="195.61962416157257" x2="45" y2="195.61962416157257" style="visibility: inherit;" fill="rgb(0, 0, 0)" stroke="rgb(204, 204, 204)" stroke-width="1px"></line><line x1="50" y1="164.09594533561358" x2="45" y2="164.09594533561358" style="visibility: inherit;" fill="rgb(0, 0, 0)" stroke="rgb(204, 204, 204)" stroke-width="1px"></line><line x1="50" y1="132.5722665096545" x2="45" y2="132.5722665096545" style="visibility: inherit;" fill="rgb(0, 0, 0)" stroke="rgb(204, 204, 204)" stroke-width="1px"></line><line x1="50" y1="101.04858768369544" x2="45" y2="101.04858768369544" style="visibility: inherit;" fill="rgb(0, 0, 0)" stroke="rgb(204, 204, 204)" stroke-width="1px"></line><line x1="50" y1="69.52490885773639" x2="45" y2="69.52490885773639" style="visibility: inherit;" fill="rgb(0, 0, 0)" stroke="rgb(204, 204, 204)" stroke-width="1px"></line><line x1="50" y1="38.00123003177735" x2="45" y2="38.00123003177735" style="visibility: inherit;" fill="rgb(0, 0, 0)" stroke="rgb(204, 204, 204)" stroke-width="1px"></line><line x1="50" y1="6.477551205818637" x2="45" y2="6.477551205818637" style="visibility: inherit;" fill="rgb(0, 0, 0)" stroke="rgb(204, 204, 204)" stroke-width="1px"></line></g><g transform="translate(40, 0)"><text x="0" y="353.23801829136767" dx="0em" dy="0.3em" style="text-anchor: end; visibility: inherit; font-family: Roboto, sans-serif; font-size: 12px; font-weight: 200;" fill="rgb(33, 33, 33)" stroke="none" stroke-width="1px">0.46</text><text x="0" y="321.7143394654088" dx="0em" dy="0.3em" style="text-anchor: end; visibility: inherit; font-family: Roboto, sans-serif; font-size: 12px; font-weight: 200;" fill="rgb(33, 33, 33)" stroke="none" stroke-width="1px">0.47</text><text x="0" y="290.1906606394498" dx="0em" dy="0.3em" style="text-anchor: end; visibility: inherit; font-family: Roboto, sans-serif; font-size: 12px; font-weight: 200;" fill="rgb(33, 33, 33)" stroke="none" stroke-width="1px">0.48</text><text x="0" y="258.66698181349074" dx="0em" dy="0.3em" style="text-anchor: end; visibility: inherit; font-family: Roboto, sans-serif; font-size: 12px; font-weight: 200;" fill="rgb(33, 33, 33)" stroke="none" stroke-width="1px">0.49</text><text x="0" y="227.14330298753168" dx="0em" dy="0.3em" style="text-anchor: end; visibility: inherit; font-family: Roboto, sans-serif; font-size: 12px; font-weight: 200;" fill="rgb(33, 33, 33)" stroke="none" stroke-width="1px">0.5</text><text x="0" y="195.61962416157257" dx="0em" dy="0.3em" style="text-anchor: end; visibility: inherit; font-family: Roboto, sans-serif; font-size: 12px; font-weight: 200;" fill="rgb(33, 33, 33)" stroke="none" stroke-width="1px">0.51</text><text x="0" y="164.09594533561358" dx="0em" dy="0.3em" style="text-anchor: end; visibility: inherit; font-family: Roboto, sans-serif; font-size: 12px; font-weight: 200;" fill="rgb(33, 33, 33)" stroke="none" stroke-width="1px">0.52</text><text x="0" y="132.5722665096545" dx="0em" dy="0.3em" style="text-anchor: end; visibility: inherit; font-family: Roboto, sans-serif; font-size: 12px; font-weight: 200;" fill="rgb(33, 33, 33)" stroke="none" stroke-width="1px">0.53</text><text x="0" y="101.04858768369544" dx="0em" dy="0.3em" style="text-anchor: end; visibility: inherit; font-family: Roboto, sans-serif; font-size: 12px; font-weight: 200;" fill="rgb(33, 33, 33)" stroke="none" stroke-width="1px">0.54</text><text x="0" y="69.52490885773639" dx="0em" dy="0.3em" style="text-anchor: end; visibility: inherit; font-family: Roboto, sans-serif; font-size: 12px; font-weight: 200;" fill="rgb(33, 33, 33)" stroke="none" stroke-width="1px">0.55</text><text x="0" y="38.00123003177735" dx="0em" dy="0.3em" style="text-anchor: end; visibility: inherit; font-family: Roboto, sans-serif; font-size: 12px; font-weight: 200;" fill="rgb(33, 33, 33)" stroke="none" stroke-width="1px">0.56</text><text x="0" y="6.477551205818637" dx="0em" dy="0.3em" style="text-anchor: end; visibility: inherit; font-family: Roboto, sans-serif; font-size: 12px; font-weight: 200;" fill="rgb(33, 33, 33)" stroke="none" stroke-width="1px">0.57</text></g><line x1="50" y1="0" x2="50" y2="377" fill="rgb(0, 0, 0)" stroke="rgb(204, 204, 204)" stroke-width="1px"></line></g></g><g transform="translate(50, 0)" clip-path="url(#clip_0)"><clipPath id="clip_0"><rect width="489" height="377"></rect></clipPath><g><g><g><line x1="3.4846680741720633" y1="0" x2="3.4846680741720633" y2="377" fill="rgb(0, 0, 0)" stroke="rgb(66, 66, 66)" stroke-width="1px" opacity="0.25"></line><line x1="34.99168240163123" y1="0" x2="34.99168240163123" y2="377" fill="rgb(0, 0, 0)" stroke="rgb(66, 66, 66)" stroke-width="1px" opacity="0.25"></line><line x1="66.49869672909041" y1="0" x2="66.49869672909041" y2="377" fill="rgb(0, 0, 0)" stroke="rgb(66, 66, 66)" stroke-width="1px" opacity="0.25"></line><line x1="98.00571105654957" y1="0" x2="98.00571105654957" y2="377" fill="rgb(0, 0, 0)" stroke="rgb(66, 66, 66)" stroke-width="1px" opacity="0.25"></line><line x1="129.51272538400875" y1="0" x2="129.51272538400875" y2="377" fill="rgb(0, 0, 0)" stroke="rgb(66, 66, 66)" stroke-width="1px" opacity="0.25"></line><line x1="161.0197397114679" y1="0" x2="161.0197397114679" y2="377" fill="rgb(0, 0, 0)" stroke="rgb(66, 66, 66)" stroke-width="1px" opacity="0.25"></line><line x1="192.52675403892707" y1="0" x2="192.52675403892707" y2="377" fill="rgb(0, 0, 0)" stroke="rgb(66, 66, 66)" stroke-width="1px" opacity="0.25"></line><line x1="224.03376836638625" y1="0" x2="224.03376836638625" y2="377" fill="rgb(0, 0, 0)" stroke="rgb(66, 66, 66)" stroke-width="1px" opacity="0.25"></line><line x1="255.54078269384541" y1="0" x2="255.54078269384541" y2="377" fill="rgb(0, 0, 0)" stroke="rgb(66, 66, 66)" stroke-width="1px" opacity="0.25"></line><line x1="287.0477970213046" y1="0" x2="287.0477970213046" y2="377" fill="rgb(0, 0, 0)" stroke="rgb(66, 66, 66)" stroke-width="1px" opacity="0.25"></line><line x1="318.55481134876374" y1="0" x2="318.55481134876374" y2="377" fill="rgb(0, 0, 0)" stroke="rgb(66, 66, 66)" stroke-width="1px" opacity="0.25"></line><line x1="350.06182567622295" y1="0" x2="350.06182567622295" y2="377" fill="rgb(0, 0, 0)" stroke="rgb(66, 66, 66)" stroke-width="1px" opacity="0.25"></line><line x1="381.5688400036821" y1="0" x2="381.5688400036821" y2="377" fill="rgb(0, 0, 0)" stroke="rgb(66, 66, 66)" stroke-width="1px" opacity="0.25"></line><line x1="413.0758543311413" y1="0" x2="413.0758543311413" y2="377" fill="rgb(0, 0, 0)" stroke="rgb(66, 66, 66)" stroke-width="1px" opacity="0.25"></line><line x1="444.5828686586005" y1="0" x2="444.5828686586005" y2="377" fill="rgb(0, 0, 0)" stroke="rgb(66, 66, 66)" stroke-width="1px" opacity="0.25"></line><line x1="476.08988298605965" y1="0" x2="476.08988298605965" y2="377" fill="rgb(0, 0, 0)" stroke="rgb(66, 66, 66)" stroke-width="1px" opacity="0.25"></line></g><g><line x1="0" y1="353.23801829136767" x2="489" y2="353.23801829136767" fill="rgb(0, 0, 0)" stroke="rgb(66, 66, 66)" stroke-width="1px" opacity="0.25"></line><line x1="0" y1="321.7143394654088" x2="489" y2="321.7143394654088" fill="rgb(0, 0, 0)" stroke="rgb(66, 66, 66)" stroke-width="1px" opacity="0.25"></line><line x1="0" y1="290.1906606394498" x2="489" y2="290.1906606394498" fill="rgb(0, 0, 0)" stroke="rgb(66, 66, 66)" stroke-width="1px" opacity="0.25"></line><line x1="0" y1="258.66698181349074" x2="489" y2="258.66698181349074" fill="rgb(0, 0, 0)" stroke="rgb(66, 66, 66)" stroke-width="1px" opacity="0.25"></line><line x1="0" y1="227.14330298753168" x2="489" y2="227.14330298753168" fill="rgb(0, 0, 0)" stroke="rgb(66, 66, 66)" stroke-width="1px" opacity="0.25"></line><line x1="0" y1="195.61962416157257" x2="489" y2="195.61962416157257" fill="rgb(0, 0, 0)" stroke="rgb(66, 66, 66)" stroke-width="1px" opacity="0.25"></line><line x1="0" y1="164.09594533561358" x2="489" y2="164.09594533561358" fill="rgb(0, 0, 0)" stroke="rgb(66, 66, 66)" stroke-width="1px" opacity="0.25"></line><line x1="0" y1="132.5722665096545" x2="489" y2="132.5722665096545" fill="rgb(0, 0, 0)" stroke="rgb(66, 66, 66)" stroke-width="1px" opacity="0.25"></line><line x1="0" y1="101.04858768369544" x2="489" y2="101.04858768369544" fill="rgb(0, 0, 0)" stroke="rgb(66, 66, 66)" stroke-width="1px" opacity="0.25"></line><line x1="0" y1="69.52490885773639" x2="489" y2="69.52490885773639" fill="rgb(0, 0, 0)" stroke="rgb(66, 66, 66)" stroke-width="1px" opacity="0.25"></line><line x1="0" y1="38.00123003177735" x2="489" y2="38.00123003177735" fill="rgb(0, 0, 0)" stroke="rgb(66, 66, 66)" stroke-width="1px" opacity="0.25"></line><line x1="0" y1="6.477551205818637" x2="489" y2="6.477551205818637" fill="rgb(0, 0, 0)" stroke="rgb(66, 66, 66)" stroke-width="1px" opacity="0.25"></line></g></g></g><g><g><line x1="0" y1="1803.327244285483" x2="489" y2="1803.327244285483" fill="rgb(0, 0, 0)" stroke="rgb(153, 153, 153)" stroke-width="1.5px"></line></g></g><g><g><line x1="3.4846680741720633" y1="0" x2="3.4846680741720633" y2="377" fill="rgb(0, 0, 0)" stroke="rgb(153, 153, 153)" stroke-width="1.5px"></line></g></g><g><g><g><g><g><path stroke="rgb(0, 119, 187)" stroke-width="2px" d="M3.4846680741720633,153.34197908550564L19.23817523790165,163.8849985149711L34.99168240163123,153.34197908550564L50.74518956536082,179.6996216070532L66.49869672909041,190.24264103651865L82.25220389281999,179.6996216070532L98.00571105654957,148.07056331865687L113.75921822027917,195.5142446991353L129.51272538400875,242.95783213172982L145.26623254773833,121.71292079710926L161.0197397114679,153.34197908550564L176.7732468751975,148.07056331865687L192.52675403892707,174.4282058402044L208.28026120265665,137.52754388919138L224.03376836638625,184.97122526966984L239.78727553011583,184.97122526966984L255.54078269384541,227.14330298753168L271.294289857575,206.0572641286008L287.0477970213046,163.8849985149711L302.80130418503416,221.87169932491503L318.55481134876374,227.14330298753168L334.3083185124934,221.87169932491503" style="fill: none;" fill="none"></path></g><g><path stroke="rgb(238, 51, 119)" stroke-width="2px" d="M3.4846680741720633,227.14330298753168L19.23817523790165,227.14330298753168L34.99168240163123,227.14330298753168L50.74518956536082,227.14330298753168L66.49869672909041,227.14330298753168L82.25220389281999,237.68632241699711L98.00571105654957,227.14330298753168L113.75921822027917,227.14330298753168L129.51272538400875,227.14330298753168L145.26623254773833,227.14330298753168L161.0197397114679,216.6002835580662L176.7732468751975,221.87169932491503L192.52675403892707,237.68632241699711L208.28026120265665,237.68632241699711L224.03376836638625,211.32867989544957L239.78727553011583,232.4148127022644L255.54078269384541,232.4148127022644L271.294289857575,232.4148127022644L287.0477970213046,242.95783213172982L302.80130418503416,179.6996216070532L318.55481134876374,200.78566046598414L334.3083185124934,206.0572641286008L350.06182567622295,142.7989596560402L365.81533283995253,174.4282058402044L381.5688400036821,95.35527827556172L397.3223471674117,126.98452445972592L413.0758543311413,237.68632241699711L428.82936149487085,184.97122526966984L444.5828686586005,190.24264103651865L460.33637582233007,227.14330298753168" style="fill: none;" fill="none"></path></g><g><path stroke="rgb(255, 112, 67)" stroke-width="2px" d="M3.4846680741720633,206.0572641286008L19.23817523790165,206.0572641286008L34.99168240163123,105.89829770502716L50.74518956536082,153.34197908550564L66.49869672909041,126.98452445972592L82.25220389281999,163.8849985149711L98.00571105654957,179.6996216070532L113.75921822027917,169.15660217758776L129.51272538400875,184.97122526966984L145.26623254773833,200.78566046598414L161.0197397114679,126.98452445972592L176.7732468751975,163.8849985149711L192.52675403892707,195.5142446991353L208.28026120265665,216.6002835580662L224.03376836638625,206.0572641286008" style="fill: none;" fill="none"></path></g><g><path stroke="rgb(51, 187, 238)" stroke-width="2px" d="M3.4846680741720633,227.14330298753168L19.23817523790165,232.4148127022644L34.99168240163123,195.5142446991353L50.74518956536082,174.4282058402044L66.49869672909041,111.16990136764382L82.25220389281999,142.7989596560402L98.00571105654957,184.97122526966984L113.75921822027917,148.07056331865687L129.51272538400875,200.78566046598414L145.26623254773833,227.14330298753168L161.0197397114679,153.34197908550564L176.7732468751975,200.78566046598414L192.52675403892707,190.24264103651865L208.28026120265665,206.0572641286008L224.03376836638625,163.8849985149711L239.78727553011583,184.97122526966984L255.54078269384541,190.24264103651865" style="fill: none;" fill="none"></path></g><g><path stroke="rgb(255, 112, 67)" stroke-width="2px" d="M3.4846680741720633,227.14330298753168L19.23817523790165,211.32867989544957L34.99168240163123,184.97122526966984L50.74518956536082,179.6996216070532L66.49869672909041,211.32867989544957L82.25220389281999,206.0572641286008L98.00571105654957,163.8849985149711L113.75921822027917,126.98452445972592L129.51272538400875,242.95783213172982L145.26623254773833,174.4282058402044L161.0197397114679,137.52754388919138L176.7732468751975,163.8849985149711L192.52675403892707,126.98452445972592L208.28026120265665,126.98452445972592L224.03376836638625,248.22934184646257L239.78727553011583,206.0572641286008L255.54078269384541,169.15660217758776L271.294289857575,179.6996216070532L287.0477970213046,132.25594022657475L302.80130418503416,211.32867989544957" style="fill: none;" fill="none"></path></g><g><path stroke="rgb(51, 187, 238)" stroke-width="2px" d="M3.4846680741720633,227.14330298753168L19.23817523790165,227.14330298753168L34.99168240163123,227.14330298753168L50.74518956536082,227.14330298753168L66.49869672909041,227.14330298753168L82.25220389281999,216.6002835580662L98.00571105654957,232.4148127022644L113.75921822027917,232.4148127022644L129.51272538400875,221.87169932491503L145.26623254773833,211.32867989544957L161.0197397114679,227.14330298753168L176.7732468751975,242.95783213172982L192.52675403892707,121.71292079710926L208.28026120265665,285.1300037974756L224.03376836638625,274.5869843680101L239.78727553011583,232.4148127022644L255.54078269384541,195.5142446991353L271.294289857575,216.6002835580662L287.0477970213046,232.4148127022644L302.80130418503416,227.14330298753168L318.55481134876374,221.87169932491503L334.3083185124934,179.6996216070532L350.06182567622295,206.0572641286008L365.81533283995253,232.4148127022644L381.5688400036821,232.4148127022644" style="fill: none;" fill="none"></path></g><g><path stroke="rgb(187, 187, 187)" stroke-width="2px" d="M3.4846680741720633,221.87169932491503L19.23817523790165,206.0572641286008L34.99168240163123,216.6002835580662L50.74518956536082,190.24264103651865L66.49869672909041,211.32867989544957L82.25220389281999,195.5142446991353L98.00571105654957,200.78566046598414L113.75921822027917,74.26923941663082L129.51272538400875,111.16990136764382L145.26623254773833,163.8849985149711L161.0197397114679,132.25594022657475L176.7732468751975,116.44150503026047L192.52675403892707,111.16990136764382L208.28026120265665,142.7989596560402L224.03376836638625,184.97122526966984L239.78727553011583,158.6135827481223L255.54078269384541,169.15660217758776L271.294289857575,195.5142446991353L287.0477970213046,148.07056331865687L302.80130418503416,116.44150503026047" style="fill: none;" fill="none"></path></g><g><path stroke="rgb(204, 51, 17)" stroke-width="2px" d="M3.4846680741720633,227.14330298753168L19.23817523790165,227.14330298753168L34.99168240163123,227.14330298753168L50.74518956536082,227.14330298753168L66.49869672909041,227.14330298753168L82.25220389281999,227.14330298753168L98.00571105654957,227.14330298753168L113.75921822027917,227.14330298753168L129.51272538400875,206.0572641286008L145.26623254773833,174.4282058402044L161.0197397114679,221.87169932491503L176.7732468751975,206.0572641286008L192.52675403892707,206.0572641286008L208.28026120265665,200.78566046598414L224.03376836638625,221.87169932491503L239.78727553011583,232.4148127022644L255.54078269384541,237.68632241699711L271.294289857575,227.14330298753168L287.0477970213046,221.87169932491503L302.80130418503416,216.6002835580662L318.55481134876374,216.6002835580662L334.3083185124934,211.32867989544957" style="fill: none;" fill="none"></path></g><g><path stroke="rgb(187, 187, 187)" stroke-width="2px" d="M3.4846680741720633,242.95783213172982L19.23817523790165,163.8849985149711L34.99168240163123,148.07056331865687L50.74518956536082,179.6996216070532L66.49869672909041,221.87169932491503L82.25220389281999,206.0572641286008L98.00571105654957,158.6135827481223L113.75921822027917,195.5142446991353L129.51272538400875,142.7989596560402L145.26623254773833,137.52754388919138L161.0197397114679,137.52754388919138L176.7732468751975,68.99782364978203L192.52675403892707,132.25594022657475L208.28026120265665,84.81225884609627L224.03376836638625,100.62688193817837L239.78727553011583,142.7989596560402L255.54078269384541,137.52754388919138L271.294289857575,184.97122526966984L287.0477970213046,179.6996216070532L302.80130418503416,153.34197908550564L318.55481134876374,169.15660217758776L334.3083185124934,121.71292079710926L350.06182567622295,158.6135827481223L365.81533283995253,195.5142446991353" style="fill: none;" fill="none"></path></g><g><path stroke="rgb(204, 51, 17)" stroke-width="2px" d="M3.4846680741720633,237.68632241699711L19.23817523790165,232.4148127022644L34.99168240163123,237.68632241699711L50.74518956536082,248.22934184646257L66.49869672909041,232.4148127022644L82.25220389281999,269.3154746532774L98.00571105654957,253.5008515611953L113.75921822027917,227.14330298753168L129.51272538400875,242.95783213172982L145.26623254773833,179.6996216070532L161.0197397114679,126.98452445972592L176.7732468751975,153.34197908550564L192.52675403892707,253.5008515611953L208.28026120265665,211.32867989544957L224.03376836638625,190.24264103651865L239.78727553011583,227.14330298753168L255.54078269384541,153.34197908550564L271.294289857575,248.22934184646257L287.0477970213046,169.15660217758776L302.80130418503416,111.16990136764382L318.55481134876374,137.52754388919138L334.3083185124934,179.6996216070532L350.06182567622295,221.87169932491503L365.81533283995253,179.6996216070532L381.5688400036821,169.15660217758776L397.3223471674117,153.34197908550564L413.0758543311413,179.6996216070532L428.82936149487085,142.7989596560402L444.5828686586005,169.15660217758776L460.33637582233007,206.0572641286008" style="fill: none;" fill="none"></path></g><g><path stroke="rgb(0, 153, 136)" stroke-width="2px" d="M3.4846680741720633,248.22934184646257L19.23817523790165,227.14330298753168L34.99168240163123,206.0572641286008L50.74518956536082,190.24264103651865L66.49869672909041,242.95783213172982L82.25220389281999,169.15660217758776L98.00571105654957,137.52754388919138L113.75921822027917,227.14330298753168L129.51272538400875,179.6996216070532L145.26623254773833,216.6002835580662L161.0197397114679,253.5008515611953L176.7732468751975,179.6996216070532L192.52675403892707,216.6002835580662L208.28026120265665,179.6996216070532L224.03376836638625,216.6002835580662L239.78727553011583,95.35527827556172L255.54078269384541,68.99782364978203L271.294289857575,105.89829770502716L287.0477970213046,137.52754388919138L302.80130418503416,111.16990136764382L318.55481134876374,137.52754388919138L334.3083185124934,158.6135827481223L350.06182567622295,148.07056331865687L365.81533283995253,111.16990136764382L381.5688400036821,148.07056331865687L397.3223471674117,90.08386250871293L413.0758543311413,111.16990136764382L428.82936149487085,142.7989596560402L444.5828686586005,190.24264103651865" style="fill: none;" fill="none"></path></g><g><path stroke="rgb(0, 119, 187)" stroke-width="2px" d="M3.4846680741720633,279.8584940827429L19.23817523790165,242.95783213172982L34.99168240163123,211.32867989544957L50.74518956536082,216.6002835580662L66.49869672909041,216.6002835580662L82.25220389281999,227.14330298753168L98.00571105654957,153.34197908550564L113.75921822027917,264.04396493854466L129.51272538400875,237.68632241699711L145.26623254773833,274.5869843680101L161.0197397114679,190.24264103651865L176.7732468751975,169.15660217758776L192.52675403892707,258.77245522381196L208.28026120265665,195.5142446991353L224.03376836638625,216.6002835580662L239.78727553011583,200.78566046598414L255.54078269384541,221.87169932491503L271.294289857575,200.78566046598414L287.0477970213046,200.78566046598414" style="fill: none;" fill="none"></path></g><g><path stroke="rgb(0, 153, 136)" stroke-width="2px" d="M3.4846680741720633,195.5142446991353L19.23817523790165,174.4282058402044L34.99168240163123,200.78566046598414L50.74518956536082,264.04396493854466L66.49869672909041,142.7989596560402L82.25220389281999,163.8849985149711L98.00571105654957,195.5142446991353L113.75921822027917,216.6002835580662L129.51272538400875,258.77245522381196L145.26623254773833,148.07056331865687L161.0197397114679,132.25594022657475L176.7732468751975,242.95783213172982L192.52675403892707,264.04396493854466L208.28026120265665,216.6002835580662L224.03376836638625,216.6002835580662L239.78727553011583,227.14330298753168L255.54078269384541,216.6002835580662L271.294289857575,211.32867989544957L287.0477970213046,216.6002835580662L302.80130418503416,221.87169932491503L318.55481134876374,227.14330298753168L334.3083185124934,227.14330298753168L350.06182567622295,221.87169932491503" style="fill: none;" fill="none"></path></g><g><path stroke="rgb(0, 119, 187)" stroke-width="2px" d="M3.4846680741720633,290.4015135122083L19.23817523790165,290.4015135122083L34.99168240163123,290.4015135122083L50.74518956536082,232.4148127022644L66.49869672909041,237.68632241699711L82.25220389281999,179.6996216070532L98.00571105654957,232.4148127022644L113.75921822027917,211.32867989544957L129.51272538400875,216.6002835580662L145.26623254773833,169.15660217758776L161.0197397114679,248.22934184646257L176.7732468751975,169.15660217758776L192.52675403892707,232.4148127022644L208.28026120265665,206.0572641286008L224.03376836638625,221.87169932491503L239.78727553011583,227.14330298753168L255.54078269384541,242.95783213172982L271.294289857575,206.0572641286008L287.0477970213046,179.6996216070532L302.80130418503416,195.5142446991353L318.55481134876374,184.97122526966984L334.3083185124934,211.32867989544957" style="fill: none;" fill="none"></path></g><g><path stroke="rgb(238, 51, 119)" stroke-width="2px" d="M3.4846680741720633,242.95783213172982L19.23817523790165,242.95783213172982L34.99168240163123,216.6002835580662L50.74518956536082,237.68632241699711L66.49869672909041,216.6002835580662L82.25220389281999,227.14330298753168L98.00571105654957,221.87169932491503L113.75921822027917,179.6996216070532L129.51272538400875,221.87169932491503L145.26623254773833,195.5142446991353L161.0197397114679,190.24264103651865L176.7732468751975,237.68632241699711L192.52675403892707,253.5008515611953L208.28026120265665,242.95783213172982L224.03376836638625,232.4148127022644L239.78727553011583,200.78566046598414L255.54078269384541,248.22934184646257L271.294289857575,237.68632241699711L287.0477970213046,195.5142446991353L302.80130418503416,211.32867989544957" style="fill: none;" fill="none"></path></g><g><path stroke="rgb(255, 112, 67)" stroke-width="2px" d="M3.4846680741720633,232.4148127022644L19.23817523790165,206.0572641286008L34.99168240163123,227.14330298753168L50.74518956536082,269.3154746532774L66.49869672909041,227.14330298753168L82.25220389281999,211.32867989544957L98.00571105654957,184.97122526966984L113.75921822027917,211.32867989544957L129.51272538400875,206.0572641286008L145.26623254773833,285.1300037974756L161.0197397114679,242.95783213172982L176.7732468751975,184.97122526966984L192.52675403892707,174.4282058402044L208.28026120265665,258.77245522381196L224.03376836638625,179.6996216070532L239.78727553011583,190.24264103651865L255.54078269384541,227.14330298753168L271.294289857575,200.78566046598414L287.0477970213046,126.98452445972592L302.80130418503416,179.6996216070532L318.55481134876374,132.25594022657475L334.3083185124934,153.34197908550564L350.06182567622295,174.4282058402044L365.81533283995253,142.7989596560402L381.5688400036821,132.25594022657475L397.3223471674117,174.4282058402044L413.0758543311413,174.4282058402044L428.82936149487085,174.4282058402044L444.5828686586005,200.78566046598414L460.33637582233007,132.25594022657475" style="fill: none;" fill="none"></path></g><g><path stroke="rgb(187, 187, 187)" stroke-width="2px" d="M3.4846680741720633,232.4148127022644L19.23817523790165,227.14330298753168L34.99168240163123,206.0572641286008L50.74518956536082,174.4282058402044L66.49869672909041,190.24264103651865L82.25220389281999,227.14330298753168L98.00571105654957,184.97122526966984L113.75921822027917,232.4148127022644L129.51272538400875,264.04396493854466L145.26623254773833,232.4148127022644L161.0197397114679,248.22934184646257L176.7732468751975,216.6002835580662L192.52675403892707,216.6002835580662L208.28026120265665,253.5008515611953L224.03376836638625,258.77245522381196L239.78727553011583,274.5869843680101" style="fill: none;" fill="none"></path></g><g><path stroke="rgb(204, 51, 17)" stroke-width="2px" d="M3.4846680741720633,232.4148127022644L19.23817523790165,200.78566046598414L34.99168240163123,105.89829770502716L50.74518956536082,116.44150503026047L66.49869672909041,111.16990136764382L82.25220389281999,137.52754388919138L98.00571105654957,148.07056331865687L113.75921822027917,142.7989596560402L129.51272538400875,111.16990136764382L145.26623254773833,126.98452445972592L161.0197397114679,211.32867989544957L176.7732468751975,148.07056331865687L192.52675403892707,200.78566046598414L208.28026120265665,200.78566046598414L224.03376836638625,126.98452445972592" style="fill: none;" fill="none"></path></g><g><path stroke="rgb(0, 153, 136)" stroke-width="2px" d="M3.4846680741720633,364.2027434663504L19.23817523790165,211.32867989544957L34.99168240163123,206.0572641286008L50.74518956536082,269.3154746532774L66.49869672909041,148.07056331865687L82.25220389281999,216.6002835580662L98.00571105654957,163.8849985149711L113.75921822027917,211.32867989544957L129.51272538400875,153.34197908550564L145.26623254773833,174.4282058402044L161.0197397114679,232.4148127022644L176.7732468751975,169.15660217758776L192.52675403892707,258.77245522381196L208.28026120265665,179.6996216070532L224.03376836638625,163.8849985149711L239.78727553011583,195.5142446991353L255.54078269384541,111.16990136764382L271.294289857575,190.24264103651865L287.0477970213046,211.32867989544957L302.80130418503416,190.24264103651865L318.55481134876374,137.52754388919138L334.3083185124934,158.6135827481223L350.06182567622295,153.34197908550564L365.81533283995253,158.6135827481223L381.5688400036821,206.0572641286008L397.3223471674117,211.32867989544957L413.0758543311413,211.32867989544957L428.82936149487085,153.34197908550564L444.5828686586005,200.78566046598414" style="fill: none;" fill="none"></path></g><g><path stroke="rgb(0, 119, 187)" stroke-width="2px" d="M3.4846680741720633,211.32867989544957L19.23817523790165,227.14330298753168L34.99168240163123,206.0572641286008L50.74518956536082,285.1300037974756L66.49869672909041,290.4015135122083L82.25220389281999,285.1300037974756L98.00571105654957,300.94453294167374L113.75921822027917,322.0306657484886L129.51272538400875,285.1300037974756L145.26623254773833,274.5869843680101L161.0197397114679,332.573685177954L176.7732468751975,290.4015135122083L192.52675403892707,316.75915603375586L208.28026120265665,311.48755237113926L224.03376836638625,269.3154746532774" style="fill: none;" fill="none"></path></g><g><path stroke="rgb(0, 153, 136)" stroke-width="2px" d="M3.4846680741720633,216.6002835580662L19.23817523790165,232.4148127022644L34.99168240163123,221.87169932491503L50.74518956536082,216.6002835580662L66.49869672909041,190.24264103651865L82.25220389281999,179.6996216070532L98.00571105654957,227.14330298753168L113.75921822027917,153.34197908550564L129.51272538400875,174.4282058402044L145.26623254773833,227.14330298753168L161.0197397114679,206.0572641286008L176.7732468751975,195.5142446991353L192.52675403892707,163.8849985149711L208.28026120265665,126.98452445972592L224.03376836638625,179.6996216070532L239.78727553011583,158.6135827481223L255.54078269384541,116.44150503026047L271.294289857575,132.25594022657475L287.0477970213046,148.07056331865687L302.80130418503416,142.7989596560402L318.55481134876374,121.71292079710926L334.3083185124934,126.98452445972592L350.06182567622295,142.7989596560402L365.81533283995253,126.98452445972592L381.5688400036821,142.7989596560402L397.3223471674117,137.52754388919138L413.0758543311413,153.34197908550564L428.82936149487085,148.07056331865687L444.5828686586005,179.6996216070532" style="fill: none;" fill="none"></path></g><g><path stroke="rgb(0, 119, 187)" stroke-width="2px" d="M3.4846680741720633,232.4148127022644L19.23817523790165,237.68632241699711L34.99168240163123,237.68632241699711L50.74518956536082,237.68632241699711L66.49869672909041,221.87169932491503L82.25220389281999,248.22934184646257L98.00571105654957,258.77245522381196L113.75921822027917,206.0572641286008L129.51272538400875,227.14330298753168L145.26623254773833,253.5008515611953L161.0197397114679,206.0572641286008L176.7732468751975,237.68632241699711L192.52675403892707,258.77245522381196L208.28026120265665,216.6002835580662L224.03376836638625,148.07056331865687L239.78727553011583,132.25594022657475L255.54078269384541,90.08386250871293L271.294289857575,58.45480422031655L287.0477970213046,100.62688193817837L302.80130418503416,100.62688193817837L318.55481134876374,79.54084307924748L334.3083185124934,68.99782364978203L350.06182567622295,237.68632241699711L365.81533283995253,163.8849985149711L381.5688400036821,221.87169932491503L397.3223471674117,242.95783213172982L413.0758543311413,232.4148127022644L428.82936149487085,227.14330298753168L444.5828686586005,137.52754388919138L460.33637582233007,242.95783213172982" style="fill: none;" fill="none"></path></g><g><path stroke="rgb(238, 51, 119)" stroke-width="2px" d="M3.4846680741720633,179.6996216070532L19.23817523790165,58.45480422031655L34.99168240163123,158.6135827481223L50.74518956536082,63.72621998716538L66.49869672909041,58.45480422031655L82.25220389281999,116.44150503026047L98.00571105654957,58.45480422031655L113.75921822027917,132.25594022657475L129.51272538400875,84.81225884609627L145.26623254773833,90.08386250871293L161.0197397114679,63.72621998716538L176.7732468751975,42.640181128234445L192.52675403892707,95.35527827556172L208.28026120265665,105.89829770502716L224.03376836638625,95.35527827556172L239.78727553011583,74.26923941663082L255.54078269384541,74.26923941663082L271.294289857575,126.98452445972592L287.0477970213046,116.44150503026047L302.80130418503416,121.71292079710926L318.55481134876374,68.99782364978203L334.3083185124934,95.35527827556172L350.06182567622295,79.54084307924748L365.81533283995253,47.91159689508328" style="fill: none;" fill="none"></path></g><g><path stroke="rgb(255, 112, 67)" stroke-width="2px" d="M3.4846680741720633,380.01736655843246L19.23817523790165,184.97122526966984L34.99168240163123,285.1300037974756L50.74518956536082,190.24264103651865L66.49869672909041,184.97122526966984L82.25220389281999,237.68632241699711L98.00571105654957,237.68632241699711L113.75921822027917,200.78566046598414L129.51272538400875,211.32867989544957L145.26623254773833,148.07056331865687L161.0197397114679,184.97122526966984L176.7732468751975,163.8849985149711L192.52675403892707,179.6996216070532L208.28026120265665,116.44150503026047L224.03376836638625,163.8849985149711L239.78727553011583,184.97122526966984L255.54078269384541,158.6135827481223L271.294289857575,142.7989596560402L287.0477970213046,142.7989596560402L302.80130418503416,137.52754388919138L318.55481134876374,153.34197908550564L334.3083185124934,216.6002835580662L350.06182567622295,174.4282058402044L365.81533283995253,163.8849985149711L381.5688400036821,132.25594022657475L397.3223471674117,169.15660217758776" style="fill: none;" fill="none"></path></g><g><path stroke="rgb(238, 51, 119)" stroke-width="2px" d="M3.4846680741720633,269.3154746532774L19.23817523790165,269.3154746532774L34.99168240163123,232.4148127022644L50.74518956536082,227.14330298753168L66.49869672909041,274.5869843680101L82.25220389281999,227.14330298753168L98.00571105654957,237.68632241699711L113.75921822027917,195.5142446991353L129.51272538400875,227.14330298753168L145.26623254773833,221.87169932491503L161.0197397114679,190.24264103651865L176.7732468751975,190.24264103651865L192.52675403892707,200.78566046598414L208.28026120265665,232.4148127022644L224.03376836638625,258.77245522381196L239.78727553011583,190.24264103651865L255.54078269384541,232.4148127022644L271.294289857575,232.4148127022644L287.0477970213046,242.95783213172982L302.80130418503416,206.0572641286008L318.55481134876374,232.4148127022644L334.3083185124934,211.32867989544957L350.06182567622295,206.0572641286008" style="fill: none;" fill="none"></path></g><g><path stroke="rgb(255, 112, 67)" stroke-width="2px" d="M3.4846680741720633,211.32867989544957L19.23817523790165,285.1300037974756L34.99168240163123,269.3154746532774L50.74518956536082,332.573685177954L66.49869672909041,285.1300037974756L82.25220389281999,179.6996216070532L98.00571105654957,163.8849985149711L113.75921822027917,221.87169932491503L129.51272538400875,253.5008515611953L145.26623254773833,285.1300037974756L161.0197397114679,221.87169932491503L176.7732468751975,253.5008515611953L192.52675403892707,232.4148127022644L208.28026120265665,227.14330298753168L224.03376836638625,206.0572641286008L239.78727553011583,179.6996216070532L255.54078269384541,253.5008515611953L271.294289857575,200.78566046598414L287.0477970213046,184.97122526966984" style="fill: none;" fill="none"></path></g><g><path stroke="rgb(51, 187, 238)" stroke-width="2px" d="M3.4846680741720633,232.4148127022644L19.23817523790165,227.14330298753168L34.99168240163123,216.6002835580662L50.74518956536082,200.78566046598414L66.49869672909041,221.87169932491503L82.25220389281999,242.95783213172982L98.00571105654957,227.14330298753168L113.75921822027917,248.22934184646257L129.51272538400875,206.0572641286008L145.26623254773833,200.78566046598414L161.0197397114679,190.24264103651865L176.7732468751975,184.97122526966984L192.52675403892707,169.15660217758776L208.28026120265665,163.8849985149711L224.03376836638625,126.98452445972592L239.78727553011583,116.44150503026047L255.54078269384541,100.62688193817837L271.294289857575,158.6135827481223L287.0477970213046,148.07056331865687L302.80130418503416,169.15660217758776L318.55481134876374,121.71292079710926L334.3083185124934,116.44150503026047L350.06182567622295,132.25594022657475L365.81533283995253,148.07056331865687L381.5688400036821,174.4282058402044L397.3223471674117,163.8849985149711L413.0758543311413,169.15660217758776L428.82936149487085,137.52754388919138L444.5828686586005,200.78566046598414" style="fill: none;" fill="none"></path></g><g><path stroke="rgb(187, 187, 187)" stroke-width="2px" d="M3.4846680741720633,190.24264103651865L19.23817523790165,195.5142446991353L34.99168240163123,221.87169932491503L50.74518956536082,158.6135827481223L66.49869672909041,184.97122526966984L82.25220389281999,158.6135827481223L98.00571105654957,190.24264103651865L113.75921822027917,153.34197908550564L129.51272538400875,74.26923941663082L145.26623254773833,132.25594022657475L161.0197397114679,169.15660217758776L176.7732468751975,179.6996216070532L192.52675403892707,190.24264103651865L208.28026120265665,137.52754388919138L224.03376836638625,174.4282058402044L239.78727553011583,153.34197908550564L255.54078269384541,116.44150503026047L271.294289857575,132.25594022657475L287.0477970213046,158.6135827481223L302.80130418503416,132.25594022657475L318.55481134876374,116.44150503026047" style="fill: none;" fill="none"></path></g><g><path stroke="rgb(51, 187, 238)" stroke-width="2px" d="M3.4846680741720633,221.87169932491503L19.23817523790165,195.5142446991353L34.99168240163123,200.78566046598414L50.74518956536082,100.62688193817837L66.49869672909041,126.98452445972592L82.25220389281999,174.4282058402044L98.00571105654957,100.62688193817837L113.75921822027917,90.08386250871293L129.51272538400875,116.44150503026047L145.26623254773833,227.14330298753168L161.0197397114679,206.0572641286008L176.7732468751975,111.16990136764382L192.52675403892707,190.24264103651865L208.28026120265665,179.6996216070532L224.03376836638625,184.97122526966984L239.78727553011583,137.52754388919138L255.54078269384541,184.97122526966984L271.294289857575,158.6135827481223L287.0477970213046,190.24264103651865L302.80130418503416,158.6135827481223" style="fill: none;" fill="none"></path></g><g><path stroke="rgb(187, 187, 187)" stroke-width="2px" d="M3.4846680741720633,253.5008515611953L19.23817523790165,184.97122526966984L34.99168240163123,227.14330298753168L50.74518956536082,348.38821432215224L66.49869672909041,311.48755237113926L82.25220389281999,232.4148127022644L98.00571105654957,295.67302322694104L113.75921822027917,279.8584940827429L129.51272538400875,248.22934184646257L145.26623254773833,253.5008515611953L161.0197397114679,258.77245522381196L176.7732468751975,227.14330298753168L192.52675403892707,258.77245522381196L208.28026120265665,311.48755237113926" style="fill: none;" fill="none"></path></g><g><path stroke="rgb(204, 51, 17)" stroke-width="2px" d="M3.4846680741720633,227.14330298753168L19.23817523790165,232.4148127022644L34.99168240163123,232.4148127022644L50.74518956536082,221.87169932491503L66.49869672909041,211.32867989544957L82.25220389281999,184.97122526966984L98.00571105654957,163.8849985149711L113.75921822027917,206.0572641286008L129.51272538400875,137.52754388919138L145.26623254773833,163.8849985149711L161.0197397114679,158.6135827481223L176.7732468751975,137.52754388919138L192.52675403892707,142.7989596560402L208.28026120265665,211.32867989544957L224.03376836638625,184.97122526966984L239.78727553011583,169.15660217758776L255.54078269384541,179.6996216070532L271.294289857575,190.24264103651865L287.0477970213046,169.15660217758776L302.80130418503416,132.25594022657475L318.55481134876374,121.71292079710926L334.3083185124934,137.52754388919138L350.06182567622295,184.97122526966984L365.81533283995253,232.4148127022644L381.5688400036821,190.24264103651865L397.3223471674117,142.7989596560402L413.0758543311413,90.08386250871293L428.82936149487085,153.34197908550564L444.5828686586005,169.15660217758776L460.33637582233007,216.6002835580662" style="fill: none;" fill="none"></path></g><g><path stroke="rgb(0, 153, 136)" stroke-width="2px" d="M3.4846680741720633,206.0572641286008L19.23817523790165,237.68632241699711L34.99168240163123,232.4148127022644L50.74518956536082,227.14330298753168L66.49869672909041,237.68632241699711L82.25220389281999,227.14330298753168L98.00571105654957,242.95783213172982L113.75921822027917,242.95783213172982L129.51272538400875,195.5142446991353L145.26623254773833,195.5142446991353L161.0197397114679,248.22934184646257L176.7732468751975,232.4148127022644L192.52675403892707,195.5142446991353L208.28026120265665,232.4148127022644L224.03376836638625,200.78566046598414L239.78727553011583,195.5142446991353L255.54078269384541,184.97122526966984L271.294289857575,190.24264103651865L287.0477970213046,174.4282058402044L302.80130418503416,132.25594022657475L318.55481134876374,206.0572641286008L334.3083185124934,163.8849985149711L350.06182567622295,200.78566046598414L365.81533283995253,163.8849985149711L381.5688400036821,153.34197908550564L397.3223471674117,153.34197908550564L413.0758543311413,169.15660217758776L428.82936149487085,163.8849985149711L444.5828686586005,163.8849985149711L460.33637582233007,200.78566046598414" style="fill: none;" fill="none"></path></g><g><path stroke="rgb(238, 51, 119)" stroke-width="2px" d="M3.4846680741720633,221.87169932491503L19.23817523790165,237.68632241699711L34.99168240163123,227.14330298753168L50.74518956536082,242.95783213172982L66.49869672909041,242.95783213172982L82.25220389281999,227.14330298753168L98.00571105654957,211.32867989544957L113.75921822027917,142.7989596560402L129.51272538400875,237.68632241699711L145.26623254773833,206.0572641286008L161.0197397114679,179.6996216070532L176.7732468751975,95.35527827556172L192.52675403892707,116.44150503026047L208.28026120265665,169.15660217758776L224.03376836638625,116.44150503026047L239.78727553011583,169.15660217758776L255.54078269384541,132.25594022657475L271.294289857575,116.44150503026047L287.0477970213046,179.6996216070532L302.80130418503416,200.78566046598414L318.55481134876374,200.78566046598414L334.3083185124934,206.0572641286008L350.06182567622295,137.52754388919138L365.81533283995253,121.71292079710926" style="fill: none;" fill="none"></path></g><g><path stroke="rgb(255, 112, 67)" stroke-width="2px" d="M3.4846680741720633,227.14330298753168L19.23817523790165,232.4148127022644L34.99168240163123,274.5869843680101L50.74518956536082,253.5008515611953L66.49869672909041,174.4282058402044L82.25220389281999,200.78566046598414L98.00571105654957,174.4282058402044L113.75921822027917,5.739519177221453L129.51272538400875,74.26923941663082L145.26623254773833,74.26923941663082L161.0197397114679,90.08386250871293L176.7732468751975,111.16990136764382L192.52675403892707,63.72621998716538L208.28026120265665,84.81225884609627L224.03376836638625,142.7989596560402L239.78727553011583,179.6996216070532L255.54078269384541,227.14330298753168L271.294289857575,285.1300037974756L287.0477970213046,169.15660217758776L302.80130418503416,264.04396493854466" style="fill: none;" fill="none"></path></g><g><path stroke="rgb(51, 187, 238)" stroke-width="2px" d="M3.4846680741720633,179.6996216070532L19.23817523790165,158.6135827481223L34.99168240163123,174.4282058402044L50.74518956536082,253.5008515611953L66.49869672909041,105.89829770502716L82.25220389281999,116.44150503026047L98.00571105654957,105.89829770502716L113.75921822027917,153.34197908550564L129.51272538400875,63.72621998716538L145.26623254773833,137.52754388919138L161.0197397114679,100.62688193817837L176.7732468751975,90.08386250871293L192.52675403892707,184.97122526966984L208.28026120265665,195.5142446991353L224.03376836638625,116.44150503026047L239.78727553011583,84.81225884609627L255.54078269384541,169.15660217758776L271.294289857575,169.15660217758776L287.0477970213046,126.98452445972592L302.80130418503416,126.98452445972592L318.55481134876374,163.8849985149711" style="fill: none;" fill="none"></path></g><g><path stroke="rgb(187, 187, 187)" stroke-width="2px" d="M3.4846680741720633,216.6002835580662L19.23817523790165,121.71292079710926L34.99168240163123,227.14330298753168L50.74518956536082,253.5008515611953L66.49869672909041,237.68632241699711L82.25220389281999,227.14330298753168L98.00571105654957,174.4282058402044L113.75921822027917,237.68632241699711L129.51272538400875,216.6002835580662L145.26623254773833,290.4015135122083L161.0197397114679,237.68632241699711L176.7732468751975,253.5008515611953L192.52675403892707,216.6002835580662L208.28026120265665,216.6002835580662" style="fill: none;" fill="none"></path></g><g><path stroke="rgb(51, 187, 238)" stroke-width="2px" d="M3.4846680741720633,200.78566046598414L19.23817523790165,195.5142446991353L34.99168240163123,84.81225884609627L50.74518956536082,132.25594022657475L66.49869672909041,216.6002835580662L82.25220389281999,153.34197908550564L98.00571105654957,237.68632241699711L113.75921822027917,174.4282058402044L129.51272538400875,216.6002835580662L145.26623254773833,148.07056331865687L161.0197397114679,116.44150503026047L176.7732468751975,84.81225884609627L192.52675403892707,158.6135827481223L208.28026120265665,126.98452445972592L224.03376836638625,116.44150503026047" style="fill: none;" fill="none"></path></g><g><path stroke="rgb(187, 187, 187)" stroke-width="2px" d="M3.4846680741720633,227.14330298753168L19.23817523790165,227.14330298753168L34.99168240163123,227.14330298753168L50.74518956536082,237.68632241699711L66.49869672909041,232.4148127022644L82.25220389281999,258.77245522381196L98.00571105654957,227.14330298753168L113.75921822027917,227.14330298753168L129.51272538400875,227.14330298753168L145.26623254773833,216.6002835580662L161.0197397114679,211.32867989544957L176.7732468751975,248.22934184646257L192.52675403892707,227.14330298753168L208.28026120265665,158.6135827481223L224.03376836638625,179.6996216070532L239.78727553011583,221.87169932491503L255.54078269384541,248.22934184646257L271.294289857575,248.22934184646257L287.0477970213046,242.95783213172982L302.80130418503416,227.14330298753168L318.55481134876374,227.14330298753168L334.3083185124934,227.14330298753168L350.06182567622295,227.14330298753168L365.81533283995253,242.95783213172982L381.5688400036821,232.4148127022644L397.3223471674117,248.22934184646257" style="fill: none;" fill="none"></path></g><g><path stroke="rgb(204, 51, 17)" stroke-width="2px" d="M3.4846680741720633,200.78566046598414L19.23817523790165,184.97122526966984L34.99168240163123,195.5142446991353L50.74518956536082,163.8849985149711L66.49869672909041,179.6996216070532L82.25220389281999,142.7989596560402L98.00571105654957,121.71292079710926L113.75921822027917,216.6002835580662L129.51272538400875,142.7989596560402L145.26623254773833,200.78566046598414L161.0197397114679,174.4282058402044L176.7732468751975,216.6002835580662L192.52675403892707,179.6996216070532L208.28026120265665,137.52754388919138L224.03376836638625,153.34197908550564L239.78727553011583,153.34197908550564L255.54078269384541,211.32867989544957L271.294289857575,190.24264103651865L287.0477970213046,195.5142446991353" style="fill: none;" fill="none"></path></g><g><path stroke="rgb(0, 153, 136)" stroke-width="2px" d="M3.4846680741720633,211.32867989544957L19.23817523790165,221.87169932491503L34.99168240163123,184.97122526966984L50.74518956536082,211.32867989544957L66.49869672909041,174.4282058402044L82.25220389281999,169.15660217758776L98.00571105654957,190.24264103651865L113.75921822027917,179.6996216070532L129.51272538400875,200.78566046598414L145.26623254773833,179.6996216070532L161.0197397114679,206.0572641286008L176.7732468751975,184.97122526966984L192.52675403892707,195.5142446991353L208.28026120265665,174.4282058402044L224.03376836638625,184.97122526966984L239.78727553011583,195.5142446991353L255.54078269384541,232.4148127022644L271.294289857575,232.4148127022644" style="fill: none;" fill="none"></path></g><g><path stroke="rgb(204, 51, 17)" stroke-width="2px" d="M3.4846680741720633,179.6996216070532L19.23817523790165,184.97122526966984L34.99168240163123,206.0572641286008L50.74518956536082,237.68632241699711L66.49869672909041,242.95783213172982L82.25220389281999,221.87169932491503L98.00571105654957,216.6002835580662L113.75921822027917,206.0572641286008L129.51272538400875,227.14330298753168L145.26623254773833,174.4282058402044L161.0197397114679,184.97122526966984L176.7732468751975,158.6135827481223L192.52675403892707,206.0572641286008L208.28026120265665,132.25594022657475L224.03376836638625,148.07056331865687L239.78727553011583,137.52754388919138L255.54078269384541,158.6135827481223L271.294289857575,148.07056331865687L287.0477970213046,111.16990136764382L302.80130418503416,132.25594022657475L318.55481134876374,137.52754388919138L334.3083185124934,216.6002835580662L350.06182567622295,206.0572641286008L365.81533283995253,132.25594022657475L381.5688400036821,153.34197908550564L397.3223471674117,158.6135827481223L413.0758543311413,148.07056331865687L428.82936149487085,142.7989596560402L444.5828686586005,184.97122526966984L460.33637582233007,169.15660217758776" style="fill: none;" fill="none"></path></g><g><path stroke="rgb(0, 153, 136)" stroke-width="2px" d="M3.4846680741720633,248.22934184646257L19.23817523790165,237.68632241699711L34.99168240163123,221.87169932491503L50.74518956536082,306.2160426564065L66.49869672909041,290.4015135122083L82.25220389281999,242.95783213172982L98.00571105654957,132.25594022657475L113.75921822027917,105.89829770502716L129.51272538400875,100.62688193817837L145.26623254773833,121.71292079710926L161.0197397114679,132.25594022657475L176.7732468751975,242.95783213172982L192.52675403892707,163.8849985149711L208.28026120265665,169.15660217758776L224.03376836638625,126.98452445972592L239.78727553011583,163.8849985149711L255.54078269384541,111.16990136764382L271.294289857575,190.24264103651865L287.0477970213046,237.68632241699711L302.80130418503416,237.68632241699711L318.55481134876374,237.68632241699711" style="fill: none;" fill="none"></path></g><g><path stroke="rgb(0, 119, 187)" stroke-width="2px" d="M3.4846680741720633,232.4148127022644L19.23817523790165,221.87169932491503L34.99168240163123,190.24264103651865L50.74518956536082,221.87169932491503L66.49869672909041,184.97122526966984L82.25220389281999,195.5142446991353L98.00571105654957,216.6002835580662L113.75921822027917,190.24264103651865L129.51272538400875,206.0572641286008L145.26623254773833,163.8849985149711L161.0197397114679,174.4282058402044L176.7732468751975,179.6996216070532L192.52675403892707,206.0572641286008L208.28026120265665,242.95783213172982L224.03376836638625,169.15660217758776L239.78727553011583,216.6002835580662L255.54078269384541,211.32867989544957L271.294289857575,158.6135827481223L287.0477970213046,221.87169932491503L302.80130418503416,174.4282058402044L318.55481134876374,163.8849985149711L334.3083185124934,179.6996216070532L350.06182567622295,163.8849985149711L365.81533283995253,153.34197908550564L381.5688400036821,174.4282058402044L397.3223471674117,137.52754388919138L413.0758543311413,116.44150503026047L428.82936149487085,153.34197908550564L444.5828686586005,142.7989596560402L460.33637582233007,132.25594022657475" style="fill: none;" fill="none"></path></g><g><path stroke="rgb(238, 51, 119)" stroke-width="2px" d="M3.4846680741720633,248.22934184646257L19.23817523790165,237.68632241699711L34.99168240163123,221.87169932491503L50.74518956536082,211.32867989544957L66.49869672909041,169.15660217758776L82.25220389281999,216.6002835580662L98.00571105654957,211.32867989544957L113.75921822027917,206.0572641286008L129.51272538400875,221.87169932491503L145.26623254773833,179.6996216070532L161.0197397114679,206.0572641286008L176.7732468751975,206.0572641286008L192.52675403892707,216.6002835580662L208.28026120265665,216.6002835580662L224.03376836638625,206.0572641286008L239.78727553011583,206.0572641286008L255.54078269384541,216.6002835580662" style="fill: none;" fill="none"></path></g><g><path stroke="rgb(0, 119, 187)" stroke-width="2px" d="M3.4846680741720633,264.04396493854466L19.23817523790165,184.97122526966984L34.99168240163123,158.6135827481223L50.74518956536082,153.34197908550564L66.49869672909041,179.6996216070532L82.25220389281999,111.16990136764382L98.00571105654957,100.62688193817837L113.75921822027917,148.07056331865687L129.51272538400875,137.52754388919138L145.26623254773833,47.91159689508328L161.0197397114679,158.6135827481223L176.7732468751975,126.98452445972592L192.52675403892707,132.25594022657475L208.28026120265665,90.08386250871293L224.03376836638625,163.8849985149711L239.78727553011583,153.34197908550564L255.54078269384541,90.08386250871293L271.294289857575,84.81225884609627L287.0477970213046,184.97122526966984L302.80130418503416,126.98452445972592L318.55481134876374,121.71292079710926L334.3083185124934,132.25594022657475" style="fill: none;" fill="none"></path></g><g><path stroke="rgb(238, 51, 119)" stroke-width="2px" d="M3.4846680741720633,227.14330298753168L19.23817523790165,237.68632241699711L34.99168240163123,237.68632241699711L50.74518956536082,242.95783213172982L66.49869672909041,232.4148127022644L82.25220389281999,242.95783213172982L98.00571105654957,221.87169932491503L113.75921822027917,200.78566046598414L129.51272538400875,227.14330298753168L145.26623254773833,237.68632241699711L161.0197397114679,258.77245522381196L176.7732468751975,242.95783213172982L192.52675403892707,258.77245522381196L208.28026120265665,221.87169932491503L224.03376836638625,253.5008515611953L239.78727553011583,221.87169932491503L255.54078269384541,153.34197908550564L271.294289857575,206.0572641286008L287.0477970213046,174.4282058402044L302.80130418503416,121.71292079710926L318.55481134876374,137.52754388919138L334.3083185124934,179.6996216070532L350.06182567622295,163.8849985149711L365.81533283995253,90.08386250871293L381.5688400036821,153.34197908550564L397.3223471674117,190.24264103651865L413.0758543311413,195.5142446991353L428.82936149487085,184.97122526966984L444.5828686586005,163.8849985149711L460.33637582233007,153.34197908550564" style="fill: none;" fill="none"></path></g><g><path stroke="rgb(255, 112, 67)" stroke-width="2px" d="M3.4846680741720633,248.22934184646257L19.23817523790165,264.04396493854466L34.99168240163123,227.14330298753168L50.74518956536082,153.34197908550564L66.49869672909041,216.6002835580662L82.25220389281999,158.6135827481223L98.00571105654957,132.25594022657475L113.75921822027917,111.16990136764382L129.51272538400875,148.07056331865687L145.26623254773833,190.24264103651865L161.0197397114679,184.97122526966984L176.7732468751975,184.97122526966984L192.52675403892707,132.25594022657475L208.28026120265665,142.7989596560402L224.03376836638625,100.62688193817837L239.78727553011583,74.26923941663082L255.54078269384541,121.71292079710926L271.294289857575,111.16990136764382L287.0477970213046,126.98452445972592L302.80130418503416,100.62688193817837L318.55481134876374,126.98452445972592L334.3083185124934,121.71292079710926L350.06182567622295,79.54084307924748L365.81533283995253,153.34197908550564L381.5688400036821,116.44150503026047L397.3223471674117,100.62688193817837L413.0758543311413,116.44150503026047L428.82936149487085,68.99782364978203L444.5828686586005,21.554142269303554L460.33637582233007,163.8849985149711" style="fill: none;" fill="none"></path></g><g><path stroke="rgb(51, 187, 238)" stroke-width="2px" d="M3.4846680741720633,258.77245522381196L19.23817523790165,237.68632241699711L34.99168240163123,258.77245522381196L50.74518956536082,216.6002835580662L66.49869672909041,242.95783213172982L82.25220389281999,269.3154746532774L98.00571105654957,232.4148127022644L113.75921822027917,242.95783213172982L129.51272538400875,227.14330298753168L145.26623254773833,211.32867989544957L161.0197397114679,206.0572641286008L176.7732468751975,206.0572641286008L192.52675403892707,195.5142446991353L208.28026120265665,195.5142446991353L224.03376836638625,179.6996216070532L239.78727553011583,137.52754388919138L255.54078269384541,174.4282058402044L271.294289857575,158.6135827481223L287.0477970213046,200.78566046598414L302.80130418503416,169.15660217758776L318.55481134876374,179.6996216070532L334.3083185124934,184.97122526966984L350.06182567622295,184.97122526966984L365.81533283995253,206.0572641286008L381.5688400036821,206.0572641286008L397.3223471674117,179.6996216070532L413.0758543311413,206.0572641286008L428.82936149487085,221.87169932491503" style="fill: none;" fill="none"></path></g><g><path stroke="rgb(204, 51, 17)" stroke-width="2px" d="M3.4846680741720633,216.6002835580662L19.23817523790165,285.1300037974756L34.99168240163123,316.75915603375586L50.74518956536082,242.95783213172982L66.49869672909041,216.6002835580662L82.25220389281999,258.77245522381196L98.00571105654957,206.0572641286008L113.75921822027917,242.95783213172982L129.51272538400875,232.4148127022644L145.26623254773833,142.7989596560402L161.0197397114679,184.97122526966984L176.7732468751975,190.24264103651865L192.52675403892707,174.4282058402044L208.28026120265665,158.6135827481223L224.03376836638625,179.6996216070532L239.78727553011583,179.6996216070532L255.54078269384541,137.52754388919138L271.294289857575,158.6135827481223L287.0477970213046,163.8849985149711L302.80130418503416,158.6135827481223L318.55481134876374,169.15660217758776L334.3083185124934,132.25594022657475L350.06182567622295,153.34197908550564L365.81533283995253,132.25594022657475L381.5688400036821,132.25594022657475L397.3223471674117,132.25594022657475L413.0758543311413,137.52754388919138L428.82936149487085,95.35527827556172L444.5828686586005,121.71292079710926L460.33637582233007,195.5142446991353" style="fill: none;" fill="none"></path></g><g><path stroke="rgb(0, 153, 136)" stroke-width="2px" d="M3.4846680741720633,221.87169932491503L19.23817523790165,269.3154746532774L34.99168240163123,190.24264103651865L50.74518956536082,211.32867989544957L66.49869672909041,311.48755237113926L82.25220389281999,227.14330298753168L98.00571105654957,237.68632241699711L113.75921822027917,221.87169932491503L129.51272538400875,264.04396493854466L145.26623254773833,206.0572641286008L161.0197397114679,258.77245522381196L176.7732468751975,295.67302322694104L192.52675403892707,285.1300037974756L208.28026120265665,274.5869843680101L224.03376836638625,258.77245522381196" style="fill: none;" fill="none"></path></g><g><path stroke="rgb(0, 119, 187)" stroke-width="2px" d="M3.4846680741720633,227.14330298753168L19.23817523790165,216.6002835580662L34.99168240163123,216.6002835580662L50.74518956536082,211.32867989544957L66.49869672909041,190.24264103651865L82.25220389281999,195.5142446991353L98.00571105654957,206.0572641286008L113.75921822027917,216.6002835580662L129.51272538400875,174.4282058402044L145.26623254773833,179.6996216070532L161.0197397114679,184.97122526966984L176.7732468751975,216.6002835580662L192.52675403892707,158.6135827481223L208.28026120265665,184.97122526966984L224.03376836638625,116.44150503026047L239.78727553011583,111.16990136764382L255.54078269384541,179.6996216070532L271.294289857575,216.6002835580662L287.0477970213046,200.78566046598414L302.80130418503416,211.32867989544957L318.55481134876374,148.07056331865687L334.3083185124934,163.8849985149711L350.06182567622295,163.8849985149711L365.81533283995253,148.07056331865687L381.5688400036821,169.15660217758776L397.3223471674117,200.78566046598414L413.0758543311413,200.78566046598414L428.82936149487085,163.8849985149711" style="fill: none;" fill="none"></path></g><g><path stroke="rgb(238, 51, 119)" stroke-width="2px" d="M3.4846680741720633,200.78566046598414L19.23817523790165,216.6002835580662L34.99168240163123,311.48755237113926L50.74518956536082,306.2160426564065L66.49869672909041,248.22934184646257L82.25220389281999,237.68632241699711L98.00571105654957,285.1300037974756L113.75921822027917,237.68632241699711L129.51272538400875,269.3154746532774L145.26623254773833,290.4015135122083L161.0197397114679,253.5008515611953L176.7732468751975,264.04396493854466L192.52675403892707,216.6002835580662" style="fill: none;" fill="none"></path></g><g><path stroke="rgb(0, 119, 187)" stroke-width="2px" d="M3.4846680741720633,190.24264103651865L19.23817523790165,216.6002835580662L34.99168240163123,200.78566046598414L50.74518956536082,195.5142446991353L66.49869672909041,264.04396493854466L82.25220389281999,221.87169932491503L98.00571105654957,211.32867989544957L113.75921822027917,221.87169932491503L129.51272538400875,184.97122526966984L145.26623254773833,169.15660217758776L161.0197397114679,126.98452445972592L176.7732468751975,111.16990136764382L192.52675403892707,74.26923941663082L208.28026120265665,111.16990136764382L224.03376836638625,111.16990136764382L239.78727553011583,142.7989596560402L255.54078269384541,111.16990136764382L271.294289857575,179.6996216070532L287.0477970213046,132.25594022657475L302.80130418503416,174.4282058402044L318.55481134876374,126.98452445972592L334.3083185124934,111.16990136764382L350.06182567622295,95.35527827556172L365.81533283995253,105.89829770502716L381.5688400036821,95.35527827556172" style="fill: none;" fill="none"></path></g><g><path stroke="rgb(238, 51, 119)" stroke-width="2px" d="M3.4846680741720633,190.24264103651865L19.23817523790165,211.32867989544957L34.99168240163123,216.6002835580662L50.74518956536082,200.78566046598414L66.49869672909041,184.97122526966984L82.25220389281999,190.24264103651865L98.00571105654957,237.68632241699711L113.75921822027917,274.5869843680101L129.51272538400875,153.34197908550564L145.26623254773833,179.6996216070532L161.0197397114679,200.78566046598414L176.7732468751975,142.7989596560402L192.52675403892707,200.78566046598414L208.28026120265665,179.6996216070532L224.03376836638625,190.24264103651865L239.78727553011583,227.14330298753168L255.54078269384541,163.8849985149711L271.294289857575,206.0572641286008L287.0477970213046,216.6002835580662L302.80130418503416,227.14330298753168L318.55481134876374,211.32867989544957L334.3083185124934,237.68632241699711L350.06182567622295,158.6135827481223L365.81533283995253,211.32867989544957" style="fill: none;" fill="none"></path></g><g><path stroke="rgb(255, 112, 67)" stroke-width="2px" d="M3.4846680741720633,227.14330298753168L19.23817523790165,227.14330298753168L34.99168240163123,216.6002835580662L50.74518956536082,211.32867989544957L66.49869672909041,190.24264103651865L82.25220389281999,190.24264103651865L98.00571105654957,169.15660217758776L113.75921822027917,137.52754388919138L129.51272538400875,126.98452445972592L145.26623254773833,116.44150503026047L161.0197397114679,84.81225884609627L176.7732468751975,116.44150503026047L192.52675403892707,121.71292079710926L208.28026120265665,116.44150503026047L224.03376836638625,137.52754388919138L239.78727553011583,100.62688193817837L255.54078269384541,132.25594022657475L271.294289857575,206.0572641286008L287.0477970213046,169.15660217758776L302.80130418503416,153.34197908550564L318.55481134876374,90.08386250871293L334.3083185124934,132.25594022657475L350.06182567622295,132.25594022657475" style="fill: none;" fill="none"></path></g><g><path stroke="rgb(51, 187, 238)" stroke-width="2px" d="M3.4846680741720633,232.4148127022644L19.23817523790165,221.87169932491503L34.99168240163123,179.6996216070532L50.74518956536082,216.6002835580662L66.49869672909041,111.16990136764382L82.25220389281999,132.25594022657475L98.00571105654957,148.07056331865687L113.75921822027917,195.5142446991353L129.51272538400875,232.4148127022644L145.26623254773833,100.62688193817837L161.0197397114679,163.8849985149711L176.7732468751975,206.0572641286008L192.52675403892707,142.7989596560402L208.28026120265665,174.4282058402044L224.03376836638625,142.7989596560402L239.78727553011583,148.07056331865687L255.54078269384541,121.71292079710926L271.294289857575,142.7989596560402L287.0477970213046,169.15660217758776L302.80130418503416,200.78566046598414L318.55481134876374,248.22934184646257L334.3083185124934,221.87169932491503" style="fill: none;" fill="none"></path></g><g><path stroke="rgb(255, 112, 67)" stroke-width="2px" d="M3.4846680741720633,227.14330298753168L19.23817523790165,211.32867989544957L34.99168240163123,227.14330298753168L50.74518956536082,206.0572641286008L66.49869672909041,232.4148127022644L82.25220389281999,206.0572641286008L98.00571105654957,221.87169932491503L113.75921822027917,242.95783213172982L129.51272538400875,237.68632241699711L145.26623254773833,211.32867989544957L161.0197397114679,232.4148127022644L176.7732468751975,111.16990136764382L192.52675403892707,153.34197908550564L208.28026120265665,184.97122526966984L224.03376836638625,179.6996216070532L239.78727553011583,169.15660217758776L255.54078269384541,169.15660217758776L271.294289857575,153.34197908550564L287.0477970213046,216.6002835580662L302.80130418503416,211.32867989544957L318.55481134876374,200.78566046598414L334.3083185124934,242.95783213172982L350.06182567622295,148.07056331865687L365.81533283995253,111.16990136764382" style="fill: none;" fill="none"></path></g><g><path stroke="rgb(51, 187, 238)" stroke-width="2px" d="M3.4846680741720633,174.4282058402044L19.23817523790165,153.34197908550564L34.99168240163123,148.07056331865687L50.74518956536082,174.4282058402044L66.49869672909041,232.4148127022644L82.25220389281999,200.78566046598414L98.00571105654957,195.5142446991353L113.75921822027917,216.6002835580662L129.51272538400875,195.5142446991353L145.26623254773833,258.77245522381196L161.0197397114679,200.78566046598414L176.7732468751975,300.94453294167374L192.52675403892707,232.4148127022644L208.28026120265665,200.78566046598414L224.03376836638625,279.8584940827429" style="fill: none;" fill="none"></path></g><g><path stroke="rgb(187, 187, 187)" stroke-width="2px" d="M3.4846680741720633,153.34197908550564L19.23817523790165,216.6002835580662L34.99168240163123,158.6135827481223L50.74518956536082,132.25594022657475L66.49869672909041,169.15660217758776L82.25220389281999,179.6996216070532L98.00571105654957,111.16990136764382L113.75921822027917,142.7989596560402L129.51272538400875,105.89829770502716L145.26623254773833,111.16990136764382L161.0197397114679,132.25594022657475L176.7732468751975,190.24264103651865L192.52675403892707,126.98452445972592L208.28026120265665,200.78566046598414L224.03376836638625,200.78566046598414L239.78727553011583,126.98452445972592L255.54078269384541,121.71292079710926L271.294289857575,116.44150503026047L287.0477970213046,100.62688193817837L302.80130418503416,179.6996216070532L318.55481134876374,126.98452445972592L334.3083185124934,169.15660217758776L350.06182567622295,148.07056331865687L365.81533283995253,116.44150503026047L381.5688400036821,158.6135827481223L397.3223471674117,142.7989596560402L413.0758543311413,132.25594022657475L428.82936149487085,121.71292079710926L444.5828686586005,111.16990136764382L460.33637582233007,126.98452445972592" style="fill: none;" fill="none"></path></g><g><path stroke="rgb(204, 51, 17)" stroke-width="2px" d="M3.4846680741720633,216.6002835580662L19.23817523790165,216.6002835580662L34.99168240163123,211.32867989544957L50.74518956536082,179.6996216070532L66.49869672909041,116.44150503026047L82.25220389281999,121.71292079710926L98.00571105654957,169.15660217758776L113.75921822027917,142.7989596560402L129.51272538400875,200.78566046598414L145.26623254773833,126.98452445972592L161.0197397114679,142.7989596560402L176.7732468751975,158.6135827481223L192.52675403892707,211.32867989544957L208.28026120265665,227.14330298753168L224.03376836638625,132.25594022657475L239.78727553011583,163.8849985149711L255.54078269384541,163.8849985149711" style="fill: none;" fill="none"></path></g><g><path stroke="rgb(187, 187, 187)" stroke-width="2px" d="M3.4846680741720633,216.6002835580662L19.23817523790165,184.97122526966984L34.99168240163123,221.87169932491503L50.74518956536082,206.0572641286008L66.49869672909041,142.7989596560402L82.25220389281999,237.68632241699711L98.00571105654957,174.4282058402044L113.75921822027917,158.6135827481223L129.51272538400875,169.15660217758776L145.26623254773833,332.573685177954L161.0197397114679,221.87169932491503L176.7732468751975,227.14330298753168L192.52675403892707,200.78566046598414L208.28026120265665,290.4015135122083L224.03376836638625,242.95783213172982L239.78727553011583,258.77245522381196L255.54078269384541,306.2160426564065" style="fill: none;" fill="none"></path></g><g><path stroke="rgb(204, 51, 17)" stroke-width="2px" d="M3.4846680741720633,221.87169932491503L19.23817523790165,237.68632241699711L34.99168240163123,221.87169932491503L50.74518956536082,232.4148127022644L66.49869672909041,227.14330298753168L82.25220389281999,227.14330298753168L98.00571105654957,211.32867989544957L113.75921822027917,216.6002835580662L129.51272538400875,253.5008515611953L145.26623254773833,242.95783213172982L161.0197397114679,232.4148127022644L176.7732468751975,237.68632241699711L192.52675403892707,232.4148127022644L208.28026120265665,248.22934184646257L224.03376836638625,242.95783213172982L239.78727553011583,258.77245522381196L255.54078269384541,195.5142446991353L271.294289857575,216.6002835580662L287.0477970213046,227.14330298753168L302.80130418503416,216.6002835580662L318.55481134876374,216.6002835580662L334.3083185124934,221.87169932491503L350.06182567622295,195.5142446991353L365.81533283995253,206.0572641286008L381.5688400036821,206.0572641286008L397.3223471674117,206.0572641286008L413.0758543311413,211.32867989544957L428.82936149487085,227.14330298753168L444.5828686586005,195.5142446991353" style="fill: none;" fill="none"></path></g><g><path stroke="rgb(0, 153, 136)" stroke-width="2px" d="M3.4846680741720633,179.6996216070532L19.23817523790165,116.44150503026047L34.99168240163123,174.4282058402044L50.74518956536082,195.5142446991353L66.49869672909041,84.81225884609627L82.25220389281999,184.97122526966984L98.00571105654957,248.22934184646257L113.75921822027917,126.98452445972592L129.51272538400875,153.34197908550564L145.26623254773833,105.89829770502716L161.0197397114679,163.8849985149711L176.7732468751975,148.07056331865687L192.52675403892707,158.6135827481223L208.28026120265665,79.54084307924748L224.03376836638625,148.07056331865687L239.78727553011583,142.7989596560402L255.54078269384541,153.34197908550564L271.294289857575,148.07056331865687L287.0477970213046,105.89829770502716L302.80130418503416,137.52754388919138L318.55481134876374,148.07056331865687L334.3083185124934,105.89829770502716L350.06182567622295,79.54084307924748L365.81533283995253,148.07056331865687L381.5688400036821,169.15660217758776L397.3223471674117,116.44150503026047" style="fill: none;" fill="none"></path></g><g><path stroke="rgb(0, 119, 187)" stroke-width="2px" d="M3.4846680741720633,242.95783213172982L19.23817523790165,248.22934184646257L34.99168240163123,232.4148127022644L50.74518956536082,258.77245522381196L66.49869672909041,237.68632241699711L82.25220389281999,190.24264103651865L98.00571105654957,216.6002835580662L113.75921822027917,206.0572641286008L129.51272538400875,206.0572641286008L145.26623254773833,221.87169932491503L161.0197397114679,179.6996216070532L176.7732468751975,200.78566046598414L192.52675403892707,158.6135827481223L208.28026120265665,174.4282058402044L224.03376836638625,200.78566046598414L239.78727553011583,174.4282058402044L255.54078269384541,169.15660217758776L271.294289857575,169.15660217758776L287.0477970213046,221.87169932491503L302.80130418503416,158.6135827481223L318.55481134876374,190.24264103651865L334.3083185124934,179.6996216070532L350.06182567622295,158.6135827481223L365.81533283995253,126.98452445972592L381.5688400036821,137.52754388919138L397.3223471674117,116.44150503026047L413.0758543311413,126.98452445972592L428.82936149487085,163.8849985149711L444.5828686586005,169.15660217758776L460.33637582233007,184.97122526966984" style="fill: none;" fill="none"></path></g></g></g></g></g></g><g transform="translate(50, 377)" clip-path="url(#clip_1)"><clipPath id="clip_1"><rect width="489" height="23"></rect></clipPath><g><g><line x1="3.4846680741720633" y1="0" x2="3.4846680741720633" y2="5" style="visibility: inherit;" fill="rgb(0, 0, 0)" stroke="rgb(204, 204, 204)" stroke-width="1px"></line><line x1="34.99168240163123" y1="0" x2="34.99168240163123" y2="5" style="visibility: inherit;" fill="rgb(0, 0, 0)" stroke="rgb(204, 204, 204)" stroke-width="1px"></line><line x1="66.49869672909041" y1="0" x2="66.49869672909041" y2="5" style="visibility: inherit;" fill="rgb(0, 0, 0)" stroke="rgb(204, 204, 204)" stroke-width="1px"></line><line x1="98.00571105654957" y1="0" x2="98.00571105654957" y2="5" style="visibility: inherit;" fill="rgb(0, 0, 0)" stroke="rgb(204, 204, 204)" stroke-width="1px"></line><line x1="129.51272538400875" y1="0" x2="129.51272538400875" y2="5" style="visibility: inherit;" fill="rgb(0, 0, 0)" stroke="rgb(204, 204, 204)" stroke-width="1px"></line><line x1="161.0197397114679" y1="0" x2="161.0197397114679" y2="5" style="visibility: inherit;" fill="rgb(0, 0, 0)" stroke="rgb(204, 204, 204)" stroke-width="1px"></line><line x1="192.52675403892707" y1="0" x2="192.52675403892707" y2="5" style="visibility: inherit;" fill="rgb(0, 0, 0)" stroke="rgb(204, 204, 204)" stroke-width="1px"></line><line x1="224.03376836638625" y1="0" x2="224.03376836638625" y2="5" style="visibility: inherit;" fill="rgb(0, 0, 0)" stroke="rgb(204, 204, 204)" stroke-width="1px"></line><line x1="255.54078269384541" y1="0" x2="255.54078269384541" y2="5" style="visibility: inherit;" fill="rgb(0, 0, 0)" stroke="rgb(204, 204, 204)" stroke-width="1px"></line><line x1="287.0477970213046" y1="0" x2="287.0477970213046" y2="5" style="visibility: inherit;" fill="rgb(0, 0, 0)" stroke="rgb(204, 204, 204)" stroke-width="1px"></line><line x1="318.55481134876374" y1="0" x2="318.55481134876374" y2="5" style="visibility: inherit;" fill="rgb(0, 0, 0)" stroke="rgb(204, 204, 204)" stroke-width="1px"></line><line x1="350.06182567622295" y1="0" x2="350.06182567622295" y2="5" style="visibility: inherit;" fill="rgb(0, 0, 0)" stroke="rgb(204, 204, 204)" stroke-width="1px"></line><line x1="381.5688400036821" y1="0" x2="381.5688400036821" y2="5" style="visibility: inherit;" fill="rgb(0, 0, 0)" stroke="rgb(204, 204, 204)" stroke-width="1px"></line><line x1="413.0758543311413" y1="0" x2="413.0758543311413" y2="5" style="visibility: inherit;" fill="rgb(0, 0, 0)" stroke="rgb(204, 204, 204)" stroke-width="1px"></line><line x1="444.5828686586005" y1="0" x2="444.5828686586005" y2="5" style="visibility: inherit;" fill="rgb(0, 0, 0)" stroke="rgb(204, 204, 204)" stroke-width="1px"></line><line x1="476.08988298605965" y1="0" x2="476.08988298605965" y2="5" style="visibility: inherit;" fill="rgb(0, 0, 0)" stroke="rgb(204, 204, 204)" stroke-width="1px"></line></g><g transform="translate(0, 8)"><text x="3.4846680741720633" y="0" dx="0em" dy="0.95em" style="text-anchor: middle; visibility: inherit; font-family: Roboto, sans-serif; font-size: 12px; font-weight: 200;" fill="rgb(33, 33, 33)" stroke="none" stroke-width="1px">0</text><text x="34.99168240163123" y="0" dx="0em" dy="0.95em" style="text-anchor: middle; visibility: inherit; font-family: Roboto, sans-serif; font-size: 12px; font-weight: 200;" fill="rgb(33, 33, 33)" stroke="none" stroke-width="1px">2</text><text x="66.49869672909041" y="0" dx="0em" dy="0.95em" style="text-anchor: middle; visibility: inherit; font-family: Roboto, sans-serif; font-size: 12px; font-weight: 200;" fill="rgb(33, 33, 33)" stroke="none" stroke-width="1px">4</text><text x="98.00571105654957" y="0" dx="0em" dy="0.95em" style="text-anchor: middle; visibility: inherit; font-family: Roboto, sans-serif; font-size: 12px; font-weight: 200;" fill="rgb(33, 33, 33)" stroke="none" stroke-width="1px">6</text><text x="129.51272538400875" y="0" dx="0em" dy="0.95em" style="text-anchor: middle; visibility: inherit; font-family: Roboto, sans-serif; font-size: 12px; font-weight: 200;" fill="rgb(33, 33, 33)" stroke="none" stroke-width="1px">8</text><text x="161.0197397114679" y="0" dx="0em" dy="0.95em" style="text-anchor: middle; visibility: inherit; font-family: Roboto, sans-serif; font-size: 12px; font-weight: 200;" fill="rgb(33, 33, 33)" stroke="none" stroke-width="1px">10</text><text x="192.52675403892707" y="0" dx="0em" dy="0.95em" style="text-anchor: middle; visibility: inherit; font-family: Roboto, sans-serif; font-size: 12px; font-weight: 200;" fill="rgb(33, 33, 33)" stroke="none" stroke-width="1px">12</text><text x="224.03376836638625" y="0" dx="0em" dy="0.95em" style="text-anchor: middle; visibility: inherit; font-family: Roboto, sans-serif; font-size: 12px; font-weight: 200;" fill="rgb(33, 33, 33)" stroke="none" stroke-width="1px">14</text><text x="255.54078269384541" y="0" dx="0em" dy="0.95em" style="text-anchor: middle; visibility: inherit; font-family: Roboto, sans-serif; font-size: 12px; font-weight: 200;" fill="rgb(33, 33, 33)" stroke="none" stroke-width="1px">16</text><text x="287.0477970213046" y="0" dx="0em" dy="0.95em" style="text-anchor: middle; visibility: inherit; font-family: Roboto, sans-serif; font-size: 12px; font-weight: 200;" fill="rgb(33, 33, 33)" stroke="none" stroke-width="1px">18</text><text x="318.55481134876374" y="0" dx="0em" dy="0.95em" style="text-anchor: middle; visibility: inherit; font-family: Roboto, sans-serif; font-size: 12px; font-weight: 200;" fill="rgb(33, 33, 33)" stroke="none" stroke-width="1px">20</text><text x="350.06182567622295" y="0" dx="0em" dy="0.95em" style="text-anchor: middle; visibility: inherit; font-family: Roboto, sans-serif; font-size: 12px; font-weight: 200;" fill="rgb(33, 33, 33)" stroke="none" stroke-width="1px">22</text><text x="381.5688400036821" y="0" dx="0em" dy="0.95em" style="text-anchor: middle; visibility: inherit; font-family: Roboto, sans-serif; font-size: 12px; font-weight: 200;" fill="rgb(33, 33, 33)" stroke="none" stroke-width="1px">24</text><text x="413.0758543311413" y="0" dx="0em" dy="0.95em" style="text-anchor: middle; visibility: inherit; font-family: Roboto, sans-serif; font-size: 12px; font-weight: 200;" fill="rgb(33, 33, 33)" stroke="none" stroke-width="1px">26</text><text x="444.5828686586005" y="0" dx="0em" dy="0.95em" style="text-anchor: middle; visibility: inherit; font-family: Roboto, sans-serif; font-size: 12px; font-weight: 200;" fill="rgb(33, 33, 33)" stroke="none" stroke-width="1px">28</text><text x="476.08988298605965" y="0" dx="0em" dy="0.95em" style="text-anchor: middle; visibility: inherit; font-family: Roboto, sans-serif; font-size: 12px; font-weight: 200;" fill="rgb(33, 33, 33)" stroke="none" stroke-width="1px">30</text></g><line x1="0" y1="0" x2="489" y2="0" fill="rgb(0, 0, 0)" stroke="rgb(204, 204, 204)" stroke-width="1px"></line></g></g></g></g></svg>