<svg viewBox="0 0 539 400" xmlns="http://www.w3.org/2000/svg"><g><g><g><g><g><line x1="60" y1="368.19568159825246" x2="55" y2="368.19568159825246" style="visibility: inherit;" fill="rgb(0, 0, 0)" stroke="rgb(204, 204, 204)" stroke-width="1px"></line><line x1="60" y1="318.72680848429525" x2="55" y2="318.72680848429525" style="visibility: inherit;" fill="rgb(0, 0, 0)" stroke="rgb(204, 204, 204)" stroke-width="1px"></line><line x1="60" y1="269.2579353703381" x2="55" y2="269.2579353703381" style="visibility: inherit;" fill="rgb(0, 0, 0)" stroke="rgb(204, 204, 204)" stroke-width="1px"></line><line x1="60" y1="219.78906225638093" x2="55" y2="219.78906225638093" style="visibility: inherit;" fill="rgb(0, 0, 0)" stroke="rgb(204, 204, 204)" stroke-width="1px"></line><line x1="60" y1="170.32018914242374" x2="55" y2="170.32018914242374" style="visibility: inherit;" fill="rgb(0, 0, 0)" stroke="rgb(204, 204, 204)" stroke-width="1px"></line><line x1="60" y1="120.85131602846658" x2="55" y2="120.85131602846658" style="visibility: inherit;" fill="rgb(0, 0, 0)" stroke="rgb(204, 204, 204)" stroke-width="1px"></line><line x1="60" y1="71.38244291450938" x2="55" y2="71.38244291450938" style="visibility: inherit;" fill="rgb(0, 0, 0)" stroke="rgb(204, 204, 204)" stroke-width="1px"></line><line x1="60" y1="21.91356980055223" x2="55" y2="21.91356980055223" style="visibility: inherit;" fill="rgb(0, 0, 0)" stroke="rgb(204, 204, 204)" stroke-width="1px"></line></g><g transform="translate(50, 0)"><text x="0" y="368.19568159825246" dx="0em" dy="0.3em" style="text-anchor: end; visibility: inherit; font-family: Roboto, sans-serif; font-size: 12px; font-weight: 200;" fill="rgb(33, 33, 33)" stroke="none" stroke-width="1px">0.688</text><text x="0" y="318.72680848429525" dx="0em" dy="0.3em" style="text-anchor: end; visibility: inherit; font-family: Roboto, sans-serif; font-size: 12px; font-weight: 200;" fill="rgb(33, 33, 33)" stroke="none" stroke-width="1px">0.69</text><text x="0" y="269.2579353703381" dx="0em" dy="0.3em" style="text-anchor: end; visibility: inherit; font-family: Roboto, sans-serif; font-size: 12px; font-weight: 200;" fill="rgb(33, 33, 33)" stroke="none" stroke-width="1px">0.692</text><text x="0" y="219.78906225638093" dx="0em" dy="0.3em" style="text-anchor: end; visibility: inherit; font-family: Roboto, sans-serif; font-size: 12px; font-weight: 200;" fill="rgb(33, 33, 33)" stroke="none" stroke-width="1px">0.694</text><text x="0" y="170.32018914242374" dx="0em" dy="0.3em" style="text-anchor: end; visibility: inherit; font-family: Roboto, sans-serif; font-size: 12px; font-weight: 200;" fill="rgb(33, 33, 33)" stroke="none" stroke-width="1px">0.696</text><text x="0" y="120.85131602846658" dx="0em" dy="0.3em" style="text-anchor: end; visibility: inherit; font-family: Roboto, sans-serif; font-size: 12px; font-weight: 200;" fill="rgb(33, 33, 33)" stroke="none" stroke-width="1px">0.698</text><text x="0" y="71.38244291450938" dx="0em" dy="0.3em" style="text-anchor: end; visibility: inherit; font-family: Roboto, sans-serif; font-size: 12px; font-weight: 200;" fill="rgb(33, 33, 33)" stroke="none" stroke-width="1px">0.7</text><text x="0" y="21.91356980055223" dx="0em" dy="0.3em" style="text-anchor: end; visibility: inherit; font-family: Roboto, sans-serif; font-size: 12px; font-weight: 200;" fill="rgb(33, 33, 33)" stroke="none" stroke-width="1px">0.702</text></g><line x1="60" y1="0" x2="60" y2="377" fill="rgb(0, 0, 0)" stroke="rgb(204, 204, 204)" stroke-width="1px"></line></g></g><g transform="translate(60, 0)" clip-path="url(#clip_0)"><clipPath id="clip_0"><rect width="479" height="377"></rect></clipPath><g><g><g><line x1="2.8307488970758126" y1="0" x2="2.8307488970758126" y2="377" fill="rgb(0, 0, 0)" stroke="rgb(66, 66, 66)" stroke-width="1px" opacity="0.25"></line><line x1="33.80361325232852" y1="0" x2="33.80361325232852" y2="377" fill="rgb(0, 0, 0)" stroke="rgb(66, 66, 66)" stroke-width="1px" opacity="0.25"></line><line x1="64.77647760758123" y1="0" x2="64.77647760758123" y2="377" fill="rgb(0, 0, 0)" stroke="rgb(66, 66, 66)" stroke-width="1px" opacity="0.25"></line><line x1="95.74934196283392" y1="0" x2="95.74934196283392" y2="377" fill="rgb(0, 0, 0)" stroke="rgb(66, 66, 66)" stroke-width="1px" opacity="0.25"></line><line x1="126.72220631808665" y1="0" x2="126.72220631808665" y2="377" fill="rgb(0, 0, 0)" stroke="rgb(66, 66, 66)" stroke-width="1px" opacity="0.25"></line><line x1="157.69507067333933" y1="0" x2="157.69507067333933" y2="377" fill="rgb(0, 0, 0)" stroke="rgb(66, 66, 66)" stroke-width="1px" opacity="0.25"></line><line x1="188.66793502859207" y1="0" x2="188.66793502859207" y2="377" fill="rgb(0, 0, 0)" stroke="rgb(66, 66, 66)" stroke-width="1px" opacity="0.25"></line><line x1="219.64079938384475" y1="0" x2="219.64079938384475" y2="377" fill="rgb(0, 0, 0)" stroke="rgb(66, 66, 66)" stroke-width="1px" opacity="0.25"></line><line x1="250.61366373909743" y1="0" x2="250.61366373909743" y2="377" fill="rgb(0, 0, 0)" stroke="rgb(66, 66, 66)" stroke-width="1px" opacity="0.25"></line><line x1="281.5865280943501" y1="0" x2="281.5865280943501" y2="377" fill="rgb(0, 0, 0)" stroke="rgb(66, 66, 66)" stroke-width="1px" opacity="0.25"></line><line x1="312.55939244960285" y1="0" x2="312.55939244960285" y2="377" fill="rgb(0, 0, 0)" stroke="rgb(66, 66, 66)" stroke-width="1px" opacity="0.25"></line><line x1="343.53225680485554" y1="0" x2="343.53225680485554" y2="377" fill="rgb(0, 0, 0)" stroke="rgb(66, 66, 66)" stroke-width="1px" opacity="0.25"></line><line x1="374.5051211601083" y1="0" x2="374.5051211601083" y2="377" fill="rgb(0, 0, 0)" stroke="rgb(66, 66, 66)" stroke-width="1px" opacity="0.25"></line><line x1="405.47798551536096" y1="0" x2="405.47798551536096" y2="377" fill="rgb(0, 0, 0)" stroke="rgb(66, 66, 66)" stroke-width="1px" opacity="0.25"></line><line x1="436.4508498706137" y1="0" x2="436.4508498706137" y2="377" fill="rgb(0, 0, 0)" stroke="rgb(66, 66, 66)" stroke-width="1px" opacity="0.25"></line><line x1="467.4237142258664" y1="0" x2="467.4237142258664" y2="377" fill="rgb(0, 0, 0)" stroke="rgb(66, 66, 66)" stroke-width="1px" opacity="0.25"></line></g><g><line x1="0" y1="368.19568159825246" x2="479" y2="368.19568159825246" fill="rgb(0, 0, 0)" stroke="rgb(66, 66, 66)" stroke-width="1px" opacity="0.25"></line><line x1="0" y1="318.72680848429525" x2="479" y2="318.72680848429525" fill="rgb(0, 0, 0)" stroke="rgb(66, 66, 66)" stroke-width="1px" opacity="0.25"></line><line x1="0" y1="269.2579353703381" x2="479" y2="269.2579353703381" fill="rgb(0, 0, 0)" stroke="rgb(66, 66, 66)" stroke-width="1px" opacity="0.25"></line><line x1="0" y1="219.78906225638093" x2="479" y2="219.78906225638093" fill="rgb(0, 0, 0)" stroke="rgb(66, 66, 66)" stroke-width="1px" opacity="0.25"></line><line x1="0" y1="170.32018914242374" x2="479" y2="170.32018914242374" fill="rgb(0, 0, 0)" stroke="rgb(66, 66, 66)" stroke-width="1px" opacity="0.25"></line><line x1="0" y1="120.85131602846658" x2="479" y2="120.85131602846658" fill="rgb(0, 0, 0)" stroke="rgb(66, 66, 66)" stroke-width="1px" opacity="0.25"></line><line x1="0" y1="71.38244291450938" x2="479" y2="71.38244291450938" fill="rgb(0, 0, 0)" stroke="rgb(66, 66, 66)" stroke-width="1px" opacity="0.25"></line><line x1="0" y1="21.91356980055223" x2="479" y2="21.91356980055223" fill="rgb(0, 0, 0)" stroke="rgb(66, 66, 66)" stroke-width="1px" opacity="0.25"></line></g></g></g><g><g><line x1="0" y1="17385.4880327995" x2="479" y2="17385.4880327995" fill="rgb(0, 0, 0)" stroke="rgb(153, 153, 153)" stroke-width="1.5px"></line></g></g><g><g><line x1="2.8307488970758126" y1="0" x2="2.8307488970758126" y2="377" fill="rgb(0, 0, 0)" stroke="rgb(153, 153, 153)" stroke-width="1.5px"></line></g></g><g><g><g><g><g><path style="fill: none;" stroke="rgb(0, 119, 187)" stroke-width="2px" d="M2.8307488970758126,260.68122769521085L18.317181074702166,235.6846864440538L33.80361325232852,252.88372214066234L49.290045429954866,284.2211730893261L64.77647760758123,268.75737355034727L80.26290978520758,277.09889112032937L95.74934196283392,254.85631855434846L111.2357741404603,248.08049410195582L126.72220631808665,249.29972970294116L142.208638495713,247.8475567078135L157.69507067333933,248.1453627433625L173.1815028509657,252.8925678644905L188.66793502859207,254.10148345434303L204.1543672062184,255.38706198403978L219.64079938384475,258.4860138985153L235.1272315614711,252.289584356869L250.61366373909743,251.400589112136L266.1000959167238,257.5292014377662L281.5865280943501,258.3872366491005L297.0729602719765,252.10382415647706L312.55939244960285,247.4436019863262L328.0458246272292,250.08257626173585" fill="none"></path></g><g><path style="fill: none;" stroke="rgb(238, 51, 119)" stroke-width="2px" d="M2.8307488970758126,53.01459224273506L18.317181074702166,142.5657517047097L33.80361325232852,184.93529455442965L49.290045429954866,200.73670588618432L64.77647760758123,211.6331633552083L80.26290978520758,215.5414989999631L95.74934196283392,210.52597358938002L111.2357741404603,212.20076396751708L126.72220631808665,240.22991420443822L142.208638495713,238.80280409349038L157.69507067333933,234.47134799228724L173.1815028509657,247.50109919120945L188.66793502859207,246.26417214256767L204.1543672062184,247.01016151874495L219.64079938384475,252.90878502484222L235.1272315614711,242.78485410348006L250.61366373909743,241.9739960858961L266.1000959167238,246.75216124042277L281.5865280943501,240.72380045151206L297.0729602719765,246.41897230956098L312.55939244960285,241.40934404819671L328.0458246272292,241.19557238901547L343.53225680485554,248.55079175215448L359.0186889824819,244.53630742146143L374.5051211601083,245.48427415838236L389.9915533377346,244.94615929216752L405.47798551536096,240.59701174330803L420.96441769298735,241.87227026187193L436.4508498706137,245.9000231783072L451.93728204824004,250.24327357794797" fill="none"></path></g><g><path stroke="rgb(255, 112, 67)" stroke-width="2px" d="M2.8307488970758126,251.62025792053603L18.317181074702166,259.80107817430604L33.80361325232852,282.4417083125554L49.290045429954866,290.8009173301939L64.77647760758123,289.0524125868219L80.26290978520758,282.86040590708967L95.74934196283392,304.41596058908124L111.2357741404603,317.35430597511214L126.72220631808665,294.89501317534064L142.208638495713,281.3374671213365L157.69507067333933,289.2470185110421L173.1815028509657,267.8978640517082L188.66793502859207,277.56771448322337L204.1543672062184,258.6968369830871L219.64079938384475,274.4599168449197" style="fill: none;" fill="none"></path></g><g><path stroke="rgb(51, 187, 238)" stroke-width="2px" d="M2.8307488970758126,97.45108589364179L18.317181074702166,139.55967989043017L33.80361325232852,153.47547775947595L49.290045429954866,230.56890949675127L64.77647760758123,247.60577358984298L80.26290978520758,259.9603012032135L95.74934196283392,239.83333091947438L111.2357741404603,258.0098190990978L126.72220631808665,245.98995470389383L142.208638495713,238.28827782415073L157.69507067333933,267.1636689739686L173.1815028509657,265.1424210792274L188.66793502859207,267.8418411341297L204.1543672062184,278.5717041377228L219.64079938384475,287.3142278545828L235.1272315614711,297.29662719469394L250.61366373909743,293.4796973628304" style="fill: none;" fill="none"></path></g><g><path style="fill: none;" stroke="rgb(255, 112, 67)" stroke-width="2px" d="M2.8307488970758126,238.88241560794407L18.317181074702166,240.2402342155711L33.80361325232852,237.63369426086476L49.290045429954866,251.51263494729307L64.77647760758123,246.97920148534627L80.26290978520758,245.34421686443608L95.74934196283392,262.2321779397532L111.2357741404603,263.0916874383923L126.72220631808665,259.8408839315329L142.208638495713,256.98518942233255L157.69507067333933,266.4250510343148L173.1815028509657,253.08864807601537L188.66793502859207,254.62338116020615L204.1543672062184,251.8148638447562L219.64079938384475,241.7823387362853L235.1272315614711,241.93271604136453L250.61366373909743,242.39564225503975L266.1000959167238,250.98189151760175L281.5865280943501,250.28013076056544L297.0729602719765,248.28247146269945" fill="none"></path></g><g><path style="fill: none;" stroke="rgb(51, 187, 238)" stroke-width="2px" d="M2.8307488970758126,207.27369579521587L18.317181074702166,210.39623630656655L33.80361325232852,221.39147102500533L49.290045429954866,218.7097424177594L64.77647760758123,215.94692800875507L80.26290978520758,216.99956914430953L95.74934196283392,213.680948421434L111.2357741404603,212.99245625014L126.72220631808665,226.20354478754L142.208638495713,229.87599446354315L157.69507067333933,238.32218643215876L173.1815028509657,245.63907432537567L188.66793502859207,244.25619283356883L204.1543672062184,239.83038234486497L219.64079938384475,244.57463889138361L235.1272315614711,242.28801928179678L250.61366373909743,239.09766155442998L266.1000959167238,241.21326383667187L281.5865280943501,240.2181199060006L297.0729602719765,243.0030486245754L312.55939244960285,239.60629067455085L328.0458246272292,244.39772441481983L343.53225680485554,243.12541447086537L359.0186889824819,243.40995192067209L374.5051211601083,243.19912883610027" fill="none"></path></g><g><path stroke="rgb(187, 187, 187)" stroke-width="2px" d="M2.8307488970758126,221.78510573535968L18.317181074702166,242.84529988297268L33.80361325232852,211.8513578763036L49.290045429954866,243.60160927028284L64.77647760758123,264.1974029169159L80.26290978520758,266.0638506446638L95.74934196283392,286.45176978133435L111.2357741404603,294.4247155251419L126.72220631808665,304.934909720335L142.208638495713,287.60613674091303L157.69507067333933,296.6228778964469L173.1815028509657,307.5237582273849L188.66793502859207,302.8576389080153L204.1543672062184,288.7324922417024L219.64079938384475,272.69372065389126L235.1272315614711,283.0668061297475L250.61366373909743,270.2198665566078L266.1000959167238,263.78165389699103L281.5865280943501,250.072256250603L297.0729602719765,291.0898776419147" style="fill: none;" fill="none"></path></g><g><path style="fill: none;" stroke="rgb(204, 51, 17)" stroke-width="2px" d="M2.8307488970758126,122.16751255690619L18.317181074702166,5.197557802155504L33.80361325232852,15.224185761407552L49.290045429954866,42.90982705633401L64.77647760758123,84.00853424940412L80.26290978520758,95.72911832175437L95.74934196283392,199.8727735256312L111.2357741404603,226.16668760492257L126.72220631808665,231.67315068797015L142.208638495713,246.43076660799858L157.69507067333933,236.71816184464723L173.1815028509657,257.3626069723353L188.66793502859207,257.09870954479436L204.1543672062184,269.9869291624655L219.64079938384475,252.4620759715187L235.1272315614711,270.20364939625614L250.61366373909743,272.4416175247879L266.1000959167238,273.01511528631545L281.5865280943501,265.8780904442718L297.0729602719765,264.9257008454368L312.55939244960285,262.3560180733479L328.0458246272292,272.66128633318795" fill="none"></path></g><g><path style="fill: none;" stroke="rgb(187, 187, 187)" stroke-width="2px" d="M2.8307488970758126,244.54810171989905L18.317181074702166,278.3918410865496L33.80361325232852,285.7765461957826L49.290045429954866,282.16601658657686L64.77647760758123,281.44214151997005L80.26290978520758,269.0610767351151L95.74934196283392,271.8563254648227L111.2357741404603,276.5607762541145L126.72220631808665,279.3943564537443L142.208638495713,264.5910376272703L157.69507067333933,258.9076600676589L173.1815028509657,268.36079026538346L188.66793502859207,276.1804101295024L204.1543672062184,280.7860836693794L219.64079938384475,270.20364939625614L235.1272315614711,268.42565890679015L250.61366373909743,275.1159746955103L266.1000959167238,276.3529017441521L281.5865280943501,274.804900074219L297.0729602719765,277.95840061896837L312.55939244960285,276.382387490246L328.0458246272292,273.29375558690344L343.53225680485554,264.49815752707434L359.0186889824819,264.99794092336697" fill="none"></path></g><g><path style="fill: none;" stroke="rgb(204, 51, 17)" stroke-width="2px" d="M2.8307488970758126,201.28366647622732L18.317181074702166,231.49623621140637L33.80361325232852,238.43423226731585L49.290045429954866,247.92274536035308L64.77647760758123,249.63881578302173L80.26290978520758,263.91876261632797L95.74934196283392,267.5174979270961L111.2357741404603,266.62850268236315L126.72220631808665,266.61375980931615L142.208638495713,266.0697477938825L157.69507067333933,265.68348452005165L173.1815028509657,264.95076372961665L188.66793502859207,252.32496725218175L204.1543672062184,254.4214037994625L219.64079938384475,252.53431604944888L235.1272315614711,249.5901643019667L250.61366373909743,251.32982332151047L266.1000959167238,252.49451029222203L281.5865280943501,252.40900162854953L297.0729602719765,256.2583657811164L312.55939244960285,250.1164848697439L328.0458246272292,251.71461230803675L343.53225680485554,249.6535586560687L359.0186889824819,249.168518132823L374.5051211601083,247.64557934706988L389.9915533377346,244.80757628552593L405.47798551536096,241.83541307925447L420.96441769298735,243.55443207653252L436.4508498706137,241.28697820190678L451.93728204824004,240.65450894819122" fill="none"></path></g><g><path style="fill: none;" stroke="rgb(0, 153, 136)" stroke-width="2px" d="M2.8307488970758126,233.28749528661464L18.317181074702166,257.32722407702255L33.80361325232852,255.07303878813912L49.290045429954866,274.4967740275371L64.77647760758123,229.7890115125659L80.26290978520758,246.69761261014895L95.74934196283392,265.6171415913402L111.2357741404603,234.5804452528349L126.72220631808665,237.63959141008354L142.208638495713,260.56475899813967L157.69507067333933,241.83688736655913L173.1815028509657,257.51445856471923L188.66793502859207,239.43527334720588L204.1543672062184,254.00418049223293L219.64079938384475,255.44308490161833L235.1272315614711,240.22991420443822L250.61366373909743,252.98987082660062L266.1000959167238,263.8067167811709L281.5865280943501,257.04121233991106L297.0729602719765,255.36937053638343L312.55939244960285,263.1654018036272L328.0458246272292,267.762229619676L343.53225680485554,256.7065491217446L359.0186889824819,241.7145215202692L374.5051211601083,255.27354186157802L389.9915533377346,241.85900167612962L405.47798551536096,250.0604619521654L420.96441769298735,255.66275371001834L436.4508498706137,235.43553188955983" fill="none"></path></g><g><path style="fill: none;" stroke="rgb(0, 119, 187)" stroke-width="2px" d="M2.8307488970758126,182.57053771769378L18.317181074702166,215.38817312027447L33.80361325232852,206.79750099579837L49.290045429954866,152.8901856995108L64.77647760758123,170.94725660745365L80.26290978520758,154.03718122256592L95.74934196283392,197.66871400510752L111.2357741404603,158.24184861556506L126.72220631808665,172.2490522975021L142.208638495713,166.52144611874982L157.69507067333933,163.1792367989991L173.1815028509657,203.37273158698457L188.66793502859207,187.61997173628492L204.1543672062184,209.21090931358927L219.64079938384475,216.77842604860479L235.1272315614711,227.8989751879429L250.61366373909743,220.9948877400415L266.1000959167238,215.5385504253537L281.5865280943501,217.9814444892385" fill="none"></path></g><g><path style="fill: none;" stroke="rgb(0, 153, 136)" stroke-width="2px" d="M2.8307488970758126,253.96584902231078L18.317181074702166,244.45964448161712L33.80361325232852,247.9890882890645L49.290045429954866,242.71261402554987L64.77647760758123,265.0967181727818L80.26290978520758,264.0720884960166L95.74934196283392,257.39798986764805L111.2357741404603,248.777831997078L126.72220631808665,246.35410366815427L142.208638495713,265.43285567825296L157.69507067333933,264.06913992140716L173.1815028509657,260.39669024540405L188.66793502859207,260.93775368622835L204.1543672062184,247.69570511542955L219.64079938384475,248.53310030449813L235.1272315614711,244.13530127458355L250.61366373909743,240.53214310190128L266.1000959167238,237.6720257307869L281.5865280943501,240.6073317544409L297.0729602719765,244.38740440368696L312.55939244960285,241.8088759077699L328.0458246272292,257.40683559147624L343.53225680485554,263.71678525558434" fill="none"></path></g><g><path style="fill: none;" stroke="rgb(0, 119, 187)" stroke-width="2px" d="M2.8307488970758126,212.1078838673211L18.317181074702166,230.057331802021L33.80361325232852,235.55347487393567L49.290045429954866,240.80046339135637L64.77647760758123,242.38384795660218L80.26290978520758,248.68937475879613L95.74934196283392,249.54298710821635L111.2357741404603,252.07581269768778L126.72220631808665,256.06818271881036L142.208638495713,246.76690411346976L157.69507067333933,245.82925738768174L173.1815028509657,243.2315631568036L188.66793502859207,245.5240799156092L204.1543672062184,249.56952427970094L219.64079938384475,248.49624312188067L235.1272315614711,243.7991637691124L250.61366373909743,244.4906045150158L266.1000959167238,248.4431687789115L281.5865280943501,252.87929927874825L297.0729602719765,253.7078487439886L312.55939244960285,251.13079453537622L328.0458246272292,249.8245759834137" fill="none"></path></g><g><path style="fill: none;" stroke="rgb(238, 51, 119)" stroke-width="2px" d="M2.8307488970758126,67.60413941002787L18.317181074702166,152.45674523192955L33.80361325232852,207.88552502666562L49.290045429954866,159.33871837026047L64.77647760758123,204.56837859109478L80.26290978520758,206.38470055048288L95.74934196283392,238.82491840306082L111.2357741404603,237.16929375988482L126.72220631808665,233.8167644290013L142.208638495713,243.53526634157143L157.69507067333933,222.9232555345867L173.1815028509657,212.99982768666348L188.66793502859207,221.57280836348318L204.1543672062184,237.03071075324323L219.64079938384475,229.82144583326928L235.1272315614711,264.1399057120327L250.61366373909743,251.64237223010647L266.1000959167238,257.3508126738977L281.5865280943501,260.44829030106854L297.0729602719765,250.49537670705135" fill="none"></path></g><g><path style="fill: none;" stroke="rgb(255, 112, 67)" stroke-width="2px" d="M2.8307488970758126,225.46640113519098L18.317181074702166,182.642777795624L33.80361325232852,206.43630060614734L49.290045429954866,205.16104208758344L64.77647760758123,174.03146564888218L80.26290978520758,190.0407514905993L95.74934196283392,185.64000388607533L111.2357741404603,178.49560760750813L126.72220631808665,201.75543841373073L142.208638495713,194.6537964669998L157.69507067333933,196.19442670040937L173.1815028509657,196.40230121037177L188.66793502859207,216.43049424469606L204.1543672062184,205.6932598045795L219.64079938384475,223.88301656994517L235.1272315614711,235.45322333721623L250.61366373909743,238.16001482864198L266.1000959167238,246.30250361248983L281.5865280943501,249.61670147345123L297.0729602719765,256.9262179301447L312.55939244960285,263.17129895284603L328.0458246272292,260.18586716083223L343.53225680485554,255.381164834821L359.0186889824819,262.23512651436266L374.5051211601083,267.762229619676L389.9915533377346,273.8289218785089L405.47798551536096,267.371543483931L420.96441769298735,269.0360138509352L436.4508498706137,262.5270354006929L451.93728204824004,267.9258755104975" fill="none"></path></g><g><path style="fill: none;" stroke="rgb(187, 187, 187)" stroke-width="2px" d="M2.8307488970758126,209.52493250948996L18.317181074702166,210.35053340012092L33.80361325232852,233.90374737997843L49.290045429954866,232.78918617762665L64.77647760758123,222.1743175838L80.26290978520758,217.35634667204647L95.74934196283392,240.0662683136167L111.2357741404603,215.64322482398728L126.72220631808665,220.54670439941327L142.208638495713,229.06661073326384L157.69507067333933,240.10459978353887L173.1815028509657,240.73559474994966L188.66793502859207,221.76446571309393L204.1543672062184,229.2877538289686L219.64079938384475,235.12445726826851L235.1272315614711,230.41116075514853" fill="none"></path></g><g><path style="fill: none;" stroke="rgb(204, 51, 17)" stroke-width="2px" d="M2.8307488970758126,230.40526360592975L18.317181074702166,240.1399826788516L33.80361325232852,248.3163800707075L49.290045429954866,253.48375707367447L64.77647760758123,274.74592858203107L80.26290978520758,284.09585866842673L95.74934196283392,287.49851376767003L111.2357741404603,288.39193187431715L126.72220631808665,272.2278458656067L142.208638495713,286.0168550264484L157.69507067333933,274.4761340052714L173.1815028509657,269.7539917683232L188.66793502859207,265.70117596770797L204.1543672062184,265.20581543332946L219.64079938384475,263.6976195206232" fill="none"></path></g><g><path style="fill: none;" stroke="rgb(0, 153, 136)" stroke-width="2px" d="M2.8307488970758126,171.88195475863228L18.317181074702166,218.44731927752312L33.80361325232852,193.36969222460772L49.290045429954866,206.296243312201L64.77647760758123,234.0806618565422L80.26290978520758,220.00711524589374L95.74934196283392,214.9665269511308L111.2357741404603,224.74400035588891L126.72220631808665,246.3909608507717L142.208638495713,242.82023699879284L157.69507067333933,243.91710675348824L173.1815028509657,255.12463884380355L188.66793502859207,225.4501839748393L204.1543672062184,257.8122646002683L219.64079938384475,263.8715854225776L235.1272315614711,259.7288380963758L250.61366373909743,273.21266978514507L266.1000959167238,267.49390933022096L281.5865280943501,253.49702565941678L297.0729602719765,247.3521961734349L312.55939244960285,263.73447670324066L328.0458246272292,265.09819246008647L343.53225680485554,262.38550381944185L359.0186889824819,259.75390098055567L374.5051211601083,279.1171904404611L389.9915533377346,265.97981626829596L405.47798551536096,247.00426436952617L420.96441769298735,240.57489743373753L436.4508498706137,249.14198096133845" fill="none"></path></g><g><path style="fill: none;" stroke="rgb(0, 119, 187)" stroke-width="2px" d="M2.8307488970758126,248.5419460283263L18.317181074702166,242.77453409234715L33.80361325232852,252.98544796468653L49.290045429954866,201.89107284576298L64.77647760758123,177.04196032507576L80.26290978520758,206.3021404614198L95.74934196283392,179.02635103719945L111.2357741404603,189.84614556637916L126.72220631808665,193.25469781484122L142.208638495713,179.2180083868102L157.69507067333933,173.5228365287613L173.1815028509657,180.2072551682627L188.66793502859207,203.53048032858732L204.1543672062184,219.45720608124134L219.64079938384475,233.16365515302" fill="none"></path></g><g><path style="fill: none;" stroke="rgb(0, 153, 136)" stroke-width="2px" d="M2.8307488970758126,242.3366707628518L18.317181074702166,239.77435942728647L33.80361325232852,244.47586164196883L49.290045429954866,236.85379627667942L64.77647760758123,245.10095945916083L80.26290978520758,235.97512104307933L95.74934196283392,240.28151426010263L111.2357741404603,246.7153040578053L126.72220631808665,254.33589513579L142.208638495713,240.88007490581006L157.69507067333933,244.92257069529234L173.1815028509657,244.72796477107224L188.66793502859207,244.6055989247823L204.1543672062184,255.07746165005315L219.64079938384475,254.02776908910812L235.1272315614711,251.76178950178704L250.61366373909743,261.4124741983411L266.1000959167238,257.0500580637393L281.5865280943501,253.90982610473222L297.0729602719765,263.2612304784326L312.55939244960285,267.0530974261162L328.0458246272292,273.91000768026726L343.53225680485554,269.5859230155876L359.0186889824819,269.23799121167883L374.5051211601083,277.427657189277L389.9915533377346,266.3189023483765L405.47798551536096,274.5188883371076L420.96441769298735,270.3083237948897L436.4508498706137,271.7988282599395" fill="none"></path></g><g><path style="fill: none;" stroke="rgb(0, 119, 187)" stroke-width="2px" d="M2.8307488970758126,232.24222558758365L18.317181074702166,223.82699365236664L33.80361325232852,218.59917086990703L49.290045429954866,223.24612445431558L64.77647760758123,231.59648774812584L80.26290978520758,232.2554941733259L95.74934196283392,229.99541173522368L111.2357741404603,236.68277894933442L126.72220631808665,235.65667498526452L142.208638495713,235.41194329268464L157.69507067333933,238.71434685520848L173.1815028509657,250.3965994576366L188.66793502859207,247.41264195292757L204.1543672062184,251.1013087892823L219.64079938384475,250.86689710783526L235.1272315614711,256.18317712857674L250.61366373909743,257.4156813153044L266.1000959167238,263.67845378566216L281.5865280943501,253.72701447894968L297.0729602719765,254.1486606480933L312.55939244960285,256.988137996942L328.0458246272292,256.8141720949876L343.53225680485554,241.71304723296453L359.0186889824819,245.03019366853533L374.5051211601083,241.92387031753637L389.9915533377346,239.65936501752L405.47798551536096,237.63664283547413L420.96441769298735,240.4716973224087L436.4508498706137,246.1388577216683L451.93728204824004,243.3214946823902" fill="none"></path></g><g><path stroke="rgb(238, 51, 119)" stroke-width="2px" d="M2.8307488970758126,247.00868723144023L18.317181074702166,281.4907930010251L33.80361325232852,257.2269725403031L49.290045429954866,290.21562527022877L64.77647760758123,280.0032371105847L80.26290978520758,277.32298279064344L95.74934196283392,284.07079578424685L111.2357741404603,272.6598120458832L126.72220631808665,307.6977241293393L142.208638495713,317.35430597511214L157.69507067333933,317.6314719883954L173.1815028509657,327.07428217498705L188.66793502859207,310.2644583268188L204.1543672062184,295.9904086427313L219.64079938384475,294.1401780753352L235.1272315614711,284.96126531628454L250.61366373909743,267.4835893190881L266.1000959167238,260.3067587198175L281.5865280943501,247.39052764335707L297.0729602719765,286.64490141824984L312.55939244960285,298.76501735017325L328.0458246272292,320.49896079603326L343.53225680485554,321.69903066205757L359.0186889824819,309.9371665451758" style="fill: none;" fill="none"></path></g><g><path style="fill: none;" stroke="rgb(255, 112, 67)" stroke-width="2px" d="M2.8307488970758126,208.01968517139318L18.317181074702166,212.9954048247494L33.80361325232852,199.81085345883392L49.290045429954866,222.01656884219733L64.77647760758123,219.18446292987218L80.26290978520758,224.82803473225667L95.74934196283392,197.40923943948061L111.2357741404603,215.5326532761349L126.72220631808665,215.53117898883016L142.208638495713,205.7463341475486L157.69507067333933,209.36865805519196L173.1815028509657,192.68562291522775L188.66793502859207,205.68293979344656L204.1543672062184,233.82266157822008L219.64079938384475,236.31420712315995L235.1272315614711,234.79126833740676L250.61366373909743,226.71217390766088L266.1000959167238,225.69786424202854L281.5865280943501,226.39225356254144L297.0729602719765,224.26485698186198L312.55939244960285,219.70783492304002L328.0458246272292,213.34481091596285L343.53225680485554,218.628656616001L359.0186889824819,240.08838262318716L374.5051211601083,237.0454536262902L389.9915533377346,235.54610343741214" fill="none"></path></g><g><path style="fill: none;" stroke="rgb(238, 51, 119)" stroke-width="2px" d="M2.8307488970758126,216.61330587047863L18.317181074702166,221.78805430996908L33.80361325232852,237.84156877082717L49.290045429954866,224.6378516699506L64.77647760758123,224.42997715998817L80.26290978520758,234.60993099892886L95.74934196283392,242.7347283351203L111.2357741404603,251.59077217444207L126.72220631808665,247.48488203085773L142.208638495713,251.24578894514275L157.69507067333933,249.20095245352638L173.1815028509657,242.39416796773506L188.66793502859207,234.9519656536188L204.1543672062184,243.0118943484036L219.64079938384475,244.7427076441192L235.1272315614711,253.21248820961006L250.61366373909743,237.725100073756L266.1000959167238,241.24127529546112L281.5865280943501,237.77375155481104L297.0729602719765,244.04831832360637L312.55939244960285,245.26902821189643L328.0458246272292,239.46623338060454L343.53225680485554,240.59406316869863" fill="none"></path></g><g><path style="fill: none;" stroke="rgb(255, 112, 67)" stroke-width="2px" d="M2.8307488970758126,228.7938675818947L18.317181074702166,225.2939095205413L33.80361325232852,236.25965849288608L49.290045429954866,225.5224240527695L64.77647760758123,226.51167083422197L80.26290978520758,238.01553467278157L95.74934196283392,239.78762801302872L111.2357741404603,234.21777057587917L126.72220631808665,229.6386342074867L142.208638495713,219.37759456678765L157.69507067333933,226.1784819033602L173.1815028509657,234.14405621064427L188.66793502859207,240.29773142045428L204.1543672062184,240.18273701068782L219.64079938384475,247.6042993025383L235.1272315614711,251.48609777580847L250.61366373909743,251.95934400061662L266.1000959167238,248.3016371976605L281.5865280943501,246.29808075057576" fill="none"></path></g><g><path stroke="rgb(51, 187, 238)" stroke-width="2px" d="M2.8307488970758126,220.2090926066374L18.317181074702166,228.6832960340423L33.80361325232852,218.2895705359204L49.290045429954866,231.67315068797015L64.77647760758123,237.2120480917211L80.26290978520758,246.9865729218698L95.74934196283392,235.2261830922927L111.2357741404603,232.84668338250987L126.72220631808665,284.138613000263L142.208638495713,277.56034304669987L157.69507067333933,290.44561408976165L173.1815028509657,259.09931741726973L188.66793502859207,279.1437276119457L204.1543672062184,276.51654763497356L219.64079938384475,278.2281951957281L235.1272315614711,272.08336570974626L250.61366373909743,285.1204883451919L266.1000959167238,258.75728276257973L281.5865280943501,273.46182433963907L297.0729602719765,286.14511802195716L312.55939244960285,303.5077996093872L328.0458246272292,306.5094485617526L343.53225680485554,315.69278418271733L359.0186889824819,296.30590612593676L374.5051211601083,284.7607622428456L389.9915533377346,284.76518510475967L405.47798551536096,295.91521999019176L420.96441769298735,286.21735809988735L436.4508498706137,269.8955233495742" style="fill: none;" fill="none"></path></g><g><path style="fill: none;" stroke="rgb(187, 187, 187)" stroke-width="2px" d="M2.8307488970758126,199.81527632074796L18.317181074702166,238.33398073059638L33.80361325232852,221.73350567969527L49.290045429954866,232.07563112215277L64.77647760758123,247.11631020468317L80.26290978520758,234.52884519717043L95.74934196283392,221.55069405391274L111.2357741404603,236.43657296944988L126.72220631808665,250.99073724142994L142.208638495713,226.83601404125557L157.69507067333933,215.1404928530852L173.1815028509657,198.60636073089552L188.66793502859207,199.15184703363383L204.1543672062184,223.66482204884986L219.64079938384475,224.2781255676043L235.1272315614711,221.65389416524158L250.61366373909743,225.26737234905673L266.1000959167238,248.85449493692232L281.5865280943501,244.8989820984172L297.0729602719765,251.7986466844045L312.55939244960285,264.95223801692134" fill="none"></path></g><g><path style="fill: none;" stroke="rgb(51, 187, 238)" stroke-width="2px" d="M2.8307488970758126,248.29426576113704L18.317181074702166,254.6867755143082L33.80361325232852,267.9140812120599L49.290045429954866,283.68305822311123L64.77647760758123,273.34977850448195L80.26290978520758,274.7813114773439L95.74934196283392,283.6285095928374L111.2357741404603,273.9070591056579L126.72220631808665,275.0068774349627L142.208638495713,256.8834635983084L157.69507067333933,258.3828137871864L173.1815028509657,260.3023358579034L188.66793502859207,254.06315198442084L204.1543672062184,263.11969889718154L219.64079938384475,263.9629912354689L235.1272315614711,258.3828137871864L250.61366373909743,266.35723381829865L266.1000959167238,264.79006641340453L281.5865280943501,257.97443620378505L297.0729602719765,271.91529695701064" fill="none"></path></g><g><path style="fill: none;" stroke="rgb(187, 187, 187)" stroke-width="2px" d="M2.8307488970758126,209.4099380997235L18.317181074702166,217.39172956735925L33.80361325232852,216.14890536949875L49.290045429954866,216.01179665016178L64.77647760758123,221.0081563257838L80.26290978520758,231.0745900422627L95.74934196283392,221.8588201005946L111.2357741404603,225.6610070594111L126.72220631808665,231.3340646078896L142.208638495713,229.24794807174175L157.69507067333933,228.90001626783294L173.1815028509657,225.20545228225942L188.66793502859207,230.76646399558078L204.1543672062184,229.1609651207645" fill="none"></path></g><g><path style="fill: none;" stroke="rgb(204, 51, 17)" stroke-width="2px" d="M2.8307488970758126,187.94873780523264L18.317181074702166,206.74884951474337L33.80361325232852,219.70636063573536L49.290045429954866,227.22080302778173L64.77647760758123,214.44020638335354L80.26290978520758,218.33969630428018L95.74934196283392,229.75805147916725L111.2357741404603,256.51784034674324L126.72220631808665,249.46337559376266L142.208638495713,237.6189513878178L157.69507067333933,254.53787249653365L173.1815028509657,248.45938593926323L188.66793502859207,251.77063522561525L204.1543672062184,251.75884092717763L219.64079938384475,241.77939016167593L235.1272315614711,250.46736524826213L250.61366373909743,254.58062682836987L266.1000959167238,260.3097072944269L281.5865280943501,261.06306810712766L297.0729602719765,250.3523708384956L312.55939244960285,263.20225898624466L328.0458246272292,269.6154087616816L343.53225680485554,255.09957595962365L359.0186889824819,220.77964179355558L374.5051211601083,251.80012097170922L389.9915533377346,249.09775234219754L405.47798551536096,262.3825552448325L420.96441769298735,253.4778599244557L436.4508498706137,243.23893459332712L451.93728204824004,249.00929510391563" fill="none"></path></g><g><path style="fill: none;" stroke="rgb(0, 153, 136)" stroke-width="2px" d="M2.8307488970758126,214.52129218511197L18.317181074702166,145.27844034535428L33.80361325232852,179.15461403270822L49.290045429954866,173.8692940453654L64.77647760758123,176.57755982409586L80.26290978520758,207.9400736569395L95.74934196283392,197.4151365886994L111.2357741404603,204.30890402546794L126.72220631808665,230.35661212487472L142.208638495713,234.06444469619055L157.69507067333933,243.2315631568036L173.1815028509657,236.12549834815854L188.66793502859207,242.35731078511762L204.1543672062184,224.0997368037358L219.64079938384475,231.1940073139433L235.1272315614711,250.33320510353457L250.61366373909743,259.7597981297745L266.1000959167238,261.4301656459975L281.5865280943501,267.64428663530015L297.0729602719765,269.17312257027214L312.55939244960285,256.86724643795674L328.0458246272292,270.40710104430445L343.53225680485554,275.72780392696006L359.0186889824819,270.0134663339501L374.5051211601083,270.16531792633396L389.9915533377346,271.5054450863046L405.47798551536096,272.4371946628738L420.96441769298735,263.9113911798044L436.4508498706137,264.39200884113603L451.93728204824004,259.79960388700135" fill="none"></path></g><g><path style="fill: none;" stroke="rgb(238, 51, 119)" stroke-width="2px" d="M2.8307488970758126,223.78571360783505L18.317181074702166,255.92075398834052L33.80361325232852,257.47465280749236L49.290045429954866,265.8220675266933L64.77647760758123,262.2690351223707L80.26290978520758,268.4743103878452L95.74934196283392,277.16375976173606L111.2357741404603,279.3810878680021L126.72220631808665,257.02352089225474L142.208638495713,269.66111166812726L157.69507067333933,270.25377516461583L173.1815028509657,269.9043690734024L188.66793502859207,264.86820364055353L204.1543672062184,259.57403792938254L219.64079938384475,264.0588199102743L235.1272315614711,265.0746038632113L250.61366373909743,262.4415267370204L266.1000959167238,248.48002596152898L281.5865280943501,247.71634513769536L297.0729602719765,253.710797318598L312.55939244960285,251.68365227463806L328.0458246272292,250.34205082736273L343.53225680485554,264.9271751327415L359.0186889824819,273.03722959588595" fill="none"></path></g><g><path style="fill: none;" stroke="rgb(255, 112, 67)" stroke-width="2px" d="M2.8307488970758126,232.31004280359977L18.317181074702166,237.1221165661345L33.80361325232852,232.0196082045742L49.290045429954866,229.6563256551431L64.77647760758123,246.4204465968657L80.26290978520758,241.27076104155506L95.74934196283392,265.0554381282502L111.2357741404603,281.6470674553231L126.72220631808665,265.10114103469584L142.208638495713,267.9126069247552L157.69507067333933,266.12871928607046L173.1815028509657,266.2584565688839L188.66793502859207,265.1483182284462L204.1543672062184,263.86716256066353L219.64079938384475,250.11501058243925L235.1272315614711,241.30319536225844L250.61366373909743,231.2323387838654L266.1000959167238,232.96167779227636L281.5865280943501,234.10277616611268L297.0729602719765,229.45434829439947" fill="none"></path></g><g><path stroke="rgb(51, 187, 238)" stroke-width="2px" d="M2.8307488970758126,205.06373912547335L18.317181074702166,236.24049275792504L33.80361325232852,239.04311292415616L49.290045429954866,237.64843713391173L64.77647760758123,265.6215644532543L80.26290978520758,292.8442795345055L95.74934196283392,314.48239430556015L111.2357741404603,276.66397636544343L126.72220631808665,307.025449118397L142.208638495713,280.2096373332424L157.69507067333933,288.9300467405319L173.1815028509657,287.03558755399484L188.66793502859207,241.74548155366787L204.1543672062184,237.00122500714926L219.64079938384475,278.27242381486906L235.1272315614711,296.8263295444952L250.61366373909743,259.47083781805367L266.1000959167238,277.115108280681L281.5865280943501,281.7723818762224L297.0729602719765,255.74531379908143L312.55939244960285,263.7123623936702" style="fill: none;" fill="none"></path></g><g><path style="fill: none;" stroke="rgb(187, 187, 187)" stroke-width="2px" d="M2.8307488970758126,223.88743943185926L18.317181074702166,251.0629773193601L33.80361325232852,231.06279574382512L49.290045429954866,172.3036009277759L64.77647760758123,209.5691611286309L80.26290978520758,220.3697899228495L95.74934196283392,254.350638008837L111.2357741404603,226.12540756039107L126.72220631808665,221.64799701602277L142.208638495713,173.25009337739215L157.69507067333933,203.80322347995647L173.1815028509657,211.15844284309546L188.66793502859207,247.60577358984298L204.1543672062184,262.1761550221747" fill="none"></path></g><g><path style="fill: none;" stroke="rgb(51, 187, 238)" stroke-width="2px" d="M2.8307488970758126,249.66977581642038L18.317181074702166,240.32574287924356L33.80361325232852,251.67333226350516L49.290045429954866,238.18360342551716L64.77647760758123,253.93931185082624L80.26290978520758,251.17502315451722L95.74934196283392,241.42998407046247L111.2357741404603,245.59189713162533L126.72220631808665,263.18899040050235L142.208638495713,264.2607972710179L157.69507067333933,260.1092042209879L173.1815028509657,266.72875421908265L188.66793502859207,268.9077508554265L204.1543672062184,269.2807455435151L219.64079938384475,263.46173355187153" fill="none"></path></g><g><path style="fill: none;" stroke="rgb(187, 187, 187)" stroke-width="2px" d="M2.8307488970758126,199.0766583810942L18.317181074702166,209.91561864523496L33.80361325232852,205.08732772234856L49.290045429954866,203.0705026895215L64.77647760758123,211.33093445774517L80.26290978520758,210.28419047140952L95.74934196283392,215.6977734542611L111.2357741404603,225.76125859613063L126.72220631808665,230.61313811589218L142.208638495713,239.94979961654553L157.69507067333933,241.29582392573494L173.1815028509657,243.1622716534828L188.66793502859207,229.43370827213366L204.1543672062184,242.01085326851353L219.64079938384475,244.57463889138361L235.1272315614711,237.07788794699357L250.61366373909743,228.12159257095232L266.1000959167238,232.694831790126L281.5865280943501,236.0090296510874L297.0729602719765,232.39997432918634L312.55939244960285,233.20935805946564L328.0458246272292,235.49892624366186L343.53225680485554,231.6628306768373L359.0186889824819,231.10702436296606L374.5051211601083,233.0751979147381L389.9915533377346,237.61452852590367" fill="none"></path></g><g><path stroke="rgb(204, 51, 17)" stroke-width="2px" d="M2.8307488970758126,243.10477444859956L18.317181074702166,261.79873747217204L33.80361325232852,238.31628928293998L49.290045429954866,255.20719893286662L64.77647760758123,245.72753156365755L80.26290978520758,287.47345088349016L95.74934196283392,284.63249924733685L111.2357741404603,298.019027973996L126.72220631808665,306.5861115015969L142.208638495713,294.8404645450668L157.69507067333933,265.1895982729777L173.1815028509657,264.6735977163334L188.66793502859207,270.0488492292628L204.1543672062184,268.0777271028814L219.64079938384475,253.65477440101947L235.1272315614711,253.0665337664449L250.61366373909743,256.8819893110037L266.1000959167238,251.6748065508099L281.5865280943501,270.9643816454804" style="fill: none;" fill="none"></path></g><g><path style="fill: none;" stroke="rgb(0, 153, 136)" stroke-width="2px" d="M2.8307488970758126,165.7474452837833L18.317181074702166,217.85170720642506L33.80361325232852,234.78831976279736L49.290045429954866,209.24629220890196L64.77647760758123,260.7416734747035L80.26290978520758,229.93054309381696L95.74934196283392,264.7841692641858L111.2357741404603,272.680452068149L126.72220631808665,250.58973109455206L142.208638495713,262.25134367471435L157.69507067333933,228.1466554551322L173.1815028509657,243.5691749495795L188.66793502859207,234.85466269150876L204.1543672062184,210.78544815500686L219.64079938384475,219.77122927714206L235.1272315614711,192.67530290409485L250.61366373909743,205.55320251063316L266.1000959167238,214.36796630542335" fill="none"></path></g><g><path style="fill: none;" stroke="rgb(204, 51, 17)" stroke-width="2px" d="M2.8307488970758126,244.24292424782652L18.317181074702166,260.43207314071685L33.80361325232852,252.70385908948919L49.290045429954866,255.3074504695861L64.77647760758123,246.90990998202548L80.26290978520758,248.5478431775451L95.74934196283392,247.55859639609264L111.2357741404603,245.25575962615414L126.72220631808665,249.74496446896L142.208638495713,250.25359358908085L157.69507067333933,258.34300802995955L173.1815028509657,262.82484143624197L188.66793502859207,273.7286703417894L204.1543672062184,282.97982317877023L219.64079938384475,272.1364400527154L235.1272315614711,276.50475333653594L250.61366373909743,272.196885832208L266.1000959167238,269.0979339177325L281.5865280943501,270.84938723571395L297.0729602719765,263.8804311464058L312.55939244960285,258.0245619721448L328.0458246272292,253.04589374417912L343.53225680485554,250.34942226388623L359.0186889824819,261.22966257255854L374.5051211601083,257.69727019050174L389.9915533377346,257.24024112604536L405.47798551536096,244.88423922537024L420.96441769298735,251.70134372229444L436.4508498706137,252.11414416760988L451.93728204824004,259.5858322278201" fill="none"></path></g><g><path style="fill: none;" stroke="rgb(0, 153, 136)" stroke-width="2px" d="M2.8307488970758126,214.42693779761132L18.317181074702166,243.61045499411102L33.80361325232852,250.01770762032916L49.290045429954866,232.61374598836755L64.77647760758123,238.99298715579644L80.26290978520758,256.5296346451808L95.74934196283392,263.43961924230103L111.2357741404603,259.01086017898785L126.72220631808665,258.7233741545717L142.208638495713,258.2501279297636L157.69507067333933,255.11726740728002L173.1815028509657,246.29365788866167L188.66793502859207,252.3559272855804L204.1543672062184,257.98033335300386L219.64079938384475,250.83298849982722L235.1272315614711,240.54393740033888L250.61366373909743,248.3163800707075L266.1000959167238,246.70940690858652L281.5865280943501,245.9177146259636L297.0729602719765,243.33476326813246L312.55939244960285,238.73203830286485" fill="none"></path></g><g><path stroke="rgb(0, 119, 187)" stroke-width="2px" d="M2.8307488970758126,189.4967394751657L18.317181074702166,186.6808507231922L33.80361325232852,236.89802489582036L49.290045429954866,257.784253141479L64.77647760758123,252.14805277561794L80.26290978520758,222.67704955470208L95.74934196283392,236.4144586598794L111.2357741404603,251.03791443518026L126.72220631808665,252.55643035901937L142.208638495713,259.1966203793798L157.69507067333933,273.911481967572L173.1815028509657,257.47612709479705L188.66793502859207,204.7497159295727L204.1543672062184,214.34437770854817L219.64079938384475,245.27345107381055L235.1272315614711,220.0233324062454L250.61366373909743,217.5244154247821L266.1000959167238,245.64349718728977L281.5865280943501,258.34890517917836L297.0729602719765,252.41195020315894L312.55939244960285,261.36824557920016L328.0458246272292,266.84964577806784L343.53225680485554,298.25786251735707L359.0186889824819,298.3330511698967L374.5051211601083,277.9053262759992L389.9915533377346,295.68228259604945L405.47798551536096,308.22994184633535L420.96441769298735,282.155696575444L436.4508498706137,265.9459076602879L451.93728204824004,262.40614384170766" style="fill: none;" fill="none"></path></g><g><path style="fill: none;" stroke="rgb(238, 51, 119)" stroke-width="2px" d="M2.8307488970758126,205.17136209871632L18.317181074702166,186.9108395427251L33.80361325232852,183.17941837453415L49.290045429954866,226.0045160014058L64.77647760758123,172.74736140649009L80.26290978520758,204.3295440477337L95.74934196283392,204.70991017234584L111.2357741404603,201.38834087486092L126.72220631808665,197.62153681135715L142.208638495713,206.0072830004802L157.69507067333933,233.59709562060124L173.1815028509657,204.83817316785456L188.66793502859207,198.81570952816264L204.1543672062184,226.93773986527975L219.64079938384475,244.77219339021312L235.1272315614711,242.21430491656187L250.61366373909743,248.14093988144842" fill="none"></path></g><g><path style="fill: none;" stroke="rgb(0, 119, 187)" stroke-width="2px" d="M2.8307488970758126,234.3180221125986L18.317181074702166,267.6000580161592L33.80361325232852,276.7067306972796L49.290045429954866,265.373884186065L64.77647760758123,281.3433642705553L80.26290978520758,279.78504258948936L95.74934196283392,275.12776899394794L111.2357741404603,265.50804433079253L126.72220631808665,272.3148288165839L142.208638495713,289.0509382995172L157.69507067333933,280.94678098559154L173.1815028509657,274.3891510542942L188.66793502859207,271.4582678925542L204.1543672062184,286.00653501531554L219.64079938384475,280.1654087141015L235.1272315614711,278.7722072111617L250.61366373909743,266.12429642415634L266.1000959167238,265.77931319485697L281.5865280943501,271.45237074333545L297.0729602719765,271.80914827107244L312.55939244960285,282.64073709868967L328.0458246272292,284.294887454561" fill="none"></path></g><g><path style="fill: none;" stroke="rgb(238, 51, 119)" stroke-width="2px" d="M2.8307488970758126,199.7209219332473L18.317181074702166,206.81371815615006L33.80361325232852,224.69977173674795L49.290045429954866,238.41948939426885L64.77647760758123,237.31229962844057L80.26290978520758,246.25090355682542L95.74934196283392,251.20156032600175L111.2357741404603,249.52824423516935L126.72220631808665,241.8707959745672L142.208638495713,249.56362713048216L157.69507067333933,247.59397929140542L173.1815028509657,249.901238923258L188.66793502859207,252.58444181780865L204.1543672062184,256.9188464936211L219.64079938384475,257.2520354244829L235.1272315614711,258.49043676042936L250.61366373909743,251.65121795393466L266.1000959167238,250.9700972191642L281.5865280943501,254.79734706216053L297.0729602719765,248.79110058282032L312.55939244960285,249.37491835548076L328.0458246272292,245.63612575076627L343.53225680485554,247.46571629589664L359.0186889824819,254.37570089301684L374.5051211601083,250.90965143967153L389.9915533377346,248.43579734238807L405.47798551536096,247.58365928027254L420.96441769298735,250.63985686291178L436.4508498706137,255.57282218443174L451.93728204824004,252.76872773089593" fill="none"></path></g><g><path stroke="rgb(255, 112, 67)" stroke-width="2px" d="M2.8307488970758126,225.9927217029682L18.317181074702166,227.92403807212278L33.80361325232852,236.58252741261498L49.290045429954866,263.95414551164066L64.77647760758123,265.68495880735634L80.26290978520758,284.34353893561604L95.74934196283392,306.8352660560909L111.2357741404603,302.4522098992233L126.72220631808665,287.0871876096593L142.208638495713,261.4581771047868L157.69507067333933,274.77099146621094L173.1815028509657,289.9502535553831L188.66793502859207,294.8183502354963L204.1543672062184,314.4072056530206L219.64079938384475,307.66823838324535L235.1272315614711,306.981220499256L250.61366373909743,292.7838337550129L266.1000959167238,300.3454533408097L281.5865280943501,286.63458140711697L297.0729602719765,262.6597212581158L312.55939244960285,302.82815316192136L328.0458246272292,301.05753410897887L343.53225680485554,281.6455931680184L359.0186889824819,264.56007759387165L374.5051211601083,266.2805708784544L389.9915533377346,276.5843648509897L405.47798551536096,263.45288782804334L420.96441769298735,298.3640112032954L436.4508498706137,290.75963728566234L451.93728204824004,257.88303039089374" style="fill: none;" fill="none"></path></g><g><path style="fill: none;" stroke="rgb(51, 187, 238)" stroke-width="2px" d="M2.8307488970758126,147.5694828168552L18.317181074702166,150.0285940410917L33.80361325232852,187.31479426421245L49.290045429954866,178.99096814188673L64.77647760758123,190.6687978824007L80.26290978520758,199.1430013098056L95.74934196283392,209.32737801066042L111.2357741404603,222.60038661485777L126.72220631808665,220.63368735039046L142.208638495713,221.5359511808657L157.69507067333933,236.76386475109285L173.1815028509657,265.26331263821265L188.66793502859207,276.6507077797011L204.1543672062184,281.5084844486815L219.64079938384475,278.4213268326436L235.1272315614711,275.19706049726875L250.61366373909743,285.99916357879204L266.1000959167238,274.5115169005841L281.5865280943501,260.48809605829535L297.0729602719765,271.6749881263449L312.55939244960285,260.26400438798123L328.0458246272292,264.0337570260944L343.53225680485554,267.73864102280083L359.0186889824819,263.1816189639789L374.5051211601083,261.9343719042042L389.9915533377346,261.1471024834954L405.47798551536096,252.31907010296297L420.96441769298735,254.81208993520752" fill="none"></path></g><g><path style="fill: none;" stroke="rgb(204, 51, 17)" stroke-width="2px" d="M2.8307488970758126,242.3012878675391L18.317181074702166,223.97884524475052L33.80361325232852,224.30171416447945L49.290045429954866,208.32781121807506L64.77647760758123,223.22990729396392L80.26290978520758,223.88154228264045L95.74934196283392,250.89785714123394L111.2357741404603,254.1059063162571L126.72220631808665,254.23122073715646L142.208638495713,265.7439302995442L157.69507067333933,274.2343508873008L173.1815028509657,248.33554580566857L188.66793502859207,243.32591754430425L204.1543672062184,230.37282928522643L219.64079938384475,232.2038941176615L235.1272315614711,239.35713612005688L250.61366373909743,242.37942509468806L266.1000959167238,243.79179233258887L281.5865280943501,243.66058076247074L297.0729602719765,249.07711231993176L312.55939244960285,243.99082111872312L328.0458246272292,254.07642057016315L343.53225680485554,255.73057092603446L359.0186889824819,266.71401134603565L374.5051211601083,268.21336153491364L389.9915533377346,268.02022989799815L405.47798551536096,274.6574713437492L420.96441769298735,272.8219836494L436.4508498706137,271.3417991954831L451.93728204824004,268.0143327487794" fill="none"></path></g><g><path style="fill: none;" stroke="rgb(0, 153, 136)" stroke-width="2px" d="M2.8307488970758126,221.57575693809258L18.317181074702166,211.9501351257184L33.80361325232852,221.04353922109652L49.290045429954866,225.41627536683123L64.77647760758123,223.58373624709142L80.26290978520758,227.26355735961798L95.74934196283392,229.64600564401022L111.2357741404603,236.00313250186858L126.72220631808665,230.27110346120224L142.208638495713,240.48054304623687L157.69507067333933,233.13122083231661L173.1815028509657,231.4269447080856L188.66793502859207,223.3154159576364L204.1543672062184,215.56656188414297L219.64079938384475,224.4196571488553" fill="none"></path></g><g><path style="fill: none;" stroke="rgb(0, 119, 187)" stroke-width="2px" d="M2.8307488970758126,69.73006170340263L18.317181074702166,112.32959337265547L33.80361325232852,137.35414608260174L49.290045429954866,188.06815507691317L64.77647760758123,190.06876294938854L80.26290978520758,181.58276522354606L95.74934196283392,184.64338566809937L111.2357741404603,225.3808924715185L126.72220631808665,239.1168272893911L142.208638495713,256.7610977520185L157.69507067333933,223.70020494416258L173.1815028509657,200.7986259529816L188.66793502859207,239.95127390385025L204.1543672062184,281.06767254457674L219.64079938384475,282.70265716548704L235.1272315614711,280.4602661750411L250.61366373909743,260.29201584677054L266.1000959167238,266.50023968685434L281.5865280943501,230.4288522028049L297.0729602719765,223.9434623494378L312.55939244960285,263.53249934249703L328.0458246272292,249.95431326622713L343.53225680485554,260.3495130516538L359.0186889824819,277.222731253924L374.5051211601083,278.067497879516L389.9915533377346,257.2874183197957L405.47798551536096,245.55798852361727L420.96441769298735,259.9603012032135" fill="none"></path></g><g><path style="fill: none;" stroke="rgb(238, 51, 119)" stroke-width="2px" d="M2.8307488970758126,219.56040619257018L18.317181074702166,235.06253720147117L33.80361325232852,218.14656466736471L49.290045429954866,215.96019659449732L64.77647760758123,197.98568577561755L80.26290978520758,239.9026224227952L95.74934196283392,215.92923656109866L111.2357741404603,209.13129779913555L126.72220631808665,221.34724240586434L142.208638495713,249.56362713048216L157.69507067333933,248.3974658724659L173.1815028509657,236.8066190829291L188.66793502859207,234.77947403896914" fill="none"></path></g><g><path style="fill: none;" stroke="rgb(0, 119, 187)" stroke-width="2px" d="M2.8307488970758126,248.777831997078L18.317181074702166,250.09879342208754L33.80361325232852,264.96403231535896L49.290045429954866,267.7445381720196L64.77647760758123,247.98761400175982L80.26290978520758,254.64107260786253L95.74934196283392,251.08804020354L111.2357741404603,242.86151704332437L126.72220631808665,252.4237445015965L142.208638495713,264.7428892196542L157.69507067333933,260.5514904123974L173.1815028509657,251.72345803186494L188.66793502859207,270.27588947418633L204.1543672062184,257.32869836432724L219.64079938384475,255.07009021352968L235.1272315614711,254.4214037994625L250.61366373909743,261.2576740313478L266.1000959167238,268.23105298257L281.5865280943501,278.7309271666302L297.0729602719765,278.9314302400692L312.55939244960285,274.4938254529277L328.0458246272292,270.4469068015313L343.53225680485554,275.89439839239094L359.0186889824819,274.52773406093576L374.5051211601083,274.01173350429144" fill="none"></path></g><g><path style="fill: none;" stroke="rgb(238, 51, 119)" stroke-width="2px" d="M2.8307488970758126,248.1468370306672L18.317181074702166,253.16088815394562L33.80361325232852,248.5227802933652L49.290045429954866,250.3110907939641L64.77647760758123,257.754767395385L80.26290978520758,260.5853990204055L95.74934196283392,258.42114525710855L111.2357741404603,248.15273417988598L126.72220631808665,250.57793679611447L142.208638495713,247.08829874589395L157.69507067333933,240.68399469428522L173.1815028509657,246.7506869531181L188.66793502859207,248.02447118437726L204.1543672062184,244.1972213413809L219.64079938384475,240.84616629780203L235.1272315614711,241.56414421518997L250.61366373909743,243.6944893704788L266.1000959167238,246.18456062811399L281.5865280943501,243.547060640009L297.0729602719765,238.6421067772783L312.55939244960285,241.64670430425312L328.0458246272292,246.99541864569798L343.53225680485554,246.38506370155292L359.0186889824819,248.64662042695988" fill="none"></path></g><g><path stroke="rgb(255, 112, 67)" stroke-width="2px" d="M2.8307488970758126,181.9306970274548L18.317181074702166,241.94156176519272L33.80361325232852,275.4580093502003L49.290045429954866,274.8520772679694L64.77647760758123,296.973758274965L80.26290978520758,323.8912958841437L95.74934196283392,309.53321182368853L111.2357741404603,317.88652369210814L126.72220631808665,334.67718180531534L142.208638495713,308.7017137838388L157.69507067333933,298.2504910808336L173.1815028509657,299.0451319380659L188.66793502859207,297.2022728071932L204.1543672062184,312.0984717338633L219.64079938384475,299.55376105818675L235.1272315614711,311.97610588757334L250.61366373909743,297.5826389318054L266.1000959167238,259.4221863369986L281.5865280943501,274.6854828025385L297.0729602719765,298.2593368046618L312.55939244960285,343.919488918468L328.0458246272292,320.60953234388563L343.53225680485554,296.81453524605763" style="fill: none;" fill="none"></path></g><g><path style="fill: none;" stroke="rgb(51, 187, 238)" stroke-width="2px" d="M2.8307488970758126,251.5745550140904L18.317181074702166,236.80072193371032L33.80361325232852,245.98700612928445L49.290045429954866,243.99524398063724L64.77647760758123,260.50431321864704L80.26290978520758,246.76100696425092L95.74934196283392,220.24005264003605L111.2357741404603,162.94777369216152L126.72220631808665,212.5000442903708L142.208638495713,257.24024112604536L157.69507067333933,229.38210821646925L173.1815028509657,226.5691680391052L188.66793502859207,225.00052634690638L204.1543672062184,218.25566192791234L219.64079938384475,239.09029011790653L235.1272315614711,266.59017121244096L250.61366373909743,267.840366846825L266.1000959167238,257.2520354244829L281.5865280943501,247.88441389043098L297.0729602719765,241.69535578530812L312.55939244960285,238.1408490936809L328.0458246272292,234.55095950674092" fill="none"></path></g><g><path style="fill: none;" stroke="rgb(255, 112, 67)" stroke-width="2px" d="M2.8307488970758126,205.64018546161032L18.317181074702166,222.39988354141886L33.80361325232852,239.53552488392532L49.290045429954866,243.75198657536203L64.77647760758123,240.45400587475228L80.26290978520758,237.7663801182876L95.74934196283392,229.56344555494712L111.2357741404603,237.6720257307869L126.72220631808665,224.45946290608214L142.208638495713,232.94840920653405L157.69507067333933,227.3313745756341L173.1815028509657,231.5434134051567L188.66793502859207,232.47958584364002L204.1543672062184,241.4181897720249L219.64079938384475,235.40899471807523L235.1272315614711,238.88683846985816L250.61366373909743,246.49710953670998L266.1000959167238,246.92612714237717L281.5865280943501,234.05854754697177L297.0729602719765,244.31369003845205L312.55939244960285,241.38722973862622L328.0458246272292,236.64297319210758L343.53225680485554,234.5008337383812L359.0186889824819,242.53127668707202" fill="none"></path></g><g><path style="fill: none;" stroke="rgb(51, 187, 238)" stroke-width="2px" d="M2.8307488970758126,257.6604130078843L18.317181074702166,261.8739261247116L33.80361325232852,269.18639115601445L49.290045429954866,256.0829255918573L64.77647760758123,249.98969616153988L80.26290978520758,244.18247846833393L95.74934196283392,244.2075413525138L111.2357741404603,247.64705363437452L126.72220631808665,241.1601894937027L142.208638495713,234.03495895009658L157.69507067333933,236.9466763768754L173.1815028509657,235.3161146178793L188.66793502859207,237.01007073097745L204.1543672062184,243.66942648629893L219.64079938384475,240.65893181010537" fill="none"></path></g><g><path style="fill: none;" stroke="rgb(187, 187, 187)" stroke-width="2px" d="M2.8307488970758126,227.59822057778447L18.317181074702166,241.0584636696785L33.80361325232852,219.12844001229362L49.290045429954866,235.0374743172913L64.77647760758123,234.62319958467114L80.26290978520758,229.53985695807194L95.74934196283392,236.13581835929145L111.2357741404603,243.67237506090834L126.72220631808665,226.6340366805119L142.208638495713,235.57558918350617L157.69507067333933,243.91858104079293L173.1815028509657,232.54150591043737L188.66793502859207,224.6496459683882L204.1543672062184,207.1719699711917L219.64079938384475,212.4764556934956L235.1272315614711,224.3636342312768L250.61366373909743,246.04892619608177L266.1000959167238,249.79509023731973L281.5865280943501,253.37171123851743L297.0729602719765,249.18473529317467L312.55939244960285,271.11623323786426L328.0458246272292,252.96480794242078L343.53225680485554,248.92673501485254L359.0186889824819,273.8760990722592L374.5051211601083,258.94894011219054L389.9915533377346,254.07642057016315L405.47798551536096,262.49754965459897L420.96441769298735,287.4071079547788L436.4508498706137,280.80377511703574L451.93728204824004,273.68296743534376" fill="none"></path></g><g><path style="fill: none;" stroke="rgb(204, 51, 17)" stroke-width="2px" d="M2.8307488970758126,224.28991986604188L18.317181074702166,237.7486886706312L33.80361325232852,228.36632426353222L49.290045429954866,253.53388284203425L64.77647760758123,266.7095884841215L80.26290978520758,263.71678525558434L95.74934196283392,246.4941609621006L111.2357741404603,242.99862576266128L126.72220631808665,233.80791870517305L142.208638495713,246.04302904686296L157.69507067333933,257.02794375416886L173.1815028509657,252.92942504710797L188.66793502859207,220.72067030136768L204.1543672062184,245.57273139666424L219.64079938384475,277.7873832916234L235.1272315614711,257.10755526862255L250.61366373909743,258.0805848897233" fill="none"></path></g><g><path style="fill: none;" stroke="rgb(187, 187, 187)" stroke-width="2px" d="M2.8307488970758126,233.48799836005358L18.317181074702166,246.52069813358517L33.80361325232852,263.21995043390103L49.290045429954866,274.78426005195325L64.77647760758123,268.87826510933246L80.26290978520758,263.88337972101516L95.74934196283392,278.70881285705974L111.2357741404603,273.26132126620007L126.72220631808665,258.5494082526173L142.208638495713,246.30545218709923L157.69507067333933,242.87036276715256L173.1815028509657,233.69439858271136L188.66793502859207,236.71226469542844L204.1543672062184,240.64271464975366L219.64079938384475,239.51341057435488L235.1272315614711,233.09436364969918L250.61366373909743,230.63230385085328" fill="none"></path></g><g><path style="fill: none;" stroke="rgb(204, 51, 17)" stroke-width="2px" d="M2.8307488970758126,184.8910659352887L18.317181074702166,193.13822911777007L33.80361325232852,217.01578630466125L49.290045429954866,213.75466278666892L64.77647760758123,216.46145427809475L80.26290978520758,227.7264835732932L95.74934196283392,224.5715087412392L111.2357741404603,225.30128095706482L126.72220631808665,228.38254142388388L142.208638495713,227.31368312797775L157.69507067333933,234.53031948447517L173.1815028509657,239.6903250509187L188.66793502859207,242.2216763530854L204.1543672062184,246.2597492806536L219.64079938384475,246.5722981892496L235.1272315614711,246.61210394647645L250.61366373909743,245.72753156365755L266.1000959167238,244.3225357622802L281.5865280943501,243.02074007223177L297.0729602719765,241.21621241128125L312.55939244960285,237.0439793389855L328.0458246272292,239.20086166575888L343.53225680485554,244.0188325775124L359.0186889824819,249.13018666290085L374.5051211601083,249.4279926984499L389.9915533377346,249.08595804375992L405.47798551536096,241.36216685444634L420.96441769298735,246.99689293300264L436.4508498706137,250.95240577150778" fill="none"></path></g><g><path style="fill: none;" stroke="rgb(0, 153, 136)" stroke-width="2px" d="M2.8307488970758126,240.7812976563953L18.317181074702166,235.75545223467932L33.80361325232852,244.48323307849236L49.290045429954866,242.52685382515787L64.77647760758123,249.00634652930623L80.26290978520758,258.09975062468436L95.74934196283392,256.09471989029487L111.2357741404603,250.99958296525813L126.72220631808665,230.0366917797552L142.208638495713,212.65337017005942L157.69507067333933,237.70151147688088L173.1815028509657,233.99220461826033L188.66793502859207,231.86480803758093L204.1543672062184,246.93497286620533L219.64079938384475,261.3697198665049L235.1272315614711,253.96584902231078L250.61366373909743,255.44455918892302L266.1000959167238,261.5038800112324L281.5865280943501,265.4608671370422L297.0729602719765,285.50675161902285L312.55939244960285,284.49981338991404L328.0458246272292,267.4688464460411L343.53225680485554,275.6629352855534L359.0186889824819,276.80403365938975L374.5051211601083,266.1051306891953L389.9915533377346,264.76352924191997" fill="none"></path></g><g><path stroke="rgb(0, 119, 187)" stroke-width="2px" d="M2.8307488970758126,212.8332332212326L18.317181074702166,209.63992691925642L33.80361325232852,225.57107553382457L49.290045429954866,259.2909747668805L64.77647760758123,275.70568961738957L80.26290978520758,302.1868381843777L95.74934196283392,289.9251906712032L111.2357741404603,291.1296833991416L126.72220631808665,307.4456210002359L142.208638495713,299.81765848572775L157.69507067333933,300.1773845880741L173.1815028509657,278.7043899951456L188.66793502859207,283.9749671094415L204.1543672062184,300.0093158353385L219.64079938384475,290.5989399694502L235.1272315614711,284.0427843254576L250.61366373909743,267.5233950763149L266.1000959167238,278.35793247854156L281.5865280943501,269.50778578843864L297.0729602719765,272.05240567634763L312.55939244960285,273.42496715702157L328.0458246272292,273.41317285858395L343.53225680485554,277.1460683140797L359.0186889824819,280.470586186174L374.5051211601083,276.72442214493606L389.9915533377346,289.8470534440542L405.47798551536096,282.6318913748615L420.96441769298735,285.9682035453934L436.4508498706137,282.78226867994067L451.93728204824004,279.56832235569874" style="fill: none;" fill="none"></path></g></g></g></g></g></g><g transform="translate(60, 377)" clip-path="url(#clip_1)"><clipPath id="clip_1"><rect width="479" height="23"></rect></clipPath><g><g><line x1="2.8307488970758126" y1="0" x2="2.8307488970758126" y2="5" style="visibility: inherit;" fill="rgb(0, 0, 0)" stroke="rgb(204, 204, 204)" stroke-width="1px"></line><line x1="33.80361325232852" y1="0" x2="33.80361325232852" y2="5" style="visibility: inherit;" fill="rgb(0, 0, 0)" stroke="rgb(204, 204, 204)" stroke-width="1px"></line><line x1="64.77647760758123" y1="0" x2="64.77647760758123" y2="5" style="visibility: inherit;" fill="rgb(0, 0, 0)" stroke="rgb(204, 204, 204)" stroke-width="1px"></line><line x1="95.74934196283392" y1="0" x2="95.74934196283392" y2="5" style="visibility: inherit;" fill="rgb(0, 0, 0)" stroke="rgb(204, 204, 204)" stroke-width="1px"></line><line x1="126.72220631808665" y1="0" x2="126.72220631808665" y2="5" style="visibility: inherit;" fill="rgb(0, 0, 0)" stroke="rgb(204, 204, 204)" stroke-width="1px"></line><line x1="157.69507067333933" y1="0" x2="157.69507067333933" y2="5" style="visibility: inherit;" fill="rgb(0, 0, 0)" stroke="rgb(204, 204, 204)" stroke-width="1px"></line><line x1="188.66793502859207" y1="0" x2="188.66793502859207" y2="5" style="visibility: inherit;" fill="rgb(0, 0, 0)" stroke="rgb(204, 204, 204)" stroke-width="1px"></line><line x1="219.64079938384475" y1="0" x2="219.64079938384475" y2="5" style="visibility: inherit;" fill="rgb(0, 0, 0)" stroke="rgb(204, 204, 204)" stroke-width="1px"></line><line x1="250.61366373909743" y1="0" x2="250.61366373909743" y2="5" style="visibility: inherit;" fill="rgb(0, 0, 0)" stroke="rgb(204, 204, 204)" stroke-width="1px"></line><line x1="281.5865280943501" y1="0" x2="281.5865280943501" y2="5" style="visibility: inherit;" fill="rgb(0, 0, 0)" stroke="rgb(204, 204, 204)" stroke-width="1px"></line><line x1="312.55939244960285" y1="0" x2="312.55939244960285" y2="5" style="visibility: inherit;" fill="rgb(0, 0, 0)" stroke="rgb(204, 204, 204)" stroke-width="1px"></line><line x1="343.53225680485554" y1="0" x2="343.53225680485554" y2="5" style="visibility: inherit;" fill="rgb(0, 0, 0)" stroke="rgb(204, 204, 204)" stroke-width="1px"></line><line x1="374.5051211601083" y1="0" x2="374.5051211601083" y2="5" style="visibility: inherit;" fill="rgb(0, 0, 0)" stroke="rgb(204, 204, 204)" stroke-width="1px"></line><line x1="405.47798551536096" y1="0" x2="405.47798551536096" y2="5" style="visibility: inherit;" fill="rgb(0, 0, 0)" stroke="rgb(204, 204, 204)" stroke-width="1px"></line><line x1="436.4508498706137" y1="0" x2="436.4508498706137" y2="5" style="visibility: inherit;" fill="rgb(0, 0, 0)" stroke="rgb(204, 204, 204)" stroke-width="1px"></line><line x1="467.4237142258664" y1="0" x2="467.4237142258664" y2="5" style="visibility: inherit;" fill="rgb(0, 0, 0)" stroke="rgb(204, 204, 204)" stroke-width="1px"></line></g><g transform="translate(0, 8)"><text x="2.8307488970758126" y="0" dx="0em" dy="0.95em" style="text-anchor: middle; visibility: inherit; font-family: Roboto, sans-serif; font-size: 12px; font-weight: 200;" fill="rgb(33, 33, 33)" stroke="none" stroke-width="1px">0</text><text x="33.80361325232852" y="0" dx="0em" dy="0.95em" style="text-anchor: middle; visibility: inherit; font-family: Roboto, sans-serif; font-size: 12px; font-weight: 200;" fill="rgb(33, 33, 33)" stroke="none" stroke-width="1px">2</text><text x="64.77647760758123" y="0" dx="0em" dy="0.95em" style="text-anchor: middle; visibility: inherit; font-family: Roboto, sans-serif; font-size: 12px; font-weight: 200;" fill="rgb(33, 33, 33)" stroke="none" stroke-width="1px">4</text><text x="95.74934196283392" y="0" dx="0em" dy="0.95em" style="text-anchor: middle; visibility: inherit; font-family: Roboto, sans-serif; font-size: 12px; font-weight: 200;" fill="rgb(33, 33, 33)" stroke="none" stroke-width="1px">6</text><text x="126.72220631808665" y="0" dx="0em" dy="0.95em" style="text-anchor: middle; visibility: inherit; font-family: Roboto, sans-serif; font-size: 12px; font-weight: 200;" fill="rgb(33, 33, 33)" stroke="none" stroke-width="1px">8</text><text x="157.69507067333933" y="0" dx="0em" dy="0.95em" style="text-anchor: middle; visibility: inherit; font-family: Roboto, sans-serif; font-size: 12px; font-weight: 200;" fill="rgb(33, 33, 33)" stroke="none" stroke-width="1px">10</text><text x="188.66793502859207" y="0" dx="0em" dy="0.95em" style="text-anchor: middle; visibility: inherit; font-family: Roboto, sans-serif; font-size: 12px; font-weight: 200;" fill="rgb(33, 33, 33)" stroke="none" stroke-width="1px">12</text><text x="219.64079938384475" y="0" dx="0em" dy="0.95em" style="text-anchor: middle; visibility: inherit; font-family: Roboto, sans-serif; font-size: 12px; font-weight: 200;" fill="rgb(33, 33, 33)" stroke="none" stroke-width="1px">14</text><text x="250.61366373909743" y="0" dx="0em" dy="0.95em" style="text-anchor: middle; visibility: inherit; font-family: Roboto, sans-serif; font-size: 12px; font-weight: 200;" fill="rgb(33, 33, 33)" stroke="none" stroke-width="1px">16</text><text x="281.5865280943501" y="0" dx="0em" dy="0.95em" style="text-anchor: middle; visibility: inherit; font-family: Roboto, sans-serif; font-size: 12px; font-weight: 200;" fill="rgb(33, 33, 33)" stroke="none" stroke-width="1px">18</text><text x="312.55939244960285" y="0" dx="0em" dy="0.95em" style="text-anchor: middle; visibility: inherit; font-family: Roboto, sans-serif; font-size: 12px; font-weight: 200;" fill="rgb(33, 33, 33)" stroke="none" stroke-width="1px">20</text><text x="343.53225680485554" y="0" dx="0em" dy="0.95em" style="text-anchor: middle; visibility: inherit; font-family: Roboto, sans-serif; font-size: 12px; font-weight: 200;" fill="rgb(33, 33, 33)" stroke="none" stroke-width="1px">22</text><text x="374.5051211601083" y="0" dx="0em" dy="0.95em" style="text-anchor: middle; visibility: inherit; font-family: Roboto, sans-serif; font-size: 12px; font-weight: 200;" fill="rgb(33, 33, 33)" stroke="none" stroke-width="1px">24</text><text x="405.47798551536096" y="0" dx="0em" dy="0.95em" style="text-anchor: middle; visibility: inherit; font-family: Roboto, sans-serif; font-size: 12px; font-weight: 200;" fill="rgb(33, 33, 33)" stroke="none" stroke-width="1px">26</text><text x="436.4508498706137" y="0" dx="0em" dy="0.95em" style="text-anchor: middle; visibility: inherit; font-family: Roboto, sans-serif; font-size: 12px; font-weight: 200;" fill="rgb(33, 33, 33)" stroke="none" stroke-width="1px">28</text><text x="467.4237142258664" y="0" dx="0em" dy="0.95em" style="text-anchor: middle; visibility: inherit; font-family: Roboto, sans-serif; font-size: 12px; font-weight: 200;" fill="rgb(33, 33, 33)" stroke="none" stroke-width="1px">30</text></g><line x1="0" y1="0" x2="479" y2="0" fill="rgb(0, 0, 0)" stroke="rgb(204, 204, 204)" stroke-width="1px"></line></g></g></g></g></svg>