<svg viewBox="0 0 539 400" xmlns="http://www.w3.org/2000/svg"><g><g><g><g><g><line x1="50" y1="355.5557773378123" x2="45" y2="355.5557773378123" style="visibility: inherit;" fill="rgb(0, 0, 0)" stroke="rgb(204, 204, 204)" stroke-width="1px"></line><line x1="50" y1="320.67667730284927" x2="45" y2="320.67667730284927" style="visibility: inherit;" fill="rgb(0, 0, 0)" stroke="rgb(204, 204, 204)" stroke-width="1px"></line><line x1="50" y1="285.7975772678864" x2="45" y2="285.7975772678864" style="visibility: inherit;" fill="rgb(0, 0, 0)" stroke="rgb(204, 204, 204)" stroke-width="1px"></line><line x1="50" y1="250.91847723292338" x2="45" y2="250.91847723292338" style="visibility: inherit;" fill="rgb(0, 0, 0)" stroke="rgb(204, 204, 204)" stroke-width="1px"></line><line x1="50" y1="216.03937719796036" x2="45" y2="216.03937719796036" style="visibility: inherit;" fill="rgb(0, 0, 0)" stroke="rgb(204, 204, 204)" stroke-width="1px"></line><line x1="50" y1="181.16027716299732" x2="45" y2="181.16027716299732" style="visibility: inherit;" fill="rgb(0, 0, 0)" stroke="rgb(204, 204, 204)" stroke-width="1px"></line><line x1="50" y1="146.28117712803433" x2="45" y2="146.28117712803433" style="visibility: inherit;" fill="rgb(0, 0, 0)" stroke="rgb(204, 204, 204)" stroke-width="1px"></line><line x1="50" y1="111.40207709307131" x2="45" y2="111.40207709307131" style="visibility: inherit;" fill="rgb(0, 0, 0)" stroke="rgb(204, 204, 204)" stroke-width="1px"></line><line x1="50" y1="76.52297705810827" x2="45" y2="76.52297705810827" style="visibility: inherit;" fill="rgb(0, 0, 0)" stroke="rgb(204, 204, 204)" stroke-width="1px"></line><line x1="50" y1="41.64387702314526" x2="45" y2="41.64387702314526" style="visibility: inherit;" fill="rgb(0, 0, 0)" stroke="rgb(204, 204, 204)" stroke-width="1px"></line><line x1="50" y1="6.764776988182215" x2="45" y2="6.764776988182215" style="visibility: inherit;" fill="rgb(0, 0, 0)" stroke="rgb(204, 204, 204)" stroke-width="1px"></line></g><g transform="translate(40, 0)"><text x="0" y="355.5557773378123" dx="0em" dy="0.3em" style="text-anchor: end; visibility: inherit; font-family: Roboto, sans-serif; font-size: 12px; font-weight: 200;" fill="rgb(33, 33, 33)" stroke="none" stroke-width="1px">0.45</text><text x="0" y="320.67667730284927" dx="0em" dy="0.3em" style="text-anchor: end; visibility: inherit; font-family: Roboto, sans-serif; font-size: 12px; font-weight: 200;" fill="rgb(33, 33, 33)" stroke="none" stroke-width="1px">0.46</text><text x="0" y="285.7975772678864" dx="0em" dy="0.3em" style="text-anchor: end; visibility: inherit; font-family: Roboto, sans-serif; font-size: 12px; font-weight: 200;" fill="rgb(33, 33, 33)" stroke="none" stroke-width="1px">0.47</text><text x="0" y="250.91847723292338" dx="0em" dy="0.3em" style="text-anchor: end; visibility: inherit; font-family: Roboto, sans-serif; font-size: 12px; font-weight: 200;" fill="rgb(33, 33, 33)" stroke="none" stroke-width="1px">0.48</text><text x="0" y="216.03937719796036" dx="0em" dy="0.3em" style="text-anchor: end; visibility: inherit; font-family: Roboto, sans-serif; font-size: 12px; font-weight: 200;" fill="rgb(33, 33, 33)" stroke="none" stroke-width="1px">0.49</text><text x="0" y="181.16027716299732" dx="0em" dy="0.3em" style="text-anchor: end; visibility: inherit; font-family: Roboto, sans-serif; font-size: 12px; font-weight: 200;" fill="rgb(33, 33, 33)" stroke="none" stroke-width="1px">0.5</text><text x="0" y="146.28117712803433" dx="0em" dy="0.3em" style="text-anchor: end; visibility: inherit; font-family: Roboto, sans-serif; font-size: 12px; font-weight: 200;" fill="rgb(33, 33, 33)" stroke="none" stroke-width="1px">0.51</text><text x="0" y="111.40207709307131" dx="0em" dy="0.3em" style="text-anchor: end; visibility: inherit; font-family: Roboto, sans-serif; font-size: 12px; font-weight: 200;" fill="rgb(33, 33, 33)" stroke="none" stroke-width="1px">0.52</text><text x="0" y="76.52297705810827" dx="0em" dy="0.3em" style="text-anchor: end; visibility: inherit; font-family: Roboto, sans-serif; font-size: 12px; font-weight: 200;" fill="rgb(33, 33, 33)" stroke="none" stroke-width="1px">0.53</text><text x="0" y="41.64387702314526" dx="0em" dy="0.3em" style="text-anchor: end; visibility: inherit; font-family: Roboto, sans-serif; font-size: 12px; font-weight: 200;" fill="rgb(33, 33, 33)" stroke="none" stroke-width="1px">0.54</text><text x="0" y="6.764776988182215" dx="0em" dy="0.3em" style="text-anchor: end; visibility: inherit; font-family: Roboto, sans-serif; font-size: 12px; font-weight: 200;" fill="rgb(33, 33, 33)" stroke="none" stroke-width="1px">0.55</text></g><line x1="50" y1="0" x2="50" y2="377" fill="rgb(0, 0, 0)" stroke="rgb(204, 204, 204)" stroke-width="1px"></line></g></g><g transform="translate(50, 0)" clip-path="url(#clip_0)"><clipPath id="clip_0"><rect width="506" height="377"></rect></clipPath><g><g><g><line x1="4.3836224082222355" y1="0" x2="4.3836224082222355" y2="377" fill="rgb(0, 0, 0)" stroke="rgb(66, 66, 66)" stroke-width="1px" opacity="0.25"></line><line x1="84.13536739014538" y1="0" x2="84.13536739014538" y2="377" fill="rgb(0, 0, 0)" stroke="rgb(66, 66, 66)" stroke-width="1px" opacity="0.25"></line><line x1="163.88711237206854" y1="0" x2="163.88711237206854" y2="377" fill="rgb(0, 0, 0)" stroke="rgb(66, 66, 66)" stroke-width="1px" opacity="0.25"></line><line x1="243.63885735399165" y1="0" x2="243.63885735399165" y2="377" fill="rgb(0, 0, 0)" stroke="rgb(66, 66, 66)" stroke-width="1px" opacity="0.25"></line><line x1="323.39060233591476" y1="0" x2="323.39060233591476" y2="377" fill="rgb(0, 0, 0)" stroke="rgb(66, 66, 66)" stroke-width="1px" opacity="0.25"></line><line x1="403.1423473178379" y1="0" x2="403.1423473178379" y2="377" fill="rgb(0, 0, 0)" stroke="rgb(66, 66, 66)" stroke-width="1px" opacity="0.25"></line><line x1="482.89409229976104" y1="0" x2="482.89409229976104" y2="377" fill="rgb(0, 0, 0)" stroke="rgb(66, 66, 66)" stroke-width="1px" opacity="0.25"></line></g><g><line x1="0" y1="355.5557773378123" x2="506" y2="355.5557773378123" fill="rgb(0, 0, 0)" stroke="rgb(66, 66, 66)" stroke-width="1px" opacity="0.25"></line><line x1="0" y1="320.67667730284927" x2="506" y2="320.67667730284927" fill="rgb(0, 0, 0)" stroke="rgb(66, 66, 66)" stroke-width="1px" opacity="0.25"></line><line x1="0" y1="285.7975772678864" x2="506" y2="285.7975772678864" fill="rgb(0, 0, 0)" stroke="rgb(66, 66, 66)" stroke-width="1px" opacity="0.25"></line><line x1="0" y1="250.91847723292338" x2="506" y2="250.91847723292338" fill="rgb(0, 0, 0)" stroke="rgb(66, 66, 66)" stroke-width="1px" opacity="0.25"></line><line x1="0" y1="216.03937719796036" x2="506" y2="216.03937719796036" fill="rgb(0, 0, 0)" stroke="rgb(66, 66, 66)" stroke-width="1px" opacity="0.25"></line><line x1="0" y1="181.16027716299732" x2="506" y2="181.16027716299732" fill="rgb(0, 0, 0)" stroke="rgb(66, 66, 66)" stroke-width="1px" opacity="0.25"></line><line x1="0" y1="146.28117712803433" x2="506" y2="146.28117712803433" fill="rgb(0, 0, 0)" stroke="rgb(66, 66, 66)" stroke-width="1px" opacity="0.25"></line><line x1="0" y1="111.40207709307131" x2="506" y2="111.40207709307131" fill="rgb(0, 0, 0)" stroke="rgb(66, 66, 66)" stroke-width="1px" opacity="0.25"></line><line x1="0" y1="76.52297705810827" x2="506" y2="76.52297705810827" fill="rgb(0, 0, 0)" stroke="rgb(66, 66, 66)" stroke-width="1px" opacity="0.25"></line><line x1="0" y1="41.64387702314526" x2="506" y2="41.64387702314526" fill="rgb(0, 0, 0)" stroke="rgb(66, 66, 66)" stroke-width="1px" opacity="0.25"></line><line x1="0" y1="6.764776988182215" x2="506" y2="6.764776988182215" fill="rgb(0, 0, 0)" stroke="rgb(66, 66, 66)" stroke-width="1px" opacity="0.25"></line></g></g></g><g><g><line x1="0" y1="1925.1152789111468" x2="506" y2="1925.1152789111468" fill="rgb(0, 0, 0)" stroke="rgb(153, 153, 153)" stroke-width="1.5px"></line></g></g><g><g><line x1="4.3836224082222355" y1="0" x2="4.3836224082222355" y2="377" fill="rgb(0, 0, 0)" stroke="rgb(153, 153, 153)" stroke-width="1.5px"></line></g></g><g><g><g><g><g><path stroke="rgb(204, 51, 17)" stroke-width="2px" d="M4.3836224082222355,181.16027716299732L20.333971404606864,218.2656983087955L36.2843204009915,181.16027716299732L52.23466939737612,207.66416425968436L68.18501839376076,170.55863916606782L84.13536739014538,133.45321802026967L100.08571638653001,122.85178791897694L116.03606538291463,80.4456517225324L131.98641437929928,96.34779687447154L147.9367633756839,101.64871982075468L163.88711237206854,234.1680513563714L179.83746136845315,75.14472877624928L195.78781036483775,112.25014992204744L211.7381593612224,138.75414096655282L227.68850835760702,112.25014992204744L243.63885735399165,207.66416425968436L259.58920635037623,170.55863916606782L275.5395553467609,149.35557106784557L291.4899043431455,144.0548560171992L307.44025333953016,149.35557106784557L323.39060233591476,154.6564940141287L339.3409513322994,154.6564940141287L355.29130032868403,144.0548560171992L371.24164932506864,133.45321802026967" style="fill: none;" fill="none"></path></g><g><path stroke="rgb(51, 187, 238)" stroke-width="2px" d="M4.3836224082222355,181.16027716299732L20.333971404606864,181.16027716299732L36.2843204009915,175.85956211235094L52.23466939737612,117.55107286833058L68.18501839376076,223.5665173072602L84.13536739014538,276.5741875528159L100.08571638653001,265.97265350370475L116.03606538291463,170.55863916606782L131.98641437929928,234.1680513563714L147.9367633756839,281.87500655128065L163.88711237206854,239.46876640701774L179.83746136845315,228.8672323579066L195.78781036483775,197.06263021057322L211.7381593612224,165.25792411542147L227.68850835760702,271.2734725021695L243.63885735399165,149.35557106784557" style="fill: none;" fill="none"></path></g><g><path stroke="rgb(238, 51, 119)" stroke-width="2px" d="M4.3836224082222355,165.25792411542147L20.333971404606864,223.5665173072602L36.2843204009915,223.5665173072602L52.23466939737612,175.85956211235094L68.18501839376076,218.2656983087955L84.13536739014538,154.6564940141287L100.08571638653001,191.76181121210848L116.03606538291463,149.35557106784557L131.98641437929928,207.66416425968436L147.9367633756839,255.37111945459364L163.88711237206854,154.6564940141287L179.83746136845315,101.64871982075468L195.78781036483775,159.9572090647751L211.7381593612224,128.1525029696233L227.68850835760702,159.9572090647751L243.63885735399165,106.94943487140104L259.58920635037623,212.9648793103307L275.5395553467609,144.0548560171992L291.4899043431455,181.16027716299732L307.44025333953016,186.46109616146208L323.39060233591476,223.5665173072602L339.3409513322994,207.66416425968436L355.29130032868403,197.06263021057322L371.24164932506864,265.97265350370475" style="fill: none;" fill="none"></path></g><g><path stroke="rgb(0, 153, 136)" stroke-width="2px" d="M4.3836224082222355,181.16027716299732L20.333971404606864,170.55863916606782L36.2843204009915,181.16027716299732L52.23466939737612,175.85956211235094L68.18501839376076,191.76181121210848L84.13536739014538,154.6564940141287L100.08571638653001,154.6564940141287L116.03606538291463,197.06263021057322L131.98641437929928,212.9648793103307L147.9367633756839,186.46109616146208L163.88711237206854,117.55107286833058L179.83746136845315,186.46109616146208L195.78781036483775,191.76181121210848L211.7381593612224,197.06263021057322L227.68850835760702,154.6564940141287L243.63885735399165,228.8672323579066L259.58920635037623,170.55863916606782L275.5395553467609,223.5665173072602L291.4899043431455,197.06263021057322L307.44025333953016,250.07040440394724L323.39060233591476,186.46109616146208L339.3409513322994,170.55863916606782L355.29130032868403,276.5741875528159" style="fill: none;" fill="none"></path></g><g><path style="fill: none;" stroke="rgb(0, 119, 187)" stroke-width="2px" d="M4.3836224082222355,186.46109616146208L20.333971404606864,292.4765406003918L36.2843204009915,234.1680513563714L52.23466939737612,212.9648793103307L68.18501839376076,260.67193845305843L84.13536739014538,191.76181121210848L100.08571638653001,234.1680513563714L116.03606538291463,212.9648793103307L131.98641437929928,239.46876640701774L147.9367633756839,371.98820189045284L163.88711237206854,345.4843147937658L179.83746136845315,271.2734725021695" fill="none"></path></g><g><path stroke="rgb(204, 51, 17)" stroke-width="2px" d="M4.3836224082222355,159.9572090647751L20.333971404606864,11.535524481582492L36.2843204009915,186.46109616146208L52.23466939737612,191.76181121210848L68.18501839376076,159.9572090647751L84.13536739014538,197.06263021057322L100.08571638653001,218.2656983087955L116.03606538291463,170.55863916606782L131.98641437929928,191.76181121210848L147.9367633756839,165.25792411542147L163.88711237206854,228.8672323579066L179.83746136845315,191.76181121210848L195.78781036483775,276.5741875528159L211.7381593612224,159.9572090647751" style="fill: none;" fill="none"></path></g><g><path stroke="rgb(51, 187, 238)" stroke-width="2px" d="M4.3836224082222355,181.16027716299732L20.333971404606864,181.16027716299732L36.2843204009915,181.16027716299732L52.23466939737612,96.34779687447154L68.18501839376076,250.07040440394724L84.13536739014538,287.1758255497454L100.08571638653001,181.16027716299732L116.03606538291463,244.76958540548247L131.98641437929928,186.46109616146208L147.9367633756839,340.18349579530104L163.88711237206854,207.66416425968436L179.83746136845315,202.3633452612196L195.78781036483775,181.16027716299732L211.7381593612224,170.55863916606782L227.68850835760702,255.37111945459364L243.63885735399165,91.04708182382518L259.58920635037623,165.25792411542147L275.5395553467609,218.2656983087955L291.4899043431455,191.76181121210848L307.44025333953016,265.97265350370475L323.39060233591476,281.87500655128065L339.3409513322994,324.2812466955436L355.29130032868403,292.4765406003918L371.24164932506864,276.5741875528159L387.1919983214533,186.46109616146208L403.1423473178379,218.2656983087955L419.09269631422256,334.88278074465467L435.04304531060717,271.2734725021695" style="fill: none;" fill="none"></path></g><g><path stroke="rgb(238, 51, 119)" stroke-width="2px" d="M4.3836224082222355,181.16027716299732L20.333971404606864,181.16027716299732L36.2843204009915,212.9648793103307L52.23466939737612,128.1525029696233L68.18501839376076,244.76958540548247L84.13536739014538,218.2656983087955L100.08571638653001,154.6564940141287L116.03606538291463,106.94943487140104L131.98641437929928,149.35557106784557L147.9367633756839,207.66416425968436L163.88711237206854,170.55863916606782L179.83746136845315,239.46876640701774L195.78781036483775,202.3633452612196L211.7381593612224,297.77735959885655L227.68850835760702,218.2656983087955L243.63885735399165,276.5741875528159L259.58920635037623,133.45321802026967L275.5395553467609,159.9572090647751L291.4899043431455,144.0548560171992L307.44025333953016,181.16027716299732" style="fill: none;" fill="none"></path></g><g><path stroke="rgb(255, 112, 67)" stroke-width="2px" d="M4.3836224082222355,181.16027716299732L20.333971404606864,202.3633452612196L36.2843204009915,165.25792411542147L52.23466939737612,191.76181121210848L68.18501839376076,260.67193845305843L84.13536739014538,239.46876640701774L100.08571638653001,133.45321802026967L116.03606538291463,165.25792411542147L131.98641437929928,197.06263021057322L147.9367633756839,149.35557106784557L163.88711237206854,144.0548560171992L179.83746136845315,138.75414096655282L195.78781036483775,106.94943487140104L211.7381593612224,122.85178791897694L227.68850835760702,165.25792411542147L243.63885735399165,122.85178791897694L259.58920635037623,159.9572090647751L275.5395553467609,170.55863916606782L291.4899043431455,159.9572090647751L307.44025333953016,106.94943487140104L323.39060233591476,117.55107286833058L339.3409513322994,144.0548560171992L355.29130032868403,218.2656983087955L371.24164932506864,212.9648793103307L387.1919983214533,170.55863916606782" style="fill: none;" fill="none"></path></g><g><path stroke="rgb(0, 119, 187)" stroke-width="2px" d="M4.3836224082222355,181.16027716299732L20.333971404606864,181.16027716299732L36.2843204009915,181.16027716299732L52.23466939737612,181.16027716299732L68.18501839376076,181.16027716299732L84.13536739014538,197.06263021057322L100.08571638653001,228.8672323579066L116.03606538291463,175.85956211235094L131.98641437929928,202.3633452612196L147.9367633756839,165.25792411542147L163.88711237206854,234.1680513563714L179.83746136845315,191.76181121210848L195.78781036483775,228.8672323579066L211.7381593612224,218.2656983087955L227.68850835760702,197.06263021057322L243.63885735399165,159.9572090647751L259.58920635037623,218.2656983087955L275.5395553467609,212.9648793103307L291.4899043431455,207.66416425968436L307.44025333953016,218.2656983087955L323.39060233591476,202.3633452612196L339.3409513322994,122.85178791897694L355.29130032868403,144.0548560171992L371.24164932506864,212.9648793103307L387.1919983214533,133.45321802026967L403.1423473178379,144.0548560171992L419.09269631422256,154.6564940141287L435.04304531060717,207.66416425968436L450.99339430699183,202.3633452612196L466.94374330337644,223.5665173072602" style="fill: none;" fill="none"></path></g><g><path stroke="rgb(204, 51, 17)" stroke-width="2px" d="M4.3836224082222355,186.46109616146208L20.333971404606864,122.85178791897694L36.2843204009915,122.85178791897694L52.23466939737612,149.35557106784557L68.18501839376076,69.84401372560292L84.13536739014538,186.46109616146208L100.08571638653001,207.66416425968436L116.03606538291463,96.34779687447154L131.98641437929928,207.66416425968436L147.9367633756839,170.55863916606782L163.88711237206854,191.76181121210848L179.83746136845315,170.55863916606782L195.78781036483775,138.75414096655282L211.7381593612224,170.55863916606782L227.68850835760702,133.45321802026967L243.63885735399165,175.85956211235094L259.58920635037623,175.85956211235094" style="fill: none;" fill="none"></path></g><g><path stroke="rgb(51, 187, 238)" stroke-width="2px" d="M4.3836224082222355,265.97265350370475L20.333971404606864,197.06263021057322L36.2843204009915,181.16027716299732L52.23466939737612,181.16027716299732L68.18501839376076,170.55863916606782L84.13536739014538,207.66416425968436L100.08571638653001,149.35557106784557L116.03606538291463,276.5741875528159L131.98641437929928,207.66416425968436L147.9367633756839,218.2656983087955L163.88711237206854,329.5819617461899L179.83746136845315,239.46876640701774L195.78781036483775,191.76181121210848L211.7381593612224,223.5665173072602L227.68850835760702,144.0548560171992L243.63885735399165,207.66416425968436L259.58920635037623,191.76181121210848L275.5395553467609,181.16027716299732L291.4899043431455,165.25792411542147L307.44025333953016,191.76181121210848L323.39060233591476,165.25792411542147L339.3409513322994,223.5665173072602L355.29130032868403,138.75414096655282L371.24164932506864,154.6564940141287L387.1919983214533,138.75414096655282L403.1423473178379,165.25792411542147L419.09269631422256,149.35557106784557L435.04304531060717,159.9572090647751L450.99339430699183,138.75414096655282L466.94374330337644,202.3633452612196" style="fill: none;" fill="none"></path></g><g><path stroke="rgb(187, 187, 187)" stroke-width="2px" d="M4.3836224082222355,181.16027716299732L20.333971404606864,181.16027716299732L36.2843204009915,218.2656983087955L52.23466939737612,207.66416425968436L68.18501839376076,212.9648793103307L84.13536739014538,112.25014992204744L100.08571638653001,159.9572090647751L116.03606538291463,165.25792411542147L131.98641437929928,265.97265350370475L147.9367633756839,223.5665173072602L163.88711237206854,223.5665173072602L179.83746136845315,228.8672323579066L195.78781036483775,175.85956211235094L211.7381593612224,133.45321802026967L227.68850835760702,181.16027716299732L243.63885735399165,149.35557106784557L259.58920635037623,202.3633452612196L275.5395553467609,144.0548560171992" style="fill: none;" fill="none"></path></g><g><path stroke="rgb(255, 112, 67)" stroke-width="2px" d="M4.3836224082222355,181.16027716299732L20.333971404606864,181.16027716299732L36.2843204009915,197.06263021057322L52.23466939737612,212.9648793103307L68.18501839376076,181.16027716299732L84.13536739014538,255.37111945459364L100.08571638653001,350.7850298444121L116.03606538291463,202.3633452612196L131.98641437929928,170.55863916606782L147.9367633756839,350.7850298444121L163.88711237206854,308.3788936479677L179.83746136845315,228.8672323579066L195.78781036483775,234.1680513563714L211.7381593612224,276.5741875528159L227.68850835760702,244.76958540548247L243.63885735399165,191.76181121210848L259.58920635037623,186.46109616146208L275.5395553467609,239.46876640701774L291.4899043431455,186.46109616146208L307.44025333953016,144.0548560171992L323.39060233591476,212.9648793103307L339.3409513322994,181.16027716299732L355.29130032868403,191.76181121210848L371.24164932506864,218.2656983087955L387.1919983214533,244.76958540548247L403.1423473178379,244.76958540548247L419.09269631422256,197.06263021057322L435.04304531060717,239.46876640701774L450.99339430699183,175.85956211235094L466.94374330337644,308.3788936479677" style="fill: none;" fill="none"></path></g><g><path stroke="rgb(0, 119, 187)" stroke-width="2px" d="M4.3836224082222355,159.9572090647751L20.333971404606864,181.16027716299732L36.2843204009915,181.16027716299732L52.23466939737612,181.16027716299732L68.18501839376076,244.76958540548247L84.13536739014538,175.85956211235094L100.08571638653001,144.0548560171992L116.03606538291463,197.06263021057322L131.98641437929928,191.76181121210848L147.9367633756839,149.35557106784557L163.88711237206854,170.55863916606782L179.83746136845315,138.75414096655282L195.78781036483775,191.76181121210848L211.7381593612224,212.9648793103307L227.68850835760702,191.76181121210848L243.63885735399165,186.46109616146208L259.58920635037623,218.2656983087955L275.5395553467609,175.85956211235094L291.4899043431455,186.46109616146208L307.44025333953016,281.87500655128065L323.39060233591476,133.45321802026967L339.3409513322994,223.5665173072602L355.29130032868403,244.76958540548247L371.24164932506864,202.3633452612196L387.1919983214533,212.9648793103307L403.1423473178379,186.46109616146208L419.09269631422256,181.16027716299732L435.04304531060717,271.2734725021695L450.99339430699183,276.5741875528159L466.94374330337644,260.67193845305843" style="fill: none;" fill="none"></path></g><g><path stroke="rgb(204, 51, 17)" stroke-width="2px" d="M4.3836224082222355,170.55863916606782L20.333971404606864,197.06263021057322L36.2843204009915,212.9648793103307L52.23466939737612,191.76181121210848L68.18501839376076,186.46109616146208L84.13536739014538,239.46876640701774L100.08571638653001,223.5665173072602L116.03606538291463,197.06263021057322L131.98641437929928,223.5665173072602L147.9367633756839,239.46876640701774L163.88711237206854,186.46109616146208L179.83746136845315,165.25792411542147L195.78781036483775,265.97265350370475L211.7381593612224,223.5665173072602L227.68850835760702,149.35557106784557L243.63885735399165,207.66416425968436L259.58920635037623,239.46876640701774L275.5395553467609,154.6564940141287L291.4899043431455,207.66416425968436L307.44025333953016,191.76181121210848L323.39060233591476,154.6564940141287L339.3409513322994,117.55107286833058L355.29130032868403,117.55107286833058L371.24164932506864,175.85956211235094L387.1919983214533,170.55863916606782L403.1423473178379,128.1525029696233L419.09269631422256,191.76181121210848L435.04304531060717,165.25792411542147L450.99339430699183,106.94943487140104L466.94374330337644,159.9572090647751" style="fill: none;" fill="none"></path></g><g><path stroke="rgb(0, 153, 136)" stroke-width="2px" d="M4.3836224082222355,96.34779687447154L20.333971404606864,186.46109616146208L36.2843204009915,191.76181121210848L52.23466939737612,212.9648793103307L68.18501839376076,128.1525029696233L84.13536739014538,144.0548560171992L100.08571638653001,234.1680513563714L116.03606538291463,170.55863916606782L131.98641437929928,159.9572090647751L147.9367633756839,165.25792411542147L163.88711237206854,159.9572090647751L179.83746136845315,59.24237572867338L195.78781036483775,128.1525029696233L211.7381593612224,106.94943487140104L227.68850835760702,64.54329867495655L243.63885735399165,186.46109616146208L259.58920635037623,154.6564940141287L275.5395553467609,69.84401372560292L291.4899043431455,144.0548560171992L307.44025333953016,122.85178791897694L323.39060233591476,128.1525029696233L339.3409513322994,101.64871982075468L355.29130032868403,170.55863916606782L371.24164932506864,75.14472877624928" style="fill: none;" fill="none"></path></g><g><path stroke="rgb(187, 187, 187)" stroke-width="2px" d="M4.3836224082222355,159.9572090647751L20.333971404606864,165.25792411542147L36.2843204009915,175.85956211235094L52.23466939737612,175.85956211235094L68.18501839376076,165.25792411542147L84.13536739014538,159.9572090647751L100.08571638653001,149.35557106784557L116.03606538291463,154.6564940141287L131.98641437929928,159.9572090647751L147.9367633756839,181.16027716299732L163.88711237206854,239.46876640701774L179.83746136845315,228.8672323579066L195.78781036483775,212.9648793103307L211.7381593612224,186.46109616146208L227.68850835760702,191.76181121210848L243.63885735399165,159.9572090647751L259.58920635037623,212.9648793103307L275.5395553467609,197.06263021057322L291.4899043431455,271.2734725021695" style="fill: none;" fill="none"></path></g><g><path stroke="rgb(255, 112, 67)" stroke-width="2px" d="M4.3836224082222355,228.8672323579066L20.333971404606864,128.1525029696233L36.2843204009915,212.9648793103307L52.23466939737612,191.76181121210848L68.18501839376076,85.74636677317878L84.13536739014538,260.67193845305843L100.08571638653001,128.1525029696233L116.03606538291463,197.06263021057322L131.98641437929928,175.85956211235094L147.9367633756839,181.16027716299732L163.88711237206854,170.55863916606782L179.83746136845315,149.35557106784557L195.78781036483775,239.46876640701774L211.7381593612224,170.55863916606782L227.68850835760702,202.3633452612196L243.63885735399165,159.9572090647751L259.58920635037623,112.25014992204744" style="fill: none;" fill="none"></path></g><g><path stroke="rgb(0, 119, 187)" stroke-width="2px" d="M4.3836224082222355,175.85956211235094L20.333971404606864,165.25792411542147L36.2843204009915,197.06263021057322L52.23466939737612,297.77735959885655L68.18501839376076,175.85956211235094L84.13536739014538,234.1680513563714L100.08571638653001,186.46109616146208L116.03606538291463,255.37111945459364L131.98641437929928,250.07040440394724L147.9367633756839,244.76958540548247L163.88711237206854,175.85956211235094L179.83746136845315,159.9572090647751L195.78781036483775,186.46109616146208L211.7381593612224,244.76958540548247L227.68850835760702,202.3633452612196L243.63885735399165,212.9648793103307L259.58920635037623,133.45321802026967L275.5395553467609,101.64871982075468L291.4899043431455,165.25792411542147L307.44025333953016,106.94943487140104L323.39060233591476,170.55863916606782L339.3409513322994,122.85178791897694L355.29130032868403,191.76181121210848L371.24164932506864,175.85956211235094L387.1919983214533,122.85178791897694L403.1423473178379,128.1525029696233L419.09269631422256,144.0548560171992L435.04304531060717,197.06263021057322L450.99339430699183,175.85956211235094L466.94374330337644,149.35557106784557" style="fill: none;" fill="none"></path></g><g><path stroke="rgb(238, 51, 119)" stroke-width="2px" d="M4.3836224082222355,207.66416425968436L20.333971404606864,303.0780746495029L36.2843204009915,128.1525029696233L52.23466939737612,181.16027716299732L68.18501839376076,112.25014992204744L84.13536739014538,202.3633452612196L100.08571638653001,350.7850298444121L116.03606538291463,191.76181121210848L131.98641437929928,207.66416425968436L147.9367633756839,170.55863916606782L163.88711237206854,144.0548560171992L179.83746136845315,175.85956211235094L195.78781036483775,234.1680513563714L211.7381593612224,154.6564940141287L227.68850835760702,80.4456517225324L243.63885735399165,207.66416425968436L259.58920635037623,101.64871982075468L275.5395553467609,191.76181121210848L291.4899043431455,186.46109616146208L307.44025333953016,260.67193845305843L323.39060233591476,181.16027716299732L339.3409513322994,122.85178791897694L355.29130032868403,80.4456517225324L371.24164932506864,239.46876640701774L387.1919983214533,255.37111945459364L403.1423473178379,159.9572090647751L419.09269631422256,165.25792411542147" style="fill: none;" fill="none"></path></g><g><path stroke="rgb(0, 153, 136)" stroke-width="2px" d="M4.3836224082222355,186.46109616146208L20.333971404606864,191.76181121210848L36.2843204009915,186.46109616146208L52.23466939737612,197.06263021057322L68.18501839376076,175.85956211235094L84.13536739014538,181.16027716299732L100.08571638653001,165.25792411542147L116.03606538291463,149.35557106784557L131.98641437929928,228.8672323579066L147.9367633756839,255.37111945459364L163.88711237206854,303.0780746495029L179.83746136845315,170.55863916606782L195.78781036483775,239.46876640701774L211.7381593612224,228.8672323579066L227.68850835760702,276.5741875528159L243.63885735399165,218.2656983087955L259.58920635037623,202.3633452612196L275.5395553467609,228.8672323579066L291.4899043431455,144.0548560171992L307.44025333953016,207.66416425968436L323.39060233591476,239.46876640701774L339.3409513322994,239.46876640701774L355.29130032868403,197.06263021057322L371.24164932506864,191.76181121210848L387.1919983214533,276.5741875528159L403.1423473178379,186.46109616146208L419.09269631422256,181.16027716299732L435.04304531060717,345.4843147937658L450.99339430699183,181.16027716299732L466.94374330337644,212.9648793103307" style="fill: none;" fill="none"></path></g><g><path stroke="rgb(187, 187, 187)" stroke-width="2px" d="M4.3836224082222355,223.5665173072602L20.333971404606864,165.25792411542147L36.2843204009915,207.66416425968436L52.23466939737612,313.679608698614L68.18501839376076,250.07040440394724L84.13536739014538,324.2812466955436L100.08571638653001,223.5665173072602L116.03606538291463,329.5819617461899L131.98641437929928,186.46109616146208L147.9367633756839,260.67193845305843L163.88711237206854,244.76958540548247L179.83746136845315,154.6564940141287L195.78781036483775,255.37111945459364L211.7381593612224,318.9804276970788L227.68850835760702,234.1680513563714L243.63885735399165,154.6564940141287L259.58920635037623,265.97265350370475L275.5395553467609,271.2734725021695L291.4899043431455,303.0780746495029L307.44025333953016,276.5741875528159L323.39060233591476,234.1680513563714L339.3409513322994,250.07040440394724L355.29130032868403,276.5741875528159L371.24164932506864,265.97265350370475" style="fill: none;" fill="none"></path></g><g><path stroke="rgb(255, 112, 67)" stroke-width="2px" d="M4.3836224082222355,297.77735959885655L20.333971404606864,228.8672323579066L36.2843204009915,191.76181121210848L52.23466939737612,149.35557106784557L68.18501839376076,154.6564940141287L84.13536739014538,212.9648793103307L100.08571638653001,202.3633452612196L116.03606538291463,223.5665173072602L131.98641437929928,228.8672323579066L147.9367633756839,271.2734725021695L163.88711237206854,170.55863916606782L179.83746136845315,128.1525029696233L195.78781036483775,212.9648793103307L211.7381593612224,144.0548560171992L227.68850835760702,122.85178791897694L243.63885735399165,128.1525029696233L259.58920635037623,175.85956211235094L275.5395553467609,186.46109616146208L291.4899043431455,133.45321802026967L307.44025333953016,202.3633452612196L323.39060233591476,175.85956211235094L339.3409513322994,212.9648793103307L355.29130032868403,149.35557106784557L371.24164932506864,165.25792411542147L387.1919983214533,101.64871982075468L403.1423473178379,170.55863916606782L419.09269631422256,112.25014992204744L435.04304531060717,191.76181121210848L450.99339430699183,122.85178791897694L466.94374330337644,165.25792411542147" style="fill: none;" fill="none"></path></g><g><path stroke="rgb(255, 112, 67)" stroke-width="2px" d="M4.3836224082222355,181.16027716299732L20.333971404606864,181.16027716299732L36.2843204009915,175.85956211235094L52.23466939737612,186.46109616146208L68.18501839376076,154.6564940141287L84.13536739014538,159.9572090647751L100.08571638653001,191.76181121210848L116.03606538291463,239.46876640701774L131.98641437929928,212.9648793103307L147.9367633756839,244.76958540548247L163.88711237206854,133.45321802026967L179.83746136845315,255.37111945459364L195.78781036483775,218.2656983087955L211.7381593612224,255.37111945459364L227.68850835760702,144.0548560171992L243.63885735399165,165.25792411542147L259.58920635037623,202.3633452612196L275.5395553467609,69.84401372560292L291.4899043431455,186.46109616146208L307.44025333953016,122.85178791897694L323.39060233591476,159.9572090647751L339.3409513322994,191.76181121210848L355.29130032868403,255.37111945459364L371.24164932506864,117.55107286833058L387.1919983214533,80.4456517225324L403.1423473178379,212.9648793103307L419.09269631422256,159.9572090647751L435.04304531060717,138.75414096655282L450.99339430699183,170.55863916606782L466.94374330337644,207.66416425968436" style="fill: none;" fill="none"></path></g><g><path stroke="rgb(0, 119, 187)" stroke-width="2px" d="M4.3836224082222355,181.16027716299732L20.333971404606864,207.66416425968436L36.2843204009915,144.0548560171992L52.23466939737612,191.76181121210848L68.18501839376076,181.16027716299732L84.13536739014538,234.1680513563714L100.08571638653001,144.0548560171992L116.03606538291463,181.16027716299732L131.98641437929928,170.55863916606782L147.9367633756839,181.16027716299732L163.88711237206854,159.9572090647751L179.83746136845315,228.8672323579066L195.78781036483775,106.94943487140104L211.7381593612224,38.03930763045112L227.68850835760702,244.76958540548247L243.63885735399165,212.9648793103307L259.58920635037623,181.16027716299732L275.5395553467609,122.85178791897694L291.4899043431455,159.9572090647751L307.44025333953016,159.9572090647751L323.39060233591476,181.16027716299732L339.3409513322994,144.0548560171992L355.29130032868403,144.0548560171992L371.24164932506864,228.8672323579066L387.1919983214533,159.9572090647751L403.1423473178379,128.1525029696233" style="fill: none;" fill="none"></path></g><g><path stroke="rgb(204, 51, 17)" stroke-width="2px" d="M4.3836224082222355,181.16027716299732L20.333971404606864,170.55863916606782L36.2843204009915,165.25792411542147L52.23466939737612,191.76181121210848L68.18501839376076,175.85956211235094L84.13536739014538,128.1525029696233L100.08571638653001,138.75414096655282L116.03606538291463,234.1680513563714L131.98641437929928,255.37111945459364L147.9367633756839,218.2656983087955L163.88711237206854,128.1525029696233L179.83746136845315,138.75414096655282L195.78781036483775,197.06263021057322L211.7381593612224,186.46109616146208L227.68850835760702,324.2812466955436L243.63885735399165,223.5665173072602L259.58920635037623,212.9648793103307L275.5395553467609,165.25792411542147" style="fill: none;" fill="none"></path></g><g><path stroke="rgb(51, 187, 238)" stroke-width="2px" d="M4.3836224082222355,170.55863916606782L20.333971404606864,144.0548560171992L36.2843204009915,218.2656983087955L52.23466939737612,181.16027716299732L68.18501839376076,308.3788936479677L84.13536739014538,239.46876640701774L100.08571638653001,170.55863916606782L116.03606538291463,228.8672323579066L131.98641437929928,191.76181121210848L147.9367633756839,144.0548560171992L163.88711237206854,244.76958540548247L179.83746136845315,250.07040440394724L195.78781036483775,250.07040440394724L211.7381593612224,207.66416425968436" style="fill: none;" fill="none"></path></g><g><path stroke="rgb(187, 187, 187)" stroke-width="2px" d="M4.3836224082222355,112.25014992204744L20.333971404606864,197.06263021057322L36.2843204009915,207.66416425968436L52.23466939737612,207.66416425968436L68.18501839376076,159.9572090647751L84.13536739014538,202.3633452612196L100.08571638653001,297.77735959885655L116.03606538291463,276.5741875528159L131.98641437929928,313.679608698614L147.9367633756839,250.07040440394724L163.88711237206854,271.2734725021695L179.83746136845315,329.5819617461899L195.78781036483775,271.2734725021695" style="fill: none;" fill="none"></path></g><g><path stroke="rgb(255, 112, 67)" stroke-width="2px" d="M4.3836224082222355,181.16027716299732L20.333971404606864,181.16027716299732L36.2843204009915,181.16027716299732L52.23466939737612,175.85956211235094L68.18501839376076,181.16027716299732L84.13536739014538,138.75414096655282L100.08571638653001,101.64871982075468L116.03606538291463,53.94166067802702L131.98641437929928,96.34779687447154L147.9367633756839,181.16027716299732L163.88711237206854,260.67193845305843L179.83746136845315,191.76181121210848L195.78781036483775,133.45321802026967L211.7381593612224,59.24237572867338L227.68850835760702,128.1525029696233L243.63885735399165,175.85956211235094L259.58920635037623,260.67193845305843L275.5395553467609,165.25792411542147L291.4899043431455,244.76958540548247L307.44025333953016,239.46876640701774" style="fill: none;" fill="none"></path></g><g><path stroke="rgb(0, 119, 187)" stroke-width="2px" d="M4.3836224082222355,186.46109616146208L20.333971404606864,181.16027716299732L36.2843204009915,181.16027716299732L52.23466939737612,212.9648793103307L68.18501839376076,181.16027716299732L84.13536739014538,186.46109616146208L100.08571638653001,197.06263021057322L116.03606538291463,191.76181121210848L131.98641437929928,244.76958540548247L147.9367633756839,356.08584884287694L163.88711237206854,276.5741875528159L179.83746136845315,255.37111945459364" style="fill: none;" fill="none"></path></g><g><path stroke="rgb(204, 51, 17)" stroke-width="2px" d="M4.3836224082222355,159.9572090647751L20.333971404606864,191.76181121210848L36.2843204009915,170.55863916606782L52.23466939737612,181.16027716299732L68.18501839376076,80.4456517225324L84.13536739014538,101.64871982075468L100.08571638653001,122.85178791897694L116.03606538291463,43.34002268109752L131.98641437929928,64.54329867495655L147.9367633756839,117.55107286833058L163.88711237206854,133.45321802026967L179.83746136845315,149.35557106784557L195.78781036483775,138.75414096655282L211.7381593612224,197.06263021057322L227.68850835760702,218.2656983087955L243.63885735399165,159.9572090647751L259.58920635037623,154.6564940141287L275.5395553467609,186.46109616146208L291.4899043431455,287.1758255497454L307.44025333953016,244.76958540548247" style="fill: none;" fill="none"></path></g><g><path stroke="rgb(0, 153, 136)" stroke-width="2px" d="M4.3836224082222355,186.46109616146208L20.333971404606864,186.46109616146208L36.2843204009915,212.9648793103307L52.23466939737612,197.06263021057322L68.18501839376076,197.06263021057322L84.13536739014538,186.46109616146208L100.08571638653001,181.16027716299732L116.03606538291463,212.9648793103307L131.98641437929928,228.8672323579066L147.9367633756839,255.37111945459364L163.88711237206854,250.07040440394724L179.83746136845315,228.8672323579066" style="fill: none;" fill="none"></path></g><g><path stroke="rgb(187, 187, 187)" stroke-width="2px" d="M4.3836224082222355,181.16027716299732L20.333971404606864,170.55863916606782L36.2843204009915,218.2656983087955L52.23466939737612,191.76181121210848L68.18501839376076,175.85956211235094L84.13536739014538,239.46876640701774L100.08571638653001,324.2812466955436L116.03606538291463,308.3788936479677L131.98641437929928,308.3788936479677L147.9367633756839,287.1758255497454L163.88711237206854,197.06263021057322L179.83746136845315,202.3633452612196L195.78781036483775,234.1680513563714L211.7381593612224,207.66416425968436" style="fill: none;" fill="none"></path></g><g><path stroke="rgb(255, 112, 67)" stroke-width="2px" d="M4.3836224082222355,138.75414096655282L20.333971404606864,165.25792411542147L36.2843204009915,228.8672323579066L52.23466939737612,138.75414096655282L68.18501839376076,133.45321802026967L84.13536739014538,159.9572090647751L100.08571638653001,101.64871982075468L116.03606538291463,144.0548560171992L131.98641437929928,144.0548560171992L147.9367633756839,112.25014992204744L163.88711237206854,223.5665173072602L179.83746136845315,112.25014992204744L195.78781036483775,181.16027716299732L211.7381593612224,303.0780746495029L227.68850835760702,159.9572090647751L243.63885735399165,175.85956211235094L259.58920635037623,175.85956211235094L275.5395553467609,128.1525029696233L291.4899043431455,271.2734725021695" style="fill: none;" fill="none"></path></g><g><path stroke="rgb(0, 119, 187)" stroke-width="2px" d="M4.3836224082222355,197.06263021057322L20.333971404606864,133.45321802026967L36.2843204009915,202.3633452612196L52.23466939737612,191.76181121210848L68.18501839376076,149.35557106784557L84.13536739014538,165.25792411542147L100.08571638653001,91.04708182382518L116.03606538291463,165.25792411542147L131.98641437929928,181.16027716299732L147.9367633756839,165.25792411542147L163.88711237206854,207.66416425968436L179.83746136845315,175.85956211235094L195.78781036483775,159.9572090647751L211.7381593612224,202.3633452612196L227.68850835760702,170.55863916606782L243.63885735399165,181.16027716299732L259.58920635037623,223.5665173072602L275.5395553467609,244.76958540548247L291.4899043431455,197.06263021057322" style="fill: none;" fill="none"></path></g><g><path stroke="rgb(238, 51, 119)" stroke-width="2px" d="M4.3836224082222355,181.16027716299732L20.333971404606864,181.16027716299732L36.2843204009915,181.16027716299732L52.23466939737612,212.9648793103307L68.18501839376076,202.3633452612196L84.13536739014538,175.85956211235094L100.08571638653001,149.35557106784557L116.03606538291463,165.25792411542147L131.98641437929928,218.2656983087955L147.9367633756839,207.66416425968436L163.88711237206854,297.77735959885655L179.83746136845315,218.2656983087955L195.78781036483775,207.66416425968436L211.7381593612224,244.76958540548247L227.68850835760702,212.9648793103307L243.63885735399165,228.8672323579066L259.58920635037623,197.06263021057322L275.5395553467609,186.46109616146208L291.4899043431455,234.1680513563714" style="fill: none;" fill="none"></path></g><g><path stroke="rgb(0, 153, 136)" stroke-width="2px" d="M4.3836224082222355,181.16027716299732L20.333971404606864,181.16027716299732L36.2843204009915,165.25792411542147L52.23466939737612,165.25792411542147L68.18501839376076,154.6564940141287L84.13536739014538,149.35557106784557L100.08571638653001,191.76181121210848L116.03606538291463,191.76181121210848L131.98641437929928,303.0780746495029L147.9367633756839,239.46876640701774L163.88711237206854,308.3788936479677L179.83746136845315,287.1758255497454L195.78781036483775,218.2656983087955L211.7381593612224,239.46876640701774L227.68850835760702,175.85956211235094L243.63885735399165,250.07040440394724L259.58920635037623,265.97265350370475L275.5395553467609,212.9648793103307" style="fill: none;" fill="none"></path></g><g><path stroke="rgb(187, 187, 187)" stroke-width="2px" d="M4.3836224082222355,181.16027716299732L20.333971404606864,128.1525029696233L36.2843204009915,144.0548560171992L52.23466939737612,144.0548560171992L68.18501839376076,197.06263021057322L84.13536739014538,128.1525029696233L100.08571638653001,175.85956211235094L116.03606538291463,128.1525029696233L131.98641437929928,64.54329867495655L147.9367633756839,59.24237572867338L163.88711237206854,128.1525029696233L179.83746136845315,138.75414096655282L195.78781036483775,159.9572090647751L211.7381593612224,128.1525029696233L227.68850835760702,138.75414096655282L243.63885735399165,202.3633452612196L259.58920635037623,234.1680513563714L275.5395553467609,117.55107286833058L291.4899043431455,128.1525029696233L307.44025333953016,117.55107286833058L323.39060233591476,281.87500655128065L339.3409513322994,260.67193845305843" style="fill: none;" fill="none"></path></g><g><path stroke="rgb(255, 112, 67)" stroke-width="2px" d="M4.3836224082222355,181.16027716299732L20.333971404606864,181.16027716299732L36.2843204009915,165.25792411542147L52.23466939737612,186.46109616146208L68.18501839376076,170.55863916606782L84.13536739014538,138.75414096655282L100.08571638653001,170.55863916606782L116.03606538291463,154.6564940141287L131.98641437929928,186.46109616146208L147.9367633756839,186.46109616146208L163.88711237206854,223.5665173072602L179.83746136845315,223.5665173072602L195.78781036483775,191.76181121210848L211.7381593612224,165.25792411542147L227.68850835760702,165.25792411542147L243.63885735399165,276.5741875528159L259.58920635037623,175.85956211235094L275.5395553467609,228.8672323579066" style="fill: none;" fill="none"></path></g><g><path stroke="rgb(51, 187, 238)" stroke-width="2px" d="M4.3836224082222355,234.1680513563714L20.333971404606864,223.5665173072602L36.2843204009915,186.46109616146208L52.23466939737612,165.25792411542147L68.18501839376076,175.85956211235094L84.13536739014538,234.1680513563714L100.08571638653001,149.35557106784557L116.03606538291463,223.5665173072602L131.98641437929928,197.06263021057322L147.9367633756839,197.06263021057322L163.88711237206854,186.46109616146208L179.83746136845315,234.1680513563714L195.78781036483775,186.46109616146208L211.7381593612224,318.9804276970788L227.68850835760702,228.8672323579066L243.63885735399165,218.2656983087955L259.58920635037623,202.3633452612196L275.5395553467609,186.46109616146208L291.4899043431455,239.46876640701774" style="fill: none;" fill="none"></path></g><g><path stroke="rgb(238, 51, 119)" stroke-width="2px" d="M4.3836224082222355,228.8672323579066L20.333971404606864,191.76181121210848L36.2843204009915,244.76958540548247L52.23466939737612,186.46109616146208L68.18501839376076,186.46109616146208L84.13536739014538,260.67193845305843L100.08571638653001,239.46876640701774L116.03606538291463,218.2656983087955L131.98641437929928,181.16027716299732L147.9367633756839,165.25792411542147L163.88711237206854,303.0780746495029L179.83746136845315,244.76958540548247L195.78781036483775,154.6564940141287L211.7381593612224,202.3633452612196L227.68850835760702,265.97265350370475L243.63885735399165,212.9648793103307L259.58920635037623,212.9648793103307L275.5395553467609,234.1680513563714L291.4899043431455,191.76181121210848L307.44025333953016,197.06263021057322L323.39060233591476,234.1680513563714L339.3409513322994,197.06263021057322L355.29130032868403,207.66416425968436L371.24164932506864,250.07040440394724L387.1919983214533,255.37111945459364" style="fill: none;" fill="none"></path></g><g><path style="fill: none;" stroke="rgb(0, 153, 136)" stroke-width="2px" d="M4.3836224082222355,228.8672323579066L20.333971404606864,260.67193845305843L36.2843204009915,255.37111945459364L52.23466939737612,223.5665173072602L68.18501839376076,255.37111945459364L84.13536739014538,239.46876640701774L100.08571638653001,234.1680513563714L116.03606538291463,186.46109616146208L131.98641437929928,271.2734725021695L147.9367633756839,191.76181121210848L163.88711237206854,244.76958540548247L179.83746136845315,191.76181121210848" fill="none"></path></g><g><path stroke="rgb(187, 187, 187)" stroke-width="2px" d="M4.3836224082222355,144.0548560171992L20.333971404606864,117.55107286833058L36.2843204009915,170.55863916606782L52.23466939737612,154.6564940141287L68.18501839376076,223.5665173072602L84.13536739014538,170.55863916606782L100.08571638653001,175.85956211235094L116.03606538291463,244.76958540548247L131.98641437929928,223.5665173072602L147.9367633756839,191.76181121210848L163.88711237206854,260.67193845305843L179.83746136845315,244.76958540548247L195.78781036483775,265.97265350370475L211.7381593612224,223.5665173072602" style="fill: none;" fill="none"></path></g><g><path stroke="rgb(204, 51, 17)" stroke-width="2px" d="M4.3836224082222355,96.34779687447154L20.333971404606864,144.0548560171992L36.2843204009915,128.1525029696233L52.23466939737612,133.45321802026967L68.18501839376076,85.74636677317878L84.13536739014538,197.06263021057322L100.08571638653001,239.46876640701774L116.03606538291463,181.16027716299732L131.98641437929928,265.97265350370475L147.9367633756839,181.16027716299732L163.88711237206854,297.77735959885655L179.83746136845315,292.4765406003918L195.78781036483775,223.5665173072602L211.7381593612224,255.37111945459364L227.68850835760702,239.46876640701774L243.63885735399165,239.46876640701774L259.58920635037623,239.46876640701774" style="fill: none;" fill="none"></path></g><g><path stroke="rgb(51, 187, 238)" stroke-width="2px" d="M4.3836224082222355,165.25792411542147L20.333971404606864,133.45321802026967L36.2843204009915,85.74636677317878L52.23466939737612,101.64871982075468L68.18501839376076,101.64871982075468L84.13536739014538,64.54329867495655L100.08571638653001,165.25792411542147L116.03606538291463,138.75414096655282L131.98641437929928,159.9572090647751L147.9367633756839,144.0548560171992L163.88711237206854,154.6564940141287L179.83746136845315,122.85178791897694L195.78781036483775,138.75414096655282L211.7381593612224,228.8672323579066L227.68850835760702,170.55863916606782L243.63885735399165,175.85956211235094L259.58920635037623,207.66416425968436L275.5395553467609,106.94943487140104" style="fill: none;" fill="none"></path></g><g><path stroke="rgb(238, 51, 119)" stroke-width="2px" d="M4.3836224082222355,276.5741875528159L20.333971404606864,244.76958540548247L36.2843204009915,191.76181121210848L52.23466939737612,223.5665173072602L68.18501839376076,234.1680513563714L84.13536739014538,244.76958540548247L100.08571638653001,223.5665173072602L116.03606538291463,202.3633452612196L131.98641437929928,170.55863916606782L147.9367633756839,297.77735959885655L163.88711237206854,207.66416425968436L179.83746136845315,234.1680513563714L195.78781036483775,244.76958540548247L211.7381593612224,191.76181121210848L227.68850835760702,255.37111945459364L243.63885735399165,212.9648793103307L259.58920635037623,228.8672323579066L275.5395553467609,228.8672323579066L291.4899043431455,234.1680513563714L307.44025333953016,234.1680513563714L323.39060233591476,186.46109616146208" style="fill: none;" fill="none"></path></g><g><path stroke="rgb(0, 153, 136)" stroke-width="2px" d="M4.3836224082222355,170.55863916606782L20.333971404606864,165.25792411542147L36.2843204009915,144.0548560171992L52.23466939737612,197.06263021057322L68.18501839376076,197.06263021057322L84.13536739014538,218.2656983087955L100.08571638653001,197.06263021057322L116.03606538291463,159.9572090647751L131.98641437929928,165.25792411542147L147.9367633756839,165.25792411542147L163.88711237206854,144.0548560171992L179.83746136845315,133.45321802026967L195.78781036483775,154.6564940141287L211.7381593612224,197.06263021057322L227.68850835760702,122.85178791897694L243.63885735399165,144.0548560171992L259.58920635037623,101.64871982075468L275.5395553467609,159.9572090647751L291.4899043431455,106.94943487140104L307.44025333953016,149.35557106784557L323.39060233591476,117.55107286833058L339.3409513322994,133.45321802026967L355.29130032868403,149.35557106784557L371.24164932506864,159.9572090647751L387.1919983214533,106.94943487140104L403.1423473178379,75.14472877624928L419.09269631422256,96.34779687447154L435.04304531060717,122.85178791897694L450.99339430699183,91.04708182382518L466.94374330337644,106.94943487140104" style="fill: none;" fill="none"></path></g><g><path stroke="rgb(0, 153, 136)" stroke-width="2px" d="M4.3836224082222355,181.16027716299732L20.333971404606864,181.16027716299732L36.2843204009915,181.16027716299732L52.23466939737612,175.85956211235094L68.18501839376076,144.0548560171992L84.13536739014538,175.85956211235094L100.08571638653001,181.16027716299732L116.03606538291463,265.97265350370475L131.98641437929928,197.06263021057322L147.9367633756839,308.3788936479677L163.88711237206854,239.46876640701774L179.83746136845315,207.66416425968436L195.78781036483775,144.0548560171992L211.7381593612224,149.35557106784557L227.68850835760702,144.0548560171992L243.63885735399165,308.3788936479677L259.58920635037623,207.66416425968436" style="fill: none;" fill="none"></path></g><g><path stroke="rgb(187, 187, 187)" stroke-width="2px" d="M4.3836224082222355,181.16027716299732L20.333971404606864,181.16027716299732L36.2843204009915,181.16027716299732L52.23466939737612,181.16027716299732L68.18501839376076,186.46109616146208L84.13536739014538,202.3633452612196L100.08571638653001,170.55863916606782L116.03606538291463,191.76181121210848L131.98641437929928,207.66416425968436L147.9367633756839,170.55863916606782L163.88711237206854,149.35557106784557L179.83746136845315,144.0548560171992L195.78781036483775,308.3788936479677L211.7381593612224,218.2656983087955L227.68850835760702,234.1680513563714L243.63885735399165,260.67193845305843L259.58920635037623,318.9804276970788L275.5395553467609,212.9648793103307L291.4899043431455,297.77735959885655L307.44025333953016,228.8672323579066L323.39060233591476,260.67193845305843L339.3409513322994,250.07040440394724L355.29130032868403,228.8672323579066L371.24164932506864,287.1758255497454" style="fill: none;" fill="none"></path></g><g><path stroke="rgb(255, 112, 67)" stroke-width="2px" d="M4.3836224082222355,181.16027716299732L20.333971404606864,53.94166067802702L36.2843204009915,75.14472877624928L52.23466939737612,144.0548560171992L68.18501839376076,165.25792411542147L84.13536739014538,106.94943487140104L100.08571638653001,170.55863916606782L116.03606538291463,149.35557106784557L131.98641437929928,159.9572090647751L147.9367633756839,38.03930763045112L163.88711237206854,186.46109616146208L179.83746136845315,175.85956211235094L195.78781036483775,159.9572090647751L211.7381593612224,313.679608698614L227.68850835760702,292.4765406003918L243.63885735399165,197.06263021057322L259.58920635037623,308.3788936479677L275.5395553467609,260.67193845305843L291.4899043431455,207.66416425968436L307.44025333953016,255.37111945459364L323.39060233591476,255.37111945459364L339.3409513322994,207.66416425968436" style="fill: none;" fill="none"></path></g><g><path stroke="rgb(0, 119, 187)" stroke-width="2px" d="M4.3836224082222355,165.25792411542147L20.333971404606864,197.06263021057322L36.2843204009915,144.0548560171992L52.23466939737612,149.35557106784557L68.18501839376076,197.06263021057322L84.13536739014538,202.3633452612196L100.08571638653001,239.46876640701774L116.03606538291463,260.67193845305843L131.98641437929928,318.9804276970788L147.9367633756839,228.8672323579066L163.88711237206854,250.07040440394724L179.83746136845315,350.7850298444121L195.78781036483775,212.9648793103307L211.7381593612224,234.1680513563714L227.68850835760702,265.97265350370475" style="fill: none;" fill="none"></path></g><g><path stroke="rgb(238, 51, 119)" stroke-width="2px" d="M4.3836224082222355,181.16027716299732L20.333971404606864,181.16027716299732L36.2843204009915,175.85956211235094L52.23466939737612,170.55863916606782L68.18501839376076,181.16027716299732L84.13536739014538,181.16027716299732L100.08571638653001,128.1525029696233L116.03606538291463,202.3633452612196L131.98641437929928,197.06263021057322L147.9367633756839,207.66416425968436L163.88711237206854,212.9648793103307L179.83746136845315,239.46876640701774L195.78781036483775,170.55863916606782L211.7381593612224,80.4456517225324L227.68850835760702,112.25014992204744L243.63885735399165,32.73859257980475L259.58920635037623,186.46109616146208L275.5395553467609,165.25792411542147L291.4899043431455,271.2734725021695L307.44025333953016,138.75414096655282L323.39060233591476,197.06263021057322L339.3409513322994,149.35557106784557L355.29130032868403,112.25014992204744L371.24164932506864,207.66416425968436L387.1919983214533,228.8672323579066L403.1423473178379,138.75414096655282L419.09269631422256,144.0548560171992L435.04304531060717,207.66416425968436" style="fill: none;" fill="none"></path></g><g><path stroke="rgb(0, 153, 136)" stroke-width="2px" d="M4.3836224082222355,181.16027716299732L20.333971404606864,181.16027716299732L36.2843204009915,170.55863916606782L52.23466939737612,122.85178791897694L68.18501839376076,159.9572090647751L84.13536739014538,144.0548560171992L100.08571638653001,218.2656983087955L116.03606538291463,191.76181121210848L131.98641437929928,186.46109616146208L147.9367633756839,223.5665173072602L163.88711237206854,218.2656983087955L179.83746136845315,255.37111945459364L195.78781036483775,159.9572090647751L211.7381593612224,234.1680513563714L227.68850835760702,228.8672323579066L243.63885735399165,175.85956211235094" style="fill: none;" fill="none"></path></g><g><path stroke="rgb(187, 187, 187)" stroke-width="2px" d="M4.3836224082222355,181.16027716299732L20.333971404606864,186.46109616146208L36.2843204009915,154.6564940141287L52.23466939737612,218.2656983087955L68.18501839376076,186.46109616146208L84.13536739014538,175.85956211235094L100.08571638653001,144.0548560171992L116.03606538291463,202.3633452612196L131.98641437929928,281.87500655128065L147.9367633756839,265.97265350370475L163.88711237206854,271.2734725021695L179.83746136845315,260.67193845305843L195.78781036483775,197.06263021057322L211.7381593612224,271.2734725021695L227.68850835760702,181.16027716299732L243.63885735399165,181.16027716299732L259.58920635037623,223.5665173072602L275.5395553467609,260.67193845305843L291.4899043431455,234.1680513563714" style="fill: none;" fill="none"></path></g><g><path stroke="rgb(255, 112, 67)" stroke-width="2px" d="M4.3836224082222355,144.0548560171992L20.333971404606864,96.34779687447154L36.2843204009915,170.55863916606782L52.23466939737612,170.55863916606782L68.18501839376076,181.16027716299732L84.13536739014538,287.1758255497454L100.08571638653001,181.16027716299732L116.03606538291463,281.87500655128065L131.98641437929928,292.4765406003918L147.9367633756839,244.76958540548247L163.88711237206854,223.5665173072602L179.83746136845315,218.2656983087955L195.78781036483775,223.5665173072602L211.7381593612224,202.3633452612196" style="fill: none;" fill="none"></path></g><g><path stroke="rgb(51, 187, 238)" stroke-width="2px" d="M4.3836224082222355,154.6564940141287L20.333971404606864,165.25792411542147L36.2843204009915,186.46109616146208L52.23466939737612,244.76958540548247L68.18501839376076,138.75414096655282L84.13536739014538,297.77735959885655L100.08571638653001,133.45321802026967L116.03606538291463,202.3633452612196L131.98641437929928,85.74636677317878L147.9367633756839,75.14472877624928L163.88711237206854,96.34779687447154L179.83746136845315,181.16027716299732L195.78781036483775,244.76958540548247L211.7381593612224,154.6564940141287L227.68850835760702,144.0548560171992L243.63885735399165,38.03930763045112L259.58920635037623,64.54329867495655L275.5395553467609,154.6564940141287L291.4899043431455,165.25792411542147L307.44025333953016,106.94943487140104L323.39060233591476,122.85178791897694L339.3409513322994,154.6564940141287L355.29130032868403,138.75414096655282L371.24164932506864,175.85956211235094L387.1919983214533,186.46109616146208L403.1423473178379,170.55863916606782L419.09269631422256,154.6564940141287L435.04304531060717,149.35557106784557" style="fill: none;" fill="none"></path></g><g><path stroke="rgb(238, 51, 119)" stroke-width="2px" d="M4.3836224082222355,181.16027716299732L20.333971404606864,271.2734725021695L36.2843204009915,223.5665173072602L52.23466939737612,250.07040440394724L68.18501839376076,244.76958540548247L84.13536739014538,218.2656983087955L100.08571638653001,212.9648793103307L116.03606538291463,159.9572090647751L131.98641437929928,276.5741875528159L147.9367633756839,255.37111945459364L163.88711237206854,324.2812466955436L179.83746136845315,239.46876640701774L195.78781036483775,191.76181121210848L211.7381593612224,106.94943487140104L227.68850835760702,223.5665173072602L243.63885735399165,287.1758255497454L259.58920635037623,181.16027716299732L275.5395553467609,228.8672323579066L291.4899043431455,186.46109616146208L307.44025333953016,255.37111945459364L323.39060233591476,303.0780746495029L339.3409513322994,260.67193845305843L355.29130032868403,244.76958540548247L371.24164932506864,318.9804276970788L387.1919983214533,292.4765406003918L403.1423473178379,202.3633452612196" style="fill: none;" fill="none"></path></g><g><path stroke="rgb(0, 153, 136)" stroke-width="2px" d="M4.3836224082222355,186.46109616146208L20.333971404606864,165.25792411542147L36.2843204009915,165.25792411542147L52.23466939737612,271.2734725021695L68.18501839376076,239.46876640701774L84.13536739014538,212.9648793103307L100.08571638653001,276.5741875528159L116.03606538291463,191.76181121210848L131.98641437929928,223.5665173072602L147.9367633756839,228.8672323579066L163.88711237206854,202.3633452612196L179.83746136845315,218.2656983087955L195.78781036483775,308.3788936479677L211.7381593612224,292.4765406003918" style="fill: none;" fill="none"></path></g><g><path stroke="rgb(187, 187, 187)" stroke-width="2px" d="M4.3836224082222355,181.16027716299732L20.333971404606864,43.34002268109752L36.2843204009915,138.75414096655282L52.23466939737612,170.55863916606782L68.18501839376076,133.45321802026967L84.13536739014538,202.3633452612196L100.08571638653001,244.76958540548247L116.03606538291463,165.25792411542147L131.98641437929928,223.5665173072602L147.9367633756839,212.9648793103307L163.88711237206854,191.76181121210848L179.83746136845315,175.85956211235094L195.78781036483775,186.46109616146208L211.7381593612224,223.5665173072602" style="fill: none;" fill="none"></path></g><g><path stroke="rgb(204, 51, 17)" stroke-width="2px" d="M4.3836224082222355,181.16027716299732L20.333971404606864,181.16027716299732L36.2843204009915,186.46109616146208L52.23466939737612,159.9572090647751L68.18501839376076,181.16027716299732L84.13536739014538,144.0548560171992L100.08571638653001,159.9572090647751L116.03606538291463,170.55863916606782L131.98641437929928,144.0548560171992L147.9367633756839,181.16027716299732L163.88711237206854,186.46109616146208L179.83746136845315,223.5665173072602L195.78781036483775,250.07040440394724L211.7381593612224,239.46876640701774L227.68850835760702,170.55863916606782L243.63885735399165,212.9648793103307L259.58920635037623,228.8672323579066L275.5395553467609,223.5665173072602" style="fill: none;" fill="none"></path></g><g><path stroke="rgb(51, 187, 238)" stroke-width="2px" d="M4.3836224082222355,239.46876640701774L20.333971404606864,271.2734725021695L36.2843204009915,239.46876640701774L52.23466939737612,212.9648793103307L68.18501839376076,181.16027716299732L84.13536739014538,175.85956211235094L100.08571638653001,138.75414096655282L116.03606538291463,202.3633452612196L131.98641437929928,191.76181121210848L147.9367633756839,250.07040440394724L163.88711237206854,212.9648793103307L179.83746136845315,154.6564940141287L195.78781036483775,202.3633452612196L211.7381593612224,170.55863916606782L227.68850835760702,154.6564940141287L243.63885735399165,154.6564940141287L259.58920635037623,191.76181121210848L275.5395553467609,175.85956211235094L291.4899043431455,197.06263021057322" style="fill: none;" fill="none"></path></g><g><path stroke="rgb(238, 51, 119)" stroke-width="2px" d="M4.3836224082222355,287.1758255497454L20.333971404606864,265.97265350370475L36.2843204009915,228.8672323579066L52.23466939737612,292.4765406003918L68.18501839376076,218.2656983087955L84.13536739014538,101.64871982075468L100.08571638653001,234.1680513563714L116.03606538291463,297.77735959885655L131.98641437929928,165.25792411542147L147.9367633756839,276.5741875528159L163.88711237206854,159.9572090647751L179.83746136845315,260.67193845305843L195.78781036483775,287.1758255497454L211.7381593612224,234.1680513563714L227.68850835760702,223.5665173072602L243.63885735399165,239.46876640701774L259.58920635037623,218.2656983087955L275.5395553467609,197.06263021057322" style="fill: none;" fill="none"></path></g><g><path stroke="rgb(0, 153, 136)" stroke-width="2px" d="M4.3836224082222355,175.85956211235094L20.333971404606864,186.46109616146208L36.2843204009915,181.16027716299732L52.23466939737612,175.85956211235094L68.18501839376076,170.55863916606782L84.13536739014538,175.85956211235094L100.08571638653001,228.8672323579066L116.03606538291463,191.76181121210848L131.98641437929928,223.5665173072602L147.9367633756839,186.46109616146208L163.88711237206854,212.9648793103307L179.83746136845315,218.2656983087955L195.78781036483775,223.5665173072602L211.7381593612224,159.9572090647751L227.68850835760702,165.25792411542147L243.63885735399165,207.66416425968436L259.58920635037623,234.1680513563714L275.5395553467609,106.94943487140104L291.4899043431455,175.85956211235094L307.44025333953016,128.1525029696233L323.39060233591476,133.45321802026967L339.3409513322994,191.76181121210848L355.29130032868403,128.1525029696233L371.24164932506864,191.76181121210848L387.1919983214533,91.04708182382518L403.1423473178379,80.4456517225324L419.09269631422256,112.25014992204744L435.04304531060717,128.1525029696233L450.99339430699183,159.9572090647751L466.94374330337644,175.85956211235094" style="fill: none;" fill="none"></path></g><g><path stroke="rgb(0, 119, 187)" stroke-width="2px" d="M4.3836224082222355,181.16027716299732L20.333971404606864,170.55863916606782L36.2843204009915,202.3633452612196L52.23466939737612,170.55863916606782L68.18501839376076,186.46109616146208L84.13536739014538,207.66416425968436L100.08571638653001,202.3633452612196L116.03606538291463,175.85956211235094L131.98641437929928,186.46109616146208L147.9367633756839,207.66416425968436L163.88711237206854,197.06263021057322L179.83746136845315,154.6564940141287L195.78781036483775,149.35557106784557L211.7381593612224,191.76181121210848L227.68850835760702,223.5665173072602L243.63885735399165,170.55863916606782L259.58920635037623,228.8672323579066L275.5395553467609,128.1525029696233L291.4899043431455,159.9572090647751L307.44025333953016,96.34779687447154L323.39060233591476,159.9572090647751L339.3409513322994,154.6564940141287L355.29130032868403,197.06263021057322L371.24164932506864,149.35557106784557L387.1919983214533,138.75414096655282L403.1423473178379,128.1525029696233L419.09269631422256,59.24237572867338L435.04304531060717,96.34779687447154L450.99339430699183,165.25792411542147L466.94374330337644,154.6564940141287" style="fill: none;" fill="none"></path></g><g><path stroke="rgb(204, 51, 17)" stroke-width="2px" d="M4.3836224082222355,186.46109616146208L20.333971404606864,112.25014992204744L36.2843204009915,112.25014992204744L52.23466939737612,207.66416425968436L68.18501839376076,154.6564940141287L84.13536739014538,117.55107286833058L100.08571638653001,122.85178791897694L116.03606538291463,228.8672323579066L131.98641437929928,133.45321802026967L147.9367633756839,234.1680513563714L163.88711237206854,186.46109616146208L179.83746136845315,144.0548560171992L195.78781036483775,149.35557106784557L211.7381593612224,159.9572090647751" style="fill: none;" fill="none"></path></g><g><path stroke="rgb(51, 187, 238)" stroke-width="2px" d="M4.3836224082222355,181.16027716299732L20.333971404606864,175.85956211235094L36.2843204009915,133.45321802026967L52.23466939737612,159.9572090647751L68.18501839376076,244.76958540548247L84.13536739014538,197.06263021057322L100.08571638653001,223.5665173072602L116.03606538291463,207.66416425968436L131.98641437929928,228.8672323579066L147.9367633756839,170.55863916606782L163.88711237206854,255.37111945459364L179.83746136845315,165.25792411542147L195.78781036483775,276.5741875528159L211.7381593612224,239.46876640701774L227.68850835760702,239.46876640701774" style="fill: none;" fill="none"></path></g><g><path stroke="rgb(238, 51, 119)" stroke-width="2px" d="M4.3836224082222355,218.2656983087955L20.333971404606864,207.66416425968436L36.2843204009915,170.55863916606782L52.23466939737612,149.35557106784557L68.18501839376076,324.2812466955436L84.13536739014538,149.35557106784557L100.08571638653001,181.16027716299732L116.03606538291463,202.3633452612196L131.98641437929928,234.1680513563714L147.9367633756839,281.87500655128065L163.88711237206854,271.2734725021695L179.83746136845315,212.9648793103307L195.78781036483775,202.3633452612196L211.7381593612224,218.2656983087955L227.68850835760702,159.9572090647751L243.63885735399165,186.46109616146208" style="fill: none;" fill="none"></path></g><g><path stroke="rgb(255, 112, 67)" stroke-width="2px" d="M4.3836224082222355,154.6564940141287L20.333971404606864,122.85178791897694L36.2843204009915,175.85956211235094L52.23466939737612,96.34779687447154L68.18501839376076,165.25792411542147L84.13536739014538,122.85178791897694L100.08571638653001,91.04708182382518L116.03606538291463,149.35557106784557L131.98641437929928,159.9572090647751L147.9367633756839,165.25792411542147L163.88711237206854,186.46109616146208L179.83746136845315,165.25792411542147L195.78781036483775,11.535524481582492L211.7381593612224,165.25792411542147L227.68850835760702,149.35557106784557L243.63885735399165,186.46109616146208L259.58920635037623,128.1525029696233L275.5395553467609,75.14472877624928L291.4899043431455,138.75414096655282L307.44025333953016,59.24237572867338L323.39060233591476,186.46109616146208L339.3409513322994,149.35557106784557L355.29130032868403,133.45321802026967L371.24164932506864,96.34779687447154L387.1919983214533,159.9572090647751" style="fill: none;" fill="none"></path></g><g><path stroke="rgb(0, 119, 187)" stroke-width="2px" d="M4.3836224082222355,181.16027716299732L20.333971404606864,186.46109616146208L36.2843204009915,207.66416425968436L52.23466939737612,207.66416425968436L68.18501839376076,181.16027716299732L84.13536739014538,159.9572090647751L100.08571638653001,207.66416425968436L116.03606538291463,218.2656983087955L131.98641437929928,250.07040440394724L147.9367633756839,228.8672323579066L163.88711237206854,218.2656983087955L179.83746136845315,228.8672323579066L195.78781036483775,228.8672323579066L211.7381593612224,313.679608698614L227.68850835760702,234.1680513563714L243.63885735399165,271.2734725021695L259.58920635037623,207.66416425968436L275.5395553467609,218.2656983087955" style="fill: none;" fill="none"></path></g><g><path stroke="rgb(204, 51, 17)" stroke-width="2px" d="M4.3836224082222355,154.6564940141287L20.333971404606864,186.46109616146208L36.2843204009915,186.46109616146208L52.23466939737612,181.16027716299732L68.18501839376076,175.85956211235094L84.13536739014538,170.55863916606782L100.08571638653001,186.46109616146208L116.03606538291463,260.67193845305843L131.98641437929928,239.46876640701774L147.9367633756839,175.85956211235094L163.88711237206854,202.3633452612196L179.83746136845315,112.25014992204744L195.78781036483775,191.76181121210848L211.7381593612224,239.46876640701774L227.68850835760702,223.5665173072602L243.63885735399165,212.9648793103307L259.58920635037623,191.76181121210848L275.5395553467609,234.1680513563714L291.4899043431455,239.46876640701774L307.44025333953016,223.5665173072602L323.39060233591476,244.76958540548247L339.3409513322994,212.9648793103307L355.29130032868403,191.76181121210848L371.24164932506864,228.8672323579066" style="fill: none;" fill="none"></path></g><g><path stroke="rgb(51, 187, 238)" stroke-width="2px" d="M4.3836224082222355,112.25014992204744L20.333971404606864,191.76181121210848L36.2843204009915,175.85956211235094L52.23466939737612,181.16027716299732L68.18501839376076,144.0548560171992L84.13536739014538,133.45321802026967L100.08571638653001,212.9648793103307L116.03606538291463,165.25792411542147L131.98641437929928,186.46109616146208L147.9367633756839,170.55863916606782L163.88711237206854,260.67193845305843L179.83746136845315,239.46876640701774L195.78781036483775,239.46876640701774" style="fill: none;" fill="none"></path></g><g><path stroke="rgb(51, 187, 238)" stroke-width="2px" d="M4.3836224082222355,181.16027716299732L20.333971404606864,181.16027716299732L36.2843204009915,181.16027716299732L52.23466939737612,181.16027716299732L68.18501839376076,181.16027716299732L84.13536739014538,228.8672323579066L100.08571638653001,313.679608698614L116.03606538291463,228.8672323579066L131.98641437929928,165.25792411542147L147.9367633756839,244.76958540548247L163.88711237206854,260.67193845305843L179.83746136845315,366.687382891988L195.78781036483775,271.2734725021695L211.7381593612224,324.2812466955436L227.68850835760702,271.2734725021695L243.63885735399165,287.1758255497454L259.58920635037623,255.37111945459364L275.5395553467609,292.4765406003918L291.4899043431455,202.3633452612196L307.44025333953016,223.5665173072602L323.39060233591476,260.67193845305843" style="fill: none;" fill="none"></path></g><g><path stroke="rgb(238, 51, 119)" stroke-width="2px" d="M4.3836224082222355,138.75414096655282L20.333971404606864,170.55863916606782L36.2843204009915,122.85178791897694L52.23466939737612,138.75414096655282L68.18501839376076,250.07040440394724L84.13536739014538,191.76181121210848L100.08571638653001,165.25792411542147L116.03606538291463,265.97265350370475L131.98641437929928,303.0780746495029L147.9367633756839,181.16027716299732L163.88711237206854,287.1758255497454L179.83746136845315,191.76181121210848L195.78781036483775,218.2656983087955L211.7381593612224,292.4765406003918L227.68850835760702,181.16027716299732" style="fill: none;" fill="none"></path></g><g><path stroke="rgb(0, 153, 136)" stroke-width="2px" d="M4.3836224082222355,207.66416425968436L20.333971404606864,197.06263021057322L36.2843204009915,181.16027716299732L52.23466939737612,197.06263021057322L68.18501839376076,186.46109616146208L84.13536739014538,244.76958540548247L100.08571638653001,197.06263021057322L116.03606538291463,159.9572090647751L131.98641437929928,165.25792411542147L147.9367633756839,144.0548560171992L163.88711237206854,159.9572090647751L179.83746136845315,154.6564940141287L195.78781036483775,234.1680513563714L211.7381593612224,191.76181121210848L227.68850835760702,122.85178791897694L243.63885735399165,122.85178791897694L259.58920635037623,128.1525029696233L275.5395553467609,149.35557106784557L291.4899043431455,91.04708182382518L307.44025333953016,112.25014992204744L323.39060233591476,181.16027716299732L339.3409513322994,181.16027716299732L355.29130032868403,170.55863916606782L371.24164932506864,91.04708182382518L387.1919983214533,239.46876640701774L403.1423473178379,133.45321802026967L419.09269631422256,165.25792411542147L435.04304531060717,85.74636677317878L450.99339430699183,106.94943487140104L466.94374330337644,144.0548560171992" style="fill: none;" fill="none"></path></g><g><path stroke="rgb(187, 187, 187)" stroke-width="2px" d="M4.3836224082222355,165.25792411542147L20.333971404606864,175.85956211235094L36.2843204009915,218.2656983087955L52.23466939737612,191.76181121210848L68.18501839376076,265.97265350370475L84.13536739014538,170.55863916606782L100.08571638653001,276.5741875528159L116.03606538291463,128.1525029696233L131.98641437929928,207.66416425968436L147.9367633756839,287.1758255497454L163.88711237206854,234.1680513563714L179.83746136845315,244.76958540548247L195.78781036483775,223.5665173072602L211.7381593612224,244.76958540548247L227.68850835760702,287.1758255497454L243.63885735399165,255.37111945459364L259.58920635037623,234.1680513563714L275.5395553467609,234.1680513563714L291.4899043431455,250.07040440394724L307.44025333953016,202.3633452612196" style="fill: none;" fill="none"></path></g><g><path stroke="rgb(204, 51, 17)" stroke-width="2px" d="M4.3836224082222355,202.3633452612196L20.333971404606864,122.85178791897694L36.2843204009915,91.04708182382518L52.23466939737612,207.66416425968436L68.18501839376076,165.25792411542147L84.13536739014538,159.9572090647751L100.08571638653001,133.45321802026967L116.03606538291463,170.55863916606782L131.98641437929928,197.06263021057322L147.9367633756839,265.97265350370475L163.88711237206854,170.55863916606782L179.83746136845315,175.85956211235094L195.78781036483775,191.76181121210848L211.7381593612224,149.35557106784557L227.68850835760702,186.46109616146208" style="fill: none;" fill="none"></path></g><g><path stroke="rgb(51, 187, 238)" stroke-width="2px" d="M4.3836224082222355,186.46109616146208L20.333971404606864,175.85956211235094L36.2843204009915,186.46109616146208L52.23466939737612,197.06263021057322L68.18501839376076,144.0548560171992L84.13536739014538,175.85956211235094L100.08571638653001,244.76958540548247L116.03606538291463,170.55863916606782L131.98641437929928,218.2656983087955L147.9367633756839,260.67193845305843L163.88711237206854,255.37111945459364L179.83746136845315,234.1680513563714L195.78781036483775,234.1680513563714L211.7381593612224,96.34779687447154L227.68850835760702,181.16027716299732L243.63885735399165,96.34779687447154L259.58920635037623,69.84401372560292L275.5395553467609,159.9572090647751L291.4899043431455,250.07040440394724L307.44025333953016,170.55863916606782L323.39060233591476,159.9572090647751L339.3409513322994,228.8672323579066L355.29130032868403,159.9572090647751L371.24164932506864,202.3633452612196L387.1919983214533,255.37111945459364L403.1423473178379,133.45321802026967L419.09269631422256,276.5741875528159L435.04304531060717,250.07040440394724L450.99339430699183,144.0548560171992" style="fill: none;" fill="none"></path></g><g><path stroke="rgb(238, 51, 119)" stroke-width="2px" d="M4.3836224082222355,154.6564940141287L20.333971404606864,202.3633452612196L36.2843204009915,106.94943487140104L52.23466939737612,175.85956211235094L68.18501839376076,207.66416425968436L84.13536739014538,202.3633452612196L100.08571638653001,303.0780746495029L116.03606538291463,255.37111945459364L131.98641437929928,276.5741875528159L147.9367633756839,239.46876640701774L163.88711237206854,313.679608698614L179.83746136845315,197.06263021057322L195.78781036483775,212.9648793103307L211.7381593612224,202.3633452612196L227.68850835760702,234.1680513563714" style="fill: none;" fill="none"></path></g><g><path stroke="rgb(0, 153, 136)" stroke-width="2px" d="M4.3836224082222355,144.0548560171992L20.333971404606864,197.06263021057322L36.2843204009915,170.55863916606782L52.23466939737612,175.85956211235094L68.18501839376076,239.46876640701774L84.13536739014538,239.46876640701774L100.08571638653001,271.2734725021695L116.03606538291463,292.4765406003918L131.98641437929928,239.46876640701774L147.9367633756839,223.5665173072602L163.88711237206854,197.06263021057322L179.83746136845315,170.55863916606782L195.78781036483775,191.76181121210848" style="fill: none;" fill="none"></path></g><g><path stroke="rgb(0, 119, 187)" stroke-width="2px" d="M4.3836224082222355,197.06263021057322L20.333971404606864,170.55863916606782L36.2843204009915,212.9648793103307L52.23466939737612,276.5741875528159L68.18501839376076,191.76181121210848L84.13536739014538,133.45321802026967L100.08571638653001,250.07040440394724L116.03606538291463,154.6564940141287L131.98641437929928,159.9572090647751L147.9367633756839,159.9572090647751L163.88711237206854,218.2656983087955L179.83746136845315,207.66416425968436L195.78781036483775,212.9648793103307L211.7381593612224,175.85956211235094L227.68850835760702,181.16027716299732L243.63885735399165,170.55863916606782L259.58920635037623,276.5741875528159L275.5395553467609,334.88278074465467" style="fill: none;" fill="none"></path></g><g><path stroke="rgb(204, 51, 17)" stroke-width="2px" d="M4.3836224082222355,218.2656983087955L20.333971404606864,186.46109616146208L36.2843204009915,244.76958540548247L52.23466939737612,202.3633452612196L68.18501839376076,133.45321802026967L84.13536739014538,191.76181121210848L100.08571638653001,234.1680513563714L116.03606538291463,260.67193845305843L131.98641437929928,207.66416425968436L147.9367633756839,175.85956211235094L163.88711237206854,101.64871982075468L179.83746136845315,159.9572090647751L195.78781036483775,175.85956211235094L211.7381593612224,159.9572090647751L227.68850835760702,133.45321802026967L243.63885735399165,228.8672323579066L259.58920635037623,212.9648793103307L275.5395553467609,281.87500655128065L291.4899043431455,239.46876640701774L307.44025333953016,265.97265350370475L323.39060233591476,138.75414096655282L339.3409513322994,207.66416425968436L355.29130032868403,186.46109616146208" style="fill: none;" fill="none"></path></g><g><path stroke="rgb(51, 187, 238)" stroke-width="2px" d="M4.3836224082222355,202.3633452612196L20.333971404606864,281.87500655128065L36.2843204009915,260.67193845305843L52.23466939737612,207.66416425968436L68.18501839376076,297.77735959885655L84.13536739014538,181.16027716299732L100.08571638653001,324.2812466955436L116.03606538291463,228.8672323579066L131.98641437929928,181.16027716299732L147.9367633756839,159.9572090647751L163.88711237206854,181.16027716299732L179.83746136845315,181.16027716299732L195.78781036483775,175.85956211235094L211.7381593612224,239.46876640701774L227.68850835760702,144.0548560171992L243.63885735399165,202.3633452612196L259.58920635037623,207.66416425968436L275.5395553467609,175.85956211235094L291.4899043431455,218.2656983087955L307.44025333953016,181.16027716299732L323.39060233591476,271.2734725021695L339.3409513322994,228.8672323579066L355.29130032868403,265.97265350370475L371.24164932506864,244.76958540548247L387.1919983214533,271.2734725021695L403.1423473178379,149.35557106784557L419.09269631422256,197.06263021057322" style="fill: none;" fill="none"></path></g><g><path stroke="rgb(238, 51, 119)" stroke-width="2px" d="M4.3836224082222355,181.16027716299732L20.333971404606864,165.25792411542147L36.2843204009915,218.2656983087955L52.23466939737612,191.76181121210848L68.18501839376076,202.3633452612196L84.13536739014538,292.4765406003918L100.08571638653001,197.06263021057322L116.03606538291463,191.76181121210848L131.98641437929928,228.8672323579066L147.9367633756839,181.16027716299732L163.88711237206854,250.07040440394724L179.83746136845315,239.46876640701774L195.78781036483775,265.97265350370475L211.7381593612224,207.66416425968436" style="fill: none;" fill="none"></path></g><g><path stroke="rgb(255, 112, 67)" stroke-width="2px" d="M4.3836224082222355,181.16027716299732L20.333971404606864,181.16027716299732L36.2843204009915,170.55863916606782L52.23466939737612,212.9648793103307L68.18501839376076,117.55107286833058L84.13536739014538,133.45321802026967L100.08571638653001,27.43787752915839L116.03606538291463,75.14472877624928L131.98641437929928,117.55107286833058L147.9367633756839,191.76181121210848L163.88711237206854,138.75414096655282L179.83746136845315,165.25792411542147L195.78781036483775,133.45321802026967L211.7381593612224,186.46109616146208L227.68850835760702,91.04708182382518L243.63885735399165,234.1680513563714L259.58920635037623,197.06263021057322L275.5395553467609,154.6564940141287L291.4899043431455,181.16027716299732" style="fill: none;" fill="none"></path></g><g><path stroke="rgb(0, 119, 187)" stroke-width="2px" d="M4.3836224082222355,197.06263021057322L20.333971404606864,207.66416425968436L36.2843204009915,165.25792411542147L52.23466939737612,202.3633452612196L68.18501839376076,250.07040440394724L84.13536739014538,218.2656983087955L100.08571638653001,223.5665173072602L116.03606538291463,197.06263021057322L131.98641437929928,218.2656983087955L147.9367633756839,186.46109616146208L163.88711237206854,244.76958540548247L179.83746136845315,255.37111945459364L195.78781036483775,154.6564940141287L211.7381593612224,170.55863916606782L227.68850835760702,281.87500655128065L243.63885735399165,234.1680513563714L259.58920635037623,234.1680513563714L275.5395553467609,202.3633452612196L291.4899043431455,223.5665173072602L307.44025333953016,197.06263021057322L323.39060233591476,202.3633452612196L339.3409513322994,239.46876640701774L355.29130032868403,202.3633452612196L371.24164932506864,197.06263021057322L387.1919983214533,144.0548560171992L403.1423473178379,250.07040440394724L419.09269631422256,186.46109616146208L435.04304531060717,207.66416425968436L450.99339430699183,202.3633452612196L466.94374330337644,202.3633452612196" style="fill: none;" fill="none"></path></g><g><path stroke="rgb(204, 51, 17)" stroke-width="2px" d="M4.3836224082222355,197.06263021057322L20.333971404606864,191.76181121210848L36.2843204009915,223.5665173072602L52.23466939737612,202.3633452612196L68.18501839376076,197.06263021057322L84.13536739014538,228.8672323579066L100.08571638653001,138.75414096655282L116.03606538291463,234.1680513563714L131.98641437929928,144.0548560171992L147.9367633756839,197.06263021057322L163.88711237206854,159.9572090647751L179.83746136845315,191.76181121210848L195.78781036483775,207.66416425968436L211.7381593612224,96.34779687447154L227.68850835760702,181.16027716299732L243.63885735399165,159.9572090647751L259.58920635037623,202.3633452612196L275.5395553467609,128.1525029696233L291.4899043431455,191.76181121210848L307.44025333953016,197.06263021057322L323.39060233591476,207.66416425968436L339.3409513322994,181.16027716299732L355.29130032868403,228.8672323579066L371.24164932506864,202.3633452612196L387.1919983214533,244.76958540548247L403.1423473178379,234.1680513563714" style="fill: none;" fill="none"></path></g><g><path stroke="rgb(51, 187, 238)" stroke-width="2px" d="M4.3836224082222355,128.1525029696233L20.333971404606864,350.7850298444121L36.2843204009915,212.9648793103307L52.23466939737612,303.0780746495029L68.18501839376076,318.9804276970788L84.13536739014538,218.2656983087955L100.08571638653001,260.67193845305843L116.03606538291463,228.8672323579066L131.98641437929928,186.46109616146208L147.9367633756839,170.55863916606782L163.88711237206854,250.07040440394724L179.83746136845315,212.9648793103307L195.78781036483775,234.1680513563714" style="fill: none;" fill="none"></path></g><g><path stroke="rgb(187, 187, 187)" stroke-width="2px" d="M4.3836224082222355,186.46109616146208L20.333971404606864,197.06263021057322L36.2843204009915,191.76181121210848L52.23466939737612,181.16027716299732L68.18501839376076,128.1525029696233L84.13536739014538,133.45321802026967L100.08571638653001,106.94943487140104L116.03606538291463,133.45321802026967L131.98641437929928,117.55107286833058L147.9367633756839,144.0548560171992L163.88711237206854,175.85956211235094L179.83746136845315,159.9572090647751L195.78781036483775,122.85178791897694L211.7381593612224,101.64871982075468L227.68850835760702,133.45321802026967L243.63885735399165,112.25014992204744L259.58920635037623,218.2656983087955L275.5395553467609,175.85956211235094L291.4899043431455,223.5665173072602L307.44025333953016,138.75414096655282L323.39060233591476,303.0780746495029L339.3409513322994,112.25014992204744L355.29130032868403,228.8672323579066L371.24164932506864,186.46109616146208L387.1919983214533,149.35557106784557L403.1423473178379,117.55107286833058" style="fill: none;" fill="none"></path></g><g><path stroke="rgb(255, 112, 67)" stroke-width="2px" d="M4.3836224082222355,181.16027716299732L20.333971404606864,133.45321802026967L36.2843204009915,186.46109616146208L52.23466939737612,265.97265350370475L68.18501839376076,202.3633452612196L84.13536739014538,186.46109616146208L100.08571638653001,159.9572090647751L116.03606538291463,186.46109616146208L131.98641437929928,175.85956211235094L147.9367633756839,186.46109616146208L163.88711237206854,69.84401372560292L179.83746136845315,149.35557106784557L195.78781036483775,202.3633452612196L211.7381593612224,101.64871982075468L227.68850835760702,144.0548560171992L243.63885735399165,244.76958540548247L259.58920635037623,133.45321802026967L275.5395553467609,133.45321802026967L291.4899043431455,117.55107286833058L307.44025333953016,170.55863916606782L323.39060233591476,133.45321802026967L339.3409513322994,106.94943487140104L355.29130032868403,170.55863916606782" style="fill: none;" fill="none"></path></g><g><path stroke="rgb(0, 119, 187)" stroke-width="2px" d="M4.3836224082222355,138.75414096655282L20.333971404606864,175.85956211235094L36.2843204009915,186.46109616146208L52.23466939737612,228.8672323579066L68.18501839376076,170.55863916606782L84.13536739014538,191.76181121210848L100.08571638653001,239.46876640701774L116.03606538291463,260.67193845305843L131.98641437929928,138.75414096655282L147.9367633756839,276.5741875528159L163.88711237206854,181.16027716299732L179.83746136845315,159.9572090647751L195.78781036483775,234.1680513563714" style="fill: none;" fill="none"></path></g><g><path stroke="rgb(204, 51, 17)" stroke-width="2px" d="M4.3836224082222355,271.2734725021695L20.333971404606864,175.85956211235094L36.2843204009915,191.76181121210848L52.23466939737612,239.46876640701774L68.18501839376076,250.07040440394724L84.13536739014538,265.97265350370475L100.08571638653001,265.97265350370475L116.03606538291463,202.3633452612196L131.98641437929928,260.67193845305843L147.9367633756839,234.1680513563714L163.88711237206854,271.2734725021695L179.83746136845315,186.46109616146208L195.78781036483775,281.87500655128065L211.7381593612224,281.87500655128065" style="fill: none;" fill="none"></path></g><g><path stroke="rgb(0, 153, 136)" stroke-width="2px" d="M4.3836224082222355,154.6564940141287L20.333971404606864,133.45321802026967L36.2843204009915,234.1680513563714L52.23466939737612,260.67193845305843L68.18501839376076,292.4765406003918L84.13536739014538,191.76181121210848L100.08571638653001,186.46109616146208L116.03606538291463,186.46109616146208L131.98641437929928,202.3633452612196L147.9367633756839,239.46876640701774L163.88711237206854,144.0548560171992L179.83746136845315,149.35557106784557L195.78781036483775,175.85956211235094L211.7381593612224,154.6564940141287" style="fill: none;" fill="none"></path></g><g><path stroke="rgb(187, 187, 187)" stroke-width="2px" d="M4.3836224082222355,181.16027716299732L20.333971404606864,186.46109616146208L36.2843204009915,170.55863916606782L52.23466939737612,112.25014992204744L68.18501839376076,159.9572090647751L84.13536739014538,218.2656983087955L100.08571638653001,202.3633452612196L116.03606538291463,175.85956211235094L131.98641437929928,202.3633452612196L147.9367633756839,228.8672323579066L163.88711237206854,207.66416425968436L179.83746136845315,297.77735959885655L195.78781036483775,202.3633452612196L211.7381593612224,223.5665173072602L227.68850835760702,207.66416425968436L243.63885735399165,212.9648793103307" style="fill: none;" fill="none"></path></g><g><path stroke="rgb(255, 112, 67)" stroke-width="2px" d="M4.3836224082222355,133.45321802026967L20.333971404606864,144.0548560171992L36.2843204009915,181.16027716299732L52.23466939737612,159.9572090647751L68.18501839376076,186.46109616146208L84.13536739014538,181.16027716299732L100.08571638653001,117.55107286833058L116.03606538291463,239.46876640701774L131.98641437929928,159.9572090647751L147.9367633756839,197.06263021057322L163.88711237206854,191.76181121210848L179.83746136845315,170.55863916606782L195.78781036483775,244.76958540548247L211.7381593612224,207.66416425968436L227.68850835760702,228.8672323579066L243.63885735399165,186.46109616146208L259.58920635037623,154.6564940141287L275.5395553467609,175.85956211235094L291.4899043431455,197.06263021057322" style="fill: none;" fill="none"></path></g><g><path stroke="rgb(0, 119, 187)" stroke-width="2px" d="M4.3836224082222355,276.5741875528159L20.333971404606864,223.5665173072602L36.2843204009915,244.76958540548247L52.23466939737612,271.2734725021695L68.18501839376076,234.1680513563714L84.13536739014538,212.9648793103307L100.08571638653001,244.76958540548247L116.03606538291463,175.85956211235094L131.98641437929928,255.37111945459364L147.9367633756839,133.45321802026967L163.88711237206854,255.37111945459364L179.83746136845315,106.94943487140104L195.78781036483775,218.2656983087955L211.7381593612224,202.3633452612196L227.68850835760702,202.3633452612196L243.63885735399165,175.85956211235094L259.58920635037623,234.1680513563714L275.5395553467609,154.6564940141287L291.4899043431455,212.9648793103307L307.44025333953016,207.66416425968436L323.39060233591476,250.07040440394724L339.3409513322994,186.46109616146208L355.29130032868403,218.2656983087955L371.24164932506864,223.5665173072602" style="fill: none;" fill="none"></path></g></g></g></g></g></g><g transform="translate(50, 377)" clip-path="url(#clip_1)"><clipPath id="clip_1"><rect width="506" height="23"></rect></clipPath><g><g><line x1="4.3836224082222355" y1="0" x2="4.3836224082222355" y2="5" style="visibility: inherit;" fill="rgb(0, 0, 0)" stroke="rgb(204, 204, 204)" stroke-width="1px"></line><line x1="84.13536739014538" y1="0" x2="84.13536739014538" y2="5" style="visibility: inherit;" fill="rgb(0, 0, 0)" stroke="rgb(204, 204, 204)" stroke-width="1px"></line><line x1="163.88711237206854" y1="0" x2="163.88711237206854" y2="5" style="visibility: inherit;" fill="rgb(0, 0, 0)" stroke="rgb(204, 204, 204)" stroke-width="1px"></line><line x1="243.63885735399165" y1="0" x2="243.63885735399165" y2="5" style="visibility: inherit;" fill="rgb(0, 0, 0)" stroke="rgb(204, 204, 204)" stroke-width="1px"></line><line x1="323.39060233591476" y1="0" x2="323.39060233591476" y2="5" style="visibility: inherit;" fill="rgb(0, 0, 0)" stroke="rgb(204, 204, 204)" stroke-width="1px"></line><line x1="403.1423473178379" y1="0" x2="403.1423473178379" y2="5" style="visibility: inherit;" fill="rgb(0, 0, 0)" stroke="rgb(204, 204, 204)" stroke-width="1px"></line><line x1="482.89409229976104" y1="0" x2="482.89409229976104" y2="5" style="visibility: inherit;" fill="rgb(0, 0, 0)" stroke="rgb(204, 204, 204)" stroke-width="1px"></line></g><g transform="translate(0, 8)"><text x="4.3836224082222355" y="0" dx="0em" dy="0.95em" style="text-anchor: middle; visibility: inherit; font-family: Roboto, sans-serif; font-size: 12px; font-weight: 200;" fill="rgb(33, 33, 33)" stroke="none" stroke-width="1px">0</text><text x="84.13536739014538" y="0" dx="0em" dy="0.95em" style="text-anchor: middle; visibility: inherit; font-family: Roboto, sans-serif; font-size: 12px; font-weight: 200;" fill="rgb(33, 33, 33)" stroke="none" stroke-width="1px">5</text><text x="163.88711237206854" y="0" dx="0em" dy="0.95em" style="text-anchor: middle; visibility: inherit; font-family: Roboto, sans-serif; font-size: 12px; font-weight: 200;" fill="rgb(33, 33, 33)" stroke="none" stroke-width="1px">10</text><text x="243.63885735399165" y="0" dx="0em" dy="0.95em" style="text-anchor: middle; visibility: inherit; font-family: Roboto, sans-serif; font-size: 12px; font-weight: 200;" fill="rgb(33, 33, 33)" stroke="none" stroke-width="1px">15</text><text x="323.39060233591476" y="0" dx="0em" dy="0.95em" style="text-anchor: middle; visibility: inherit; font-family: Roboto, sans-serif; font-size: 12px; font-weight: 200;" fill="rgb(33, 33, 33)" stroke="none" stroke-width="1px">20</text><text x="403.1423473178379" y="0" dx="0em" dy="0.95em" style="text-anchor: middle; visibility: inherit; font-family: Roboto, sans-serif; font-size: 12px; font-weight: 200;" fill="rgb(33, 33, 33)" stroke="none" stroke-width="1px">25</text><text x="482.89409229976104" y="0" dx="0em" dy="0.95em" style="text-anchor: middle; visibility: inherit; font-family: Roboto, sans-serif; font-size: 12px; font-weight: 200;" fill="rgb(33, 33, 33)" stroke="none" stroke-width="1px">30</text></g><line x1="0" y1="0" x2="506" y2="0" fill="rgb(0, 0, 0)" stroke="rgb(204, 204, 204)" stroke-width="1px"></line></g></g></g></g></svg>