<svg viewBox="0 0 539 400" xmlns="http://www.w3.org/2000/svg"><g><g><g><g><g><line x1="51.5625" y1="374.9445596776027" x2="46.5625" y2="374.9445596776027" style="visibility: inherit;" fill="rgb(0, 0, 0)" stroke="rgb(204, 204, 204)" stroke-width="1px"></line><line x1="51.5625" y1="338.1536784469062" x2="46.5625" y2="338.1536784469062" style="visibility: inherit;" fill="rgb(0, 0, 0)" stroke="rgb(204, 204, 204)" stroke-width="1px"></line><line x1="51.5625" y1="301.3627972162096" x2="46.5625" y2="301.3627972162096" style="visibility: inherit;" fill="rgb(0, 0, 0)" stroke="rgb(204, 204, 204)" stroke-width="1px"></line><line x1="51.5625" y1="264.57191598551293" x2="46.5625" y2="264.57191598551293" style="visibility: inherit;" fill="rgb(0, 0, 0)" stroke="rgb(204, 204, 204)" stroke-width="1px"></line><line x1="51.5625" y1="227.7810347548162" x2="46.5625" y2="227.7810347548162" style="visibility: inherit;" fill="rgb(0, 0, 0)" stroke="rgb(204, 204, 204)" stroke-width="1px"></line><line x1="51.5625" y1="190.9901535241196" x2="46.5625" y2="190.9901535241196" style="visibility: inherit;" fill="rgb(0, 0, 0)" stroke="rgb(204, 204, 204)" stroke-width="1px"></line><line x1="51.5625" y1="154.1992722934229" x2="46.5625" y2="154.1992722934229" style="visibility: inherit;" fill="rgb(0, 0, 0)" stroke="rgb(204, 204, 204)" stroke-width="1px"></line><line x1="51.5625" y1="117.40839106272644" x2="46.5625" y2="117.40839106272644" style="visibility: inherit;" fill="rgb(0, 0, 0)" stroke="rgb(204, 204, 204)" stroke-width="1px"></line><line x1="51.5625" y1="80.61750983202978" x2="46.5625" y2="80.61750983202978" style="visibility: inherit;" fill="rgb(0, 0, 0)" stroke="rgb(204, 204, 204)" stroke-width="1px"></line><line x1="51.5625" y1="43.82662860133308" x2="46.5625" y2="43.82662860133308" style="visibility: inherit;" fill="rgb(0, 0, 0)" stroke="rgb(204, 204, 204)" stroke-width="1px"></line><line x1="51.5625" y1="7.035747370636419" x2="46.5625" y2="7.035747370636419" style="visibility: inherit;" fill="rgb(0, 0, 0)" stroke="rgb(204, 204, 204)" stroke-width="1px"></line></g><g transform="translate(41.5625, 0)"><text x="0" y="374.9445596776027" dx="0em" dy="0.3em" style="text-anchor: end; visibility: hidden; font-family: Roboto, sans-serif; font-size: 12px; font-weight: 200;" fill="rgb(33, 33, 33)" stroke="none" stroke-width="1px">0.68</text><text x="0" y="338.1536784469062" dx="0em" dy="0.3em" style="text-anchor: end; visibility: inherit; font-family: Roboto, sans-serif; font-size: 12px; font-weight: 200;" fill="rgb(33, 33, 33)" stroke="none" stroke-width="1px">0.7</text><text x="0" y="301.3627972162096" dx="0em" dy="0.3em" style="text-anchor: end; visibility: inherit; font-family: Roboto, sans-serif; font-size: 12px; font-weight: 200;" fill="rgb(33, 33, 33)" stroke="none" stroke-width="1px">0.72</text><text x="0" y="264.57191598551293" dx="0em" dy="0.3em" style="text-anchor: end; visibility: inherit; font-family: Roboto, sans-serif; font-size: 12px; font-weight: 200;" fill="rgb(33, 33, 33)" stroke="none" stroke-width="1px">0.74</text><text x="0" y="227.7810347548162" dx="0em" dy="0.3em" style="text-anchor: end; visibility: inherit; font-family: Roboto, sans-serif; font-size: 12px; font-weight: 200;" fill="rgb(33, 33, 33)" stroke="none" stroke-width="1px">0.76</text><text x="0" y="190.9901535241196" dx="0em" dy="0.3em" style="text-anchor: end; visibility: inherit; font-family: Roboto, sans-serif; font-size: 12px; font-weight: 200;" fill="rgb(33, 33, 33)" stroke="none" stroke-width="1px">0.78</text><text x="0" y="154.1992722934229" dx="0em" dy="0.3em" style="text-anchor: end; visibility: inherit; font-family: Roboto, sans-serif; font-size: 12px; font-weight: 200;" fill="rgb(33, 33, 33)" stroke="none" stroke-width="1px">0.8</text><text x="0" y="117.40839106272644" dx="0em" dy="0.3em" style="text-anchor: end; visibility: inherit; font-family: Roboto, sans-serif; font-size: 12px; font-weight: 200;" fill="rgb(33, 33, 33)" stroke="none" stroke-width="1px">0.82</text><text x="0" y="80.61750983202978" dx="0em" dy="0.3em" style="text-anchor: end; visibility: inherit; font-family: Roboto, sans-serif; font-size: 12px; font-weight: 200;" fill="rgb(33, 33, 33)" stroke="none" stroke-width="1px">0.84</text><text x="0" y="43.82662860133308" dx="0em" dy="0.3em" style="text-anchor: end; visibility: inherit; font-family: Roboto, sans-serif; font-size: 12px; font-weight: 200;" fill="rgb(33, 33, 33)" stroke="none" stroke-width="1px">0.86</text><text x="0" y="7.035747370636419" dx="0em" dy="0.3em" style="text-anchor: end; visibility: inherit; font-family: Roboto, sans-serif; font-size: 12px; font-weight: 200;" fill="rgb(33, 33, 33)" stroke="none" stroke-width="1px">0.88</text></g><line x1="51.5625" y1="0" x2="51.5625" y2="377" fill="rgb(0, 0, 0)" stroke="rgb(204, 204, 204)" stroke-width="1px"></line></g></g><g transform="translate(51, 0)" clip-path="url(#clip_0)"><clipPath id="clip_0"><rect width="487" height="377"></rect></clipPath><g><g><g><line x1="1.937075477741896" y1="0" x2="1.937075477741896" y2="377" fill="rgb(0, 0, 0)" stroke="rgb(66, 66, 66)" stroke-width="1px" opacity="0.25"></line><line x1="33.58891624024565" y1="0" x2="33.58891624024565" y2="377" fill="rgb(0, 0, 0)" stroke="rgb(66, 66, 66)" stroke-width="1px" opacity="0.25"></line><line x1="65.24075700274942" y1="0" x2="65.24075700274942" y2="377" fill="rgb(0, 0, 0)" stroke="rgb(66, 66, 66)" stroke-width="1px" opacity="0.25"></line><line x1="96.89259776525316" y1="0" x2="96.89259776525316" y2="377" fill="rgb(0, 0, 0)" stroke="rgb(66, 66, 66)" stroke-width="1px" opacity="0.25"></line><line x1="128.5444385277569" y1="0" x2="128.5444385277569" y2="377" fill="rgb(0, 0, 0)" stroke="rgb(66, 66, 66)" stroke-width="1px" opacity="0.25"></line><line x1="160.19627929026066" y1="0" x2="160.19627929026066" y2="377" fill="rgb(0, 0, 0)" stroke="rgb(66, 66, 66)" stroke-width="1px" opacity="0.25"></line><line x1="191.84812005276444" y1="0" x2="191.84812005276444" y2="377" fill="rgb(0, 0, 0)" stroke="rgb(66, 66, 66)" stroke-width="1px" opacity="0.25"></line><line x1="223.4999608152682" y1="0" x2="223.4999608152682" y2="377" fill="rgb(0, 0, 0)" stroke="rgb(66, 66, 66)" stroke-width="1px" opacity="0.25"></line><line x1="255.15180157777198" y1="0" x2="255.15180157777198" y2="377" fill="rgb(0, 0, 0)" stroke="rgb(66, 66, 66)" stroke-width="1px" opacity="0.25"></line><line x1="286.8036423402757" y1="0" x2="286.8036423402757" y2="377" fill="rgb(0, 0, 0)" stroke="rgb(66, 66, 66)" stroke-width="1px" opacity="0.25"></line><line x1="318.45548310277945" y1="0" x2="318.45548310277945" y2="377" fill="rgb(0, 0, 0)" stroke="rgb(66, 66, 66)" stroke-width="1px" opacity="0.25"></line><line x1="350.10732386528326" y1="0" x2="350.10732386528326" y2="377" fill="rgb(0, 0, 0)" stroke="rgb(66, 66, 66)" stroke-width="1px" opacity="0.25"></line><line x1="381.75916462778696" y1="0" x2="381.75916462778696" y2="377" fill="rgb(0, 0, 0)" stroke="rgb(66, 66, 66)" stroke-width="1px" opacity="0.25"></line><line x1="413.41100539029077" y1="0" x2="413.41100539029077" y2="377" fill="rgb(0, 0, 0)" stroke="rgb(66, 66, 66)" stroke-width="1px" opacity="0.25"></line><line x1="445.0628461527945" y1="0" x2="445.0628461527945" y2="377" fill="rgb(0, 0, 0)" stroke="rgb(66, 66, 66)" stroke-width="1px" opacity="0.25"></line><line x1="476.7146869152982" y1="0" x2="476.7146869152982" y2="377" fill="rgb(0, 0, 0)" stroke="rgb(66, 66, 66)" stroke-width="1px" opacity="0.25"></line></g><g><line x1="0" y1="374.9445596776027" x2="487.4375" y2="374.9445596776027" fill="rgb(0, 0, 0)" stroke="rgb(66, 66, 66)" stroke-width="1px" opacity="0.25"></line><line x1="0" y1="338.1536784469062" x2="487.4375" y2="338.1536784469062" fill="rgb(0, 0, 0)" stroke="rgb(66, 66, 66)" stroke-width="1px" opacity="0.25"></line><line x1="0" y1="301.3627972162096" x2="487.4375" y2="301.3627972162096" fill="rgb(0, 0, 0)" stroke="rgb(66, 66, 66)" stroke-width="1px" opacity="0.25"></line><line x1="0" y1="264.57191598551293" x2="487.4375" y2="264.57191598551293" fill="rgb(0, 0, 0)" stroke="rgb(66, 66, 66)" stroke-width="1px" opacity="0.25"></line><line x1="0" y1="227.7810347548162" x2="487.4375" y2="227.7810347548162" fill="rgb(0, 0, 0)" stroke="rgb(66, 66, 66)" stroke-width="1px" opacity="0.25"></line><line x1="0" y1="190.9901535241196" x2="487.4375" y2="190.9901535241196" fill="rgb(0, 0, 0)" stroke="rgb(66, 66, 66)" stroke-width="1px" opacity="0.25"></line><line x1="0" y1="154.1992722934229" x2="487.4375" y2="154.1992722934229" fill="rgb(0, 0, 0)" stroke="rgb(66, 66, 66)" stroke-width="1px" opacity="0.25"></line><line x1="0" y1="117.40839106272644" x2="487.4375" y2="117.40839106272644" fill="rgb(0, 0, 0)" stroke="rgb(66, 66, 66)" stroke-width="1px" opacity="0.25"></line><line x1="0" y1="80.61750983202978" x2="487.4375" y2="80.61750983202978" fill="rgb(0, 0, 0)" stroke="rgb(66, 66, 66)" stroke-width="1px" opacity="0.25"></line><line x1="0" y1="43.82662860133308" x2="487.4375" y2="43.82662860133308" fill="rgb(0, 0, 0)" stroke="rgb(66, 66, 66)" stroke-width="1px" opacity="0.25"></line><line x1="0" y1="7.035747370636419" x2="487.4375" y2="7.035747370636419" fill="rgb(0, 0, 0)" stroke="rgb(66, 66, 66)" stroke-width="1px" opacity="0.25"></line></g></g></g><g><g><line x1="0" y1="1625.8345215212883" x2="487.4375" y2="1625.8345215212883" fill="rgb(0, 0, 0)" stroke="rgb(153, 153, 153)" stroke-width="1.5px"></line></g></g><g><g><line x1="1.937075477741896" y1="0" x2="1.937075477741896" y2="377" fill="rgb(0, 0, 0)" stroke="rgb(153, 153, 153)" stroke-width="1.5px"></line></g></g><g><g><g><g><g><path stroke="rgb(0, 153, 136)" stroke-width="2px" d="M1.937075477741896,351.0529299692134L17.762995858993772,351.16257533954985L33.58891624024565,348.47396121352944L49.41483662149753,339.6169178431203L65.24075700274942,343.0269985059547L81.06667738400128,336.2709797219328L96.89259776525316,327.85394322268394L112.71851814650505,346.694526498339L128.5444385277569,313.808371282583L144.37035890900881,307.2104611225863L160.19627929026066,314.3875181287002L176.02219967151254,282.9400198171289L191.84812005276444,290.28362814078383L207.6740404340163,207.71627846261381L223.4999608152682,274.8799886436955L239.32588119652007,301.4264485465972" style="fill: none;" fill="none"></path></g><g><path stroke="rgb(0, 119, 187)" stroke-width="2px" d="M1.937075477741896,351.07266613587393L17.762995858993772,350.62312011749447L33.58891624024565,344.4517304481067L49.41483662149753,343.3011119317958L65.24075700274942,339.88500077359294L81.06667738400128,339.84092333471773L96.89259776525316,327.78398947640926L112.71851814650505,321.62290647183306L128.5444385277569,329.94488043500024" style="fill: none;" fill="none"></path></g><g><path stroke="rgb(204, 51, 17)" stroke-width="2px" d="M1.937075477741896,350.2440760722413L17.762995858993772,351.6042268912651L33.58891624024565,347.3337590074006L49.41483662149753,350.34111222498905L65.24075700274942,347.7818796359657L81.06667738400128,338.0906542880368L96.89259776525316,338.5957905091768L112.71851814650505,341.92111530074106L128.5444385277569,322.26641515033776L144.37035890900881,297.13394194329504L160.19627929026066,326.8958619766839L176.02219967151254,319.5373418826632L191.84812005276444,313.90387240014604L207.6740404340163,301.744091184462L223.4999608152682,192.61032614598895L239.32588119652007,245.52386612592193L255.15180157777198,260.6094244036642L270.9777219590239,222.86773360792824L286.8036423402757,226.98513655480312L302.6295627215276,228.69604291353326L318.45548310277945,209.27499704731693" style="fill: none;" fill="none"></path></g><g><path stroke="rgb(51, 187, 238)" stroke-width="2px" d="M1.937075477741896,350.456130218472L17.762995858993772,351.01181295533723L33.58891624024565,350.31271407407195L49.41483662149753,349.8858646473521L65.24075700274942,350.7840795211484L81.06667738400128,350.3494452731346L96.89259776525316,343.08960601241677L112.71851814650505,324.9475733911753L128.5444385277569,334.65754809743174L144.37035890900881,325.76618572610727L160.19627929026066,319.9763619454904L176.02219967151254,308.5122806045912L191.84812005276444,297.0180467868494L207.6740404340163,302.58660621012734L223.4999608152682,305.0574646306596" style="fill: none;" fill="none"></path></g><g><path stroke="rgb(187, 187, 187)" stroke-width="2px" d="M1.937075477741896,350.3748829990527L17.762995858993772,351.11915577289665L33.58891624024565,349.8811498964276L49.41483662149753,352.94168111862933L65.24075700274942,348.7458817319639L81.06667738400128,352.2864403854986L96.89259776525316,345.2193576858322L112.71851814650505,336.7087936856863L128.5444385277569,329.4698966907027L144.37035890900881,339.9955233068921L160.19627929026066,335.7651856285707L176.02219967151254,324.02819696090404" style="fill: none;" fill="none"></path></g><g><path stroke="rgb(255, 112, 67)" stroke-width="2px" d="M1.937075477741896,350.01272434083137L17.762995858993772,349.7194229751814L33.58891624024565,347.79372133596206L49.41483662149753,344.62847878508904L65.24075700274942,345.1529125914083L81.06667738400128,344.90763589796563L96.89259776525316,342.1022494525369L112.71851814650505,338.0694927315618L128.5444385277569,330.73564284586683L144.37035890900881,330.5658021672156L160.19627929026066,326.4213168138677L176.02219967151254,316.01980875689907L191.84812005276444,307.81285278721487L207.6740404340163,297.4958813107757L223.4999608152682,283.65457869561163L239.32588119652007,276.7099698746111L255.15180157777198,270.41193980248465L270.9777219590239,271.3946912568104" style="fill: none;" fill="none"></path></g><g><path stroke="rgb(255, 112, 67)" stroke-width="2px" d="M1.937075477741896,349.370641052141L17.762995858993772,350.47937503698336L33.58891624024565,342.8666969745227L49.41483662149753,342.05005825625676L65.24075700274942,339.3445587432045L81.06667738400128,340.293978004948L96.89259776525316,307.2888575623769L112.71851814650505,326.3946729888759L128.5444385277569,313.63469301597L144.37035890900881,299.66872361473344L160.19627929026066,316.7138639511289L176.02219967151254,238.4226837160809L191.84812005276444,315.2491114488041L207.6740404340163,307.79048513166623L223.4999608152682,287.3183787454045L239.32588119652007,261.2698184692007L255.15180157777198,228.11360670630597L270.9777219590239,227.48446157131534L286.8036423402757,253.1664773744844L302.6295627215276,214.56801765493935L318.45548310277945,195.84837322276536L334.2814034840314,91.70654260497085L350.10732386528326,106.77225507068218L365.93324424653514,70.6469563244464L381.75916462778696,28.58907552541559L397.58508500903883,7.331469706063503" style="fill: none;" fill="none"></path></g><g><path stroke="rgb(51, 187, 238)" stroke-width="2px" d="M1.937075477741896,349.13621925036165L17.762995858993772,349.4026575002793L33.58891624024565,347.05591763896797L49.41483662149753,329.8702119378011L65.24075700274942,347.09473210006706L81.06667738400128,339.7225063347543L96.89259776525316,343.62489471039936L112.71851814650505,286.69734736781885L128.5444385277569,304.0706562976314L144.37035890900881,271.94324704460365L160.19627929026066,243.62426008484272L176.02219967151254,289.016346950435L191.84812005276444,205.41317745869637L207.6740404340163,250.98223195201174L223.4999608152682,217.265513055957L239.32588119652007,241.91631415111164L255.15180157777198,98.99785008697526L270.9777219590239,141.42161748681886L286.8036423402757,97.72092010403684L302.6295627215276,184.16872908378465L318.45548310277945,180.36513118681276L334.2814034840314,236.69818133142903L350.10732386528326,233.4687962389092L365.93324424653514,199.9701619844537" style="fill: none;" fill="none"></path></g><g><path stroke="rgb(238, 51, 119)" stroke-width="2px" d="M1.937075477741896,348.53470474869584L17.762995858993772,339.5534331736955L33.58891624024565,338.2030407926316L49.41483662149753,324.95557750320984L65.24075700274942,272.3922448361315L81.06667738400128,237.59486117004064L96.89259776525316,287.95048430539424L112.71851814650505,324.30329719507824L128.5444385277569,307.5207575206385L144.37035890900881,272.0914875852986L160.19627929026066,295.4069177151254L176.02219967151254,279.8572305847489L191.84812005276444,327.6802649560709L207.6740404340163,260.2356433361872L223.4999608152682,280.8859234492456L239.32588119652007,299.34614693520354L255.15180157777198,310.10180953835885L270.9777219590239,312.93932207729614L286.8036423402757,283.7533691742848L302.6295627215276,292.90053419460423L318.45548310277945,246.10608304240853L334.2814034840314,234.54452696728023L350.10732386528326,147.15903078041495L365.93324424653514,148.73485404289062L381.75916462778696,196.73507533267636L397.58508500903883,156.64982439136884L413.41100539029077,187.3418661013219L429.23692577154264,191.43130947876097L445.0628461527945,221.8354224462105L460.8887665340464,127.10894942457831" style="fill: none;" fill="none"></path></g><g><path stroke="rgb(255, 112, 67)" stroke-width="2px" d="M1.937075477741896,350.5951605480587L17.762995858993772,350.74822548504835L33.58891624024565,350.02796504730816L49.41483662149753,348.1685988571424L65.24075700274942,346.9434214890028L81.06667738400128,354.7056558366023L96.89259776525316,350.875523760009L112.71851814650505,347.69493085728885L128.5444385277569,333.05935717940747L144.37035890900881,326.4821699944044L160.19627929026066,322.590746155793L176.02219967151254,322.70697024834965L191.84812005276444,299.6834160943585L207.6740404340163,298.7767585270463" style="fill: none;" fill="none"></path></g><g><path stroke="rgb(187, 187, 187)" stroke-width="2px" d="M1.937075477741896,350.44428851847573L17.762995858993772,350.0386006482308L33.58891624024565,346.83180250200024L49.41483662149753,349.33807637715114L65.24075700274942,351.55576363757643L81.06667738400128,354.7392073199253L96.89259776525316,352.89464325475495L112.71851814650505,351.5933719996018L128.5444385277569,360.5004136588844L144.37035890900881,352.4404921308213L160.19627929026066,345.4667176413113L176.02219967151254,321.6829921347774L191.84812005276444,339.4217490839214L207.6740404340163,320.49586171014454L223.4999608152682,317.8826835989156L239.32588119652007,309.60511601073466L255.15180157777198,305.07435001769136" style="fill: none;" fill="none"></path></g><g><path stroke="rgb(204, 51, 17)" stroke-width="2px" d="M1.937075477741896,350.9510694201708L17.762995858993772,350.6761884767373L33.58891624024565,352.6674580474178L49.41483662149753,350.7062313082095L65.24075700274942,352.452114540077L81.06667738400128,349.37075069751137L96.89259776525316,347.3453814166562L112.71851814650505,341.9776923118347L128.5444385277569,338.57780866844166L144.37035890900881,334.67542029279656L160.19627929026066,338.94424349610614" style="fill: none;" fill="none"></path></g><g><path stroke="rgb(51, 187, 238)" stroke-width="2px" d="M1.937075477741896,350.30273634537133L17.762995858993772,350.2416638740939L33.58891624024565,350.0080095899069L49.41483662149753,348.9437916254212L65.24075700274942,353.3415577842464L81.06667738400128,350.81795994058234L96.89259776525316,340.31382381697887L112.71851814650505,338.61125050639424L128.5444385277569,340.3247883540125L144.37035890900881,338.7372330369108L160.19627929026066,331.35184982715776L176.02219967151254,323.73862353784546L191.84812005276444,325.1675220040702L207.6740404340163,299.4043686268522L223.4999608152682,289.8243236844444L239.32588119652007,301.61142028635487L255.15180157777198,289.8727869381331L270.9777219590239,203.7903163323464L286.8036423402757,256.0516856495181L302.6295627215276,220.7621039159868" style="fill: none;" fill="none"></path></g><g><path stroke="rgb(0, 153, 136)" stroke-width="2px" d="M1.937075477741896,350.04726263248733L17.762995858993772,350.4848573055002L33.58891624024565,350.6202693378657L49.41483662149753,349.57984441874305L65.24075700274942,349.0126489179925L81.06667738400128,342.99158305133597L96.89259776525316,343.85646573254996L112.71851814650505,346.57018864837744L128.5444385277569,348.43141880983893L144.37035890900881,345.1892052089897L160.19627929026066,343.1544064262856L176.02219967151254,316.51507689470895L191.84812005276444,329.21837021115084L207.6740404340163,331.04955754114013L223.4999608152682,315.0298207081312L239.32588119652007,326.45223680830253" style="fill: none;" fill="none"></path></g><g><path stroke="rgb(238, 51, 119)" stroke-width="2px" d="M1.937075477741896,351.33581502468144L17.762995858993772,349.9887120047277L33.58891624024565,352.1108981475899L49.41483662149753,350.280149399082L65.24075700274942,351.76069083473527L81.06667738400128,339.49872013389756L96.89259776525316,348.0531422821781L112.71851814650505,336.18063193677557L128.5444385277569,349.1295308827712L144.37035890900881,350.20964742595567L160.19627929026066,334.9603886103011L176.02219967151254,336.6907021995808L191.84812005276444,316.65651942244295L207.6740404340163,310.2372215707244L223.4999608152682,312.47738613206866L239.32588119652007,315.4040403570895L255.15180157777198,300.59599451166883" style="fill: none;" fill="none"></path></g><g><path stroke="rgb(255, 112, 67)" stroke-width="2px" d="M1.937075477741896,350.3808038490509L17.762995858993772,350.5086503508632L33.58891624024565,351.2273757534187L49.41483662149753,350.6218043730504L65.24075700274942,350.210743879659L81.06667738400128,345.02342140904096L96.89259776525316,349.0015747355885L112.71851814650505,347.92036173870065L128.5444385277569,345.6011428653438L144.37035890900881,347.9175109590719L160.19627929026066,353.93287526647094L176.02219967151254,349.5491437150488L191.84812005276444,348.88239021803275L207.6740404340163,349.13939896610145L223.4999608152682,337.40569965954484L239.32588119652007,332.00478800751137L255.15180157777198,343.7563595094328L270.9777219590239,341.0749819778546L286.8036423402757,325.4952520160059L302.6295627215276,322.93678694457486L318.45548310277945,322.5804394909814L334.2814034840314,322.7724285344405" style="fill: none;" fill="none"></path></g><g><path stroke="rgb(0, 119, 187)" stroke-width="2px" d="M1.937075477741896,350.2458303981667L17.762995858993772,350.1839904092969L33.58891624024565,350.89372489148485L49.41483662149753,350.4999883666066L65.24075700274942,350.62344905360544L81.06667738400128,351.2096132034242L96.89259776525316,352.3052993891965L112.71851814650505,346.55944340208447L128.5444385277569,348.6988438680895L144.37035890900881,350.9938311146021L160.19627929026066,349.8323577066279L176.02219967151254,343.3962841132479L191.84812005276444,338.985579800723L207.6740404340163,345.81199091250085L223.4999608152682,345.92624138839136L239.32588119652007,348.65981011624973L255.15180157777198,324.84856362176146L270.9777219590239,342.6936765801318L286.8036423402757,325.17486824388277L302.6295627215276,342.08492548402376L318.45548310277945,329.56452064530305L334.2814034840314,330.42041240614947L350.10732386528326,339.15344686270805L365.93324424653514,344.51609228049415L381.75916462778696,337.66117337242883" style="fill: none;" fill="none"></path></g><g><path stroke="rgb(0, 119, 187)" stroke-width="2px" d="M1.937075477741896,351.3977646589216L17.762995858993772,351.1631235664015L33.58891624024565,349.6766612807501L49.41483662149753,349.3311687188199L65.24075700274942,348.9326077976469L81.06667738400128,347.2747697981595L96.89259776525316,341.55150075733684L112.71851814650505,338.72659743598825L128.5444385277569,319.40708318270345" style="fill: none;" fill="none"></path></g><g><path stroke="rgb(238, 51, 119)" stroke-width="2px" d="M1.937075477741896,350.9326489979543L17.762995858993772,351.0334130932935L33.58891624024565,348.7969764745407L49.41483662149753,348.9406119096814L65.24075700274942,345.26486051452184L81.06667738400128,337.24901642533405L96.89259776525316,341.531654945306L112.71851814650505,338.249420784284L128.5444385277569,328.6306710261474L144.37035890900881,326.5581542360476" style="fill: none;" fill="none"></path></g><g><path stroke="rgb(0, 153, 136)" stroke-width="2px" d="M1.937075477741896,351.2436032682285L17.762995858993772,352.0169320652116L33.58891624024565,352.24959954106555L49.41483662149753,351.342174456161L65.24075700274942,348.08702270161206L81.06667738400128,329.3293313259313L96.89259776525316,351.80542614583254L112.71851814650505,321.3816866570928L128.5444385277569,303.9111222837918L144.37035890900881,331.58978028078786L160.19627929026066,284.6009278869857L176.02219967151254,330.82993786435617L191.84812005276444,274.5662932391629L207.6740404340163,309.8222138440009L223.4999608152682,259.93006168905947L239.32588119652007,248.50534303611104L255.15180157777198,197.2256287195617L270.9777219590239,234.66623332835368L286.8036423402757,201.38886343123718L302.6295627215276,196.28805115781458L318.45548310277945,230.83653983324174L334.2814034840314,193.01678153382622" style="fill: none;" fill="none"></path></g><g><path stroke="rgb(0, 119, 187)" stroke-width="2px" d="M1.937075477741896,350.4476875249561L17.762995858993772,349.834660259405L33.58891624024565,351.1077526543816L49.41483662149753,351.29667162747137L65.24075700274942,351.4393202542791L81.06667738400128,353.1088903083924L96.89259776525316,355.05038088094017L112.71851814650505,355.61571241039496L128.5444385277569,353.81149784150847L144.37035890900881,353.72783842394176L160.19627929026066,353.9739922803471L176.02219967151254,357.5397693690592L191.84812005276444,350.34166045184077L207.6740404340163,345.1679340071444L223.4999608152682,341.52069040827234L239.32588119652007,345.6249359107068" style="fill: none;" fill="none"></path></g><g><path stroke="rgb(255, 112, 67)" stroke-width="2px" d="M1.937075477741896,348.35828534782445L17.762995858993772,349.9386040704839L33.58891624024565,349.33336162622663L49.41483662149753,349.97511597880595L65.24075700274942,349.1907129994189L81.06667738400128,352.067588226307L96.89259776525316,351.29272439413927L112.71851814650505,351.8425959263766L128.5444385277569,352.5720665752251L144.37035890900881,352.3801871771363L160.19627929026066,355.4210918780478L176.02219967151254,351.01597947941L191.84812005276444,352.3063958428998L207.6740404340163,348.98907516337016L223.4999608152682,339.28962641266594L239.32588119652007,336.5279884700015L255.15180157777198,337.6994396066762L270.9777219590239,336.755941194931L286.8036423402757,327.26021354231193L302.6295627215276,336.2219682413924L318.45548310277945,338.4910791805055L334.2814034840314,326.9304002683399L350.10732386528326,334.4396827465732L365.93324424653514,333.3475052126517L381.75916462778696,340.7006526835259L397.58508500903883,328.23079436053035L413.41100539029077,313.06278276429504" style="fill: none;" fill="none"></path></g><g><path stroke="rgb(51, 187, 238)" stroke-width="2px" d="M1.937075477741896,352.8234834094066L17.762995858993772,352.6886196038928L33.58891624024565,352.9052788556776L49.41483662149753,352.3140710188234L65.24075700274942,352.1038808438884L81.06667738400128,351.8351400411937L96.89259776525316,353.4043845814492L112.71851814650505,353.084329745437L128.5444385277569,352.49092900117614L144.37035890900881,351.76792742917746L160.19627929026066,354.2625788950727L176.02219967151254,349.5050662761735L191.84812005276444,357.3387894052325L207.6740404340163,346.39212456695105L223.4999608152682,352.7353285316561L239.32588119652007,350.14802672782656L255.15180157777198,340.1120763355598L270.9777219590239,351.1269405941905L286.8036423402757,355.2612289280972" style="fill: none;" fill="none"></path></g><g><path stroke="rgb(238, 51, 119)" stroke-width="2px" d="M1.937075477741896,350.3576686759099L17.762995858993772,350.58463459250635L33.58891624024565,349.8739133019854L49.41483662149753,350.39154909534386L65.24075700274942,350.8505246155723L81.06667738400128,347.97814484886794L96.89259776525316,346.91294007604927L112.71851814650505,346.9153522741966L128.5444385277569,342.29708927562484L144.37035890900881,341.54097480178456L160.19627929026066,331.9541318464159L176.02219967151254,336.2153895191722L191.84812005276444,325.13923349852337L207.6740404340163,332.4772499082912" style="fill: none;" fill="none"></path></g><g><path stroke="rgb(187, 187, 187)" stroke-width="2px" d="M1.937075477741896,346.8184257668192L17.762995858993772,349.1872043475681L33.58891624024565,348.66233195976747L49.41483662149753,348.83085689397467L65.24075700274942,348.56869481350014L81.06667738400128,349.0509151522399L96.89259776525316,348.85541745693L112.71851814650505,347.91794954055325L128.5444385277569,347.61192931194415L144.37035890900881,344.8520456952051L160.19627929026066,347.3096370259266L176.02219967151254,348.1628972978849L191.84812005276444,347.82716317391464L207.6740404340163,349.9876155510243L223.4999608152682,347.9478827266551L239.32588119652007,349.92972279548667L255.15180157777198,349.7571409825771L270.9777219590239,351.74073537733403L286.8036423402757,350.05164844730086L302.6295627215276,353.2674375138989L318.45548310277945,356.645172792484L334.2814034840314,359.1334648268997L350.10732386528326,356.8293770146493L365.93324424653514,366.6100729847728L381.75916462778696,360.25765880895943L397.58508500903883,359.6418904091499L413.41100539029077,361.046118667049L429.23692577154264,353.5562434193652L445.0628461527945,348.7582716588119" style="fill: none;" fill="none"></path></g><g><path stroke="rgb(0, 153, 136)" stroke-width="2px" d="M1.937075477741896,351.8600295402601L17.762995858993772,353.15932717874716L33.58891624024565,352.7651520723876L49.41483662149753,352.9973809667602L65.24075700274942,354.15885437473435L81.06667738400128,354.54721827646614L96.89259776525316,352.73839860202554L112.71851814650505,350.29111393611566L128.5444385277569,350.60963373694307L144.37035890900881,346.73443741314145L160.19627929026066,345.3758216293024L176.02219967151254,343.2069265586768L191.84812005276444,343.99834684176534" style="fill: none;" fill="none"></path></g><g><path stroke="rgb(0, 119, 187)" stroke-width="2px" d="M1.937075477741896,348.973066939301L17.762995858993772,348.9162706374667L33.58891624024565,348.9070604263585L49.41483662149753,348.87471504210924L65.24075700274942,348.2458988432296L81.06667738400128,348.5194640422191L96.89259776525316,349.14970563091305L112.71851814650505,350.79328973225665L128.5444385277569,351.4042337357714L144.37035890900881,347.9444837201747L160.19627929026066,347.6867074545136L176.02219967151254,351.6627775190248L191.84812005276444,346.5398168807942L207.6740404340163,353.5070126480841L223.4999608152682,350.61051089990576L239.32588119652007,345.89389600414216L255.15180157777198,349.2524433429183L270.9777219590239,336.06462713495955L286.8036423402757,341.7691468174547L302.6295627215276,351.45510918760755" style="fill: none;" fill="none"></path></g><g><path stroke="rgb(204, 51, 17)" stroke-width="2px" d="M1.937075477741896,350.9256316942528L17.762995858993772,350.4479068156968L33.58891624024565,351.24031390711843L49.41483662149753,351.79599664398364L65.24075700274942,352.4096817817568L81.06667738400128,352.05026425779386L96.89259776525316,351.45730209501426L112.71851814650505,352.80122539922826L128.5444385277569,351.13099747289294L144.37035890900881,350.3300380425851L160.19627929026066,354.0188372368147L176.02219967151254,354.58329160330686L191.84812005276444,354.4730980061187L207.6740404340163,351.15172044788653L223.4999608152682,348.36716662282174L239.32588119652007,349.6180010076201L255.15180157777198,346.44530257156424L270.9777219590239,347.6880231989577L286.8036423402757,347.94338726647135L302.6295627215276,347.5191693286395L318.45548310277945,339.745202926414" style="fill: none;" fill="none"></path></g><g><path stroke="rgb(51, 187, 238)" stroke-width="2px" d="M1.937075477741896,350.26973308890007L17.762995858993772,349.6586794400149L33.58891624024565,350.5971341647247L49.41483662149753,349.33730885955873L65.24075700274942,349.6994675177801L81.06667738400128,349.7962843797872L96.89259776525316,348.40323994966246L112.71851814650505,350.19276203892383L128.5444385277569,351.0777098229094L144.37035890900881,352.5200946696856L160.19627929026066,349.60714611595677L176.02219967151254,343.06460686798005L191.84812005276444,336.8710688337843L207.6740404340163,331.8410874695991L223.4999608152682,325.47156861601326L239.32588119652007,318.1434202895757L255.15180157777198,317.77029709432077L270.9777219590239,306.1928424404936L286.8036423402757,276.50175331634216L302.6295627215276,290.1418566769388L318.45548310277945,294.4941200070744L334.2814034840314,275.7041928925147L350.10732386528326,287.15358175378884L365.93324424653514,271.36278445404247L381.75916462778696,293.11532947509335L397.58508500903883,270.5614960876236" style="fill: none;" fill="none"></path></g><g><path stroke="rgb(204, 51, 17)" stroke-width="2px" d="M1.937075477741896,351.0127997636702L17.762995858993772,349.28731057068535L33.58891624024565,350.5149001369724L49.41483662149753,348.43536604317103L65.24075700274942,348.87208355322116L81.06667738400128,348.96539176337745L96.89259776525316,349.9275298880799L112.71851814650505,350.7091917332086L128.5444385277569,344.67518771285233L144.37035890900881,345.5831610246086L160.19627929026066,335.20994147318686L176.02219967151254,341.9264879238876L191.84812005276444,340.15111008739956L207.6740404340163,321.0529698368241L223.4999608152682,333.51690730982153L239.32588119652007,305.48387547589806L255.15180157777198,326.43710574719614L270.9777219590239,319.93118805291175L286.8036423402757,325.1963587364687L302.6295627215276,312.244499365474L318.45548310277945,316.834473858499" style="fill: none;" fill="none"></path></g><g><path stroke="rgb(0, 153, 136)" stroke-width="2px" d="M1.937075477741896,350.88473397111727L17.762995858993772,351.01466373496595L33.58891624024565,349.6980421279657L49.41483662149753,351.9342594559779L65.24075700274942,349.22130405774277L81.06667738400128,351.225511782123L96.89259776525316,348.59018530608614L112.71851814650505,348.29326564321497L128.5444385277569,339.37186044041835L144.37035890900881,336.84760472453223L160.19627929026066,335.4052198777561L176.02219967151254,332.68963299063296L191.84812005276444,329.99389191554064L207.6740404340163,321.84362260232035L223.4999608152682,324.0491392266383L239.32588119652007,321.2072408728875" style="fill: none;" fill="none"></path></g><g><path stroke="rgb(187, 187, 187)" stroke-width="2px" d="M1.937075477741896,350.9313332535103L17.762995858993772,349.7438738927664L33.58891624024565,351.15490016362634L49.41483662149753,349.89682918438575L65.24075700274942,352.41012036323815L81.06667738400128,349.8900311714249L96.89259776525316,347.32389092407027L112.71851814650505,349.38555282250684L128.5444385277569,344.1562361750499L144.37035890900881,344.27388565742086L160.19627929026066,341.9150848053726L176.02219967151254,327.46316712280475L191.84812005276444,335.3729841388772L207.6740404340163,318.2473641006547L223.4999608152682,315.7806722041953L239.32588119652007,318.4275114441175" style="fill: none;" fill="none"></path></g></g></g></g></g></g><g transform="translate(51, 377)" clip-path="url(#clip_1)"><clipPath id="clip_1"><rect width="487" height="23"></rect></clipPath><g><g><line x1="1.937075477741896" y1="0" x2="1.937075477741896" y2="5" style="visibility: inherit;" fill="rgb(0, 0, 0)" stroke="rgb(204, 204, 204)" stroke-width="1px"></line><line x1="33.58891624024565" y1="0" x2="33.58891624024565" y2="5" style="visibility: inherit;" fill="rgb(0, 0, 0)" stroke="rgb(204, 204, 204)" stroke-width="1px"></line><line x1="65.24075700274942" y1="0" x2="65.24075700274942" y2="5" style="visibility: inherit;" fill="rgb(0, 0, 0)" stroke="rgb(204, 204, 204)" stroke-width="1px"></line><line x1="96.89259776525316" y1="0" x2="96.89259776525316" y2="5" style="visibility: inherit;" fill="rgb(0, 0, 0)" stroke="rgb(204, 204, 204)" stroke-width="1px"></line><line x1="128.5444385277569" y1="0" x2="128.5444385277569" y2="5" style="visibility: inherit;" fill="rgb(0, 0, 0)" stroke="rgb(204, 204, 204)" stroke-width="1px"></line><line x1="160.19627929026066" y1="0" x2="160.19627929026066" y2="5" style="visibility: inherit;" fill="rgb(0, 0, 0)" stroke="rgb(204, 204, 204)" stroke-width="1px"></line><line x1="191.84812005276444" y1="0" x2="191.84812005276444" y2="5" style="visibility: inherit;" fill="rgb(0, 0, 0)" stroke="rgb(204, 204, 204)" stroke-width="1px"></line><line x1="223.4999608152682" y1="0" x2="223.4999608152682" y2="5" style="visibility: inherit;" fill="rgb(0, 0, 0)" stroke="rgb(204, 204, 204)" stroke-width="1px"></line><line x1="255.15180157777198" y1="0" x2="255.15180157777198" y2="5" style="visibility: inherit;" fill="rgb(0, 0, 0)" stroke="rgb(204, 204, 204)" stroke-width="1px"></line><line x1="286.8036423402757" y1="0" x2="286.8036423402757" y2="5" style="visibility: inherit;" fill="rgb(0, 0, 0)" stroke="rgb(204, 204, 204)" stroke-width="1px"></line><line x1="318.45548310277945" y1="0" x2="318.45548310277945" y2="5" style="visibility: inherit;" fill="rgb(0, 0, 0)" stroke="rgb(204, 204, 204)" stroke-width="1px"></line><line x1="350.10732386528326" y1="0" x2="350.10732386528326" y2="5" style="visibility: inherit;" fill="rgb(0, 0, 0)" stroke="rgb(204, 204, 204)" stroke-width="1px"></line><line x1="381.75916462778696" y1="0" x2="381.75916462778696" y2="5" style="visibility: inherit;" fill="rgb(0, 0, 0)" stroke="rgb(204, 204, 204)" stroke-width="1px"></line><line x1="413.41100539029077" y1="0" x2="413.41100539029077" y2="5" style="visibility: inherit;" fill="rgb(0, 0, 0)" stroke="rgb(204, 204, 204)" stroke-width="1px"></line><line x1="445.0628461527945" y1="0" x2="445.0628461527945" y2="5" style="visibility: inherit;" fill="rgb(0, 0, 0)" stroke="rgb(204, 204, 204)" stroke-width="1px"></line><line x1="476.7146869152982" y1="0" x2="476.7146869152982" y2="5" style="visibility: inherit;" fill="rgb(0, 0, 0)" stroke="rgb(204, 204, 204)" stroke-width="1px"></line></g><g transform="translate(0, 8)"><text x="1.937075477741896" y="0" dx="0em" dy="0.95em" style="text-anchor: middle; visibility: inherit; font-family: Roboto, sans-serif; font-size: 12px; font-weight: 200;" fill="rgb(33, 33, 33)" stroke="none" stroke-width="1px">0</text><text x="33.58891624024565" y="0" dx="0em" dy="0.95em" style="text-anchor: middle; visibility: inherit; font-family: Roboto, sans-serif; font-size: 12px; font-weight: 200;" fill="rgb(33, 33, 33)" stroke="none" stroke-width="1px">2</text><text x="65.24075700274942" y="0" dx="0em" dy="0.95em" style="text-anchor: middle; visibility: inherit; font-family: Roboto, sans-serif; font-size: 12px; font-weight: 200;" fill="rgb(33, 33, 33)" stroke="none" stroke-width="1px">4</text><text x="96.89259776525316" y="0" dx="0em" dy="0.95em" style="text-anchor: middle; visibility: inherit; font-family: Roboto, sans-serif; font-size: 12px; font-weight: 200;" fill="rgb(33, 33, 33)" stroke="none" stroke-width="1px">6</text><text x="128.5444385277569" y="0" dx="0em" dy="0.95em" style="text-anchor: middle; visibility: inherit; font-family: Roboto, sans-serif; font-size: 12px; font-weight: 200;" fill="rgb(33, 33, 33)" stroke="none" stroke-width="1px">8</text><text x="160.19627929026066" y="0" dx="0em" dy="0.95em" style="text-anchor: middle; visibility: inherit; font-family: Roboto, sans-serif; font-size: 12px; font-weight: 200;" fill="rgb(33, 33, 33)" stroke="none" stroke-width="1px">10</text><text x="191.84812005276444" y="0" dx="0em" dy="0.95em" style="text-anchor: middle; visibility: inherit; font-family: Roboto, sans-serif; font-size: 12px; font-weight: 200;" fill="rgb(33, 33, 33)" stroke="none" stroke-width="1px">12</text><text x="223.4999608152682" y="0" dx="0em" dy="0.95em" style="text-anchor: middle; visibility: inherit; font-family: Roboto, sans-serif; font-size: 12px; font-weight: 200;" fill="rgb(33, 33, 33)" stroke="none" stroke-width="1px">14</text><text x="255.15180157777198" y="0" dx="0em" dy="0.95em" style="text-anchor: middle; visibility: inherit; font-family: Roboto, sans-serif; font-size: 12px; font-weight: 200;" fill="rgb(33, 33, 33)" stroke="none" stroke-width="1px">16</text><text x="286.8036423402757" y="0" dx="0em" dy="0.95em" style="text-anchor: middle; visibility: inherit; font-family: Roboto, sans-serif; font-size: 12px; font-weight: 200;" fill="rgb(33, 33, 33)" stroke="none" stroke-width="1px">18</text><text x="318.45548310277945" y="0" dx="0em" dy="0.95em" style="text-anchor: middle; visibility: inherit; font-family: Roboto, sans-serif; font-size: 12px; font-weight: 200;" fill="rgb(33, 33, 33)" stroke="none" stroke-width="1px">20</text><text x="350.10732386528326" y="0" dx="0em" dy="0.95em" style="text-anchor: middle; visibility: inherit; font-family: Roboto, sans-serif; font-size: 12px; font-weight: 200;" fill="rgb(33, 33, 33)" stroke="none" stroke-width="1px">22</text><text x="381.75916462778696" y="0" dx="0em" dy="0.95em" style="text-anchor: middle; visibility: inherit; font-family: Roboto, sans-serif; font-size: 12px; font-weight: 200;" fill="rgb(33, 33, 33)" stroke="none" stroke-width="1px">24</text><text x="413.41100539029077" y="0" dx="0em" dy="0.95em" style="text-anchor: middle; visibility: inherit; font-family: Roboto, sans-serif; font-size: 12px; font-weight: 200;" fill="rgb(33, 33, 33)" stroke="none" stroke-width="1px">26</text><text x="445.0628461527945" y="0" dx="0em" dy="0.95em" style="text-anchor: middle; visibility: inherit; font-family: Roboto, sans-serif; font-size: 12px; font-weight: 200;" fill="rgb(33, 33, 33)" stroke="none" stroke-width="1px">28</text><text x="476.7146869152982" y="0" dx="0em" dy="0.95em" style="text-anchor: middle; visibility: inherit; font-family: Roboto, sans-serif; font-size: 12px; font-weight: 200;" fill="rgb(33, 33, 33)" stroke="none" stroke-width="1px">30</text></g><line x1="0" y1="0" x2="487.4375" y2="0" fill="rgb(0, 0, 0)" stroke="rgb(204, 204, 204)" stroke-width="1px"></line></g></g></g></g></svg>