<?xml version="1.0" encoding="utf-8"?>
<!-- Generator: Adobe Illustrator 25.4.1, SVG Export Plug-In . SVG Version: 6.00 Build 0)  -->
<svg version="1.1" id="Layer_1" xmlns="http://www.w3.org/2000/svg" xmlns:xlink="http://www.w3.org/1999/xlink" x="0px" y="0px"
	 viewBox="0 0 539 419" style="enable-background:new 0 0 539 419;" xml:space="preserve">
<style type="text/css">
	.st0{fill:none;stroke:#CCCCCC;}
	.st1{fill:#212121;}
	.st2{font-family:'ArialMT';}
	.st3{font-size:12px;}
	.st4{clip-path:url(#SVGID_00000044859885289558798080000012082928910659169955_);}
	.st5{opacity:0.25;fill:none;stroke:#424242;enable-background:new    ;}
	.st6{fill:none;stroke:#999999;stroke-width:1.5;}
	.st7{fill:none;stroke:#CC3311;stroke-width:2;}
	.st8{fill:none;stroke:#33BBEE;stroke-width:2;}
	.st9{fill:none;stroke:#EE3377;stroke-width:2;}
	.st10{fill:none;stroke:#009988;stroke-width:2;}
	.st11{fill:none;stroke:#0077BB;stroke-width:2;}
	.st12{fill:none;stroke:#FF7043;stroke-width:2;}
	.st13{fill:none;stroke:#BBBBBB;stroke-width:2;}
	.st14{clip-path:url(#SVGID_00000125582445636783379220000014980227619767931058_);}
	.st15{font-size:16px;}
</style>
<g>
	<g>
		<g>
			<g>
				<g>
					<line class="st0" x1="50" y1="365.1" x2="45" y2="365.1"/>
					<line class="st0" x1="50" y1="330.2" x2="45" y2="330.2"/>
					<line class="st0" x1="50" y1="295.3" x2="45" y2="295.3"/>
					<line class="st0" x1="50" y1="260.4" x2="45" y2="260.4"/>
					<line class="st0" x1="50" y1="225.5" x2="45" y2="225.5"/>
					<line class="st0" x1="50" y1="190.7" x2="45" y2="190.7"/>
					<line class="st0" x1="50" y1="155.8" x2="45" y2="155.8"/>
					<line class="st0" x1="50" y1="120.9" x2="45" y2="120.9"/>
					<line class="st0" x1="50" y1="86" x2="45" y2="86"/>
					<line class="st0" x1="50" y1="51.1" x2="45" y2="51.1"/>
					<line class="st0" x1="50" y1="16.3" x2="45" y2="16.3"/>
				</g>
				<g transform="translate(40, 0)">
					<text transform="matrix(1 0 0 1 -23.3555 368.6558)" class="st1 st2 st3">0.45</text>
					<text transform="matrix(1 0 0 1 -23.3555 333.7767)" class="st1 st2 st3">0.46</text>
					<text transform="matrix(1 0 0 1 -23.3555 298.8976)" class="st1 st2 st3">0.47</text>
					<text transform="matrix(1 0 0 1 -23.3555 264.0185)" class="st1 st2 st3">0.48</text>
					<text transform="matrix(1 0 0 1 -23.3555 229.1394)" class="st1 st2 st3">0.49</text>
					<text transform="matrix(1 0 0 1 -16.6816 194.2603)" class="st1 st2 st3">0.5</text>
					<text transform="matrix(1 0 0 1 -23.3555 159.3812)" class="st1 st2 st3">0.51</text>
					<text transform="matrix(1 0 0 1 -23.3555 124.5021)" class="st1 st2 st3">0.52</text>
					<text transform="matrix(1 0 0 1 -23.3555 89.623)" class="st1 st2 st3">0.53</text>
					<text transform="matrix(1 0 0 1 -23.3555 54.7439)" class="st1 st2 st3">0.54</text>
					<text transform="matrix(1 0 0 1 -23.3555 19.8648)" class="st1 st2 st3">0.55</text>
				</g>
				<line class="st0" x1="50" y1="9.5" x2="50" y2="386.5"/>
			</g>
		</g>
		<g>
			<defs>
				<rect id="SVGID_1_" x="50" y="9.5" width="506" height="377"/>
			</defs>
			<clipPath id="SVGID_00000062905602175409663820000002506629991969958591_">
				<use xlink:href="#SVGID_1_"  style="overflow:visible;"/>
			</clipPath>
			<g transform="translate(50, 0)" style="clip-path:url(#SVGID_00000062905602175409663820000002506629991969958591_);">
				<g>
					<g>
						<g>
							<line class="st5" x1="4.4" y1="9.5" x2="4.4" y2="386.5"/>
							<line class="st5" x1="84.1" y1="9.5" x2="84.1" y2="386.5"/>
							<line class="st5" x1="163.9" y1="9.5" x2="163.9" y2="386.5"/>
							<line class="st5" x1="243.6" y1="9.5" x2="243.6" y2="386.5"/>
							<line class="st5" x1="323.4" y1="9.5" x2="323.4" y2="386.5"/>
							<line class="st5" x1="403.1" y1="9.5" x2="403.1" y2="386.5"/>
							<line class="st5" x1="482.9" y1="9.5" x2="482.9" y2="386.5"/>
						</g>
						<g>
							<line class="st5" x1="0" y1="365.1" x2="506" y2="365.1"/>
							<line class="st5" x1="0" y1="330.2" x2="506" y2="330.2"/>
							<line class="st5" x1="0" y1="295.3" x2="506" y2="295.3"/>
							<line class="st5" x1="0" y1="260.4" x2="506" y2="260.4"/>
							<line class="st5" x1="0" y1="225.5" x2="506" y2="225.5"/>
							<line class="st5" x1="0" y1="190.7" x2="506" y2="190.7"/>
							<line class="st5" x1="0" y1="155.8" x2="506" y2="155.8"/>
							<line class="st5" x1="0" y1="120.9" x2="506" y2="120.9"/>
							<line class="st5" x1="0" y1="86" x2="506" y2="86"/>
							<line class="st5" x1="0" y1="51.1" x2="506" y2="51.1"/>
							<line class="st5" x1="0" y1="16.3" x2="506" y2="16.3"/>
						</g>
					</g>
				</g>
				<g>
					<g>
						<line class="st6" x1="0" y1="1934.6" x2="506" y2="1934.6"/>
					</g>
				</g>
				<g>
					<g>
						<line class="st6" x1="4.4" y1="9.5" x2="4.4" y2="386.5"/>
					</g>
				</g>
				<g>
					<g>
						<g>
							<g>
								<g>
									<path class="st7" d="M4.4,190.7l16,37.1l16-37.1l16,26.5l16-37.1l16-37.1l16-10.6l16-42.4l16,15.9l16,5.3l16,132.5l16-159
										l16,37.1l16,26.5l16-26.5l16,95.4l16-37.1l16-21.2l16-5.3l16,5.3l16,5.3h16l16-10.6l16-10.6"/>
								</g>
								<g>
									<path class="st8" d="M4.4,190.7h16l16-5.3l16-58.3l16,106l16,53l16-10.6l16-95.4l16,63.6l16,47.7l16-42.4l16-10.6l16-31.8
										l16-31.8l16,106l16-121.9"/>
								</g>
								<g>
									<path class="st9" d="M4.4,174.8l16,58.3h16l16-47.7l16,42.4l16-63.6l16,37.1l16-42.4l16,58.3l16,47.7l16-100.7l16-53
										l16,58.3l16-31.8l16,31.8l16-53l16,106l16-68.9l16,37.1l16,5.3l16,37.1l16-15.9l16-10.6l16,68.9"/>
								</g>
								<g>
									<path class="st10" d="M4.4,190.7l16-10.6l16,10.6l16-5.3l16,15.9l16-37.1h16l16,42.4l16,15.9l16-26.5l16-68.9l16,68.9
										l16,5.3l16,5.3l16-42.4l16,74.2l16-58.3l16,53l16-26.5l16,53l16-63.6l16-15.9l16,106"/>
								</g>
								<g>
									<path class="st11" d="M4.4,196l16,106l16-58.3l16-21.2l16,47.7l16-68.9l16,42.4l16-21.2l16,26.5l16,132.5l16-26.5l16-74.2"
										/>
								</g>
								<g>
									<path class="st7" d="M4.4,169.5L20.3,21l16,174.9l16,5.3l16-31.8l16,37.1l16,21.2l16-47.7l16,21.2l16-26.5l16,63.6l16-37.1
										l16,84.8l16-116.6"/>
								</g>
								<g>
									<path class="st8" d="M4.4,190.7h16h16l16-84.8l16,153.7l16,37.1l16-106l16,63.6l16-58.3l16,153.7l16-132.5l16-5.3l16-21.2
										l16-10.6l16,84.8l16-164.3l16,74.2l16,53l16-26.5l16,74.2l16,15.9l16,42.4l16-31.8l16-15.9l16-90.1l16,31.8l16,116.6
										l16-63.6"/>
								</g>
								<g>
									<path class="st9" d="M4.4,190.7h16l16,31.8l16-84.8l16,116.6l16-26.5l16-63.6l16-47.7l16,42.4l16,58.3l16-37.1l16,68.9
										l16-37.1l16,95.4l16-79.5l16,58.3l16-143.1l16,26.5l16-15.9l16,37.1"/>
								</g>
								<g>
									<path class="st12" d="M4.4,190.7l16,21.2l16-37.1l16,26.5l16,68.9l16-21.2l16-106l16,31.8l16,31.8l16-47.7l16-5.3l16-5.3
										l16-31.8l16,15.9l16,42.4l16-42.4l16,37.1l16,10.6l16-10.6l16-53l16,10.6l16,26.5l16,74.2l16-5.3l16-42.4"/>
								</g>
								<g>
									<path class="st11" d="M4.4,190.7h16h16h16h16l16,15.9l16,31.8l16-53l16,26.5l16-37.1l16,68.9l16-42.4l16,37.1l16-10.6
										l16-21.2l16-37.1l16,58.3l16-5.3l16-5.3l16,10.6l16-15.9l16-79.5l16,21.2l16,68.9l16-79.5l16,10.6l16,10.6l16,53l16-5.3
										l16,21.2"/>
								</g>
								<g>
									<path class="st7" d="M4.4,196l16-63.6h16l16,26.5l16-79.5l16,116.6l16,21.2l16-111.3l16,111.3l16-37.1l16,21.2l16-21.2
										l16-31.8l16,31.8l16-37.1l16,42.4h16"/>
								</g>
								<g>
									<path class="st8" d="M4.4,275.5l16-68.9l16-15.9h16l16-10.6l16,37.1l16-58.3l16,127.2l16-68.9l16,10.6l16,111.3l16-90.1
										l16-47.7l16,31.8l16-79.5l16,63.6l16-15.9l16-10.6l16-15.9l16,26.5l16-26.5l16,58.3l16-84.8l16,15.9l16-15.9l16,26.5
										l16-15.9l16,10.6l16-21.2l16,63.6"/>
								</g>
								<g>
									<path class="st13" d="M4.4,190.7h16l16,37.1l16-10.6l16,5.3l16-100.7l16,47.7l16,5.3l16,100.7l16-42.4h16l16,5.3l16-53
										l16-42.4l16,47.7l16-31.8l16,53l16-58.3"/>
								</g>
								<g>
									<path class="st12" d="M4.4,190.7h16l16,15.9l16,15.9l16-31.8l16,74.2l16,95.4l16-148.4l16-31.8l16,180.2l16-42.4l16-79.5
										l16,5.3l16,42.4l16-31.8l16-53l16-5.3l16,53l16-53l16-42.4l16,68.9l16-31.8l16,10.6l16,26.5l16,26.5h16l16-47.7l16,42.4
										l16-63.6l16,132.5"/>
								</g>
								<g>
									<path class="st11" d="M4.4,169.5l16,21.2h16h16l16,63.6l16-68.9l16-31.8l16,53l16-5.3l16-42.4l16,21.2l16-31.8l16,53
										l16,21.2l16-21.2l16-5.3l16,31.8l16-42.4l16,10.6l16,95.4l16-148.4l16,90.1l16,21.2l16-42.4l16,10.6l16-26.5l16-5.3
										l16,90.1l16,5.3l16-15.9"/>
								</g>
								<g>
									<path class="st7" d="M4.4,180.1l16,26.5l16,15.9l16-21.2l16-5.3l16,53l16-15.9l16-26.5l16,26.5l16,15.9l16-53l16-21.2
										l16,100.7l16-42.4l16-74.2l16,58.3l16,31.8l16-84.8l16,53l16-15.9l16-37.1l16-37.1h16l16,58.3l16-5.3l16-42.4l16,63.6
										l16-26.5l16-58.3l16,53"/>
								</g>
								<g>
									<path class="st10" d="M4.4,105.8l16,90.1l16,5.3l16,21.2l16-84.8l16,15.9l16,90.1l16-63.6l16-10.6l16,5.3l16-5.3l16-100.7
										l16,68.9l16-21.2l16-42.4l16,121.9l16-31.8l16-84.8l16,74.2l16-21.2l16,5.3l16-26.5l16,68.9l16-95.4"/>
								</g>
								<g>
									<path class="st13" d="M4.4,169.5l16,5.3l16,10.6h16l16-10.6l16-5.3l16-10.6l16,5.3l16,5.3l16,21.2l16,58.3l16-10.6l16-15.9
										l16-26.5l16,5.3l16-31.8l16,53l16-15.9l16,74.2"/>
								</g>
								<g>
									<path class="st12" d="M4.4,238.4l16-100.7l16,84.8l16-21.2l16-106l16,174.9l16-132.5l16,68.9l16-21.2l16,5.3l16-10.6
										l16-21.2l16,90.1l16-68.9l16,31.8l16-42.4l16-47.7"/>
								</g>
								<g>
									<path class="st11" d="M4.4,185.4l16-10.6l16,31.8l16,100.7l16-121.9l16,58.3l16-47.7l16,68.9l16-5.3l16-5.3l16-68.9
										l16-15.9l16,26.5l16,58.3l16-42.4l16,10.6l16-79.5l16-31.8l16,63.6l16-58.3l16,63.6l16-47.7l16,68.9l16-15.9l16-53l16,5.3
										l16,15.9l16,53l16-21.2l16-26.5"/>
								</g>
								<g>
									<path class="st9" d="M4.4,217.2l16,95.4l16-174.9l16,53l16-68.9l16,90.1l16,148.4l16-159l16,15.9l16-37.1l16-26.5l16,31.8
										l16,58.3l16-79.5l16-74.2l16,127.2l16-106l16,90.1l16-5.3l16,74.2l16-79.5l16-58.3l16-42.4l16,159l16,15.9l16-95.4l16,5.3"
										/>
								</g>
								<g>
									<path class="st10" d="M4.4,196l16,5.3l16-5.3l16,10.6l16-21.2l16,5.3l16-15.9l16-15.9l16,79.5l16,26.5l16,47.7l16-132.5
										l16,68.9l16-10.6l16,47.7l16-58.3l16-15.9l16,26.5l16-84.8l16,63.6l16,31.8h16l16-42.4l16-5.3l16,84.8l16-90.1l16-5.3
										L435,355l16-164.3l16,31.8"/>
								</g>
								<g>
									<path class="st13" d="M4.4,233.1l16-58.3l16,42.4l16,106l16-63.6l16,74.2l16-100.7l16,106L132,196l16,74.2l16-15.9l16-90.1
										l16,100.7l16,63.6l16-84.8l16-79.5l16,111.3l16,5.3l16,31.8l16-26.5l16-42.4l16,15.9l16,26.5l16-10.6"/>
								</g>
								<g>
									<path class="st12" d="M4.4,307.3l16-68.9l16-37.1l16-42.4l16,5.3l16,58.3l16-10.6l16,21.2l16,5.3l16,42.4l16-100.7l16-42.4
										l16,84.8l16-68.9l16-21.2l16,5.3l16,47.7l16,10.6l16-53l16,68.9l16-26.5l16,37.1l16-63.6l16,15.9l16-63.6l16,68.9l16-58.3
										l16,79.5l16-68.9l16,42.4"/>
								</g>
								<g>
									<path class="st12" d="M4.4,190.7h16l16-5.3l16,10.6l16-31.8l16,5.3l16,31.8l16,47.7l16-26.5l16,31.8l16-111.3l16,121.9
										l16-37.1l16,37.1l16-111.3l16,21.2l16,37.1l16-132.5l16,116.6l16-63.6l16,37.1l16,31.8l16,63.6l16-137.8l16-37.1l16,132.5
										l16-53l16-21.2l16,31.8l16,37.1"/>
								</g>
								<g>
									<path class="st11" d="M4.4,190.7l16,26.5l16-63.6l16,47.7l16-10.6l16,53l16-90.1l16,37.1l16-10.6l16,10.6l16-21.2l16,68.9
										l16-121.9l16-68.9l16,206.7l16-31.8l16-31.8l16-58.3l16,37.1h16l16,21.2l16-37.1h16l16,84.8l16-68.9l16-31.8"/>
								</g>
								<g>
									<path class="st7" d="M4.4,190.7l16-10.6l16-5.3l16,26.5l16-15.9l16-47.7l16,10.6l16,95.4l16,21.2l16-37.1l16-90.1l16,10.6
										l16,58.3l16-10.6l16,137.8l16-100.7l16-10.6l16-47.7"/>
								</g>
								<g>
									<path class="st8" d="M4.4,180.1l16-26.5l16,74.2l16-37.1l16,127.2l16-68.9l16-68.9l16,58.3l16-37.1l16-47.7l16,100.7
										l16,5.3h16l16-42.4"/>
								</g>
								<g>
									<path class="st13" d="M4.4,121.8l16,84.8l16,10.6h16l16-47.7l16,42.4l16,95.4l16-21.2l16,37.1l16-63.6l16,21.2l16,58.3
										l16-58.3"/>
								</g>
								<g>
									<path class="st12" d="M4.4,190.7h16h16l16-5.3l16,5.3l16-42.4l16-37.1l16-47.7l16,42.4l16,84.8l16,79.5l16-68.9l16-58.3
										l16-74.2l16,68.9l16,47.7l16,84.8l16-95.4l16,79.5l16-5.3"/>
								</g>
								<g>
									<path class="st11" d="M4.4,196l16-5.3h16l16,31.8l16-31.8l16,5.3l16,10.6l16-5.3l16,53l16,111.3l16-79.5l16-21.2"/>
								</g>
								<g>
									<path class="st7" d="M4.4,169.5l16,31.8l16-21.2l16,10.6l16-100.7l16,21.2l16,21.2l16-79.5L132,74l16,53l16,15.9l16,15.9
										l16-10.6l16,58.3l16,21.2l16-58.3l16-5.3l16,31.8l16,100.7l16-42.4"/>
								</g>
								<g>
									<path class="st10" d="M4.4,196h16l16,26.5l16-15.9h16l16-10.6l16-5.3l16,31.8l16,15.9l16,26.5l16-5.3l16-21.2"/>
								</g>
								<g>
									<path class="st13" d="M4.4,190.7l16-10.6l16,47.7l16-26.5l16-15.9l16,63.6l16,84.8l16-15.9h16l16-21.2l16-90.1l16,5.3
										l16,31.8l16-26.5"/>
								</g>
								<g>
									<path class="st12" d="M4.4,148.3l16,26.5l16,63.6l16-90.1l16-5.3l16,26.5l16-58.3l16,42.4h16l16-31.8l16,111.3l16-111.3
										l16,68.9l16,121.9l16-143.1l16,15.9h16l16-47.7l16,143.1"/>
								</g>
								<g>
									<path class="st11" d="M4.4,206.6l16-63.6l16,68.9l16-10.6l16-42.4l16,15.9l16-74.2l16,74.2l16,15.9l16-15.9l16,42.4
										l16-31.8l16-15.9l16,42.4l16-31.8l16,10.6l16,42.4l16,21.2l16-47.7"/>
								</g>
								<g>
									<path class="st9" d="M4.4,190.7h16h16l16,31.8l16-10.6l16-26.5l16-26.5l16,15.9l16,53l16-10.6l16,90.1l16-79.5l16-10.6
										l16,37.1l16-31.8l16,15.9l16-31.8l16-10.6l16,47.7"/>
								</g>
								<g>
									<path class="st10" d="M4.4,190.7h16l16-15.9h16l16-10.6l16-5.3l16,42.4h16l16,111.3l16-63.6l16,68.9l16-21.2l16-68.9
										l16,21.2l16-63.6l16,74.2l16,15.9l16-53"/>
								</g>
								<g>
									<path class="st13" d="M4.4,190.7l16-53l16,15.9h16l16,53l16-68.9l16,47.7l16-47.7L132,74l16-5.3l16,68.9l16,10.6l16,21.2
										l16-31.8l16,10.6l16,63.6l16,31.8l16-116.6l16,10.6l16-10.6l16,164.3l16-21.2"/>
								</g>
								<g>
									<path class="st12" d="M4.4,190.7h16l16-15.9l16,21.2l16-15.9l16-31.8l16,31.8l16-15.9l16,31.8h16l16,37.1h16l16-31.8
										l16-26.5h16l16,111.3l16-100.7l16,53"/>
								</g>
								<g>
									<path class="st8" d="M4.4,243.7l16-10.6l16-37.1l16-21.2l16,10.6l16,58.3l16-84.8l16,74.2l16-26.5h16l16-10.6l16,47.7
										l16-47.7l16,132.5l16-90.1l16-10.6l16-15.9l16-15.9l16,53"/>
								</g>
								<g>
									<path class="st9" d="M4.4,238.4l16-37.1l16,53l16-58.3h16l16,74.2l16-21.2l16-21.2l16-37.1l16-15.9l16,137.8l16-58.3
										l16-90.1l16,47.7l16,63.6l16-53h16l16,21.2l16-42.4l16,5.3l16,37.1l16-37.1l16,10.6l16,42.4l16,5.3"/>
								</g>
								<g>
									<path class="st10" d="M4.4,238.4l16,31.8l16-5.3l16-31.8l16,31.8l16-15.9l16-5.3l16-47.7l16,84.8l16-79.5l16,53l16-53"/>
								</g>
								<g>
									<path class="st13" d="M4.4,153.6l16-26.5l16,53l16-15.9l16,68.9l16-53l16,5.3l16,68.9l16-21.2l16-31.8l16,68.9l16-15.9
										l16,21.2l16-42.4"/>
								</g>
								<g>
									<path class="st7" d="M4.4,105.8l16,47.7l16-15.9l16,5.3l16-47.7l16,111.3l16,42.4l16-58.3l16,84.8l16-84.8l16,116.6l16-5.3
										l16-68.9l16,31.8l16-15.9h16h16"/>
								</g>
								<g>
									<path class="st8" d="M4.4,174.8l16-31.8l16-47.7l16,15.9h16l16-37.1l16,100.7l16-26.5l16,21.2l16-15.9l16,10.6l16-31.8
										l16,15.9l16,90.1l16-58.3l16,5.3l16,31.8l16-100.7"/>
								</g>
								<g>
									<path class="st9" d="M4.4,286.1l16-31.8l16-53l16,31.8l16,10.6l16,10.6l16-21.2l16-21.2l16-31.8l16,127.2l16-90.1l16,26.5
										l16,10.6l16-53l16,63.6l16-42.4l16,15.9h16l16,5.3h16l16-47.7"/>
								</g>
								<g>
									<path class="st10" d="M4.4,180.1l16-5.3l16-21.2l16,53h16l16,21.2l16-21.2l16-37.1l16,5.3h16l16-21.2l16-10.6l16,21.2
										l16,42.4l16-74.2l16,21.2l16-42.4l16,58.3l16-53l16,42.4l16-31.8l16,15.9l16,15.9l16,10.6l16-53l16-31.8l16,21.2l16,26.5
										l16-31.8l16,15.9"/>
								</g>
								<g>
									<path class="st10" d="M4.4,190.7h16h16l16-5.3l16-31.8l16,31.8l16,5.3l16,84.8l16-68.9l16,111.3l16-68.9l16-31.8l16-63.6
										l16,5.3l16-5.3l16,164.3l16-100.7"/>
								</g>
								<g>
									<path class="st13" d="M4.4,190.7h16h16h16l16,5.3l16,15.9l16-31.8l16,21.2l16,15.9l16-37.1l16-21.2l16-5.3l16,164.3
										l16-90.1l16,15.9l16,26.5l16,58.3l16-106l16,84.8l16-68.9l16,31.8l16-10.6l16-21.2l16,58.3"/>
								</g>
								<g>
									<path class="st12" d="M4.4,190.7l16-127.2l16,21.2l16,68.9l16,21.2l16-58.3l16,63.6l16-21.2l16,10.6l16-121.9l16,148.4
										l16-10.6l16-15.9l16,153.7l16-21.2l16-95.4l16,111.3l16-47.7l16-53l16,47.7h16l16-47.7"/>
								</g>
								<g>
									<path class="st11" d="M4.4,174.8l16,31.8l16-53l16,5.3l16,47.7l16,5.3l16,37.1l16,21.2l16,58.3l16-90.1l16,21.2l16,100.7
										l16-137.8l16,21.2l16,31.8"/>
								</g>
								<g>
									<path class="st9" d="M4.4,190.7h16l16-5.3l16-5.3l16,10.6h16l16-53l16,74.2l16-5.3l16,10.6l16,5.3l16,26.5l16-68.9l16-90.1
										l16,31.8l16-79.5l16,153.7l16-21.2l16,106l16-132.5l16,58.3l16-47.7l16-37.1l16,95.4l16,21.2l16-90.1l16,5.3l16,63.6"/>
								</g>
								<g>
									<path class="st10" d="M4.4,190.7h16l16-10.6l16-47.7l16,37.1l16-15.9l16,74.2l16-26.5l16-5.3l16,37.1l16-5.3l16,37.1
										l16-95.4l16,74.2l16-5.3l16-53"/>
								</g>
								<g>
									<path class="st13" d="M4.4,190.7l16,5.3l16-31.8l16,63.6l16-31.8l16-10.6l16-31.8l16,58.3l16,79.5l16-15.9l16,5.3l16-10.6
										l16-63.6l16,74.2l16-90.1h16l16,42.4l16,37.1l16-26.5"/>
								</g>
								<g>
									<path class="st12" d="M4.4,153.6l16-47.7l16,74.2h16l16,10.6l16,106l16-106l16,100.7l16,10.6l16-47.7l16-21.2l16-5.3
										l16,5.3l16-21.2"/>
								</g>
								<g>
									<path class="st8" d="M4.4,164.2l16,10.6l16,21.2l16,58.3l16-106l16,159l16-164.3l16,68.9l16-116.6l16-10.6l16,21.2l16,84.8
										l16,63.6l16-90.1l16-10.6l16-106l16,26.5l16,90.1l16,10.6l16-58.3l16,15.9l16,31.8l16-15.9l16,37.1l16,10.6l16-15.9
										l16-15.9l16-5.3"/>
								</g>
								<g>
									<path class="st9" d="M4.4,190.7l16,90.1l16-47.7l16,26.5l16-5.3l16-26.5l16-5.3l16-53l16,116.6l16-21.2l16,68.9l16-84.8
										l16-47.7l16-84.8l16,116.6l16,63.6l16-106l16,47.7l16-42.4l16,68.9l16,47.7l16-42.4l16-15.9l16,74.2l16-26.5l16-90.1"/>
								</g>
								<g>
									<path class="st10" d="M4.4,196l16-21.2h16l16,106l16-31.8l16-26.5l16,63.6l16-84.8l16,31.8l16,5.3l16-26.5l16,15.9l16,90.1
										l16-15.9"/>
								</g>
								<g>
									<path class="st13" d="M4.4,190.7l16-137.8l16,95.4l16,31.8l16-37.1l16,68.9l16,42.4l16-79.5l16,58.3l16-10.6l16-21.2
										l16-15.9l16,10.6l16,37.1"/>
								</g>
								<g>
									<path class="st7" d="M4.4,190.7h16l16,5.3l16-26.5l16,21.2l16-37.1l16,15.9l16,10.6l16-26.5l16,37.1l16,5.3l16,37.1
										l16,26.5l16-10.6l16-68.9l16,42.4l16,15.9l16-5.3"/>
								</g>
								<g>
									<path class="st8" d="M4.4,249l16,31.8l16-31.8l16-26.5l16-31.8l16-5.3l16-37.1l16,63.6l16-10.6l16,58.3l16-37.1l16-58.3
										l16,47.7l16-31.8l16-15.9h16l16,37.1l16-15.9l16,21.2"/>
								</g>
								<g>
									<path class="st9" d="M4.4,296.7l16-21.2l16-37.1l16,63.6l16-74.2l16-116.6l16,132.5l16,63.6l16-132.5l16,111.3l16-116.6
										l16,100.7l16,26.5l16-53l16-10.6l16,15.9l16-21.2l16-21.2"/>
								</g>
								<g>
									<path class="st10" d="M4.4,185.4l16,10.6l16-5.3l16-5.3l16-5.3l16,5.3l16,53l16-37.1l16,31.8l16-37.1l16,26.5l16,5.3
										l16,5.3l16-63.6l16,5.3l16,42.4l16,26.5l16-127.2l16,68.9l16-47.7l16,5.3l16,58.3l16-63.6l16,63.6l16-100.7l16-10.6
										l16,31.8l16,15.9l16,31.8l16,15.9"/>
								</g>
								<g>
									<path class="st11" d="M4.4,190.7l16-10.6l16,31.8l16-31.8l16,15.9l16,21.2l16-5.3l16-26.5l16,10.6l16,21.2l16-10.6l16-42.4
										l16-5.3l16,42.4l16,31.8l16-53l16,58.3l16-100.7l16,31.8l16-63.6l16,63.6l16-5.3l16,42.4l16-47.7l16-10.6l16-10.6l16-68.9
										l16,37.1l16,68.9l16-10.6"/>
								</g>
								<g>
									<path class="st7" d="M4.4,196l16-74.2h16l16,95.4l16-53l16-37.1l16,5.3l16,106l16-95.4l16,100.7l16-47.7l16-42.4l16,5.3
										l16,10.6"/>
								</g>
								<g>
									<path class="st8" d="M4.4,190.7l16-5.3l16-42.4l16,26.5l16,84.8l16-47.7l16,26.5l16-15.9l16,21.2l16-58.3l16,84.8l16-90.1
										l16,111.3l16-37.1h16"/>
								</g>
								<g>
									<path class="st9" d="M4.4,227.8l16-10.6l16-37.1l16-21.2l16,174.9l16-174.9l16,31.8l16,21.2l16,31.8l16,47.7l16-10.6
										l16-58.3l16-10.6l16,15.9l16-58.3l16,26.5"/>
								</g>
								<g>
									<path class="st12" d="M4.4,164.2l16-31.8l16,53l16-79.5l16,68.9l16-42.4l16-31.8l16,58.3l16,10.6l16,5.3l16,21.2l16-21.2
										l16-153.7l16,153.7l16-15.9l16,37.1l16-58.3l16-53l16,63.6l16-79.5l16,127.2l16-37.1l16-15.9l16-37.1l16,63.6"/>
								</g>
								<g>
									<path class="st11" d="M4.4,190.7l16,5.3l16,21.2h16l16-26.5l16-21.2l16,47.7l16,10.6l16,31.8l16-21.2l16-10.6l16,10.6h16
										l16,84.8l16-79.5l16,37.1l16-63.6l16,10.6"/>
								</g>
								<g>
									<path class="st7" d="M4.4,164.2l16,31.8h16l16-5.3l16-5.3l16-5.3l16,15.9l16,74.2l16-21.2l16-63.6l16,26.5l16-90.1l16,79.5
										l16,47.7l16-15.9l16-10.6l16-21.2l16,42.4l16,5.3l16-15.9l16,21.2l16-31.8l16-21.2l16,37.1"/>
								</g>
								<g>
									<path class="st8" d="M4.4,121.8l16,79.5l16-15.9l16,5.3l16-37.1l16-10.6l16,79.5l16-47.7l16,21.2l16-15.9l16,90.1l16-21.2
										h16"/>
								</g>
								<g>
									<path class="st8" d="M4.4,190.7h16h16h16h16l16,47.7l16,84.8l16-84.8l16-63.6l16,79.5l16,15.9l16,106l16-95.4l16,53l16-53
										l16,15.9l16-31.8l16,37.1l16-90.1l16,21.2l16,37.1"/>
								</g>
								<g>
									<path class="st9" d="M4.4,148.3l16,31.8l16-47.7l16,15.9l16,111.3l16-58.3l16-26.5l16,100.7l16,37.1l16-121.9l16,106
										l16-95.4l16,26.5l16,74.2l16-111.3"/>
								</g>
								<g>
									<path class="st10" d="M4.4,217.2l16-10.6l16-15.9l16,15.9l16-10.6l16,58.3l16-47.7l16-37.1l16,5.3l16-21.2l16,15.9l16-5.3
										l16,79.5l16-42.4l16-68.9h16l16,5.3l16,21.2l16-58.3l16,21.2l16,68.9h16l16-10.6l16-79.5l16,148.4l16-106l16,31.8l16-79.5
										l16,21.2l16,37.1"/>
								</g>
								<g>
									<path class="st13" d="M4.4,174.8l16,10.6l16,42.4l16-26.5l16,74.2l16-95.4l16,106l16-148.4l16,79.5l16,79.5l16-53l16,10.6
										l16-21.2l16,21.2l16,42.4l16-31.8l16-21.2h16l16,15.9l16-47.7"/>
								</g>
								<g>
									<path class="st7" d="M4.4,211.9l16-79.5l16-31.8l16,116.6l16-42.4l16-5.3l16-26.5l16,37.1l16,26.5l16,68.9l16-95.4l16,5.3
										l16,15.9l16-42.4l16,37.1"/>
								</g>
								<g>
									<path class="st8" d="M4.4,196l16-10.6l16,10.6l16,10.6l16-53l16,31.8l16,68.9l16-74.2l16,47.7l16,42.4l16-5.3l16-21.2h16
										l16-137.8l16,84.8l16-84.8l16-26.5l16,90.1l16,90.1l16-79.5l16-10.6l16,68.9l16-68.9l16,42.4l16,53l16-121.9l16,143.1
										l16-26.5l16-106"/>
								</g>
								<g>
									<path class="st9" d="M4.4,164.2l16,47.7l16-95.4l16,68.9l16,31.8l16-5.3l16,100.7l16-47.7l16,21.2l16-37.1l16,74.2
										l16-116.6l16,15.9l16-10.6l16,31.8"/>
								</g>
								<g>
									<path class="st10" d="M4.4,153.6l16,53l16-26.5l16,5.3l16,63.6h16l16,31.8l16,21.2l16-53l16-15.9l16-26.5l16-26.5l16,21.2"
										/>
								</g>
								<g>
									<path class="st11" d="M4.4,206.6l16-26.5l16,42.4l16,63.6l16-84.8l16-58.3l16,116.6l16-95.4l16,5.3h16l16,58.3l16-10.6
										l16,5.3l16-37.1l16,5.3l16-10.6l16,106l16,58.3"/>
								</g>
								<g>
									<path class="st7" d="M4.4,227.8l16-31.8l16,58.3l16-42.4l16-68.9l16,58.3l16,42.4l16,26.5l16-53l16-31.8l16-74.2l16,58.3
										l16,15.9l16-15.9l16-26.5l16,95.4l16-15.9l16,68.9l16-42.4l16,26.5l16-127.2l16,68.9l16-21.2"/>
								</g>
								<g>
									<path class="st8" d="M4.4,211.9l16,79.5l16-21.2l16-53l16,90.1l16-116.6l16,143.1l16-95.4l16-47.7l16-21.2l16,21.2h16
										l16-5.3l16,63.6l16-95.4l16,58.3l16,5.3l16-31.8l16,42.4l16-37.1l16,90.1l16-42.4l16,37.1l16-21.2l16,26.5l16-121.9
										l16,47.7"/>
								</g>
								<g>
									<path class="st9" d="M4.4,190.7l16-15.9l16,53l16-26.5l16,10.6l16,90.1l16-95.4l16-5.3l16,37.1l16-47.7l16,68.9l16-10.6
										l16,26.5l16-58.3"/>
								</g>
								<g>
									<path class="st12" d="M4.4,190.7h16l16-10.6l16,42.4l16-95.4l16,15.9l16-106l16,47.7l16,42.4l16,74.2l16-53l16,26.5
										l16-31.8l16,53l16-95.4l16,143.1l16-37.1l16-42.4l16,26.5"/>
								</g>
								<g>
									<path class="st11" d="M4.4,206.6l16,10.6l16-42.4l16,37.1l16,47.7l16-31.8l16,5.3l16-26.5l16,21.2l16-31.8l16,58.3l16,10.6
										l16-100.7l16,15.9l16,111.3l16-47.7h16l16-31.8l16,21.2l16-26.5l16,5.3l16,37.1l16-37.1l16-5.3l16-53l16,106l16-63.6
										l16,21.2l16-5.3h16"/>
								</g>
								<g>
									<path class="st7" d="M4.4,206.6l16-5.3l16,31.8l16-21.2l16-5.3l16,31.8l16-90.1l16,95.4l16-90.1l16,53l16-37.1l16,31.8
										l16,15.9l16-111.3l16,84.8l16-21.2l16,42.4l16-74.2l16,63.6l16,5.3l16,10.6l16-26.5l16,47.7l16-26.5l16,42.4l16-10.6"/>
								</g>
								<g>
									<path class="st8" d="M4.4,137.7l16,222.6l16-137.8l16,90.1l16,15.9l16-100.7l16,42.4l16-31.8l16-42.4l16-15.9l16,79.5
										l16-37.1l16,21.2"/>
								</g>
								<g>
									<path class="st13" d="M4.4,196l16,10.6l16-5.3l16-10.6l16-53l16,5.3l16-26.5l16,26.5l16-15.9l16,26.5l16,31.8l16-15.9
										l16-37.1l16-21.2l16,31.8l16-21.2l16,106l16-42.4l16,47.7l16-84.8l16,164.3l16-190.8l16,116.6l16-42.4l16-37.1l16-31.8"/>
								</g>
								<g>
									<path class="st12" d="M4.4,190.7l16-47.7l16,53l16,79.5l16-63.6l16-15.9l16-26.5l16,26.5l16-10.6l16,10.6l16-116.6l16,79.5
										l16,53l16-100.7l16,42.4l16,100.7l16-111.3h16l16-15.9l16,53l16-37.1l16-26.5l16,63.6"/>
								</g>
								<g>
									<path class="st11" d="M4.4,148.3l16,37.1l16,10.6l16,42.4l16-58.3l16,21.2l16,47.7l16,21.2l16-121.9l16,137.8l16-95.4
										l16-21.2l16,74.2"/>
								</g>
								<g>
									<path class="st7" d="M4.4,280.8l16-95.4l16,15.9l16,47.7l16,10.6l16,15.9h16l16-63.6l16,58.3l16-26.5l16,37.1l16-84.8
										l16,95.4h16"/>
								</g>
								<g>
									<path class="st10" d="M4.4,164.2l16-21.2l16,100.7l16,26.5l16,31.8l16-100.7l16-5.3h16l16,15.9l16,37.1l16-95.4l16,5.3
										l16,26.5l16-21.2"/>
								</g>
								<g>
									<path class="st13" d="M4.4,190.7l16,5.3l16-15.9l16-58.3l16,47.7l16,58.3l16-15.9l16-26.5l16,26.5l16,26.5l16-21.2l16,90.1
										l16-95.4l16,21.2l16-15.9l16,5.3"/>
								</g>
								<g>
									<path class="st12" d="M4.4,143l16,10.6l16,37.1l16-21.2l16,26.5l16-5.3l16-63.6L116,249l16-79.5l16,37.1l16-5.3l16-21.2
										l16,74.2l16-37.1l16,21.2l16-42.4l16-31.8l16,21.2l16,21.2"/>
								</g>
								<g>
									<path class="st11" d="M4.4,286.1l16-53l16,21.2l16,26.5l16-37.1l16-21.2l16,31.8l16-68.9l16,79.5l16-121.9l16,121.9
										l16-148.4l16,111.3l16-15.9h16l16-26.5l16,58.3l16-79.5l16,58.3l16-5.3l16,42.4l16-63.6l16,31.8l16,5.3"/>
								</g>
							</g>
						</g>
					</g>
				</g>
			</g>
		</g>
		<g>
			<defs>
				<rect id="SVGID_00000085971826689473111620000015442717963228586675_" x="50" y="386.5" width="506" height="23"/>
			</defs>
			<clipPath id="SVGID_00000145753947892311356140000001426858703239565195_">
				<use xlink:href="#SVGID_00000085971826689473111620000015442717963228586675_"  style="overflow:visible;"/>
			</clipPath>
			<g transform="translate(50, 377)" style="clip-path:url(#SVGID_00000145753947892311356140000001426858703239565195_);">
				<g>
					<g>
						<line class="st0" x1="4.4" y1="9.5" x2="4.4" y2="14.5"/>
						<line class="st0" x1="84.1" y1="9.5" x2="84.1" y2="14.5"/>
						<line class="st0" x1="163.9" y1="9.5" x2="163.9" y2="14.5"/>
						<line class="st0" x1="243.6" y1="9.5" x2="243.6" y2="14.5"/>
						<line class="st0" x1="323.4" y1="9.5" x2="323.4" y2="14.5"/>
						<line class="st0" x1="403.1" y1="9.5" x2="403.1" y2="14.5"/>
						<line class="st0" x1="482.9" y1="9.5" x2="482.9" y2="14.5"/>
					</g>
					<g transform="translate(0, 8)">
						<text transform="matrix(1 0 0 1 1.0467 20.9)" class="st1 st2 st3">0</text>
						<text transform="matrix(1 0 0 1 80.7985 20.9)" class="st1 st2 st3">5</text>
						<text transform="matrix(1 0 0 1 157.2133 20.9)" class="st1 st2 st3">10</text>
						<text transform="matrix(1 0 0 1 236.965 20.9)" class="st1 st2 st3">15</text>
						<text transform="matrix(1 0 0 1 316.7168 20.9)" class="st1 st2 st3">20</text>
						<text transform="matrix(1 0 0 1 396.4685 20.9)" class="st1 st2 st3">25</text>
						<text transform="matrix(1 0 0 1 476.2203 20.9)" class="st1 st2 st3">30</text>
					</g>
					<line class="st0" x1="0" y1="9.5" x2="506" y2="9.5"/>
				</g>
			</g>
		</g>
	</g>
</g>
<text transform="matrix(1 0 0 1 239.105 414.4805)" class="st2 st15">Epochs</text>
<text transform="matrix(-1.836970e-16 -1 1 -1.836970e-16 14.1483 234.064)" class="st2 st15">Accuracy</text>
</svg>
