<?xml version="1.0" encoding="utf-8"?>
<!-- Generator: Adobe Illustrator 25.4.1, SVG Export Plug-In . SVG Version: 6.00 Build 0)  -->
<svg version="1.1" id="Layer_1" xmlns="http://www.w3.org/2000/svg" xmlns:xlink="http://www.w3.org/1999/xlink" x="0px" y="0px"
	 viewBox="0 0 539 419" style="enable-background:new 0 0 539 419;" xml:space="preserve">
<style type="text/css">
	.st0{fill:none;stroke:#CCCCCC;}
	.st1{display:none;fill:#212121;enable-background:new    ;}
	.st2{font-family:'ArialMT';}
	.st3{font-size:12px;}
	.st4{fill:#212121;}
	.st5{clip-path:url(#SVGID_00000164506603021804132860000007837734223986234272_);}
	.st6{opacity:0.25;fill:none;stroke:#424242;enable-background:new    ;}
	.st7{fill:none;stroke:#999999;stroke-width:1.5;}
	.st8{fill:none;stroke:#BBBBBB;stroke-width:2;}
	.st9{fill:none;stroke:#009988;stroke-width:2;}
	.st10{clip-path:url(#SVGID_00000056422307990909534990000001744013403045672366_);}
	.st11{font-size:16px;}
</style>
<g>
	<g>
		<g>
			<g>
				<g>
					<line class="st0" x1="50" y1="383.5" x2="45" y2="383.5"/>
					<line class="st0" x1="50" y1="342.1" x2="45" y2="342.1"/>
					<line class="st0" x1="50" y1="300.7" x2="45" y2="300.7"/>
					<line class="st0" x1="50" y1="259.3" x2="45" y2="259.3"/>
					<line class="st0" x1="50" y1="217.9" x2="45" y2="217.9"/>
					<line class="st0" x1="50" y1="176.4" x2="45" y2="176.4"/>
					<line class="st0" x1="50" y1="135" x2="45" y2="135"/>
					<line class="st0" x1="50" y1="93.6" x2="45" y2="93.6"/>
					<line class="st0" x1="50" y1="52.2" x2="45" y2="52.2"/>
					<line class="st0" x1="50" y1="10.8" x2="45" y2="10.8"/>
				</g>
				<g transform="translate(40, 0)">
					<text transform="matrix(1 0 0 1 -23.3555 387.1084)" class="st1 st2 st3">0.49</text>
					<text transform="matrix(1 0 0 1 -16.6816 345.696)" class="st4 st2 st3">0.5</text>
					<text transform="matrix(1 0 0 1 -23.3555 304.2836)" class="st4 st2 st3">0.51</text>
					<text transform="matrix(1 0 0 1 -23.3555 262.8712)" class="st4 st2 st3">0.52</text>
					<text transform="matrix(1 0 0 1 -23.3555 221.4588)" class="st4 st2 st3">0.53</text>
					<text transform="matrix(1 0 0 1 -23.3555 180.0464)" class="st4 st2 st3">0.54</text>
					<text transform="matrix(1 0 0 1 -23.3555 138.634)" class="st4 st2 st3">0.55</text>
					<text transform="matrix(1 0 0 1 -23.3555 97.2216)" class="st4 st2 st3">0.56</text>
					<text transform="matrix(1 0 0 1 -23.3555 55.8092)" class="st4 st2 st3">0.57</text>
					<text transform="matrix(1 0 0 1 -23.3555 14.3969)" class="st1 st2 st3">0.58</text>
				</g>
				<line class="st0" x1="50" y1="9.5" x2="50" y2="386.5"/>
			</g>
		</g>
		<g>
			<defs>
				<rect id="SVGID_1_" x="50" y="9.5" width="489" height="377"/>
			</defs>
			<clipPath id="SVGID_00000035508343063809293770000002918075364152996020_">
				<use xlink:href="#SVGID_1_"  style="overflow:visible;"/>
			</clipPath>
			<g transform="translate(50, 0)" style="clip-path:url(#SVGID_00000035508343063809293770000002918075364152996020_);">
				<g>
					<g>
						<g>
							<line class="st6" x1="3.2" y1="9.5" x2="3.2" y2="386.5"/>
							<line class="st6" x1="34.9" y1="9.5" x2="34.9" y2="386.5"/>
							<line class="st6" x1="66.5" y1="9.5" x2="66.5" y2="386.5"/>
							<line class="st6" x1="98.2" y1="9.5" x2="98.2" y2="386.5"/>
							<line class="st6" x1="129.9" y1="9.5" x2="129.9" y2="386.5"/>
							<line class="st6" x1="161.5" y1="9.5" x2="161.5" y2="386.5"/>
							<line class="st6" x1="193.2" y1="9.5" x2="193.2" y2="386.5"/>
							<line class="st6" x1="224.9" y1="9.5" x2="224.9" y2="386.5"/>
							<line class="st6" x1="256.5" y1="9.5" x2="256.5" y2="386.5"/>
							<line class="st6" x1="288.2" y1="9.5" x2="288.2" y2="386.5"/>
							<line class="st6" x1="319.9" y1="9.5" x2="319.9" y2="386.5"/>
							<line class="st6" x1="351.5" y1="9.5" x2="351.5" y2="386.5"/>
							<line class="st6" x1="383.2" y1="9.5" x2="383.2" y2="386.5"/>
							<line class="st6" x1="414.9" y1="9.5" x2="414.9" y2="386.5"/>
							<line class="st6" x1="446.5" y1="9.5" x2="446.5" y2="386.5"/>
							<line class="st6" x1="478.2" y1="9.5" x2="478.2" y2="386.5"/>
						</g>
						<g>
							<line class="st6" x1="0" y1="383.5" x2="489" y2="383.5"/>
							<line class="st6" x1="0" y1="342.1" x2="489" y2="342.1"/>
							<line class="st6" x1="0" y1="300.7" x2="489" y2="300.7"/>
							<line class="st6" x1="0" y1="259.3" x2="489" y2="259.3"/>
							<line class="st6" x1="0" y1="217.9" x2="489" y2="217.9"/>
							<line class="st6" x1="0" y1="176.4" x2="489" y2="176.4"/>
							<line class="st6" x1="0" y1="135" x2="489" y2="135"/>
							<line class="st6" x1="0" y1="93.6" x2="489" y2="93.6"/>
							<line class="st6" x1="0" y1="52.2" x2="489" y2="52.2"/>
							<line class="st6" x1="0" y1="10.8" x2="489" y2="10.8"/>
						</g>
					</g>
				</g>
				<g>
					<g>
						<line class="st7" x1="0" y1="2412.7" x2="489" y2="2412.7"/>
					</g>
				</g>
				<g>
					<g>
						<line class="st7" x1="3.2" y1="9.5" x2="3.2" y2="386.5"/>
					</g>
				</g>
				<g>
					<g>
						<g>
							<g>
								<g>
									<path class="st8" d="M3.2,348.4l15.8,6.3l15.8,12.6l15.8-12.6l15.8,12.6l15.8-18.9L98.2,298l15.8,18.9l15.8,6.3l15.8,37.8
										l15.8,18.9l15.8-62.9l15.8-62.9l15.8,37.8l15.8-62.9l15.8,18.9l15.8-25.2l15.8,18.9l15.8,69.2L304,209.9l15.8-81.8
										l15.8,138.5l15.8,12.6l15.8-69.2l15.8-31.5l15.8,25.2l15.8,94.4h15.8l15.8-62.9"/>
								</g>
								<g>
									<path class="st9" d="M3.2,337.7L19,283.3l15.8,52.9l15.8-89.6l15.8,25l15.8-60.3l15.8-20.6l15.8,80.8l15.8-42.6l15.8-80.8
										l15.8,29.4l15.8-48.5l15.8-2.9l15.8,8.8l15.8-58.8l15.8,51.4l15.8-20.6l15.8-16.2l15.8,8.8l15.8-2.9l15.8-10.3l15.8-14.7
										l15.8-47l15.8,13.2l15.8,36.7L399,37.9L414.9,57l15.8,30.9l15.8-69.1"/>
								</g>
							</g>
						</g>
					</g>
				</g>
			</g>
		</g>
		<g>
			<defs>
				<rect id="SVGID_00000149367143578817583860000003701511781114881922_" x="50" y="386.5" width="489" height="23"/>
			</defs>
			<clipPath id="SVGID_00000012451705390416781830000013183963643638454672_">
				<use xlink:href="#SVGID_00000149367143578817583860000003701511781114881922_"  style="overflow:visible;"/>
			</clipPath>
			<g transform="translate(50, 377)" style="clip-path:url(#SVGID_00000012451705390416781830000013183963643638454672_);">
				<g>
					<g>
						<line class="st0" x1="3.2" y1="9.5" x2="3.2" y2="14.5"/>
						<line class="st0" x1="34.9" y1="9.5" x2="34.9" y2="14.5"/>
						<line class="st0" x1="66.5" y1="9.5" x2="66.5" y2="14.5"/>
						<line class="st0" x1="98.2" y1="9.5" x2="98.2" y2="14.5"/>
						<line class="st0" x1="129.9" y1="9.5" x2="129.9" y2="14.5"/>
						<line class="st0" x1="161.5" y1="9.5" x2="161.5" y2="14.5"/>
						<line class="st0" x1="193.2" y1="9.5" x2="193.2" y2="14.5"/>
						<line class="st0" x1="224.9" y1="9.5" x2="224.9" y2="14.5"/>
						<line class="st0" x1="256.5" y1="9.5" x2="256.5" y2="14.5"/>
						<line class="st0" x1="288.2" y1="9.5" x2="288.2" y2="14.5"/>
						<line class="st0" x1="319.9" y1="9.5" x2="319.9" y2="14.5"/>
						<line class="st0" x1="351.5" y1="9.5" x2="351.5" y2="14.5"/>
						<line class="st0" x1="383.2" y1="9.5" x2="383.2" y2="14.5"/>
						<line class="st0" x1="414.9" y1="9.5" x2="414.9" y2="14.5"/>
						<line class="st0" x1="446.5" y1="9.5" x2="446.5" y2="14.5"/>
						<line class="st0" x1="478.2" y1="9.5" x2="478.2" y2="14.5"/>
					</g>
					<g transform="translate(0, 8)">
						<text transform="matrix(1 0 0 1 -0.1454 20.9)" class="st4 st2 st3">0</text>
						<text transform="matrix(1 0 0 1 31.5226 20.9)" class="st4 st2 st3">2</text>
						<text transform="matrix(1 0 0 1 63.1905 20.9)" class="st4 st2 st3">4</text>
						<text transform="matrix(1 0 0 1 94.8585 20.9)" class="st4 st2 st3">6</text>
						<text transform="matrix(1 0 0 1 126.5264 20.9)" class="st4 st2 st3">8</text>
						<text transform="matrix(1 0 0 1 154.8574 20.9)" class="st4 st2 st3">10</text>
						<text transform="matrix(1 0 0 1 186.5254 20.9)" class="st4 st2 st3">12</text>
						<text transform="matrix(1 0 0 1 218.1933 20.9)" class="st4 st2 st3">14</text>
						<text transform="matrix(1 0 0 1 249.8613 20.9)" class="st4 st2 st3">16</text>
						<text transform="matrix(1 0 0 1 281.5292 20.9)" class="st4 st2 st3">18</text>
						<text transform="matrix(1 0 0 1 313.1972 20.9)" class="st4 st2 st3">20</text>
						<text transform="matrix(1 0 0 1 344.8651 20.9)" class="st4 st2 st3">22</text>
						<text transform="matrix(1 0 0 1 376.5331 20.9)" class="st4 st2 st3">24</text>
						<text transform="matrix(1 0 0 1 408.201 20.9)" class="st4 st2 st3">26</text>
						<text transform="matrix(1 0 0 1 439.869 20.9)" class="st4 st2 st3">28</text>
						<text transform="matrix(1 0 0 1 471.5369 20.9)" class="st4 st2 st3">30</text>
					</g>
					<line class="st0" x1="0" y1="9.5" x2="489" y2="9.5"/>
				</g>
			</g>
		</g>
	</g>
</g>
<text transform="matrix(1 0 0 1 269.5 419)" class="st2 st11">Epochs</text>
<text transform="matrix(-1.836970e-16 -1 1 -1.836970e-16 12.6327 247.4272)" class="st2 st11">Accuracy</text>
</svg>
