<svg viewBox="0 0 539 400" xmlns="http://www.w3.org/2000/svg"><g><g><g><g><g><line x1="40" y1="371.80933525655786" x2="35" y2="371.80933525655786" style="visibility: inherit;" fill="rgb(0, 0, 0)" stroke="rgb(204, 204, 204)" stroke-width="1px"></line><line x1="40" y1="338.0801203447586" x2="35" y2="338.0801203447586" style="visibility: inherit;" fill="rgb(0, 0, 0)" stroke="rgb(204, 204, 204)" stroke-width="1px"></line><line x1="40" y1="304.3509054329594" x2="35" y2="304.3509054329594" style="visibility: inherit;" fill="rgb(0, 0, 0)" stroke="rgb(204, 204, 204)" stroke-width="1px"></line><line x1="40" y1="270.6216905211602" x2="35" y2="270.6216905211602" style="visibility: inherit;" fill="rgb(0, 0, 0)" stroke="rgb(204, 204, 204)" stroke-width="1px"></line><line x1="40" y1="236.892475609361" x2="35" y2="236.892475609361" style="visibility: inherit;" fill="rgb(0, 0, 0)" stroke="rgb(204, 204, 204)" stroke-width="1px"></line><line x1="40" y1="203.1632606975618" x2="35" y2="203.1632606975618" style="visibility: inherit;" fill="rgb(0, 0, 0)" stroke="rgb(204, 204, 204)" stroke-width="1px"></line><line x1="40" y1="169.43404578576255" x2="35" y2="169.43404578576255" style="visibility: inherit;" fill="rgb(0, 0, 0)" stroke="rgb(204, 204, 204)" stroke-width="1px"></line><line x1="40" y1="135.70483087396337" x2="35" y2="135.70483087396337" style="visibility: inherit;" fill="rgb(0, 0, 0)" stroke="rgb(204, 204, 204)" stroke-width="1px"></line><line x1="40" y1="101.97561596216413" x2="35" y2="101.97561596216413" style="visibility: inherit;" fill="rgb(0, 0, 0)" stroke="rgb(204, 204, 204)" stroke-width="1px"></line><line x1="40" y1="68.24640105036487" x2="35" y2="68.24640105036487" style="visibility: inherit;" fill="rgb(0, 0, 0)" stroke="rgb(204, 204, 204)" stroke-width="1px"></line><line x1="40" y1="34.51718613856569" x2="35" y2="34.51718613856569" style="visibility: inherit;" fill="rgb(0, 0, 0)" stroke="rgb(204, 204, 204)" stroke-width="1px"></line><line x1="40" y1="0.7879712267664335" x2="35" y2="0.7879712267664335" style="visibility: inherit;" fill="rgb(0, 0, 0)" stroke="rgb(204, 204, 204)" stroke-width="1px"></line></g><g transform="translate(30, 0)"><text x="0" y="371.80933525655786" dx="0em" dy="0.3em" style="text-anchor: end; visibility: hidden; font-family: Roboto, sans-serif; font-size: 12px; font-weight: 200;" fill="rgb(33, 33, 33)" stroke="none" stroke-width="1px">0.7</text><text x="0" y="338.0801203447586" dx="0em" dy="0.3em" style="text-anchor: end; visibility: inherit; font-family: Roboto, sans-serif; font-size: 12px; font-weight: 200;" fill="rgb(33, 33, 33)" stroke="none" stroke-width="1px">0.8</text><text x="0" y="304.3509054329594" dx="0em" dy="0.3em" style="text-anchor: end; visibility: inherit; font-family: Roboto, sans-serif; font-size: 12px; font-weight: 200;" fill="rgb(33, 33, 33)" stroke="none" stroke-width="1px">0.9</text><text x="0" y="270.6216905211602" dx="0em" dy="0.3em" style="text-anchor: end; visibility: inherit; font-family: Roboto, sans-serif; font-size: 12px; font-weight: 200;" fill="rgb(33, 33, 33)" stroke="none" stroke-width="1px">1</text><text x="0" y="236.892475609361" dx="0em" dy="0.3em" style="text-anchor: end; visibility: inherit; font-family: Roboto, sans-serif; font-size: 12px; font-weight: 200;" fill="rgb(33, 33, 33)" stroke="none" stroke-width="1px">1.1</text><text x="0" y="203.1632606975618" dx="0em" dy="0.3em" style="text-anchor: end; visibility: inherit; font-family: Roboto, sans-serif; font-size: 12px; font-weight: 200;" fill="rgb(33, 33, 33)" stroke="none" stroke-width="1px">1.2</text><text x="0" y="169.43404578576255" dx="0em" dy="0.3em" style="text-anchor: end; visibility: inherit; font-family: Roboto, sans-serif; font-size: 12px; font-weight: 200;" fill="rgb(33, 33, 33)" stroke="none" stroke-width="1px">1.3</text><text x="0" y="135.70483087396337" dx="0em" dy="0.3em" style="text-anchor: end; visibility: inherit; font-family: Roboto, sans-serif; font-size: 12px; font-weight: 200;" fill="rgb(33, 33, 33)" stroke="none" stroke-width="1px">1.4</text><text x="0" y="101.97561596216413" dx="0em" dy="0.3em" style="text-anchor: end; visibility: inherit; font-family: Roboto, sans-serif; font-size: 12px; font-weight: 200;" fill="rgb(33, 33, 33)" stroke="none" stroke-width="1px">1.5</text><text x="0" y="68.24640105036487" dx="0em" dy="0.3em" style="text-anchor: end; visibility: inherit; font-family: Roboto, sans-serif; font-size: 12px; font-weight: 200;" fill="rgb(33, 33, 33)" stroke="none" stroke-width="1px">1.6</text><text x="0" y="34.51718613856569" dx="0em" dy="0.3em" style="text-anchor: end; visibility: inherit; font-family: Roboto, sans-serif; font-size: 12px; font-weight: 200;" fill="rgb(33, 33, 33)" stroke="none" stroke-width="1px">1.7</text><text x="0" y="0.7879712267664335" dx="0em" dy="0.3em" style="text-anchor: end; visibility: hidden; font-family: Roboto, sans-serif; font-size: 12px; font-weight: 200;" fill="rgb(33, 33, 33)" stroke="none" stroke-width="1px">1.8</text></g><line x1="40" y1="0" x2="40" y2="377" fill="rgb(0, 0, 0)" stroke="rgb(204, 204, 204)" stroke-width="1px"></line></g></g><g transform="translate(40, 0)" clip-path="url(#clip_0)"><clipPath id="clip_0"><rect width="499" height="377"></rect></clipPath><g><g><g><line x1="3.950167951045229" y1="0" x2="3.950167951045229" y2="377" fill="rgb(0, 0, 0)" stroke="rgb(66, 66, 66)" stroke-width="1px" opacity="0.25"></line><line x1="36.11496749760382" y1="0" x2="36.11496749760382" y2="377" fill="rgb(0, 0, 0)" stroke="rgb(66, 66, 66)" stroke-width="1px" opacity="0.25"></line><line x1="68.27976704416243" y1="0" x2="68.27976704416243" y2="377" fill="rgb(0, 0, 0)" stroke="rgb(66, 66, 66)" stroke-width="1px" opacity="0.25"></line><line x1="100.44456659072101" y1="0" x2="100.44456659072101" y2="377" fill="rgb(0, 0, 0)" stroke="rgb(66, 66, 66)" stroke-width="1px" opacity="0.25"></line><line x1="132.60936613727958" y1="0" x2="132.60936613727958" y2="377" fill="rgb(0, 0, 0)" stroke="rgb(66, 66, 66)" stroke-width="1px" opacity="0.25"></line><line x1="164.7741656838382" y1="0" x2="164.7741656838382" y2="377" fill="rgb(0, 0, 0)" stroke="rgb(66, 66, 66)" stroke-width="1px" opacity="0.25"></line><line x1="196.93896523039678" y1="0" x2="196.93896523039678" y2="377" fill="rgb(0, 0, 0)" stroke="rgb(66, 66, 66)" stroke-width="1px" opacity="0.25"></line><line x1="229.10376477695536" y1="0" x2="229.10376477695536" y2="377" fill="rgb(0, 0, 0)" stroke="rgb(66, 66, 66)" stroke-width="1px" opacity="0.25"></line><line x1="261.268564323514" y1="0" x2="261.268564323514" y2="377" fill="rgb(0, 0, 0)" stroke="rgb(66, 66, 66)" stroke-width="1px" opacity="0.25"></line><line x1="293.4333638700726" y1="0" x2="293.4333638700726" y2="377" fill="rgb(0, 0, 0)" stroke="rgb(66, 66, 66)" stroke-width="1px" opacity="0.25"></line><line x1="325.59816341663117" y1="0" x2="325.59816341663117" y2="377" fill="rgb(0, 0, 0)" stroke="rgb(66, 66, 66)" stroke-width="1px" opacity="0.25"></line><line x1="357.76296296318975" y1="0" x2="357.76296296318975" y2="377" fill="rgb(0, 0, 0)" stroke="rgb(66, 66, 66)" stroke-width="1px" opacity="0.25"></line><line x1="389.92776250974833" y1="0" x2="389.92776250974833" y2="377" fill="rgb(0, 0, 0)" stroke="rgb(66, 66, 66)" stroke-width="1px" opacity="0.25"></line><line x1="422.092562056307" y1="0" x2="422.092562056307" y2="377" fill="rgb(0, 0, 0)" stroke="rgb(66, 66, 66)" stroke-width="1px" opacity="0.25"></line><line x1="454.25736160286556" y1="0" x2="454.25736160286556" y2="377" fill="rgb(0, 0, 0)" stroke="rgb(66, 66, 66)" stroke-width="1px" opacity="0.25"></line><line x1="486.42216114942414" y1="0" x2="486.42216114942414" y2="377" fill="rgb(0, 0, 0)" stroke="rgb(66, 66, 66)" stroke-width="1px" opacity="0.25"></line></g><g><line x1="0" y1="371.80933525655786" x2="499" y2="371.80933525655786" fill="rgb(0, 0, 0)" stroke="rgb(66, 66, 66)" stroke-width="1px" opacity="0.25"></line><line x1="0" y1="338.0801203447586" x2="499" y2="338.0801203447586" fill="rgb(0, 0, 0)" stroke="rgb(66, 66, 66)" stroke-width="1px" opacity="0.25"></line><line x1="0" y1="304.3509054329594" x2="499" y2="304.3509054329594" fill="rgb(0, 0, 0)" stroke="rgb(66, 66, 66)" stroke-width="1px" opacity="0.25"></line><line x1="0" y1="270.6216905211602" x2="499" y2="270.6216905211602" fill="rgb(0, 0, 0)" stroke="rgb(66, 66, 66)" stroke-width="1px" opacity="0.25"></line><line x1="0" y1="236.892475609361" x2="499" y2="236.892475609361" fill="rgb(0, 0, 0)" stroke="rgb(66, 66, 66)" stroke-width="1px" opacity="0.25"></line><line x1="0" y1="203.1632606975618" x2="499" y2="203.1632606975618" fill="rgb(0, 0, 0)" stroke="rgb(66, 66, 66)" stroke-width="1px" opacity="0.25"></line><line x1="0" y1="169.43404578576255" x2="499" y2="169.43404578576255" fill="rgb(0, 0, 0)" stroke="rgb(66, 66, 66)" stroke-width="1px" opacity="0.25"></line><line x1="0" y1="135.70483087396337" x2="499" y2="135.70483087396337" fill="rgb(0, 0, 0)" stroke="rgb(66, 66, 66)" stroke-width="1px" opacity="0.25"></line><line x1="0" y1="101.97561596216413" x2="499" y2="101.97561596216413" fill="rgb(0, 0, 0)" stroke="rgb(66, 66, 66)" stroke-width="1px" opacity="0.25"></line><line x1="0" y1="68.24640105036487" x2="499" y2="68.24640105036487" fill="rgb(0, 0, 0)" stroke="rgb(66, 66, 66)" stroke-width="1px" opacity="0.25"></line><line x1="0" y1="34.51718613856569" x2="499" y2="34.51718613856569" fill="rgb(0, 0, 0)" stroke="rgb(66, 66, 66)" stroke-width="1px" opacity="0.25"></line><line x1="0" y1="0.7879712267664335" x2="499" y2="0.7879712267664335" fill="rgb(0, 0, 0)" stroke="rgb(66, 66, 66)" stroke-width="1px" opacity="0.25"></line></g></g></g><g><g><line x1="0" y1="607.9138396391525" x2="499" y2="607.9138396391525" fill="rgb(0, 0, 0)" stroke="rgb(153, 153, 153)" stroke-width="1.5px"></line></g></g><g><g><line x1="3.950167951045229" y1="0" x2="3.950167951045229" y2="377" fill="rgb(0, 0, 0)" stroke="rgb(153, 153, 153)" stroke-width="1.5px"></line></g></g><g><g><g><g><g><path stroke="rgb(204, 51, 17)" stroke-width="2px" d="M3.950167951045229,374.0083946598226L20.032567724324522,374.0222263347914L36.11496749760382,373.5010858136563L52.19736727088312,373.45633391179507L68.27976704416243,373.0700120132481L84.36216681744172,372.98736373447383L100.44456659072101,371.9096792334536L116.52696636400032,371.0254974527451L132.60936613727958,367.11195770790573L148.6917659105589,361.38741343855537L164.7741656838382,353.96388512859824L180.85656545711748,351.7674834977621L196.93896523039678,339.2731988108747L213.02136500367607,321.2565575801618L229.10376477695536,309.17209657676096L245.18616455023465,297.57094003011844L261.268564323514,273.08515606229486L277.3509640967933,268.2860674525932L293.4333638700726,271.3174157304189L309.5157636433519,268.3955950183344L325.59816341663117,227.75218312312498L341.68056318991046,280.6778409321174L357.76296296318975,260.7105314472305L373.84536273646904,276.0324286646562" style="fill: none;" fill="none"></path></g><g><path stroke="rgb(51, 187, 238)" stroke-width="2px" d="M3.950167951045229,374.0407422834051L20.032567724324522,373.938150659327L36.11496749760382,374.13040692055745L52.19736727088312,373.9742577643328L68.27976704416243,373.44598025974716L84.36216681744172,372.829867598274L100.44456659072101,365.79370660415793L116.52696636400032,367.66112345419566L132.60936613727958,361.37766291186955L148.6917659105589,346.7647998700242L164.7741656838382,338.04350661444886L180.85656545711748,320.7352763297755L196.93896523039678,331.446260050447L213.02136500367607,311.46976295587876L229.10376477695536,332.15105224431454L245.18616455023465,325.69375086847805" style="fill: none;" fill="none"></path></g><g><path stroke="rgb(238, 51, 119)" stroke-width="2px" d="M3.950167951045229,374.13207556739235L20.032567724324522,374.0492664551882L36.11496749760382,374.009721535619L52.19736727088312,372.92108025718886L68.27976704416243,372.5840337007183L84.36216681744172,372.77013808325614L100.44456659072101,366.7379194625652L116.52696636400032,363.4043048574782L132.60936613727958,360.17064822905525L148.6917659105589,358.5472156921298L164.7741656838382,346.82187563344917L180.85656545711748,330.776911523687L196.93896523039678,347.1022887184269L213.02136500367607,328.88565111767105L229.10376477695536,313.91332536006706L245.18616455023465,319.2438277262368L261.268564323514,260.0516773017695L277.3509640967933,292.99822447295827L293.4333638700726,237.13460229635828L309.5157636433519,251.07837816576713L325.59816341663117,235.603106168782L341.68056318991046,226.3413522763084L357.76296296318975,195.35023804965357L373.84536273646904,195.3673668099347" style="fill: none;" fill="none"></path></g><g><path stroke="rgb(0, 153, 136)" stroke-width="2px" d="M3.950167951045229,373.9952063185733L20.032567724324522,373.9017017832828L36.11496749760382,373.38590897369085L52.19736727088312,373.2356101334777L68.27976704416243,372.2357288041568L84.36216681744172,368.22239191608327L100.44456659072101,370.6005554268508L116.52696636400032,369.43067316215775L132.60936613727958,357.5158914272694L148.6917659105589,362.2896889801241L164.7741656838382,359.9187026611645L180.85656545711748,355.57786870151887L196.93896523039678,350.86181034998737L213.02136500367607,344.4840612094002L229.10376477695536,340.39079010668144L245.18616455023465,339.2293717012352L261.268564323514,335.75553044948066L277.3509640967933,318.3581381321234L293.4333638700726,326.7912580897298L309.5157636433519,303.6229210585047L325.59816341663117,290.8407847405081L341.68056318991046,285.0864259740956L357.76296296318975,273.22572448000096" style="fill: none;" fill="none"></path></g><g><path stroke="rgb(0, 119, 187)" stroke-width="2px" d="M3.950167951045229,374.0010968429423L20.032567724324522,373.87548593421405L36.11496749760382,373.78891734058675L52.19736727088312,373.69844853628507L68.27976704416243,373.1374615328997L84.36216681744172,372.4184757888462L100.44456659072101,369.09022899948116L116.52696636400032,369.145354657569L132.60936613727958,360.9555756793554L148.6917659105589,361.19232248812347L164.7741656838382,360.71925105834066L180.85656545711748,356.51731686956623" style="fill: none;" fill="none"></path></g><g><path stroke="rgb(204, 51, 17)" stroke-width="2px" d="M3.950167951045229,374.15242099627085L20.032567724324522,374.16862496433026L36.11496749760382,374.2054558197704L52.19736727088312,373.8942833413301L68.27976704416243,373.1832186436976L84.36216681744172,373.48180590625066L100.44456659072101,372.937525475393L116.52696636400032,372.43365444379015L132.60936613727958,370.44784408518956L148.6917659105589,370.7637410456323L164.7741656838382,369.029011775237L180.85656545711748,352.91496970734585L196.93896523039678,354.6676319051716L213.02136500367607,336.4503509706963" style="fill: none;" fill="none"></path></g><g><path stroke="rgb(51, 187, 238)" stroke-width="2px" d="M3.950167951045229,374.0528651031816L20.032567724324522,374.07393428249446L36.11496749760382,373.7251669898221L52.19736727088312,373.85729165246005L68.27976704416243,373.562182412828L84.36216681744172,372.3294343812346L100.44456659072101,369.7497465828404L116.52696636400032,366.69980193968604L132.60936613727958,363.6101314393539L148.6917659105589,362.0576867575371L164.7741656838382,355.65217374611865L180.85656545711748,347.22446181259164L196.93896523039678,346.6991597264586L213.02136500367607,352.54348469270445L229.10376477695536,348.405119917086L245.18616455023465,318.7454049270708L261.268564323514,317.44739873130777L277.3509640967933,290.9075105097253L293.4333638700726,303.6013291705447L309.5157636433519,274.0179296430027L325.59816341663117,277.7260247853623L341.68056318991046,274.8221571048871L357.76296296318975,245.8554331558227L373.84536273646904,246.58650151129518L389.92776250974833,235.8633346583111L406.0101622830276,239.37766572603533L422.092562056307,168.66222223916108L438.17496182958627,172.89009081850202" style="fill: none;" fill="none"></path></g><g><path stroke="rgb(238, 51, 119)" stroke-width="2px" d="M3.950167951045229,374.1023816954027L20.032567724324522,374.1218224362382L36.11496749760382,374.1929912289555L52.19736727088312,374.0804480364042L68.27976704416243,373.82106392238194L84.36216681744172,372.71042867241704L100.44456659072101,373.0642622181303L116.52696636400032,370.1275041012467L132.60936613727958,368.0063323072321L148.6917659105589,362.43232812823976L164.7741656838382,357.5535264498589L180.85656545711748,351.563727646296L196.93896523039678,352.34793134616166L213.02136500367607,333.99979231230867L229.10376477695536,317.5937973608466L245.18616455023465,336.33443027611776L261.268564323514,322.63849872213797L277.3509640967933,311.7578759413115L293.4333638700726,309.930305573524L309.5157636433519,314.7141351115668" style="fill: none;" fill="none"></path></g><g><path stroke="rgb(255, 112, 67)" stroke-width="2px" d="M3.950167951045229,373.936642845922L20.032567724324522,373.5182949906523L36.11496749760382,373.90825574555L52.19736727088312,373.38739668291714L68.27976704416243,373.24385284675844L84.36216681744172,372.42239610369927L100.44456659072101,371.57351726084727L116.52696636400032,371.8976971429283L132.60936613727958,367.7211344277158L148.6917659105589,364.85574614533687L164.7741656838382,359.2965989544287L180.85656545711748,351.4766162398428L196.93896523039678,347.95699777311165L213.02136500367607,335.8466023791444L229.10376477695536,297.86500385245637L245.18616455023465,287.1493559623187L261.268564323514,293.91608075304566L277.3509640967933,284.869119906163L293.4333638700726,261.3672545497458L309.5157636433519,239.84746017468456L325.59816341663117,262.7802164395081L341.68056318991046,186.2165477757137L357.76296296318975,154.90855148385813L373.84536273646904,162.14291957610988L389.92776250974833,156.37149236195248" style="fill: none;" fill="none"></path></g><g><path stroke="rgb(0, 119, 187)" stroke-width="2px" d="M3.950167951045229,372.58779318214147L20.032567724324522,372.80948196103805L36.11496749760382,372.1813067923247L52.19736727088312,370.78344314079135L68.27976704416243,368.2040368008994L84.36216681744172,367.7698669569663L100.44456659072101,365.0962122271707L116.52696636400032,348.05438241489776L132.60936613727958,361.9598196154614L148.6917659105589,348.0634493995066L164.7741656838382,348.271487441043L180.85656545711748,312.91270017613306L196.93896523039678,336.09114960926115L213.02136500367607,318.655096956199L229.10376477695536,304.08101487513096L245.18616455023465,297.1925592821714L261.268564323514,264.60044878205775L277.3509640967933,287.55873735387314L293.4333638700726,252.77171293214977L309.5157636433519,178.96259821337537L325.59816341663117,214.5516989498587L341.68056318991046,253.29904554033487L357.76296296318975,278.18176641307673L373.84536273646904,243.37489916694315L389.92776250974833,225.85085052356348L406.0101622830276,194.8122502267396L422.092562056307,211.97663511257323L438.17496182958627,184.57946450142802L454.25736160286556,105.70707216021235L470.33976137614485,114.23783811392838" style="fill: none;" fill="none"></path></g><g><path stroke="rgb(204, 51, 17)" stroke-width="2px" d="M3.950167951045229,373.8725708282977L20.032567724324522,374.0286194636287L36.11496749760382,374.0873638738886L52.19736727088312,373.9931959006999L68.27976704416243,373.56855543748657L84.36216681744172,373.4385819219732L100.44456659072101,374.1608044388028L116.52696636400032,372.2643973630311L132.60936613727958,367.50837190417695L148.6917659105589,364.78998537669895L164.7741656838382,347.9334557798145L180.85656545711748,336.32291058170335L196.93896523039678,344.26568961999465L213.02136500367607,323.13458943657093L229.10376477695536,283.3089753238912L245.18616455023465,321.66423011652387L261.268564323514,306.69296988039275" style="fill: none;" fill="none"></path></g><g><path stroke="rgb(51, 187, 238)" stroke-width="2px" d="M3.950167951045229,373.8871664620583L20.032567724324522,373.9278975281728L36.11496749760382,373.38572803608224L52.19736727088312,373.07473649525053L68.27976704416243,372.969993724048L84.36216681744172,372.3419592845857L100.44456659072101,369.6029659739056L116.52696636400032,368.45845518277446L132.60936613727958,364.9518642238627L148.6917659105589,363.0647452786659L164.7741656838382,354.60283613711283L180.85656545711748,342.5859251742573L196.93896523039678,332.8515019355756L213.02136500367607,310.33124321001026L229.10376477695536,300.3865503659527L245.18616455023465,296.3482239837132L261.268564323514,277.93528918180147L277.3509640967933,290.38029852661253L293.4333638700726,268.44561421502385L309.5157636433519,270.8089006335285L325.59816341663117,259.410072541662L341.68056318991046,226.81802235408463L357.76296296318975,262.39791537670794L373.84536273646904,239.835196625657L389.92776250974833,223.4748180557417L406.0101622830276,187.6892994930301L422.092562056307,184.48183860949715L438.17496182958627,150.42355045851315L454.25736160286556,174.8941959797502L470.33976137614485,130.67272277023073" style="fill: none;" fill="none"></path></g><g><path stroke="rgb(187, 187, 187)" stroke-width="2px" d="M3.950167951045229,373.91215595622435L20.032567724324522,373.15308247977583L36.11496749760382,373.3120261168445L52.19736727088312,373.6262946388098L68.27976704416243,373.99974986296706L84.36216681744172,373.9310940925915L100.44456659072101,371.4366480120282L116.52696636400032,370.71394299490896L132.60936613727958,367.68010179892025L148.6917659105589,368.2160792039609L164.7741656838382,361.0842625274298L180.85656545711748,358.92999925521957L196.93896523039678,360.8936146004981L213.02136500367607,338.85314210041264L229.10376477695536,336.362877689026L245.18616455023465,339.09505568311533L261.268564323514,345.3862764384327L277.3509640967933,341.4660621062537" style="fill: none;" fill="none"></path></g><g><path stroke="rgb(255, 112, 67)" stroke-width="2px" d="M3.950167951045229,373.4893650774545L20.032567724324522,373.3991174191189L36.11496749760382,373.0477365832112L52.19736727088312,372.87755471023036L68.27976704416243,372.38896285446515L84.36216681744172,372.0230265931542L100.44456659072101,370.0457806146942L116.52696636400032,367.0984074914393L132.60936613727958,359.9473310116813L148.6917659105589,358.72980184338934L164.7741656838382,356.76254764175997L180.85656545711748,351.3458988697163L196.93896523039678,321.38293244768187L213.02136500367607,340.84544610874417L229.10376477695536,293.683374884203L245.18616455023465,251.47491298711077L261.268564323514,329.23870060041367L277.3509640967933,272.9536144208402L293.4333638700726,316.66745711733364L309.5157636433519,294.53912935618195L325.59816341663117,308.0460615258861L341.68056318991046,137.17521833986063L357.76296296318975,206.83901223717467L373.84536273646904,80.10319429211373L389.92776250974833,263.1705189654442L406.0101622830276,259.1636757271017L422.092562056307,246.0152613767557L438.17496182958627,261.3383849490841L454.25736160286556,168.67685808127925L470.33976137614485,252.74095353868717" style="fill: none;" fill="none"></path></g><g><path stroke="rgb(0, 119, 187)" stroke-width="2px" d="M3.950167951045229,374.06408323491496L20.032567724324522,373.7675063902353L36.11496749760382,373.7417328330987L52.19736727088312,373.1328777801484L68.27976704416243,372.4212903738689L84.36216681744172,371.66686096270786L100.44456659072101,371.2955970940325L116.52696636400032,368.17060355166524L132.60936613727958,367.97549249705463L148.6917659105589,364.9987471686697L164.7741656838382,362.1493216042054L180.85656545711748,354.60760082747277L196.93896523039678,342.4142958004076L213.02136500367607,351.694867204176L229.10376477695536,344.9722710857695L245.18616455023465,344.4296190933893L261.268564323514,334.11088800399114L277.3509640967933,327.7435327238092L293.4333638700726,311.69117027627306L309.5157636433519,309.50198604560234L325.59816341663117,279.72365640105824L341.68056318991046,253.68661389796324L357.76296296318975,312.4417396851173L373.84536273646904,267.55660743141937L389.92776250974833,271.6902879333929L406.0101622830276,220.576197565916L422.092562056307,263.32632635063044L438.17496182958627,238.89528606149878L454.25736160286556,258.00623794904476L470.33976137614485,248.69269569215317" style="fill: none;" fill="none"></path></g><g><path stroke="rgb(204, 51, 17)" stroke-width="2px" d="M3.950167951045229,374.1362170282115L20.032567724324522,374.13607629896035L36.11496749760382,373.796898699544L52.19736727088312,373.9751825565545L68.27976704416243,373.24075680323347L84.36216681744172,372.7543965113077L100.44456659072101,369.99186120733043L116.52696636400032,368.75322265136805L132.60936613727958,368.6433734187671L148.6917659105589,363.50394116728245L164.7741656838382,358.2485078045044L180.85656545711748,352.1361539273808L196.93896523039678,351.3385005319423L213.02136500367607,352.69573363825475L229.10376477695536,351.4477466391813L245.18616455023465,347.53010564188014L261.268564323514,341.5320440208577L277.3509640967933,317.0710485054128L293.4333638700726,331.97321067923616L309.5157636433519,322.706671992224L325.59816341663117,311.26795720974985L341.68056318991046,300.6384155171286L357.76296296318975,283.92305746331226L373.84536273646904,283.570812147719L389.92776250974833,266.8452813794634L406.0101622830276,283.6302199958771L422.092562056307,252.18595758056446L438.17496182958627,237.78268060201802L454.25736160286556,256.27181024133046L470.33976137614485,209.4121862816592" style="fill: none;" fill="none"></path></g><g><path stroke="rgb(0, 153, 136)" stroke-width="2px" d="M3.950167951045229,374.2403164656946L20.032567724324522,373.80892099842674L36.11496749760382,373.473321942825L52.19736727088312,374.20294279742865L68.27976704416243,374.2246151021036L84.36216681744172,372.9352738073748L100.44456659072101,373.7177284436907L116.52696636400032,371.5465575571654L132.60936613727958,369.64446099881195L148.6917659105589,369.404075333693L164.7741656838382,366.26452636592256L180.85656545711748,353.48041983841006L196.93896523039678,346.45278301607703L213.02136500367607,341.6594442014932L229.10376477695536,332.25949418440416L245.18616455023465,319.8144044228781L261.268564323514,308.76014185032864L277.3509640967933,279.5956933034183L293.4333638700726,215.88557100048263L309.5157636433519,287.30369574245736L325.59816341663117,250.04313358605367L341.68056318991046,253.1071310501429L357.76296296318975,223.03148070630604L373.84536273646904,236.25858281221576" style="fill: none;" fill="none"></path></g><g><path stroke="rgb(187, 187, 187)" stroke-width="2px" d="M3.950167951045229,373.12041318933353L20.032567724324522,373.2558349372838L36.11496749760382,372.4658211297641L52.19736727088312,372.7932779929787L68.27976704416243,372.7271553491235L84.36216681744172,370.9956628515044L100.44456659072101,368.1162820607268L116.52696636400032,370.70125725812795L132.60936613727958,370.04397123860815L148.6917659105589,367.78428165311834L164.7741656838382,343.1388906103279L180.85656545711748,349.8261234783418L196.93896523039678,354.8144125141064L213.02136500367607,335.85765967744794L229.10376477695536,339.7906803714803L245.18616455023465,319.6437601537864L261.268564323514,315.9272815688948L277.3509640967933,288.0399308718644L293.4333638700726,275.09688070728316" style="fill: none;" fill="none"></path></g><g><path stroke="rgb(255, 112, 67)" stroke-width="2px" d="M3.950167951045229,373.99231131683564L20.032567724324522,374.16864506850897L36.11496749760382,374.0963705459613L52.19736727088312,373.94150805717555L68.27976704416243,374.09343533586616L84.36216681744172,373.3083068437787L100.44456659072101,373.05732627646717L116.52696636400032,372.1414804142532L132.60936613727958,367.98474041927216L148.6917659105589,366.1830441295148L164.7741656838382,357.70344331067616L180.85656545711748,351.86261647153003L196.93896523039678,342.34085523549345L213.02136500367607,302.36385665694894L229.10376477695536,307.1029342931305L245.18616455023465,302.2070641670047L261.268564323514,208.9463724603992" style="fill: none;" fill="none"></path></g><g><path stroke="rgb(0, 119, 187)" stroke-width="2px" d="M3.950167951045229,373.9889137106297L20.032567724324522,373.4627672489898L36.11496749760382,373.1600988381539L52.19736727088312,372.6956923094053L68.27976704416243,371.5036753439264L84.36216681744172,372.7564270333598L100.44456659072101,369.7943778596292L116.52696636400032,371.2979291787656L132.60936613727958,367.67754856822114L148.6917659105589,358.34382171588084L164.7741656838382,362.55908497515577L180.85656545711748,350.462541360336L196.93896523039678,332.9679855471587L213.02136500367607,340.26574211495773L229.10376477695536,311.138767757207L245.18616455023465,277.6113103415078L261.268564323514,320.683146194319L277.3509640967933,284.02987096492444L293.4333638700726,271.4270036086963L309.5157636433519,289.9188875204953L325.59816341663117,283.3453236790417L341.68056318991046,246.23837755234234L357.76296296318975,105.79983284088968L373.84536273646904,205.48688559226053L389.92776250974833,215.6433960634564L406.0101622830276,181.42475698289235L422.092562056307,226.77266732686138L438.17496182958627,189.5901093839445L454.25736160286556,151.7883427360295L470.33976137614485,179.51349291903642" style="fill: none;" fill="none"></path></g><g><path stroke="rgb(238, 51, 119)" stroke-width="2px" d="M3.950167951045229,373.7210858415392L20.032567724324522,373.79094786263886L36.11496749760382,374.02990613106766L52.19736727088312,373.6671664341754L68.27976704416243,374.2620490829058L84.36216681744172,373.9354164910192L100.44456659072101,372.94741673133L116.52696636400032,371.287635839254L132.60936613727958,369.58778731896166L148.6917659105589,355.6668095882368L164.7741656838382,362.9301075936863L180.85656545711748,360.1268211194158L196.93896523039678,353.367554978999L213.02136500367607,326.56295503602985L229.10376477695536,313.30917468494044L245.18616455023465,315.3505730977397L261.268564323514,313.23233651382026L277.3509640967933,256.86532580590693L293.4333638700726,295.8479113917462L309.5157636433519,251.78331108888582L325.59816341663117,282.4929869174475L341.68056318991046,279.7693733034987L357.76296296318975,235.7023001866541L373.84536273646904,256.06731053525124L389.92776250974833,255.4684070507741L406.0101622830276,228.8897981809505L422.092562056307,177.36202412767008" style="fill: none;" fill="none"></path></g><g><path stroke="rgb(0, 153, 136)" stroke-width="2px" d="M3.950167951045229,373.246084410598L20.032567724324522,373.0678608661236L36.11496749760382,373.00340686910334L52.19736727088312,372.965007887722L68.27976704416243,371.91910809327965L84.36216681744172,373.6768164399676L100.44456659072101,373.18884781374305L116.52696636400032,372.21347347829857L132.60936613727958,367.20097901133863L148.6917659105589,369.1464603873994L164.7741656838382,350.6279384387782L180.85656545711748,359.74890276757964L196.93896523039678,358.48129409006197L213.02136500367607,325.48193324133973L229.10376477695536,345.5915199991251L245.18616455023465,331.4681937094455L261.268564323514,306.5519792749333L277.3509640967933,302.79495056153576L293.4333638700726,270.5743652844211L309.5157636433519,297.7760830699172L325.59816341663117,277.5853357425839L341.68056318991046,283.3812699506176L357.76296296318975,225.56360201781632L373.84536273646904,227.62170700314326L389.92776250974833,263.5908169260511L406.0101622830276,226.23150304370748L422.092562056307,81.5965728968109L438.17496182958627,219.82434148963287L454.25736160286556,187.77261120970255L470.33976137614485,174.65785125455676" style="fill: none;" fill="none"></path></g><g><path stroke="rgb(187, 187, 187)" stroke-width="2px" d="M3.950167951045229,373.4647977710419L20.032567724324522,372.8418295846206L36.11496749760382,372.68244365561975L52.19736727088312,372.2608992359314L68.27976704416243,371.83838981566385L84.36216681744172,371.7193127650241L100.44456659072101,370.5792852057505L116.52696636400032,367.77887362903897L132.60936613727958,355.4554141488519L148.6917659105589,363.5877554884233L164.7741656838382,360.0139160516473L180.85656545711748,321.2281905839685L196.93896523039678,348.25100128291336L213.02136500367607,347.2879709132114L229.10376477695536,338.03259004539643L245.18616455023465,327.82549746050654L261.268564323514,335.7898884909366L277.3509640967933,321.3000630229415L293.4333638700726,300.31584396934625L309.5157636433519,301.5486724176546L325.59816341663117,246.5703377515933L341.68056318991046,298.36453238145276L357.76296296318975,251.4237679564122L373.84536273646904,265.4402405361222" style="fill: none;" fill="none"></path></g><g><path stroke="rgb(255, 112, 67)" stroke-width="2px" d="M3.950167951045229,373.5919365973539L20.032567724324522,373.7339525159288L36.11496749760382,373.509710506333L52.19736727088312,373.48409778262624L68.27976704416243,372.2976496746566L84.36216681744172,372.5769771339827L100.44456659072101,371.7292241251398L116.52696636400032,370.4986473448497L132.60936613727958,368.49337614123493L148.6917659105589,362.5862658248037L164.7741656838382,361.3608960268056L180.85656545711748,359.68893200241695L196.93896523039678,352.76979743270977L213.02136500367607,349.4168828160385L229.10376477695536,337.0897643753218L245.18616455023465,339.2077396049177L261.268564323514,330.2708089282447L277.3509640967933,310.7220483404148L293.4333638700726,310.83260121927145L309.5157636433519,302.3208337144588L325.59816341663117,194.77948041540364L341.68056318991046,291.52655838129357L357.76296296318975,206.51469162584254L373.84536273646904,132.43372820223098L389.92776250974833,255.98488340244307L406.0101622830276,250.50548948857144L422.092562056307,235.0502010452476L438.17496182958627,2.0149453382275158L454.25736160286556,186.7589585179491L470.33976137614485,196.05308013818393" style="fill: none;" fill="none"></path></g><g><path stroke="rgb(255, 112, 67)" stroke-width="2px" d="M3.950167951045229,374.14769651426843L20.032567724324522,374.04058144997526L36.11496749760382,374.22901791724627L52.19736727088312,373.95783265030735L68.27976704416243,373.83628278568335L84.36216681744172,374.00174017666177L100.44456659072101,373.40504815184534L116.52696636400032,372.2024764925313L132.60936613727958,369.41879159252613L148.6917659105589,365.2511551326714L164.7741656838382,361.87522123135L180.85656545711748,360.6867828096857L196.93896523039678,353.77098553364834L213.02136500367607,350.20458464300384L229.10376477695536,345.282599188703L245.18616455023465,336.91210374785203L261.268564323514,339.71621449345065L277.3509640967933,331.6487493386529L293.4333638700726,320.00575599606555L309.5157636433519,313.1601424079875L325.59816341663117,306.76013794154204L341.68056318991046,315.04054655748723L357.76296296318975,296.25445809409916L373.84536273646904,291.9742382333357L389.92776250974833,293.61781515735237L406.0101622830276,290.78101501713275L422.092562056307,286.5368218446601L438.17496182958627,283.5016336686963L454.25736160286556,265.92081082457264L470.33976137614485,253.55400673503573" style="fill: none;" fill="none"></path></g><g><path stroke="rgb(0, 119, 187)" stroke-width="2px" d="M3.950167951045229,374.1720627788937L20.032567724324522,374.1563212069452L36.11496749760382,374.27764992560316L52.19736727088312,374.1546525601103L68.27976704416243,372.80345070741794L84.36216681744172,372.7514814053913L100.44456659072101,371.6031910286582L116.52696636400032,371.5455724524074L132.60936613727958,373.259895981388L148.6917659105589,369.65608121412004L164.7741656838382,364.94522984488054L180.85656545711748,361.7865215947769L196.93896523039678,359.0081240937787L213.02136500367607,358.0342977800968L229.10376477695536,356.6726819628203L245.18616455023465,353.3281708928597L261.268564323514,344.2629353475081L277.3509640967933,348.99232276954007L293.4333638700726,339.2544818204736L309.5157636433519,334.24838048235097L325.59816341663117,330.020290757044L341.68056318991046,292.13977604102905L357.76296296318975,317.8085099897226L373.84536273646904,321.0781329939001L389.92776250974833,317.80828884375654L406.0101622830276,299.1047280340703" style="fill: none;" fill="none"></path></g><g><path stroke="rgb(204, 51, 17)" stroke-width="2px" d="M3.950167951045229,374.0799052235784L20.032567724324522,373.97773578725366L36.11496749760382,374.05553895895315L52.19736727088312,373.5210693673176L68.27976704416243,372.51972043294916L84.36216681744172,371.8389929410259L100.44456659072101,368.38103399047094L116.52696636400032,369.4641667239281L132.60936613727958,365.7103948874854L148.6917659105589,360.9333002493184L164.7741656838382,356.5683613793711L180.85656545711748,349.93277614652413L196.93896523039678,347.36999596244493L213.02136500367607,334.25380861060904L229.10376477695536,336.9123852063543L245.18616455023465,326.84992208327475L261.268564323514,323.04747803011776L277.3509640967933,299.1068389728374" style="fill: none;" fill="none"></path></g><g><path stroke="rgb(51, 187, 238)" stroke-width="2px" d="M3.950167951045229,374.1409214060352L20.032567724324522,374.1514358915129L36.11496749760382,373.94102555688596L52.19736727088312,373.9824200608987L68.27976704416243,373.64915309003004L84.36216681744172,372.9577301750204L100.44456659072101,367.76576570450464L116.52696636400032,367.26412623674116L132.60936613727958,361.8541520520371L148.6917659105589,353.24684948988187L164.7741656838382,346.80935073009806L180.85656545711748,322.04070096749126L196.93896523039678,326.64152216652116L213.02136500367607,298.0952771156723" style="fill: none;" fill="none"></path></g><g><path stroke="rgb(187, 187, 187)" stroke-width="2px" d="M3.950167951045229,374.13923265502154L20.032567724324522,374.041285096231L36.11496749760382,374.05202072767474L52.19736727088312,373.9809122474936L68.27976704416243,374.0493066635457L84.36216681744172,373.30149152718803L100.44456659072101,371.7162770340353L116.52696636400032,369.0440295967511L132.60936613727958,365.2202751141364L148.6917659105589,362.8372262879366L164.7741656838382,356.27188505558513L180.85656545711748,356.62380870431866L196.93896523039678,356.1445049791284" style="fill: none;" fill="none"></path></g><g><path stroke="rgb(255, 112, 67)" stroke-width="2px" d="M3.950167951045229,372.5941461026213L20.032567724324522,373.161224672163L36.11496749760382,373.3852053274352L52.19736727088312,373.78690692271334L68.27976704416243,373.69197499073283L84.36216681744172,373.88483437732526L100.44456659072101,373.84016289217897L116.52696636400032,374.10306523747965L132.60936613727958,375.3290582650185L148.6917659105589,372.34831220506555L164.7741656838382,368.91015587056336L180.85656545711748,370.17482933798584L196.93896523039678,369.58921471565174L213.02136500367607,369.108966094061L229.10376477695536,370.1780259024045L245.18616455023465,366.91978186339026L261.268564323514,357.99708494526067L277.3509640967933,367.3385519064134L293.4333638700726,365.5563566700278L309.5157636433519,360.08874380489414" style="fill: none;" fill="none"></path></g><g><path stroke="rgb(0, 119, 187)" stroke-width="2px" d="M3.950167951045229,374.10493492610186L20.032567724324522,373.8032114116664L36.11496749760382,373.3835366806003L52.19736727088312,373.420025765002L68.27976704416243,373.06028159074106L84.36216681744172,371.1617233678448L100.44456659072101,369.74220751581527L116.52696636400032,367.2920107326448L132.60936613727958,366.45061064428177L148.6917659105589,362.924619152892L164.7741656838382,358.663538470283L180.85656545711748,350.1556108636085" style="fill: none;" fill="none"></path></g><g><path stroke="rgb(204, 51, 17)" stroke-width="2px" d="M3.950167951045229,374.16697642167406L20.032567724324522,374.1891111224599L36.11496749760382,374.2384668812511L52.19736727088312,374.23237531509477L68.27976704416243,374.6135103355284L84.36216681744172,374.42081178236583L100.44456659072101,374.09074137591585L116.52696636400032,373.8897397969363L132.60936613727958,373.59467076566165L148.6917659105589,370.39784499267887L164.7741656838382,364.4351064136915L180.85656545711748,361.9940168234875L196.93896523039678,344.601168050524L213.02136500367607,357.0801936657525L229.10376477695536,350.6603463748969L245.18616455023465,327.71699520788076L261.268564323514,338.1111169675303L277.3509640967933,327.0328500055727L293.4333638700726,329.3418350373176L309.5157636433519,337.6105631254185" style="fill: none;" fill="none"></path></g><g><path stroke="rgb(0, 153, 136)" stroke-width="2px" d="M3.950167951045229,374.08388585096765L20.032567724324522,374.01563216416673L36.11496749760382,373.40092679520495L52.19736727088312,373.20016646637015L68.27976704416243,371.34085160036204L84.36216681744172,372.261683298902L100.44456659072101,370.9387278173305L116.52696636400032,367.1652538857288L132.60936613727958,366.1401619162759L148.6917659105589,363.7419746434895L164.7741656838382,360.0280291851183L180.85656545711748,356.5714976312536" style="fill: none;" fill="none"></path></g><g><path stroke="rgb(187, 187, 187)" stroke-width="2px" d="M3.950167951045229,374.03967676193224L20.032567724324522,373.9408245150986L36.11496749760382,373.7303739721142L52.19736727088312,373.65751642838325L68.27976704416243,373.39286501953274L84.36216681744172,373.00328624403096L100.44456659072101,369.2740415056434L116.52696636400032,369.2907078698137L132.60936613727958,367.21352401886844L148.6917659105589,357.15353370977306L164.7741656838382,353.0042523651022L180.85656545711748,348.6988821767429L196.93896523039678,340.0871164869088L213.02136500367607,348.44452410740405" style="fill: none;" fill="none"></path></g><g><path stroke="rgb(255, 112, 67)" stroke-width="2px" d="M3.950167951045229,374.15861308332086L20.032567724324522,374.158753812572L36.11496749760382,373.96048640190014L52.19736727088312,374.0293231098844L68.27976704416243,374.23657708845013L84.36216681744172,373.38972876765024L100.44456659072101,372.84456375292837L116.52696636400032,371.47444386804756L132.60936613727958,372.33373667548364L148.6917659105589,364.9108718034247L164.7741656838382,363.52034617712917L180.85656545711748,347.07486661863413L196.93896523039678,347.9053903463023L213.02136500367607,336.1902230020609L229.10376477695536,327.62980338471266L245.18616455023465,319.0998214939673L261.268564323514,308.6061438412284L277.3509640967933,311.7837500193418L293.4333638700726,282.5478914295693" style="fill: none;" fill="none"></path></g><g><path stroke="rgb(0, 119, 187)" stroke-width="2px" d="M3.950167951045229,373.89776136425104L20.032567724324522,373.8614130091005L36.11496749760382,374.03688228108825L52.19736727088312,373.9296063833652L68.27976704416243,374.28354044997207L84.36216681744172,374.16273443996124L100.44456659072101,374.3106006745477L116.52696636400032,371.2373954965984L132.60936613727958,370.10128825217794L148.6917659105589,367.1013829098918L164.7741656838382,360.4168238976495L180.85656545711748,360.65618424965305L196.93896523039678,357.77658231290934L213.02136500367607,351.04463775139175L229.10376477695536,348.80513276135054L245.18616455023465,339.14845238183204L261.268564323514,329.8066436496409L277.3509640967933,326.68191146159717L293.4333638700726,318.40512159782406" style="fill: none;" fill="none"></path></g><g><path stroke="rgb(238, 51, 119)" stroke-width="2px" d="M3.950167951045229,373.9101656425297L20.032567724324522,373.94866514480475L36.11496749760382,373.5256933284263L52.19736727088312,373.5354036467547L68.27976704416243,372.79201142971846L84.36216681744172,373.1784941616952L100.44456659072101,372.08920954954556L116.52696636400032,372.8692717885921L132.60936613727958,369.47218829124284L148.6917659105589,364.38995242825564L164.7741656838382,363.15390731134994L180.85656545711748,360.13550612462876L196.93896523039678,358.72405204827146L213.02136500367607,348.8374602807543L229.10376477695536,358.2705218802178L245.18616455023465,352.6122610881524L261.268564323514,353.43025991246947L277.3509640967933,344.1119730693967L293.4333638700726,317.9280293322945" style="fill: none;" fill="none"></path></g><g><path stroke="rgb(0, 153, 136)" stroke-width="2px" d="M3.950167951045229,373.4688588151461L20.032567724324522,373.355772809769L36.11496749760382,373.5514266772055L52.19736727088312,373.73730991377727L68.27976704416243,373.23396159082154L84.36216681744172,373.6638090363269L100.44456659072101,371.9732687507883L116.52696636400032,370.9025402956098L132.60936613727958,369.3786435475949L148.6917659105589,367.4147266396354L164.7741656838382,365.96421014399846L180.85656545711748,365.14391944330583L196.93896523039678,355.2325794317675L213.02136500367607,350.21897923497716L229.10376477695536,347.54968711196676L245.18616455023465,346.73950881317717L261.268564323514,334.1803077331586L277.3509640967933,342.4117626738872" style="fill: none;" fill="none"></path></g><g><path stroke="rgb(187, 187, 187)" stroke-width="2px" d="M3.950167951045229,374.182155076618L20.032567724324522,374.1680620473257L36.11496749760382,374.1861960165435L52.19736727088312,374.2966885828639L68.27976704416243,374.39441499568846L84.36216681744172,373.9582950464182L100.44456659072101,374.00218246859384L116.52696636400032,372.9038107676566L132.60936613727958,372.2686594489226L148.6917659105589,370.4424159569315L164.7741656838382,363.8377911593344L180.85656545711748,364.3659279346689L196.93896523039678,364.7832504768231L213.02136500367607,364.4661673698351L229.10376477695536,360.03058241581755L245.18616455023465,358.98846220697715L261.268564323514,356.3188082087496L277.3509640967933,344.34500060509913L293.4333638700726,341.6874091141118L309.5157636433519,332.287740555525L325.59816341663117,332.79953263354895L341.68056318991046,336.00773737169504" style="fill: none;" fill="none"></path></g><g><path stroke="rgb(255, 112, 67)" stroke-width="2px" d="M3.950167951045229,374.12214410309787L20.032567724324522,373.85532144294416L36.11496749760382,373.83696632776025L52.19736727088312,373.8148517311532L68.27976704416243,373.41524097046334L84.36216681744172,373.14063799313965L100.44456659072101,368.7495636908385L116.52696636400032,370.8620504796401L132.60936613727958,370.07235833898017L148.6917659105589,366.8435267134533L164.7741656838382,358.1528923304469L180.85656545711748,360.4634655923117L196.93896523039678,351.48807562172107L213.02136500367607,329.588452997844L229.10376477695536,333.0923701009841L245.18616455023465,315.7170320676977L261.268564323514,318.36276209323216L277.3509640967933,292.2173379625837" style="fill: none;" fill="none"></path></g><g><path stroke="rgb(51, 187, 238)" stroke-width="2px" d="M3.950167951045229,373.71716552668613L20.032567724324522,373.4753926732346L36.11496749760382,373.45703755805073L52.19736727088312,373.144236641133L68.27976704416243,373.00726687142026L84.36216681744172,373.0691073252051L100.44456659072101,372.92926265793346L116.52696636400032,372.74215306645885L132.60936613727958,371.6287635440075L148.6917659105589,368.8906950255491L164.7741656838382,363.89281629652857L180.85656545711748,361.69116747504296L196.93896523039678,351.89667295030495L213.02136500367607,338.5981205931756L229.10376477695536,343.6681331154927L245.18616455023465,328.5862797921475L261.268564323514,313.0003946037695L277.3509640967933,303.90522393628345L293.4333638700726,303.9839317960259" style="fill: none;" fill="none"></path></g><g><path stroke="rgb(238, 51, 119)" stroke-width="2px" d="M3.950167951045229,373.8587391533289L20.032567724324522,374.07345178220487L36.11496749760382,373.79904984666854L52.19736727088312,373.61630286197914L68.27976704416243,373.2686010907797L84.36216681744172,373.29137912528495L100.44456659072101,373.6634069527522L116.52696636400032,372.46503706679346L132.60936613727958,372.08207256609506L148.6917659105589,369.1185356831382L164.7741656838382,367.1257692786958L180.85656545711748,361.070511269176L196.93896523039678,345.71986507616106L213.02136500367607,351.25645537853006L229.10376477695536,346.76757424668943L245.18616455023465,324.4242322939807L261.268564323514,331.45436203447673L277.3509640967933,335.6812656132384L293.4333638700726,310.51845332237855L309.5157636433519,325.0674252842081L325.59816341663117,302.20288249782817L341.68056318991046,283.4694066701862L357.76296296318975,276.1405087295286L373.84536273646904,259.4233010912688L389.92776250974833,268.10227505060965" style="fill: none;" fill="none"></path></g><g><path stroke="rgb(0, 153, 136)" stroke-width="2px" d="M3.950167951045229,373.74611554406266L20.032567724324522,373.5441288603251L36.11496749760382,373.64129235614513L52.19736727088312,373.63887985469705L68.27976704416243,372.64342144469765L84.36216681744172,372.63379154308416L100.44456659072101,371.2325905978811L116.52696636400032,373.5141334256544L132.60936613727958,371.78798863957843L148.6917659105589,369.4367245199566L164.7741656838382,367.05914403037235L180.85656545711748,362.90875695587107" style="fill: none;" fill="none"></path></g><g><path stroke="rgb(187, 187, 187)" stroke-width="2px" d="M3.950167951045229,374.17109777831445L20.032567724324522,373.93258180181783L36.11496749760382,373.5743655451406L52.19736727088312,373.24093774084207L68.27976704416243,372.572654735555L84.36216681744172,372.7537933859457L100.44456659072101,371.63935844620016L116.52696636400032,371.11305115113043L132.60936613727958,370.3876722782396L148.6917659105589,366.008338816319L164.7741656838382,365.70659519770476L180.85656545711748,345.2227088402553L196.93896523039678,359.71416274672777L213.02136500367607,346.28855198000144" style="fill: none;" fill="none"></path></g><g><path stroke="rgb(204, 51, 17)" stroke-width="2px" d="M3.950167951045229,374.27417190268216L20.032567724324522,374.22566051939776L36.11496749760382,374.56899968381197L52.19736727088312,374.0556193756681L68.27976704416243,374.0232516479068L84.36216681744172,373.306477363514L100.44456659072101,372.20613545306077L116.52696636400032,372.75210463493204L132.60936613727958,370.6079537646248L148.6917659105589,367.5846270541139L164.7741656838382,361.7078539433919L180.85656545711748,358.4158750924625L196.93896523039678,357.17313528403844L213.02136500367607,341.54430756988523L229.10376477695536,347.2795070539645L245.18616455023465,340.4212881458204L261.268564323514,334.0290036840087" style="fill: none;" fill="none"></path></g><g><path stroke="rgb(51, 187, 238)" stroke-width="2px" d="M3.950167951045229,374.3566593480266L20.032567724324522,374.3605394545222L36.11496749760382,374.5181964241519L52.19736727088312,374.76730730284123L68.27976704416243,374.19363456267496L84.36216681744172,373.8377101823734L100.44456659072101,372.9836444614082L116.52696636400032,372.40215119571445L132.60936613727958,372.6877310546267L148.6917659105589,368.9558124604676L164.7741656838382,368.0786872464947L180.85656545711748,366.97173106123813L196.93896523039678,366.83118274771084L213.02136500367607,361.3377159087256L229.10376477695536,359.5368840986539L245.18616455023465,360.0149815731202L261.268564323514,342.9611495661432L277.3509640967933,356.214367000228" style="fill: none;" fill="none"></path></g><g><path stroke="rgb(238, 51, 119)" stroke-width="2px" d="M3.950167951045229,373.59613837070924L20.032567724324522,373.47533236069836L36.11496749760382,373.36126125056336L52.19736727088312,372.5796509897543L68.27976704416243,371.7443625717263L84.36216681744172,371.009353797222L100.44456659072101,370.20118591630575L116.52696636400032,370.46314336520595L132.60936613727958,367.5924475796413L148.6917659105589,365.9870685952187L164.7741656838382,363.7686126803117L180.85656545711748,361.66135297798087L196.93896523039678,360.7131997005418L213.02136500367607,350.4990304447377L229.10376477695536,351.5536152443929L245.18616455023465,344.60333930182725L261.268564323514,342.4253933070687L277.3509640967933,350.15130856935946L293.4333638700726,328.911022591233L309.5157636433519,330.73125493378274L325.59816341663117,333.75528529054935" style="fill: none;" fill="none"></path></g><g><path stroke="rgb(0, 153, 136)" stroke-width="2px" d="M3.950167951045229,374.2048727985871L20.032567724324522,374.3945356207609L36.11496749760382,373.9895570443491L52.19736727088312,372.84747885884474L68.27976704416243,373.07359055706274L84.36216681744172,374.0685865709513L100.44456659072101,374.0390535323915L116.52696636400032,369.92730668941647L132.60936613727958,370.4832274397609L148.6917659105589,370.257035324828L164.7741656838382,367.71166535953216L180.85656545711748,367.6222620767034L196.93896523039678,360.8601813512639L213.02136500367607,362.78561886112715L229.10376477695536,364.50603395626405L245.18616455023465,359.12050645290014L261.268564323514,355.5432895140969L277.3509640967933,357.2742995114265L293.4333638700726,335.101863182133L309.5157636433519,352.5953534738374L325.59816341663117,350.982857610143L341.68056318991046,345.2376663492331L357.76296296318975,343.50281645376543L373.84536273646904,325.2098030780003L389.92776250974833,343.1037887142588L406.0101622830276,334.1552780306352L422.092562056307,309.4690352966578L438.17496182958627,325.30992188809415L454.25736160286556,317.15775782829127L470.33976137614485,291.13338095779847" style="fill: none;" fill="none"></path></g><g><path stroke="rgb(0, 153, 136)" stroke-width="2px" d="M3.950167951045229,373.62661630566953L20.032567724324522,372.9586348630634L36.11496749760382,372.8646076191259L52.19736727088312,371.6993292113628L68.27976704416243,370.96631075055313L84.36216681744172,369.9411986769215L100.44456659072101,370.2319252055896L116.52696636400032,357.7416814586277L132.60936613727958,367.85364106974964L148.6917659105589,369.07082846700314L164.7741656838382,365.89603687391246L180.85656545711748,368.18869731252556L196.93896523039678,364.0271725230059L213.02136500367607,366.9277833265263L229.10376477695536,364.3239504094729L245.18616455023465,359.6638419873573L261.268564323514,361.82100026130524" style="fill: none;" fill="none"></path></g><g><path stroke="rgb(187, 187, 187)" stroke-width="2px" d="M3.950167951045229,372.5728155689848L20.032567724324522,373.2234068969863L36.11496749760382,371.5259507739633L52.19736727088312,370.93018354136865L68.27976704416243,369.1284872516114L84.36216681744172,369.21827251383615L100.44456659072101,370.47653274824256L116.52696636400032,369.35598613816205L132.60936613727958,369.1132080757738L148.6917659105589,367.90024255605437L164.7741656838382,368.37757607172875L180.85656545711748,357.38764687112706L196.93896523039678,359.63513322012557L213.02136500367607,351.27300111762787L229.10376477695536,352.117416832801L245.18616455023465,354.36890391336743L261.268564323514,352.8840494804534L277.3509640967933,352.11036026606547L293.4333638700726,348.604653891018L309.5157636433519,333.61451583105594L325.59816341663117,334.39743286348266L341.68056318991046,327.8645397756074L357.76296296318975,314.7445125256334L373.84536273646904,341.90718799602865" style="fill: none;" fill="none"></path></g><g><path stroke="rgb(255, 112, 67)" stroke-width="2px" d="M3.950167951045229,374.05610187595767L20.032567724324522,374.34150079726135L36.11496749760382,374.4666493098787L52.19736727088312,374.25183616010906L68.27976704416243,372.31405468450333L84.36216681744172,369.3053839202893L100.44456659072101,370.7276942531628L116.52696636400032,371.0082279632129L132.60936613727958,370.2906495116707L148.6917659105589,370.2349408323996L164.7741656838382,359.23936235757384L180.85656545711748,360.96267245444835L196.93896523039678,351.0914000711263L213.02136500367607,335.44220682391585L229.10376477695536,321.2910362466901L245.18616455023465,329.79916489515193L261.268564323514,330.41939891326547L277.3509640967933,309.59659631072316L293.4333638700726,300.32101074328085L309.5157636433519,299.95105364622316L325.59816341663117,310.1484359127847L341.68056318991046,340.5773568853302" style="fill: none;" fill="none"></path></g><g><path stroke="rgb(0, 119, 187)" stroke-width="2px" d="M3.950167951045229,373.828381843441L20.032567724324522,373.2224217922284L36.11496749760382,374.0401793664006L52.19736727088312,373.2317903395183L68.27976704416243,369.7528627305441L84.36216681744172,369.77232357555835L100.44456659072101,367.8776454591577L116.52696636400032,365.74559730444815L132.60936613727958,364.1861161600746L148.6917659105589,353.72000133637965L164.7741656838382,350.2054290185106L180.85656545711748,345.0914084489454L196.93896523039678,347.3874865979433L213.02136500367607,330.6539141581942L229.10376477695536,321.61063237601985" style="fill: none;" fill="none"></path></g><g><path stroke="rgb(238, 51, 119)" stroke-width="2px" d="M3.950167951045229,373.61423213156957L20.032567724324522,373.70275083053406L36.11496749760382,373.74649752345863L52.19736727088312,373.869072701198L68.27976704416243,372.21049805984603L84.36216681744172,372.7395596274022L100.44456659072101,372.7335484779608L116.52696636400032,372.3052691583967L132.60936613727958,369.64623016654053L148.6917659105589,369.39721980874486L164.7741656838382,371.27086895419006L180.85656545711748,366.5597160222696L196.93896523039678,361.00718310616475L213.02136500367607,360.5064885348018L229.10376477695536,366.06284124486604L245.18616455023465,365.7607558552134L261.268564323514,365.03099427135857L277.3509640967933,359.0698640266699L293.4333638700726,357.8296171364089L309.5157636433519,360.85483363972077L325.59816341663117,355.9806559224487L341.68056318991046,361.29684411336L357.76296296318975,358.9523953103289L373.84536273646904,359.42100361243286L389.92776250974833,352.33383831686933L406.0101622830276,336.5651458312658L422.092562056307,322.5407924134922L438.17496182958627,341.19007194059736" style="fill: none;" fill="none"></path></g><g><path stroke="rgb(0, 153, 136)" stroke-width="2px" d="M3.950167951045229,373.4816048644633L20.032567724324522,373.0400165785774L36.11496749760382,372.5305565852866L52.19736727088312,372.98185518950083L68.27976704416243,372.36817513365446L84.36216681744172,371.2482316489359L100.44456659072101,367.81867990293176L116.52696636400032,362.56541779145687L132.60936613727958,362.9235335272404L148.6917659105589,364.22964170703307L164.7741656838382,366.3727672642248L180.85656545711748,363.3317890847857L196.93896523039678,358.1445289920937L213.02136500367607,348.32536664004937L229.10376477695536,352.28729714310083L245.18616455023465,360.051993366169" style="fill: none;" fill="none"></path></g><g><path stroke="rgb(187, 187, 187)" stroke-width="2px" d="M3.950167951045229,373.9823396441837L20.032567724324522,373.8384741411653L36.11496749760382,373.5854630518016L52.19736727088312,373.56865595838025L68.27976704416243,372.54157367523266L84.36216681744172,372.74364077568515L100.44456659072101,370.84815849213516L116.52696636400032,370.9953210804658L132.60936613727958,369.3148931968303L148.6917659105589,367.9254531961864L164.7741656838382,366.45537533464164L180.85656545711748,366.6021559435764L196.93896523039678,361.47317786503334L213.02136500367607,359.1942083721379L229.10376477695536,355.5393088867076L245.18616455023465,352.291056624524L261.268564323514,355.4226644416947L277.3509640967933,353.7856414799452L293.4333638700726,348.3262914322711" style="fill: none;" fill="none"></path></g><g><path stroke="rgb(255, 112, 67)" stroke-width="2px" d="M3.950167951045229,374.072687823413L20.032567724324522,374.0958277331355L36.11496749760382,373.81828954571665L52.19736727088312,373.1077073483738L68.27976704416243,371.2397074771528L84.36216681744172,371.07151591786663L100.44456659072101,371.6010599857124L116.52696636400032,367.86988524616646L132.60936613727958,366.89443049400705L148.6917659105589,364.4415397508863L164.7741656838382,361.88903280214004L180.85656545711748,358.9662872978339L196.93896523039678,349.23672927040576L213.02136500367607,346.40624184230853" style="fill: none;" fill="none"></path></g><g><path stroke="rgb(51, 187, 238)" stroke-width="2px" d="M3.950167951045229,374.11739951691675L20.032567724324522,373.7306956389739L36.11496749760382,373.88340698063513L52.19736727088312,373.4459400513897L68.27976704416243,372.49241895822877L84.36216681744172,373.0972933837898L100.44456659072101,372.6390186295549L116.52696636400032,370.8729268403351L132.60936613727958,372.552570661L148.6917659105589,372.1163903991935L164.7741656838382,369.5865408598802L180.85656545711748,364.62706111224094L196.93896523039678,360.92358993099003L213.02136500367607,360.65837560513495L229.10376477695536,355.2611675739268L245.18616455023465,350.72956506227706L261.268564323514,355.50257855216114L277.3509640967933,335.05077846397063L293.4333638700726,340.97278597684345L309.5157636433519,335.77380514794964L325.59816341663117,269.9451044900561L341.68056318991046,328.4762094135804L357.76296296318975,309.4776800935133L373.84536273646904,323.49282579742686L389.92776250974833,339.6684670689581L406.0101622830276,308.5562854779688L422.092562056307,344.0485242813132L438.17496182958627,290.85109818419846" style="fill: none;" fill="none"></path></g><g><path stroke="rgb(238, 51, 119)" stroke-width="2px" d="M3.950167951045229,373.76141482407905L20.032567724324522,373.6171673416647L36.11496749760382,372.6948479338984L52.19736727088312,373.51069561109097L68.27976704416243,369.95060743256886L84.36216681744172,363.81788802238805L100.44456659072101,360.18345459090864L116.52696636400032,354.6771210775339L132.60936613727958,357.8158859823338L148.6917659105589,363.36546358416473L164.7741656838382,352.89564959158275L180.85656545711748,341.62052251146474L196.93896523039678,346.46249333440545L213.02136500367607,351.97377247574866L229.10376477695536,335.29098319148096L245.18616455023465,327.7264240677069L261.268564323514,337.2418323832636L277.3509640967933,325.36916890282237L293.4333638700726,336.83295359617745L309.5157636433519,303.9455127104658L325.59816341663117,305.2002346094151L341.68056318991046,306.13763215123157L357.76296296318975,298.4434613871613L373.84536273646904,277.46022743832395L389.92776250974833,279.02602129481994L406.0101622830276,215.70314568265297" style="fill: none;" fill="none"></path></g><g><path stroke="rgb(0, 153, 136)" stroke-width="2px" d="M3.950167951045229,373.88403021017587L20.032567724324522,373.85423581729253L36.11496749760382,372.86673866207167L52.19736727088312,373.70150437145253L68.27976704416243,372.88887336285745L84.36216681744172,372.734593895255L100.44456659072101,370.8860749732269L116.52696636400032,369.11149922058144L132.60936613727958,367.09048644501814L148.6917659105589,366.79163782814163L164.7741656838382,349.31274317019785L180.85656545711748,358.8281313815759L196.93896523039678,343.421012550498L213.02136500367607,341.7927550106764" style="fill: none;" fill="none"></path></g><g><path stroke="rgb(187, 187, 187)" stroke-width="2px" d="M3.950167951045229,373.47300027596526L20.032567724324522,374.31464161447315L36.11496749760382,373.8803511454676L52.19736727088312,373.74000387372763L68.27976704416243,374.1681625682194L84.36216681744172,373.229096379568L100.44456659072101,372.2261592150796L116.52696636400032,369.83251548668704L132.60936613727958,363.61945977828634L148.6917659105589,362.2837783515764L164.7741656838382,353.1078693022958L180.85656545711748,350.8506324266114L196.93896523039678,341.6606303480385L213.02136500367607,336.06077219519455" style="fill: none;" fill="none"></path></g><g><path stroke="rgb(204, 51, 17)" stroke-width="2px" d="M3.950167951045229,373.7890781740166L20.032567724324522,373.53140291518673L36.11496749760382,373.35291801638886L52.19736727088312,373.29972235945945L68.27976704416243,371.4009630947759L84.36216681744172,373.4418186947493L100.44456659072101,371.4266562351975L116.52696636400032,372.8441817735324L132.60936613727958,369.3225528889279L148.6917659105589,367.5254403519219L164.7741656838382,367.37327182308644L180.85656545711748,364.9156364937846L196.93896523039678,363.7114766043505L213.02136500367607,360.12464986811256L229.10376477695536,361.09471670037135L245.18616455023465,353.07391334441456L261.268564323514,355.92770151566407L277.3509640967933,350.74804080253335" style="fill: none;" fill="none"></path></g><g><path stroke="rgb(51, 187, 238)" stroke-width="2px" d="M3.950167951045229,373.87832062341556L20.032567724324522,373.8553616513016L36.11496749760382,373.59473107819787L52.19736727088312,373.560976162104L68.27976704416243,373.207122512212L84.36216681744172,373.07322868184553L100.44456659072101,372.9262470311234L116.52696636400032,371.21676860921764L132.60936613727958,368.3363222969672L148.6917659105589,368.9627484021307L164.7741656838382,367.85866711443305L180.85656545711748,364.17077667170076L196.93896523039678,367.25262664650546L213.02136500367607,357.40258427592624L229.10376477695536,362.31755337184904L245.18616455023465,363.6224754050964L261.268564323514,357.0688951173042L277.3509640967933,359.52305242368516L293.4333638700726,355.8628454350691" style="fill: none;" fill="none"></path></g><g><path stroke="rgb(238, 51, 119)" stroke-width="2px" d="M3.950167951045229,373.89969136540947L20.032567724324522,373.6984284321063L36.11496749760382,373.27640151212836L52.19736727088312,373.49668299851356L68.27976704416243,373.21478220430953L84.36216681744172,372.2209522327875L100.44456659072101,370.9547106394238L116.52696636400032,368.6897738632845L132.60936613727958,360.68483270434854L148.6917659105589,362.4663041902997L164.7741656838382,363.3621664988524L180.85656545711748,348.09469129325885L196.93896523039678,354.4322521805574L213.02136500367607,345.481530037273L229.10376477695536,350.8637403511458L245.18616455023465,355.4316510095886L261.268564323514,347.5200937608708L277.3509640967933,342.0998262366551" style="fill: none;" fill="none"></path></g><g><path stroke="rgb(0, 153, 136)" stroke-width="2px" d="M3.950167951045229,373.2024583427458L20.032567724324522,371.9318742467756L36.11496749760382,371.2824891694981L52.19736727088312,368.87404876555763L68.27976704416243,369.6241557782909L84.36216681744172,367.9715520780228L100.44456659072101,370.02875237530674L116.52696636400032,367.0095269172575L132.60936613727958,368.724312842349L148.6917659105589,360.44169276674313L164.7741656838382,366.04321956642195L180.85656545711748,359.8601995010494L196.93896523039678,361.12026911154186L213.02136500367607,353.52018590394533L229.10376477695536,356.7477308620332L245.18616455023465,356.2251428400293L261.268564323514,351.7415491071956L277.3509640967933,361.77049856432615L293.4333638700726,348.6396753703721L309.5157636433519,352.4949129968838L325.59816341663117,353.09576658669806L341.68056318991046,339.88710001268714L357.76296296318975,349.1214720137254L373.84536273646904,343.4294563055662L389.92776250974833,339.1221159076909L406.0101622830276,350.7452865300468L422.092562056307,343.46443757656283L438.17496182958627,341.853409317916L454.25736160286556,333.25153488401884L470.33976137614485,339.75216076502653" style="fill: none;" fill="none"></path></g><g><path stroke="rgb(0, 119, 187)" stroke-width="2px" d="M3.950167951045229,373.7500559630945L20.032567724324522,373.6671463299967L36.11496749760382,373.70741500000025L52.19736727088312,373.4003437740217L68.27976704416243,372.8451065657542L84.36216681744172,372.9790808128356L100.44456659072101,372.48984562335085L116.52696636400032,371.79044134938397L132.60936613727958,369.1434849689467L148.6917659105589,368.6934529279927L164.7741656838382,367.4484011390143L180.85656545711748,361.4926387100476L196.93896523039678,362.52269641164776L213.02136500367607,360.9135579458019L229.10376477695536,357.55611988891553L245.18616455023465,352.8138456883153L261.268564323514,357.85336017149336L277.3509640967933,352.6907276977501L293.4333638700726,345.17112151762456L309.5157636433519,358.39038299382815L325.59816341663117,342.57826548215974L341.68056318991046,350.3543607745699L357.76296296318975,322.51626531543707L373.84536273646904,296.3642068058065L389.92776250974833,336.4113890723104L406.0101622830276,344.04965011532227L422.092562056307,342.8157360413623L438.17496182958627,328.37822164643234L454.25736160286556,309.5944652677774L470.33976137614485,326.8562347953971" style="fill: none;" fill="none"></path></g><g><path stroke="rgb(204, 51, 17)" stroke-width="2px" d="M3.950167951045229,374.10386940462894L20.032567724324522,374.190236956469L36.11496749760382,374.3105604661902L52.19736727088312,374.07940261911006L68.27976704416243,373.86139290492173L84.36216681744172,373.8431986231677L100.44456659072101,373.73367105742653L116.52696636400032,373.6312804751357L132.60936613727958,373.48240903161263L148.6917659105589,372.70992606794874L164.7741656838382,369.53987906103924L180.85656545711748,363.8125202066661L196.93896523039678,366.79813147787263L213.02136500367607,357.48792651465084" style="fill: none;" fill="none"></path></g><g><path stroke="rgb(51, 187, 238)" stroke-width="2px" d="M3.950167951045229,373.7856403594531L20.032567724324522,373.8792253114585L36.11496749760382,372.8656329322413L52.19736727088312,373.86032738344886L68.27976704416243,373.7063293743487L84.36216681744172,373.4886413270201L100.44456659072101,372.89281378188923L116.52696636400032,371.8991446437971L132.60936613727958,371.8956264125187L148.6917659105589,371.11703177851973L164.7741656838382,368.59964683002124L180.85656545711748,367.7262006807567L196.93896523039678,365.7632889817338L213.02136500367607,362.2435096815728L229.10376477695536,360.2173703404324" style="fill: none;" fill="none"></path></g><g><path stroke="rgb(238, 51, 119)" stroke-width="2px" d="M3.950167951045229,374.1537478720673L20.032567724324522,374.27332752717535L36.11496749760382,373.5941681611933L52.19736727088312,373.4888423688074L68.27976704416243,372.77178662591234L84.36216681744172,372.8623559511077L100.44456659072101,370.7535884353718L116.52696636400032,371.31433418861235L132.60936613727958,371.6274366682111L148.6917659105589,370.4644702410024L164.7741656838382,367.57950048853684L180.85656545711748,363.47589583794894L196.93896523039678,362.0720813495105L213.02136500367607,361.47201182266684L229.10376477695536,362.93075092740577L245.18616455023465,359.07589528029007" style="fill: none;" fill="none"></path></g><g><path stroke="rgb(255, 112, 67)" stroke-width="2px" d="M3.950167951045229,374.5188196536927L20.032567724324522,374.3710539399999L36.11496749760382,374.6441692080973L52.19736727088312,374.77842491368096L68.27976704416243,374.78099824855894L84.36216681744172,374.5875558407832L100.44456659072101,374.83915963763553L116.52696636400032,373.6669452882093L132.60936613727958,373.1889684388155L148.6917659105589,371.216064962962L164.7741656838382,372.39336566960776L180.85656545711748,368.46633602083807L196.93896523039678,372.3328520916194L213.02136500367607,369.0596103352697L229.10376477695536,365.17485977437696L245.18616455023465,360.18815896873235L261.268564323514,366.07918594217654L277.3509640967933,363.95962248246065L293.4333638700726,357.3239970412562L309.5157636433519,359.7785765353906L325.59816341663117,333.9676256263348L341.68056318991046,359.9306847516898L357.76296296318975,349.1645954771092L373.84536273646904,354.18129171742453L389.92776250974833,346.72758703518804" style="fill: none;" fill="none"></path></g><g><path stroke="rgb(0, 119, 187)" stroke-width="2px" d="M3.950167951045229,373.20422751047437L20.032567724324522,373.7601080524613L36.11496749760382,373.23255429831016L52.19736727088312,372.80566216707865L68.27976704416243,370.66802505068114L84.36216681744172,371.6728520079705L100.44456659072101,370.7220248747599L116.52696636400032,370.44106897695633L132.60936613727958,369.91830001734377L148.6917659105589,367.24639435109805L164.7741656838382,369.47435954254604L180.85656545711748,367.5050949230434L196.93896523039678,368.8804016860375L213.02136500367607,365.8387801728789L229.10376477695536,358.27438188253467L245.18616455023465,358.2773371968085L261.268564323514,353.3005678554583L277.3509640967933,349.0374365466185" style="fill: none;" fill="none"></path></g><g><path stroke="rgb(204, 51, 17)" stroke-width="2px" d="M3.950167951045229,373.7431602297888L20.032567724324522,373.75689138386394L36.11496749760382,373.907351057507L52.19736727088312,373.52112967985374L68.27976704416243,373.70108218369916L84.36216681744172,373.0647045100624L100.44456659072101,372.18404096063244L116.52696636400032,371.0115652568827L132.60936613727958,370.70996236751967L148.6917659105589,364.4759782090572L164.7741656838382,365.46763692927595L180.85656545711748,369.9502053489942L196.93896523039678,368.35610480884117L213.02136500367607,366.0140282989006L229.10376477695536,365.22566303403704L245.18616455023465,360.75085482731004L261.268564323514,364.1798034479522L277.3509640967933,357.494480476918L293.4333638700726,363.0241147334451L309.5157636433519,342.900615883976L325.59816341663117,357.0577171939283L341.68056318991046,355.354089088034L357.76296296318975,353.2671346062242L373.84536273646904,350.9403975846575" style="fill: none;" fill="none"></path></g><g><path stroke="rgb(51, 187, 238)" stroke-width="2px" d="M3.950167951045229,374.3240503701205L20.032567724324522,374.3615647676376L36.11496749760382,373.7139689622675L52.19736727088312,373.9532287933773L68.27976704416243,373.61953963475526L84.36216681744172,373.20883136740434L100.44456659072101,372.34515584900436L116.52696636400032,373.59503264087886L132.60936613727958,372.2451777681616L148.6917659105589,363.51775273807255L164.7741656838382,371.1344218931244L180.85656545711748,369.1558088305105L196.93896523039678,365.730056774287" style="fill: none;" fill="none"></path></g><g><path stroke="rgb(51, 187, 238)" stroke-width="2px" d="M3.950167951045229,373.6924976993799L20.032567724324522,373.6306170372375L36.11496749760382,373.31057861597566L52.19736727088312,371.88921317950263L68.27976704416243,370.4043185382311L84.36216681744172,371.3093885606438L100.44456659072101,369.59894513815885L116.52696636400032,369.5311538474688L132.60936613727958,367.7552713232056L148.6917659105589,367.19514879950583L164.7741656838382,365.19814041335064L180.85656545711748,362.6092046927389L196.93896523039678,354.8403670088516L213.02136500367607,357.48867036926396L229.10376477695536,343.0109275126879L245.18616455023465,351.72950670413417L261.268564323514,352.1841627061969L277.3509640967933,356.31832570846L293.4333638700726,341.16910328217807L309.5157636433519,338.0655810026985L325.59816341663117,345.4786350355353" style="fill: none;" fill="none"></path></g><g><path stroke="rgb(238, 51, 119)" stroke-width="2px" d="M3.950167951045229,374.1140220148895L20.032567724324522,374.0636811513403L36.11496749760382,374.11118732568804L52.19736727088312,373.7312987643359L68.27976704416243,372.64909082310055L84.36216681744172,373.21966751974185L100.44456659072101,369.87517655396L116.52696636400032,369.3722102104001L132.60936613727958,367.7817485265979L148.6917659105589,365.34554425182614L164.7741656838382,364.6508242515042L180.85656545711748,361.25768117318677L196.93896523039678,363.0281556733706L213.02136500367607,364.01360220236063L229.10376477695536,350.50542357357494" style="fill: none;" fill="none"></path></g><g><path stroke="rgb(0, 153, 136)" stroke-width="2px" d="M3.950167951045229,373.69887072403844L20.032567724324522,373.503598835998L36.11496749760382,373.4377777548238L52.19736727088312,372.1379621829748L68.27976704416243,372.80984383625525L84.36216681744172,371.456892920013L100.44456659072101,367.5274306656165L116.52696636400032,369.18886010034873L132.60936613727958,369.2073961531412L148.6917659105589,368.0770990163748L164.7741656838382,360.48264497882366L180.85656545711748,364.3165520716989L196.93896523039678,352.4298558745015L213.02136500367607,343.6157617298914L229.10376477695536,327.5368215580693L245.18616455023465,347.5086946915288L261.268564323514,348.63378484600315L277.3509640967933,356.7701470213213L293.4333638700726,349.3586611144257L309.5157636433519,348.74626772601823L325.59816341663117,320.3461599503846L341.68056318991046,332.5360874754225L357.76296296318975,322.7435631602004L373.84536273646904,330.215220874046L389.92776250974833,333.3076858552221L406.0101622830276,327.1110150524894L422.092562056307,300.3519912827095L438.17496182958627,300.09017456306043L454.25736160286556,311.5084634999411L470.33976137614485,299.24240145003876" style="fill: none;" fill="none"></path></g><g><path stroke="rgb(187, 187, 187)" stroke-width="2px" d="M3.950167951045229,374.0139434131531L20.032567724324522,373.5600513698822L36.11496749760382,374.05781073115L52.19736727088312,373.1401353886713L68.27976704416243,373.68168165122114L84.36216681744172,372.676915006468L100.44456659072101,368.48881249266236L116.52696636400032,369.21724720072075L132.60936613727958,367.14000303723924L148.6917659105589,362.9436176017953L164.7741656838382,360.17487010658937L180.85656545711748,354.59232165163513L196.93896523039678,351.4886385387256L213.02136500367607,348.1563508094351L229.10376477695536,347.485876448666L245.18616455023465,339.4577551716501L261.268564323514,344.63633025912924L277.3509640967933,341.0121499588041L293.4333638700726,338.111740197071L309.5157636433519,341.36381225321406" style="fill: none;" fill="none"></path></g><g><path stroke="rgb(204, 51, 17)" stroke-width="2px" d="M3.950167951045229,374.0069069505963L20.032567724324522,374.0296045683867L36.11496749760382,373.9959903815439L52.19736727088312,373.60411972966654L68.27976704416243,373.43612921216766L84.36216681744172,373.37326344526736L100.44456659072101,372.99019842367534L116.52696636400032,370.8086537809234L132.60936613727958,367.73126693379754L148.6917659105589,368.666633953562L164.7741656838382,370.33869849884434L180.85656545711748,368.7355912866186L196.93896523039678,368.5047551063982L213.02136500367607,368.56432378798615L229.10376477695536,366.2480610435397" style="fill: none;" fill="none"></path></g><g><path stroke="rgb(51, 187, 238)" stroke-width="2px" d="M3.950167951045229,374.1742541343757L20.032567724324522,373.9686084901086L36.11496749760382,373.8005174517161L52.19736727088312,373.4933054964863L68.27976704416243,373.5023724810952L84.36216681744172,372.6323038338579L100.44456659072101,371.2105765221677L116.52696636400032,368.6485804010591L132.60936613727958,367.30137927993474L148.6917659105589,364.9709832978385L164.7741656838382,367.51187003127666L180.85656545711748,365.2925697408628L196.93896523039678,367.7855482163786L213.02136500367607,369.7657696132911L229.10376477695536,368.01529877094737L245.18616455023465,369.8884453119242L261.268564323514,369.34525050671823L277.3509640967933,369.3088619432102L293.4333638700726,368.04378639221306L309.5157636433519,368.48225853039514L325.59816341663117,364.81304486970646L341.68056318991046,364.8889783527837L357.76296296318975,362.3268012940665L373.84536273646904,367.5838831995008L389.92776250974833,360.79132453910097L406.0101622830276,363.2284335019158L422.092562056307,356.5397330288543L438.17496182958627,363.10153592574864L454.25736160286556,362.2839793933637" style="fill: none;" fill="none"></path></g><g><path stroke="rgb(238, 51, 119)" stroke-width="2px" d="M3.950167951045229,374.14220807347414L20.032567724324522,374.09373689854715L36.11496749760382,374.1916844573378L52.19736727088312,374.2070440498903L68.27976704416243,373.6557070522972L84.36216681744172,372.7698566247539L100.44456659072101,371.58626331016444L116.52696636400032,369.8765637422926L132.60936613727958,366.18232037908047L148.6917659105589,366.1157152349357L164.7741656838382,364.62677965373865L180.85656545711748,364.5519116921344L196.93896523039678,360.48254445793L213.02136500367607,360.7805084909422L229.10376477695536,360.91898607406006" style="fill: none;" fill="none"></path></g><g><path stroke="rgb(0, 153, 136)" stroke-width="2px" d="M3.950167951045229,374.0968329420722L20.032567724324522,374.04198874248664L36.11496749760382,373.75789659280065L52.19736727088312,373.28671495581875L68.27976704416243,372.30356030320434L84.36216681744172,369.29261776679334L100.44456659072101,366.3159126467659L116.52696636400032,364.9478634922947L132.60936613727958,360.30753758205304L148.6917659105589,357.0933619028231L164.7741656838382,359.75569797999157L180.85656545711748,359.2471627789225L196.93896523039678,346.28439041500354" style="fill: none;" fill="none"></path></g><g><path stroke="rgb(0, 119, 187)" stroke-width="2px" d="M3.950167951045229,373.9828020402946L20.032567724324522,373.9077531410817L36.11496749760382,373.829286531484L52.19736727088312,373.0148662509816L68.27976704416243,372.78903601126586L84.36216681744172,372.9469945435766L100.44456659072101,370.6422514935445L116.52696636400032,369.0464622023779L132.60936613727958,368.18135928728776L148.6917659105589,367.62837374703844L164.7741656838382,363.8146512496119L180.85656545711748,366.18680361093806L196.93896523039678,360.0341609596321L213.02136500367607,361.7196148879511L229.10376477695536,348.35630697112055L245.18616455023465,358.3247830586201L261.268564323514,356.88033802496074L277.3509640967933,346.545121509001" style="fill: none;" fill="none"></path></g><g><path stroke="rgb(204, 51, 17)" stroke-width="2px" d="M3.950167951045229,373.99928746685623L20.032567724324522,373.9096027255252L36.11496749760382,374.06536990235395L52.19736727088312,374.31472203118807L68.27976704416243,373.70711343731926L84.36216681744172,373.26341421266636L100.44456659072101,373.3786915735255L116.52696636400032,371.14465492009987L132.60936613727958,370.3064916045129L148.6917659105589,365.89899218818636L164.7741656838382,367.11123395747137L180.85656545711748,354.44035416458706L196.93896523039678,363.7799715412963L213.02136500367607,357.8753943513855L229.10376477695536,350.8691885835826L245.18616455023465,340.9183438608326L261.268564323514,350.7509760126285L277.3509640967933,319.3496360189123L293.4333638700726,315.5711360426272L309.5157636433519,318.9094349213591L325.59816341663117,328.8902147662436L341.68056318991046,306.8217773535396L357.76296296318975,291.7898628101689" style="fill: none;" fill="none"></path></g><g><path stroke="rgb(51, 187, 238)" stroke-width="2px" d="M3.950167951045229,373.99472381828366L20.032567724324522,373.22031085346134L36.11496749760382,373.1266052763835L52.19736727088312,372.0600785945604L68.27976704416243,372.70934304676547L84.36216681744172,372.60192641979125L100.44456659072101,367.14046543335013L116.52696636400032,366.79587980985445L132.60936613727958,345.55074872465315L148.6917659105589,354.83188304542597L164.7741656838382,357.43189616852L180.85656545711748,358.7672760325489L196.93896523039678,351.300925821889L213.02136500367607,324.1285601373441L229.10376477695536,348.17880717708067L245.18616455023465,341.2350047800672L261.268564323514,292.9077958770141L277.3509640967933,294.65141119440966L293.4333638700726,321.4471250903786L309.5157636433519,292.4632723810331L325.59816341663117,272.18267947893884L341.68056318991046,322.996051540917L357.76296296318975,303.8384579587088L373.84536273646904,303.3693671563152L389.92776250974833,291.1724232728993L406.0101622830276,254.99153593121062L422.092562056307,273.1313353608462" style="fill: none;" fill="none"></path></g><g><path stroke="rgb(238, 51, 119)" stroke-width="2px" d="M3.950167951045229,373.80441766239045L20.032567724324522,373.92765627802805L36.11496749760382,373.7425370002481L52.19736727088312,373.21478220430953L68.27976704416243,372.4133492232691L84.36216681744172,371.51429035029776L100.44456659072101,369.1653985237665L116.52696636400032,364.6858457308583L132.60936613727958,365.9005402099488L148.6917659105589,363.20509255040594L164.7741656838382,363.2970289597552L180.85656545711748,358.6509934627532L196.93896523039678,350.87582296256477L213.02136500367607,353.35336142881306" style="fill: none;" fill="none"></path></g><g><path stroke="rgb(255, 112, 67)" stroke-width="2px" d="M3.950167951045229,373.58510117658443L20.032567724324522,373.36630739942547L36.11496749760382,373.23331825710204L52.19736727088312,373.65198777923143L68.27976704416243,374.2387081313959L84.36216681744172,374.15330558013517L100.44456659072101,373.9277567989217L116.52696636400032,373.27790932553336L132.60936613727958,369.39410366104113L148.6917659105589,369.1676501917847L164.7741656838382,368.37729461322647L180.85656545711748,364.561300343603L196.93896523039678,361.65313036887875L213.02136500367607,363.8488484576379L229.10376477695536,373.18615385379275L245.18616455023465,364.2873809083562L261.268564323514,354.25634061663743L277.3509640967933,354.77858686760294L293.4333638700726,357.540076754286" style="fill: none;" fill="none"></path></g><g><path stroke="rgb(0, 119, 187)" stroke-width="2px" d="M3.950167951045229,373.6893614474974L20.032567724324522,373.4726987132843L36.11496749760382,373.73246480670247L52.19736727088312,373.2890068321944L68.27976704416243,372.7205209701414L84.36216681744172,372.52522897792215L100.44456659072101,371.70371192232676L116.52696636400032,371.28345417007733L132.60936613727958,368.99817196505956L148.6917659105589,369.84415580617383L164.7741656838382,368.80810705931106L180.85656545711748,366.2825196058892L196.93896523039678,363.5376558750189L213.02136500367607,348.2352597109649L229.10376477695536,359.88440493224476L245.18616455023465,360.8497874908586L261.268564323514,359.0619429802489L277.3509640967933,358.7207348587804L293.4333638700726,348.28367057335566L309.5157636433519,348.7853100411191L325.59816341663117,347.220883268777L341.68056318991046,345.421358230323L357.76296296318975,336.86865861760856L373.84536273646904,340.59732033481276L389.92776250974833,324.67726348752313L406.0101622830276,329.4164014362409L422.092562056307,330.53101731359504L438.17496182958627,331.9495681650454L454.25736160286556,333.19084036842185L470.33976137614485,326.0637682780719" style="fill: none;" fill="none"></path></g><g><path stroke="rgb(204, 51, 17)" stroke-width="2px" d="M3.950167951045229,374.03149436118764L20.032567724324522,373.61258358891337L36.11496749760382,374.0263476914318L52.19736727088312,373.76553618071944L68.27976704416243,373.90011355316284L84.36216681744172,371.9731079173584L100.44456659072101,373.60003858138356L116.52696636400032,373.0263256328598L132.60936613727958,372.80216403997895L148.6917659105589,370.26915814460443L164.7741656838382,366.0132643401087L180.85656545711748,369.9750139055516L196.93896523039678,366.8084047132055L213.02136500367607,368.2831065358591L229.10376477695536,367.24070486851645L245.18616455023465,364.2409603596601L261.268564323514,362.68867651127323L277.3509640967933,364.0279364817978L293.4333638700726,363.2213568310015L309.5157636433519,348.68430664716095L325.59816341663117,349.4427769982475L341.68056318991046,350.0822507154092L357.76296296318975,351.61113329975007L373.84536273646904,342.84430407934286L389.92776250974833,344.5555516689772L406.0101622830276,337.3473793216155" style="fill: none;" fill="none"></path></g><g><path stroke="rgb(51, 187, 238)" stroke-width="2px" d="M3.950167951045229,373.7768347291678L20.032567724324522,373.72866511692183L36.11496749760382,373.20816792950615L52.19736727088312,372.94245099918277L68.27976704416243,372.4064936983209L84.36216681744172,372.42800516956595L100.44456659072101,371.06482122634833L116.52696636400032,369.2770370282748L132.60936613727958,367.4776929274293L148.6917659105589,364.1518988478698L164.7741656838382,360.1008063121344L180.85656545711748,357.23565927990023L196.93896523039678,352.7557446117749" style="fill: none;" fill="none"></path></g><g><path stroke="rgb(187, 187, 187)" stroke-width="2px" d="M3.950167951045229,373.97532328580564L20.032567724324522,373.96064723533004L36.11496749760382,373.93519534505316L52.19736727088312,374.34214413098084L68.27976704416243,373.7246241769963L84.36216681744172,373.9409049318135L100.44456659072101,373.8118562085219L116.52696636400032,373.8061466217615L132.60936613727958,373.3747109461362L148.6917659105589,371.4571743785153L164.7741656838382,370.1812827793594L180.85656545711748,368.5852723422267L196.93896523039678,370.61100959979234L213.02136500367607,365.6559326672958L229.10376477695536,364.09988933748576L245.18616455023465,360.9629137045932L261.268564323514,356.7261992866094L277.3509640967933,362.0452623750797L293.4333638700726,351.8039122696276L309.5157636433519,351.07931745970734L325.59816341663117,342.4072191294934L341.68056318991046,353.9227921872665L357.76296296318975,324.9743630408498L373.84536273646904,338.6254622762534L389.92776250974833,341.3443715123786L406.0101622830276,338.34088762627783" style="fill: none;" fill="none"></path></g><g><path stroke="rgb(255, 112, 67)" stroke-width="2px" d="M3.950167951045229,373.49117445354057L20.032567724324522,373.8938812577554L36.11496749760382,373.6461173590412L52.19736727088312,373.56950033388705L68.27976704416243,373.66348736946713L84.36216681744172,373.8836080224225L100.44456659072101,373.0050353075808L116.52696636400032,372.04397514739475L132.60936613727958,371.34388733135086L148.6917659105589,367.5518773469567L164.7741656838382,364.7700822397525L180.85656545711748,362.9533681284812L196.93896523039678,365.2345892893948L213.02136500367607,360.93360181199944L229.10376477695536,360.2274023256205L245.18616455023465,348.0319863597884L261.268564323514,340.65063661681455L277.3509640967933,318.4065690986929L293.4333638700726,351.6526082204777L309.5157636433519,340.33590569873843L325.59816341663117,345.38052664331485L341.68056318991046,342.29871687686756L357.76296296318975,313.26818226450246" style="fill: none;" fill="none"></path></g><g><path stroke="rgb(0, 119, 187)" stroke-width="2px" d="M3.950167951045229,374.1128358683442L20.032567724324522,374.0037304903564L36.11496749760382,373.78194119056616L52.19736727088312,373.71344625362036L68.27976704416243,373.77603056201843L84.36216681744172,373.3915984562725L100.44456659072101,372.7331664985649L116.52696636400032,372.3065357216569L132.60936613727958,371.4608735474023L148.6917659105589,369.5385521852428L164.7741656838382,368.4525043458693L180.85656545711748,367.0400048522178L196.93896523039678,367.3811928695076" style="fill: none;" fill="none"></path></g><g><path stroke="rgb(204, 51, 17)" stroke-width="2px" d="M3.950167951045229,374.089293875047L20.032567724324522,373.31707226570666L36.11496749760382,373.5581414729025L52.19736727088312,373.8813965627618L68.27976704416243,373.9364820124921L84.36216681744172,373.2562772292159L100.44456659072101,372.3473271003076L116.52696636400032,373.39296554042636L132.60936613727958,372.41379151520124L148.6917659105589,370.80658305051384L164.7741656838382,368.3438412598136L180.85656545711748,366.2631592817687L196.93896523039678,366.04908998661216L213.02136500367607,365.848209032705" style="fill: none;" fill="none"></path></g><g><path stroke="rgb(0, 153, 136)" stroke-width="2px" d="M3.950167951045229,373.9664372388053L20.032567724324522,373.94309628729553L36.11496749760382,373.98229943582623L52.19736727088312,373.83937882920833L68.27976704416243,373.6512841329758L84.36216681744172,373.8059053716167L100.44456659072101,372.8102861281874L116.52696636400032,371.1510882572946L132.60936613727958,371.989894906601L148.6917659105589,369.9730638002144L164.7741656838382,368.56725899808123L180.85656545711748,358.91226736957645L196.93896523039678,354.93469581547015L213.02136500367607,359.3449897126407" style="fill: none;" fill="none"></path></g><g><path stroke="rgb(187, 187, 187)" stroke-width="2px" d="M3.950167951045229,373.9960506940801L20.032567724324522,373.74872908729805L36.11496749760382,373.5012064387287L52.19736727088312,373.8664390537839L68.27976704416243,373.90234511700226L84.36216681744172,373.9729107843576L100.44456659072101,374.06993355092646L116.52696636400032,373.8890562548593L132.60936613727958,371.12455074136614L148.6917659105589,370.8034467986314L164.7741656838382,370.87387173673557L180.85656545711748,371.16743295460515L196.93896523039678,371.3587041110776L213.02136500367607,371.886318177765L229.10376477695536,352.86593561541434L245.18616455023465,361.74711740445883" style="fill: none;" fill="none"></path></g><g><path stroke="rgb(255, 112, 67)" stroke-width="2px" d="M3.950167951045229,373.88485448150396L20.032567724324522,373.6622409103856L36.11496749760382,373.5204059294193L52.19736727088312,373.2263823154389L68.27976704416243,373.4839168450177L84.36216681744172,372.14186239364915L100.44456659072101,372.7019648131702L116.52696636400032,372.14320937362425L132.60936613727958,371.9503499870318L148.6917659105589,372.3873947285239L164.7741656838382,369.48758809215286L180.85656545711748,371.1224398025991L196.93896523039678,367.2658149877548L213.02136500367607,366.9734198122518L229.10376477695536,366.87044620877776L245.18616455023465,364.24664984224177L261.268564323514,352.95871640027036L277.3509640967933,360.359486779901L293.4333638700726,362.33594869539036" style="fill: none;" fill="none"></path></g><g><path stroke="rgb(0, 119, 187)" stroke-width="2px" d="M3.950167951045229,373.61314650591794L20.032567724324522,373.6162626536217L36.11496749760382,373.6623012229219L52.19736727088312,373.04490189400974L68.27976704416243,373.119247146967L84.36216681744172,373.1608225885883L100.44456659072101,372.15135156601144L116.52696636400032,371.46431136196577L132.60936613727958,372.6486686353471L148.6917659105589,370.9793382583726L164.7741656838382,371.60900113631226L180.85656545711748,371.12794834757216L196.93896523039678,368.43849173329187L213.02136500367607,362.23802124077844L229.10376477695536,357.38477197356815L245.18616455023465,357.2147308298385L261.268564323514,364.6771205172879L277.3509640967933,359.7688260087047L293.4333638700726,367.6007707096371L309.5157636433519,365.6628284006015L325.59816341663117,361.0031019578819L341.68056318991046,363.7279620309122L357.76296296318975,359.44506831437707L373.84536273646904,360.54951147729196" style="fill: none;" fill="none"></path></g></g></g></g></g></g><g transform="translate(40, 377)" clip-path="url(#clip_1)"><clipPath id="clip_1"><rect width="499" height="23"></rect></clipPath><g><g><line x1="3.950167951045229" y1="0" x2="3.950167951045229" y2="5" style="visibility: inherit;" fill="rgb(0, 0, 0)" stroke="rgb(204, 204, 204)" stroke-width="1px"></line><line x1="36.11496749760382" y1="0" x2="36.11496749760382" y2="5" style="visibility: inherit;" fill="rgb(0, 0, 0)" stroke="rgb(204, 204, 204)" stroke-width="1px"></line><line x1="68.27976704416243" y1="0" x2="68.27976704416243" y2="5" style="visibility: inherit;" fill="rgb(0, 0, 0)" stroke="rgb(204, 204, 204)" stroke-width="1px"></line><line x1="100.44456659072101" y1="0" x2="100.44456659072101" y2="5" style="visibility: inherit;" fill="rgb(0, 0, 0)" stroke="rgb(204, 204, 204)" stroke-width="1px"></line><line x1="132.60936613727958" y1="0" x2="132.60936613727958" y2="5" style="visibility: inherit;" fill="rgb(0, 0, 0)" stroke="rgb(204, 204, 204)" stroke-width="1px"></line><line x1="164.7741656838382" y1="0" x2="164.7741656838382" y2="5" style="visibility: inherit;" fill="rgb(0, 0, 0)" stroke="rgb(204, 204, 204)" stroke-width="1px"></line><line x1="196.93896523039678" y1="0" x2="196.93896523039678" y2="5" style="visibility: inherit;" fill="rgb(0, 0, 0)" stroke="rgb(204, 204, 204)" stroke-width="1px"></line><line x1="229.10376477695536" y1="0" x2="229.10376477695536" y2="5" style="visibility: inherit;" fill="rgb(0, 0, 0)" stroke="rgb(204, 204, 204)" stroke-width="1px"></line><line x1="261.268564323514" y1="0" x2="261.268564323514" y2="5" style="visibility: inherit;" fill="rgb(0, 0, 0)" stroke="rgb(204, 204, 204)" stroke-width="1px"></line><line x1="293.4333638700726" y1="0" x2="293.4333638700726" y2="5" style="visibility: inherit;" fill="rgb(0, 0, 0)" stroke="rgb(204, 204, 204)" stroke-width="1px"></line><line x1="325.59816341663117" y1="0" x2="325.59816341663117" y2="5" style="visibility: inherit;" fill="rgb(0, 0, 0)" stroke="rgb(204, 204, 204)" stroke-width="1px"></line><line x1="357.76296296318975" y1="0" x2="357.76296296318975" y2="5" style="visibility: inherit;" fill="rgb(0, 0, 0)" stroke="rgb(204, 204, 204)" stroke-width="1px"></line><line x1="389.92776250974833" y1="0" x2="389.92776250974833" y2="5" style="visibility: inherit;" fill="rgb(0, 0, 0)" stroke="rgb(204, 204, 204)" stroke-width="1px"></line><line x1="422.092562056307" y1="0" x2="422.092562056307" y2="5" style="visibility: inherit;" fill="rgb(0, 0, 0)" stroke="rgb(204, 204, 204)" stroke-width="1px"></line><line x1="454.25736160286556" y1="0" x2="454.25736160286556" y2="5" style="visibility: inherit;" fill="rgb(0, 0, 0)" stroke="rgb(204, 204, 204)" stroke-width="1px"></line><line x1="486.42216114942414" y1="0" x2="486.42216114942414" y2="5" style="visibility: inherit;" fill="rgb(0, 0, 0)" stroke="rgb(204, 204, 204)" stroke-width="1px"></line></g><g transform="translate(0, 8)"><text x="3.950167951045229" y="0" dx="0em" dy="0.95em" style="text-anchor: middle; visibility: inherit; font-family: Roboto, sans-serif; font-size: 12px; font-weight: 200;" fill="rgb(33, 33, 33)" stroke="none" stroke-width="1px">0</text><text x="36.11496749760382" y="0" dx="0em" dy="0.95em" style="text-anchor: middle; visibility: inherit; font-family: Roboto, sans-serif; font-size: 12px; font-weight: 200;" fill="rgb(33, 33, 33)" stroke="none" stroke-width="1px">2</text><text x="68.27976704416243" y="0" dx="0em" dy="0.95em" style="text-anchor: middle; visibility: inherit; font-family: Roboto, sans-serif; font-size: 12px; font-weight: 200;" fill="rgb(33, 33, 33)" stroke="none" stroke-width="1px">4</text><text x="100.44456659072101" y="0" dx="0em" dy="0.95em" style="text-anchor: middle; visibility: inherit; font-family: Roboto, sans-serif; font-size: 12px; font-weight: 200;" fill="rgb(33, 33, 33)" stroke="none" stroke-width="1px">6</text><text x="132.60936613727958" y="0" dx="0em" dy="0.95em" style="text-anchor: middle; visibility: inherit; font-family: Roboto, sans-serif; font-size: 12px; font-weight: 200;" fill="rgb(33, 33, 33)" stroke="none" stroke-width="1px">8</text><text x="164.7741656838382" y="0" dx="0em" dy="0.95em" style="text-anchor: middle; visibility: inherit; font-family: Roboto, sans-serif; font-size: 12px; font-weight: 200;" fill="rgb(33, 33, 33)" stroke="none" stroke-width="1px">10</text><text x="196.93896523039678" y="0" dx="0em" dy="0.95em" style="text-anchor: middle; visibility: inherit; font-family: Roboto, sans-serif; font-size: 12px; font-weight: 200;" fill="rgb(33, 33, 33)" stroke="none" stroke-width="1px">12</text><text x="229.10376477695536" y="0" dx="0em" dy="0.95em" style="text-anchor: middle; visibility: inherit; font-family: Roboto, sans-serif; font-size: 12px; font-weight: 200;" fill="rgb(33, 33, 33)" stroke="none" stroke-width="1px">14</text><text x="261.268564323514" y="0" dx="0em" dy="0.95em" style="text-anchor: middle; visibility: inherit; font-family: Roboto, sans-serif; font-size: 12px; font-weight: 200;" fill="rgb(33, 33, 33)" stroke="none" stroke-width="1px">16</text><text x="293.4333638700726" y="0" dx="0em" dy="0.95em" style="text-anchor: middle; visibility: inherit; font-family: Roboto, sans-serif; font-size: 12px; font-weight: 200;" fill="rgb(33, 33, 33)" stroke="none" stroke-width="1px">18</text><text x="325.59816341663117" y="0" dx="0em" dy="0.95em" style="text-anchor: middle; visibility: inherit; font-family: Roboto, sans-serif; font-size: 12px; font-weight: 200;" fill="rgb(33, 33, 33)" stroke="none" stroke-width="1px">20</text><text x="357.76296296318975" y="0" dx="0em" dy="0.95em" style="text-anchor: middle; visibility: inherit; font-family: Roboto, sans-serif; font-size: 12px; font-weight: 200;" fill="rgb(33, 33, 33)" stroke="none" stroke-width="1px">22</text><text x="389.92776250974833" y="0" dx="0em" dy="0.95em" style="text-anchor: middle; visibility: inherit; font-family: Roboto, sans-serif; font-size: 12px; font-weight: 200;" fill="rgb(33, 33, 33)" stroke="none" stroke-width="1px">24</text><text x="422.092562056307" y="0" dx="0em" dy="0.95em" style="text-anchor: middle; visibility: inherit; font-family: Roboto, sans-serif; font-size: 12px; font-weight: 200;" fill="rgb(33, 33, 33)" stroke="none" stroke-width="1px">26</text><text x="454.25736160286556" y="0" dx="0em" dy="0.95em" style="text-anchor: middle; visibility: inherit; font-family: Roboto, sans-serif; font-size: 12px; font-weight: 200;" fill="rgb(33, 33, 33)" stroke="none" stroke-width="1px">28</text><text x="486.42216114942414" y="0" dx="0em" dy="0.95em" style="text-anchor: middle; visibility: inherit; font-family: Roboto, sans-serif; font-size: 12px; font-weight: 200;" fill="rgb(33, 33, 33)" stroke="none" stroke-width="1px">30</text></g><line x1="0" y1="0" x2="499" y2="0" fill="rgb(0, 0, 0)" stroke="rgb(204, 204, 204)" stroke-width="1px"></line></g></g></g></g></svg>