<?xml version="1.0" encoding="utf-8"?>
<!-- Generator: Adobe Illustrator 25.4.1, SVG Export Plug-In . SVG Version: 6.00 Build 0)  -->
<svg version="1.1" id="Layer_1" xmlns="http://www.w3.org/2000/svg" xmlns:xlink="http://www.w3.org/1999/xlink" x="0px" y="0px"
	 viewBox="0 0 539 419" style="enable-background:new 0 0 539 419;" xml:space="preserve">
<style type="text/css">
	.st0{fill:none;stroke:#CCCCCC;}
	.st1{display:none;fill:#212121;enable-background:new    ;}
	.st2{font-family:'ArialMT';}
	.st3{font-size:12px;}
	.st4{fill:#212121;}
	.st5{clip-path:url(#SVGID_00000089555048582176006860000000059066691608234129_);}
	.st6{opacity:0.25;fill:none;stroke:#424242;enable-background:new    ;}
	.st7{fill:none;stroke:#999999;stroke-width:1.5;}
	.st8{fill:none;stroke:#009988;stroke-width:2;}
	.st9{fill:none;stroke:#0077BB;stroke-width:2;}
	.st10{fill:none;stroke:#CC3311;stroke-width:2;}
	.st11{fill:none;stroke:#33BBEE;stroke-width:2;}
	.st12{fill:none;stroke:#BBBBBB;stroke-width:2;}
	.st13{fill:none;stroke:#FF7043;stroke-width:2;}
	.st14{fill:none;stroke:#EE3377;stroke-width:2;}
	.st15{clip-path:url(#SVGID_00000059997631370537925290000002652617747792463785_);}
	.st16{font-size:16px;}
</style>
<g>
	<g>
		<g>
			<g>
				<g>
					<line class="st0" x1="50" y1="375.5" x2="45" y2="375.5"/>
					<line class="st0" x1="50" y1="341.9" x2="45" y2="341.9"/>
					<line class="st0" x1="50" y1="308.3" x2="45" y2="308.3"/>
					<line class="st0" x1="50" y1="274.7" x2="45" y2="274.7"/>
					<line class="st0" x1="50" y1="241.1" x2="45" y2="241.1"/>
					<line class="st0" x1="50" y1="207.4" x2="45" y2="207.4"/>
					<line class="st0" x1="50" y1="173.8" x2="45" y2="173.8"/>
					<line class="st0" x1="50" y1="140.2" x2="45" y2="140.2"/>
					<line class="st0" x1="50" y1="106.6" x2="45" y2="106.6"/>
					<line class="st0" x1="50" y1="73" x2="45" y2="73"/>
					<line class="st0" x1="50" y1="39.4" x2="45" y2="39.4"/>
					<line class="st0" x1="50" y1="5.8" x2="45" y2="5.8"/>
				</g>
				<g transform="translate(40, 0)">
					<text transform="matrix(1 0 0 1 -23.3555 379.1028)" class="st1 st2 st3">0.45</text>
					<text transform="matrix(1 0 0 1 -23.3555 345.4906)" class="st4 st2 st3">0.46</text>
					<text transform="matrix(1 0 0 1 -23.3555 311.8784)" class="st4 st2 st3">0.47</text>
					<text transform="matrix(1 0 0 1 -23.3555 278.2662)" class="st4 st2 st3">0.48</text>
					<text transform="matrix(1 0 0 1 -23.3555 244.6541)" class="st4 st2 st3">0.49</text>
					<text transform="matrix(1 0 0 1 -16.6816 211.0419)" class="st4 st2 st3">0.5</text>
					<text transform="matrix(1 0 0 1 -23.3555 177.4297)" class="st4 st2 st3">0.51</text>
					<text transform="matrix(1 0 0 1 -23.3555 143.8175)" class="st4 st2 st3">0.52</text>
					<text transform="matrix(1 0 0 1 -23.3555 110.2054)" class="st4 st2 st3">0.53</text>
					<text transform="matrix(1 0 0 1 -23.3555 76.5932)" class="st4 st2 st3">0.54</text>
					<text transform="matrix(1 0 0 1 -23.3555 42.981)" class="st4 st2 st3">0.55</text>
					<text transform="matrix(1 0 0 1 -23.3555 9.3688)" class="st1 st2 st3">0.56</text>
				</g>
				<line class="st0" x1="50" y1="0" x2="50" y2="377"/>
			</g>
		</g>
		<g>
			<defs>
				<rect id="SVGID_1_" x="50" width="489" height="377"/>
			</defs>
			<clipPath id="SVGID_00000092417728561201641800000013501395110912714642_">
				<use xlink:href="#SVGID_1_"  style="overflow:visible;"/>
			</clipPath>
			<g transform="translate(50, 0)" style="clip-path:url(#SVGID_00000092417728561201641800000013501395110912714642_);">
				<g>
					<g>
						<g>
							<line class="st6" x1="3.1" y1="0" x2="3.1" y2="377"/>
							<line class="st6" x1="35" y1="0" x2="35" y2="377"/>
							<line class="st6" x1="66.9" y1="0" x2="66.9" y2="377"/>
							<line class="st6" x1="98.9" y1="0" x2="98.9" y2="377"/>
							<line class="st6" x1="130.8" y1="0" x2="130.8" y2="377"/>
							<line class="st6" x1="162.7" y1="0" x2="162.7" y2="377"/>
							<line class="st6" x1="194.6" y1="0" x2="194.6" y2="377"/>
							<line class="st6" x1="226.5" y1="0" x2="226.5" y2="377"/>
							<line class="st6" x1="258.5" y1="0" x2="258.5" y2="377"/>
							<line class="st6" x1="290.4" y1="0" x2="290.4" y2="377"/>
							<line class="st6" x1="322.3" y1="0" x2="322.3" y2="377"/>
							<line class="st6" x1="354.2" y1="0" x2="354.2" y2="377"/>
							<line class="st6" x1="386.1" y1="0" x2="386.1" y2="377"/>
							<line class="st6" x1="418.1" y1="0" x2="418.1" y2="377"/>
							<line class="st6" x1="450" y1="0" x2="450" y2="377"/>
							<line class="st6" x1="481.9" y1="0" x2="481.9" y2="377"/>
						</g>
						<g>
							<line class="st6" x1="0" y1="375.5" x2="489" y2="375.5"/>
							<line class="st6" x1="0" y1="341.9" x2="489" y2="341.9"/>
							<line class="st6" x1="0" y1="308.3" x2="489" y2="308.3"/>
							<line class="st6" x1="0" y1="274.7" x2="489" y2="274.7"/>
							<line class="st6" x1="0" y1="241.1" x2="489" y2="241.1"/>
							<line class="st6" x1="0" y1="207.4" x2="489" y2="207.4"/>
							<line class="st6" x1="0" y1="173.8" x2="489" y2="173.8"/>
							<line class="st6" x1="0" y1="140.2" x2="489" y2="140.2"/>
							<line class="st6" x1="0" y1="106.6" x2="489" y2="106.6"/>
							<line class="st6" x1="0" y1="73" x2="489" y2="73"/>
							<line class="st6" x1="0" y1="39.4" x2="489" y2="39.4"/>
							<line class="st6" x1="0" y1="5.8" x2="489" y2="5.8"/>
						</g>
					</g>
				</g>
				<g>
					<g>
						<line class="st7" x1="0" y1="1888.1" x2="489" y2="1888.1"/>
					</g>
				</g>
				<g>
					<g>
						<line class="st7" x1="3.1" y1="0" x2="3.1" y2="377"/>
					</g>
				</g>
				<g>
					<g>
						<g>
							<g>
								<g>
									<path class="st8" d="M3.1,197.2l16,10.2l16,30.6l16-81.7l16,61.3l16-46l16,91.9l16-255.4l16,194.1l16-61.3l16-5.1l16,81.7
										l16-76.6l16,35.8l16-5.1l16-10.2"/>
								</g>
								<g>
									<path class="st9" d="M3.1,187l16,30.6l16-10.2L51,233h16l16,20.4h16l16-5.1l16,20.4"/>
								</g>
								<g>
									<path class="st10" d="M3.1,212.6l16-56.2l16,25.5l16,15.3l16-10.2l16,25.5l16,66.4l16-127.7l16,30.6l16,35.8l16-5.1
										l16-40.9l16-61.3l16,40.9l16,10.2l16-46l16,66.4h16l16,15.3l16-30.6l16-15.3"/>
								</g>
								<g>
									<path class="st11" d="M3.1,243.2l16-81.7l16,46l16,5.1l16-15.3l16-40.9l16-25.5l16,102.2l16-40.9l16,51.1l16,5.1l16-46
										l16,15.3l16,46l16-35.8"/>
								</g>
								<g>
									<path class="st12" d="M3.1,217.7l16,51.1l16-66.4L51,90l16,137.9l16-56.2l16-35.8l16,61.3l16-30.6l16,86.8l16-132.8
										l16,10.2"/>
								</g>
								<g>
									<path class="st13" d="M3.1,227.9h16l16-5.1h16l16-61.3l16,25.5l16-5.1l16,97.1l16-5.1l16-199.2l16,10.2l16,66.4l16-5.1
										l16,66.4l16-35.8l16-20.4l16,40.9l16,20.4"/>
								</g>
								<g>
									<path class="st13" d="M3.1,243.2l16-117.5l16,97.1l16-51.1l16,20.4l16,20.4l16,20.4l16-112.4l16,15.3l16-56.2l16-5.1
										l16,158.4l16-107.3l16,40.9l16-15.3l16-46l16-25.5l16-56.2l16,51.1l16,56.2l16-46l16,153.2l16-86.8l16-51.1l16,56.2
										l16,40.9"/>
								</g>
								<g>
									<path class="st11" d="M3.1,166.6l16,76.6l16,51.1l16-143l16-5.1l16,91.9l16-30.6l16-15.3l16-5.1l16,46h16l16-56.2l16-40.9
										h16l16,25.5l16-81.7l16,35.8l16,40.9l16,127.7l16-127.7l16,40.9l16-35.8l16,97.1l16-122.6"/>
								</g>
								<g>
									<path class="st14" d="M3.1,227.9l16-46l16,86.8l16-56.2l16-56.2l16,173.7l16-76.6l16-66.4l16,112.4l16-56.2l16-10.2l16-46
										l16-51.1l16,46l16,46h16l16-35.8l16-71.5l16,61.3l16-51.1l16-5.1l16,10.2l16,5.1l16,15.3l16-81.7l16,199.2l16-127.7
										l16,25.5l16-5.1l16,20.4"/>
								</g>
								<g>
									<path class="st13" d="M3.1,202.3l16,10.2l16-40.9L51,187l16,20.4l16-91.9l16,20.4l16,25.5l16,40.9l16,20.4l16-46l16-5.1
										l16,66.4l16-40.9"/>
								</g>
								<g>
									<path class="st12" d="M3.1,151.3l16,35.8l16-5.1l16-46l16,20.4l16-71.5l16,71.5l16-46l16-81.7l16,46l16,97.1l16,10.2
										l16-71.5l16,81.7l16-35.8l16,5.1l16-30.6"/>
								</g>
								<g>
									<path class="st10" d="M3.1,294.3l16-81.7l16-112.4l16,107.3l16-20.4l16-10.2l16,61.3l16-61.3l16-30.6l16,15.3l16,102.2"/>
								</g>
								<g>
									<path class="st11" d="M3.1,238.1l16-61.3l16,30.6l16-15.3l16-66.4l16,56.2l16,61.3l16-40.9l16-51.1l16,35.8l16-15.3
										l16-76.6l16,40.9l16-25.5l16,30.6l16,20.4l16,30.6h16l16-30.6l16,46"/>
								</g>
								<g>
									<path class="st8" d="M3.1,207.4l16,15.3l16,20.4l16-25.5h16l16-15.3l16,15.3l16-86.8l16,56.2l16,76.6l16-71.5l16,30.6
										l16-25.5l16,10.2h16l16-25.5"/>
								</g>
								<g>
									<path class="st14" d="M3.1,202.3l16,5.1l16-56.2l16-35.8l16,35.8l16,15.3h16l16,30.6l16-117.5l16,30.6l16,51.1l16,25.5
										l16-46l16,86.8l16-46l16,35.8l16-25.5"/>
								</g>
								<g>
									<path class="st13" d="M3.1,227.9l16,40.9l16-20.4l16-46l16,20.4l16,51.1l16-76.6h16h16l16-20.4l16-56.2l16,46l16-56.2
										l16-10.2l16,46l16,35.8l16-56.2l16,20.4l16,20.4l16,76.6l16-25.5l16-51.1"/>
								</g>
								<g>
									<path class="st9" d="M3.1,284.1l16-112.4l16,46l16,56.2l16-51.1l16-91.9l16,51.1l16-5.1l16-5.1l16-56.2l16,30.6l16-25.5
										l16,25.5l16,35.8l16-46l16,10.2l16-71.5l16,61.3l16,30.6l16-35.8l16-30.6l16,35.8l16-46l16,5.1h16"/>
								</g>
								<g>
									<path class="st9" d="M3.1,130.8l16,46l16,15.3l16,35.8l16-66.4l16,76.6l16-46l16,112.4l16-102.2"/>
								</g>
								<g>
									<path class="st14" d="M3.1,187l16-35.8l16,102.2l16-51.1h16l16,20.4l16-15.3l16,40.9l16-76.6l16-15.3"/>
								</g>
								<g>
									<path class="st8" d="M3.1,151.3l16,10.2l16,61.3l16-61.3l16,40.9l16-25.5l16-56.2l16,76.6l16-5.1l16-15.3l16,30.6l16-81.7
										l16,46l16-91.9l16,112.4l16-25.5h16l16-5.1l16,40.9l16,5.1l16,5.1l16-91.9"/>
								</g>
								<g>
									<path class="st9" d="M3.1,253.4l16-56.2l16,71.5l16-46l16-20.4l16-40.9l16-20.4l16-20.4l16,97.1l16-40.9l16-25.5l16-30.6
										l16,132.8l16-51.1l16-40.9l16-20.4"/>
								</g>
								<g>
									<path class="st13" d="M3.1,284.1l16-35.8l16-71.5l16-15.3l16,35.8l16-20.4l16-5.1l16,15.3l16-15.3l16,30.6l16-81.7l16,40.9
										l16-66.4l16,76.6l16-30.6l16-30.6l16,76.6l16-66.4l16-56.2l16,102.2l16-51.1l16,76.6l16,5.1l16-76.6l16-25.5l16,107.3
										l16-25.5"/>
								</g>
								<g>
									<path class="st11" d="M3.1,181.9l16-15.3l16,51.1L51,187l16-25.5l16,20.4l16-56.2l16,20.4l16,15.3h16l16-117.5l16,76.6h16
										h16l16-20.4h16l16,117.5l16-168.6l16,71.5"/>
								</g>
								<g>
									<path class="st14" d="M3.1,217.7l16-51.1L35,187l16-25.5l16,20.4l16-46l16,56.2l16-20.4l16,25.5l16,56.2l16-97.1l16,71.5
										l16-25.5l16-40.9"/>
								</g>
								<g>
									<path class="st12" d="M3.1,212.6l16,5.1l16,10.2l16-10.2l16,10.2l16-15.3l16-40.9l16,15.3l16,5.1l16,30.6l16,15.3l16-51.1
										l16-51.1l16,30.6l16-51.1l16,15.3l16-20.4l16,15.3l16,56.2l16-81.7l16-66.4l16,112.4l16,10.2l16-56.2l16-25.5l16,20.4
										l16,76.6h16l16-51.1"/>
								</g>
								<g>
									<path class="st8" d="M3.1,227.9l16-117.5l16,25.5l16-25.5l16-20.4l16,61.3l16-10.2l16,30.6l16,5.1l16,10.2l16,5.1l16-35.8
										l16,15.3"/>
								</g>
								<g>
									<path class="st9" d="M3.1,238.1l16,15.3l16-15.3l16,25.5l16-137.9l16,51.1l16,5.1l16-20.4l16,30.6h16l16-56.2l16-40.9
										l16,61.3l16-25.5l16-5.1l16,56.2l16-25.5l16,40.9l16-40.9h16"/>
								</g>
								<g>
									<path class="st10" d="M3.1,238.1l16,5.1h16l16-71.5l16,20.4l16,51.1l16,15.3l16-122.6l16,20.4l16-20.4l16,10.2l16-5.1
										l16-30.6l16,15.3l16,25.5l16-5.1l16-5.1l16,15.3l16-15.3l16-30.6l16,102.2"/>
								</g>
								<g>
									<path class="st11" d="M3.1,253.4l16-66.4l16,46l16,25.5l16-46l16,5.1l16,5.1l16-46h16l16-25.5l16,30.6l16,40.9l16,25.5
										l16-5.1l16-46l16-51.1l16,66.4l16-91.9l16,76.6l16,46h16h16l16-61.3l16,76.6l16-56.2l16,35.8"/>
								</g>
								<g>
									<path class="st10" d="M3.1,187l16-25.5l16,86.8l16-46l16-35.8l16,71.5l16-61.3l16-51.1l16,66.4l16,25.5l16-51.1l16,20.4
										l16-122.6l16,178.8l16-86.8l16,61.3l16-132.8l16,76.6l16-66.4l16,76.6l16,10.2"/>
								</g>
								<g>
									<path class="st8" d="M3.1,202.3l16-25.5l16,46l16,5.1l16-97.1l16,25.5l16-5.1l16-51.1l16,132.8l16-20.4l16-76.6l16,15.3h16
										l16,56.2l16-20.4h16"/>
								</g>
								<g>
									<path class="st12" d="M3.1,197.2l16,76.6l16-112.4l16,66.4l16-51.1l16-66.4l16,66.4l16-97.1l16,178.8l16-117.5l16-10.2
										l16,107.3l16-117.5l16,66.4l16,20.4l16-66.4"/>
								</g>
							</g>
						</g>
					</g>
				</g>
			</g>
		</g>
		<g>
			<defs>
				<rect id="SVGID_00000104706805743168387560000000139799307892883638_" x="50" y="377" width="489" height="23"/>
			</defs>
			<clipPath id="SVGID_00000008854066173805937410000001627003935766197146_">
				<use xlink:href="#SVGID_00000104706805743168387560000000139799307892883638_"  style="overflow:visible;"/>
			</clipPath>
			<g transform="translate(50, 377)" style="clip-path:url(#SVGID_00000008854066173805937410000001627003935766197146_);">
				<g>
					<g>
						<line class="st0" x1="3.1" y1="0" x2="3.1" y2="5"/>
						<line class="st0" x1="35" y1="0" x2="35" y2="5"/>
						<line class="st0" x1="66.9" y1="0" x2="66.9" y2="5"/>
						<line class="st0" x1="98.9" y1="0" x2="98.9" y2="5"/>
						<line class="st0" x1="130.8" y1="0" x2="130.8" y2="5"/>
						<line class="st0" x1="162.7" y1="0" x2="162.7" y2="5"/>
						<line class="st0" x1="194.6" y1="0" x2="194.6" y2="5"/>
						<line class="st0" x1="226.5" y1="0" x2="226.5" y2="5"/>
						<line class="st0" x1="258.5" y1="0" x2="258.5" y2="5"/>
						<line class="st0" x1="290.4" y1="0" x2="290.4" y2="5"/>
						<line class="st0" x1="322.3" y1="0" x2="322.3" y2="5"/>
						<line class="st0" x1="354.2" y1="0" x2="354.2" y2="5"/>
						<line class="st0" x1="386.1" y1="0" x2="386.1" y2="5"/>
						<line class="st0" x1="418.1" y1="0" x2="418.1" y2="5"/>
						<line class="st0" x1="450" y1="0" x2="450" y2="5"/>
						<line class="st0" x1="481.9" y1="0" x2="481.9" y2="5"/>
					</g>
					<g transform="translate(0, 8)">
						<text transform="matrix(1 0 0 1 -0.2323 11.4)" class="st4 st2 st3">0</text>
						<text transform="matrix(1 0 0 1 31.6866 11.4)" class="st4 st2 st3">2</text>
						<text transform="matrix(1 0 0 1 63.6056 11.4)" class="st4 st2 st3">4</text>
						<text transform="matrix(1 0 0 1 95.5245 11.4)" class="st4 st2 st3">6</text>
						<text transform="matrix(1 0 0 1 127.4434 11.4)" class="st4 st2 st3">8</text>
						<text transform="matrix(1 0 0 1 156.0254 11.4)" class="st4 st2 st3">10</text>
						<text transform="matrix(1 0 0 1 187.9444 11.4)" class="st4 st2 st3">12</text>
						<text transform="matrix(1 0 0 1 219.8633 11.4)" class="st4 st2 st3">14</text>
						<text transform="matrix(1 0 0 1 251.7822 11.4)" class="st4 st2 st3">16</text>
						<text transform="matrix(1 0 0 1 283.7011 11.4)" class="st4 st2 st3">18</text>
						<text transform="matrix(1 0 0 1 315.6201 11.4)" class="st4 st2 st3">20</text>
						<text transform="matrix(1 0 0 1 347.539 11.4)" class="st4 st2 st3">22</text>
						<text transform="matrix(1 0 0 1 379.4579 11.4)" class="st4 st2 st3">24</text>
						<text transform="matrix(1 0 0 1 411.3768 11.4)" class="st4 st2 st3">26</text>
						<text transform="matrix(1 0 0 1 443.2957 11.4)" class="st4 st2 st3">28</text>
						<text transform="matrix(1 0 0 1 475.2147 11.4)" class="st4 st2 st3">30</text>
					</g>
					<line class="st0" x1="0" y1="0" x2="489" y2="0"/>
				</g>
			</g>
		</g>
	</g>
</g>
<text transform="matrix(-1.836970e-16 -1 1 -1.836970e-16 13.1927 241.0542)" class="st2 st16">Accuracy</text>
<text transform="matrix(1 0 0 1 269.5 412.0391)" class="st2 st16">Epochs</text>
</svg>
