<svg viewBox="0 0 539 400" xmlns="http://www.w3.org/2000/svg"><g><g><g><g><g><line x1="50" y1="375.5027615034582" x2="45" y2="375.5027615034582" style="visibility: inherit;" fill="rgb(0, 0, 0)" stroke="rgb(204, 204, 204)" stroke-width="1px"></line><line x1="50" y1="341.89058575412685" x2="45" y2="341.89058575412685" style="visibility: inherit;" fill="rgb(0, 0, 0)" stroke="rgb(204, 204, 204)" stroke-width="1px"></line><line x1="50" y1="308.2784100047958" x2="45" y2="308.2784100047958" style="visibility: inherit;" fill="rgb(0, 0, 0)" stroke="rgb(204, 204, 204)" stroke-width="1px"></line><line x1="50" y1="274.6662342554645" x2="45" y2="274.6662342554645" style="visibility: inherit;" fill="rgb(0, 0, 0)" stroke="rgb(204, 204, 204)" stroke-width="1px"></line><line x1="50" y1="241.05405850613317" x2="45" y2="241.05405850613317" style="visibility: inherit;" fill="rgb(0, 0, 0)" stroke="rgb(204, 204, 204)" stroke-width="1px"></line><line x1="50" y1="207.44188275680187" x2="45" y2="207.44188275680187" style="visibility: inherit;" fill="rgb(0, 0, 0)" stroke="rgb(204, 204, 204)" stroke-width="1px"></line><line x1="50" y1="173.82970700747055" x2="45" y2="173.82970700747055" style="visibility: inherit;" fill="rgb(0, 0, 0)" stroke="rgb(204, 204, 204)" stroke-width="1px"></line><line x1="50" y1="140.21753125813927" x2="45" y2="140.21753125813927" style="visibility: inherit;" fill="rgb(0, 0, 0)" stroke="rgb(204, 204, 204)" stroke-width="1px"></line><line x1="50" y1="106.60535550880796" x2="45" y2="106.60535550880796" style="visibility: inherit;" fill="rgb(0, 0, 0)" stroke="rgb(204, 204, 204)" stroke-width="1px"></line><line x1="50" y1="72.99317975947665" x2="45" y2="72.99317975947665" style="visibility: inherit;" fill="rgb(0, 0, 0)" stroke="rgb(204, 204, 204)" stroke-width="1px"></line><line x1="50" y1="39.38100401014533" x2="45" y2="39.38100401014533" style="visibility: inherit;" fill="rgb(0, 0, 0)" stroke="rgb(204, 204, 204)" stroke-width="1px"></line><line x1="50" y1="5.7688282608140575" x2="45" y2="5.7688282608140575" style="visibility: inherit;" fill="rgb(0, 0, 0)" stroke="rgb(204, 204, 204)" stroke-width="1px"></line></g><g transform="translate(40, 0)"><text x="0" y="375.5027615034582" dx="0em" dy="0.3em" style="text-anchor: end; visibility: hidden; font-family: Roboto, sans-serif; font-size: 12px; font-weight: 200;" fill="rgb(33, 33, 33)" stroke="none" stroke-width="1px">0.45</text><text x="0" y="341.89058575412685" dx="0em" dy="0.3em" style="text-anchor: end; visibility: inherit; font-family: Roboto, sans-serif; font-size: 12px; font-weight: 200;" fill="rgb(33, 33, 33)" stroke="none" stroke-width="1px">0.46</text><text x="0" y="308.2784100047958" dx="0em" dy="0.3em" style="text-anchor: end; visibility: inherit; font-family: Roboto, sans-serif; font-size: 12px; font-weight: 200;" fill="rgb(33, 33, 33)" stroke="none" stroke-width="1px">0.47</text><text x="0" y="274.6662342554645" dx="0em" dy="0.3em" style="text-anchor: end; visibility: inherit; font-family: Roboto, sans-serif; font-size: 12px; font-weight: 200;" fill="rgb(33, 33, 33)" stroke="none" stroke-width="1px">0.48</text><text x="0" y="241.05405850613317" dx="0em" dy="0.3em" style="text-anchor: end; visibility: inherit; font-family: Roboto, sans-serif; font-size: 12px; font-weight: 200;" fill="rgb(33, 33, 33)" stroke="none" stroke-width="1px">0.49</text><text x="0" y="207.44188275680187" dx="0em" dy="0.3em" style="text-anchor: end; visibility: inherit; font-family: Roboto, sans-serif; font-size: 12px; font-weight: 200;" fill="rgb(33, 33, 33)" stroke="none" stroke-width="1px">0.5</text><text x="0" y="173.82970700747055" dx="0em" dy="0.3em" style="text-anchor: end; visibility: inherit; font-family: Roboto, sans-serif; font-size: 12px; font-weight: 200;" fill="rgb(33, 33, 33)" stroke="none" stroke-width="1px">0.51</text><text x="0" y="140.21753125813927" dx="0em" dy="0.3em" style="text-anchor: end; visibility: inherit; font-family: Roboto, sans-serif; font-size: 12px; font-weight: 200;" fill="rgb(33, 33, 33)" stroke="none" stroke-width="1px">0.52</text><text x="0" y="106.60535550880796" dx="0em" dy="0.3em" style="text-anchor: end; visibility: inherit; font-family: Roboto, sans-serif; font-size: 12px; font-weight: 200;" fill="rgb(33, 33, 33)" stroke="none" stroke-width="1px">0.53</text><text x="0" y="72.99317975947665" dx="0em" dy="0.3em" style="text-anchor: end; visibility: inherit; font-family: Roboto, sans-serif; font-size: 12px; font-weight: 200;" fill="rgb(33, 33, 33)" stroke="none" stroke-width="1px">0.54</text><text x="0" y="39.38100401014533" dx="0em" dy="0.3em" style="text-anchor: end; visibility: inherit; font-family: Roboto, sans-serif; font-size: 12px; font-weight: 200;" fill="rgb(33, 33, 33)" stroke="none" stroke-width="1px">0.55</text><text x="0" y="5.7688282608140575" dx="0em" dy="0.3em" style="text-anchor: end; visibility: hidden; font-family: Roboto, sans-serif; font-size: 12px; font-weight: 200;" fill="rgb(33, 33, 33)" stroke="none" stroke-width="1px">0.56</text></g><line x1="50" y1="0" x2="50" y2="377" fill="rgb(0, 0, 0)" stroke="rgb(204, 204, 204)" stroke-width="1px"></line></g></g><g transform="translate(50, 0)" clip-path="url(#clip_0)"><clipPath id="clip_0"><rect width="489" height="377"></rect></clipPath><g><g><g><line x1="3.104614036713096" y1="0" x2="3.104614036713096" y2="377" fill="rgb(0, 0, 0)" stroke="rgb(66, 66, 66)" stroke-width="1px" opacity="0.25"></line><line x1="35.02354063484791" y1="0" x2="35.02354063484791" y2="377" fill="rgb(0, 0, 0)" stroke="rgb(66, 66, 66)" stroke-width="1px" opacity="0.25"></line><line x1="66.94246723298272" y1="0" x2="66.94246723298272" y2="377" fill="rgb(0, 0, 0)" stroke="rgb(66, 66, 66)" stroke-width="1px" opacity="0.25"></line><line x1="98.86139383111754" y1="0" x2="98.86139383111754" y2="377" fill="rgb(0, 0, 0)" stroke="rgb(66, 66, 66)" stroke-width="1px" opacity="0.25"></line><line x1="130.78032042925236" y1="0" x2="130.78032042925236" y2="377" fill="rgb(0, 0, 0)" stroke="rgb(66, 66, 66)" stroke-width="1px" opacity="0.25"></line><line x1="162.69924702738714" y1="0" x2="162.69924702738714" y2="377" fill="rgb(0, 0, 0)" stroke="rgb(66, 66, 66)" stroke-width="1px" opacity="0.25"></line><line x1="194.61817362552196" y1="0" x2="194.61817362552196" y2="377" fill="rgb(0, 0, 0)" stroke="rgb(66, 66, 66)" stroke-width="1px" opacity="0.25"></line><line x1="226.53710022365678" y1="0" x2="226.53710022365678" y2="377" fill="rgb(0, 0, 0)" stroke="rgb(66, 66, 66)" stroke-width="1px" opacity="0.25"></line><line x1="258.4560268217916" y1="0" x2="258.4560268217916" y2="377" fill="rgb(0, 0, 0)" stroke="rgb(66, 66, 66)" stroke-width="1px" opacity="0.25"></line><line x1="290.37495341992644" y1="0" x2="290.37495341992644" y2="377" fill="rgb(0, 0, 0)" stroke="rgb(66, 66, 66)" stroke-width="1px" opacity="0.25"></line><line x1="322.29388001806126" y1="0" x2="322.29388001806126" y2="377" fill="rgb(0, 0, 0)" stroke="rgb(66, 66, 66)" stroke-width="1px" opacity="0.25"></line><line x1="354.2128066161961" y1="0" x2="354.2128066161961" y2="377" fill="rgb(0, 0, 0)" stroke="rgb(66, 66, 66)" stroke-width="1px" opacity="0.25"></line><line x1="386.1317332143309" y1="0" x2="386.1317332143309" y2="377" fill="rgb(0, 0, 0)" stroke="rgb(66, 66, 66)" stroke-width="1px" opacity="0.25"></line><line x1="418.0506598124657" y1="0" x2="418.0506598124657" y2="377" fill="rgb(0, 0, 0)" stroke="rgb(66, 66, 66)" stroke-width="1px" opacity="0.25"></line><line x1="449.96958641060047" y1="0" x2="449.96958641060047" y2="377" fill="rgb(0, 0, 0)" stroke="rgb(66, 66, 66)" stroke-width="1px" opacity="0.25"></line><line x1="481.8885130087353" y1="0" x2="481.8885130087353" y2="377" fill="rgb(0, 0, 0)" stroke="rgb(66, 66, 66)" stroke-width="1px" opacity="0.25"></line></g><g><line x1="0" y1="375.5027615034582" x2="489" y2="375.5027615034582" fill="rgb(0, 0, 0)" stroke="rgb(66, 66, 66)" stroke-width="1px" opacity="0.25"></line><line x1="0" y1="341.89058575412685" x2="489" y2="341.89058575412685" fill="rgb(0, 0, 0)" stroke="rgb(66, 66, 66)" stroke-width="1px" opacity="0.25"></line><line x1="0" y1="308.2784100047958" x2="489" y2="308.2784100047958" fill="rgb(0, 0, 0)" stroke="rgb(66, 66, 66)" stroke-width="1px" opacity="0.25"></line><line x1="0" y1="274.6662342554645" x2="489" y2="274.6662342554645" fill="rgb(0, 0, 0)" stroke="rgb(66, 66, 66)" stroke-width="1px" opacity="0.25"></line><line x1="0" y1="241.05405850613317" x2="489" y2="241.05405850613317" fill="rgb(0, 0, 0)" stroke="rgb(66, 66, 66)" stroke-width="1px" opacity="0.25"></line><line x1="0" y1="207.44188275680187" x2="489" y2="207.44188275680187" fill="rgb(0, 0, 0)" stroke="rgb(66, 66, 66)" stroke-width="1px" opacity="0.25"></line><line x1="0" y1="173.82970700747055" x2="489" y2="173.82970700747055" fill="rgb(0, 0, 0)" stroke="rgb(66, 66, 66)" stroke-width="1px" opacity="0.25"></line><line x1="0" y1="140.21753125813927" x2="489" y2="140.21753125813927" fill="rgb(0, 0, 0)" stroke="rgb(66, 66, 66)" stroke-width="1px" opacity="0.25"></line><line x1="0" y1="106.60535550880796" x2="489" y2="106.60535550880796" fill="rgb(0, 0, 0)" stroke="rgb(66, 66, 66)" stroke-width="1px" opacity="0.25"></line><line x1="0" y1="72.99317975947665" x2="489" y2="72.99317975947665" fill="rgb(0, 0, 0)" stroke="rgb(66, 66, 66)" stroke-width="1px" opacity="0.25"></line><line x1="0" y1="39.38100401014533" x2="489" y2="39.38100401014533" fill="rgb(0, 0, 0)" stroke="rgb(66, 66, 66)" stroke-width="1px" opacity="0.25"></line><line x1="0" y1="5.7688282608140575" x2="489" y2="5.7688282608140575" fill="rgb(0, 0, 0)" stroke="rgb(66, 66, 66)" stroke-width="1px" opacity="0.25"></line></g></g></g><g><g><line x1="0" y1="1888.0506702233656" x2="489" y2="1888.0506702233656" fill="rgb(0, 0, 0)" stroke="rgb(153, 153, 153)" stroke-width="1.5px"></line></g></g><g><g><line x1="3.104614036713096" y1="0" x2="3.104614036713096" y2="377" fill="rgb(0, 0, 0)" stroke="rgb(153, 153, 153)" stroke-width="1.5px"></line></g></g><g><g><g><g><g><path style="fill: none;" stroke="rgb(0, 153, 136)" stroke-width="2px" d="M3.104614036713096,197.22533131979856L19.0640773357805,207.44188275680187L35.02354063484791,238.0912365515424L50.98300393391531,156.3595262601445L66.94246723298272,217.6583340217154L82.90193053205013,171.68425324355965L98.86139383111754,263.6324147998711L114.82085713018495,8.220832660763762L130.78032042925236,202.33370721039L146.73978372831976,141.0347992767293L162.69924702738714,135.92662373031743L178.65871032645455,217.6583340217154L194.61817362552196,141.0347992767293L210.57763692458937,176.79242878997152L226.53710022365678,171.68425324355965L242.4965635227242,161.46770180655636" fill="none"></path></g><g><path style="fill: none;" stroke="rgb(0, 119, 187)" stroke-width="2px" d="M3.104614036713096,187.0089802269748L19.0640773357805,217.6583340217154L35.02354063484791,207.44188275680187L50.98300393391531,232.98306100513054L66.94246723298272,232.98306100513054L82.90193053205013,253.41596353495763L98.86139383111754,253.41596353495763L114.82085713018495,248.30778798854575L130.78032042925236,268.74069051837273" fill="none"></path></g><g><path style="fill: none;" stroke="rgb(204, 51, 17)" stroke-width="2px" d="M3.104614036713096,212.55015847530353L19.0640773357805,156.3595262601445L35.02354063484791,181.90080468056294L50.98300393391531,197.22533131979856L66.94246723298272,187.0089802269748L82.90193053205013,212.55015847530353L98.86139383111754,278.95714178328626L114.82085713018495,151.25135071373262L130.78032042925236,181.90080468056294L146.73978372831976,217.6583340217154L162.69924702738714,212.55015847530353L178.65871032645455,171.68425324355965L194.61817362552196,110.38554565407853L210.57763692458937,151.25135071373262L226.53710022365678,161.46770180655636L242.4965635227242,115.4937212004904L258.4560268217916,181.90080468056294L274.415490120859,181.90080468056294L290.37495341992644,197.22533131979856L306.3344167189938,166.57607769714778L322.29388001806126,151.25135071373262" fill="none"></path></g><g><path style="fill: none;" stroke="rgb(51, 187, 238)" stroke-width="2px" d="M3.104614036713096,243.19951227004407L19.0640773357805,161.46770180655636L35.02354063484791,207.44188275680187L50.98300393391531,212.55015847530353L66.94246723298272,197.22533131979856L82.90193053205013,156.3595262601445L98.86139383111754,130.81844818390556L114.82085713018495,232.98306100513054L130.78032042925236,192.11715577338668L146.73978372831976,243.19951227004407L162.69924702738714,248.30778798854575L178.65871032645455,202.33370721039L194.61817362552196,217.6583340217154L210.57763692458937,263.6324147998711L226.53710022365678,227.8747852866289" fill="none"></path></g><g><path style="fill: none;" stroke="rgb(187, 187, 187)" stroke-width="2px" d="M3.104614036713096,217.6583340217154L19.0640773357805,268.74069051837273L35.02354063484791,202.33370721039L50.98300393391531,89.95244278007193L66.94246723298272,227.8747852866289L82.90193053205013,171.68425324355965L98.86139383111754,135.92662373031743L114.82085713018495,197.22533131979856L130.78032042925236,166.57607769714778L146.73978372831976,253.41596353495763L162.69924702738714,120.60189674690227L178.65871032645455,130.81844818390556" fill="none"></path></g><g><path style="fill: none;" stroke="rgb(255, 112, 67)" stroke-width="2px" d="M3.104614036713096,227.8747852866289L19.0640773357805,227.8747852866289L35.02354063484791,222.76660974021704L50.98300393391531,222.76660974021704L66.94246723298272,161.46770180655636L82.90193053205013,187.0089802269748L98.86139383111754,181.90080468056294L114.82085713018495,278.95714178328626L130.78032042925236,273.84896623687445L146.73978372831976,74.62771579665676L162.69924702738714,84.84426723366006L178.65871032645455,151.25135071373262L194.61817362552196,146.14317516732075L210.57763692458937,212.55015847530353L226.53710022365678,176.79242878997152L242.4965635227242,156.3595262601445L258.4560268217916,197.22533131979856L274.415490120859,217.6583340217154" fill="none"></path></g><g><path style="fill: none;" stroke="rgb(255, 112, 67)" stroke-width="2px" d="M3.104614036713096,243.19951227004407L19.0640773357805,125.71007229331414L35.02354063484791,222.76660974021704L50.98300393391531,171.68425324355965L66.94246723298272,192.11715577338668L82.90193053205013,212.55015847530353L98.86139383111754,232.98306100513054L114.82085713018495,120.60189674690227L130.78032042925236,135.92662373031743L146.73978372831976,79.73609168724819L162.69924702738714,74.62771579665676L178.65871032645455,232.98306100513054L194.61817362552196,125.71007229331414L210.57763692458937,166.57607769714778L226.53710022365678,151.25135071373262L242.4965635227242,105.2771697634871L258.4560268217916,79.73609168724819L274.415490120859,23.545559644178933L290.37495341992644,74.62771579665676L306.3344167189938,130.81844818390556L322.29388001806126,84.84426723366006L338.2533433171286,238.0912365515424L354.2128066161961,151.25135071373262L370.1722699152634,100.16899421707522L386.1317332143309,156.3595262601445L402.09119651339824,197.22533131979856" fill="none"></path></g><g><path style="fill: none;" stroke="rgb(51, 187, 238)" stroke-width="2px" d="M3.104614036713096,166.57607769714778L19.0640773357805,243.19951227004407L35.02354063484791,294.28186876670145L50.98300393391531,151.25135071373262L66.94246723298272,146.14317516732075L82.90193053205013,238.0912365515424L98.86139383111754,207.44188275680187L114.82085713018495,192.11715577338668L130.78032042925236,187.0089802269748L146.73978372831976,232.98306100513054L162.69924702738714,232.98306100513054L178.65871032645455,176.79242878997152L194.61817362552196,135.92662373031743L210.57763692458937,135.92662373031743L226.53710022365678,161.46770180655636L242.4965635227242,79.73609168724819L258.4560268217916,115.4937212004904L274.415490120859,156.3595262601445L290.37495341992644,284.065417501788L306.3344167189938,156.3595262601445L322.29388001806126,197.22533131979856L338.2533433171286,161.46770180655636L354.2128066161961,258.52423925345926L370.1722699152634,135.92662373031743" fill="none"></path></g><g><path style="fill: none;" stroke="rgb(238, 51, 119)" stroke-width="2px" d="M3.104614036713096,227.8747852866289L19.0640773357805,181.90080468056294L35.02354063484791,268.74069051837273L50.98300393391531,212.55015847530353L66.94246723298272,156.3595262601445L82.90193053205013,330.03949827994364L98.86139383111754,253.41596353495763L114.82085713018495,187.0089802269748L130.78032042925236,299.3900443131133L146.73978372831976,243.19951227004407L162.69924702738714,232.98306100513054L178.65871032645455,187.0089802269748L194.61817362552196,135.92662373031743L210.57763692458937,181.90080468056294L226.53710022365678,227.8747852866289L242.4965635227242,227.8747852866289L258.4560268217916,192.11715577338668L274.415490120859,120.60189674690227L290.37495341992644,181.90080468056294L306.3344167189938,130.81844818390556L322.29388001806126,125.71007229331414L338.2533433171286,135.92662373031743L354.2128066161961,141.0347992767293L370.1722699152634,156.3595262601445L386.1317332143309,74.62771579665676L402.09119651339824,273.84896623687445L418.0506598124657,146.14317516732075L434.01012311153306,171.68425324355965L449.96958641060047,166.57607769714778L465.9290497096679,187.0089802269748" fill="none"></path></g><g><path style="fill: none;" stroke="rgb(255, 112, 67)" stroke-width="2px" d="M3.104614036713096,202.33370721039L19.0640773357805,212.55015847530353L35.02354063484791,171.68425324355965L50.98300393391531,187.0089802269748L66.94246723298272,207.44188275680187L82.90193053205013,115.4937212004904L98.86139383111754,135.92662373031743L114.82085713018495,161.46770180655636L130.78032042925236,202.33370721039L146.73978372831976,222.76660974021704L162.69924702738714,176.79242878997152L178.65871032645455,171.68425324355965L194.61817362552196,238.0912365515424L210.57763692458937,197.22533131979856" fill="none"></path></g><g><path style="fill: none;" stroke="rgb(187, 187, 187)" stroke-width="2px" d="M3.104614036713096,151.25135071373262L19.0640773357805,187.0089802269748L35.02354063484791,181.90080468056294L50.98300393391531,135.92662373031743L66.94246723298272,156.3595262601445L82.90193053205013,84.84426723366006L98.86139383111754,156.3595262601445L114.82085713018495,110.38554565407853L130.78032042925236,28.653735190590805L146.73978372831976,74.62771579665676L162.69924702738714,171.68425324355965L178.65871032645455,181.90080468056294L194.61817362552196,110.38554565407853L210.57763692458937,192.11715577338668L226.53710022365678,156.3595262601445L242.4965635227242,161.46770180655636L258.4560268217916,130.81844818390556" fill="none"></path></g><g><path style="fill: none;" stroke="rgb(204, 51, 17)" stroke-width="2px" d="M3.104614036713096,294.28186876670145L19.0640773357805,212.55015847530353L35.02354063484791,100.16899421707522L50.98300393391531,207.44188275680187L66.94246723298272,187.0089802269748L82.90193053205013,176.79242878997152L98.86139383111754,238.0912365515424L114.82085713018495,176.79242878997152L130.78032042925236,146.14317516732075L146.73978372831976,161.46770180655636L162.69924702738714,263.6324147998711" fill="none"></path></g><g><path style="fill: none;" stroke="rgb(51, 187, 238)" stroke-width="2px" d="M3.104614036713096,238.0912365515424L19.0640773357805,176.79242878997152L35.02354063484791,207.44188275680187L50.98300393391531,192.11715577338668L66.94246723298272,125.71007229331414L82.90193053205013,181.90080468056294L98.86139383111754,243.19951227004407L114.82085713018495,202.33370721039L130.78032042925236,151.25135071373262L146.73978372831976,187.0089802269748L162.69924702738714,171.68425324355965L178.65871032645455,95.06081867066335L194.61817362552196,135.92662373031743L210.57763692458937,110.38554565407853L226.53710022365678,141.0347992767293L242.4965635227242,161.46770180655636L258.4560268217916,192.11715577338668L274.415490120859,192.11715577338668L290.37495341992644,161.46770180655636L306.3344167189938,207.44188275680187" fill="none"></path></g><g><path style="fill: none;" stroke="rgb(0, 153, 136)" stroke-width="2px" d="M3.104614036713096,207.44188275680187L19.0640773357805,222.76660974021704L35.02354063484791,243.19951227004407L50.98300393391531,217.6583340217154L66.94246723298272,217.6583340217154L82.90193053205013,202.33370721039L98.86139383111754,217.6583340217154L114.82085713018495,130.81844818390556L130.78032042925236,187.0089802269748L146.73978372831976,263.6324147998711L162.69924702738714,192.11715577338668L178.65871032645455,222.76660974021704L194.61817362552196,197.22533131979856L210.57763692458937,207.44188275680187L226.53710022365678,207.44188275680187L242.4965635227242,181.90080468056294" fill="none"></path></g><g><path style="fill: none;" stroke="rgb(238, 51, 119)" stroke-width="2px" d="M3.104614036713096,202.33370721039L19.0640773357805,207.44188275680187L35.02354063484791,151.25135071373262L50.98300393391531,115.4937212004904L66.94246723298272,151.25135071373262L82.90193053205013,166.57607769714778L98.86139383111754,166.57607769714778L114.82085713018495,197.22533131979856L130.78032042925236,79.73609168724819L146.73978372831976,110.38554565407853L162.69924702738714,161.46770180655636L178.65871032645455,187.0089802269748L194.61817362552196,141.0347992767293L210.57763692458937,227.8747852866289L226.53710022365678,181.90080468056294L242.4965635227242,217.6583340217154L258.4560268217916,192.11715577338668" fill="none"></path></g><g><path style="fill: none;" stroke="rgb(255, 112, 67)" stroke-width="2px" d="M3.104614036713096,227.8747852866289L19.0640773357805,268.74069051837273L35.02354063484791,248.30778798854575L50.98300393391531,202.33370721039L66.94246723298272,222.76660974021704L82.90193053205013,273.84896623687445L98.86139383111754,197.22533131979856L114.82085713018495,197.22533131979856L130.78032042925236,197.22533131979856L146.73978372831976,176.79242878997152L162.69924702738714,120.60189674690227L178.65871032645455,166.57607769714778L194.61817362552196,110.38554565407853L210.57763692458937,100.16899421707522L226.53710022365678,146.14317516732075L242.4965635227242,181.90080468056294L258.4560268217916,125.71007229331414L274.415490120859,146.14317516732075L290.37495341992644,166.57607769714778L306.3344167189938,243.19951227004407L322.29388001806126,217.6583340217154L338.2533433171286,166.57607769714778" fill="none"></path></g><g><path style="fill: none;" stroke="rgb(0, 119, 187)" stroke-width="2px" d="M3.104614036713096,284.065417501788L19.0640773357805,171.68425324355965L35.02354063484791,217.6583340217154L50.98300393391531,273.84896623687445L66.94246723298272,222.76660974021704L82.90193053205013,130.81844818390556L98.86139383111754,181.90080468056294L114.82085713018495,176.79242878997152L130.78032042925236,171.68425324355965L146.73978372831976,115.4937212004904L162.69924702738714,146.14317516732075L178.65871032645455,120.60189674690227L194.61817362552196,146.14317516732075L210.57763692458937,181.90080468056294L226.53710022365678,135.92662373031743L242.4965635227242,146.14317516732075L258.4560268217916,74.62771579665676L274.415490120859,135.92662373031743L290.37495341992644,166.57607769714778L306.3344167189938,130.81844818390556L322.29388001806126,100.16899421707522L338.2533433171286,135.92662373031743L354.2128066161961,89.95244278007193L370.1722699152634,95.06081867066335L386.1317332143309,95.06081867066335" fill="none"></path></g><g><path style="fill: none;" stroke="rgb(0, 119, 187)" stroke-width="2px" d="M3.104614036713096,130.81844818390556L19.0640773357805,176.79242878997152L35.02354063484791,192.11715577338668L50.98300393391531,227.8747852866289L66.94246723298272,161.46770180655636L82.90193053205013,238.0912365515424L98.86139383111754,192.11715577338668L114.82085713018495,304.498320031615L130.78032042925236,202.33370721039" fill="none"></path></g><g><path style="fill: none;" stroke="rgb(238, 51, 119)" stroke-width="2px" d="M3.104614036713096,187.0089802269748L19.0640773357805,151.25135071373262L35.02354063484791,253.41596353495763L50.98300393391531,202.33370721039L66.94246723298272,202.33370721039L82.90193053205013,222.76660974021704L98.86139383111754,207.44188275680187L114.82085713018495,248.30778798854575L130.78032042925236,171.68425324355965L146.73978372831976,156.3595262601445" fill="none"></path></g><g><path style="fill: none;" stroke="rgb(0, 153, 136)" stroke-width="2px" d="M3.104614036713096,151.25135071373262L19.0640773357805,161.46770180655636L35.02354063484791,222.76660974021704L50.98300393391531,161.46770180655636L66.94246723298272,202.33370721039L82.90193053205013,176.79242878997152L98.86139383111754,120.60189674690227L114.82085713018495,197.22533131979856L130.78032042925236,192.11715577338668L146.73978372831976,176.79242878997152L162.69924702738714,207.44188275680187L178.65871032645455,125.71007229331414L194.61817362552196,171.68425324355965L210.57763692458937,79.73609168724819L226.53710022365678,192.11715577338668L242.4965635227242,166.57607769714778L258.4560268217916,166.57607769714778L274.415490120859,161.46770180655636L290.37495341992644,202.33370721039L306.3344167189938,207.44188275680187L322.29388001806126,212.55015847530353L338.2533433171286,120.60189674690227" fill="none"></path></g><g><path style="fill: none;" stroke="rgb(0, 119, 187)" stroke-width="2px" d="M3.104614036713096,253.41596353495763L19.0640773357805,197.22533131979856L35.02354063484791,268.74069051837273L50.98300393391531,222.76660974021704L66.94246723298272,202.33370721039L82.90193053205013,161.46770180655636L98.86139383111754,141.0347992767293L114.82085713018495,120.60189674690227L130.78032042925236,217.6583340217154L146.73978372831976,176.79242878997152L162.69924702738714,151.25135071373262L178.65871032645455,120.60189674690227L194.61817362552196,253.41596353495763L210.57763692458937,202.33370721039L226.53710022365678,161.46770180655636L242.4965635227242,141.0347992767293" fill="none"></path></g><g><path style="fill: none;" stroke="rgb(255, 112, 67)" stroke-width="2px" d="M3.104614036713096,284.065417501788L19.0640773357805,248.30778798854575L35.02354063484791,176.79242878997152L50.98300393391531,161.46770180655636L66.94246723298272,197.22533131979856L82.90193053205013,176.79242878997152L98.86139383111754,171.68425324355965L114.82085713018495,187.0089802269748L130.78032042925236,171.68425324355965L146.73978372831976,202.33370721039L162.69924702738714,120.60189674690227L178.65871032645455,161.46770180655636L194.61817362552196,95.06081867066335L210.57763692458937,171.68425324355965L226.53710022365678,141.0347992767293L242.4965635227242,110.38554565407853L258.4560268217916,187.0089802269748L274.415490120859,120.60189674690227L290.37495341992644,64.41136470383302L306.3344167189938,166.57607769714778L322.29388001806126,115.4937212004904L338.2533433171286,192.11715577338668L354.2128066161961,197.22533131979856L370.1722699152634,120.60189674690227L386.1317332143309,95.06081867066335L402.09119651339824,202.33370721039L418.0506598124657,176.79242878997152" fill="none"></path></g><g><path style="fill: none;" stroke="rgb(51, 187, 238)" stroke-width="2px" d="M3.104614036713096,181.90080468056294L19.0640773357805,166.57607769714778L35.02354063484791,217.6583340217154L50.98300393391531,187.0089802269748L66.94246723298272,161.46770180655636L82.90193053205013,181.90080468056294L98.86139383111754,125.71007229331414L114.82085713018495,146.14317516732075L130.78032042925236,161.46770180655636L146.73978372831976,161.46770180655636L162.69924702738714,43.978462174005976L178.65871032645455,120.60189674690227L194.61817362552196,120.60189674690227L210.57763692458937,120.60189674690227L226.53710022365678,100.16899421707522L242.4965635227242,100.16899421707522L258.4560268217916,217.6583340217154L274.415490120859,49.08663772041785L290.37495341992644,120.60189674690227" fill="none"></path></g><g><path style="fill: none;" stroke="rgb(238, 51, 119)" stroke-width="2px" d="M3.104614036713096,217.6583340217154L19.0640773357805,166.57607769714778L35.02354063484791,187.0089802269748L50.98300393391531,161.46770180655636L66.94246723298272,181.90080468056294L82.90193053205013,135.92662373031743L98.86139383111754,192.11715577338668L114.82085713018495,171.68425324355965L130.78032042925236,197.22533131979856L146.73978372831976,253.41596353495763L162.69924702738714,156.3595262601445L178.65871032645455,227.8747852866289L194.61817362552196,202.33370721039L210.57763692458937,161.46770180655636" fill="none"></path></g><g><path style="fill: none;" stroke="rgb(187, 187, 187)" stroke-width="2px" d="M3.104614036713096,212.55015847530353L19.0640773357805,217.6583340217154L35.02354063484791,227.8747852866289L50.98300393391531,217.6583340217154L66.94246723298272,227.8747852866289L82.90193053205013,212.55015847530353L98.86139383111754,171.68425324355965L114.82085713018495,187.0089802269748L130.78032042925236,192.11715577338668L146.73978372831976,222.76660974021704L162.69924702738714,238.0912365515424L178.65871032645455,187.0089802269748L194.61817362552196,135.92662373031743L210.57763692458937,166.57607769714778L226.53710022365678,115.4937212004904L242.4965635227242,130.81844818390556L258.4560268217916,110.38554565407853L274.415490120859,125.71007229331414L290.37495341992644,181.90080468056294L306.3344167189938,100.16899421707522L322.29388001806126,33.76191073700267L338.2533433171286,146.14317516732075L354.2128066161961,156.3595262601445L370.1722699152634,100.16899421707522L386.1317332143309,74.62771579665676L402.09119651339824,95.06081867066335L418.0506598124657,171.68425324355965L434.01012311153306,171.68425324355965L449.96958641060047,120.60189674690227" fill="none"></path></g><g><path style="fill: none;" stroke="rgb(0, 153, 136)" stroke-width="2px" d="M3.104614036713096,227.8747852866289L19.0640773357805,110.38554565407853L35.02354063484791,135.92662373031743L50.98300393391531,110.38554565407853L66.94246723298272,89.95244278007193L82.90193053205013,151.25135071373262L98.86139383111754,141.0347992767293L114.82085713018495,171.68425324355965L130.78032042925236,176.79242878997152L146.73978372831976,187.0089802269748L162.69924702738714,192.11715577338668L178.65871032645455,156.3595262601445L194.61817362552196,171.68425324355965" fill="none"></path></g><g><path style="fill: none;" stroke="rgb(0, 119, 187)" stroke-width="2px" d="M3.104614036713096,238.0912365515424L19.0640773357805,253.41596353495763L35.02354063484791,238.0912365515424L50.98300393391531,263.6324147998711L66.94246723298272,125.71007229331414L82.90193053205013,176.79242878997152L98.86139383111754,181.90080468056294L114.82085713018495,161.46770180655636L130.78032042925236,192.11715577338668L146.73978372831976,192.11715577338668L162.69924702738714,135.92662373031743L178.65871032645455,95.06081867066335L194.61817362552196,156.3595262601445L210.57763692458937,130.81844818390556L226.53710022365678,125.71007229331414L242.4965635227242,181.90080468056294L258.4560268217916,156.3595262601445L274.415490120859,197.22533131979856L290.37495341992644,156.3595262601445L306.3344167189938,156.3595262601445" fill="none"></path></g><g><path style="fill: none;" stroke="rgb(204, 51, 17)" stroke-width="2px" d="M3.104614036713096,238.0912365515424L19.0640773357805,243.19951227004407L35.02354063484791,243.19951227004407L50.98300393391531,171.68425324355965L66.94246723298272,192.11715577338668L82.90193053205013,243.19951227004407L98.86139383111754,258.52423925345926L114.82085713018495,135.92662373031743L130.78032042925236,156.3595262601445L146.73978372831976,135.92662373031743L162.69924702738714,146.14317516732075L178.65871032645455,141.0347992767293L194.61817362552196,110.38554565407853L210.57763692458937,125.71007229331414L226.53710022365678,151.25135071373262L242.4965635227242,146.14317516732075L258.4560268217916,141.0347992767293L274.415490120859,156.3595262601445L290.37495341992644,141.0347992767293L306.3344167189938,110.38554565407853L322.29388001806126,212.55015847530353" fill="none"></path></g><g><path style="fill: none;" stroke="rgb(51, 187, 238)" stroke-width="2px" d="M3.104614036713096,253.41596353495763L19.0640773357805,187.0089802269748L35.02354063484791,232.98306100513054L50.98300393391531,258.52423925345926L66.94246723298272,212.55015847530353L82.90193053205013,217.6583340217154L98.86139383111754,222.76660974021704L114.82085713018495,176.79242878997152L130.78032042925236,176.79242878997152L146.73978372831976,151.25135071373262L162.69924702738714,181.90080468056294L178.65871032645455,222.76660974021704L194.61817362552196,248.30778798854575L210.57763692458937,243.19951227004407L226.53710022365678,197.22533131979856L242.4965635227242,146.14317516732075L258.4560268217916,212.55015847530353L274.415490120859,120.60189674690227L290.37495341992644,197.22533131979856L306.3344167189938,243.19951227004407L322.29388001806126,243.19951227004407L338.2533433171286,243.19951227004407L354.2128066161961,181.90080468056294L370.1722699152634,258.52423925345926L386.1317332143309,202.33370721039L402.09119651339824,238.0912365515424" fill="none"></path></g><g><path style="fill: none;" stroke="rgb(204, 51, 17)" stroke-width="2px" d="M3.104614036713096,187.0089802269748L19.0640773357805,161.46770180655636L35.02354063484791,248.30778798854575L50.98300393391531,202.33370721039L66.94246723298272,166.57607769714778L82.90193053205013,238.0912365515424L98.86139383111754,176.79242878997152L114.82085713018495,125.71007229331414L130.78032042925236,192.11715577338668L146.73978372831976,217.6583340217154L162.69924702738714,166.57607769714778L178.65871032645455,187.0089802269748L194.61817362552196,64.41136470383302L210.57763692458937,243.19951227004407L226.53710022365678,156.3595262601445L242.4965635227242,217.6583340217154L258.4560268217916,84.84426723366006L274.415490120859,161.46770180655636L290.37495341992644,95.06081867066335L306.3344167189938,171.68425324355965L322.29388001806126,181.90080468056294" fill="none"></path></g><g><path style="fill: none;" stroke="rgb(0, 153, 136)" stroke-width="2px" d="M3.104614036713096,202.33370721039L19.0640773357805,176.79242878997152L35.02354063484791,222.76660974021704L50.98300393391531,227.8747852866289L66.94246723298272,130.81844818390556L82.90193053205013,156.3595262601445L98.86139383111754,151.25135071373262L114.82085713018495,100.16899421707522L130.78032042925236,232.98306100513054L146.73978372831976,212.55015847530353L162.69924702738714,135.92662373031743L178.65871032645455,151.25135071373262L194.61817362552196,151.25135071373262L210.57763692458937,207.44188275680187L226.53710022365678,187.0089802269748L242.4965635227242,187.0089802269748" fill="none"></path></g><g><path style="fill: none;" stroke="rgb(187, 187, 187)" stroke-width="2px" d="M3.104614036713096,197.22533131979856L19.0640773357805,273.84896623687445L35.02354063484791,161.46770180655636L50.98300393391531,227.8747852866289L66.94246723298272,176.79242878997152L82.90193053205013,110.38554565407853L98.86139383111754,176.79242878997152L114.82085713018495,79.73609168724819L130.78032042925236,258.52423925345926L146.73978372831976,141.0347992767293L162.69924702738714,130.81844818390556L178.65871032645455,238.0912365515424L194.61817362552196,120.60189674690227L210.57763692458937,187.0089802269748L226.53710022365678,207.44188275680187L242.4965635227242,141.0347992767293" fill="none"></path></g></g></g></g></g></g><g transform="translate(50, 377)" clip-path="url(#clip_1)"><clipPath id="clip_1"><rect width="489" height="23"></rect></clipPath><g><g><line x1="3.104614036713096" y1="0" x2="3.104614036713096" y2="5" style="visibility: inherit;" fill="rgb(0, 0, 0)" stroke="rgb(204, 204, 204)" stroke-width="1px"></line><line x1="35.02354063484791" y1="0" x2="35.02354063484791" y2="5" style="visibility: inherit;" fill="rgb(0, 0, 0)" stroke="rgb(204, 204, 204)" stroke-width="1px"></line><line x1="66.94246723298272" y1="0" x2="66.94246723298272" y2="5" style="visibility: inherit;" fill="rgb(0, 0, 0)" stroke="rgb(204, 204, 204)" stroke-width="1px"></line><line x1="98.86139383111754" y1="0" x2="98.86139383111754" y2="5" style="visibility: inherit;" fill="rgb(0, 0, 0)" stroke="rgb(204, 204, 204)" stroke-width="1px"></line><line x1="130.78032042925236" y1="0" x2="130.78032042925236" y2="5" style="visibility: inherit;" fill="rgb(0, 0, 0)" stroke="rgb(204, 204, 204)" stroke-width="1px"></line><line x1="162.69924702738714" y1="0" x2="162.69924702738714" y2="5" style="visibility: inherit;" fill="rgb(0, 0, 0)" stroke="rgb(204, 204, 204)" stroke-width="1px"></line><line x1="194.61817362552196" y1="0" x2="194.61817362552196" y2="5" style="visibility: inherit;" fill="rgb(0, 0, 0)" stroke="rgb(204, 204, 204)" stroke-width="1px"></line><line x1="226.53710022365678" y1="0" x2="226.53710022365678" y2="5" style="visibility: inherit;" fill="rgb(0, 0, 0)" stroke="rgb(204, 204, 204)" stroke-width="1px"></line><line x1="258.4560268217916" y1="0" x2="258.4560268217916" y2="5" style="visibility: inherit;" fill="rgb(0, 0, 0)" stroke="rgb(204, 204, 204)" stroke-width="1px"></line><line x1="290.37495341992644" y1="0" x2="290.37495341992644" y2="5" style="visibility: inherit;" fill="rgb(0, 0, 0)" stroke="rgb(204, 204, 204)" stroke-width="1px"></line><line x1="322.29388001806126" y1="0" x2="322.29388001806126" y2="5" style="visibility: inherit;" fill="rgb(0, 0, 0)" stroke="rgb(204, 204, 204)" stroke-width="1px"></line><line x1="354.2128066161961" y1="0" x2="354.2128066161961" y2="5" style="visibility: inherit;" fill="rgb(0, 0, 0)" stroke="rgb(204, 204, 204)" stroke-width="1px"></line><line x1="386.1317332143309" y1="0" x2="386.1317332143309" y2="5" style="visibility: inherit;" fill="rgb(0, 0, 0)" stroke="rgb(204, 204, 204)" stroke-width="1px"></line><line x1="418.0506598124657" y1="0" x2="418.0506598124657" y2="5" style="visibility: inherit;" fill="rgb(0, 0, 0)" stroke="rgb(204, 204, 204)" stroke-width="1px"></line><line x1="449.96958641060047" y1="0" x2="449.96958641060047" y2="5" style="visibility: inherit;" fill="rgb(0, 0, 0)" stroke="rgb(204, 204, 204)" stroke-width="1px"></line><line x1="481.8885130087353" y1="0" x2="481.8885130087353" y2="5" style="visibility: inherit;" fill="rgb(0, 0, 0)" stroke="rgb(204, 204, 204)" stroke-width="1px"></line></g><g transform="translate(0, 8)"><text x="3.104614036713096" y="0" dx="0em" dy="0.95em" style="text-anchor: middle; visibility: inherit; font-family: Roboto, sans-serif; font-size: 12px; font-weight: 200;" fill="rgb(33, 33, 33)" stroke="none" stroke-width="1px">0</text><text x="35.02354063484791" y="0" dx="0em" dy="0.95em" style="text-anchor: middle; visibility: inherit; font-family: Roboto, sans-serif; font-size: 12px; font-weight: 200;" fill="rgb(33, 33, 33)" stroke="none" stroke-width="1px">2</text><text x="66.94246723298272" y="0" dx="0em" dy="0.95em" style="text-anchor: middle; visibility: inherit; font-family: Roboto, sans-serif; font-size: 12px; font-weight: 200;" fill="rgb(33, 33, 33)" stroke="none" stroke-width="1px">4</text><text x="98.86139383111754" y="0" dx="0em" dy="0.95em" style="text-anchor: middle; visibility: inherit; font-family: Roboto, sans-serif; font-size: 12px; font-weight: 200;" fill="rgb(33, 33, 33)" stroke="none" stroke-width="1px">6</text><text x="130.78032042925236" y="0" dx="0em" dy="0.95em" style="text-anchor: middle; visibility: inherit; font-family: Roboto, sans-serif; font-size: 12px; font-weight: 200;" fill="rgb(33, 33, 33)" stroke="none" stroke-width="1px">8</text><text x="162.69924702738714" y="0" dx="0em" dy="0.95em" style="text-anchor: middle; visibility: inherit; font-family: Roboto, sans-serif; font-size: 12px; font-weight: 200;" fill="rgb(33, 33, 33)" stroke="none" stroke-width="1px">10</text><text x="194.61817362552196" y="0" dx="0em" dy="0.95em" style="text-anchor: middle; visibility: inherit; font-family: Roboto, sans-serif; font-size: 12px; font-weight: 200;" fill="rgb(33, 33, 33)" stroke="none" stroke-width="1px">12</text><text x="226.53710022365678" y="0" dx="0em" dy="0.95em" style="text-anchor: middle; visibility: inherit; font-family: Roboto, sans-serif; font-size: 12px; font-weight: 200;" fill="rgb(33, 33, 33)" stroke="none" stroke-width="1px">14</text><text x="258.4560268217916" y="0" dx="0em" dy="0.95em" style="text-anchor: middle; visibility: inherit; font-family: Roboto, sans-serif; font-size: 12px; font-weight: 200;" fill="rgb(33, 33, 33)" stroke="none" stroke-width="1px">16</text><text x="290.37495341992644" y="0" dx="0em" dy="0.95em" style="text-anchor: middle; visibility: inherit; font-family: Roboto, sans-serif; font-size: 12px; font-weight: 200;" fill="rgb(33, 33, 33)" stroke="none" stroke-width="1px">18</text><text x="322.29388001806126" y="0" dx="0em" dy="0.95em" style="text-anchor: middle; visibility: inherit; font-family: Roboto, sans-serif; font-size: 12px; font-weight: 200;" fill="rgb(33, 33, 33)" stroke="none" stroke-width="1px">20</text><text x="354.2128066161961" y="0" dx="0em" dy="0.95em" style="text-anchor: middle; visibility: inherit; font-family: Roboto, sans-serif; font-size: 12px; font-weight: 200;" fill="rgb(33, 33, 33)" stroke="none" stroke-width="1px">22</text><text x="386.1317332143309" y="0" dx="0em" dy="0.95em" style="text-anchor: middle; visibility: inherit; font-family: Roboto, sans-serif; font-size: 12px; font-weight: 200;" fill="rgb(33, 33, 33)" stroke="none" stroke-width="1px">24</text><text x="418.0506598124657" y="0" dx="0em" dy="0.95em" style="text-anchor: middle; visibility: inherit; font-family: Roboto, sans-serif; font-size: 12px; font-weight: 200;" fill="rgb(33, 33, 33)" stroke="none" stroke-width="1px">26</text><text x="449.96958641060047" y="0" dx="0em" dy="0.95em" style="text-anchor: middle; visibility: inherit; font-family: Roboto, sans-serif; font-size: 12px; font-weight: 200;" fill="rgb(33, 33, 33)" stroke="none" stroke-width="1px">28</text><text x="481.8885130087353" y="0" dx="0em" dy="0.95em" style="text-anchor: middle; visibility: inherit; font-family: Roboto, sans-serif; font-size: 12px; font-weight: 200;" fill="rgb(33, 33, 33)" stroke="none" stroke-width="1px">30</text></g><line x1="0" y1="0" x2="489" y2="0" fill="rgb(0, 0, 0)" stroke="rgb(204, 204, 204)" stroke-width="1px"></line></g></g></g></g></svg>