<?xml version="1.0" encoding="utf-8"?>
<!-- Generator: Adobe Illustrator 25.4.1, SVG Export Plug-In . SVG Version: 6.00 Build 0)  -->
<svg version="1.1" id="Layer_1" xmlns="http://www.w3.org/2000/svg" xmlns:xlink="http://www.w3.org/1999/xlink" x="0px" y="0px"
	 viewBox="0 0 2136 400" style="enable-background:new 0 0 2136 400;" xml:space="preserve">
<style type="text/css">
	.st0{fill:none;stroke:#CCCCCC;}
	.st1{font-family:'ArialMT';}
	.st2{font-size:12px;}
	.st3{display:none;enable-background:new    ;}
	.st4{clip-path:url(#SVGID_00000123401427663439520280000005109287188141678512_);}
	.st5{opacity:0.25;fill:none;stroke:#BDBDBD;enable-background:new    ;}
	.st6{fill:none;stroke:#999999;stroke-width:1.5;}
	.st7{fill:none;stroke:#33BBEE;stroke-width:2;}
	.st8{fill:none;stroke:#CC3311;stroke-width:2;}
	.st9{clip-path:url(#SVGID_00000069387647367248853750000002728560462550531244_);}
</style>
<g>
	<g>
		<g>
			<g>
				<g>
					<line class="st0" x1="51.6" y1="345" x2="46.6" y2="345"/>
					<line class="st0" x1="51.6" y1="306.8" x2="46.6" y2="306.8"/>
					<line class="st0" x1="51.6" y1="268.5" x2="46.6" y2="268.5"/>
					<line class="st0" x1="51.6" y1="230.2" x2="46.6" y2="230.2"/>
					<line class="st0" x1="51.6" y1="192" x2="46.6" y2="192"/>
					<line class="st0" x1="51.6" y1="153.7" x2="46.6" y2="153.7"/>
					<line class="st0" x1="51.6" y1="115.5" x2="46.6" y2="115.5"/>
					<line class="st0" x1="51.6" y1="77.2" x2="46.6" y2="77.2"/>
					<line class="st0" x1="51.6" y1="38.9" x2="46.6" y2="38.9"/>
					<line class="st0" x1="51.6" y1="0.7" x2="46.6" y2="0.7"/>
				</g>
				<g transform="translate(41.5625, 0)">
					<text transform="matrix(1 0 0 1 -23.3555 348.6234)" class="st1 st2">0.46</text>
					<text transform="matrix(1 0 0 1 -23.3555 310.3623)" class="st1 st2">0.48</text>
					<text transform="matrix(1 0 0 1 -16.6816 272.1011)" class="st1 st2">0.5</text>
					<text transform="matrix(1 0 0 1 -23.3555 233.84)" class="st1 st2">0.52</text>
					<text transform="matrix(1 0 0 1 -23.3555 195.5788)" class="st1 st2">0.54</text>
					<text transform="matrix(1 0 0 1 -23.3555 157.3177)" class="st1 st2">0.56</text>
					<text transform="matrix(1 0 0 1 -23.3555 119.0565)" class="st1 st2">0.58</text>
					<text transform="matrix(1 0 0 1 -16.6816 80.7953)" class="st1 st2">0.6</text>
					<text transform="matrix(1 0 0 1 -23.3555 42.5342)" class="st1 st2">0.62</text>
					<text transform="matrix(1 0 0 1 -23.3555 4.2731)" class="st3 st1 st2">0.64</text>
				</g>
				<line class="st0" x1="51.6" y1="0" x2="51.6" y2="377"/>
			</g>
		</g>
		<g>
			<defs>
				<rect id="SVGID_1_" x="51" width="2084" height="377"/>
			</defs>
			<clipPath id="SVGID_00000085969322621941311220000009730531043117313163_">
				<use xlink:href="#SVGID_1_"  style="overflow:visible;"/>
			</clipPath>
			<g transform="translate(51, 0)" style="clip-path:url(#SVGID_00000085969322621941311220000009730531043117313163_);">
				<g>
					<g>
						<g>
							<line class="st5" x1="165.4" y1="0" x2="165.4" y2="377"/>
							<line class="st5" x1="332.1" y1="0" x2="332.1" y2="377"/>
							<line class="st5" x1="498.8" y1="0" x2="498.8" y2="377"/>
							<line class="st5" x1="665.5" y1="0" x2="665.5" y2="377"/>
							<line class="st5" x1="832.2" y1="0" x2="832.2" y2="377"/>
							<line class="st5" x1="998.9" y1="0" x2="998.9" y2="377"/>
							<line class="st5" x1="1165.5" y1="0" x2="1165.5" y2="377"/>
							<line class="st5" x1="1332.2" y1="0" x2="1332.2" y2="377"/>
							<line class="st5" x1="1498.9" y1="0" x2="1498.9" y2="377"/>
							<line class="st5" x1="1665.6" y1="0" x2="1665.6" y2="377"/>
							<line class="st5" x1="1832.3" y1="0" x2="1832.3" y2="377"/>
							<line class="st5" x1="1999" y1="0" x2="1999" y2="377"/>
						</g>
						<g>
							<line class="st5" x1="0" y1="345" x2="2084.4" y2="345"/>
							<line class="st5" x1="0" y1="306.8" x2="2084.4" y2="306.8"/>
							<line class="st5" x1="0" y1="268.5" x2="2084.4" y2="268.5"/>
							<line class="st5" x1="0" y1="230.2" x2="2084.4" y2="230.2"/>
							<line class="st5" x1="0" y1="192" x2="2084.4" y2="192"/>
							<line class="st5" x1="0" y1="153.7" x2="2084.4" y2="153.7"/>
							<line class="st5" x1="0" y1="115.5" x2="2084.4" y2="115.5"/>
							<line class="st5" x1="0" y1="77.2" x2="2084.4" y2="77.2"/>
							<line class="st5" x1="0" y1="38.9" x2="2084.4" y2="38.9"/>
							<line class="st5" x1="0" y1="0.7" x2="2084.4" y2="0.7"/>
						</g>
					</g>
				</g>
				<g>
					<g>
						<line class="st6" x1="0" y1="1225" x2="2084.4" y2="1225"/>
					</g>
				</g>
				<g>
					<g>
						<line class="st6" x1="-1.3" y1="0" x2="-1.3" y2="377"/>
					</g>
				</g>
				<g>
					<g>
						<g>
							<g>
								<g>
									<path class="st7" d="M-1.3,268.5h83.3h83.3l83.3,11.8l83.3-82.7L415.5,363l83.3-200.8l83.3,141.7l83.3-200.8l83.3,47.2
										l83.3,23.6l83.3,82.7l83.3-70.9l83.3-106.3l83.3-35.4l83.3,118.1l83.3-70.9l83.3,82.7l83.3-82.7l83.3,165.3l83.3-224.4
										l83.3,106.3l83.3,106.3l83.3-106.3l83.3,59l83.3-70.9l83.3-23.6"/>
								</g>
								<g>
									<path class="st8" d="M-1.3,235l83.3,12.7l83.3-15.6l83.3,5.8l83.3-9.8l83.3,0.6l83.3-36.4l83.3,31.2l83.3-45.6l83.3,19.6
										l83.3-24.8l83.3-8.1l83.3-24.2l83.3,11.5l83.3-47.3l83.3,12.1l83.3-21.4l83.3,18.5l83.3-0.6l83.3-56l83.3,19.6l83.3-4
										l83.3-44.4l83.3,7.5l83.3-6.3l83.3-8.1l83.3-23.7"/>
								</g>
							</g>
						</g>
					</g>
				</g>
			</g>
		</g>
		<g>
			<defs>
				<rect id="SVGID_00000061450531006393616170000000897322448495172488_" x="51" y="377" width="2084" height="23"/>
			</defs>
			<clipPath id="SVGID_00000158725999427844890640000007447116150019849399_">
				<use xlink:href="#SVGID_00000061450531006393616170000000897322448495172488_"  style="overflow:visible;"/>
			</clipPath>
			<g transform="translate(51, 377)" style="clip-path:url(#SVGID_00000158725999427844890640000007447116150019849399_);">
				<g>
					<g>
						<line class="st0" x1="165.4" y1="0" x2="165.4" y2="5"/>
						<line class="st0" x1="332.1" y1="0" x2="332.1" y2="5"/>
						<line class="st0" x1="498.8" y1="0" x2="498.8" y2="5"/>
						<line class="st0" x1="665.5" y1="0" x2="665.5" y2="5"/>
						<line class="st0" x1="832.2" y1="0" x2="832.2" y2="5"/>
						<line class="st0" x1="998.9" y1="0" x2="998.9" y2="5"/>
						<line class="st0" x1="1165.5" y1="0" x2="1165.5" y2="5"/>
						<line class="st0" x1="1332.2" y1="0" x2="1332.2" y2="5"/>
						<line class="st0" x1="1498.9" y1="0" x2="1498.9" y2="5"/>
						<line class="st0" x1="1665.6" y1="0" x2="1665.6" y2="5"/>
						<line class="st0" x1="1832.3" y1="0" x2="1832.3" y2="5"/>
						<line class="st0" x1="1999" y1="0" x2="1999" y2="5"/>
					</g>
					<g transform="translate(0, 8)">
						<text transform="matrix(1 0 0 1 162.0844 11.4)" class="st1 st2">2</text>
						<text transform="matrix(1 0 0 1 328.7703 11.4)" class="st1 st2">4</text>
						<text transform="matrix(1 0 0 1 495.4563 11.4)" class="st1 st2">6</text>
						<text transform="matrix(1 0 0 1 662.1422 11.4)" class="st1 st2">8</text>
						<text transform="matrix(1 0 0 1 825.4913 11.4)" class="st1 st2">10</text>
						<text transform="matrix(1 0 0 1 992.1772 11.4)" class="st1 st2">12</text>
						<text transform="matrix(1 0 0 1 1158.8632 11.4)" class="st1 st2">14</text>
						<text transform="matrix(1 0 0 1 1325.5492 11.4)" class="st1 st2">16</text>
						<text transform="matrix(1 0 0 1 1492.2351 11.4)" class="st1 st2">18</text>
						<text transform="matrix(1 0 0 1 1658.9211 11.4)" class="st1 st2">20</text>
						<text transform="matrix(1 0 0 1 1825.6071 11.4)" class="st1 st2">22</text>
						<text transform="matrix(1 0 0 1 1992.2931 11.4)" class="st1 st2">24</text>
					</g>
					<line class="st0" x1="0" y1="0" x2="2084.4" y2="0"/>
				</g>
			</g>
		</g>
	</g>
</g>
</svg>
