<?xml version="1.0" encoding="utf-8"?>
<!-- Generator: Adobe Illustrator 25.4.1, SVG Export Plug-In . SVG Version: 6.00 Build 0)  -->
<svg version="1.1" id="Layer_1" xmlns="http://www.w3.org/2000/svg" xmlns:xlink="http://www.w3.org/1999/xlink" x="0px" y="0px"
	 viewBox="0 0 539 419" style="enable-background:new 0 0 539 419;" xml:space="preserve">
<style type="text/css">
	.st0{fill:none;stroke:#CCCCCC;}
	.st1{display:none;fill:#212121;enable-background:new    ;}
	.st2{font-family:'ArialMT';}
	.st3{font-size:12px;}
	.st4{fill:#212121;}
	.st5{clip-path:url(#SVGID_00000065759402108021674210000011597477044150755722_);}
	.st6{opacity:0.25;fill:none;stroke:#424242;enable-background:new    ;}
	.st7{fill:none;stroke:#999999;stroke-width:1.5;}
	.st8{fill:none;stroke:#BBBBBB;stroke-width:2;}
	.st9{fill:none;stroke:#009988;stroke-width:2;}
	.st10{clip-path:url(#SVGID_00000147926050008805163000000011013349711133487030_);}
	.st11{font-size:16px;}
</style>
<g>
	<g>
		<g>
			<g>
				<g>
					<line class="st0" x1="50" y1="378.1" x2="45" y2="378.1"/>
					<line class="st0" x1="50" y1="328.9" x2="45" y2="328.9"/>
					<line class="st0" x1="50" y1="279.6" x2="45" y2="279.6"/>
					<line class="st0" x1="50" y1="230.4" x2="45" y2="230.4"/>
					<line class="st0" x1="50" y1="181.1" x2="45" y2="181.1"/>
					<line class="st0" x1="50" y1="131.9" x2="45" y2="131.9"/>
					<line class="st0" x1="50" y1="82.7" x2="45" y2="82.7"/>
					<line class="st0" x1="50" y1="33.4" x2="45" y2="33.4"/>
				</g>
				<g transform="translate(40, 0)">
					<text transform="matrix(1 0 0 1 -23.3555 381.7157)" class="st1 st2 st3">0.67</text>
					<text transform="matrix(1 0 0 1 -23.3555 332.4737)" class="st4 st2 st3">0.68</text>
					<text transform="matrix(1 0 0 1 -23.3555 283.2318)" class="st4 st2 st3">0.69</text>
					<text transform="matrix(1 0 0 1 -16.6816 233.9898)" class="st4 st2 st3">0.7</text>
					<text transform="matrix(1 0 0 1 -23.3555 184.7478)" class="st4 st2 st3">0.71</text>
					<text transform="matrix(1 0 0 1 -23.3555 135.5058)" class="st4 st2 st3">0.72</text>
					<text transform="matrix(1 0 0 1 -23.3555 86.2639)" class="st4 st2 st3">0.73</text>
					<text transform="matrix(1 0 0 1 -23.3555 37.022)" class="st4 st2 st3">0.74</text>
				</g>
				<line class="st0" x1="50" y1="5.7" x2="50" y2="382.7"/>
			</g>
		</g>
		<g>
			<defs>
				<rect id="SVGID_1_" x="50" y="5.7" width="489" height="377"/>
			</defs>
			<clipPath id="SVGID_00000183231016594018245350000008982792781668171161_">
				<use xlink:href="#SVGID_1_"  style="overflow:visible;"/>
			</clipPath>
			<g transform="translate(50, 0)" style="clip-path:url(#SVGID_00000183231016594018245350000008982792781668171161_);">
				<g>
					<g>
						<g>
							<line class="st6" x1="4.3" y1="5.7" x2="4.3" y2="382.7"/>
							<line class="st6" x1="36.2" y1="5.7" x2="36.2" y2="382.7"/>
							<line class="st6" x1="68" y1="5.7" x2="68" y2="382.7"/>
							<line class="st6" x1="99.8" y1="5.7" x2="99.8" y2="382.7"/>
							<line class="st6" x1="131.6" y1="5.7" x2="131.6" y2="382.7"/>
							<line class="st6" x1="163.5" y1="5.7" x2="163.5" y2="382.7"/>
							<line class="st6" x1="195.3" y1="5.7" x2="195.3" y2="382.7"/>
							<line class="st6" x1="227.1" y1="5.7" x2="227.1" y2="382.7"/>
							<line class="st6" x1="259" y1="5.7" x2="259" y2="382.7"/>
							<line class="st6" x1="290.8" y1="5.7" x2="290.8" y2="382.7"/>
							<line class="st6" x1="322.6" y1="5.7" x2="322.6" y2="382.7"/>
							<line class="st6" x1="354.5" y1="5.7" x2="354.5" y2="382.7"/>
							<line class="st6" x1="386.3" y1="5.7" x2="386.3" y2="382.7"/>
							<line class="st6" x1="418.1" y1="5.7" x2="418.1" y2="382.7"/>
							<line class="st6" x1="450" y1="5.7" x2="450" y2="382.7"/>
							<line class="st6" x1="481.8" y1="5.7" x2="481.8" y2="382.7"/>
						</g>
						<g>
							<line class="st6" x1="0" y1="378.1" x2="489" y2="378.1"/>
							<line class="st6" x1="0" y1="328.9" x2="489" y2="328.9"/>
							<line class="st6" x1="0" y1="279.6" x2="489" y2="279.6"/>
							<line class="st6" x1="0" y1="230.4" x2="489" y2="230.4"/>
							<line class="st6" x1="0" y1="181.1" x2="489" y2="181.1"/>
							<line class="st6" x1="0" y1="131.9" x2="489" y2="131.9"/>
							<line class="st6" x1="0" y1="82.7" x2="489" y2="82.7"/>
							<line class="st6" x1="0" y1="33.4" x2="489" y2="33.4"/>
						</g>
					</g>
				</g>
				<g>
					<g>
						<line class="st7" x1="0" y1="3677.3" x2="489" y2="3677.3"/>
					</g>
				</g>
				<g>
					<g>
						<line class="st7" x1="4.3" y1="5.7" x2="4.3" y2="382.7"/>
					</g>
				</g>
				<g>
					<g>
						<g>
							<g>
								<g>
									<path class="st8" d="M4.3,253.6l15.9,6.3l15.9-1.4l15.9,0.5l15.9-0.7l15.9,1.3l15.9-0.5l15.9-2.5l15.9-0.8l15.9-7.4
										l15.9,6.6l15.9,2.3l15.9-0.9l15.9,5.8l15.9-5.5l15.9,5.3l15.9-0.5l15.9,5.3l15.9-4.5l15.9,8.6l15.9,9l15.9,6.7l15.9-6.2
										l15.9,26.2l15.9-17l15.9-1.6l15.9,3.8l15.9-20l15.9-12.8"/>
								</g>
								<g>
									<path class="st9" d="M4.3,11.2l15.9,106.3l15.9,30.9l15.9,65.2L68,224.7l15.9,15.8l15.9,18.2l15.9-12.1l15.9,12l15.9,27.9
										l15.9-6.7l15.9,25.7l15.9-18.7l15.9,17.6l15.9,14.4l15.9,5.7l15.9,0.4l15.9-11.8l15.9,10.2l15.9-3.5l15.9,21.1l15.9-11.4
										l15.9,19l15.9,25.1l15.9-50.5l15.9,22.6l15.9,8l15.9-6.6l15.9,23.4"/>
								</g>
							</g>
						</g>
					</g>
				</g>
			</g>
		</g>
		<g>
			<defs>
				<rect id="SVGID_00000047055393299700237170000004698318289405355944_" x="50" y="382.7" width="489" height="23"/>
			</defs>
			<clipPath id="SVGID_00000015313862928837771700000016923014918479080612_">
				<use xlink:href="#SVGID_00000047055393299700237170000004698318289405355944_"  style="overflow:visible;"/>
			</clipPath>
			<g transform="translate(50, 377)" style="clip-path:url(#SVGID_00000015313862928837771700000016923014918479080612_);">
				<g>
					<g>
						<line class="st0" x1="4.3" y1="5.7" x2="4.3" y2="10.7"/>
						<line class="st0" x1="36.2" y1="5.7" x2="36.2" y2="10.7"/>
						<line class="st0" x1="68" y1="5.7" x2="68" y2="10.7"/>
						<line class="st0" x1="99.8" y1="5.7" x2="99.8" y2="10.7"/>
						<line class="st0" x1="131.6" y1="5.7" x2="131.6" y2="10.7"/>
						<line class="st0" x1="163.5" y1="5.7" x2="163.5" y2="10.7"/>
						<line class="st0" x1="195.3" y1="5.7" x2="195.3" y2="10.7"/>
						<line class="st0" x1="227.1" y1="5.7" x2="227.1" y2="10.7"/>
						<line class="st0" x1="259" y1="5.7" x2="259" y2="10.7"/>
						<line class="st0" x1="290.8" y1="5.7" x2="290.8" y2="10.7"/>
						<line class="st0" x1="322.6" y1="5.7" x2="322.6" y2="10.7"/>
						<line class="st0" x1="354.5" y1="5.7" x2="354.5" y2="10.7"/>
						<line class="st0" x1="386.3" y1="5.7" x2="386.3" y2="10.7"/>
						<line class="st0" x1="418.1" y1="5.7" x2="418.1" y2="10.7"/>
						<line class="st0" x1="450" y1="5.7" x2="450" y2="10.7"/>
						<line class="st0" x1="481.8" y1="5.7" x2="481.8" y2="10.7"/>
					</g>
					<g transform="translate(0, 8)">
						<text transform="matrix(1 0 0 1 0.983 17.1)" class="st4 st2 st3">0</text>
						<text transform="matrix(1 0 0 1 32.8151 17.1)" class="st4 st2 st3">2</text>
						<text transform="matrix(1 0 0 1 64.6472 17.1)" class="st4 st2 st3">4</text>
						<text transform="matrix(1 0 0 1 96.4793 17.1)" class="st4 st2 st3">6</text>
						<text transform="matrix(1 0 0 1 128.3114 17.1)" class="st4 st2 st3">8</text>
						<text transform="matrix(1 0 0 1 156.8066 17.1)" class="st4 st2 st3">10</text>
						<text transform="matrix(1 0 0 1 188.6387 17.1)" class="st4 st2 st3">12</text>
						<text transform="matrix(1 0 0 1 220.4708 17.1)" class="st4 st2 st3">14</text>
						<text transform="matrix(1 0 0 1 252.3029 17.1)" class="st4 st2 st3">16</text>
						<text transform="matrix(1 0 0 1 284.135 17.1)" class="st4 st2 st3">18</text>
						<text transform="matrix(1 0 0 1 315.9672 17.1)" class="st4 st2 st3">20</text>
						<text transform="matrix(1 0 0 1 347.7993 17.1)" class="st4 st2 st3">22</text>
						<text transform="matrix(1 0 0 1 379.6313 17.1)" class="st4 st2 st3">24</text>
						<text transform="matrix(1 0 0 1 411.4635 17.1)" class="st4 st2 st3">26</text>
						<text transform="matrix(1 0 0 1 443.2956 17.1)" class="st4 st2 st3">28</text>
						<text transform="matrix(1 0 0 1 475.1277 17.1)" class="st4 st2 st3">30</text>
					</g>
					<line class="st0" x1="0" y1="5.7" x2="489" y2="5.7"/>
				</g>
			</g>
		</g>
	</g>
</g>
<text transform="matrix(1 0 0 1 271.7667 419)" class="st2 st11">Epochs</text>
<text transform="matrix(-1.836970e-16 -1 1 -1.836970e-16 17.1484 226.4485)" class="st2 st11">Loss</text>
</svg>
