<?xml version="1.0" encoding="utf-8"?>
<!-- Generator: Adobe Illustrator 25.4.1, SVG Export Plug-In . SVG Version: 6.00 Build 0)  -->
<svg version="1.1" id="Layer_1" xmlns="http://www.w3.org/2000/svg" xmlns:xlink="http://www.w3.org/1999/xlink" x="0px" y="0px"
	 viewBox="0 0 539 419" style="enable-background:new 0 0 539 419;" xml:space="preserve">
<style type="text/css">
	.st0{fill:none;stroke:#CCCCCC;}
	.st1{display:none;fill:#212121;enable-background:new    ;}
	.st2{font-family:'ArialMT';}
	.st3{font-size:12px;}
	.st4{fill:#212121;}
	.st5{clip-path:url(#SVGID_00000083070588835530376980000012337393586305075878_);}
	.st6{opacity:0.25;fill:none;stroke:#424242;enable-background:new    ;}
	.st7{fill:none;stroke:#999999;stroke-width:1.5;}
	.st8{fill:none;stroke:#009988;stroke-width:2;}
	.st9{fill:none;stroke:#0077BB;stroke-width:2;}
	.st10{fill:none;stroke:#CC3311;stroke-width:2;}
	.st11{fill:none;stroke:#33BBEE;stroke-width:2;}
	.st12{fill:none;stroke:#BBBBBB;stroke-width:2;}
	.st13{fill:none;stroke:#FF7043;stroke-width:2;}
	.st14{fill:none;stroke:#EE3377;stroke-width:2;}
	.st15{clip-path:url(#SVGID_00000054258807551720026250000016340962567344036799_);}
	.st16{font-size:16px;}
</style>
<g>
	<g>
		<g>
			<g>
				<g>
					<line class="st0" x1="51.6" y1="374.6" x2="46.6" y2="374.6"/>
					<line class="st0" x1="51.6" y1="337.9" x2="46.6" y2="337.9"/>
					<line class="st0" x1="51.6" y1="301.1" x2="46.6" y2="301.1"/>
					<line class="st0" x1="51.6" y1="264.3" x2="46.6" y2="264.3"/>
					<line class="st0" x1="51.6" y1="227.5" x2="46.6" y2="227.5"/>
					<line class="st0" x1="51.6" y1="190.7" x2="46.6" y2="190.7"/>
					<line class="st0" x1="51.6" y1="153.9" x2="46.6" y2="153.9"/>
					<line class="st0" x1="51.6" y1="117.1" x2="46.6" y2="117.1"/>
					<line class="st0" x1="51.6" y1="80.3" x2="46.6" y2="80.3"/>
					<line class="st0" x1="51.6" y1="43.5" x2="46.6" y2="43.5"/>
					<line class="st0" x1="51.6" y1="6.7" x2="46.6" y2="6.7"/>
				</g>
				<g transform="translate(41.5625, 0)">
					<text transform="matrix(1 0 0 1 -23.3555 378.2448)" class="st1 st2 st3">0.68</text>
					<text transform="matrix(1 0 0 1 -16.6816 341.4539)" class="st4 st2 st3">0.7</text>
					<text transform="matrix(1 0 0 1 -23.3555 304.663)" class="st4 st2 st3">0.72</text>
					<text transform="matrix(1 0 0 1 -23.3555 267.8721)" class="st4 st2 st3">0.74</text>
					<text transform="matrix(1 0 0 1 -23.3555 231.0812)" class="st4 st2 st3">0.76</text>
					<text transform="matrix(1 0 0 1 -23.3555 194.2903)" class="st4 st2 st3">0.78</text>
					<text transform="matrix(1 0 0 1 -16.6816 157.4995)" class="st4 st2 st3">0.8</text>
					<text transform="matrix(1 0 0 1 -23.3555 120.7086)" class="st4 st2 st3">0.82</text>
					<text transform="matrix(1 0 0 1 -23.3555 83.9177)" class="st4 st2 st3">0.84</text>
					<text transform="matrix(1 0 0 1 -23.3555 47.1268)" class="st4 st2 st3">0.86</text>
					<text transform="matrix(1 0 0 1 -23.3555 10.3359)" class="st4 st2 st3">0.88</text>
				</g>
				<line class="st0" x1="51.6" y1="-0.3" x2="51.6" y2="376.7"/>
			</g>
		</g>
		<g>
			<defs>
				<rect id="SVGID_1_" x="51" y="-0.3" width="487" height="377"/>
			</defs>
			<clipPath id="SVGID_00000116232198338195751100000010636588557273522608_">
				<use xlink:href="#SVGID_1_"  style="overflow:visible;"/>
			</clipPath>
			<g transform="translate(51, 0)" style="clip-path:url(#SVGID_00000116232198338195751100000010636588557273522608_);">
				<g>
					<g>
						<g>
							<line class="st6" x1="1.9" y1="-0.3" x2="1.9" y2="376.7"/>
							<line class="st6" x1="33.6" y1="-0.3" x2="33.6" y2="376.7"/>
							<line class="st6" x1="65.2" y1="-0.3" x2="65.2" y2="376.7"/>
							<line class="st6" x1="96.9" y1="-0.3" x2="96.9" y2="376.7"/>
							<line class="st6" x1="128.5" y1="-0.3" x2="128.5" y2="376.7"/>
							<line class="st6" x1="160.2" y1="-0.3" x2="160.2" y2="376.7"/>
							<line class="st6" x1="191.8" y1="-0.3" x2="191.8" y2="376.7"/>
							<line class="st6" x1="223.5" y1="-0.3" x2="223.5" y2="376.7"/>
							<line class="st6" x1="255.2" y1="-0.3" x2="255.2" y2="376.7"/>
							<line class="st6" x1="286.8" y1="-0.3" x2="286.8" y2="376.7"/>
							<line class="st6" x1="318.5" y1="-0.3" x2="318.5" y2="376.7"/>
							<line class="st6" x1="350.1" y1="-0.3" x2="350.1" y2="376.7"/>
							<line class="st6" x1="381.8" y1="-0.3" x2="381.8" y2="376.7"/>
							<line class="st6" x1="413.4" y1="-0.3" x2="413.4" y2="376.7"/>
							<line class="st6" x1="445.1" y1="-0.3" x2="445.1" y2="376.7"/>
							<line class="st6" x1="476.7" y1="-0.3" x2="476.7" y2="376.7"/>
						</g>
						<g>
							<line class="st6" x1="0" y1="374.6" x2="487.4" y2="374.6"/>
							<line class="st6" x1="0" y1="337.9" x2="487.4" y2="337.9"/>
							<line class="st6" x1="0" y1="301.1" x2="487.4" y2="301.1"/>
							<line class="st6" x1="0" y1="264.3" x2="487.4" y2="264.3"/>
							<line class="st6" x1="0" y1="227.5" x2="487.4" y2="227.5"/>
							<line class="st6" x1="0" y1="190.7" x2="487.4" y2="190.7"/>
							<line class="st6" x1="0" y1="153.9" x2="487.4" y2="153.9"/>
							<line class="st6" x1="0" y1="117.1" x2="487.4" y2="117.1"/>
							<line class="st6" x1="0" y1="80.3" x2="487.4" y2="80.3"/>
							<line class="st6" x1="0" y1="43.5" x2="487.4" y2="43.5"/>
							<line class="st6" x1="0" y1="6.7" x2="487.4" y2="6.7"/>
						</g>
					</g>
				</g>
				<g>
					<g>
						<line class="st7" x1="0" y1="1625.5" x2="487.4" y2="1625.5"/>
					</g>
				</g>
				<g>
					<g>
						<line class="st7" x1="1.9" y1="-0.3" x2="1.9" y2="376.7"/>
					</g>
				</g>
				<g>
					<g>
						<g>
							<g>
								<g>
									<path class="st8" d="M1.9,350.8l15.8,0.1l15.8-2.7l15.8-8.9l15.8,3.4l15.8-6.8l15.8-8.4l15.8,18.8l15.8-32.9l15.8-6.6
										l15.8,7.2l15.8-31.4l15.8,7.3l15.8-82.6l15.8,67.2l15.8,26.5"/>
								</g>
								<g>
									<path class="st9" d="M1.9,350.8l15.8-0.4l15.8-6.2l15.8-1.2l15.8-3.4l15.8,0l15.8-12.1l15.8-6.2l15.8,8.3"/>
								</g>
								<g>
									<path class="st10" d="M1.9,349.9l15.8,1.4l15.8-4.3l15.8,3l15.8-2.6l15.8-9.7l15.8,0.5l15.8,3.3l15.8-19.7l15.8-25.1
										l15.8,29.8l15.8-7.4l15.8-5.6l15.8-12.2l15.8-109.1l15.8,52.9l15.8,15.1l15.8-37.7l15.8,4.1l15.8,1.7l15.8-19.4"/>
								</g>
								<g>
									<path class="st11" d="M1.9,350.2l15.8,0.6l15.8-0.7l15.8-0.4l15.8,0.9l15.8-0.4l15.8-7.3l15.8-18.1l15.8,9.7l15.8-8.9
										l15.8-5.8l15.8-11.5l15.8-11.5l15.8,5.6l15.8,2.5"/>
								</g>
								<g>
									<path class="st12" d="M1.9,350.1l15.8,0.7l15.8-1.2l15.8,3.1l15.8-4.2l15.8,3.5l15.8-7.1l15.8-8.5l15.8-7.2l15.8,10.5
										l15.8-4.2l15.8-11.7"/>
								</g>
								<g>
									<path class="st13" d="M1.9,349.7l15.8-0.3l15.8-1.9l15.8-3.2l15.8,0.5l15.8-0.2l15.8-2.8l15.8-4l15.8-7.3l15.8-0.2
										l15.8-4.1l15.8-10.4l15.8-8.2l15.8-10.3l15.8-13.8l15.8-6.9l15.8-6.3l15.8,1"/>
								</g>
								<g>
									<path class="st13" d="M1.9,349.1l15.8,1.1l15.8-7.6l15.8-0.8l15.8-2.7l15.8,0.9l15.8-33l15.8,19.1l15.8-12.8l15.8-14
										l15.8,17l15.8-78.3l15.8,76.8l15.8-7.5l15.8-20.5l15.8-26l15.8-33.2l15.8-0.6l15.8,25.7l15.8-38.6l15.8-18.7l15.8-104.1
										l15.8,15.1l15.8-36.1l15.8-42.1L397.6,7"/>
								</g>
								<g>
									<path class="st11" d="M1.9,348.8l15.8,0.3l15.8-2.3l15.8-17.2l15.8,17.2l15.8-7.4l15.8,3.9l15.8-56.9l15.8,17.4l15.8-32.1
										l15.8-28.3l15.8,45.4l15.8-83.6l15.8,45.6l15.8-33.7l15.8,24.7l15.8-142.9l15.8,42.4l15.8-43.7l15.8,86.4l15.8-3.8
										l15.8,56.3l15.8-3.2l15.8-33.5"/>
								</g>
								<g>
									<path class="st14" d="M1.9,348.2l15.8-9l15.8-1.4l15.8-13.2l15.8-52.6l15.8-34.8l15.8,50.4l15.8,36.4l15.8-16.8l15.8-35.4
										l15.8,23.3l15.8-15.5l15.8,47.8l15.8-67.4l15.8,20.7l15.8,18.5l15.8,10.8l15.8,2.8l15.8-29.2l15.8,9.1l15.8-46.8l15.8-11.6
										l15.8-87.4l15.8,1.6l15.8,48l15.8-40.1l15.8,30.7l15.8,4.1l15.8,30.4l15.8-94.7"/>
								</g>
								<g>
									<path class="st13" d="M1.9,350.3l15.8,0.2l15.8-0.7l15.8-1.9l15.8-1.2l15.8,7.8l15.8-3.8l15.8-3.2l15.8-14.6l15.8-6.6
										l15.8-3.9l15.8,0.1l15.8-23l15.8-0.9"/>
								</g>
								<g>
									<path class="st12" d="M1.9,350.1l15.8-0.4l15.8-3.2l15.8,2.5l15.8,2.2l15.8,3.2l15.8-1.8l15.8-1.3l15.8,8.9l15.8-8.1
										l15.8-7l15.8-23.8l15.8,17.7l15.8-18.9l15.8-2.6l15.8-8.3l15.8-4.5"/>
								</g>
								<g>
									<path class="st10" d="M1.9,350.7l15.8-0.3l15.8,2l15.8-2l15.8,1.7l15.8-3.1l15.8-2l15.8-5.4l15.8-3.4l15.8-3.9l15.8,4.3"/>
								</g>
								<g>
									<path class="st11" d="M1.9,350l15.8-0.1l15.8-0.2l15.8-1.1l15.8,4.4l15.8-2.5L96.9,340l15.8-1.7l15.8,1.7l15.8-1.6
										l15.8-7.4l15.8-7.6l15.8,1.4l15.8-25.8l15.8-9.6l15.8,11.8l15.8-11.7l15.8-86.1l15.8,52.3l15.8-35.3"/>
								</g>
								<g>
									<path class="st8" d="M1.9,349.7l15.8,0.4l15.8,0.1l15.8-1l15.8-0.6l15.8-6l15.8,0.9l15.8,2.7l15.8,1.9l15.8-3.2l15.8-2
										l15.8-26.6l15.8,12.7l15.8,1.8l15.8-16l15.8,11.4"/>
								</g>
								<g>
									<path class="st14" d="M1.9,351l15.8-1.3l15.8,2.1l15.8-1.8l15.8,1.5l15.8-12.3l15.8,8.6l15.8-11.9l15.8,12.9l15.8,1.1
										l15.8-15.2l15.8,1.7l15.8-20l15.8-6.4l15.8,2.2l15.8,2.9l15.8-14.8"/>
								</g>
								<g>
									<path class="st13" d="M1.9,350.1l15.8,0.1l15.8,0.7l15.8-0.6l15.8-0.4l15.8-5.2l15.8,4l15.8-1.1l15.8-2.3l15.8,2.3l15.8,6
										l15.8-4.4l15.8-0.7l15.8,0.3l15.8-11.7l15.8-5.4l15.8,11.8l15.8-2.7l15.8-15.6l15.8-2.6l15.8-0.4l15.8,0.2"/>
								</g>
								<g>
									<path class="st9" d="M1.9,349.9l15.8-0.1l15.8,0.7l15.8-0.4l15.8,0.1l15.8,0.6l15.8,1.1l15.8-5.7l15.8,2.1l15.8,2.3
										l15.8-1.2l15.8-6.4l15.8-4.4l15.8,6.8l15.8,0.1l15.8,2.7l15.8-23.8l15.8,17.8l15.8-17.5l15.8,16.9l15.8-12.5l15.8,0.9
										l15.8,8.7l15.8,5.4l15.8-6.9"/>
								</g>
								<g>
									<path class="st9" d="M1.9,351.1l15.8-0.2l15.8-1.5l15.8-0.3l15.8-0.4l15.8-1.7l15.8-5.7l15.8-2.8l15.8-19.3"/>
								</g>
								<g>
									<path class="st14" d="M1.9,350.6l15.8,0.1l15.8-2.2l15.8,0.1l15.8-3.7l15.8-8l15.8,4.3l15.8-3.3l15.8-9.6l15.8-2.1"/>
								</g>
								<g>
									<path class="st8" d="M1.9,350.9l15.8,0.8l15.8,0.2l15.8-0.9l15.8-3.3L81.1,329l15.8,22.5l15.8-30.4l15.8-17.5l15.8,27.7
										l15.8-47l15.8,46.2l15.8-56.3l15.8,35.3l15.8-49.9l15.8-11.4l15.8-51.3l15.8,37.4l15.8-33.3l15.8-5.1l15.8,34.5l15.8-37.8"
										/>
								</g>
								<g>
									<path class="st9" d="M1.9,350.1l15.8-0.6l15.8,1.3l15.8,0.2l15.8,0.1l15.8,1.7l15.8,1.9l15.8,0.6l15.8-1.8l15.8-0.1
										l15.8,0.2l15.8,3.6l15.8-7.2l15.8-5.2l15.8-3.6l15.8,4.1"/>
								</g>
								<g>
									<path class="st13" d="M1.9,348.1l15.8,1.6l15.8-0.6l15.8,0.6l15.8-0.8l15.8,2.9l15.8-0.8l15.8,0.5l15.8,0.7l15.8-0.2
										l15.8,3l15.8-4.4l15.8,1.3l15.8-3.3l15.8-9.7l15.8-2.8l15.8,1.2l15.8-0.9l15.8-9.5l15.8,9l15.8,2.3l15.8-11.6l15.8,7.5
										l15.8-1.1l15.8,7.4l15.8-12.5l15.8-15.2"/>
								</g>
								<g>
									<path class="st11" d="M1.9,352.5l15.8-0.1l15.8,0.2l15.8-0.6l15.8-0.2l15.8-0.3l15.8,1.6l15.8-0.3l15.8-0.6l15.8-0.7
										l15.8,2.5l15.8-4.8l15.8,7.8l15.8-10.9l15.8,6.3l15.8-2.6l15.8-10l15.8,11l15.8,4.1"/>
								</g>
								<g>
									<path class="st14" d="M1.9,350.1l15.8,0.2l15.8-0.7l15.8,0.5l15.8,0.5l15.8-2.9l15.8-1.1l15.8,0l15.8-4.6l15.8-0.8
										l15.8-9.6l15.8,4.3l15.8-11.1l15.8,7.3"/>
								</g>
								<g>
									<path class="st12" d="M1.9,346.5l15.8,2.4l15.8-0.5l15.8,0.2l15.8-0.3l15.8,0.5l15.8-0.2l15.8-0.9l15.8-0.3l15.8-2.8
										l15.8,2.5l15.8,0.9l15.8-0.3l15.8,2.2l15.8-2l15.8,2l15.8-0.2l15.8,2l15.8-1.7l15.8,3.2l15.8,3.4l15.8,2.5l15.8-2.3
										l15.8,9.8l15.8-6.4l15.8-0.6l15.8,1.4l15.8-7.5l15.8-4.8"/>
								</g>
								<g>
									<path class="st8" d="M1.9,351.6l15.8,1.3l15.8-0.4l15.8,0.2l15.8,1.2l15.8,0.4l15.8-1.8l15.8-2.4l15.8,0.3l15.8-3.9
										l15.8-1.4l15.8-2.2l15.8,0.8"/>
								</g>
								<g>
									<path class="st9" d="M1.9,348.7l15.8-0.1l15.8,0l15.8,0l15.8-0.6l15.8,0.3l15.8,0.6l15.8,1.6l15.8,0.6l15.8-3.5l15.8-0.3
										l15.8,4l15.8-5.1l15.8,7l15.8-2.9l15.8-4.7l15.8,3.4l15.8-13.2l15.8,5.7l15.8,9.7"/>
								</g>
								<g>
									<path class="st10" d="M1.9,350.6l15.8-0.5l15.8,0.8l15.8,0.6l15.8,0.6l15.8-0.4l15.8-0.6l15.8,1.3l15.8-1.7l15.8-0.8
										l15.8,3.7l15.8,0.6l15.8-0.1l15.8-3.3l15.8-2.8l15.8,1.3l15.8-3.2l15.8,1.2l15.8,0.3l15.8-0.4l15.8-7.8"/>
								</g>
								<g>
									<path class="st11" d="M1.9,350l15.8-0.6l15.8,0.9l15.8-1.3l15.8,0.4l15.8,0.1l15.8-1.4l15.8,1.8l15.8,0.9l15.8,1.4
										l15.8-2.9l15.8-6.5l15.8-6.2l15.8-5l15.8-6.4l15.8-7.3l15.8-0.4l15.8-11.6l15.8-29.7l15.8,13.6l15.8,4.4l15.8-18.8
										l15.8,11.4l15.8-15.8l15.8,21.8l15.8-22.6"/>
								</g>
								<g>
									<path class="st10" d="M1.9,350.7l15.8-1.7l15.8,1.2l15.8-2.1l15.8,0.4l15.8,0.1l15.8,1l15.8,0.8l15.8-6l15.8,0.9l15.8-10.4
										l15.8,6.7l15.8-1.8l15.8-19.1l15.8,12.5l15.8-28l15.8,21l15.8-6.5l15.8,5.3l15.8-13l15.8,4.6"/>
								</g>
								<g>
									<path class="st8" d="M1.9,350.6l15.8,0.1l15.8-1.3l15.8,2.2l15.8-2.7l15.8,2l15.8-2.6l15.8-0.3l15.8-8.9l15.8-2.5l15.8-1.4
										l15.8-2.7l15.8-2.7l15.8-8.2l15.8,2.2l15.8-2.8"/>
								</g>
								<g>
									<path class="st12" d="M1.9,350.6l15.8-1.2l15.8,1.4l15.8-1.3l15.8,2.5l15.8-2.5l15.8-2.6l15.8,2.1l15.8-5.2l15.8,0.1
										l15.8-2.4l15.8-14.5l15.8,7.9l15.8-17.1l15.8-2.5l15.8,2.6"/>
								</g>
							</g>
						</g>
					</g>
				</g>
			</g>
		</g>
		<g>
			<defs>
				<rect id="SVGID_00000176728755200867548560000003928101487681362095_" x="51" y="376.7" width="487" height="23"/>
			</defs>
			<clipPath id="SVGID_00000151544993461453845470000009453701036255020189_">
				<use xlink:href="#SVGID_00000176728755200867548560000003928101487681362095_"  style="overflow:visible;"/>
			</clipPath>
			<g transform="translate(51, 377)" style="clip-path:url(#SVGID_00000151544993461453845470000009453701036255020189_);">
				<g>
					<g>
						<line class="st0" x1="1.9" y1="-0.3" x2="1.9" y2="4.7"/>
						<line class="st0" x1="33.6" y1="-0.3" x2="33.6" y2="4.7"/>
						<line class="st0" x1="65.2" y1="-0.3" x2="65.2" y2="4.7"/>
						<line class="st0" x1="96.9" y1="-0.3" x2="96.9" y2="4.7"/>
						<line class="st0" x1="128.5" y1="-0.3" x2="128.5" y2="4.7"/>
						<line class="st0" x1="160.2" y1="-0.3" x2="160.2" y2="4.7"/>
						<line class="st0" x1="191.8" y1="-0.3" x2="191.8" y2="4.7"/>
						<line class="st0" x1="223.5" y1="-0.3" x2="223.5" y2="4.7"/>
						<line class="st0" x1="255.2" y1="-0.3" x2="255.2" y2="4.7"/>
						<line class="st0" x1="286.8" y1="-0.3" x2="286.8" y2="4.7"/>
						<line class="st0" x1="318.5" y1="-0.3" x2="318.5" y2="4.7"/>
						<line class="st0" x1="350.1" y1="-0.3" x2="350.1" y2="4.7"/>
						<line class="st0" x1="381.8" y1="-0.3" x2="381.8" y2="4.7"/>
						<line class="st0" x1="413.4" y1="-0.3" x2="413.4" y2="4.7"/>
						<line class="st0" x1="445.1" y1="-0.3" x2="445.1" y2="4.7"/>
						<line class="st0" x1="476.7" y1="-0.3" x2="476.7" y2="4.7"/>
					</g>
					<g transform="translate(0, 8)">
						<text transform="matrix(1 0 0 1 -1.3998 11.1002)" class="st4 st2 st3">0</text>
						<text transform="matrix(1 0 0 1 30.252 11.1002)" class="st4 st2 st3">2</text>
						<text transform="matrix(1 0 0 1 61.9038 11.1002)" class="st4 st2 st3">4</text>
						<text transform="matrix(1 0 0 1 93.5557 11.1002)" class="st4 st2 st3">6</text>
						<text transform="matrix(1 0 0 1 125.2075 11.1002)" class="st4 st2 st3">8</text>
						<text transform="matrix(1 0 0 1 153.5224 11.1002)" class="st4 st2 st3">10</text>
						<text transform="matrix(1 0 0 1 185.1743 11.1002)" class="st4 st2 st3">12</text>
						<text transform="matrix(1 0 0 1 216.8261 11.1002)" class="st4 st2 st3">14</text>
						<text transform="matrix(1 0 0 1 248.478 11.1002)" class="st4 st2 st3">16</text>
						<text transform="matrix(1 0 0 1 280.1298 11.1002)" class="st4 st2 st3">18</text>
						<text transform="matrix(1 0 0 1 311.7816 11.1002)" class="st4 st2 st3">20</text>
						<text transform="matrix(1 0 0 1 343.4335 11.1002)" class="st4 st2 st3">22</text>
						<text transform="matrix(1 0 0 1 375.0853 11.1002)" class="st4 st2 st3">24</text>
						<text transform="matrix(1 0 0 1 406.7372 11.1002)" class="st4 st2 st3">26</text>
						<text transform="matrix(1 0 0 1 438.389 11.1002)" class="st4 st2 st3">28</text>
						<text transform="matrix(1 0 0 1 470.0409 11.1002)" class="st4 st2 st3">30</text>
					</g>
					<line class="st0" x1="0" y1="-0.3" x2="487.4" y2="-0.3"/>
				</g>
			</g>
		</g>
	</g>
</g>
<text transform="matrix(-1.836970e-16 -1 1 -1.836970e-16 13.5703 225.4116)" class="st2 st16">Loss</text>
<text transform="matrix(1 0 0 1 269.122 412.8929)" class="st2 st16">Epochs</text>
</svg>
