<?xml version="1.0" encoding="utf-8"?>
<!-- Generator: Adobe Illustrator 25.4.1, SVG Export Plug-In . SVG Version: 6.00 Build 0)  -->
<svg version="1.1" id="Layer_1" xmlns="http://www.w3.org/2000/svg" xmlns:xlink="http://www.w3.org/1999/xlink" x="0px" y="0px"
	 viewBox="0 0 539 419" style="enable-background:new 0 0 539 419;" xml:space="preserve">
<style type="text/css">
	.st0{fill:none;stroke:#CCCCCC;}
	.st1{display:none;fill:#212121;enable-background:new    ;}
	.st2{font-family:'ArialMT';}
	.st3{font-size:12px;}
	.st4{fill:#212121;}
	.st5{clip-path:url(#SVGID_00000119095347544561902820000004924565827905517208_);}
	.st6{opacity:0.25;fill:none;stroke:#424242;enable-background:new    ;}
	.st7{fill:none;stroke:#999999;stroke-width:1.5;}
	.st8{fill:none;stroke:#CC3311;stroke-width:2;}
	.st9{fill:none;stroke:#33BBEE;stroke-width:2;}
	.st10{fill:none;stroke:#EE3377;stroke-width:2;}
	.st11{fill:none;stroke:#009988;stroke-width:2;}
	.st12{fill:none;stroke:#0077BB;stroke-width:2;}
	.st13{fill:none;stroke:#FF7043;stroke-width:2;}
	.st14{fill:none;stroke:#BBBBBB;stroke-width:2;}
	.st15{clip-path:url(#SVGID_00000005237959490069637000000016399768506162448003_);}
	.st16{font-size:16px;}
</style>
<g>
	<g>
		<g>
			<g>
				<g>
					<line class="st0" x1="40" y1="381.3" x2="35" y2="381.3"/>
					<line class="st0" x1="40" y1="347.6" x2="35" y2="347.6"/>
					<line class="st0" x1="40" y1="313.9" x2="35" y2="313.9"/>
					<line class="st0" x1="40" y1="280.1" x2="35" y2="280.1"/>
					<line class="st0" x1="40" y1="246.4" x2="35" y2="246.4"/>
					<line class="st0" x1="40" y1="212.7" x2="35" y2="212.7"/>
					<line class="st0" x1="40" y1="178.9" x2="35" y2="178.9"/>
					<line class="st0" x1="40" y1="145.2" x2="35" y2="145.2"/>
					<line class="st0" x1="40" y1="111.5" x2="35" y2="111.5"/>
					<line class="st0" x1="40" y1="77.7" x2="35" y2="77.7"/>
					<line class="st0" x1="40" y1="44" x2="35" y2="44"/>
					<line class="st0" x1="40" y1="10.3" x2="35" y2="10.3"/>
				</g>
				<g transform="translate(30, 0)">
					<text transform="matrix(1 0 0 1 -16.6816 384.9093)" class="st1 st2 st3">0.7</text>
					<text transform="matrix(1 0 0 1 -16.6816 351.1801)" class="st4 st2 st3">0.8</text>
					<text transform="matrix(1 0 0 1 -16.6816 317.4509)" class="st4 st2 st3">0.9</text>
					<text transform="matrix(1 0 0 1 -6.6738 283.7217)" class="st4 st2 st3">1</text>
					<text transform="matrix(1 0 0 1 -16.6816 249.9925)" class="st4 st2 st3">1.1</text>
					<text transform="matrix(1 0 0 1 -16.6816 216.2632)" class="st4 st2 st3">1.2</text>
					<text transform="matrix(1 0 0 1 -16.6816 182.5341)" class="st4 st2 st3">1.3</text>
					<text transform="matrix(1 0 0 1 -16.6816 148.8048)" class="st4 st2 st3">1.4</text>
					<text transform="matrix(1 0 0 1 -16.6816 115.0756)" class="st4 st2 st3">1.5</text>
					<text transform="matrix(1 0 0 1 -16.6816 81.3464)" class="st4 st2 st3">1.6</text>
					<text transform="matrix(1 0 0 1 -16.6816 47.6172)" class="st4 st2 st3">1.7</text>
					<text transform="matrix(1 0 0 1 -16.6816 13.888)" class="st1 st2 st3">1.8</text>
				</g>
				<line class="st0" x1="40" y1="9.5" x2="40" y2="386.5"/>
			</g>
		</g>
		<g>
			<defs>
				<rect id="SVGID_1_" x="40" y="9.5" width="499" height="377"/>
			</defs>
			<clipPath id="SVGID_00000114759066153303477900000002534180963680413075_">
				<use xlink:href="#SVGID_1_"  style="overflow:visible;"/>
			</clipPath>
			<g transform="translate(40, 0)" style="clip-path:url(#SVGID_00000114759066153303477900000002534180963680413075_);">
				<g>
					<g>
						<g>
							<line class="st6" x1="4" y1="9.5" x2="4" y2="386.5"/>
							<line class="st6" x1="36.1" y1="9.5" x2="36.1" y2="386.5"/>
							<line class="st6" x1="68.3" y1="9.5" x2="68.3" y2="386.5"/>
							<line class="st6" x1="100.4" y1="9.5" x2="100.4" y2="386.5"/>
							<line class="st6" x1="132.6" y1="9.5" x2="132.6" y2="386.5"/>
							<line class="st6" x1="164.8" y1="9.5" x2="164.8" y2="386.5"/>
							<line class="st6" x1="196.9" y1="9.5" x2="196.9" y2="386.5"/>
							<line class="st6" x1="229.1" y1="9.5" x2="229.1" y2="386.5"/>
							<line class="st6" x1="261.3" y1="9.5" x2="261.3" y2="386.5"/>
							<line class="st6" x1="293.4" y1="9.5" x2="293.4" y2="386.5"/>
							<line class="st6" x1="325.6" y1="9.5" x2="325.6" y2="386.5"/>
							<line class="st6" x1="357.8" y1="9.5" x2="357.8" y2="386.5"/>
							<line class="st6" x1="389.9" y1="9.5" x2="389.9" y2="386.5"/>
							<line class="st6" x1="422.1" y1="9.5" x2="422.1" y2="386.5"/>
							<line class="st6" x1="454.3" y1="9.5" x2="454.3" y2="386.5"/>
							<line class="st6" x1="486.4" y1="9.5" x2="486.4" y2="386.5"/>
						</g>
						<g>
							<line class="st6" x1="0" y1="381.3" x2="499" y2="381.3"/>
							<line class="st6" x1="0" y1="347.6" x2="499" y2="347.6"/>
							<line class="st6" x1="0" y1="313.9" x2="499" y2="313.9"/>
							<line class="st6" x1="0" y1="280.1" x2="499" y2="280.1"/>
							<line class="st6" x1="0" y1="246.4" x2="499" y2="246.4"/>
							<line class="st6" x1="0" y1="212.7" x2="499" y2="212.7"/>
							<line class="st6" x1="0" y1="178.9" x2="499" y2="178.9"/>
							<line class="st6" x1="0" y1="145.2" x2="499" y2="145.2"/>
							<line class="st6" x1="0" y1="111.5" x2="499" y2="111.5"/>
							<line class="st6" x1="0" y1="77.7" x2="499" y2="77.7"/>
							<line class="st6" x1="0" y1="44" x2="499" y2="44"/>
							<line class="st6" x1="0" y1="10.3" x2="499" y2="10.3"/>
						</g>
					</g>
				</g>
				<g>
					<g>
						<line class="st7" x1="0" y1="617.4" x2="499" y2="617.4"/>
					</g>
				</g>
				<g>
					<g>
						<line class="st7" x1="4" y1="9.5" x2="4" y2="386.5"/>
					</g>
				</g>
				<g>
					<g>
						<g>
							<g>
								<g>
									<path class="st8" d="M4,383.5l16.1,0l16.1-0.5l16.1,0l16.1-0.4l16.1-0.1l16.1-1.1l16.1-0.9l16.1-3.9l16.1-5.7l16.1-7.4
										l16.1-2.2l16.1-12.5l16.1-18l16.1-12.1l16.1-11.6l16.1-24.5l16.1-4.8l16.1,3l16.1-2.9l16.1-40.6l16.1,52.9l16.1-20
										l16.1,15.3"/>
								</g>
								<g>
									<path class="st9" d="M4,383.5l16.1-0.1l16.1,0.2l16.1-0.2l16.1-0.5l16.1-0.6l16.1-7l16.1,1.9l16.1-6.3l16.1-14.6l16.1-8.7
										l16.1-17.3l16.1,10.7l16.1-20l16.1,20.7l16.1-6.5"/>
								</g>
								<g>
									<path class="st10" d="M4,383.6l16.1-0.1l16.1,0l16.1-1.1l16.1-0.3l16.1,0.2l16.1-6l16.1-3.3l16.1-3.2l16.1-1.6l16.1-11.7
										l16.1-16l16.1,16.3l16.1-18.2l16.1-15l16.1,5.3l16.1-59.2l16.1,32.9l16.1-55.9l16.1,13.9l16.1-15.5l16.1-9.3l16.1-31
										l16.1,0"/>
								</g>
								<g>
									<path class="st11" d="M4,383.5l16.1-0.1l16.1-0.5l16.1-0.2l16.1-1l16.1-4l16.1,2.4l16.1-1.2l16.1-11.9l16.1,4.8l16.1-2.4
										l16.1-4.3l16.1-4.7L213,354l16.1-4.1l16.1-1.2l16.1-3.5l16.1-17.4l16.1,8.4l16.1-23.2l16.1-12.8l16.1-5.8l16.1-11.9"/>
								</g>
								<g>
									<path class="st12" d="M4,383.5l16.1-0.1l16.1-0.1l16.1-0.1l16.1-0.6l16.1-0.7l16.1-3.3l16.1,0.1l16.1-8.2l16.1,0.2
										l16.1-0.5l16.1-4.2"/>
								</g>
								<g>
									<path class="st8" d="M4,383.7l16.1,0l16.1,0l16.1-0.3l16.1-0.7l16.1,0.3l16.1-0.5l16.1-0.5l16.1-2l16.1,0.3l16.1-1.7
										l16.1-16.1l16.1,1.8L213,346"/>
								</g>
								<g>
									<path class="st9" d="M4,383.6l16.1,0l16.1-0.3l16.1,0.1l16.1-0.3l16.1-1.2l16.1-2.6l16.1-3l16.1-3.1l16.1-1.6l16.1-6.4
										l16.1-8.4l16.1-0.5L213,362l16.1-4.1l16.1-29.7l16.1-1.3l16.1-26.5l16.1,12.7l16.1-29.6l16.1,3.7l16.1-2.9l16.1-29
										l16.1,0.7l16.1-10.7l16.1,3.5l16.1-70.7l16.1,4.2"/>
								</g>
								<g>
									<path class="st10" d="M4,383.6l16.1,0l16.1,0.1l16.1-0.1l16.1-0.3l16.1-1.1l16.1,0.4l16.1-2.9l16.1-2.1l16.1-5.6l16.1-4.9
										l16.1-6l16.1,0.8l16.1-18.3l16.1-16.4l16.1,18.7l16.1-13.7l16.1-10.9l16.1-1.8l16.1,4.8"/>
								</g>
								<g>
									<path class="st13" d="M4,383.4L20,383l16.1,0.4l16.1-0.5l16.1-0.1l16.1-0.8l16.1-0.8l16.1,0.3l16.1-4.2l16.1-2.9l16.1-5.6
										l16.1-7.8l16.1-3.5l16.1-12.1l16.1-38l16.1-10.7l16.1,6.8l16.1-9l16.1-23.5l16.1-21.5l16.1,22.9l16.1-76.6l16.1-31.3
										l16.1,7.2l16.1-5.8"/>
								</g>
								<g>
									<path class="st12" d="M4,382.1l16.1,0.2l16.1-0.6l16.1-1.4l16.1-2.6l16.1-0.4l16.1-2.7l16.1-17l16.1,13.9l16.1-13.9
										l16.1,0.2l16.1-35.4l16.1,23.2l16.1-17.4l16.1-14.6l16.1-6.9l16.1-32.6l16.1,23l16.1-34.8l16.1-73.8l16.1,35.6l16.1,38.7
										l16.1,24.9l16.1-34.8l16.1-17.5l16.1-31l16.1,17.2l16.1-27.4l16.1-78.9l16.1,8.5"/>
								</g>
								<g>
									<path class="st8" d="M4,383.4l16.1,0.2l16.1,0.1l16.1-0.1l16.1-0.4l16.1-0.1l16.1,0.7l16.1-1.9l16.1-4.8l16.1-2.7
										l16.1-16.9l16.1-11.6l16.1,7.9l16.1-21.1l16.1-39.8l16.1,38.4l16.1-15"/>
								</g>
								<g>
									<path class="st9" d="M4,383.4l16.1,0l16.1-0.5l16.1-0.3l16.1-0.1l16.1-0.6l16.1-2.7l16.1-1.1l16.1-3.5l16.1-1.9l16.1-8.5
										l16.1-12l16.1-9.7l16.1-22.5l16.1-9.9l16.1-4l16.1-18.4l16.1,12.4l16.1-21.9l16.1,2.4l16.1-11.4l16.1-32.6l16.1,35.6
										l16.1-22.6l16.1-16.4l16.1-35.8l16.1-3.2l16.1-34.1l16.1,24.5l16.1-44.2"/>
								</g>
								<g>
									<path class="st14" d="M4,383.4l16.1-0.8l16.1,0.2l16.1,0.3l16.1,0.4l16.1-0.1l16.1-2.5l16.1-0.7l16.1-3l16.1,0.5l16.1-7.1
										l16.1-2.2l16.1,2l16.1-22l16.1-2.5l16.1,2.7l16.1,6.3l16.1-3.9"/>
								</g>
								<g>
									<path class="st13" d="M4,383l16.1-0.1l16.1-0.4l16.1-0.2l16.1-0.5l16.1-0.4l16.1-2l16.1-2.9l16.1-7.2l16.1-1.2l16.1-2
										l16.1-5.4l16.1-30l16.1,19.5l16.1-47.2l16.1-42.2l16.1,77.8l16.1-56.3l16.1,43.7l16.1-22.1l16.1,13.5l16.1-170.9l16.1,69.7
										l16.1-126.7l16.1,183.1l16.1-4l16.1-13.1l16.1,15.3l16.1-92.7l16.1,84.1"/>
								</g>
								<g>
									<path class="st12" d="M4,383.6l16.1-0.3l16.1,0l16.1-0.6l16.1-0.7l16.1-0.8l16.1-0.4l16.1-3.1l16.1-0.2l16.1-3l16.1-2.8
										l16.1-7.5l16.1-12.2l16.1,9.3l16.1-6.7l16.1-0.5l16.1-10.3l16.1-6.4l16.1-16.1l16.1-2.2l16.1-29.8l16.1-26l16.1,58.8
										l16.1-44.9l16.1,4.1l16.1-51.1l16.1,42.8l16.1-24.4l16.1,19.1l16.1-9.3"/>
								</g>
								<g>
									<path class="st8" d="M4,383.6l16.1,0l16.1-0.3l16.1,0.2l16.1-0.7l16.1-0.5l16.1-2.8l16.1-1.2l16.1-0.1l16.1-5.1l16.1-5.3
										l16.1-6.1l16.1-0.8l16.1,1.4l16.1-1.2l16.1-3.9l16.1-6l16.1-24.5l16.1,14.9l16.1-9.3l16.1-11.4l16.1-10.6l16.1-16.7
										l16.1-0.4l16.1-16.7l16.1,16.8l16.1-31.4l16.1-14.4l16.1,18.5l16.1-46.9"/>
								</g>
								<g>
									<path class="st11" d="M4,383.7l16.1-0.4l16.1-0.3l16.1,0.7l16.1,0l16.1-1.3l16.1,0.8l16.1-2.2l16.1-1.9l16.1-0.2l16.1-3.1
										l16.1-12.8l16.1-7l16.1-4.8l16.1-9.4l16.1-12.4l16.1-11.1l16.1-29.2l16.1-63.7l16.1,71.4l16.1-37.3l16.1,3.1l16.1-30.1
										l16.1,13.2"/>
								</g>
								<g>
									<path class="st14" d="M4,382.6l16.1,0.1l16.1-0.8l16.1,0.3l16.1-0.1l16.1-1.7l16.1-2.9l16.1,2.6l16.1-0.7l16.1-2.3
										l16.1-24.6l16.1,6.7l16.1,5l16.1-19l16.1,3.9l16.1-20.1l16.1-3.7l16.1-27.9l16.1-12.9"/>
								</g>
								<g>
									<path class="st13" d="M4,383.5l16.1,0.2l16.1-0.1l16.1-0.2l16.1,0.2l16.1-0.8l16.1-0.3l16.1-0.9l16.1-4.2l16.1-1.8
										l16.1-8.5l16.1-5.8l16.1-9.5l16.1-40l16.1,4.7l16.1-4.9l16.1-93.3"/>
								</g>
								<g>
									<path class="st12" d="M4,383.5L20,383l16.1-0.3l16.1-0.5l16.1-1.2l16.1,1.3l16.1-3l16.1,1.5l16.1-3.6l16.1-9.3l16.1,4.2
										l16.1-12.1l16.1-17.5l16.1,7.3l16.1-29.1l16.1-33.5l16.1,43.1l16.1-36.7l16.1-12.6l16.1,18.5l16.1-6.6l16.1-37.1
										l16.1-140.4l16.1,99.7l16.1,10.2l16.1-34.2l16.1,45.3l16.1-37.2l16.1-37.8l16.1,27.7"/>
								</g>
								<g>
									<path class="st10" d="M4,383.2l16.1,0.1l16.1,0.2l16.1-0.4l16.1,0.6l16.1-0.3l16.1-1l16.1-1.7l16.1-1.7l16.1-13.9l16.1,7.3
										l16.1-2.8l16.1-6.8l16.1-26.8l16.1-13.3l16.1,2l16.1-2.1l16.1-56.4l16.1,39l16.1-44.1l16.1,30.7l16.1-2.7l16.1-44.1
										l16.1,20.4l16.1-0.6l16.1-26.6l16.1-51.5"/>
								</g>
								<g>
									<path class="st11" d="M4,382.7l16.1-0.2l16.1-0.1l16.1,0l16.1-1l16.1,1.8l16.1-0.5l16.1-1l16.1-5l16.1,1.9l16.1-18.5
										l16.1,9.1l16.1-1.3l16.1-33l16.1,20.1l16.1-14.1l16.1-24.9l16.1-3.8l16.1-32.2l16.1,27.2l16.1-20.2l16.1,5.8l16.1-57.8
										l16.1,2.1l16.1,36l16.1-37.4l16.1-144.6l16.1,138.2l16.1-32.1l16.1-13.1"/>
								</g>
								<g>
									<path class="st14" d="M4,383l16.1-0.6l16.1-0.2l16.1-0.4l16.1-0.4l16.1-0.1l16.1-1.1l16.1-2.8l16.1-12.3l16.1,8.1l16.1-3.6
										l16.1-38.8l16.1,27l16.1-1l16.1-9.3l16.1-10.2l16.1,8l16.1-14.5l16.1-21l16.1,1.2l16.1-55l16.1,51.8l16.1-46.9l16.1,14"/>
								</g>
								<g>
									<path class="st13" d="M4,383.1l16.1,0.1l16.1-0.2l16.1,0l16.1-1.2l16.1,0.3l16.1-0.8l16.1-1.2l16.1-2l16.1-5.9l16.1-1.2
										l16.1-1.7l16.1-6.9l16.1-3.4l16.1-12.3l16.1,2.1l16.1-8.9l16.1-19.5l16.1,0.1l16.1-8.5l16.1-107.5l16.1,96.7l16.1-85
										l16.1-74.1l16.1,123.6L406,260l16.1-15.5l16.1-233l16.1,184.7l16.1,9.3"/>
								</g>
								<g>
									<path class="st13" d="M4,383.6l16.1-0.1l16.1,0.2l16.1-0.3l16.1-0.1l16.1,0.2l16.1-0.6l16.1-1.2l16.1-2.8l16.1-4.2
										l16.1-3.4l16.1-1.2l16.1-6.9l16.1-3.6l16.1-4.9l16.1-8.4l16.1,2.8l16.1-8.1l16.1-11.6l16.1-6.8l16.1-6.4l16.1,8.3
										l16.1-18.8l16.1-4.3l16.1,1.6l16.1-2.8l16.1-4.2l16.1-3l16.1-17.6l16.1-12.4"/>
								</g>
								<g>
									<path class="st12" d="M4,383.7l16.1,0l16.1,0.1l16.1-0.1l16.1-1.4l16.1-0.1l16.1-1.1l16.1-0.1l16.1,1.7l16.1-3.6l16.1-4.7
										l16.1-3.2l16.1-2.8l16.1-1l16.1-1.4l16.1-3.3l16.1-9.1l16.1,4.7l16.1-9.7l16.1-5l16.1-4.2l16.1-37.9l16.1,25.7l16.1,3.3
										l16.1-3.3l16.1-18.7"/>
								</g>
								<g>
									<path class="st8" d="M4,383.6l16.1-0.1l16.1,0.1l16.1-0.5l16.1-1l16.1-0.7l16.1-3.5l16.1,1.1l16.1-3.8l16.1-4.8l16.1-4.4
										l16.1-6.6l16.1-2.6l16.1-13.1l16.1,2.7l16.1-10.1l16.1-3.8l16.1-23.9"/>
								</g>
								<g>
									<path class="st9" d="M4,383.6l16.1,0l16.1-0.2l16.1,0l16.1-0.3l16.1-0.7l16.1-5.2l16.1-0.5l16.1-5.4l16.1-8.6l16.1-6.4
										l16.1-24.8l16.1,4.6l16.1-28.5"/>
								</g>
								<g>
									<path class="st14" d="M4,383.6l16.1-0.1l16.1,0l16.1-0.1l16.1,0.1l16.1-0.7l16.1-1.6l16.1-2.7l16.1-3.8l16.1-2.4l16.1-6.6
										l16.1,0.4l16.1-0.5"/>
								</g>
								<g>
									<path class="st13" d="M4,382.1l16.1,0.6l16.1,0.2l16.1,0.4l16.1-0.1l16.1,0.2l16.1,0l16.1,0.3l16.1,1.2l16.1-3l16.1-3.4
										l16.1,1.3l16.1-0.6l16.1-0.5l16.1,1.1l16.1-3.3l16.1-8.9l16.1,9.3l16.1-1.8l16.1-5.5"/>
								</g>
								<g>
									<path class="st12" d="M4,383.6l16.1-0.3l16.1-0.4l16.1,0l16.1-0.4l16.1-1.9l16.1-1.4l16.1-2.5l16.1-0.8l16.1-3.5l16.1-4.3
										l16.1-8.5"/>
								</g>
								<g>
									<path class="st8" d="M4,383.7l16.1,0l16.1,0l16.1,0l16.1,0.4l16.1-0.2l16.1-0.3l16.1-0.2l16.1-0.3l16.1-3.2l16.1-6
										l16.1-2.4l16.1-17.4l16.1,12.5l16.1-6.4l16.1-22.9l16.1,10.4l16.1-11.1l16.1,2.3l16.1,8.3"/>
								</g>
								<g>
									<path class="st11" d="M4,383.6l16.1-0.1l16.1-0.6l16.1-0.2l16.1-1.9l16.1,0.9l16.1-1.3l16.1-3.8l16.1-1l16.1-2.4l16.1-3.7
										l16.1-3.5"/>
								</g>
								<g>
									<path class="st14" d="M4,383.5l16.1-0.1l16.1-0.2l16.1-0.1l16.1-0.3l16.1-0.4l16.1-3.7l16.1,0l16.1-2.1l16.1-10.1l16.1-4.1
										l16.1-4.3l16.1-8.6l16.1,8.4"/>
								</g>
								<g>
									<path class="st13" d="M4,383.7l16.1,0l16.1-0.2l16.1,0.1l16.1,0.2l16.1-0.8l16.1-0.5l16.1-1.4l16.1,0.9l16.1-7.4l16.1-1.4
										l16.1-16.4l16.1,0.8l16.1-11.7l16.1-8.6l16.1-8.5l16.1-10.5l16.1,3.2l16.1-29.2"/>
								</g>
								<g>
									<path class="st12" d="M4,383.4l16.1,0l16.1,0.2l16.1-0.1l16.1,0.4l16.1-0.1l16.1,0.1l16.1-3.1l16.1-1.1l16.1-3l16.1-6.7
										l16.1,0.2l16.1-2.9l16.1-6.7l16.1-2.2l16.1-9.7l16.1-9.3l16.1-3.1l16.1-8.3"/>
								</g>
								<g>
									<path class="st10" d="M4,383.4l16.1,0l16.1-0.4l16.1,0l16.1-0.7l16.1,0.4l16.1-1.1l16.1,0.8l16.1-3.4l16.1-5.1l16.1-1.2
										l16.1-3l16.1-1.4l16.1-9.9l16.1,9.4l16.1-5.7l16.1,0.8l16.1-9.3l16.1-26.2"/>
								</g>
								<g>
									<path class="st11" d="M4,383l16.1-0.1l16.1,0.2l16.1,0.2l16.1-0.5l16.1,0.4l16.1-1.7l16.1-1.1l16.1-1.5l16.1-2l16.1-1.5
										l16.1-0.8l16.1-9.9l16.1-5l16.1-2.7l16.1-0.8l16.1-12.6l16.1,8.2"/>
								</g>
								<g>
									<path class="st14" d="M4,383.7l16.1,0l16.1,0l16.1,0.1l16.1,0.1l16.1-0.4l16.1,0l16.1-1.1l16.1-0.6l16.1-1.8l16.1-6.6
										l16.1,0.5l16.1,0.4L213,374l16.1-4.4l16.1-1l16.1-2.7l16.1-12l16.1-2.7l16.1-9.4l16.1,0.5l16.1,3.2"/>
								</g>
								<g>
									<path class="st13" d="M4,383.6l16.1-0.3l16.1,0l16.1,0l16.1-0.4l16.1-0.3l16.1-4.4l16.1,2.1l16.1-0.8l16.1-3.2l16.1-8.7
										l16.1,2.3l16.1-9l16.1-21.9l16.1,3.5l16.1-17.4l16.1,2.6l16.1-26.1"/>
								</g>
								<g>
									<path class="st9" d="M4,383.2L20,383l16.1,0l16.1-0.3l16.1-0.1l16.1,0.1l16.1-0.1l16.1-0.2l16.1-1.1l16.1-2.7l16.1-5
										l16.1-2.2l16.1-9.8l16.1-13.3l16.1,5.1l16.1-15.1l16.1-15.6l16.1-9.1l16.1,0.1"/>
								</g>
								<g>
									<path class="st10" d="M4,383.4l16.1,0.2l16.1-0.3l16.1-0.2l16.1-0.3l16.1,0l16.1,0.4l16.1-1.2l16.1-0.4l16.1-3l16.1-2
										l16.1-6.1l16.1-15.4l16.1,5.5l16.1-4.5l16.1-22.3l16.1,7l16.1,4.2l16.1-25.2l16.1,14.5l16.1-22.9l16.1-18.7l16.1-7.3
										l16.1-16.7l16.1,8.7"/>
								</g>
								<g>
									<path class="st11" d="M4,383.2L20,383l16.1,0.1l16.1,0l16.1-1l16.1,0l16.1-1.4l16.1,2.3l16.1-1.7l16.1-2.4l16.1-2.4
										l16.1-4.2"/>
								</g>
								<g>
									<path class="st14" d="M4,383.7l16.1-0.2l16.1-0.4l16.1-0.3l16.1-0.7l16.1,0.2l16.1-1.1l16.1-0.5l16.1-0.7l16.1-4.4
										l16.1-0.3l16.1-20.5l16.1,14.5l16.1-13.4"/>
								</g>
								<g>
									<path class="st8" d="M4,383.8l16.1,0l16.1,0.3l16.1-0.5l16.1,0l16.1-0.7l16.1-1.1l16.1,0.5l16.1-2.1l16.1-3l16.1-5.9
										l16.1-3.3l16.1-1.2L213,351l16.1,5.7l16.1-6.9l16.1-6.4"/>
								</g>
								<g>
									<path class="st9" d="M4,383.9l16.1,0l16.1,0.2l16.1,0.2l16.1-0.6l16.1-0.4l16.1-0.9l16.1-0.6l16.1,0.3l16.1-3.7l16.1-0.9
										l16.1-1.1l16.1-0.1l16.1-5.5l16.1-1.8l16.1,0.5l16.1-17.1l16.1,13.3"/>
								</g>
								<g>
									<path class="st10" d="M4,383.1L20,383l16.1-0.1l16.1-0.8l16.1-0.8l16.1-0.7l16.1-0.8l16.1,0.3l16.1-2.9l16.1-1.6l16.1-2.2
										l16.1-2.1l16.1-0.9L213,360l16.1,1.1l16.1-7l16.1-2.2l16.1,7.7l16.1-21.2l16.1,1.8l16.1,3"/>
								</g>
								<g>
									<path class="st11" d="M4,383.7l16.1,0.2l16.1-0.4l16.1-1.1l16.1,0.2l16.1,1l16.1,0l16.1-4.1l16.1,0.6l16.1-0.2l16.1-2.5
										l16.1-0.1l16.1-6.8l16.1,1.9l16.1,1.7l16.1-5.4l16.1-3.6l16.1,1.7l16.1-22.2l16.1,17.5l16.1-1.6l16.1-5.7l16.1-1.7
										l16.1-18.3l16.1,17.9l16.1-8.9l16.1-24.7l16.1,15.8l16.1-8.2l16.1-26"/>
								</g>
								<g>
									<path class="st11" d="M4,383.1l16.1-0.7l16.1-0.1l16.1-1.2l16.1-0.7l16.1-1l16.1,0.3l16.1-12.5l16.1,10.1l16.1,1.2
										l16.1-3.2l16.1,2.3l16.1-4.2l16.1,2.9l16.1-2.6l16.1-4.7l16.1,2.2"/>
								</g>
								<g>
									<path class="st14" d="M4,382.1l16.1,0.7l16.1-1.7l16.1-0.6l16.1-1.8l16.1,0.1l16.1,1.3l16.1-1.1l16.1-0.2l16.1-1.2
										l16.1,0.5l16.1-11l16.1,2.2l16.1-8.4l16.1,0.8l16.1,2.3l16.1-1.5l16.1-0.8l16.1-3.5l16.1-15l16.1,0.8l16.1-6.5l16.1-13.1
										l16.1,27.2"/>
								</g>
								<g>
									<path class="st13" d="M4,383.6l16.1,0.3l16.1,0.1l16.1-0.2l16.1-1.9l16.1-3l16.1,1.4l16.1,0.3l16.1-0.7l16.1-0.1l16.1-11
										l16.1,1.7l16.1-9.9l16.1-15.6l16.1-14.2l16.1,8.5l16.1,0.6l16.1-20.8l16.1-9.3l16.1-0.4l16.1,10.2l16.1,30.4"/>
								</g>
								<g>
									<path class="st12" d="M4,383.3l16.1-0.6l16.1,0.8l16.1-0.8l16.1-3.5l16.1,0l16.1-1.9l16.1-2.1l16.1-1.6l16.1-10.5l16.1-3.5
										l16.1-5.1l16.1,2.3l16.1-16.7l16.1-9"/>
								</g>
								<g>
									<path class="st10" d="M4,383.1l16.1,0.1l16.1,0l16.1,0.1l16.1-1.7l16.1,0.5l16.1,0l16.1-0.4l16.1-2.7l16.1-0.2l16.1,1.9
										l16.1-4.7l16.1-5.6L213,370l16.1,5.6l16.1-0.3l16.1-0.7l16.1-6l16.1-1.2l16.1,3l16.1-4.9l16.1,5.3l16.1-2.3l16.1,0.5
										l16.1-7.1l16.1-15.8l16.1-14l16.1,18.6"/>
								</g>
								<g>
									<path class="st11" d="M4,383l16.1-0.4l16.1-0.5l16.1,0.5l16.1-0.6l16.1-1.1l16.1-3.4l16.1-5.3l16.1,0.4l16.1,1.3l16.1,2.1
										l16.1-3l16.1-5.2l16.1-9.8l16.1,4l16.1,7.8"/>
								</g>
								<g>
									<path class="st14" d="M4,383.5l16.1-0.1l16.1-0.3l16.1,0l16.1-1l16.1,0.2l16.1-1.9l16.1,0.1l16.1-1.7l16.1-1.4l16.1-1.5
										l16.1,0.1l16.1-5.1l16.1-2.3l16.1-3.7l16.1-3.2l16.1,3.1l16.1-1.6l16.1-5.5"/>
								</g>
								<g>
									<path class="st13" d="M4,383.6l16.1,0l16.1-0.3l16.1-0.7l16.1-1.9l16.1-0.2l16.1,0.5l16.1-3.7l16.1-1l16.1-2.5l16.1-2.6
										l16.1-2.9l16.1-9.7l16.1-2.8"/>
								</g>
								<g>
									<path class="st9" d="M4,383.6l16.1-0.4l16.1,0.2l16.1-0.4l16.1-1l16.1,0.6l16.1-0.5l16.1-1.8l16.1,1.7l16.1-0.4l16.1-2.5
										l16.1-5l16.1-3.7l16.1-0.3l16.1-5.4l16.1-4.5l16.1,4.8l16.1-20.5l16.1,5.9l16.1-5.2l16.1-65.8l16.1,58.5l16.1-19l16.1,14
										l16.1,16.2l16.1-31.1l16.1,35.5l16.1-53.2"/>
								</g>
								<g>
									<path class="st10" d="M4,383.3l16.1-0.1l16.1-0.9l16.1,0.8l16.1-3.6l16.1-6.1l16.1-3.6l16.1-5.5l16.1,3.1l16.1,5.5
										l16.1-10.5l16.1-11.3l16.1,4.8l16.1,5.5l16.1-16.7l16.1-7.6l16.1,9.5l16.1-11.9l16.1,11.5l16.1-32.9l16.1,1.3l16.1,0.9
										l16.1-7.7l16.1-21l16.1,1.6l16.1-63.3"/>
								</g>
								<g>
									<path class="st11" d="M4,383.4l16.1,0l16.1-1l16.1,0.8l16.1-0.8l16.1-0.2l16.1-1.8l16.1-1.8l16.1-2l16.1-0.3l16.1-17.5
										l16.1,9.5l16.1-15.4l16.1-1.6"/>
								</g>
								<g>
									<path class="st14" d="M4,383l16.1,0.8l16.1-0.4l16.1-0.1l16.1,0.4l16.1-0.9l16.1-1l16.1-2.4l16.1-6.2l16.1-1.3l16.1-9.2
										l16.1-2.3l16.1-9.2l16.1-5.6"/>
								</g>
								<g>
									<path class="st8" d="M4,383.3L20,383l16.1-0.2l16.1-0.1l16.1-1.9l16.1,2l16.1-2l16.1,1.4l16.1-3.5l16.1-1.8l16.1-0.2
										l16.1-2.5l16.1-1.2l16.1-3.6l16.1,1l16.1-8l16.1,2.9l16.1-5.2"/>
								</g>
								<g>
									<path class="st9" d="M4,383.4l16.1,0l16.1-0.3l16.1,0l16.1-0.4l16.1-0.1l16.1-0.1l16.1-1.7l16.1-2.9l16.1,0.6l16.1-1.1
										l16.1-3.7l16.1,3.1l16.1-9.9l16.1,4.9l16.1,1.3l16.1-6.6l16.1,2.5l16.1-3.7"/>
								</g>
								<g>
									<path class="st10" d="M4,383.4l16.1-0.2l16.1-0.4l16.1,0.2l16.1-0.3l16.1-1l16.1-1.3l16.1-2.3l16.1-8l16.1,1.8l16.1,0.9
										l16.1-15.3l16.1,6.3l16.1-9l16.1,5.4l16.1,4.6l16.1-7.9l16.1-5.4"/>
								</g>
								<g>
									<path class="st11" d="M4,382.7l16.1-1.3l16.1-0.6l16.1-2.4l16.1,0.8l16.1-1.7l16.1,2.1l16.1-3l16.1,1.7l16.1-8.3l16.1,5.6
										l16.1-6.2l16.1,1.3L213,363l16.1,3.2l16.1-0.5l16.1-4.5l16.1,10l16.1-13.1l16.1,3.9l16.1,0.6l16.1-13.2l16.1,9.2l16.1-5.7
										l16.1-4.3l16.1,11.6l16.1-7.3l16.1-1.6l16.1-8.6l16.1,6.5"/>
								</g>
								<g>
									<path class="st12" d="M4,383.3l16.1-0.1l16.1,0l16.1-0.3l16.1-0.6l16.1,0.1l16.1-0.5l16.1-0.7l16.1-2.6l16.1-0.5l16.1-1.2
										l16.1-6l16.1,1l16.1-1.6l16.1-3.4l16.1-4.7l16.1,5l16.1-5.2l16.1-7.5l16.1,13.2l16.1-15.8l16.1,7.8l16.1-27.8l16.1-26.2
										l16.1,40l16.1,7.6l16.1-1.2l16.1-14.4l16.1-18.8l16.1,17.3"/>
								</g>
								<g>
									<path class="st8" d="M4,383.6l16.1,0.1l16.1,0.1l16.1-0.2l16.1-0.2l16.1,0l16.1-0.1l16.1-0.1l16.1-0.1l16.1-0.8l16.1-3.2
										l16.1-5.7l16.1,3L213,367"/>
								</g>
								<g>
									<path class="st9" d="M4,383.3l16.1,0.1l16.1-1l16.1,1l16.1-0.2l16.1-0.2l16.1-0.6l16.1-1l16.1,0l16.1-0.8l16.1-2.5
										l16.1-0.9l16.1-2l16.1-3.5l16.1-2"/>
								</g>
								<g>
									<path class="st10" d="M4,383.7l16.1,0.1l16.1-0.7l16.1-0.1l16.1-0.7l16.1,0.1l16.1-2.1l16.1,0.6l16.1,0.3l16.1-1.2
										l16.1-2.9l16.1-4.1l16.1-1.4L213,371l16.1,1.5l16.1-3.9"/>
								</g>
								<g>
									<path class="st13" d="M4,384l16.1-0.1l16.1,0.3l16.1,0.1l16.1,0l16.1-0.2l16.1,0.3l16.1-1.2l16.1-0.5l16.1-2l16.1,1.2
										l16.1-3.9l16.1,3.9l16.1-3.3l16.1-3.9l16.1-5l16.1,5.9l16.1-2.1l16.1-6.6l16.1,2.5l16.1-25.8l16.1,26l16.1-10.8l16.1,5
										l16.1-7.5"/>
								</g>
								<g>
									<path class="st12" d="M4,382.7l16.1,0.6l16.1-0.5l16.1-0.4l16.1-2.1l16.1,1l16.1-1l16.1-0.3l16.1-0.5l16.1-2.7l16.1,2.2
										l16.1-2l16.1,1.4l16.1-3l16.1-7.6l16.1,0l16.1-5l16.1-4.3"/>
								</g>
								<g>
									<path class="st8" d="M4,383.2l16.1,0l16.1,0.2l16.1-0.4l16.1,0.2l16.1-0.6l16.1-0.9l16.1-1.2l16.1-0.3l16.1-6.2l16.1,1
										l16.1,4.5l16.1-1.6l16.1-2.3l16.1-0.8l16.1-4.5l16.1,3.4l16.1-6.7l16.1,5.5l16.1-20.1l16.1,14.2l16.1-1.7l16.1-2.1
										l16.1-2.3"/>
								</g>
								<g>
									<path class="st9" d="M4,383.8l16.1,0l16.1-0.6l16.1,0.2l16.1-0.3l16.1-0.4l16.1-0.9l16.1,1.2l16.1-1.3l16.1-8.7l16.1,7.6
										l16.1-2l16.1-3.4"/>
								</g>
								<g>
									<path class="st9" d="M4,383.2l16.1-0.1l16.1-0.3l16.1-1.4l16.1-1.5l16.1,0.9l16.1-1.7l16.1-0.1l16.1-1.8l16.1-0.6l16.1-2
										l16.1-2.6l16.1-7.8L213,367l16.1-14.5l16.1,8.7l16.1,0.5l16.1,4.1l16.1-15.1l16.1-3.1l16.1,7.4"/>
								</g>
								<g>
									<path class="st10" d="M4,383.6l16.1-0.1l16.1,0l16.1-0.4l16.1-1.1l16.1,0.6l16.1-3.3l16.1-0.5l16.1-1.6l16.1-2.4l16.1-0.7
										l16.1-3.4l16.1,1.8l16.1,1l16.1-13.5"/>
								</g>
								<g>
									<path class="st11" d="M4,383.2L20,383l16.1-0.1l16.1-1.3l16.1,0.7l16.1-1.4l16.1-3.9l16.1,1.7l16.1,0l16.1-1.1l16.1-7.6
										l16.1,3.8l16.1-11.9l16.1-8.8l16.1-16.1l16.1,20l16.1,1.1l16.1,8.1l16.1-7.4l16.1-0.6l16.1-28.4l16.1,12.2l16.1-9.8
										l16.1,7.5l16.1,3.1l16.1-6.2l16.1-26.8l16.1-0.3l16.1,11.4l16.1-12.3"/>
								</g>
								<g>
									<path class="st14" d="M4,383.5l16.1-0.5l16.1,0.5l16.1-0.9l16.1,0.5l16.1-1l16.1-4.2l16.1,0.7l16.1-2.1l16.1-4.2l16.1-2.8
										l16.1-5.6l16.1-3.1l16.1-3.3l16.1-0.7l16.1-8l16.1,5.2l16.1-3.6l16.1-2.9l16.1,3.3"/>
								</g>
								<g>
									<path class="st8" d="M4,383.5l16.1,0l16.1,0l16.1-0.4l16.1-0.2l16.1-0.1l16.1-0.4l16.1-2.2l16.1-3.1l16.1,0.9l16.1,1.7
										l16.1-1.6l16.1-0.2l16.1,0.1l16.1-2.3"/>
								</g>
								<g>
									<path class="st9" d="M4,383.7l16.1-0.2l16.1-0.2l16.1-0.3l16.1,0l16.1-0.9l16.1-1.4l16.1-2.6l16.1-1.3l16.1-2.3l16.1,2.5
										l16.1-2.2l16.1,2.5l16.1,2l16.1-1.8l16.1,1.9l16.1-0.5l16.1,0l16.1-1.3l16.1,0.4l16.1-3.7l16.1,0.1l16.1-2.6l16.1,5.3
										l16.1-6.8l16.1,2.4l16.1-6.7l16.1,6.6l16.1-0.8"/>
								</g>
								<g>
									<path class="st10" d="M4,383.6l16.1,0l16.1,0.1l16.1,0l16.1-0.6l16.1-0.9l16.1-1.2l16.1-1.7l16.1-3.7l16.1-0.1l16.1-1.5
										l16.1-0.1l16.1-4.1l16.1,0.3l16.1,0.1"/>
								</g>
								<g>
									<path class="st11" d="M4,383.6l16.1-0.1l16.1-0.3l16.1-0.5l16.1-1l16.1-3l16.1-3l16.1-1.4l16.1-4.6l16.1-3.2l16.1,2.7
										l16.1-0.5l16.1-13"/>
								</g>
								<g>
									<path class="st12" d="M4,383.5l16.1-0.1l16.1-0.1l16.1-0.8l16.1-0.2l16.1,0.2l16.1-2.3l16.1-1.6l16.1-0.9l16.1-0.6
										l16.1-3.8l16.1,2.4l16.1-6.2l16.1,1.7l16.1-13.4l16.1,10l16.1-1.4l16.1-10.3"/>
								</g>
								<g>
									<path class="st8" d="M4,383.5l16.1-0.1l16.1,0.2l16.1,0.2l16.1-0.6l16.1-0.4l16.1,0.1l16.1-2.2l16.1-0.8l16.1-4.4l16.1,1.2
										l16.1-12.7l16.1,9.3l16.1-5.9l16.1-7l16.1-10l16.1,9.8l16.1-31.4l16.1-3.8l16.1,3.3l16.1,10l16.1-22.1l16.1-15"/>
								</g>
								<g>
									<path class="st9" d="M4,383.5l16.1-0.8l16.1-0.1l16.1-1.1l16.1,0.6l16.1-0.1l16.1-5.5l16.1-0.3l16.1-21.2l16.1,9.3
										l16.1,2.6l16.1,1.3l16.1-7.5l16.1-27.2l16.1,24.1l16.1-6.9l16.1-48.3l16.1,1.7l16.1,26.8l16.1-29l16.1-20.3l16.1,50.8
										l16.1-19.2l16.1-0.5l16.1-12.2l16.1-36.2l16.1,18.1"/>
								</g>
								<g>
									<path class="st10" d="M4,383.3l16.1,0.1l16.1-0.2l16.1-0.5l16.1-0.8l16.1-0.9l16.1-2.3l16.1-4.5l16.1,1.2l16.1-2.7
										l16.1,0.1l16.1-4.6l16.1-7.8l16.1,2.5"/>
								</g>
								<g>
									<path class="st13" d="M4,383.1l16.1-0.2l16.1-0.1l16.1,0.4l16.1,0.6l16.1-0.1l16.1-0.2l16.1-0.6l16.1-3.9l16.1-0.2
										l16.1-0.8l16.1-3.8l16.1-2.9l16.1,2.2l16.1,9.3l16.1-8.9l16.1-10l16.1,0.5l16.1,2.8"/>
								</g>
								<g>
									<path class="st12" d="M4,383.2L20,383l16.1,0.3l16.1-0.4l16.1-0.6l16.1-0.2l16.1-0.8l16.1-0.4l16.1-2.3l16.1,0.8l16.1-1
										l16.1-2.5l16.1-2.7l16.1-15.3l16.1,11.6l16.1,1l16.1-1.8l16.1-0.3l16.1-10.4l16.1,0.5l16.1-1.6l16.1-1.8l16.1-8.6l16.1,3.7
										l16.1-15.9l16.1,4.7l16.1,1.1l16.1,1.4l16.1,1.2l16.1-7.1"/>
								</g>
								<g>
									<path class="st8" d="M4,383.5l16.1-0.4l16.1,0.4l16.1-0.3l16.1,0.1l16.1-1.9l16.1,1.6l16.1-0.6l16.1-0.2l16.1-2.5l16.1-4.3
										l16.1,4l16.1-3.2l16.1,1.5l16.1-1l16.1-3l16.1-1.6l16.1,1.3l16.1-0.8l16.1-14.5l16.1,0.8l16.1,0.6l16.1,1.5l16.1-8.8
										l16.1,1.7l16.1-7.2"/>
								</g>
								<g>
									<path class="st9" d="M4,383.3l16.1,0l16.1-0.5l16.1-0.3l16.1-0.5l16.1,0l16.1-1.4l16.1-1.8l16.1-1.8l16.1-3.3l16.1-4.1
										l16.1-2.9l16.1-4.5"/>
								</g>
								<g>
									<path class="st14" d="M4,383.5l16.1,0l16.1,0l16.1,0.4l16.1-0.6l16.1,0.2l16.1-0.1l16.1,0l16.1-0.4l16.1-1.9l16.1-1.3
										l16.1-1.6l16.1,2l16.1-5l16.1-1.6l16.1-3.1l16.1-4.2l16.1,5.3l16.1-10.2l16.1-0.7l16.1-8.7l16.1,11.5l16.1-28.9l16.1,13.7
										l16.1,2.7l16.1-3"/>
								</g>
								<g>
									<path class="st13" d="M4,383l16.1,0.4l16.1-0.2l16.1-0.1l16.1,0.1l16.1,0.2l16.1-0.9l16.1-1l16.1-0.7l16.1-3.8l16.1-2.8
										l16.1-1.8l16.1,2.3l16.1-4.3l16.1-0.7l16.1-12.2l16.1-7.4l16.1-22.2l16.1,33.2l16.1-11.3l16.1,5l16.1-3.1l16.1-29"/>
								</g>
								<g>
									<path class="st12" d="M4,383.6l16.1-0.1l16.1-0.2l16.1-0.1l16.1,0.1l16.1-0.4l16.1-0.7l16.1-0.4l16.1-0.8l16.1-1.9
										l16.1-1.1l16.1-1.4l16.1,0.3"/>
								</g>
								<g>
									<path class="st8" d="M4,383.6l16.1-0.8l16.1,0.2l16.1,0.3l16.1,0.1l16.1-0.7l16.1-0.9l16.1,1l16.1-1l16.1-1.6l16.1-2.5
										l16.1-2.1l16.1-0.2l16.1-0.2"/>
								</g>
								<g>
									<path class="st11" d="M4,383.5l16.1,0l16.1,0l16.1-0.1l16.1-0.2l16.1,0.2l16.1-1l16.1-1.7l16.1,0.8l16.1-2l16.1-1.4
										l16.1-9.7l16.1-4l16.1,4.4"/>
								</g>
								<g>
									<path class="st14" d="M4,383.5l16.1-0.2l16.1-0.2l16.1,0.4l16.1,0l16.1,0.1l16.1,0.1l16.1-0.2l16.1-2.8l16.1-0.3l16.1,0.1
										l16.1,0.3l16.1,0.2l16.1,0.5l16.1-19l16.1,8.9"/>
								</g>
								<g>
									<path class="st13" d="M4,383.4l16.1-0.2l16.1-0.1l16.1-0.3l16.1,0.3l16.1-1.3l16.1,0.6l16.1-0.6l16.1-0.2l16.1,0.4
										l16.1-2.9l16.1,1.6l16.1-3.9l16.1-0.3l16.1-0.1l16.1-2.6l16.1-11.3l16.1,7.4l16.1,2"/>
								</g>
								<g>
									<path class="st12" d="M4,383.1l16.1,0l16.1,0l16.1-0.6l16.1,0.1l16.1,0l16.1-1l16.1-0.7l16.1,1.2l16.1-1.7l16.1,0.6
										l16.1-0.5l16.1-2.7l16.1-6.2l16.1-4.9l16.1-0.2l16.1,7.5l16.1-4.9l16.1,7.8l16.1-1.9l16.1-4.7l16.1,2.7l16.1-4.3l16.1,1.1"
										/>
								</g>
							</g>
						</g>
					</g>
				</g>
			</g>
		</g>
		<g>
			<defs>
				<rect id="SVGID_00000161600328336475849700000015274810018295243704_" x="40" y="386.5" width="499" height="23"/>
			</defs>
			<clipPath id="SVGID_00000182524039425114391530000003805392840841486755_">
				<use xlink:href="#SVGID_00000161600328336475849700000015274810018295243704_"  style="overflow:visible;"/>
			</clipPath>
			<g transform="translate(40, 377)" style="clip-path:url(#SVGID_00000182524039425114391530000003805392840841486755_);">
				<g>
					<g>
						<line class="st0" x1="4" y1="9.5" x2="4" y2="14.5"/>
						<line class="st0" x1="36.1" y1="9.5" x2="36.1" y2="14.5"/>
						<line class="st0" x1="68.3" y1="9.5" x2="68.3" y2="14.5"/>
						<line class="st0" x1="100.4" y1="9.5" x2="100.4" y2="14.5"/>
						<line class="st0" x1="132.6" y1="9.5" x2="132.6" y2="14.5"/>
						<line class="st0" x1="164.8" y1="9.5" x2="164.8" y2="14.5"/>
						<line class="st0" x1="196.9" y1="9.5" x2="196.9" y2="14.5"/>
						<line class="st0" x1="229.1" y1="9.5" x2="229.1" y2="14.5"/>
						<line class="st0" x1="261.3" y1="9.5" x2="261.3" y2="14.5"/>
						<line class="st0" x1="293.4" y1="9.5" x2="293.4" y2="14.5"/>
						<line class="st0" x1="325.6" y1="9.5" x2="325.6" y2="14.5"/>
						<line class="st0" x1="357.8" y1="9.5" x2="357.8" y2="14.5"/>
						<line class="st0" x1="389.9" y1="9.5" x2="389.9" y2="14.5"/>
						<line class="st0" x1="422.1" y1="9.5" x2="422.1" y2="14.5"/>
						<line class="st0" x1="454.3" y1="9.5" x2="454.3" y2="14.5"/>
						<line class="st0" x1="486.4" y1="9.5" x2="486.4" y2="14.5"/>
					</g>
					<g transform="translate(0, 8)">
						<text transform="matrix(1 0 0 1 0.6133 20.9)" class="st4 st2 st3">0</text>
						<text transform="matrix(1 0 0 1 32.7781 20.9)" class="st4 st2 st3">2</text>
						<text transform="matrix(1 0 0 1 64.9429 20.9)" class="st4 st2 st3">4</text>
						<text transform="matrix(1 0 0 1 97.1077 20.9)" class="st4 st2 st3">6</text>
						<text transform="matrix(1 0 0 1 129.2724 20.9)" class="st4 st2 st3">8</text>
						<text transform="matrix(1 0 0 1 158.1003 20.9)" class="st4 st2 st3">10</text>
						<text transform="matrix(1 0 0 1 190.2651 20.9)" class="st4 st2 st3">12</text>
						<text transform="matrix(1 0 0 1 222.4299 20.9)" class="st4 st2 st3">14</text>
						<text transform="matrix(1 0 0 1 254.5947 20.9)" class="st4 st2 st3">16</text>
						<text transform="matrix(1 0 0 1 286.7595 20.9)" class="st4 st2 st3">18</text>
						<text transform="matrix(1 0 0 1 318.9243 20.9)" class="st4 st2 st3">20</text>
						<text transform="matrix(1 0 0 1 351.0891 20.9)" class="st4 st2 st3">22</text>
						<text transform="matrix(1 0 0 1 383.2539 20.9)" class="st4 st2 st3">24</text>
						<text transform="matrix(1 0 0 1 415.4187 20.9)" class="st4 st2 st3">26</text>
						<text transform="matrix(1 0 0 1 447.5835 20.9)" class="st4 st2 st3">28</text>
						<text transform="matrix(1 0 0 1 479.7483 20.9)" class="st4 st2 st3">30</text>
					</g>
					<line class="st0" x1="0" y1="9.5" x2="499" y2="9.5"/>
				</g>
			</g>
		</g>
	</g>
</g>
<text transform="matrix(1 0 0 1 263.7258 419)" class="st2 st16">Epochs</text>
<text transform="matrix(-1.836970e-16 -1 1 -1.836970e-16 14.6143 222.2583)" class="st2 st16">Loss</text>
</svg>
