<svg viewBox="0 0 539 400" xmlns="http://www.w3.org/2000/svg"><g><g><g><g><g><line x1="50" y1="341.1316573773325" x2="45" y2="341.1316573773325" style="visibility: inherit;" fill="rgb(0, 0, 0)" stroke="rgb(204, 204, 204)" stroke-width="1px"></line><line x1="50" y1="304.123758720978" x2="45" y2="304.123758720978" style="visibility: inherit;" fill="rgb(0, 0, 0)" stroke="rgb(204, 204, 204)" stroke-width="1px"></line><line x1="50" y1="267.1158600646236" x2="45" y2="267.1158600646236" style="visibility: inherit;" fill="rgb(0, 0, 0)" stroke="rgb(204, 204, 204)" stroke-width="1px"></line><line x1="50" y1="230.10796140826918" x2="45" y2="230.10796140826918" style="visibility: inherit;" fill="rgb(0, 0, 0)" stroke="rgb(204, 204, 204)" stroke-width="1px"></line><line x1="50" y1="193.10006275191466" x2="45" y2="193.10006275191466" style="visibility: inherit;" fill="rgb(0, 0, 0)" stroke="rgb(204, 204, 204)" stroke-width="1px"></line><line x1="50" y1="156.09216409556024" x2="45" y2="156.09216409556024" style="visibility: inherit;" fill="rgb(0, 0, 0)" stroke="rgb(204, 204, 204)" stroke-width="1px"></line><line x1="50" y1="119.08426543920575" x2="45" y2="119.08426543920575" style="visibility: inherit;" fill="rgb(0, 0, 0)" stroke="rgb(204, 204, 204)" stroke-width="1px"></line><line x1="50" y1="82.07636678285132" x2="45" y2="82.07636678285132" style="visibility: inherit;" fill="rgb(0, 0, 0)" stroke="rgb(204, 204, 204)" stroke-width="1px"></line><line x1="50" y1="45.06846812649686" x2="45" y2="45.06846812649686" style="visibility: inherit;" fill="rgb(0, 0, 0)" stroke="rgb(204, 204, 204)" stroke-width="1px"></line><line x1="50" y1="8.060569470142806" x2="45" y2="8.060569470142806" style="visibility: inherit;" fill="rgb(0, 0, 0)" stroke="rgb(204, 204, 204)" stroke-width="1px"></line></g><g transform="translate(40, 0)"><text x="0" y="341.1316573773325" dx="0em" dy="0.3em" style="text-anchor: end; visibility: inherit; font-family: Roboto, sans-serif; font-size: 12px; font-weight: 200;" fill="rgb(33, 33, 33)" stroke="none" stroke-width="1px">0.48</text><text x="0" y="304.123758720978" dx="0em" dy="0.3em" style="text-anchor: end; visibility: inherit; font-family: Roboto, sans-serif; font-size: 12px; font-weight: 200;" fill="rgb(33, 33, 33)" stroke="none" stroke-width="1px">0.49</text><text x="0" y="267.1158600646236" dx="0em" dy="0.3em" style="text-anchor: end; visibility: inherit; font-family: Roboto, sans-serif; font-size: 12px; font-weight: 200;" fill="rgb(33, 33, 33)" stroke="none" stroke-width="1px">0.5</text><text x="0" y="230.10796140826918" dx="0em" dy="0.3em" style="text-anchor: end; visibility: inherit; font-family: Roboto, sans-serif; font-size: 12px; font-weight: 200;" fill="rgb(33, 33, 33)" stroke="none" stroke-width="1px">0.51</text><text x="0" y="193.10006275191466" dx="0em" dy="0.3em" style="text-anchor: end; visibility: inherit; font-family: Roboto, sans-serif; font-size: 12px; font-weight: 200;" fill="rgb(33, 33, 33)" stroke="none" stroke-width="1px">0.52</text><text x="0" y="156.09216409556024" dx="0em" dy="0.3em" style="text-anchor: end; visibility: inherit; font-family: Roboto, sans-serif; font-size: 12px; font-weight: 200;" fill="rgb(33, 33, 33)" stroke="none" stroke-width="1px">0.53</text><text x="0" y="119.08426543920575" dx="0em" dy="0.3em" style="text-anchor: end; visibility: inherit; font-family: Roboto, sans-serif; font-size: 12px; font-weight: 200;" fill="rgb(33, 33, 33)" stroke="none" stroke-width="1px">0.54</text><text x="0" y="82.07636678285132" dx="0em" dy="0.3em" style="text-anchor: end; visibility: inherit; font-family: Roboto, sans-serif; font-size: 12px; font-weight: 200;" fill="rgb(33, 33, 33)" stroke="none" stroke-width="1px">0.55</text><text x="0" y="45.06846812649686" dx="0em" dy="0.3em" style="text-anchor: end; visibility: inherit; font-family: Roboto, sans-serif; font-size: 12px; font-weight: 200;" fill="rgb(33, 33, 33)" stroke="none" stroke-width="1px">0.56</text><text x="0" y="8.060569470142806" dx="0em" dy="0.3em" style="text-anchor: end; visibility: inherit; font-family: Roboto, sans-serif; font-size: 12px; font-weight: 200;" fill="rgb(33, 33, 33)" stroke="none" stroke-width="1px">0.57</text></g><line x1="50" y1="0" x2="50" y2="377" fill="rgb(0, 0, 0)" stroke="rgb(204, 204, 204)" stroke-width="1px"></line></g></g><g transform="translate(50, 0)" clip-path="url(#clip_0)"><clipPath id="clip_0"><rect width="506" height="377"></rect></clipPath><g><g><g><line x1="3.0866527364045453" y1="0" x2="3.0866527364045453" y2="377" fill="rgb(0, 0, 0)" stroke="rgb(66, 66, 66)" stroke-width="1px" opacity="0.25"></line><line x1="35.137234055395886" y1="0" x2="35.137234055395886" y2="377" fill="rgb(0, 0, 0)" stroke="rgb(66, 66, 66)" stroke-width="1px" opacity="0.25"></line><line x1="67.18781537438724" y1="0" x2="67.18781537438724" y2="377" fill="rgb(0, 0, 0)" stroke="rgb(66, 66, 66)" stroke-width="1px" opacity="0.25"></line><line x1="99.23839669337859" y1="0" x2="99.23839669337859" y2="377" fill="rgb(0, 0, 0)" stroke="rgb(66, 66, 66)" stroke-width="1px" opacity="0.25"></line><line x1="131.28897801236994" y1="0" x2="131.28897801236994" y2="377" fill="rgb(0, 0, 0)" stroke="rgb(66, 66, 66)" stroke-width="1px" opacity="0.25"></line><line x1="163.33955933136127" y1="0" x2="163.33955933136127" y2="377" fill="rgb(0, 0, 0)" stroke="rgb(66, 66, 66)" stroke-width="1px" opacity="0.25"></line><line x1="195.39014065035263" y1="0" x2="195.39014065035263" y2="377" fill="rgb(0, 0, 0)" stroke="rgb(66, 66, 66)" stroke-width="1px" opacity="0.25"></line><line x1="227.440721969344" y1="0" x2="227.440721969344" y2="377" fill="rgb(0, 0, 0)" stroke="rgb(66, 66, 66)" stroke-width="1px" opacity="0.25"></line><line x1="259.49130328833536" y1="0" x2="259.49130328833536" y2="377" fill="rgb(0, 0, 0)" stroke="rgb(66, 66, 66)" stroke-width="1px" opacity="0.25"></line><line x1="291.54188460732666" y1="0" x2="291.54188460732666" y2="377" fill="rgb(0, 0, 0)" stroke="rgb(66, 66, 66)" stroke-width="1px" opacity="0.25"></line><line x1="323.592465926318" y1="0" x2="323.592465926318" y2="377" fill="rgb(0, 0, 0)" stroke="rgb(66, 66, 66)" stroke-width="1px" opacity="0.25"></line><line x1="355.6430472453094" y1="0" x2="355.6430472453094" y2="377" fill="rgb(0, 0, 0)" stroke="rgb(66, 66, 66)" stroke-width="1px" opacity="0.25"></line><line x1="387.69362856430075" y1="0" x2="387.69362856430075" y2="377" fill="rgb(0, 0, 0)" stroke="rgb(66, 66, 66)" stroke-width="1px" opacity="0.25"></line><line x1="419.74420988329206" y1="0" x2="419.74420988329206" y2="377" fill="rgb(0, 0, 0)" stroke="rgb(66, 66, 66)" stroke-width="1px" opacity="0.25"></line><line x1="451.7947912022835" y1="0" x2="451.7947912022835" y2="377" fill="rgb(0, 0, 0)" stroke="rgb(66, 66, 66)" stroke-width="1px" opacity="0.25"></line><line x1="483.8453725212748" y1="0" x2="483.8453725212748" y2="377" fill="rgb(0, 0, 0)" stroke="rgb(66, 66, 66)" stroke-width="1px" opacity="0.25"></line></g><g><line x1="0" y1="341.1316573773325" x2="506" y2="341.1316573773325" fill="rgb(0, 0, 0)" stroke="rgb(66, 66, 66)" stroke-width="1px" opacity="0.25"></line><line x1="0" y1="304.123758720978" x2="506" y2="304.123758720978" fill="rgb(0, 0, 0)" stroke="rgb(66, 66, 66)" stroke-width="1px" opacity="0.25"></line><line x1="0" y1="267.1158600646236" x2="506" y2="267.1158600646236" fill="rgb(0, 0, 0)" stroke="rgb(66, 66, 66)" stroke-width="1px" opacity="0.25"></line><line x1="0" y1="230.10796140826918" x2="506" y2="230.10796140826918" fill="rgb(0, 0, 0)" stroke="rgb(66, 66, 66)" stroke-width="1px" opacity="0.25"></line><line x1="0" y1="193.10006275191466" x2="506" y2="193.10006275191466" fill="rgb(0, 0, 0)" stroke="rgb(66, 66, 66)" stroke-width="1px" opacity="0.25"></line><line x1="0" y1="156.09216409556024" x2="506" y2="156.09216409556024" fill="rgb(0, 0, 0)" stroke="rgb(66, 66, 66)" stroke-width="1px" opacity="0.25"></line><line x1="0" y1="119.08426543920575" x2="506" y2="119.08426543920575" fill="rgb(0, 0, 0)" stroke="rgb(66, 66, 66)" stroke-width="1px" opacity="0.25"></line><line x1="0" y1="82.07636678285132" x2="506" y2="82.07636678285132" fill="rgb(0, 0, 0)" stroke="rgb(66, 66, 66)" stroke-width="1px" opacity="0.25"></line><line x1="0" y1="45.06846812649686" x2="506" y2="45.06846812649686" fill="rgb(0, 0, 0)" stroke="rgb(66, 66, 66)" stroke-width="1px" opacity="0.25"></line><line x1="0" y1="8.060569470142806" x2="506" y2="8.060569470142806" fill="rgb(0, 0, 0)" stroke="rgb(66, 66, 66)" stroke-width="1px" opacity="0.25"></line></g></g></g><g><g><line x1="0" y1="2117.5107928823445" x2="506" y2="2117.5107928823445" fill="rgb(0, 0, 0)" stroke="rgb(153, 153, 153)" stroke-width="1.5px"></line></g></g><g><g><line x1="3.0866527364045453" y1="0" x2="3.0866527364045453" y2="377" fill="rgb(0, 0, 0)" stroke="rgb(153, 153, 153)" stroke-width="1.5px"></line></g></g><g><g><g><g><g><path stroke="rgb(51, 187, 238)" stroke-width="2px" d="M3.0866527364045453,242.36145264080903L19.11194339590022,254.73865635271633L35.137234055395886,279.49306377653085L51.16252471489157,248.54994420463L67.18781537438724,298.0588693443918L83.21310603388292,335.1905907722463L99.23839669337859,217.60704521699446L115.26368735287427,192.85241720891455L131.28897801236994,279.49306377653085L147.31426867186562,211.41833306890814L163.33955933136127,229.98424892890174L179.36484999085698,180.47521349700725L195.39014065035263,211.41833306890814L211.41543130984832,137.15511079746443L227.440721969344,223.7955367808154L243.46601262883965,316.62478520438543L259.49130328833536,199.04112935700087L275.516593947831,192.85241720891455L291.54188460732666,267.1158600646236L307.5671752668224,205.22984150508717L323.592465926318,279.49306377653085L339.6177565858137,242.36145264080903L355.6430472453094,217.60704521699446L371.668337904805,174.28672193318627L387.69362856430075,211.41833306890814L403.71891922379643,130.9663986493781L419.74420988329206,180.47521349700725L435.76950054278774,137.15511079746443L451.7947912022835,87.64607536556996L467.8200818617791,168.09800978509998" style="fill: none;" fill="none"></path></g><g><path stroke="rgb(204, 51, 17)" stroke-width="2px" d="M3.0866527364045453,332.9614764789584L19.11194339590022,260.396863342685L35.137234055395886,273.8347464944295L51.16252471489157,272.49105744217445L67.18781537438724,213.3643274576456L83.21310603388292,232.1772976948083L99.23839669337859,220.08332417958417L115.26368735287427,234.86489638358373L131.28897801236994,230.83349835042057L147.31426867186562,181.11358436087104L163.33955933136127,191.86375853170742L179.36484999085698,212.02052811325788L195.39014065035263,252.33428786062402L211.41543130984832,241.58389310552226L227.440721969344,214.70812680203332L243.46601262883965,186.48856115415654L259.49130328833536,186.48856115415654L275.516593947831,253.67808720501174L291.54188460732666,183.8009624653811L307.5671752668224,217.39572549080876L323.592465926318,222.7709228683596L339.6177565858137,206.645330735707L355.6430472453094,186.48856115415654L371.668337904805,191.86375853170742L387.69362856430075,169.01939026138157L403.71891922379643,115.26785765440357L419.74420988329206,175.73838698332017L435.76950054278774,173.05078829454473L451.7947912022835,183.8009624653811L467.8200818617791,177.0821863277079" style="fill: none;" fill="none"></path></g><g><path stroke="rgb(204, 51, 17)" stroke-width="2px" d="M3.0866527364045453,279.49306377653085L19.11194339590022,242.36145264080903L35.137234055395886,267.1158600646236L51.16252471489157,242.36145264080903L67.18781537438724,217.60704521699446L83.21310603388292,186.66392564509357L99.23839669337859,248.54994420463L115.26368735287427,223.7955367808154L131.28897801236994,260.92714791653725L147.31426867186562,291.8702674884382L163.33955933136127,304.2475814924781L179.36484999085698,359.94499819606085L195.39014065035263,260.92714791653725L211.41543130984832,229.98424892890174L227.440721969344,273.30446192057724L243.46601262883965,298.0588693443918L259.49130328833536,168.09800978509998L275.516593947831,291.8702674884382L291.54188460732666,217.60704521699446L307.5671752668224,248.54994420463L323.592465926318,304.2475814924781L339.6177565858137,322.81338706033904L355.6430472453094,254.73865635271633L371.668337904805,242.36145264080903L387.69362856430075,267.1158600646236L403.71891922379643,137.15511079746443L419.74420988329206,192.85241720891455L435.76950054278774,260.92714791653725L451.7947912022835,186.66392564509357L467.8200818617791,180.47521349700725" style="fill: none;" fill="none"></path></g><g><path stroke="rgb(0, 119, 187)" stroke-width="2px" d="M3.0866527364045453,326.2424797570198L19.11194339590022,259.05306399829726L35.137234055395886,216.05192614642104L51.16252471489157,169.01939026138157L67.18781537438724,322.21108172385664L83.21310603388292,174.39458763893245L99.23839669337859,287.272629646174L115.26368735287427,220.08332417958417L131.28897801236994,284.5851412495312L147.31426867186562,218.73952483519648L163.33955933136127,230.83349835042057L179.36484999085698,252.33428786062402L195.39014065035263,261.7406626870727L211.41543130984832,214.70812680203332L227.440721969344,246.95909048307314L243.46601262883965,296.679225056888L259.49130328833536,253.67808720501174L275.516593947831,233.521097039196L291.54188460732666,169.01939026138157L307.5671752668224,205.3017519755846L323.592465926318,264.42826137584814L339.6177565858137,267.1158600646236L355.6430472453094,175.73838698332017L371.668337904805,217.39572549080876L387.69362856430075,228.14612024591048L403.71891922379643,241.58389310552226L419.74420988329206,193.20755787609514L435.76950054278774,212.02052811325788L451.7947912022835,273.8347464944295L467.8200818617791,217.39572549080876" style="fill: none;" fill="none"></path></g><g><path stroke="rgb(0, 119, 187)" stroke-width="2px" d="M3.0866527364045453,223.7955367808154L19.11194339590022,186.66392564509357L35.137234055395886,118.58919493747085L51.16252471489157,217.60704521699446L67.18781537438724,199.04112935700087L83.21310603388292,285.6816656324845L99.23839669337859,143.3436023612854L115.26368735287427,161.909518221279L131.28897801236994,180.47521349700725L147.31426867186562,199.04112935700087L163.33955933136127,124.77768650129183L179.36484999085698,217.60704521699446L195.39014065035263,242.36145264080903L211.41543130984832,335.1905907722463L227.440721969344,260.92714791653725" style="fill: none;" fill="none"></path></g><g><path stroke="rgb(255, 112, 67)" stroke-width="2px" d="M3.0866527364045453,229.4899195902982L19.11194339590022,275.17854583881723L35.137234055395886,205.3017519755846L51.16252471489157,191.86375853170742L67.18781537438724,162.30039353944298L83.21310603388292,169.01939026138157L99.23839669337859,246.95909048307314L115.26368735287427,209.33292942448244L131.28897801236994,151.5502193686066L147.31426867186562,217.39572549080876L163.33955933136127,225.45852155713504L179.36484999085698,238.89629441674683L195.39014065035263,238.89629441674683L211.41543130984832,197.2389559092583L227.440721969344,186.48856115415654" style="fill: none;" fill="none"></path></g><g><path stroke="rgb(255, 112, 67)" stroke-width="2px" d="M3.0866527364045453,260.92714791653725L19.11194339590022,267.1158600646236L35.137234055395886,260.92714791653725L51.16252471489157,211.41833306890814L67.18781537438724,236.1727404927227L83.21310603388292,168.09800978509998L99.23839669337859,217.60704521699446L115.26368735287427,143.3436023612854L131.28897801236994,186.66392564509357L147.31426867186562,205.22984150508717L163.33955933136127,260.92714791653725L179.36484999085698,199.04112935700087L195.39014065035263,211.41833306890814L211.41543130984832,205.22984150508717L227.440721969344,248.54994420463L243.46601262883965,137.15511079746443L259.49130328833536,137.15511079746443L275.516593947831,211.41833306890814L291.54188460732666,168.09800978509998L307.5671752668224,149.5323145093717L323.592465926318,93.83478751365625L339.6177565858137,112.40048278938453L355.6430472453094,174.28672193318627L371.668337904805,199.04112935700087L387.69362856430075,161.909518221279L403.71891922379643,236.1727404927227L419.74420988329206,186.66392564509357L435.76950054278774,100.02327907747727L451.7947912022835,168.09800978509998L467.8200818617791,192.85241720891455" style="fill: none;" fill="none"></path></g><g><path stroke="rgb(187, 187, 187)" stroke-width="2px" d="M3.0866527364045453,275.17854583881723L19.11194339590022,234.86489638358373L35.137234055395886,195.89515656487058L51.16252471489157,226.80232090152276L67.18781537438724,132.73724913144386L83.21310603388292,229.4899195902982L99.23839669337859,224.11472221274732L115.26368735287427,187.83236049854426L131.28897801236994,207.98913008009472L147.31426867186562,167.67559091699385L163.33955933136127,207.98913008009472L179.36484999085698,218.73952483519648L195.39014065035263,175.73838698332017L211.41543130984832,178.4259856720956L227.440721969344,179.76978501648333L243.46601262883965,151.5502193686066L259.49130328833536,228.14612024591048L275.516593947831,155.58161740176976L291.54188460732666,156.92541674615748L307.5671752668224,152.89401871299432L323.592465926318,81.6733152132413L339.6177565858137,113.92405831001585L355.6430472453094,150.2064200242189L371.668337904805,152.89401871299432L387.69362856430075,142.14362395789257L403.71891922379643,117.95545634317901L419.74420988329206,111.23645962124041L435.76950054278774,91.07969003968996L451.7947912022835,61.51632504742553L467.8200818617791,60.17252570303781" style="fill: none;" fill="none"></path></g><g><path stroke="rgb(0, 119, 187)" stroke-width="2px" d="M3.0866527364045453,322.81338706033904L19.11194339590022,223.7955367808154L35.137234055395886,254.73865635271633L51.16252471489157,273.30446192057724L67.18781537438724,205.22984150508717L83.21310603388292,273.30446192057724L99.23839669337859,242.36145264080903L115.26368735287427,217.60704521699446L131.28897801236994,149.5323145093717L147.31426867186562,112.40048278938453L163.33955933136127,112.40048278938453L179.36484999085698,217.60704521699446L195.39014065035263,174.28672193318627L211.41543130984832,254.73865635271633L227.440721969344,217.60704521699446L243.46601262883965,130.9663986493781L259.49130328833536,217.60704521699446L275.516593947831,130.9663986493781L291.54188460732666,87.64607536556996L307.5671752668224,223.7955367808154L323.592465926318,161.909518221279L339.6177565858137,137.15511079746443L355.6430472453094,100.02327907747727L371.668337904805,199.04112935700087L387.69362856430075,155.72080607319268L403.71891922379643,69.08038008984168L419.74420988329206,50.514464229848095L435.76950054278774,118.58919493747085L451.7947912022835,130.9663986493781L467.8200818617791,168.09800978509998" style="fill: none;" fill="none"></path></g><g><path stroke="rgb(255, 112, 67)" stroke-width="2px" d="M3.0866527364045453,269.803458753399L19.11194339590022,249.64668917184858L35.137234055395886,269.803458753399L51.16252471489157,233.521097039196L67.18781537438724,287.272629646174L83.21310603388292,261.7406626870727L99.23839669337859,287.272629646174L115.26368735287427,212.02052811325788L131.28897801236994,307.4295095198571L147.31426867186562,232.1772976948083L163.33955933136127,276.52234518320495L179.36484999085698,255.02166596513413L195.39014065035263,189.17615984293198L211.41543130984832,240.24009376113455L227.440721969344,213.3643274576456L243.46601262883965,220.08332417958417L259.49130328833536,201.27035394242145L275.516593947831,197.2389559092583L291.54188460732666,146.17502199105573L307.5671752668224,194.55135722048286L323.592465926318,201.27035394242145L339.6177565858137,245.61529113868542L355.6430472453094,175.73838698332017L371.668337904805,186.48856115415654L387.69362856430075,222.7709228683596L403.71891922379643,144.831222646668L419.74420988329206,202.61415328680917L435.76950054278774,185.14476180976882L451.7947912022835,126.01825240950531L467.8200818617791,177.0821863277079" style="fill: none;" fill="none"></path></g><g><path stroke="rgb(255, 112, 67)" stroke-width="2px" d="M3.0866527364045453,267.1158600646236L19.11194339590022,279.49306377653085L35.137234055395886,254.73865635271633L51.16252471489157,322.81338706033904L67.18781537438724,335.1905907722463L83.21310603388292,366.1336000520146L99.23839669337859,298.0588693443918L115.26368735287427,273.30446192057724L131.28897801236994,279.49306377653085L147.31426867186562,254.73865635271633L163.33955933136127,248.54994420463L179.36484999085698,242.36145264080903L195.39014065035263,372.32231220010084L211.41543130984832,335.1905907722463L227.440721969344,310.43618334843177L243.46601262883965,236.1727404927227L259.49130328833536,267.1158600646236L275.516593947831,260.92714791653725L291.54188460732666,267.1158600646236L307.5671752668224,322.81338706033904L323.592465926318,304.2475814924781L339.6177565858137,168.09800978509998L355.6430472453094,229.98424892890174L371.668337904805,211.41833306890814L387.69362856430075,199.04112935700087L403.71891922379643,180.47521349700725L419.74420988329206,186.66392564509357L435.76950054278774,130.9663986493781L451.7947912022835,211.41833306890814L467.8200818617791,149.5323145093717" style="fill: none;" fill="none"></path></g><g><path stroke="rgb(187, 187, 187)" stroke-width="2px" d="M3.0866527364045453,287.272629646174L19.11194339590022,306.0857101754694L35.137234055395886,202.61415328680917L51.16252471489157,287.272629646174L67.18781537438724,283.2413419051435L83.21310603388292,300.7105127979185L99.23839669337859,280.55374321636805L115.26368735287427,210.67672876887016L131.28897801236994,226.80232090152276L147.31426867186562,246.95909048307314L163.33955933136127,316.8359946384384L179.36484999085698,276.52234518320495L195.39014065035263,261.7406626870727L211.41543130984832,285.92883030178626L227.440721969344,260.396863342685L243.46601262883965,253.67808720501174L259.49130328833536,291.30402767933714L275.516593947831,241.58389310552226L291.54188460732666,237.55249507235916L307.5671752668224,273.8347464944295L323.592465926318,256.3654653095218L339.6177565858137,250.9904885162363L355.6430472453094,263.0844620314604L371.668337904805,213.3643274576456L387.69362856430075,217.39572549080876L403.71891922379643,197.2389559092583L419.74420988329206,191.86375853170742L435.76950054278774,225.45852155713504L451.7947912022835,244.2714917942977L467.8200818617791,250.9904885162363" style="fill: none;" fill="none"></path></g><g><path stroke="rgb(187, 187, 187)" stroke-width="2px" d="M3.0866527364045453,279.49306377653085L19.11194339590022,236.1727404927227L35.137234055395886,267.1158600646236L51.16252471489157,186.66392564509357L67.18781537438724,211.41833306890814L83.21310603388292,186.66392564509357L99.23839669337859,130.9663986493781L115.26368735287427,143.3436023612854L131.28897801236994,100.02327907747727L147.31426867186562,155.72080607319268L163.33955933136127,205.22984150508717L179.36484999085698,199.04112935700087L195.39014065035263,186.66392564509357L211.41543130984832,199.04112935700087L227.440721969344,273.30446192057724L243.46601262883965,199.04112935700087L259.49130328833536,174.28672193318627L275.516593947831,161.909518221279L291.54188460732666,217.60704521699446L307.5671752668224,168.09800978509998L323.592465926318,180.47521349700725" style="fill: none;" fill="none"></path></g><g><path stroke="rgb(0, 153, 136)" stroke-width="2px" d="M3.0866527364045453,272.49105744217445L19.11194339590022,292.64782702372486L35.137234055395886,291.30402767933714L51.16252471489157,269.803458753399L67.18781537438724,275.17854583881723L83.21310603388292,179.76978501648333L99.23839669337859,228.14612024591048L115.26368735287427,224.11472221274732L131.28897801236994,218.73952483519648L147.31426867186562,248.30288982746086L163.33955933136127,159.61279485066754L179.36484999085698,199.92655459803373L195.39014065035263,134.08082789156626L211.41543130984832,170.3631896057693L227.440721969344,221.4271235239719L243.46601262883965,259.05306399829726L259.49130328833536,96.45488741724084L275.516593947831,252.33428786062402L291.54188460732666,183.8009624653811L307.5671752668224,146.17502199105573L323.592465926318,163.6441928838307" style="fill: none;" fill="none"></path></g><g><path stroke="rgb(0, 153, 136)" stroke-width="2px" d="M3.0866527364045453,199.04112935700087L19.11194339590022,341.3791926281999L35.137234055395886,205.22984150508717L51.16252471489157,254.73865635271633L67.18781537438724,260.92714791653725L83.21310603388292,236.1727404927227L99.23839669337859,298.0588693443918L115.26368735287427,298.0588693443918L131.28897801236994,205.22984150508717L147.31426867186562,229.98424892890174L163.33955933136127,149.5323145093717L179.36484999085698,174.28672193318627L195.39014065035263,143.3436023612854L211.41543130984832,229.98424892890174L227.440721969344,112.40048278938453L243.46601262883965,223.7955367808154L259.49130328833536,149.5323145093717L275.516593947831,174.28672193318627L291.54188460732666,223.7955367808154L307.5671752668224,168.09800978509998L323.592465926318,168.09800978509998L339.6177565858137,143.3436023612854L355.6430472453094,192.85241720891455L371.668337904805,168.09800978509998L387.69362856430075,205.22984150508717L403.71891922379643,186.66392564509357L419.74420988329206,242.36145264080903" style="fill: none;" fill="none"></path></g><g><path stroke="rgb(238, 51, 119)" stroke-width="2px" d="M3.0866527364045453,224.11472221274732L19.11194339590022,280.55374321636805L35.137234055395886,216.05192614642104L51.16252471489157,271.14725809778673L67.18781537438724,217.39572549080876L83.21310603388292,252.33428786062402L99.23839669337859,194.55135722048286L115.26368735287427,269.803458753399L131.28897801236994,205.3017519755846L147.31426867186562,218.73952483519648L163.33955933136127,142.14362395789257L179.36484999085698,166.33179157260614L195.39014065035263,224.11472221274732L211.41543130984832,216.05192614642104L227.440721969344,277.8661445275926L243.46601262883965,136.7684265803417L259.49130328833536,217.39572549080876L275.516593947831,158.26899550627982L291.54188460732666,179.76978501648333L307.5671752668224,193.20755787609514L323.592465926318,177.0821863277079L339.6177565858137,159.61279485066754L355.6430472453094,167.67559091699385L371.668337904805,175.73838698332017L387.69362856430075,130.04965044266842L403.71891922379643,132.73724913144386L419.74420988329206,107.20528217234258" style="fill: none;" fill="none"></path></g><g><path stroke="rgb(187, 187, 187)" stroke-width="2px" d="M3.0866527364045453,180.47521349700725L19.11194339590022,260.92714791653725L35.137234055395886,236.1727404927227L51.16252471489157,192.85241720891455L67.18781537438724,180.47521349700725L83.21310603388292,87.64607536556996L99.23839669337859,168.09800978509998L115.26368735287427,168.09800978509998L131.28897801236994,124.77768650129183L147.31426867186562,106.21199122556355L163.33955933136127,143.3436023612854L179.36484999085698,130.9663986493781L195.39014065035263,124.77768650129183L211.41543130984832,130.9663986493781L227.440721969344,38.13726051794083L243.46601262883965,56.70295579366907L259.49130328833536,143.3436023612854L275.516593947831,130.9663986493781L291.54188460732666,137.15511079746443L307.5671752668224,124.77768650129183L323.592465926318,112.40048278938453L339.6177565858137,56.70295579366907L355.6430472453094,93.83478751365625L371.668337904805,168.09800978509998L387.69362856430075,93.83478751365625L403.71891922379643,19.571344657947243L419.74420988329206,106.21199122556355L435.76950054278774,124.77768650129183L451.7947912022835,50.514464229848095L467.8200818617791,69.08038008984168" style="fill: none;" fill="none"></path></g><g><path stroke="rgb(0, 153, 136)" stroke-width="2px" d="M3.0866527364045453,229.4899195902982L19.11194339590022,225.45852155713504L35.137234055395886,240.24009376113455L51.16252471489157,214.70812680203332L67.18781537438724,259.05306399829726L83.21310603388292,213.3643274576456L99.23839669337859,185.14476180976882L115.26368735287427,252.33428786062402L131.28897801236994,216.05192614642104L147.31426867186562,210.67672876887016L163.33955933136127,173.05078829454473L179.36484999085698,244.2714917942977L195.39014065035263,203.9579526311969L211.41543130984832,136.7684265803417L227.440721969344,164.98799222821842L243.46601262883965,241.58389310552226L259.49130328833536,127.36205175389303L275.516593947831,220.08332417958417L291.54188460732666,232.1772976948083L307.5671752668224,142.14362395789257L323.592465926318,132.73724913144386L339.6177565858137,173.05078829454473L355.6430472453094,185.14476180976882L371.668337904805,198.582755253646L387.69362856430075,151.5502193686066L403.71891922379643,138.11222592472942L419.74420988329206,163.6441928838307L435.76950054278774,152.89401871299432L451.7947912022835,158.26899550627982L467.8200818617791,159.61279485066754" style="fill: none;" fill="none"></path></g><g><path stroke="rgb(0, 153, 136)" stroke-width="2px" d="M3.0866527364045453,267.1158600646236L19.11194339590022,267.1158600646236L35.137234055395886,273.30446192057724L51.16252471489157,298.0588693443918L67.18781537438724,291.8702674884382L83.21310603388292,223.7955367808154L99.23839669337859,248.54994420463L115.26368735287427,217.60704521699446L131.28897801236994,229.98424892890174L147.31426867186562,174.28672193318627L163.33955933136127,229.98424892890174L179.36484999085698,254.73865635271633L195.39014065035263,180.47521349700725L211.41543130984832,199.04112935700087L227.440721969344,174.28672193318627L243.46601262883965,211.41833306890814L259.49130328833536,211.41833306890814L275.516593947831,211.41833306890814L291.54188460732666,112.40048278938453L307.5671752668224,155.72080607319268L323.592465926318,149.5323145093717L339.6177565858137,149.5323145093717L355.6430472453094,205.22984150508717L371.668337904805,236.1727404927227L387.69362856430075,236.1727404927227L403.71891922379643,267.1158600646236L419.74420988329206,304.2475814924781L435.76950054278774,267.1158600646236L451.7947912022835,236.1727404927227L467.8200818617791,242.36145264080903" style="fill: none;" fill="none"></path></g><g><path stroke="rgb(238, 51, 119)" stroke-width="2px" d="M3.0866527364045453,246.95909048307314L19.11194339590022,269.803458753399L35.137234055395886,276.52234518320495L51.16252471489157,240.24009376113455L67.18781537438724,195.89515656487058L83.21310603388292,241.58389310552226L99.23839669337859,265.77206072023586L115.26368735287427,249.64668917184858L131.28897801236994,216.05192614642104L147.31426867186562,214.70812680203332L163.33955933136127,236.20869572797145L179.36484999085698,250.9904885162363L195.39014065035263,221.4271235239719L211.41543130984832,195.89515656487058L227.440721969344,216.05192614642104L243.46601262883965,217.39572549080876L259.49130328833536,252.33428786062402L275.516593947831,203.9579526311969L291.54188460732666,212.02052811325788L307.5671752668224,240.24009376113455L323.592465926318,291.30402767933714L339.6177565858137,205.3017519755846L355.6430472453094,167.67559091699385L371.668337904805,199.92655459803373L387.69362856430075,128.70585109828076L403.71891922379643,158.26899550627982L419.74420988329206,183.8009624653811L435.76950054278774,241.58389310552226L451.7947912022835,113.92405831001585L467.8200818617791,233.521097039196" style="fill: none;" fill="none"></path></g><g><path stroke="rgb(238, 51, 119)" stroke-width="2px" d="M3.0866527364045453,279.49306377653085L19.11194339590022,161.909518221279L35.137234055395886,192.85241720891455L51.16252471489157,199.04112935700087L67.18781537438724,180.47521349700725L83.21310603388292,130.9663986493781L99.23839669337859,199.04112935700087L115.26368735287427,211.41833306890814L131.28897801236994,217.60704521699446L147.31426867186562,248.54994420463L163.33955933136127,260.92714791653725L179.36484999085698,199.04112935700087L195.39014065035263,236.1727404927227L211.41543130984832,137.15511079746443L227.440721969344,186.66392564509357L243.46601262883965,87.64607536556996L259.49130328833536,87.64607536556996L275.516593947831,161.909518221279L291.54188460732666,168.09800978509998L307.5671752668224,199.04112935700087L323.592465926318,205.22984150508717L339.6177565858137,223.7955367808154L355.6430472453094,211.41833306890814L371.668337904805,186.66392564509357L387.69362856430075,161.909518221279L403.71891922379643,137.15511079746443L419.74420988329206,205.22984150508717L435.76950054278774,118.58919493747085" style="fill: none;" fill="none"></path></g><g><path stroke="rgb(51, 187, 238)" stroke-width="2px" d="M3.0866527364045453,307.4295095198571L19.11194339590022,277.8661445275926L35.137234055395886,246.95909048307314L51.16252471489157,228.14612024591048L67.18781537438724,183.8009624653811L83.21310603388292,207.98913008009472L99.23839669337859,293.9916263681126L115.26368735287427,214.70812680203332L131.28897801236994,199.92655459803373L147.31426867186562,139.45602526911713L163.33955933136127,210.67672876887016L179.36484999085698,166.33179157260614L195.39014065035263,111.23645962124041L211.41543130984832,171.706988950157L227.440721969344,95.11108807285312L243.46601262883965,166.33179157260614L259.49130328833536,138.11222592472942L275.516593947831,128.70585109828076L291.54188460732666,224.11472221274732L307.5671752668224,96.45488741724084L323.592465926318,112.58025896562813L339.6177565858137,89.73589069530229L355.6430472453094,144.831222646668L371.668337904805,91.07969003968996L387.69362856430075,107.20528217234258L403.71891922379643,38.67195677709968L419.74420988329206,38.67195677709968L435.76950054278774,103.17388413917942" style="fill: none;" fill="none"></path></g><g><path stroke="rgb(51, 187, 238)" stroke-width="2px" d="M3.0866527364045453,279.49306377653085L19.11194339590022,267.1158600646236L35.137234055395886,267.1158600646236L51.16252471489157,254.73865635271633L67.18781537438724,236.1727404927227L83.21310603388292,223.7955367808154L99.23839669337859,260.92714791653725L115.26368735287427,248.54994420463L131.28897801236994,229.98424892890174L147.31426867186562,180.47521349700725L163.33955933136127,199.04112935700087L179.36484999085698,186.66392564509357L195.39014065035263,236.1727404927227L211.41543130984832,192.85241720891455L227.440721969344,199.04112935700087L243.46601262883965,205.22984150508717L259.49130328833536,223.7955367808154L275.516593947831,211.41833306890814L291.54188460732666,291.8702674884382L307.5671752668224,298.0588693443918L323.592465926318,223.7955367808154L339.6177565858137,248.54994420463" style="fill: none;" fill="none"></path></g><g><path stroke="rgb(204, 51, 17)" stroke-width="2px" d="M3.0866527364045453,275.17854583881723L19.11194339590022,236.20869572797145L35.137234055395886,206.645330735707L51.16252471489157,259.05306399829726L67.18781537438724,222.7709228683596L83.21310603388292,160.95659419505526L99.23839669337859,213.3643274576456L115.26368735287427,191.86375853170742L131.28897801236994,167.67559091699385L147.31426867186562,207.98913008009472L163.33955933136127,194.55135722048286L179.36484999085698,158.26899550627982L195.39014065035263,178.4259856720956L211.41543130984832,181.11358436087104L227.440721969344,134.08082789156626L243.46601262883965,182.45716312099339L259.49130328833536,156.92541674615748L275.516593947831,80.32951586885358L291.54188460732666,132.73724913144386L307.5671752668224,162.30039353944298L323.592465926318,97.79868676162856L339.6177565858137,65.54772308058868" style="fill: none;" fill="none"></path></g><g><path stroke="rgb(238, 51, 119)" stroke-width="2px" d="M3.0866527364045453,260.92714791653725L19.11194339590022,279.49306377653085L35.137234055395886,285.6816656324845L51.16252471489157,260.92714791653725L67.18781537438724,254.73865635271633L83.21310603388292,217.60704521699446L99.23839669337859,254.73865635271633L115.26368735287427,236.1727404927227L131.28897801236994,223.7955367808154L147.31426867186562,217.60704521699446L163.33955933136127,130.9663986493781L179.36484999085698,205.22984150508717L195.39014065035263,236.1727404927227L211.41543130984832,211.41833306890814L227.440721969344,205.22984150508717L243.46601262883965,205.22984150508717L259.49130328833536,217.60704521699446L275.516593947831,186.66392564509357L291.54188460732666,223.7955367808154L307.5671752668224,168.09800978509998L323.592465926318,161.909518221279L339.6177565858137,161.909518221279L355.6430472453094,223.7955367808154" style="fill: none;" fill="none"></path></g><g><path stroke="rgb(51, 187, 238)" stroke-width="2px" d="M3.0866527364045453,268.4596594090113L19.11194339590022,264.42826137584814L35.137234055395886,240.24009376113455L51.16252471489157,257.70926465390954L67.18781537438724,249.64668917184858L83.21310603388292,232.1772976948083L99.23839669337859,183.8009624653811L115.26368735287427,220.08332417958417L131.28897801236994,217.39572549080876L147.31426867186562,238.89629441674683L163.33955933136127,210.67672876887016L179.36484999085698,206.645330735707L195.39014065035263,113.92405831001585L211.41543130984832,229.4899195902982L227.440721969344,175.73838698332017L243.46601262883965,146.17502199105573L259.49130328833536,212.02052811325788L275.516593947831,199.92655459803373L291.54188460732666,205.3017519755846L307.5671752668224,108.5490815167303L323.592465926318,175.73838698332017L339.6177565858137,214.70812680203332L355.6430472453094,195.89515656487058" style="fill: none;" fill="none"></path></g><g><path stroke="rgb(51, 187, 238)" stroke-width="2px" d="M3.0866527364045453,279.49306377653085L19.11194339590022,267.1158600646236L35.137234055395886,254.73865635271633L51.16252471489157,236.1727404927227L67.18781537438724,248.54994420463L83.21310603388292,322.81338706033904L99.23839669337859,304.2475814924781L115.26368735287427,291.8702674884382L131.28897801236994,260.92714791653725L147.31426867186562,217.60704521699446L163.33955933136127,236.1727404927227L179.36484999085698,260.92714791653725L195.39014065035263,273.30446192057724L211.41543130984832,248.54994420463L227.440721969344,186.66392564509357L243.46601262883965,248.54994420463L259.49130328833536,168.09800978509998L275.516593947831,229.98424892890174L291.54188460732666,211.41833306890814L307.5671752668224,236.1727404927227L323.592465926318,248.54994420463L339.6177565858137,223.7955367808154L355.6430472453094,236.1727404927227L371.668337904805,223.7955367808154L387.69362856430075,100.02327907747727L403.71891922379643,186.66392564509357L419.74420988329206,298.0588693443918L435.76950054278774,236.1727404927227L451.7947912022835,205.22984150508717L467.8200818617791,192.85241720891455" style="fill: none;" fill="none"></path></g><g><path stroke="rgb(204, 51, 17)" stroke-width="2px" d="M3.0866527364045453,246.95909048307314L19.11194339590022,217.39572549080876L35.137234055395886,238.89629441674683L51.16252471489157,260.396863342685L67.18781537438724,241.58389310552226L83.21310603388292,205.3017519755846L99.23839669337859,249.64668917184858L115.26368735287427,233.521097039196L131.28897801236994,263.0844620314604L147.31426867186562,263.0844620314604L163.33955933136127,195.89515656487058L179.36484999085698,257.70926465390954L195.39014065035263,264.42826137584814L211.41543130984832,276.52234518320495L227.440721969344,187.83236049854426L243.46601262883965,210.67672876887016L259.49130328833536,276.52234518320495L275.516593947831,225.45852155713504L291.54188460732666,198.582755253646L307.5671752668224,182.45716312099339L323.592465926318,182.45716312099339L339.6177565858137,139.45602526911713L355.6430472453094,298.0229141091431L371.668337904805,259.05306399829726L387.69362856430075,212.02052811325788L403.71891922379643,206.645330735707L419.74420988329206,209.33292942448244L435.76950054278774,203.9579526311969L451.7947912022835,230.83349835042057L467.8200818617791,193.20755787609514" style="fill: none;" fill="none"></path></g><g><path stroke="rgb(204, 51, 17)" stroke-width="2px" d="M3.0866527364045453,298.0588693443918L19.11194339590022,236.1727404927227L35.137234055395886,205.22984150508717L51.16252471489157,186.66392564509357L67.18781537438724,186.66392564509357L83.21310603388292,205.22984150508717L99.23839669337859,143.3436023612854L115.26368735287427,168.09800978509998L131.28897801236994,155.72080607319268L147.31426867186562,180.47521349700725L163.33955933136127,229.98424892890174L179.36484999085698,205.22984150508717L195.39014065035263,180.47521349700725L211.41543130984832,137.15511079746443L227.440721969344,161.909518221279L243.46601262883965,168.09800978509998L259.49130328833536,124.77768650129183L275.516593947831,149.5323145093717L291.54188460732666,149.5323145093717L307.5671752668224,229.98424892890174L323.592465926318,260.92714791653725L339.6177565858137,137.15511079746443L355.6430472453094,186.66392564509357L371.668337904805,143.3436023612854L387.69362856430075,168.09800978509998L403.71891922379643,174.28672193318627L419.74420988329206,161.909518221279L435.76950054278774,143.3436023612854L451.7947912022835,186.66392564509357" style="fill: none;" fill="none"></path></g><g><path stroke="rgb(0, 119, 187)" stroke-width="2px" d="M3.0866527364045453,244.2714917942977L19.11194339590022,228.14612024591048L35.137234055395886,197.2389559092583L51.16252471489157,289.9602283349494L67.18781537438724,245.61529113868542L83.21310603388292,228.14612024591048L99.23839669337859,150.2064200242189L115.26368735287427,190.5199591873197L131.28897801236994,143.4874233022803L147.31426867186562,119.29925568756673L163.33955933136127,105.86148282795486L179.36484999085698,146.17502199105573L195.39014065035263,163.6441928838307L211.41543130984832,160.95659419505526L227.440721969344,132.73724913144386L243.46601262883965,150.2064200242189L259.49130328833536,159.61279485066754L275.516593947831,108.5490815167303L291.54188460732666,143.4874233022803L307.5671752668224,134.08082789156626L323.592465926318,101.8300847947917L339.6177565858137,127.36205175389303L355.6430472453094,93.7672887284654L371.668337904805,73.610519146915L387.69362856430075,96.45488741724084L403.71891922379643,107.20528217234258L419.74420988329206,22.546585228712424L435.76950054278774,40.0157561214874L451.7947912022835,83.01711455762901" style="fill: none;" fill="none"></path></g><g><path stroke="rgb(0, 119, 187)" stroke-width="2px" d="M3.0866527364045453,260.92714791653725L19.11194339590022,267.1158600646236L35.137234055395886,267.1158600646236L51.16252471489157,279.49306377653085L67.18781537438724,291.8702674884382L83.21310603388292,304.2475814924781L99.23839669337859,285.6816656324845L115.26368735287427,260.92714791653725L131.28897801236994,273.30446192057724L147.31426867186562,223.7955367808154L163.33955933136127,260.92714791653725L179.36484999085698,254.73865635271633L195.39014065035263,267.1158600646236L211.41543130984832,223.7955367808154L227.440721969344,254.73865635271633L243.46601262883965,236.1727404927227L259.49130328833536,229.98424892890174L275.516593947831,236.1727404927227L291.54188460732666,236.1727404927227L307.5671752668224,254.73865635271633L323.592465926318,205.22984150508717L339.6177565858137,236.1727404927227L355.6430472453094,236.1727404927227L371.668337904805,273.30446192057724L387.69362856430075,236.1727404927227L403.71891922379643,267.1158600646236L419.74420988329206,192.85241720891455L435.76950054278774,168.09800978509998L451.7947912022835,168.09800978509998L467.8200818617791,161.909518221279" style="fill: none;" fill="none"></path></g><g><path stroke="rgb(255, 112, 67)" stroke-width="2px" d="M3.0866527364045453,202.61415328680917L19.11194339590022,267.1158600646236L35.137234055395886,241.58389310552226L51.16252471489157,191.86375853170742L67.18781537438724,195.89515656487058L83.21310603388292,226.80232090152276L99.23839669337859,163.6441928838307L115.26368735287427,207.98913008009472L131.28897801236994,203.9579526311969L147.31426867186562,226.80232090152276L163.33955933136127,160.95659419505526L179.36484999085698,185.14476180976882L195.39014065035263,212.02052811325788L211.41543130984832,115.26785765440357L227.440721969344,193.20755787609514L243.46601262883965,240.24009376113455L259.49130328833536,166.33179157260614L275.516593947831,186.48856115415654L291.54188460732666,155.58161740176976L307.5671752668224,151.5502193686066L323.592465926318,144.831222646668L339.6177565858137,154.23781805738204L355.6430472453094,171.706988950157L371.668337904805,121.98685437634217L387.69362856430075,126.01825240950531L403.71891922379643,151.5502193686066L419.74420988329206,116.61165699879129L435.76950054278774,108.5490815167303L451.7947912022835,89.73589069530229L467.8200818617791,124.6744530651176" style="fill: none;" fill="none"></path></g></g></g></g></g></g><g transform="translate(50, 377)" clip-path="url(#clip_1)"><clipPath id="clip_1"><rect width="506" height="23"></rect></clipPath><g><g><line x1="3.0866527364045453" y1="0" x2="3.0866527364045453" y2="5" style="visibility: inherit;" fill="rgb(0, 0, 0)" stroke="rgb(204, 204, 204)" stroke-width="1px"></line><line x1="35.137234055395886" y1="0" x2="35.137234055395886" y2="5" style="visibility: inherit;" fill="rgb(0, 0, 0)" stroke="rgb(204, 204, 204)" stroke-width="1px"></line><line x1="67.18781537438724" y1="0" x2="67.18781537438724" y2="5" style="visibility: inherit;" fill="rgb(0, 0, 0)" stroke="rgb(204, 204, 204)" stroke-width="1px"></line><line x1="99.23839669337859" y1="0" x2="99.23839669337859" y2="5" style="visibility: inherit;" fill="rgb(0, 0, 0)" stroke="rgb(204, 204, 204)" stroke-width="1px"></line><line x1="131.28897801236994" y1="0" x2="131.28897801236994" y2="5" style="visibility: inherit;" fill="rgb(0, 0, 0)" stroke="rgb(204, 204, 204)" stroke-width="1px"></line><line x1="163.33955933136127" y1="0" x2="163.33955933136127" y2="5" style="visibility: inherit;" fill="rgb(0, 0, 0)" stroke="rgb(204, 204, 204)" stroke-width="1px"></line><line x1="195.39014065035263" y1="0" x2="195.39014065035263" y2="5" style="visibility: inherit;" fill="rgb(0, 0, 0)" stroke="rgb(204, 204, 204)" stroke-width="1px"></line><line x1="227.440721969344" y1="0" x2="227.440721969344" y2="5" style="visibility: inherit;" fill="rgb(0, 0, 0)" stroke="rgb(204, 204, 204)" stroke-width="1px"></line><line x1="259.49130328833536" y1="0" x2="259.49130328833536" y2="5" style="visibility: inherit;" fill="rgb(0, 0, 0)" stroke="rgb(204, 204, 204)" stroke-width="1px"></line><line x1="291.54188460732666" y1="0" x2="291.54188460732666" y2="5" style="visibility: inherit;" fill="rgb(0, 0, 0)" stroke="rgb(204, 204, 204)" stroke-width="1px"></line><line x1="323.592465926318" y1="0" x2="323.592465926318" y2="5" style="visibility: inherit;" fill="rgb(0, 0, 0)" stroke="rgb(204, 204, 204)" stroke-width="1px"></line><line x1="355.6430472453094" y1="0" x2="355.6430472453094" y2="5" style="visibility: inherit;" fill="rgb(0, 0, 0)" stroke="rgb(204, 204, 204)" stroke-width="1px"></line><line x1="387.69362856430075" y1="0" x2="387.69362856430075" y2="5" style="visibility: inherit;" fill="rgb(0, 0, 0)" stroke="rgb(204, 204, 204)" stroke-width="1px"></line><line x1="419.74420988329206" y1="0" x2="419.74420988329206" y2="5" style="visibility: inherit;" fill="rgb(0, 0, 0)" stroke="rgb(204, 204, 204)" stroke-width="1px"></line><line x1="451.7947912022835" y1="0" x2="451.7947912022835" y2="5" style="visibility: inherit;" fill="rgb(0, 0, 0)" stroke="rgb(204, 204, 204)" stroke-width="1px"></line><line x1="483.8453725212748" y1="0" x2="483.8453725212748" y2="5" style="visibility: inherit;" fill="rgb(0, 0, 0)" stroke="rgb(204, 204, 204)" stroke-width="1px"></line></g><g transform="translate(0, 8)"><text x="3.0866527364045453" y="0" dx="0em" dy="0.95em" style="text-anchor: middle; visibility: inherit; font-family: Roboto, sans-serif; font-size: 12px; font-weight: 200;" fill="rgb(33, 33, 33)" stroke="none" stroke-width="1px">0</text><text x="35.137234055395886" y="0" dx="0em" dy="0.95em" style="text-anchor: middle; visibility: inherit; font-family: Roboto, sans-serif; font-size: 12px; font-weight: 200;" fill="rgb(33, 33, 33)" stroke="none" stroke-width="1px">2</text><text x="67.18781537438724" y="0" dx="0em" dy="0.95em" style="text-anchor: middle; visibility: inherit; font-family: Roboto, sans-serif; font-size: 12px; font-weight: 200;" fill="rgb(33, 33, 33)" stroke="none" stroke-width="1px">4</text><text x="99.23839669337859" y="0" dx="0em" dy="0.95em" style="text-anchor: middle; visibility: inherit; font-family: Roboto, sans-serif; font-size: 12px; font-weight: 200;" fill="rgb(33, 33, 33)" stroke="none" stroke-width="1px">6</text><text x="131.28897801236994" y="0" dx="0em" dy="0.95em" style="text-anchor: middle; visibility: inherit; font-family: Roboto, sans-serif; font-size: 12px; font-weight: 200;" fill="rgb(33, 33, 33)" stroke="none" stroke-width="1px">8</text><text x="163.33955933136127" y="0" dx="0em" dy="0.95em" style="text-anchor: middle; visibility: inherit; font-family: Roboto, sans-serif; font-size: 12px; font-weight: 200;" fill="rgb(33, 33, 33)" stroke="none" stroke-width="1px">10</text><text x="195.39014065035263" y="0" dx="0em" dy="0.95em" style="text-anchor: middle; visibility: inherit; font-family: Roboto, sans-serif; font-size: 12px; font-weight: 200;" fill="rgb(33, 33, 33)" stroke="none" stroke-width="1px">12</text><text x="227.440721969344" y="0" dx="0em" dy="0.95em" style="text-anchor: middle; visibility: inherit; font-family: Roboto, sans-serif; font-size: 12px; font-weight: 200;" fill="rgb(33, 33, 33)" stroke="none" stroke-width="1px">14</text><text x="259.49130328833536" y="0" dx="0em" dy="0.95em" style="text-anchor: middle; visibility: inherit; font-family: Roboto, sans-serif; font-size: 12px; font-weight: 200;" fill="rgb(33, 33, 33)" stroke="none" stroke-width="1px">16</text><text x="291.54188460732666" y="0" dx="0em" dy="0.95em" style="text-anchor: middle; visibility: inherit; font-family: Roboto, sans-serif; font-size: 12px; font-weight: 200;" fill="rgb(33, 33, 33)" stroke="none" stroke-width="1px">18</text><text x="323.592465926318" y="0" dx="0em" dy="0.95em" style="text-anchor: middle; visibility: inherit; font-family: Roboto, sans-serif; font-size: 12px; font-weight: 200;" fill="rgb(33, 33, 33)" stroke="none" stroke-width="1px">20</text><text x="355.6430472453094" y="0" dx="0em" dy="0.95em" style="text-anchor: middle; visibility: inherit; font-family: Roboto, sans-serif; font-size: 12px; font-weight: 200;" fill="rgb(33, 33, 33)" stroke="none" stroke-width="1px">22</text><text x="387.69362856430075" y="0" dx="0em" dy="0.95em" style="text-anchor: middle; visibility: inherit; font-family: Roboto, sans-serif; font-size: 12px; font-weight: 200;" fill="rgb(33, 33, 33)" stroke="none" stroke-width="1px">24</text><text x="419.74420988329206" y="0" dx="0em" dy="0.95em" style="text-anchor: middle; visibility: inherit; font-family: Roboto, sans-serif; font-size: 12px; font-weight: 200;" fill="rgb(33, 33, 33)" stroke="none" stroke-width="1px">26</text><text x="451.7947912022835" y="0" dx="0em" dy="0.95em" style="text-anchor: middle; visibility: inherit; font-family: Roboto, sans-serif; font-size: 12px; font-weight: 200;" fill="rgb(33, 33, 33)" stroke="none" stroke-width="1px">28</text><text x="483.8453725212748" y="0" dx="0em" dy="0.95em" style="text-anchor: middle; visibility: inherit; font-family: Roboto, sans-serif; font-size: 12px; font-weight: 200;" fill="rgb(33, 33, 33)" stroke="none" stroke-width="1px">30</text></g><line x1="0" y1="0" x2="506" y2="0" fill="rgb(0, 0, 0)" stroke="rgb(204, 204, 204)" stroke-width="1px"></line></g></g></g></g></svg>