<svg viewBox="0 0 539 400" xmlns="http://www.w3.org/2000/svg"><g><g><g><g><g><line x1="50" y1="371.103815033697" x2="45" y2="371.103815033697" style="visibility: inherit;" fill="rgb(0, 0, 0)" stroke="rgb(204, 204, 204)" stroke-width="1px"></line><line x1="50" y1="343.60990286244737" x2="45" y2="343.60990286244737" style="visibility: inherit;" fill="rgb(0, 0, 0)" stroke="rgb(204, 204, 204)" stroke-width="1px"></line><line x1="50" y1="316.11599069119757" x2="45" y2="316.11599069119757" style="visibility: inherit;" fill="rgb(0, 0, 0)" stroke="rgb(204, 204, 204)" stroke-width="1px"></line><line x1="50" y1="288.62207851994776" x2="45" y2="288.62207851994776" style="visibility: inherit;" fill="rgb(0, 0, 0)" stroke="rgb(204, 204, 204)" stroke-width="1px"></line><line x1="50" y1="261.12816634869796" x2="45" y2="261.12816634869796" style="visibility: inherit;" fill="rgb(0, 0, 0)" stroke="rgb(204, 204, 204)" stroke-width="1px"></line><line x1="50" y1="233.63425417744813" x2="45" y2="233.63425417744813" style="visibility: inherit;" fill="rgb(0, 0, 0)" stroke="rgb(204, 204, 204)" stroke-width="1px"></line><line x1="50" y1="206.14034200619832" x2="45" y2="206.14034200619832" style="visibility: inherit;" fill="rgb(0, 0, 0)" stroke="rgb(204, 204, 204)" stroke-width="1px"></line><line x1="50" y1="178.64642983494866" x2="45" y2="178.64642983494866" style="visibility: inherit;" fill="rgb(0, 0, 0)" stroke="rgb(204, 204, 204)" stroke-width="1px"></line><line x1="50" y1="151.1525176636989" x2="45" y2="151.1525176636989" style="visibility: inherit;" fill="rgb(0, 0, 0)" stroke="rgb(204, 204, 204)" stroke-width="1px"></line><line x1="50" y1="123.65860549244907" x2="45" y2="123.65860549244907" style="visibility: inherit;" fill="rgb(0, 0, 0)" stroke="rgb(204, 204, 204)" stroke-width="1px"></line><line x1="50" y1="96.16469332119927" x2="45" y2="96.16469332119927" style="visibility: inherit;" fill="rgb(0, 0, 0)" stroke="rgb(204, 204, 204)" stroke-width="1px"></line><line x1="50" y1="68.67078114994945" x2="45" y2="68.67078114994945" style="visibility: inherit;" fill="rgb(0, 0, 0)" stroke="rgb(204, 204, 204)" stroke-width="1px"></line><line x1="50" y1="41.17686897869967" x2="45" y2="41.17686897869967" style="visibility: inherit;" fill="rgb(0, 0, 0)" stroke="rgb(204, 204, 204)" stroke-width="1px"></line><line x1="50" y1="13.682956807450024" x2="45" y2="13.682956807450024" style="visibility: inherit;" fill="rgb(0, 0, 0)" stroke="rgb(204, 204, 204)" stroke-width="1px"></line></g><g transform="translate(40, 0)"><text x="0" y="371.103815033697" dx="0em" dy="0.3em" style="text-anchor: end; visibility: inherit; font-family: Roboto, sans-serif; font-size: 12px; font-weight: 200;" fill="rgb(33, 33, 33)" stroke="none" stroke-width="1px">0.68</text><text x="0" y="343.60990286244737" dx="0em" dy="0.3em" style="text-anchor: end; visibility: inherit; font-family: Roboto, sans-serif; font-size: 12px; font-weight: 200;" fill="rgb(33, 33, 33)" stroke="none" stroke-width="1px">0.7</text><text x="0" y="316.11599069119757" dx="0em" dy="0.3em" style="text-anchor: end; visibility: inherit; font-family: Roboto, sans-serif; font-size: 12px; font-weight: 200;" fill="rgb(33, 33, 33)" stroke="none" stroke-width="1px">0.72</text><text x="0" y="288.62207851994776" dx="0em" dy="0.3em" style="text-anchor: end; visibility: inherit; font-family: Roboto, sans-serif; font-size: 12px; font-weight: 200;" fill="rgb(33, 33, 33)" stroke="none" stroke-width="1px">0.74</text><text x="0" y="261.12816634869796" dx="0em" dy="0.3em" style="text-anchor: end; visibility: inherit; font-family: Roboto, sans-serif; font-size: 12px; font-weight: 200;" fill="rgb(33, 33, 33)" stroke="none" stroke-width="1px">0.76</text><text x="0" y="233.63425417744813" dx="0em" dy="0.3em" style="text-anchor: end; visibility: inherit; font-family: Roboto, sans-serif; font-size: 12px; font-weight: 200;" fill="rgb(33, 33, 33)" stroke="none" stroke-width="1px">0.78</text><text x="0" y="206.14034200619832" dx="0em" dy="0.3em" style="text-anchor: end; visibility: inherit; font-family: Roboto, sans-serif; font-size: 12px; font-weight: 200;" fill="rgb(33, 33, 33)" stroke="none" stroke-width="1px">0.8</text><text x="0" y="178.64642983494866" dx="0em" dy="0.3em" style="text-anchor: end; visibility: inherit; font-family: Roboto, sans-serif; font-size: 12px; font-weight: 200;" fill="rgb(33, 33, 33)" stroke="none" stroke-width="1px">0.82</text><text x="0" y="151.1525176636989" dx="0em" dy="0.3em" style="text-anchor: end; visibility: inherit; font-family: Roboto, sans-serif; font-size: 12px; font-weight: 200;" fill="rgb(33, 33, 33)" stroke="none" stroke-width="1px">0.84</text><text x="0" y="123.65860549244907" dx="0em" dy="0.3em" style="text-anchor: end; visibility: inherit; font-family: Roboto, sans-serif; font-size: 12px; font-weight: 200;" fill="rgb(33, 33, 33)" stroke="none" stroke-width="1px">0.86</text><text x="0" y="96.16469332119927" dx="0em" dy="0.3em" style="text-anchor: end; visibility: inherit; font-family: Roboto, sans-serif; font-size: 12px; font-weight: 200;" fill="rgb(33, 33, 33)" stroke="none" stroke-width="1px">0.88</text><text x="0" y="68.67078114994945" dx="0em" dy="0.3em" style="text-anchor: end; visibility: inherit; font-family: Roboto, sans-serif; font-size: 12px; font-weight: 200;" fill="rgb(33, 33, 33)" stroke="none" stroke-width="1px">0.9</text><text x="0" y="41.17686897869967" dx="0em" dy="0.3em" style="text-anchor: end; visibility: inherit; font-family: Roboto, sans-serif; font-size: 12px; font-weight: 200;" fill="rgb(33, 33, 33)" stroke="none" stroke-width="1px">0.92</text><text x="0" y="13.682956807450024" dx="0em" dy="0.3em" style="text-anchor: end; visibility: inherit; font-family: Roboto, sans-serif; font-size: 12px; font-weight: 200;" fill="rgb(33, 33, 33)" stroke="none" stroke-width="1px">0.94</text></g><line x1="50" y1="0" x2="50" y2="377" fill="rgb(0, 0, 0)" stroke="rgb(204, 204, 204)" stroke-width="1px"></line></g></g><g transform="translate(50, 0)" clip-path="url(#clip_0)"><clipPath id="clip_0"><rect width="489" height="377"></rect></clipPath><g><g><g><line x1="4.733517818344723" y1="0" x2="4.733517818344723" y2="377" fill="rgb(0, 0, 0)" stroke="rgb(66, 66, 66)" stroke-width="1px" opacity="0.25"></line><line x1="36.34094773403043" y1="0" x2="36.34094773403043" y2="377" fill="rgb(0, 0, 0)" stroke="rgb(66, 66, 66)" stroke-width="1px" opacity="0.25"></line><line x1="67.94837764971614" y1="0" x2="67.94837764971614" y2="377" fill="rgb(0, 0, 0)" stroke="rgb(66, 66, 66)" stroke-width="1px" opacity="0.25"></line><line x1="99.55580756540186" y1="0" x2="99.55580756540186" y2="377" fill="rgb(0, 0, 0)" stroke="rgb(66, 66, 66)" stroke-width="1px" opacity="0.25"></line><line x1="131.16323748108755" y1="0" x2="131.16323748108755" y2="377" fill="rgb(0, 0, 0)" stroke="rgb(66, 66, 66)" stroke-width="1px" opacity="0.25"></line><line x1="162.7706673967733" y1="0" x2="162.7706673967733" y2="377" fill="rgb(0, 0, 0)" stroke="rgb(66, 66, 66)" stroke-width="1px" opacity="0.25"></line><line x1="194.378097312459" y1="0" x2="194.378097312459" y2="377" fill="rgb(0, 0, 0)" stroke="rgb(66, 66, 66)" stroke-width="1px" opacity="0.25"></line><line x1="225.9855272281447" y1="0" x2="225.9855272281447" y2="377" fill="rgb(0, 0, 0)" stroke="rgb(66, 66, 66)" stroke-width="1px" opacity="0.25"></line><line x1="257.5929571438304" y1="0" x2="257.5929571438304" y2="377" fill="rgb(0, 0, 0)" stroke="rgb(66, 66, 66)" stroke-width="1px" opacity="0.25"></line><line x1="289.2003870595161" y1="0" x2="289.2003870595161" y2="377" fill="rgb(0, 0, 0)" stroke="rgb(66, 66, 66)" stroke-width="1px" opacity="0.25"></line><line x1="320.80781697520183" y1="0" x2="320.80781697520183" y2="377" fill="rgb(0, 0, 0)" stroke="rgb(66, 66, 66)" stroke-width="1px" opacity="0.25"></line><line x1="352.41524689088754" y1="0" x2="352.41524689088754" y2="377" fill="rgb(0, 0, 0)" stroke="rgb(66, 66, 66)" stroke-width="1px" opacity="0.25"></line><line x1="384.02267680657326" y1="0" x2="384.02267680657326" y2="377" fill="rgb(0, 0, 0)" stroke="rgb(66, 66, 66)" stroke-width="1px" opacity="0.25"></line><line x1="415.630106722259" y1="0" x2="415.630106722259" y2="377" fill="rgb(0, 0, 0)" stroke="rgb(66, 66, 66)" stroke-width="1px" opacity="0.25"></line><line x1="447.2375366379447" y1="0" x2="447.2375366379447" y2="377" fill="rgb(0, 0, 0)" stroke="rgb(66, 66, 66)" stroke-width="1px" opacity="0.25"></line><line x1="478.8449665536304" y1="0" x2="478.8449665536304" y2="377" fill="rgb(0, 0, 0)" stroke="rgb(66, 66, 66)" stroke-width="1px" opacity="0.25"></line></g><g><line x1="0" y1="371.103815033697" x2="489" y2="371.103815033697" fill="rgb(0, 0, 0)" stroke="rgb(66, 66, 66)" stroke-width="1px" opacity="0.25"></line><line x1="0" y1="343.60990286244737" x2="489" y2="343.60990286244737" fill="rgb(0, 0, 0)" stroke="rgb(66, 66, 66)" stroke-width="1px" opacity="0.25"></line><line x1="0" y1="316.11599069119757" x2="489" y2="316.11599069119757" fill="rgb(0, 0, 0)" stroke="rgb(66, 66, 66)" stroke-width="1px" opacity="0.25"></line><line x1="0" y1="288.62207851994776" x2="489" y2="288.62207851994776" fill="rgb(0, 0, 0)" stroke="rgb(66, 66, 66)" stroke-width="1px" opacity="0.25"></line><line x1="0" y1="261.12816634869796" x2="489" y2="261.12816634869796" fill="rgb(0, 0, 0)" stroke="rgb(66, 66, 66)" stroke-width="1px" opacity="0.25"></line><line x1="0" y1="233.63425417744813" x2="489" y2="233.63425417744813" fill="rgb(0, 0, 0)" stroke="rgb(66, 66, 66)" stroke-width="1px" opacity="0.25"></line><line x1="0" y1="206.14034200619832" x2="489" y2="206.14034200619832" fill="rgb(0, 0, 0)" stroke="rgb(66, 66, 66)" stroke-width="1px" opacity="0.25"></line><line x1="0" y1="178.64642983494866" x2="489" y2="178.64642983494866" fill="rgb(0, 0, 0)" stroke="rgb(66, 66, 66)" stroke-width="1px" opacity="0.25"></line><line x1="0" y1="151.1525176636989" x2="489" y2="151.1525176636989" fill="rgb(0, 0, 0)" stroke="rgb(66, 66, 66)" stroke-width="1px" opacity="0.25"></line><line x1="0" y1="123.65860549244907" x2="489" y2="123.65860549244907" fill="rgb(0, 0, 0)" stroke="rgb(66, 66, 66)" stroke-width="1px" opacity="0.25"></line><line x1="0" y1="96.16469332119927" x2="489" y2="96.16469332119927" fill="rgb(0, 0, 0)" stroke="rgb(66, 66, 66)" stroke-width="1px" opacity="0.25"></line><line x1="0" y1="68.67078114994945" x2="489" y2="68.67078114994945" fill="rgb(0, 0, 0)" stroke="rgb(66, 66, 66)" stroke-width="1px" opacity="0.25"></line><line x1="0" y1="41.17686897869967" x2="489" y2="41.17686897869967" fill="rgb(0, 0, 0)" stroke="rgb(66, 66, 66)" stroke-width="1px" opacity="0.25"></line><line x1="0" y1="13.682956807450024" x2="489" y2="13.682956807450024" fill="rgb(0, 0, 0)" stroke="rgb(66, 66, 66)" stroke-width="1px" opacity="0.25"></line></g></g></g><g><g><line x1="0" y1="1305.8968288561896" x2="489" y2="1305.8968288561896" fill="rgb(0, 0, 0)" stroke="rgb(153, 153, 153)" stroke-width="1.5px"></line></g></g><g><g><line x1="4.733517818344723" y1="0" x2="4.733517818344723" y2="377" fill="rgb(0, 0, 0)" stroke="rgb(153, 153, 153)" stroke-width="1.5px"></line></g></g><g><g><g><g><g><path stroke="rgb(51, 187, 238)" stroke-width="2px" d="M4.733517818344723,354.147832860197L20.53723277618758,352.0254684790633L36.34094773403043,353.0491229541426L52.144662691873286,352.3916504889192L67.94837764971614,352.48333938330916L83.75209260755899,351.70795778580055L99.55580756540186,353.3406592242404L115.3595225232447,353.385561381636L131.16323748108755,354.29704240146964L146.96695243893043,354.0629448400111L162.7706673967733,354.99777825922024L178.57438235461612,355.208277606573L194.378097312459,354.7275459324123L210.18181227030186,355.29013391175226L225.9855272281447,355.7336656233991L241.78924218598755,354.7412296190639L257.5929571438304,354.7760533725185L273.3966721016733,353.1049228979134L289.2003870595161,352.8072412595589L305.004102017359,353.43513401890675L320.80781697520183,352.94915829716695L336.6115319330447,353.4526688029992L352.41524689088754,354.29056928023925L368.2189618487304,354.49451356811824L384.02267680657326,353.51707226232935L399.82639176441614,353.5887682253242L415.630106722259,354.08982058385374L431.43382168010186,356.0569939319449L447.2375366379447,358.15961119641366L463.0412515957875,355.790448826091" style="fill: none;" fill="none"></path></g><g><path stroke="rgb(204, 51, 17)" stroke-width="2px" d="M4.733517818344723,170.77913922531144L20.53723277618758,281.20329491209804L36.34094773403043,292.4593972257986L52.144662691873286,319.2097755559933L67.94837764971614,330.9801222854145L83.75209260755899,335.47812215810126L99.55580756540186,343.6290927990569L115.3595225232447,334.5856508107417L131.16323748108755,340.36270666325606L146.96695243893043,346.0485652508411L162.7706673967733,348.7184409745249L178.57438235461612,347.3741621529328L194.378097312459,347.8807043737717L210.18181227030186,352.5722423774227L225.9855272281447,353.6907813383854L241.78924218598755,351.58537817364027L257.5929571438304,349.41688256145966L273.3966721016733,346.70579190133424L289.2003870595161,354.01632197950363L305.004102017359,351.252463090614L320.80781697520183,353.619167313634L336.6115319330447,353.1287669267494L352.41524689088754,353.41538690224183L368.2189618487304,355.2682564007584L384.02267680657326,354.7382798423007L399.82639176441614,355.9334310608635L415.630106722259,355.73530438826754L431.43382168010186,354.42576738188666L447.2375366379447,356.72052982718156L463.0412515957875,356.068055594807" style="fill: none;" fill="none"></path></g><g><path stroke="rgb(204, 51, 17)" stroke-width="2px" d="M4.733517818344723,351.02803424187937L20.53723277618758,352.15870006286855L36.34094773403043,353.3367261885561L52.144662691873286,351.32964891591814L67.94837764971614,353.08288151043274L83.75209260755899,353.02536086355L99.55580756540186,353.7495310589195L115.3595225232447,351.27515998404203L131.16323748108755,354.24271734608044L146.96695243893043,351.8973170663503L162.7706673967733,351.26409832118003L178.57438235461612,349.65171756710896L194.378097312459,350.9110264302718L210.18181227030186,352.6395136752728L225.9855272281447,352.22810175504753L241.78924218598755,352.35559766181325L257.5929571438304,353.62465717594336L273.3966721016733,351.9981830440036L289.2003870595161,353.18341973511235L305.004102017359,351.3501334767738L320.80781697520183,352.16763133140165L336.6115319330447,353.0346198850568L352.41524689088754,352.6781065879248L368.2189618487304,352.49964509375025L384.02267680657326,352.75029418038014L399.82639176441614,353.48732867996694L415.630106722259,354.39569604655054L431.43382168010186,354.24337285202785L447.2375366379447,355.62026309450215L463.0412515957875,355.2294996116195" style="fill: none;" fill="none"></path></g><g><path stroke="rgb(0, 119, 187)" stroke-width="2px" d="M4.733517818344723,140.067374578605L20.53723277618758,263.16975273193583L36.34094773403043,291.47531892229256L52.144662691873286,325.4565014198064L67.94837764971614,312.68642618238533L83.75209260755899,339.28890598320214L99.55580756540186,334.0249474110005L115.3595225232447,343.5519069737527L131.16323748108755,335.5122084673651L146.96695243893043,345.1519969913104L162.7706673967733,345.46647596956655L178.57438235461612,346.5462581413903L194.378097312459,342.8282284078438L210.18181227030186,348.2361524737392L225.9855272281447,349.2592333811145L241.78924218598755,339.3216812805712L257.5929571438304,350.19201834423797L273.3966721016733,349.21121757046876L289.2003870595161,353.98084272010163L305.004102017359,352.9019618689555L320.80781697520183,351.1025161051505L336.6115319330447,350.525670871455L352.41524689088754,352.6227163353711L368.2189618487304,353.11762332564393L384.02267680657326,350.94634181318696L399.82639176441614,352.7098986263728L415.630106722259,354.7962101804005L431.43382168010186,350.50584181654676L447.2375366379447,350.5114136170995L463.0412515957875,354.5061487986843" style="fill: none;" fill="none"></path></g><g><path stroke="rgb(0, 119, 187)" stroke-width="2px" d="M4.733517818344723,355.52382178199366L20.53723277618758,354.43953300678163L36.34094773403043,353.6508774138386L52.144662691873286,355.61067632002164L67.94837764971614,353.07157403284043L83.75209260755899,352.23342774087007L99.55580756540186,354.9026479586065L115.3595225232447,356.57443393915895L131.16323748108755,352.5434820539814L146.96695243893043,353.3486891720958L162.7706673967733,353.60818758901536L178.57438235461612,350.6862698285634L194.378097312459,348.3461955346558L210.18181227030186,350.83818333186906L225.9855272281447,347.78762252924355" style="fill: none;" fill="none"></path></g><g><path stroke="rgb(255, 112, 67)" stroke-width="2px" d="M4.733517818344723,103.53062020698188L20.53723277618758,196.73291395295107L36.34094773403043,252.37356977856658L52.144662691873286,288.00998673146154L67.94837764971614,307.31643952319473L83.75209260755899,304.45335342152026L99.55580756540186,305.6600579324057L115.3595225232447,320.6057574091851L131.16323748108755,338.1147309549555L146.96695243893043,330.76462470521295L162.7706673967733,335.7134487932111L178.57438235461612,333.4894809902334L194.378097312459,339.45261859356066L210.18181227030186,339.43303535338265L225.9855272281447,344.21921202818686" style="fill: none;" fill="none"></path></g><g><path stroke="rgb(255, 112, 67)" stroke-width="2px" d="M4.733517818344723,352.17484189682284L20.53723277618758,353.0747696243339L36.34094773403043,349.07257806259764L52.144662691873286,352.9757062880359L67.94837764971614,349.2507118037985L83.75209260755899,353.71446149073455L99.55580756540186,359.3790980732731L115.3595225232447,355.1766494446119L131.16323748108755,352.647133931911L146.96695243893043,351.07645974374213L162.7706673967733,349.7253800479459L178.57438235461612,350.6466936569903L194.378097312459,350.3764613301824L210.18181227030186,349.95259479695693L225.9855272281447,349.3171637192143L241.78924218598755,349.2693937232989L257.5929571438304,351.8603629185667L273.3966721016733,350.153835122803L289.2003870595161,351.20346402104724L305.004102017359,351.6959948022608L320.80781697520183,352.42622842764354L336.6115319330447,350.10950653311136L352.41524689088754,350.92593919057475L368.2189618487304,352.87565969281684L384.02267680657326,352.58928553205465L399.82639176441614,348.9804794769906L415.630106722259,351.050649197064L431.43382168010186,354.4869752497234L447.2375366379447,350.46093965915117L463.0412515957875,352.80339016211803" style="fill: none;" fill="none"></path></g><g><path stroke="rgb(187, 187, 187)" stroke-width="2px" d="M4.733517818344723,2.331727470665351L20.53723277618758,155.51748588189426L36.34094773403043,224.32848526405047L52.144662691873286,245.17734354997174L67.94837764971614,286.20767312913677L83.75209260755899,286.030522646857L99.55580756540186,307.2950536416614L115.3595225232447,314.1709832767171L131.16323748108755,322.608164201948L146.96695243893043,334.92774297703124L162.7706673967733,329.7402327859429L178.57438235461612,339.4263983556654L194.378097312459,342.2034493017461L210.18181227030186,344.5292663412982L225.9855272281447,346.15959157067874L241.78924218598755,350.04731540635356L257.5929571438304,348.7176215920907L273.3966721016733,352.76037258432115L289.2003870595161,353.3309905115166L305.004102017359,355.2848898641732L320.80781697520183,359.59459565347464L336.6115319330447,358.0144166290687L352.41524689088754,356.63646118942995L368.2189618487304,353.21644084721163L384.02267680657326,360.82448868724873L399.82639176441614,365.8491875886563L415.630106722259,363.5360709768347L431.43382168010186,364.3858524993711L447.2375366379447,366.90889489084157L463.0412515957875,365.99192400869856" style="fill: none;" fill="none"></path></g><g><path stroke="rgb(0, 119, 187)" stroke-width="2px" d="M4.733517818344723,352.5782238691926L20.53723277618758,353.3667975238922L36.34094773403043,353.4674996250587L52.144662691873286,352.2984867061476L67.94837764971614,353.75354603284717L83.75209260755899,353.67783509592465L99.55580756540186,353.3200107868979L115.3595225232447,355.0952028306497L131.16323748108755,354.65945525212805L146.96695243893043,354.92600035798193L162.7706673967733,356.3105108570946L178.57438235461612,356.26134791104096L194.378097312459,355.0503006732541L210.18181227030186,354.0790866739654L225.9855272281447,354.6433953564172L241.78924218598755,355.3424924492993L257.5929571438304,354.69419706733925L273.3966721016733,355.55479443800743L289.2003870595161,355.4660553203807L305.004102017359,354.9346858117848L320.80781697520183,355.0953667071366L336.6115319330447,355.8413324752565L352.41524689088754,355.407961105794L368.2189618487304,354.5503954501325L384.02267680657326,355.6250974508641L399.82639176441614,358.5561922945793L415.630106722259,358.2038578478619L431.43382168010186,358.7781629960113L447.2375366379447,357.8462793535654L463.0412515957875,357.6888759879505" style="fill: none;" fill="none"></path></g><g><path stroke="rgb(255, 112, 67)" stroke-width="2px" d="M4.733517818344723,226.33408764830685L20.53723277618758,288.297180274658L36.34094773403043,307.7698038240523L52.144662691873286,320.66499875917975L67.94837764971614,323.38452905837767L83.75209260755899,335.7397509693498L99.55580756540186,336.306845552078L115.3595225232447,344.6954370989593L131.16323748108755,338.22018547424045L146.96695243893043,344.80916738083L162.7706673967733,344.27894500764194L178.57438235461612,346.8956428113445L194.378097312459,349.125755982579L210.18181227030186,346.3936891321373L225.9855272281447,351.8818307383434L241.78924218598755,353.2996901025291L257.5929571438304,350.4249687702886L273.3966721016733,351.7480255868342L289.2003870595161,356.24618933600783L305.004102017359,350.34811069795813L320.80781697520183,352.41098791436696L336.6115319330447,350.80090143111175L352.41524689088754,355.56765874222475L368.2189618487304,354.30572785527244L384.02267680657326,356.43014069249165L399.82639176441614,358.01367918487796L415.630106722259,354.84897840916466L431.43382168010186,357.0096898882201L447.2375366379447,358.60683012901455L463.0412515957875,352.495712058066" style="fill: none;" fill="none"></path></g><g><path stroke="rgb(255, 112, 67)" stroke-width="2px" d="M4.733517818344723,350.9469153808909L20.53723277618758,350.72674732081424L36.34094773403043,351.8128387373815L52.144662691873286,352.3427333575959L67.94837764971614,352.14657320284203L83.75209260755899,351.5424425340868L99.55580756540186,351.85954353613243L115.3595225232447,352.15747098921725L131.16323748108755,352.2444074654887L146.96695243893043,352.72350037478094L162.7706673967733,353.0824718192156L178.57438235461612,352.81346856605904L194.378097312459,352.39296150081395L210.18181227030186,352.0540649260179L225.9855272281447,352.2623519407982L241.78924218598755,352.49128739292115L257.5929571438304,352.2647281498575L273.3966721016733,351.95123243052245L289.2003870595161,352.4419605703807L305.004102017359,352.3342937185233L320.80781697520183,352.73210389034034L336.6115319330447,353.393509391248L352.41524689088754,353.7348641133468L368.2189618487304,353.9379890187916L384.02267680657326,353.9335643536467L399.82639176441614,353.7409275433601L415.630106722259,353.9569167530222L431.43382168010186,354.10825668862384L447.2375366379447,353.5533709041656L463.0412515957875,353.2831385773577" style="fill: none;" fill="none"></path></g><g><path stroke="rgb(187, 187, 187)" stroke-width="2px" d="M4.733517818344723,121.4183942520952L20.53723277618758,250.29373134576932L36.34094773403043,303.2393564069702L52.144662691873286,313.87616947688235L67.94837764971614,323.2775996507111L83.75209260755899,322.8076838246822L99.55580756540186,342.11077714843503L115.3595225232447,344.0254280824922L131.16323748108755,340.2693790039977L146.96695243893043,340.21652883699005L162.7706673967733,338.8194817866338L178.57438235461612,342.0815251955332L194.378097312459,343.2009654771735L210.18181227030186,344.2827961050828L225.9855272281447,348.6620674630501L241.78924218598755,347.1649738174748L257.5929571438304,348.45369851002636L273.3966721016733,346.98126827572116L289.2003870595161,349.133130424487L305.004102017359,348.4124016353413L320.80781697520183,347.9374875764636L336.6115319330447,350.19046151761296L352.41524689088754,353.2722407909825L368.2189618487304,352.78864127830195L384.02267680657326,350.3392613676685L399.82639176441614,351.2137063014751L415.630106722259,352.7416906648208L431.43382168010186,352.96185872489747L447.2375366379447,352.6882669301092L463.0412515957875,351.17601470950063" style="fill: none;" fill="none"></path></g><g><path stroke="rgb(187, 187, 187)" stroke-width="2px" d="M4.733517818344723,351.96786589393724L20.53723277618758,354.8247246891116L36.34094773403043,353.00192652593114L52.144662691873286,355.4783460568941L67.94837764971614,352.4369623375319L83.75209260755899,355.5073521950657L99.55580756540186,356.9705234078641L115.3595225232447,354.9713122065947L131.16323748108755,355.8482972259474L146.96695243893043,353.5763955505674L162.7706673967733,355.9102425379749L178.57438235461612,357.30130809656134L194.378097312459,358.82396647408456L210.18181227030186,358.068168116754L225.9855272281447,358.786438758597L241.78924218598755,358.04833906184575L257.5929571438304,359.0973124541426L273.3966721016733,357.3688252091416L289.2003870595161,356.9842070945157L305.004102017359,357.7754027730049L320.80781697520183,357.70370681001003" style="fill: none;" fill="none"></path></g><g><path stroke="rgb(0, 153, 136)" stroke-width="2px" d="M4.733517818344723,170.89647478989272L20.53723277618758,247.8085444227601L36.34094773403043,267.0642774418147L52.144662691873286,294.4903185272726L67.94837764971614,299.70224631490095L83.75209260755899,321.26478670103353L99.55580756540186,328.8267033100237L115.3595225232447,319.0503237342929L131.16323748108755,328.6995351562317L146.96695243893043,327.2263674777358L162.7706673967733,345.8456861601266L178.57438235461612,342.6493572224522L194.378097312459,352.77626860354513L210.18181227030186,347.76197585905226L225.9855272281447,346.42925032978275L241.78924218598755,341.32023697589324L257.5929571438304,355.6925326252009L273.3966721016733,340.6057354932477L289.2003870595161,353.485198285638L305.004102017359,360.1136744255572L320.80781697520183,356.53674234718454" style="fill: none;" fill="none"></path></g><g><path stroke="rgb(0, 153, 136)" stroke-width="2px" d="M4.733517818344723,353.60179640602837L20.53723277618758,350.63595974710194L36.34094773403043,352.6388581693254L52.144662691873286,351.37971318264937L67.94837764971614,352.32896773270085L83.75209260755899,354.30040186945L99.55580756540186,350.7008548358927L115.3595225232447,351.91780162720596L131.16323748108755,355.2031974354808L146.96695243893043,355.52079006698705L162.7706673967733,355.95080196846914L178.57438235461612,355.20762210062566L194.378097312459,354.83742511684204L210.18181227030186,354.1497174397957L225.9855272281447,356.62982419171266L241.78924218598755,355.63083312790366L257.5929571438304,357.1095726069524L273.3966721016733,355.48613019001925L289.2003870595161,355.12486447476874L305.004102017359,356.30608619194976L320.80781697520183,356.6251537118376L336.6115319330447,355.38100342370797L352.41524689088754,352.85902622940205L368.2189618487304,353.0733766741957L384.02267680657326,354.3272776132926L399.82639176441614,355.1882846751779L415.630106722259,353.8567062813163" style="fill: none;" fill="none"></path></g><g><path stroke="rgb(238, 51, 119)" stroke-width="2px" d="M4.733517818344723,145.37271196373516L20.53723277618758,222.98592714557023L36.34094773403043,269.1988506212183L52.144662691873286,275.4835958299795L67.94837764971614,310.7808703933481L83.75209260755899,314.2035946975993L99.55580756540186,324.37360559473257L115.3595225232447,320.0829914161486L131.16323748108755,332.8456102734181L146.96695243893043,342.6343625239058L162.7706673967733,346.38688825793326L178.57438235461612,347.9882892873856L194.378097312459,335.9539375376566L210.18181227030186,345.9338517100494L225.9855272281447,340.64686849144584L241.78924218598755,353.1260629647165L257.5929571438304,346.7869927005661L273.3966721016733,354.09916154360394L289.2003870595161,353.3744177805305L305.004102017359,350.66791566203676L320.80781697520183,355.69761279629313L336.6115319330447,353.9424956221798L352.41524689088754,349.5290560167053L368.2189618487304,356.6865254561612L384.02267680657326,363.0142063044758L399.82639176441614,359.2427528362178L415.630106722259,360.8135909008735" style="fill: none;" fill="none"></path></g><g><path stroke="rgb(187, 187, 187)" stroke-width="2px" d="M4.733517818344723,354.02451580384593L20.53723277618758,353.06616610877455L36.34094773403043,353.73822358132713L52.144662691873286,354.1331659146243L67.94837764971614,354.2334583245737L83.75209260755899,354.8363599196776L99.55580756540186,355.06996585167553L115.3595225232447,356.189815824533L131.16323748108755,356.4517723887553L146.96695243893043,356.38859800307637L162.7706673967733,355.993819546266L178.57438235461612,356.2226730601455L194.378097312459,355.2346617209551L210.18181227030186,355.0575931769187L225.9855272281447,355.2824317168705L241.78924218598755,355.90270421958L257.5929571438304,355.8798434496651L273.3966721016733,356.0771507398269L289.2003870595161,355.65951151310156L305.004102017359,355.98537990719353L320.80781697520183,355.37723426451055L336.6115319330447,355.41795757149157L352.41524689088754,354.59316721319914L368.2189618487304,354.6078341587718L384.02267680657326,355.8233060617035L399.82639176441614,355.1852529601713L415.630106722259,355.12969883113067L431.43382168010186,354.96639591198937L447.2375366379447,353.64243777476605L463.0412515957875,354.9684443680749" style="fill: none;" fill="none"></path></g><g><path stroke="rgb(0, 153, 136)" stroke-width="2px" d="M4.733517818344723,196.3297777953116L20.53723277618758,278.0202399698581L36.34094773403043,314.63303303137747L52.144662691873286,320.3842783372137L67.94837764971614,326.9054973164927L83.75209260755899,338.29466733751167L99.55580756540186,347.90815368531827L115.3595225232447,340.9720813795904L131.16323748108755,342.8485490922127L146.96695243893043,344.10285972252666L162.7706673967733,348.1291411278292L178.57438235461612,347.41980175451926L194.378097312459,348.80169022984234L210.18181227030186,350.99943779492486L225.9855272281447,354.2486168996069L241.78924218598755,347.0316602954261L257.5929571438304,358.56733589568483L273.3966721016733,349.38492664652483L289.2003870595161,347.8627598984621L305.004102017359,359.42744163689247L320.80781697520183,359.1353317990907L336.6115319330447,352.21310705650126L352.41524689088754,354.4864016820194L368.2189618487304,353.8694067090468L384.02267680657326,357.38676968445117L399.82639176441614,357.6402866096009L415.630106722259,358.3784682445956L431.43382168010186,355.69269650168775L447.2375366379447,355.47744473621646L463.0412515957875,358.56430418067816" style="fill: none;" fill="none"></path></g><g><path stroke="rgb(0, 153, 136)" stroke-width="2px" d="M4.733517818344723,349.31740953394456L20.53723277618758,349.9475146258648L36.34094773403043,351.7713779862097L52.144662691873286,352.28136161327234L67.94837764971614,353.5465700299615L83.75209260755899,353.8181133686642L99.55580756540186,353.75657774785384L115.3595225232447,353.80664201458507L131.16323748108755,354.50565716922375L146.96695243893043,354.990567693799L162.7706673967733,354.19412796773076L178.57438235461612,353.4870828652367L194.378097312459,353.6389963685423L210.18181227030186,353.5528792747051L225.9855272281447,354.1946195971913L241.78924218598755,353.51469605327014L257.5929571438304,353.0187238658328L273.3966721016733,353.2147201440998L289.2003870595161,353.47405468453246L305.004102017359,353.56320349337636L320.80781697520183,353.8986586619487L336.6115319330447,353.674803380918L352.41524689088754,352.97054417870027L368.2189618487304,352.71882989490587L384.02267680657326,352.785937316269L399.82639176441614,352.1724656877636L415.630106722259,351.6726424028854L431.43382168010186,352.22490616355407L447.2375366379447,352.3696910396819L463.0412515957875,352.0780728313407" style="fill: none;" fill="none"></path></g><g><path stroke="rgb(238, 51, 119)" stroke-width="2px" d="M4.733517818344723,167.6123899935126L20.53723277618758,287.92444320532826L36.34094773403043,306.85553690394227L52.144662691873286,321.64596340943575L67.94837764971614,338.1871643621411L83.75209260755899,327.23783883181494L99.55580756540186,333.9470241415055L115.3595225232447,339.99718015934764L131.16323748108755,346.3551781577287L146.96695243893043,346.372303250604L162.7706673967733,348.5504675755085L178.57438235461612,346.14172903361265L194.378097312459,349.9985621515171L210.18181227030186,352.75742280755793L225.9855272281447,351.0024695099315L241.78924218598755,351.4379712737229L257.5929571438304,350.4583176353616L273.3966721016733,351.6865719042673L289.2003870595161,350.8458855267508L305.004102017359,352.931131883614L320.80781697520183,348.57742525759454L336.6115319330447,355.7019555231945L352.41524689088754,356.18702992425665L368.2189618487304,355.71457401268157L384.02267680657326,358.2739150459883L399.82639176441614,354.6556041546872L415.630106722259,355.92253327448833L431.43382168010186,355.8043783274729L447.2375366379447,358.31095113201536L463.0412515957875,352.03423587110956" style="fill: none;" fill="none"></path></g><g><path stroke="rgb(238, 51, 119)" stroke-width="2px" d="M4.733517818344723,351.8392228517636L20.53723277618758,354.59283946022543L36.34094773403043,353.1125431545517L52.144662691873286,353.99501803621376L67.94837764971614,352.3238875616087L83.75209260755899,353.2374989757713L99.55580756540186,353.21283556450106L115.3595225232447,352.3065985922465L131.16323748108755,352.17533352628334L146.96695243893043,349.66458187132633L162.7706673967733,347.3010732397998L178.57438235461612,347.9896822375238L194.378097312459,347.1122055887106L210.18181227030186,350.8504740683824L225.9855272281447,350.9179911809627L241.78924218598755,352.91359709952155L257.5929571438304,354.2638574128835L273.3966721016733,354.25935080949523L289.2003870595161,355.04268041661584L305.004102017359,353.51658063286885L320.80781697520183,353.66382365629937L336.6115319330447,352.1005239100385L352.41524689088754,352.96464462517383L368.2189618487304,354.7998154631111L384.02267680657326,356.0297904351286L399.82639176441614,354.189703302586L415.630106722259,354.7999793395979L431.43382168010186,353.9721572662988" style="fill: none;" fill="none"></path></g><g><path stroke="rgb(51, 187, 238)" stroke-width="2px" d="M4.733517818344723,88.95347894911757L20.53723277618758,176.1846051439041L36.34094773403043,230.88952622963285L52.144662691873286,270.85047979388884L67.94837764971614,308.744295353078L83.75209260755899,292.6972639464546L99.55580756540186,293.74287787077117L115.3595225232447,331.0927054318773L131.16323748108755,322.3285089771465L146.96695243893043,339.7561997854416L162.7706673967733,324.590823878046L178.57438235461612,337.19128695158213L194.378097312459,354.85905681310567L210.18181227030186,339.89688774939833L225.9855272281447,360.1851245738217L241.78924218598755,346.1076427243488L257.5929571438304,352.58969522327175L273.3966721016733,357.1638976623416L289.2003870595161,347.6257944984838L305.004102017359,359.3509932557791L320.80781697520183,355.92130420083697L336.6115319330447,362.46620333246506L352.41524689088754,356.2286545519153L368.2189618487304,367.13627351633943L384.02267680657326,357.72394555613545L399.82639176441614,365.57059756101927L415.630106722259,366.88570636795293L431.43382168010186,362.2352194242566" style="fill: none;" fill="none"></path></g><g><path stroke="rgb(51, 187, 238)" stroke-width="2px" d="M4.733517818344723,342.7611209864807L20.53723277618758,344.07991701436833L36.34094773403043,346.1607387060867L52.144662691873286,348.8896099650349L67.94837764971614,348.49106234902706L83.75209260755899,350.55942942774516L99.55580756540186,350.7277305797353L115.3595225232447,350.019292527103L131.16323748108755,353.61277613064703L146.96695243893043,353.51830133598077L162.7706673967733,353.44283621378844L178.57438235461612,354.0877721277682L194.378097312459,356.37081740425367L210.18181227030186,357.7663895662284L225.9855272281447,357.17717165777606L241.78924218598755,356.9102987989484L257.5929571438304,355.7286673905503L273.3966721016733,355.9600609899759L289.2003870595161,354.9632822587393L305.004102017359,354.4469074486897L320.80781697520183,355.3149611995093L336.6115319330447,354.65839005496355" style="fill: none;" fill="none"></path></g><g><path stroke="rgb(204, 51, 17)" stroke-width="2px" d="M4.733517818344723,116.28668400477764L20.53723277618758,226.30434406594443L36.34094773403043,271.9057624309292L52.144662691873286,300.6744435731108L67.94837764971614,313.12561516713083L83.75209260755899,324.0175019888177L99.55580756540186,324.9556129377637L115.3595225232447,336.6131307059919L131.16323748108755,344.1929917902916L146.96695243893043,346.50569871089607L162.7706673967733,348.81414484284255L178.57438235461612,348.0033659241754L194.378097312459,352.2428506388637L210.18181227030186,352.3340479037931L225.9855272281447,355.83281089794053L241.78924218598755,349.8913869291203L257.5929571438304,355.67589916178616L273.3966721016733,359.0599486151418L289.2003870595161,362.243822939816L305.004102017359,356.11738241734736L320.80781697520183,361.3246397251006L336.6115319330447,366.5681956746901" style="fill: none;" fill="none"></path></g><g><path stroke="rgb(238, 51, 119)" stroke-width="2px" d="M4.733517818344723,353.5507488803761L20.53723277618758,352.7473444036169L36.34094773403043,352.2224480162514L52.144662691873286,351.292203138674L67.94837764971614,351.53605135109984L83.75209260755899,352.0513609639849L99.55580756540186,352.5442194981722L115.3595225232447,353.01511858312216L131.16323748108755,353.6321954943382L146.96695243893043,354.2083032838429L162.7706673967733,354.27369000209416L178.57438235461612,353.50674804365815L194.378097312459,353.76763941071584L210.18181227030186,353.15302064680253L225.9855272281447,353.8942339968039L241.78924218598755,353.7813230973675L257.5929571438304,354.2572204151662L273.3966721016733,354.4600175676373L289.2003870595161,354.8751986470599L305.004102017359,354.17143107430275L320.80781697520183,354.7527009731431L336.6115319330447,354.21756230534965L352.41524689088754,354.38299561882" style="fill: none;" fill="none"></path></g><g><path stroke="rgb(51, 187, 238)" stroke-width="2px" d="M4.733517818344723,215.67433187023636L20.53723277618758,289.80820342161513L36.34094773403043,309.3476885776424L52.144662691873286,320.90958441579636L67.94837764971614,331.52009530956985L83.75209260755899,338.0782684366324L99.55580756540186,343.63867957353733L115.3595225232447,341.5150861187523L131.16323748108755,347.3585119484391L146.96695243893043,341.3278572325316L162.7706673967733,348.6017609158911L178.57438235461612,353.0024181553917L194.378097312459,355.67786567962827L210.18181227030186,352.6057551189826L225.9855272281447,353.39801599463624L241.78924218598755,357.611034656699L257.5929571438304,351.246071907627L273.3966721016733,351.9395971999564L289.2003870595161,353.10312025655816L305.004102017359,363.0857383909838L320.80781697520183,353.31804426905575L336.6115319330447,351.2359115654426L352.41524689088754,358.507275163256" style="fill: none;" fill="none"></path></g><g><path stroke="rgb(51, 187, 238)" stroke-width="2px" d="M4.733517818344723,351.9889240224968L20.53723277618758,353.04264983291216L36.34094773403043,353.2579015983835L52.144662691873286,353.478807102651L67.94837764971614,353.0759986979852L83.75209260755899,352.8043734210391L99.55580756540186,352.51267327445447L115.3595225232447,352.96144903368037L131.16323748108755,353.431692612683L146.96695243893043,353.7019249394909L162.7706673967733,353.5576316928236L178.57438235461612,353.6389144302989L194.378097312459,353.6403893186805L210.18181227030186,353.3637658088856L225.9855272281447,353.5017498108093L241.78924218598755,353.9284022443111L257.5929571438304,353.8009882757889L273.3966721016733,353.82106314542744L289.2003870595161,353.8864498636787L305.004102017359,353.8340093878882L320.80781697520183,353.47036746357844L336.6115319330447,354.0877721277682L352.41524689088754,354.0078004021877L368.2189618487304,353.84187545925676L384.02267680657326,353.75624999488014L399.82639176441614,353.66021837358875L415.630106722259,353.59688011142305L431.43382168010186,353.42694019456445L447.2375366379447,354.07998799464303L463.0412515957875,354.4780439811903" style="fill: none;" fill="none"></path></g><g><path stroke="rgb(204, 51, 17)" stroke-width="2px" d="M4.733517818344723,224.4522939498621L20.53723277618758,302.85424666288367L36.34094773403043,324.98404550823136L52.144662691873286,325.22527169686765L67.94837764971614,339.5134987084237L83.75209260755899,341.5517125135623L99.55580756540186,343.2664341336682L115.3595225232447,343.51790260273236L131.16323748108755,342.51465075026533L146.96695243893043,345.2451607740819L162.7706673967733,351.31604716751L178.57438235461612,350.71273588118896L194.378097312459,344.49132893459347L210.18181227030186,346.1986761127914L225.9855272281447,353.9189793463175L241.78924218598755,353.17784793455957L257.5929571438304,348.27867842207553L273.3966721016733,352.1714824288425L289.2003870595161,355.9374460347912L305.004102017359,354.1509465134471L320.80781697520183,351.40019774350503L336.6115319330447,355.14026886453223L352.41524689088754,351.50360380670446L368.2189618487304,349.7396373023015L384.02267680657326,353.1538400292368L399.82639176441614,352.94940411189725L415.630106722259,353.7554306124459L431.43382168010186,354.08629723938657L447.2375366379447,355.5098103423684L463.0412515957875,355.4542562133278" style="fill: none;" fill="none"></path></g><g><path stroke="rgb(204, 51, 17)" stroke-width="2px" d="M4.733517818344723,347.9823077956158L20.53723277618758,351.0905531216108L36.34094773403043,352.3215113525494L52.144662691873286,353.9088190041331L67.94837764971614,350.71994644661015L83.75209260755899,352.5330758970667L99.55580756540186,354.23140986848813L115.3595225232447,352.4478601239071L131.16323748108755,352.64377446393075L146.96695243893043,351.85520080923106L162.7706673967733,350.23651081041646L178.57438235461612,349.9111340457851L194.378097312459,349.4491662293682L210.18181227030186,351.810216713592L225.9855272281447,353.05166303968866L241.78924218598755,353.26863550827187L257.5929571438304,354.69116535233263L273.3966721016733,353.40039220369556L289.2003870595161,352.3338840273062L305.004102017359,349.0775762954464L320.80781697520183,348.4729539972306L336.6115319330447,348.84339679574447L352.41524689088754,348.50958039204056L368.2189618487304,349.1154317639077L384.02267680657326,350.9345427061341L399.82639176441614,348.49614252011924L415.630106722259,347.17873944236976L431.43382168010186,351.11226675611783L447.2375366379447,350.8131102293817" style="fill: none;" fill="none"></path></g><g><path stroke="rgb(0, 119, 187)" stroke-width="2px" d="M4.733517818344723,215.1164963090149L20.53723277618758,268.3042488795297L36.34094773403043,298.2109702846086L52.144662691873286,299.0539509329409L67.94837764971614,312.6920799211815L83.75209260755899,320.79282241891906L99.55580756540186,340.8304101567126L115.3595225232447,340.49421754394945L131.16323748108755,335.60029207904444L146.96695243893043,351.0932570836438L162.7706673967733,352.08659440865665L178.57438235461612,346.9293194293912L194.378097312459,346.5515021889693L210.18181227030186,347.3717859438736L225.9855272281447,353.5665629613567L241.78924218598755,355.04776058770807L257.5929571438304,357.11506246926166L273.3966721016733,360.6166113636855L289.2003870595161,362.97856316858696L305.004102017359,359.6285180862517L320.80781697520183,361.49015497681444L336.6115319330447,357.2638623193172L352.41524689088754,360.8083468532945L368.2189618487304,361.2032891865917L384.02267680657326,363.50501638257754L399.82639176441614,361.357087269496L415.630106722259,368.03226820816616L431.43382168010186,364.6802566079887L447.2375366379447,366.3673650400612" style="fill: none;" fill="none"></path></g><g><path stroke="rgb(0, 119, 187)" stroke-width="2px" d="M4.733517818344723,345.3073519008397L20.53723277618758,341.88798706456885L36.34094773403043,341.52704910229204L52.144662691873286,344.0518121968743L67.94837764971614,344.2833696727868L83.75209260755899,342.7408003021119L99.55580756540186,342.55217846575295L115.3595225232447,344.83874708670555L131.16323748108755,345.87051344788364L146.96695243893043,348.1167684530723L162.7706673967733,347.0767263293086L178.57438235461612,347.3299155014846L194.378097312459,349.62058103460834L210.18181227030186,349.9042512333376L225.9855272281447,352.11494504088085L241.78924218598755,349.5715819650416L257.5929571438304,352.25735370794945L273.3966721016733,352.849521393165L289.2003870595161,352.29717569425287L305.004102017359,352.3080734806281L320.80781697520183,353.06256082606393L336.6115319330447,352.48792792494083L352.41524689088754,354.20019139774405L368.2189618487304,354.17487248052646L384.02267680657326,353.6920104120367L399.82639176441614,353.630228976496L415.630106722259,353.6923381650104L431.43382168010186,353.6823416993129L447.2375366379447,354.54293906998106L463.0412515957875,354.1204654868938" style="fill: none;" fill="none"></path></g><g><path stroke="rgb(255, 112, 67)" stroke-width="2px" d="M4.733517818344723,94.51036674155532L20.53723277618758,221.847313314969L36.34094773403043,254.07223150296167L52.144662691873286,278.0767773578197L67.94837764971614,305.6418676423659L83.75209260755899,309.3071291471482L99.55580756540186,324.76436907761524L115.3595225232447,331.22896873068913L131.16323748108755,324.4139192104965L146.96695243893043,335.9940872769337L162.7706673967733,344.0645945628483L178.57438235461612,341.6202128850636L194.378097312459,337.81098588658773L210.18181227030186,356.2797020775677L225.9855272281447,350.0025771254448L241.78924218598755,339.81322880286376L257.5929571438304,350.8868546484621L273.3966721016733,352.15255469461187L289.2003870595161,354.6007874698374L305.004102017359,352.7112096382676L320.80781697520183,353.2175879826196L336.6115319330447,357.44019341916277L352.41524689088754,352.4519570360783L368.2189618487304,357.86299475522367L384.02267680657326,360.91109741054646L399.82639176441614,356.9474987614623L415.630106722259,361.56660335792776L431.43382168010186,355.2549824053239L447.2375366379447,362.7201299488319L463.0412515957875,362.47890376019564" style="fill: none;" fill="none"></path></g></g></g></g></g></g><g transform="translate(50, 377)" clip-path="url(#clip_1)"><clipPath id="clip_1"><rect width="489" height="23"></rect></clipPath><g><g><line x1="4.733517818344723" y1="0" x2="4.733517818344723" y2="5" style="visibility: inherit;" fill="rgb(0, 0, 0)" stroke="rgb(204, 204, 204)" stroke-width="1px"></line><line x1="36.34094773403043" y1="0" x2="36.34094773403043" y2="5" style="visibility: inherit;" fill="rgb(0, 0, 0)" stroke="rgb(204, 204, 204)" stroke-width="1px"></line><line x1="67.94837764971614" y1="0" x2="67.94837764971614" y2="5" style="visibility: inherit;" fill="rgb(0, 0, 0)" stroke="rgb(204, 204, 204)" stroke-width="1px"></line><line x1="99.55580756540186" y1="0" x2="99.55580756540186" y2="5" style="visibility: inherit;" fill="rgb(0, 0, 0)" stroke="rgb(204, 204, 204)" stroke-width="1px"></line><line x1="131.16323748108755" y1="0" x2="131.16323748108755" y2="5" style="visibility: inherit;" fill="rgb(0, 0, 0)" stroke="rgb(204, 204, 204)" stroke-width="1px"></line><line x1="162.7706673967733" y1="0" x2="162.7706673967733" y2="5" style="visibility: inherit;" fill="rgb(0, 0, 0)" stroke="rgb(204, 204, 204)" stroke-width="1px"></line><line x1="194.378097312459" y1="0" x2="194.378097312459" y2="5" style="visibility: inherit;" fill="rgb(0, 0, 0)" stroke="rgb(204, 204, 204)" stroke-width="1px"></line><line x1="225.9855272281447" y1="0" x2="225.9855272281447" y2="5" style="visibility: inherit;" fill="rgb(0, 0, 0)" stroke="rgb(204, 204, 204)" stroke-width="1px"></line><line x1="257.5929571438304" y1="0" x2="257.5929571438304" y2="5" style="visibility: inherit;" fill="rgb(0, 0, 0)" stroke="rgb(204, 204, 204)" stroke-width="1px"></line><line x1="289.2003870595161" y1="0" x2="289.2003870595161" y2="5" style="visibility: inherit;" fill="rgb(0, 0, 0)" stroke="rgb(204, 204, 204)" stroke-width="1px"></line><line x1="320.80781697520183" y1="0" x2="320.80781697520183" y2="5" style="visibility: inherit;" fill="rgb(0, 0, 0)" stroke="rgb(204, 204, 204)" stroke-width="1px"></line><line x1="352.41524689088754" y1="0" x2="352.41524689088754" y2="5" style="visibility: inherit;" fill="rgb(0, 0, 0)" stroke="rgb(204, 204, 204)" stroke-width="1px"></line><line x1="384.02267680657326" y1="0" x2="384.02267680657326" y2="5" style="visibility: inherit;" fill="rgb(0, 0, 0)" stroke="rgb(204, 204, 204)" stroke-width="1px"></line><line x1="415.630106722259" y1="0" x2="415.630106722259" y2="5" style="visibility: inherit;" fill="rgb(0, 0, 0)" stroke="rgb(204, 204, 204)" stroke-width="1px"></line><line x1="447.2375366379447" y1="0" x2="447.2375366379447" y2="5" style="visibility: inherit;" fill="rgb(0, 0, 0)" stroke="rgb(204, 204, 204)" stroke-width="1px"></line><line x1="478.8449665536304" y1="0" x2="478.8449665536304" y2="5" style="visibility: inherit;" fill="rgb(0, 0, 0)" stroke="rgb(204, 204, 204)" stroke-width="1px"></line></g><g transform="translate(0, 8)"><text x="4.733517818344723" y="0" dx="0em" dy="0.95em" style="text-anchor: middle; visibility: inherit; font-family: Roboto, sans-serif; font-size: 12px; font-weight: 200;" fill="rgb(33, 33, 33)" stroke="none" stroke-width="1px">0</text><text x="36.34094773403043" y="0" dx="0em" dy="0.95em" style="text-anchor: middle; visibility: inherit; font-family: Roboto, sans-serif; font-size: 12px; font-weight: 200;" fill="rgb(33, 33, 33)" stroke="none" stroke-width="1px">2</text><text x="67.94837764971614" y="0" dx="0em" dy="0.95em" style="text-anchor: middle; visibility: inherit; font-family: Roboto, sans-serif; font-size: 12px; font-weight: 200;" fill="rgb(33, 33, 33)" stroke="none" stroke-width="1px">4</text><text x="99.55580756540186" y="0" dx="0em" dy="0.95em" style="text-anchor: middle; visibility: inherit; font-family: Roboto, sans-serif; font-size: 12px; font-weight: 200;" fill="rgb(33, 33, 33)" stroke="none" stroke-width="1px">6</text><text x="131.16323748108755" y="0" dx="0em" dy="0.95em" style="text-anchor: middle; visibility: inherit; font-family: Roboto, sans-serif; font-size: 12px; font-weight: 200;" fill="rgb(33, 33, 33)" stroke="none" stroke-width="1px">8</text><text x="162.7706673967733" y="0" dx="0em" dy="0.95em" style="text-anchor: middle; visibility: inherit; font-family: Roboto, sans-serif; font-size: 12px; font-weight: 200;" fill="rgb(33, 33, 33)" stroke="none" stroke-width="1px">10</text><text x="194.378097312459" y="0" dx="0em" dy="0.95em" style="text-anchor: middle; visibility: inherit; font-family: Roboto, sans-serif; font-size: 12px; font-weight: 200;" fill="rgb(33, 33, 33)" stroke="none" stroke-width="1px">12</text><text x="225.9855272281447" y="0" dx="0em" dy="0.95em" style="text-anchor: middle; visibility: inherit; font-family: Roboto, sans-serif; font-size: 12px; font-weight: 200;" fill="rgb(33, 33, 33)" stroke="none" stroke-width="1px">14</text><text x="257.5929571438304" y="0" dx="0em" dy="0.95em" style="text-anchor: middle; visibility: inherit; font-family: Roboto, sans-serif; font-size: 12px; font-weight: 200;" fill="rgb(33, 33, 33)" stroke="none" stroke-width="1px">16</text><text x="289.2003870595161" y="0" dx="0em" dy="0.95em" style="text-anchor: middle; visibility: inherit; font-family: Roboto, sans-serif; font-size: 12px; font-weight: 200;" fill="rgb(33, 33, 33)" stroke="none" stroke-width="1px">18</text><text x="320.80781697520183" y="0" dx="0em" dy="0.95em" style="text-anchor: middle; visibility: inherit; font-family: Roboto, sans-serif; font-size: 12px; font-weight: 200;" fill="rgb(33, 33, 33)" stroke="none" stroke-width="1px">20</text><text x="352.41524689088754" y="0" dx="0em" dy="0.95em" style="text-anchor: middle; visibility: inherit; font-family: Roboto, sans-serif; font-size: 12px; font-weight: 200;" fill="rgb(33, 33, 33)" stroke="none" stroke-width="1px">22</text><text x="384.02267680657326" y="0" dx="0em" dy="0.95em" style="text-anchor: middle; visibility: inherit; font-family: Roboto, sans-serif; font-size: 12px; font-weight: 200;" fill="rgb(33, 33, 33)" stroke="none" stroke-width="1px">24</text><text x="415.630106722259" y="0" dx="0em" dy="0.95em" style="text-anchor: middle; visibility: inherit; font-family: Roboto, sans-serif; font-size: 12px; font-weight: 200;" fill="rgb(33, 33, 33)" stroke="none" stroke-width="1px">26</text><text x="447.2375366379447" y="0" dx="0em" dy="0.95em" style="text-anchor: middle; visibility: inherit; font-family: Roboto, sans-serif; font-size: 12px; font-weight: 200;" fill="rgb(33, 33, 33)" stroke="none" stroke-width="1px">28</text><text x="478.8449665536304" y="0" dx="0em" dy="0.95em" style="text-anchor: middle; visibility: inherit; font-family: Roboto, sans-serif; font-size: 12px; font-weight: 200;" fill="rgb(33, 33, 33)" stroke="none" stroke-width="1px">30</text></g><line x1="0" y1="0" x2="489" y2="0" fill="rgb(0, 0, 0)" stroke="rgb(204, 204, 204)" stroke-width="1px"></line></g></g></g></g></svg>